<?xml version="1.0" encoding="utf-8" standalone="no"?>
<!DOCTYPE svg PUBLIC "-//W3C//DTD SVG 1.1//EN"
  "http://www.w3.org/Graphics/SVG/1.1/DTD/svg11.dtd">
<!-- Created with matplotlib (https://matplotlib.org/) -->
<svg height="330.541644pt" version="1.1" viewBox="0 0 1000.278125 330.541644" width="1000.278125pt" xmlns="http://www.w3.org/2000/svg" xmlns:xlink="http://www.w3.org/1999/xlink">
 <metadata>
  <rdf:RDF xmlns:cc="http://creativecommons.org/ns#" xmlns:dc="http://purl.org/dc/elements/1.1/" xmlns:rdf="http://www.w3.org/1999/02/22-rdf-syntax-ns#">
   <cc:Work>
    <dc:type rdf:resource="http://purl.org/dc/dcmitype/StillImage"/>
    <dc:date>2021-02-15T10:59:35.690670</dc:date>
    <dc:format>image/svg+xml</dc:format>
    <dc:creator>
     <cc:Agent>
      <dc:title>Matplotlib v3.3.0, https://matplotlib.org/</dc:title>
     </cc:Agent>
    </dc:creator>
   </cc:Work>
  </rdf:RDF>
 </metadata>
 <defs>
  <style type="text/css">*{stroke-linecap:butt;stroke-linejoin:round;}</style>
 </defs>
 <g id="figure_1">
  <g id="axes_1">
   <g id="patch_1">
    <path d="M 43.148125 273.99006 
L 993.078125 273.99006 
L 993.078125 31.48286 
L 43.148125 31.48286 
z
" style="fill:#ffffff;"/>
   </g>
   <g id="matplotlib.axis_1">
    <g id="xtick_1">
     <g id="text_1">
      <!-- 0 -->
      <g transform="translate(72.267458 287.06881)scale(0.08 -0.08)">
       <defs>
        <path d="M 31.78125 66.40625 
Q 24.171875 66.40625 20.328125 58.90625 
Q 16.5 51.421875 16.5 36.375 
Q 16.5 21.390625 20.328125 13.890625 
Q 24.171875 6.390625 31.78125 6.390625 
Q 39.453125 6.390625 43.28125 13.890625 
Q 47.125 21.390625 47.125 36.375 
Q 47.125 51.421875 43.28125 58.90625 
Q 39.453125 66.40625 31.78125 66.40625 
z
M 31.78125 74.21875 
Q 44.046875 74.21875 50.515625 64.515625 
Q 56.984375 54.828125 56.984375 36.375 
Q 56.984375 17.96875 50.515625 8.265625 
Q 44.046875 -1.421875 31.78125 -1.421875 
Q 19.53125 -1.421875 13.0625 8.265625 
Q 6.59375 17.96875 6.59375 36.375 
Q 6.59375 54.828125 13.0625 64.515625 
Q 19.53125 74.21875 31.78125 74.21875 
z
" id="DejaVuSans-48"/>
       </defs>
       <use xlink:href="#DejaVuSans-48"/>
      </g>
     </g>
    </g>
    <g id="xtick_2">
     <g id="text_2">
      <!-- 10 -->
      <g transform="translate(184.865489 287.06881)scale(0.08 -0.08)">
       <defs>
        <path d="M 12.40625 8.296875 
L 28.515625 8.296875 
L 28.515625 63.921875 
L 10.984375 60.40625 
L 10.984375 69.390625 
L 28.421875 72.90625 
L 38.28125 72.90625 
L 38.28125 8.296875 
L 54.390625 8.296875 
L 54.390625 0 
L 12.40625 0 
z
" id="DejaVuSans-49"/>
       </defs>
       <use xlink:href="#DejaVuSans-49"/>
       <use x="63.623047" xlink:href="#DejaVuSans-48"/>
      </g>
     </g>
    </g>
    <g id="xtick_3">
     <g id="text_3">
      <!-- 20 -->
      <g transform="translate(300.008519 287.06881)scale(0.08 -0.08)">
       <defs>
        <path d="M 19.1875 8.296875 
L 53.609375 8.296875 
L 53.609375 0 
L 7.328125 0 
L 7.328125 8.296875 
Q 12.9375 14.109375 22.625 23.890625 
Q 32.328125 33.6875 34.8125 36.53125 
Q 39.546875 41.84375 41.421875 45.53125 
Q 43.3125 49.21875 43.3125 52.78125 
Q 43.3125 58.59375 39.234375 62.25 
Q 35.15625 65.921875 28.609375 65.921875 
Q 23.96875 65.921875 18.8125 64.3125 
Q 13.671875 62.703125 7.8125 59.421875 
L 7.8125 69.390625 
Q 13.765625 71.78125 18.9375 73 
Q 24.125 74.21875 28.421875 74.21875 
Q 39.75 74.21875 46.484375 68.546875 
Q 53.21875 62.890625 53.21875 53.421875 
Q 53.21875 48.921875 51.53125 44.890625 
Q 49.859375 40.875 45.40625 35.40625 
Q 44.1875 33.984375 37.640625 27.21875 
Q 31.109375 20.453125 19.1875 8.296875 
z
" id="DejaVuSans-50"/>
       </defs>
       <use xlink:href="#DejaVuSans-50"/>
       <use x="63.623047" xlink:href="#DejaVuSans-48"/>
      </g>
     </g>
    </g>
    <g id="xtick_4">
     <g id="text_4">
      <!-- 30 -->
      <g transform="translate(415.151549 287.06881)scale(0.08 -0.08)">
       <defs>
        <path d="M 40.578125 39.3125 
Q 47.65625 37.796875 51.625 33 
Q 55.609375 28.21875 55.609375 21.1875 
Q 55.609375 10.40625 48.1875 4.484375 
Q 40.765625 -1.421875 27.09375 -1.421875 
Q 22.515625 -1.421875 17.65625 -0.515625 
Q 12.796875 0.390625 7.625 2.203125 
L 7.625 11.71875 
Q 11.71875 9.328125 16.59375 8.109375 
Q 21.484375 6.890625 26.8125 6.890625 
Q 36.078125 6.890625 40.9375 10.546875 
Q 45.796875 14.203125 45.796875 21.1875 
Q 45.796875 27.640625 41.28125 31.265625 
Q 36.765625 34.90625 28.71875 34.90625 
L 20.21875 34.90625 
L 20.21875 43.015625 
L 29.109375 43.015625 
Q 36.375 43.015625 40.234375 45.921875 
Q 44.09375 48.828125 44.09375 54.296875 
Q 44.09375 59.90625 40.109375 62.90625 
Q 36.140625 65.921875 28.71875 65.921875 
Q 24.65625 65.921875 20.015625 65.03125 
Q 15.375 64.15625 9.8125 62.3125 
L 9.8125 71.09375 
Q 15.4375 72.65625 20.34375 73.4375 
Q 25.25 74.21875 29.59375 74.21875 
Q 40.828125 74.21875 47.359375 69.109375 
Q 53.90625 64.015625 53.90625 55.328125 
Q 53.90625 49.265625 50.4375 45.09375 
Q 46.96875 40.921875 40.578125 39.3125 
z
" id="DejaVuSans-51"/>
       </defs>
       <use xlink:href="#DejaVuSans-51"/>
       <use x="63.623047" xlink:href="#DejaVuSans-48"/>
      </g>
     </g>
    </g>
    <g id="xtick_5">
     <g id="text_5">
      <!-- 40 -->
      <g transform="translate(530.29458 287.06881)scale(0.08 -0.08)">
       <defs>
        <path d="M 37.796875 64.3125 
L 12.890625 25.390625 
L 37.796875 25.390625 
z
M 35.203125 72.90625 
L 47.609375 72.90625 
L 47.609375 25.390625 
L 58.015625 25.390625 
L 58.015625 17.1875 
L 47.609375 17.1875 
L 47.609375 0 
L 37.796875 0 
L 37.796875 17.1875 
L 4.890625 17.1875 
L 4.890625 26.703125 
z
" id="DejaVuSans-52"/>
       </defs>
       <use xlink:href="#DejaVuSans-52"/>
       <use x="63.623047" xlink:href="#DejaVuSans-48"/>
      </g>
     </g>
    </g>
    <g id="xtick_6">
     <g id="text_6">
      <!-- 50 -->
      <g transform="translate(645.43761 287.06881)scale(0.08 -0.08)">
       <defs>
        <path d="M 10.796875 72.90625 
L 49.515625 72.90625 
L 49.515625 64.59375 
L 19.828125 64.59375 
L 19.828125 46.734375 
Q 21.96875 47.46875 24.109375 47.828125 
Q 26.265625 48.1875 28.421875 48.1875 
Q 40.625 48.1875 47.75 41.5 
Q 54.890625 34.8125 54.890625 23.390625 
Q 54.890625 11.625 47.5625 5.09375 
Q 40.234375 -1.421875 26.90625 -1.421875 
Q 22.3125 -1.421875 17.546875 -0.640625 
Q 12.796875 0.140625 7.71875 1.703125 
L 7.71875 11.625 
Q 12.109375 9.234375 16.796875 8.0625 
Q 21.484375 6.890625 26.703125 6.890625 
Q 35.15625 6.890625 40.078125 11.328125 
Q 45.015625 15.765625 45.015625 23.390625 
Q 45.015625 31 40.078125 35.4375 
Q 35.15625 39.890625 26.703125 39.890625 
Q 22.75 39.890625 18.8125 39.015625 
Q 14.890625 38.140625 10.796875 36.28125 
z
" id="DejaVuSans-53"/>
       </defs>
       <use xlink:href="#DejaVuSans-53"/>
       <use x="63.623047" xlink:href="#DejaVuSans-48"/>
      </g>
     </g>
    </g>
    <g id="xtick_7">
     <g id="text_7">
      <!-- 60 -->
      <g transform="translate(760.58064 287.06881)scale(0.08 -0.08)">
       <defs>
        <path d="M 33.015625 40.375 
Q 26.375 40.375 22.484375 35.828125 
Q 18.609375 31.296875 18.609375 23.390625 
Q 18.609375 15.53125 22.484375 10.953125 
Q 26.375 6.390625 33.015625 6.390625 
Q 39.65625 6.390625 43.53125 10.953125 
Q 47.40625 15.53125 47.40625 23.390625 
Q 47.40625 31.296875 43.53125 35.828125 
Q 39.65625 40.375 33.015625 40.375 
z
M 52.59375 71.296875 
L 52.59375 62.3125 
Q 48.875 64.0625 45.09375 64.984375 
Q 41.3125 65.921875 37.59375 65.921875 
Q 27.828125 65.921875 22.671875 59.328125 
Q 17.53125 52.734375 16.796875 39.40625 
Q 19.671875 43.65625 24.015625 45.921875 
Q 28.375 48.1875 33.59375 48.1875 
Q 44.578125 48.1875 50.953125 41.515625 
Q 57.328125 34.859375 57.328125 23.390625 
Q 57.328125 12.15625 50.6875 5.359375 
Q 44.046875 -1.421875 33.015625 -1.421875 
Q 20.359375 -1.421875 13.671875 8.265625 
Q 6.984375 17.96875 6.984375 36.375 
Q 6.984375 53.65625 15.1875 63.9375 
Q 23.390625 74.21875 37.203125 74.21875 
Q 40.921875 74.21875 44.703125 73.484375 
Q 48.484375 72.75 52.59375 71.296875 
z
" id="DejaVuSans-54"/>
       </defs>
       <use xlink:href="#DejaVuSans-54"/>
       <use x="63.623047" xlink:href="#DejaVuSans-48"/>
      </g>
     </g>
    </g>
    <g id="xtick_8">
     <g id="text_8">
      <!-- 70 -->
      <g transform="translate(875.72367 287.06881)scale(0.08 -0.08)">
       <defs>
        <path d="M 8.203125 72.90625 
L 55.078125 72.90625 
L 55.078125 68.703125 
L 28.609375 0 
L 18.3125 0 
L 43.21875 64.59375 
L 8.203125 64.59375 
z
" id="DejaVuSans-55"/>
       </defs>
       <use xlink:href="#DejaVuSans-55"/>
       <use x="63.623047" xlink:href="#DejaVuSans-48"/>
      </g>
     </g>
    </g>
    <g id="text_9">
     <!-- Cycle # -->
     <g transform="translate(498.668594 300.330997)scale(0.1 -0.1)">
      <defs>
       <path d="M 64.40625 67.28125 
L 64.40625 56.890625 
Q 59.421875 61.53125 53.78125 63.8125 
Q 48.140625 66.109375 41.796875 66.109375 
Q 29.296875 66.109375 22.65625 58.46875 
Q 16.015625 50.828125 16.015625 36.375 
Q 16.015625 21.96875 22.65625 14.328125 
Q 29.296875 6.6875 41.796875 6.6875 
Q 48.140625 6.6875 53.78125 8.984375 
Q 59.421875 11.28125 64.40625 15.921875 
L 64.40625 5.609375 
Q 59.234375 2.09375 53.4375 0.328125 
Q 47.65625 -1.421875 41.21875 -1.421875 
Q 24.65625 -1.421875 15.125 8.703125 
Q 5.609375 18.84375 5.609375 36.375 
Q 5.609375 53.953125 15.125 64.078125 
Q 24.65625 74.21875 41.21875 74.21875 
Q 47.75 74.21875 53.53125 72.484375 
Q 59.328125 70.75 64.40625 67.28125 
z
" id="DejaVuSans-67"/>
       <path d="M 32.171875 -5.078125 
Q 28.375 -14.84375 24.75 -17.8125 
Q 21.140625 -20.796875 15.09375 -20.796875 
L 7.90625 -20.796875 
L 7.90625 -13.28125 
L 13.1875 -13.28125 
Q 16.890625 -13.28125 18.9375 -11.515625 
Q 21 -9.765625 23.484375 -3.21875 
L 25.09375 0.875 
L 2.984375 54.6875 
L 12.5 54.6875 
L 29.59375 11.921875 
L 46.6875 54.6875 
L 56.203125 54.6875 
z
" id="DejaVuSans-121"/>
       <path d="M 48.78125 52.59375 
L 48.78125 44.1875 
Q 44.96875 46.296875 41.140625 47.34375 
Q 37.3125 48.390625 33.40625 48.390625 
Q 24.65625 48.390625 19.8125 42.84375 
Q 14.984375 37.3125 14.984375 27.296875 
Q 14.984375 17.28125 19.8125 11.734375 
Q 24.65625 6.203125 33.40625 6.203125 
Q 37.3125 6.203125 41.140625 7.25 
Q 44.96875 8.296875 48.78125 10.40625 
L 48.78125 2.09375 
Q 45.015625 0.34375 40.984375 -0.53125 
Q 36.96875 -1.421875 32.421875 -1.421875 
Q 20.0625 -1.421875 12.78125 6.34375 
Q 5.515625 14.109375 5.515625 27.296875 
Q 5.515625 40.671875 12.859375 48.328125 
Q 20.21875 56 33.015625 56 
Q 37.15625 56 41.109375 55.140625 
Q 45.0625 54.296875 48.78125 52.59375 
z
" id="DejaVuSans-99"/>
       <path d="M 9.421875 75.984375 
L 18.40625 75.984375 
L 18.40625 0 
L 9.421875 0 
z
" id="DejaVuSans-108"/>
       <path d="M 56.203125 29.59375 
L 56.203125 25.203125 
L 14.890625 25.203125 
Q 15.484375 15.921875 20.484375 11.0625 
Q 25.484375 6.203125 34.421875 6.203125 
Q 39.59375 6.203125 44.453125 7.46875 
Q 49.3125 8.734375 54.109375 11.28125 
L 54.109375 2.78125 
Q 49.265625 0.734375 44.1875 -0.34375 
Q 39.109375 -1.421875 33.890625 -1.421875 
Q 20.796875 -1.421875 13.15625 6.1875 
Q 5.515625 13.8125 5.515625 26.8125 
Q 5.515625 40.234375 12.765625 48.109375 
Q 20.015625 56 32.328125 56 
Q 43.359375 56 49.78125 48.890625 
Q 56.203125 41.796875 56.203125 29.59375 
z
M 47.21875 32.234375 
Q 47.125 39.59375 43.09375 43.984375 
Q 39.0625 48.390625 32.421875 48.390625 
Q 24.90625 48.390625 20.390625 44.140625 
Q 15.875 39.890625 15.1875 32.171875 
z
" id="DejaVuSans-101"/>
       <path id="DejaVuSans-32"/>
       <path d="M 51.125 44 
L 36.921875 44 
L 32.8125 27.6875 
L 47.125 27.6875 
z
M 43.796875 71.78125 
L 38.71875 51.515625 
L 52.984375 51.515625 
L 58.109375 71.78125 
L 65.921875 71.78125 
L 60.890625 51.515625 
L 76.125 51.515625 
L 76.125 44 
L 58.984375 44 
L 54.984375 27.6875 
L 70.515625 27.6875 
L 70.515625 20.21875 
L 53.078125 20.21875 
L 48 0 
L 40.1875 0 
L 45.21875 20.21875 
L 30.90625 20.21875 
L 25.875 0 
L 18.015625 0 
L 23.09375 20.21875 
L 7.71875 20.21875 
L 7.71875 27.6875 
L 24.90625 27.6875 
L 29 44 
L 13.28125 44 
L 13.28125 51.515625 
L 30.90625 51.515625 
L 35.890625 71.78125 
z
" id="DejaVuSans-35"/>
      </defs>
      <use xlink:href="#DejaVuSans-67"/>
      <use x="69.824219" xlink:href="#DejaVuSans-121"/>
      <use x="129.003906" xlink:href="#DejaVuSans-99"/>
      <use x="183.984375" xlink:href="#DejaVuSans-108"/>
      <use x="211.767578" xlink:href="#DejaVuSans-101"/>
      <use x="273.291016" xlink:href="#DejaVuSans-32"/>
      <use x="305.078125" xlink:href="#DejaVuSans-35"/>
     </g>
    </g>
   </g>
   <g id="matplotlib.axis_2">
    <g id="ytick_1">
     <g id="line2d_1">
      <path clip-path="url(#pfaf2c3544f)" d="M 43.148125 273.99006 
L 993.078125 273.99006 
" style="fill:none;stroke:#dedede;stroke-linecap:square;"/>
     </g>
     <g id="text_10">
      <!-- 0 -->
      <g transform="translate(31.058125 277.029435)scale(0.08 -0.08)">
       <use xlink:href="#DejaVuSans-48"/>
      </g>
     </g>
    </g>
    <g id="ytick_2">
     <g id="line2d_2">
      <path clip-path="url(#pfaf2c3544f)" d="M 43.148125 225.48862 
L 993.078125 225.48862 
" style="fill:none;stroke:#dedede;stroke-linecap:square;"/>
     </g>
     <g id="text_11">
      <!-- 20 -->
      <g transform="translate(25.968125 228.527995)scale(0.08 -0.08)">
       <use xlink:href="#DejaVuSans-50"/>
       <use x="63.623047" xlink:href="#DejaVuSans-48"/>
      </g>
     </g>
    </g>
    <g id="ytick_3">
     <g id="line2d_3">
      <path clip-path="url(#pfaf2c3544f)" d="M 43.148125 176.98718 
L 993.078125 176.98718 
" style="fill:none;stroke:#dedede;stroke-linecap:square;"/>
     </g>
     <g id="text_12">
      <!-- 40 -->
      <g transform="translate(25.968125 180.026555)scale(0.08 -0.08)">
       <use xlink:href="#DejaVuSans-52"/>
       <use x="63.623047" xlink:href="#DejaVuSans-48"/>
      </g>
     </g>
    </g>
    <g id="ytick_4">
     <g id="line2d_4">
      <path clip-path="url(#pfaf2c3544f)" d="M 43.148125 128.48574 
L 993.078125 128.48574 
" style="fill:none;stroke:#dedede;stroke-linecap:square;"/>
     </g>
     <g id="text_13">
      <!-- 60 -->
      <g transform="translate(25.968125 131.525115)scale(0.08 -0.08)">
       <use xlink:href="#DejaVuSans-54"/>
       <use x="63.623047" xlink:href="#DejaVuSans-48"/>
      </g>
     </g>
    </g>
    <g id="ytick_5">
     <g id="line2d_5">
      <path clip-path="url(#pfaf2c3544f)" d="M 43.148125 79.9843 
L 993.078125 79.9843 
" style="fill:none;stroke:#dedede;stroke-linecap:square;"/>
     </g>
     <g id="text_14">
      <!-- 80 -->
      <g transform="translate(25.968125 83.023675)scale(0.08 -0.08)">
       <defs>
        <path d="M 31.78125 34.625 
Q 24.75 34.625 20.71875 30.859375 
Q 16.703125 27.09375 16.703125 20.515625 
Q 16.703125 13.921875 20.71875 10.15625 
Q 24.75 6.390625 31.78125 6.390625 
Q 38.8125 6.390625 42.859375 10.171875 
Q 46.921875 13.96875 46.921875 20.515625 
Q 46.921875 27.09375 42.890625 30.859375 
Q 38.875 34.625 31.78125 34.625 
z
M 21.921875 38.8125 
Q 15.578125 40.375 12.03125 44.71875 
Q 8.5 49.078125 8.5 55.328125 
Q 8.5 64.0625 14.71875 69.140625 
Q 20.953125 74.21875 31.78125 74.21875 
Q 42.671875 74.21875 48.875 69.140625 
Q 55.078125 64.0625 55.078125 55.328125 
Q 55.078125 49.078125 51.53125 44.71875 
Q 48 40.375 41.703125 38.8125 
Q 48.828125 37.15625 52.796875 32.3125 
Q 56.78125 27.484375 56.78125 20.515625 
Q 56.78125 9.90625 50.3125 4.234375 
Q 43.84375 -1.421875 31.78125 -1.421875 
Q 19.734375 -1.421875 13.25 4.234375 
Q 6.78125 9.90625 6.78125 20.515625 
Q 6.78125 27.484375 10.78125 32.3125 
Q 14.796875 37.15625 21.921875 38.8125 
z
M 18.3125 54.390625 
Q 18.3125 48.734375 21.84375 45.5625 
Q 25.390625 42.390625 31.78125 42.390625 
Q 38.140625 42.390625 41.71875 45.5625 
Q 45.3125 48.734375 45.3125 54.390625 
Q 45.3125 60.0625 41.71875 63.234375 
Q 38.140625 66.40625 31.78125 66.40625 
Q 25.390625 66.40625 21.84375 63.234375 
Q 18.3125 60.0625 18.3125 54.390625 
z
" id="DejaVuSans-56"/>
       </defs>
       <use xlink:href="#DejaVuSans-56"/>
       <use x="63.623047" xlink:href="#DejaVuSans-48"/>
      </g>
     </g>
    </g>
    <g id="ytick_6">
     <g id="line2d_6">
      <path clip-path="url(#pfaf2c3544f)" d="M 43.148125 31.48286 
L 993.078125 31.48286 
" style="fill:none;stroke:#dedede;stroke-linecap:square;"/>
     </g>
     <g id="text_15">
      <!-- 100 -->
      <g transform="translate(20.878125 34.522235)scale(0.08 -0.08)">
       <use xlink:href="#DejaVuSans-49"/>
       <use x="63.623047" xlink:href="#DejaVuSans-48"/>
       <use x="127.246094" xlink:href="#DejaVuSans-48"/>
      </g>
     </g>
    </g>
    <g id="text_16">
     <!-- % Guanine -->
     <g transform="translate(14.798437 179.98646)rotate(-90)scale(0.1 -0.1)">
      <defs>
       <path d="M 72.703125 32.078125 
Q 68.453125 32.078125 66.03125 28.46875 
Q 63.625 24.859375 63.625 18.40625 
Q 63.625 12.0625 66.03125 8.421875 
Q 68.453125 4.78125 72.703125 4.78125 
Q 76.859375 4.78125 79.265625 8.421875 
Q 81.6875 12.0625 81.6875 18.40625 
Q 81.6875 24.8125 79.265625 28.4375 
Q 76.859375 32.078125 72.703125 32.078125 
z
M 72.703125 38.28125 
Q 80.421875 38.28125 84.953125 32.90625 
Q 89.5 27.546875 89.5 18.40625 
Q 89.5 9.28125 84.9375 3.921875 
Q 80.375 -1.421875 72.703125 -1.421875 
Q 64.890625 -1.421875 60.34375 3.921875 
Q 55.8125 9.28125 55.8125 18.40625 
Q 55.8125 27.59375 60.375 32.9375 
Q 64.9375 38.28125 72.703125 38.28125 
z
M 22.3125 68.015625 
Q 18.109375 68.015625 15.6875 64.375 
Q 13.28125 60.75 13.28125 54.390625 
Q 13.28125 47.953125 15.671875 44.328125 
Q 18.0625 40.71875 22.3125 40.71875 
Q 26.5625 40.71875 28.96875 44.328125 
Q 31.390625 47.953125 31.390625 54.390625 
Q 31.390625 60.6875 28.953125 64.34375 
Q 26.515625 68.015625 22.3125 68.015625 
z
M 66.40625 74.21875 
L 74.21875 74.21875 
L 28.609375 -1.421875 
L 20.796875 -1.421875 
z
M 22.3125 74.21875 
Q 30.03125 74.21875 34.609375 68.875 
Q 39.203125 63.53125 39.203125 54.390625 
Q 39.203125 45.171875 34.640625 39.84375 
Q 30.078125 34.515625 22.3125 34.515625 
Q 14.546875 34.515625 10.03125 39.859375 
Q 5.515625 45.21875 5.515625 54.390625 
Q 5.515625 63.484375 10.046875 68.84375 
Q 14.59375 74.21875 22.3125 74.21875 
z
" id="DejaVuSans-37"/>
       <path d="M 59.515625 10.40625 
L 59.515625 29.984375 
L 43.40625 29.984375 
L 43.40625 38.09375 
L 69.28125 38.09375 
L 69.28125 6.78125 
Q 63.578125 2.734375 56.6875 0.65625 
Q 49.8125 -1.421875 42 -1.421875 
Q 24.90625 -1.421875 15.25 8.5625 
Q 5.609375 18.5625 5.609375 36.375 
Q 5.609375 54.25 15.25 64.234375 
Q 24.90625 74.21875 42 74.21875 
Q 49.125 74.21875 55.546875 72.453125 
Q 61.96875 70.703125 67.390625 67.28125 
L 67.390625 56.78125 
Q 61.921875 61.421875 55.765625 63.765625 
Q 49.609375 66.109375 42.828125 66.109375 
Q 29.4375 66.109375 22.71875 58.640625 
Q 16.015625 51.171875 16.015625 36.375 
Q 16.015625 21.625 22.71875 14.15625 
Q 29.4375 6.6875 42.828125 6.6875 
Q 48.046875 6.6875 52.140625 7.59375 
Q 56.25 8.5 59.515625 10.40625 
z
" id="DejaVuSans-71"/>
       <path d="M 8.5 21.578125 
L 8.5 54.6875 
L 17.484375 54.6875 
L 17.484375 21.921875 
Q 17.484375 14.15625 20.5 10.265625 
Q 23.53125 6.390625 29.59375 6.390625 
Q 36.859375 6.390625 41.078125 11.03125 
Q 45.3125 15.671875 45.3125 23.6875 
L 45.3125 54.6875 
L 54.296875 54.6875 
L 54.296875 0 
L 45.3125 0 
L 45.3125 8.40625 
Q 42.046875 3.421875 37.71875 1 
Q 33.40625 -1.421875 27.6875 -1.421875 
Q 18.265625 -1.421875 13.375 4.4375 
Q 8.5 10.296875 8.5 21.578125 
z
M 31.109375 56 
z
" id="DejaVuSans-117"/>
       <path d="M 34.28125 27.484375 
Q 23.390625 27.484375 19.1875 25 
Q 14.984375 22.515625 14.984375 16.5 
Q 14.984375 11.71875 18.140625 8.90625 
Q 21.296875 6.109375 26.703125 6.109375 
Q 34.1875 6.109375 38.703125 11.40625 
Q 43.21875 16.703125 43.21875 25.484375 
L 43.21875 27.484375 
z
M 52.203125 31.203125 
L 52.203125 0 
L 43.21875 0 
L 43.21875 8.296875 
Q 40.140625 3.328125 35.546875 0.953125 
Q 30.953125 -1.421875 24.3125 -1.421875 
Q 15.921875 -1.421875 10.953125 3.296875 
Q 6 8.015625 6 15.921875 
Q 6 25.140625 12.171875 29.828125 
Q 18.359375 34.515625 30.609375 34.515625 
L 43.21875 34.515625 
L 43.21875 35.40625 
Q 43.21875 41.609375 39.140625 45 
Q 35.0625 48.390625 27.6875 48.390625 
Q 23 48.390625 18.546875 47.265625 
Q 14.109375 46.140625 10.015625 43.890625 
L 10.015625 52.203125 
Q 14.9375 54.109375 19.578125 55.046875 
Q 24.21875 56 28.609375 56 
Q 40.484375 56 46.34375 49.84375 
Q 52.203125 43.703125 52.203125 31.203125 
z
" id="DejaVuSans-97"/>
       <path d="M 54.890625 33.015625 
L 54.890625 0 
L 45.90625 0 
L 45.90625 32.71875 
Q 45.90625 40.484375 42.875 44.328125 
Q 39.84375 48.1875 33.796875 48.1875 
Q 26.515625 48.1875 22.3125 43.546875 
Q 18.109375 38.921875 18.109375 30.90625 
L 18.109375 0 
L 9.078125 0 
L 9.078125 54.6875 
L 18.109375 54.6875 
L 18.109375 46.1875 
Q 21.34375 51.125 25.703125 53.5625 
Q 30.078125 56 35.796875 56 
Q 45.21875 56 50.046875 50.171875 
Q 54.890625 44.34375 54.890625 33.015625 
z
" id="DejaVuSans-110"/>
       <path d="M 9.421875 54.6875 
L 18.40625 54.6875 
L 18.40625 0 
L 9.421875 0 
z
M 9.421875 75.984375 
L 18.40625 75.984375 
L 18.40625 64.59375 
L 9.421875 64.59375 
z
" id="DejaVuSans-105"/>
      </defs>
      <use xlink:href="#DejaVuSans-37"/>
      <use x="95.019531" xlink:href="#DejaVuSans-32"/>
      <use x="126.806641" xlink:href="#DejaVuSans-71"/>
      <use x="204.296875" xlink:href="#DejaVuSans-117"/>
      <use x="267.675781" xlink:href="#DejaVuSans-97"/>
      <use x="328.955078" xlink:href="#DejaVuSans-110"/>
      <use x="392.333984" xlink:href="#DejaVuSans-105"/>
      <use x="420.117188" xlink:href="#DejaVuSans-110"/>
      <use x="483.496094" xlink:href="#DejaVuSans-101"/>
     </g>
    </g>
   </g>
   <g id="line2d_7">
    <path clip-path="url(#pfaf2c3544f)" d="M 86.326761 223.037641 
L 97.841064 227.643095 
L 109.355367 227.713274 
L 120.86967 226.31848 
L 132.383973 227.830238 
L 143.898277 224.98509 
L 155.41258 226.224908 
L 166.926883 226.698612 
L 178.441186 225.672254 
L 189.955489 225.338906 
L 201.469792 225.043573 
L 212.984095 224.993862 
L 224.498398 225.303817 
L 236.012701 225.602075 
L 247.527004 225.985132 
L 259.041307 226.365264 
L 270.55561 225.584532 
L 282.069913 225.482186 
L 293.584216 225.435402 
L 305.098519 225.142991 
L 316.612822 224.999119 
L 328.127125 225.424872 
L 339.641428 225.473415 
L 351.155731 225.707369 
L 362.670034 225.858303 
L 374.184337 225.073843 
L 385.69864 225.92449 
L 397.212943 225.191971 
L 408.727246 225.677633 
L 420.241549 225.528418 
L 431.755852 225.415456 
L 443.270155 225.556527 
L 454.784458 225.088745 
L 466.298761 225.632073 
L 477.813064 225.27314 
L 489.327367 225.192897 
L 500.84167 226.257033 
L 512.355973 225.392551 
L 523.870277 224.977665 
L 535.38458 225.238387 
L 546.898883 225.713735 
L 558.413186 224.952061 
L 569.927489 225.391241 
L 581.441792 225.606585 
L 592.956095 225.607257 
L 604.470398 224.724536 
L 615.984701 224.843512 
L 627.499004 224.468625 
L 639.013307 223.275861 
L 650.52761 209.610922 
" style="fill:none;stroke:#7cb5ec;stroke-linecap:square;"/>
   </g>
   <g id="line2d_8">
    <path clip-path="url(#pfaf2c3544f)" d="M 86.326761 222.979158 
L 97.841064 227.005643 
L 109.355367 227.3887 
L 120.86967 225.724887 
L 132.383973 227.274659 
L 143.898277 224.815493 
L 155.41258 225.710267 
L 166.926883 225.809685 
L 178.441186 225.137142 
L 189.955489 224.932456 
L 201.469792 224.879823 
L 212.984095 225.309664 
L 224.498398 225.590378 
L 236.012701 225.678101 
L 247.527004 225.452947 
L 259.041307 225.181004 
L 270.55561 225.590378 
L 282.069913 225.41201 
L 293.584216 225.447098 
L 305.098519 225.181004 
L 316.612822 225.008424 
L 328.127125 225.080332 
L 339.641428 225.710929 
L 351.155731 224.599222 
L 362.670034 225.071382 
L 374.184337 225.8749 
L 385.69864 225.594571 
L 397.212943 224.878533 
L 408.727246 225.739258 
L 420.241549 225.017135 
L 431.755852 225.929738 
L 443.270155 224.848161 
L 454.784458 225.476897 
L 466.298761 225.44817 
L 477.813064 225.325015 
L 489.327367 225.31912 
L 500.84167 224.78638 
L 512.355973 224.71038 
L 523.870277 225.503299 
L 535.38458 225.298305 
L 546.898883 225.325248 
L 558.413186 224.951193 
L 569.927489 225.543334 
L 581.441792 225.190132 
L 592.956095 225.670146 
L 604.470398 225.764918 
L 615.984701 225.057537 
L 627.499004 224.504805 
L 639.013307 223.328909 
L 650.52761 208.367929 
" style="fill:none;stroke:#434348;stroke-linecap:square;"/>
   </g>
   <g id="line2d_9">
    <path clip-path="url(#pfaf2c3544f)" d="M 86.326761 226.899059 
L 97.841064 227.925912 
L 109.355367 227.606258 
L 120.86967 227.688294 
L 132.383973 228.336089 
L 143.898277 226.118309 
L 155.41258 226.607691 
L 166.926883 227.286605 
L 178.441186 226.573748 
L 189.955489 226.058905 
L 201.469792 226.884916 
L 212.984095 226.222975 
L 224.498398 226.474739 
L 236.012701 226.488882 
L 247.527004 226.896229 
L 259.041307 227.057472 
L 270.55561 226.217318 
L 282.069913 226.734988 
L 293.584216 226.189029 
L 305.098519 226.288038 
L 316.612822 226.409122 
L 328.127125 226.514957 
L 339.641428 226.393919 
L 351.155731 226.983 
L 362.670034 226.755638 
L 374.184337 226.231679 
L 385.69864 226.348856 
L 397.212943 226.067628 
L 408.727246 226.230093 
L 420.241549 226.439074 
L 431.755852 226.860415 
L 443.270155 226.477821 
L 454.784458 226.187371 
L 466.298761 226.754869 
L 477.813064 226.252668 
L 489.327367 226.554699 
L 500.84167 226.064218 
L 512.355973 226.778276 
L 523.870277 226.122808 
L 535.38458 226.337861 
L 546.898883 226.507065 
L 558.413186 226.230493 
L 569.927489 226.490638 
L 581.441792 226.461554 
L 592.956095 227.058495 
L 604.470398 226.656734 
L 615.984701 226.359012 
L 627.499004 225.970918 
L 639.013307 223.90281 
L 650.52761 209.744883 
" style="fill:none;stroke:#90ed7d;stroke-linecap:square;"/>
   </g>
   <g id="line2d_10">
    <path clip-path="url(#pfaf2c3544f)" d="M 86.326761 227.382783 
L 97.841064 228.749093 
L 109.355367 228.172018 
L 120.86967 226.237121 
L 132.383973 228.511475 
L 143.898277 226.177716 
L 155.41258 226.160743 
L 166.926883 227.425215 
L 178.441186 226.797223 
L 189.955489 226.593548 
L 201.469792 225.691162 
L 212.984095 225.886349 
L 224.498398 226.305011 
L 236.012701 226.669926 
L 247.527004 226.930175 
L 259.041307 226.437965 
L 270.55561 226.302183 
L 282.069913 227.125362 
L 293.584216 225.965556 
L 305.098519 226.503028 
L 316.612822 226.340167 
L 328.127125 226.527499 
L 339.641428 226.726864 
L 351.155731 226.550998 
L 362.670034 226.54429 
L 374.184337 226.320849 
L 385.69864 226.669235 
L 397.212943 226.181788 
L 408.727246 226.404587 
L 420.241549 226.256281 
L 431.755852 227.057205 
L 443.270155 227.118921 
L 454.784458 226.387267 
L 466.298761 226.073926 
L 477.813064 226.618657 
L 489.327367 227.029203 
L 500.84167 226.526835 
L 512.355973 226.389697 
L 523.870277 225.935624 
L 535.38458 226.443138 
L 546.898883 226.360606 
L 558.413186 225.597239 
L 569.927489 226.08382 
L 581.441792 226.162472 
L 592.956095 226.446448 
L 604.470398 226.37941 
L 615.984701 226.249547 
L 627.499004 225.623323 
L 639.013307 224.988177 
L 650.52761 209.31265 
" style="fill:none;stroke:#f7a35c;stroke-linecap:square;"/>
   </g>
   <g id="line2d_11">
    <path clip-path="url(#pfaf2c3544f)" d="M 86.326761 199.852241 
L 97.841064 227.669955 
L 109.355367 224.943287 
L 120.86967 224.378003 
L 132.383973 243.977711 
L 143.898277 223.864969 
L 155.41258 222.957665 
L 166.926883 225.180801 
L 178.441186 204.060999 
L 189.955489 228.943033 
L 201.469792 212.953547 
L 212.984095 223.199929 
L 224.498398 212.692281 
L 236.012701 213.295569 
L 247.527004 220.050486 
L 259.041307 223.69396 
L 270.55561 225.703333 
L 282.069913 226.439629 
L 293.584216 225.731835 
L 305.098519 224.805528 
L 316.612822 225.299559 
L 328.127125 224.210767 
L 339.641428 223.255939 
L 351.155731 223.276709 
L 362.670034 222.671365 
L 374.184337 224.373034 
L 385.69864 223.815665 
L 397.212943 224.271569 
L 408.727246 225.457235 
L 420.241549 224.601735 
L 431.755852 224.769649 
L 443.270155 223.744006 
L 454.784458 224.589294 
L 466.298761 225.019225 
L 477.813064 224.852395 
L 489.327367 224.142024 
L 500.84167 223.810024 
L 512.355973 224.578922 
L 523.870277 225.159041 
L 535.38458 224.447209 
L 546.898883 225.636894 
L 558.413186 226.02199 
L 569.927489 223.89891 
L 581.441792 224.224052 
L 592.956095 225.757301 
L 604.470398 224.55447 
L 615.984701 225.058065 
L 627.499004 223.845607 
L 639.013307 225.195671 
L 650.52761 225.47883 
L 662.041913 224.888024 
L 673.556216 225.504325 
L 685.070519 224.982427 
L 696.584822 224.928208 
L 708.099125 224.5642 
L 719.613428 224.366525 
L 731.127731 224.692876 
L 742.642034 225.467158 
L 754.156337 225.495835 
L 765.67064 225.454611 
L 777.184943 225.416232 
L 788.699246 224.864467 
L 800.213549 225.512444 
L 811.727852 224.814566 
L 823.242155 224.333915 
L 834.756458 225.513111 
L 846.270761 225.506844 
L 857.785064 226.166374 
L 869.299367 224.959455 
L 880.81367 224.821888 
L 892.327973 225.411469 
L 903.842277 225.361406 
L 915.35658 225.416474 
L 926.870883 226.625649 
L 938.385186 230.948323 
L 949.899489 241.377869 
" style="fill:none;stroke:#8085e9;stroke-linecap:square;"/>
   </g>
   <g id="line2d_12">
    <path clip-path="url(#pfaf2c3544f)" d="M 86.326761 198.099382 
L 97.841064 227.190174 
L 109.355367 224.02173 
L 120.86967 223.394692 
L 132.383973 243.445677 
L 143.898277 223.07642 
L 155.41258 223.171427 
L 166.926883 226.116609 
L 178.441186 205.262824 
L 189.955489 227.726959 
L 201.469792 213.062803 
L 212.984095 223.978976 
L 224.498398 213.780098 
L 236.012701 213.870355 
L 247.527004 219.518452 
L 259.041307 224.145237 
L 270.55561 225.898096 
L 282.069913 225.945598 
L 293.584216 225.171299 
L 305.098519 225.404065 
L 316.612822 224.549011 
L 328.127125 223.050673 
L 339.641428 223.99504 
L 351.155731 222.886154 
L 362.670034 223.882832 
L 374.184337 223.684105 
L 385.69864 225.551354 
L 397.212943 223.759107 
L 408.727246 224.024902 
L 420.241549 224.947514 
L 431.755852 224.810679 
L 443.270155 223.633139 
L 454.784458 224.553015 
L 466.298761 223.568101 
L 477.813064 224.223773 
L 489.327367 224.190801 
L 500.84167 225.079025 
L 512.355973 224.791152 
L 523.870277 225.206562 
L 535.38458 224.525437 
L 546.898883 224.803076 
L 558.413186 225.380566 
L 569.927489 223.475791 
L 581.441792 224.657948 
L 592.956095 224.616654 
L 604.470398 224.249154 
L 615.984701 224.611891 
L 627.499004 225.549443 
L 639.013307 225.748078 
L 650.52761 225.849645 
L 662.041913 225.466549 
L 673.556216 225.534592 
L 685.070519 224.831816 
L 696.584822 225.311064 
L 708.099125 224.435072 
L 719.613428 224.990918 
L 731.127731 225.289192 
L 742.642034 225.792462 
L 754.156337 225.470594 
L 765.67064 225.476483 
L 777.184943 225.109741 
L 788.699246 225.42413 
L 800.213549 224.826757 
L 811.727852 225.336915 
L 823.242155 225.581835 
L 834.756458 225.350718 
L 846.270761 226.104358 
L 857.785064 224.975024 
L 869.299367 225.424945 
L 880.81367 225.224842 
L 892.327973 225.594181 
L 903.842277 226.023407 
L 915.35658 225.912709 
L 926.870883 227.231228 
L 938.385186 230.477578 
L 949.899489 240.425267 
" style="fill:none;stroke:#f15c80;stroke-linecap:square;"/>
   </g>
   <g id="line2d_13">
    <path clip-path="url(#pfaf2c3544f)" d="M 86.326761 201.690838 
L 97.841064 227.505477 
L 109.355367 224.035798 
L 120.86967 224.833426 
L 132.383973 244.050548 
L 143.898277 224.645413 
L 155.41258 223.768024 
L 166.926883 226.115327 
L 178.441186 204.647757 
L 189.955489 227.77895 
L 201.469792 214.418693 
L 212.984095 224.839123 
L 224.498398 214.37881 
L 236.012701 213.928721 
L 247.527004 220.497751 
L 259.041307 223.562919 
L 270.55561 226.855982 
L 282.069913 227.089573 
L 293.584216 226.417287 
L 305.098519 225.847552 
L 316.612822 226.034438 
L 328.127125 224.698912 
L 339.641428 225.022533 
L 351.155731 224.559844 
L 362.670034 225.29031 
L 374.184337 226.163469 
L 385.69864 226.042844 
L 397.212943 225.332305 
L 408.727246 226.404259 
L 420.241549 225.174418 
L 431.755852 225.316008 
L 443.270155 225.318222 
L 454.784458 225.376482 
L 466.298761 224.996219 
L 477.813064 225.239795 
L 489.327367 224.977051 
L 500.84167 225.235966 
L 512.355973 225.987021 
L 523.870277 226.120356 
L 535.38458 226.539045 
L 546.898883 225.884768 
L 558.413186 226.255704 
L 569.927489 225.562948 
L 581.441792 224.716894 
L 592.956095 225.514234 
L 604.470398 224.840932 
L 615.984701 226.676888 
L 627.499004 225.409698 
L 639.013307 226.337572 
L 650.52761 226.852687 
L 662.041913 225.97119 
L 673.556216 225.717161 
L 685.070519 225.609098 
L 696.584822 225.799146 
L 708.099125 226.537784 
L 719.613428 224.85611 
L 731.127731 226.569113 
L 742.642034 226.88252 
L 754.156337 226.212502 
L 765.67064 226.276878 
L 777.184943 227.21459 
L 788.699246 226.727412 
L 800.213549 227.326012 
L 811.727852 226.068268 
L 823.242155 226.384587 
L 834.756458 226.063418 
L 846.270761 227.012419 
L 857.785064 227.644274 
L 869.299367 227.767846 
L 880.81367 226.202188 
L 892.327973 227.821447 
L 903.842277 226.423175 
L 915.35658 227.143496 
L 926.870883 226.695527 
L 938.385186 232.220554 
L 949.899489 242.758159 
" style="fill:none;stroke:#e4d354;stroke-linecap:square;"/>
   </g>
   <g id="line2d_14">
    <path clip-path="url(#pfaf2c3544f)" d="M 86.326761 200.80775 
L 97.841064 227.773254 
L 109.355367 224.303575 
L 120.86967 225.067016 
L 132.383973 243.947996 
L 143.898277 224.645413 
L 155.41258 222.913424 
L 166.926883 226.810403 
L 178.441186 205.798619 
L 189.955489 228.080908 
L 201.469792 215.034004 
L 212.984095 225.25503 
L 224.498398 214.264863 
L 236.012701 214.395902 
L 247.527004 221.204221 
L 259.041307 224.594137 
L 270.55561 226.633785 
L 282.069913 227.237703 
L 293.584216 225.545592 
L 305.098519 225.505712 
L 316.612822 224.540538 
L 328.127125 224.558682 
L 339.641428 224.698728 
L 351.155731 225.142068 
L 362.670034 224.931106 
L 374.184337 224.918418 
L 385.69864 226.39567 
L 397.212943 226.014829 
L 408.727246 224.852412 
L 420.241549 225.057653 
L 431.755852 226.441424 
L 443.270155 225.825094 
L 454.784458 225.247022 
L 466.298761 225.516123 
L 477.813064 225.769771 
L 489.327367 225.737163 
L 500.84167 225.836206 
L 512.355973 225.582592 
L 523.870277 226.798932 
L 535.38458 227.345022 
L 546.898883 226.4604 
L 558.413186 227.590692 
L 569.927489 225.593036 
L 581.441792 225.833761 
L 592.956095 224.814632 
L 604.470398 225.069548 
L 615.984701 226.007452 
L 627.499004 226.880645 
L 639.013307 226.726476 
L 650.52761 226.617954 
L 662.041913 226.443039 
L 673.556216 226.331978 
L 685.070519 226.820048 
L 696.584822 225.88137 
L 708.099125 226.143739 
L 719.613428 225.192305 
L 731.127731 227.247985 
L 742.642034 225.734188 
L 754.156337 227.084635 
L 765.67064 227.647863 
L 777.184943 226.602788 
L 788.699246 226.955694 
L 800.213549 225.87361 
L 811.727852 226.563703 
L 823.242155 226.24864 
L 834.756458 226.72295 
L 846.270761 227.654166 
L 857.785064 227.654808 
L 869.299367 226.937882 
L 880.81367 226.606464 
L 892.327973 227.675404 
L 903.842277 226.715178 
L 915.35658 227.031002 
L 926.870883 226.998269 
L 938.385186 230.919588 
L 949.899489 239.996693 
" style="fill:none;stroke:#2b908f;stroke-linecap:square;"/>
   </g>
   <g id="line2d_15">
    <path clip-path="url(#pfaf2c3544f)" d="M 86.326761 197.765357 
L 97.841064 226.858662 
L 109.355367 224.824502 
L 120.86967 224.74008 
L 132.383973 244.816352 
L 143.898277 224.418475 
L 155.41258 223.550139 
L 166.926883 225.901884 
L 178.441186 200.48695 
L 189.955489 230.464674 
L 201.469792 211.980353 
L 212.984095 223.815463 
L 224.498398 212.820548 
L 236.012701 213.053714 
L 247.527004 219.915986 
L 259.041307 222.697881 
L 270.55561 226.287812 
L 282.069913 225.72902 
L 293.584216 224.981285 
L 305.098519 224.442597 
L 316.612822 224.08883 
L 328.127125 223.379617 
L 339.641428 221.782727 
L 351.155731 223.529038 
L 362.670034 222.699969 
L 374.184337 223.701085 
L 385.69864 224.041056 
L 397.212943 224.065656 
L 408.727246 224.134406 
L 420.241549 224.635528 
L 431.755852 223.318295 
L 443.270155 223.706912 
L 454.784458 223.177301 
L 466.298761 223.566573 
L 477.813064 223.226928 
L 489.327367 223.694452 
L 500.84167 223.652809 
L 512.355973 224.541491 
L 523.870277 224.286092 
L 535.38458 224.230963 
L 546.898883 224.266212 
L 558.413186 224.545805 
L 569.927489 223.333992 
L 581.441792 223.152221 
L 592.956095 223.660897 
L 604.470398 222.583951 
L 615.984701 223.733038 
L 627.499004 224.098869 
L 639.013307 224.143062 
L 650.52761 224.539107 
L 662.041913 224.979158 
L 673.556216 224.479436 
L 685.070519 223.707856 
L 696.584822 223.816007 
L 708.099125 224.266124 
L 719.613428 223.160791 
L 731.127731 224.362899 
L 742.642034 224.574819 
L 754.156337 224.064232 
L 765.67064 224.83387 
L 777.184943 224.895644 
L 788.699246 224.52266 
L 800.213549 224.237035 
L 811.727852 223.613111 
L 823.242155 224.67673 
L 834.756458 224.111055 
L 846.270761 224.474101 
L 857.785064 224.356347 
L 869.299367 224.04966 
L 880.81367 224.477447 
L 892.327973 225.565715 
L 903.842277 224.698859 
L 915.35658 224.514631 
L 926.870883 225.29847 
L 938.385186 228.670613 
L 949.899489 240.785104 
" style="fill:none;stroke:#f45b5b;stroke-linecap:square;"/>
   </g>
   <g id="line2d_16">
    <path clip-path="url(#pfaf2c3544f)" d="M 86.326761 196.145266 
L 97.841064 227.397353 
L 109.355367 224.233551 
L 120.86967 223.968226 
L 132.383973 244.607308 
L 143.898277 224.024507 
L 155.41258 223.433556 
L 166.926883 224.912944 
L 178.441186 201.849755 
L 189.955489 229.33905 
L 201.469792 211.912012 
L 212.984095 224.16923 
L 224.498398 212.687887 
L 236.012701 213.150196 
L 247.527004 219.694883 
L 259.041307 223.493858 
L 270.55561 224.880783 
L 282.069913 225.467716 
L 293.584216 225.17023 
L 305.098519 224.285813 
L 316.612822 223.97863 
L 328.127125 223.093338 
L 339.641428 223.509773 
L 351.155731 223.287811 
L 362.670034 222.502964 
L 374.184337 223.306232 
L 385.69864 224.430273 
L 397.212943 223.348247 
L 408.727246 224.467597 
L 420.241549 223.588608 
L 431.755852 223.997123 
L 443.270155 223.271677 
L 454.784458 223.277677 
L 466.298761 223.689377 
L 477.813064 223.941473 
L 489.327367 223.657921 
L 500.84167 224.747579 
L 512.355973 224.426664 
L 523.870277 224.761477 
L 535.38458 224.50496 
L 546.898883 224.431446 
L 558.413186 224.828307 
L 569.927489 223.420759 
L 581.441792 223.989731 
L 592.956095 224.082105 
L 604.470398 223.638848 
L 615.984701 224.41637 
L 627.499004 224.301237 
L 639.013307 224.229273 
L 650.52761 224.152776 
L 662.041913 224.827201 
L 673.556216 223.739457 
L 685.070519 224.108958 
L 696.584822 224.317381 
L 708.099125 224.262943 
L 719.613428 223.062442 
L 731.127731 224.282343 
L 742.642034 224.453146 
L 754.156337 225.118828 
L 765.67064 225.256121 
L 777.184943 224.613972 
L 788.699246 224.339912 
L 800.213549 224.619831 
L 811.727852 223.73449 
L 823.242155 224.223504 
L 834.756458 224.005179 
L 846.270761 224.809881 
L 857.785064 225.061996 
L 869.299367 223.528577 
L 880.81367 225.098765 
L 892.327973 225.672751 
L 903.842277 225.065971 
L 915.35658 225.012365 
L 926.870883 225.964754 
L 938.385186 229.068856 
L 949.899489 240.349871 
" style="fill:none;stroke:#91e8e1;stroke-linecap:square;"/>
   </g>
   <g id="line2d_17">
    <path clip-path="url(#pfaf2c3544f)" d="M 86.326761 198.275393 
L 97.841064 227.632047 
L 109.355367 224.987302 
L 120.86967 225.370199 
L 132.383973 245.738672 
L 143.898277 224.707039 
L 155.41258 224.189933 
L 166.926883 226.593885 
L 178.441186 203.434615 
L 189.955489 230.857055 
L 201.469792 213.117535 
L 212.984095 224.805725 
L 224.498398 213.409642 
L 236.012701 213.607011 
L 247.527004 220.960977 
L 259.041307 224.817566 
L 270.55561 226.550464 
L 282.069913 226.668886 
L 293.584216 225.903094 
L 305.098519 226.00178 
L 316.612822 225.393882 
L 328.127125 224.895714 
L 339.641428 224.16149 
L 351.155731 224.282241 
L 362.670034 224.151161 
L 374.184337 224.445621 
L 385.69864 225.414381 
L 397.212943 226.063018 
L 408.727246 226.397775 
L 420.241549 225.528963 
L 431.755852 224.710628 
L 443.270155 225.184577 
L 454.784458 224.770205 
L 466.298761 224.804653 
L 477.813064 224.408306 
L 489.327367 224.299804 
L 500.84167 225.0914 
L 512.355973 224.958965 
L 523.870277 225.60709 
L 535.38458 225.974534 
L 546.898883 225.99214 
L 558.413186 226.840113 
L 569.927489 225.184807 
L 581.441792 224.931758 
L 592.956095 225.66363 
L 604.470398 224.882951 
L 615.984701 225.413516 
L 627.499004 225.096918 
L 639.013307 225.463942 
L 650.52761 225.402253 
L 662.041913 225.369825 
L 673.556216 225.265991 
L 685.070519 225.217997 
L 696.584822 225.254363 
L 708.099125 225.649383 
L 719.613428 224.576546 
L 731.127731 226.120145 
L 742.642034 225.630358 
L 754.156337 225.627882 
L 765.67064 225.899699 
L 777.184943 226.006979 
L 788.699246 225.545743 
L 800.213549 226.186628 
L 811.727852 225.352765 
L 823.242155 225.790672 
L 834.756458 225.179554 
L 846.270761 225.272214 
L 857.785064 225.720847 
L 869.299367 225.591402 
L 880.81367 226.546056 
L 892.327973 225.407785 
L 903.842277 224.679563 
L 915.35658 225.808341 
L 926.870883 225.900863 
L 938.385186 230.907802 
L 949.899489 240.928382 
" style="fill:none;stroke:#7cb5ec;stroke-linecap:square;"/>
   </g>
   <g id="line2d_18">
    <path clip-path="url(#pfaf2c3544f)" d="M 86.326761 197.513547 
L 97.841064 227.651784 
L 109.355367 225.196513 
L 120.86967 224.90046 
L 132.383973 245.193933 
L 143.898277 225.393882 
L 155.41258 223.882036 
L 166.926883 226.546516 
L 178.441186 202.779351 
L 189.955489 230.166264 
L 201.469792 213.610957 
L 212.984095 224.829408 
L 224.498398 214.041223 
L 236.012701 214.278065 
L 247.527004 220.455713 
L 259.041307 224.651776 
L 270.55561 227.004414 
L 282.069913 226.897834 
L 293.584216 226.787307 
L 305.098519 226.510992 
L 316.612822 225.625205 
L 328.127125 224.420407 
L 339.641428 224.900414 
L 351.155731 224.424268 
L 362.670034 224.891669 
L 374.184337 225.549421 
L 385.69864 225.421477 
L 397.212943 225.384303 
L 408.727246 225.283815 
L 420.241549 224.898316 
L 431.755852 224.994628 
L 443.270155 225.117152 
L 454.784458 224.645544 
L 466.298761 224.885315 
L 477.813064 225.54971 
L 489.327367 224.925038 
L 500.84167 225.015469 
L 512.355973 225.452549 
L 523.870277 225.035592 
L 535.38458 226.038767 
L 546.898883 225.656205 
L 558.413186 225.412068 
L 569.927489 224.954059 
L 581.441792 225.197218 
L 592.956095 225.030349 
L 604.470398 225.066616 
L 615.984701 225.653496 
L 627.499004 225.749427 
L 639.013307 225.804073 
L 650.52761 225.652402 
L 662.041913 226.156153 
L 673.556216 226.062676 
L 685.070519 226.078344 
L 696.584822 225.322925 
L 708.099125 225.040139 
L 719.613428 224.993129 
L 731.127731 224.691608 
L 742.642034 225.955953 
L 754.156337 225.661845 
L 765.67064 226.325852 
L 777.184943 225.744579 
L 788.699246 226.264442 
L 800.213549 226.239413 
L 811.727852 225.400888 
L 823.242155 226.02709 
L 834.756458 225.968782 
L 846.270761 226.496924 
L 857.785064 225.634782 
L 869.299367 225.952893 
L 880.81367 225.932576 
L 892.327973 226.521286 
L 903.842277 225.993843 
L 915.35658 226.338739 
L 926.870883 226.648178 
L 938.385186 230.752052 
L 949.899489 242.301203 
" style="fill:none;stroke:#434348;stroke-linecap:square;"/>
   </g>
   <g id="line2d_19">
    <path clip-path="url(#pfaf2c3544f)" d="M 43.148125 273.99006 
L 993.078125 273.99006 
" style="fill:none;stroke:#dedede;stroke-linecap:square;stroke-width:2;"/>
   </g>
   <g id="text_17">
    <!-- Picard: Base Distribution -->
    <g transform="translate(419.786875 19.3575)scale(0.16 -0.16)">
     <defs>
      <path d="M 19.671875 64.796875 
L 19.671875 37.40625 
L 32.078125 37.40625 
Q 38.96875 37.40625 42.71875 40.96875 
Q 46.484375 44.53125 46.484375 51.125 
Q 46.484375 57.671875 42.71875 61.234375 
Q 38.96875 64.796875 32.078125 64.796875 
z
M 9.8125 72.90625 
L 32.078125 72.90625 
Q 44.34375 72.90625 50.609375 67.359375 
Q 56.890625 61.8125 56.890625 51.125 
Q 56.890625 40.328125 50.609375 34.8125 
Q 44.34375 29.296875 32.078125 29.296875 
L 19.671875 29.296875 
L 19.671875 0 
L 9.8125 0 
z
" id="DejaVuSans-80"/>
      <path d="M 41.109375 46.296875 
Q 39.59375 47.171875 37.8125 47.578125 
Q 36.03125 48 33.890625 48 
Q 26.265625 48 22.1875 43.046875 
Q 18.109375 38.09375 18.109375 28.8125 
L 18.109375 0 
L 9.078125 0 
L 9.078125 54.6875 
L 18.109375 54.6875 
L 18.109375 46.1875 
Q 20.953125 51.171875 25.484375 53.578125 
Q 30.03125 56 36.53125 56 
Q 37.453125 56 38.578125 55.875 
Q 39.703125 55.765625 41.0625 55.515625 
z
" id="DejaVuSans-114"/>
      <path d="M 45.40625 46.390625 
L 45.40625 75.984375 
L 54.390625 75.984375 
L 54.390625 0 
L 45.40625 0 
L 45.40625 8.203125 
Q 42.578125 3.328125 38.25 0.953125 
Q 33.9375 -1.421875 27.875 -1.421875 
Q 17.96875 -1.421875 11.734375 6.484375 
Q 5.515625 14.40625 5.515625 27.296875 
Q 5.515625 40.1875 11.734375 48.09375 
Q 17.96875 56 27.875 56 
Q 33.9375 56 38.25 53.625 
Q 42.578125 51.265625 45.40625 46.390625 
z
M 14.796875 27.296875 
Q 14.796875 17.390625 18.875 11.75 
Q 22.953125 6.109375 30.078125 6.109375 
Q 37.203125 6.109375 41.296875 11.75 
Q 45.40625 17.390625 45.40625 27.296875 
Q 45.40625 37.203125 41.296875 42.84375 
Q 37.203125 48.484375 30.078125 48.484375 
Q 22.953125 48.484375 18.875 42.84375 
Q 14.796875 37.203125 14.796875 27.296875 
z
" id="DejaVuSans-100"/>
      <path d="M 11.71875 12.40625 
L 22.015625 12.40625 
L 22.015625 0 
L 11.71875 0 
z
M 11.71875 51.703125 
L 22.015625 51.703125 
L 22.015625 39.3125 
L 11.71875 39.3125 
z
" id="DejaVuSans-58"/>
      <path d="M 19.671875 34.8125 
L 19.671875 8.109375 
L 35.5 8.109375 
Q 43.453125 8.109375 47.28125 11.40625 
Q 51.125 14.703125 51.125 21.484375 
Q 51.125 28.328125 47.28125 31.5625 
Q 43.453125 34.8125 35.5 34.8125 
z
M 19.671875 64.796875 
L 19.671875 42.828125 
L 34.28125 42.828125 
Q 41.5 42.828125 45.03125 45.53125 
Q 48.578125 48.25 48.578125 53.8125 
Q 48.578125 59.328125 45.03125 62.0625 
Q 41.5 64.796875 34.28125 64.796875 
z
M 9.8125 72.90625 
L 35.015625 72.90625 
Q 46.296875 72.90625 52.390625 68.21875 
Q 58.5 63.53125 58.5 54.890625 
Q 58.5 48.1875 55.375 44.234375 
Q 52.25 40.28125 46.1875 39.3125 
Q 53.46875 37.75 57.5 32.78125 
Q 61.53125 27.828125 61.53125 20.40625 
Q 61.53125 10.640625 54.890625 5.3125 
Q 48.25 0 35.984375 0 
L 9.8125 0 
z
" id="DejaVuSans-66"/>
      <path d="M 44.28125 53.078125 
L 44.28125 44.578125 
Q 40.484375 46.53125 36.375 47.5 
Q 32.28125 48.484375 27.875 48.484375 
Q 21.1875 48.484375 17.84375 46.4375 
Q 14.5 44.390625 14.5 40.28125 
Q 14.5 37.15625 16.890625 35.375 
Q 19.28125 33.59375 26.515625 31.984375 
L 29.59375 31.296875 
Q 39.15625 29.25 43.1875 25.515625 
Q 47.21875 21.78125 47.21875 15.09375 
Q 47.21875 7.46875 41.1875 3.015625 
Q 35.15625 -1.421875 24.609375 -1.421875 
Q 20.21875 -1.421875 15.453125 -0.5625 
Q 10.6875 0.296875 5.421875 2 
L 5.421875 11.28125 
Q 10.40625 8.6875 15.234375 7.390625 
Q 20.0625 6.109375 24.8125 6.109375 
Q 31.15625 6.109375 34.5625 8.28125 
Q 37.984375 10.453125 37.984375 14.40625 
Q 37.984375 18.0625 35.515625 20.015625 
Q 33.0625 21.96875 24.703125 23.78125 
L 21.578125 24.515625 
Q 13.234375 26.265625 9.515625 29.90625 
Q 5.8125 33.546875 5.8125 39.890625 
Q 5.8125 47.609375 11.28125 51.796875 
Q 16.75 56 26.8125 56 
Q 31.78125 56 36.171875 55.265625 
Q 40.578125 54.546875 44.28125 53.078125 
z
" id="DejaVuSans-115"/>
      <path d="M 19.671875 64.796875 
L 19.671875 8.109375 
L 31.59375 8.109375 
Q 46.6875 8.109375 53.6875 14.9375 
Q 60.6875 21.78125 60.6875 36.53125 
Q 60.6875 51.171875 53.6875 57.984375 
Q 46.6875 64.796875 31.59375 64.796875 
z
M 9.8125 72.90625 
L 30.078125 72.90625 
Q 51.265625 72.90625 61.171875 64.09375 
Q 71.09375 55.28125 71.09375 36.53125 
Q 71.09375 17.671875 61.125 8.828125 
Q 51.171875 0 30.078125 0 
L 9.8125 0 
z
" id="DejaVuSans-68"/>
      <path d="M 18.3125 70.21875 
L 18.3125 54.6875 
L 36.8125 54.6875 
L 36.8125 47.703125 
L 18.3125 47.703125 
L 18.3125 18.015625 
Q 18.3125 11.328125 20.140625 9.421875 
Q 21.96875 7.515625 27.59375 7.515625 
L 36.8125 7.515625 
L 36.8125 0 
L 27.59375 0 
Q 17.1875 0 13.234375 3.875 
Q 9.28125 7.765625 9.28125 18.015625 
L 9.28125 47.703125 
L 2.6875 47.703125 
L 2.6875 54.6875 
L 9.28125 54.6875 
L 9.28125 70.21875 
z
" id="DejaVuSans-116"/>
      <path d="M 48.6875 27.296875 
Q 48.6875 37.203125 44.609375 42.84375 
Q 40.53125 48.484375 33.40625 48.484375 
Q 26.265625 48.484375 22.1875 42.84375 
Q 18.109375 37.203125 18.109375 27.296875 
Q 18.109375 17.390625 22.1875 11.75 
Q 26.265625 6.109375 33.40625 6.109375 
Q 40.53125 6.109375 44.609375 11.75 
Q 48.6875 17.390625 48.6875 27.296875 
z
M 18.109375 46.390625 
Q 20.953125 51.265625 25.265625 53.625 
Q 29.59375 56 35.59375 56 
Q 45.5625 56 51.78125 48.09375 
Q 58.015625 40.1875 58.015625 27.296875 
Q 58.015625 14.40625 51.78125 6.484375 
Q 45.5625 -1.421875 35.59375 -1.421875 
Q 29.59375 -1.421875 25.265625 0.953125 
Q 20.953125 3.328125 18.109375 8.203125 
L 18.109375 0 
L 9.078125 0 
L 9.078125 75.984375 
L 18.109375 75.984375 
z
" id="DejaVuSans-98"/>
      <path d="M 30.609375 48.390625 
Q 23.390625 48.390625 19.1875 42.75 
Q 14.984375 37.109375 14.984375 27.296875 
Q 14.984375 17.484375 19.15625 11.84375 
Q 23.34375 6.203125 30.609375 6.203125 
Q 37.796875 6.203125 41.984375 11.859375 
Q 46.1875 17.53125 46.1875 27.296875 
Q 46.1875 37.015625 41.984375 42.703125 
Q 37.796875 48.390625 30.609375 48.390625 
z
M 30.609375 56 
Q 42.328125 56 49.015625 48.375 
Q 55.71875 40.765625 55.71875 27.296875 
Q 55.71875 13.875 49.015625 6.21875 
Q 42.328125 -1.421875 30.609375 -1.421875 
Q 18.84375 -1.421875 12.171875 6.21875 
Q 5.515625 13.875 5.515625 27.296875 
Q 5.515625 40.765625 12.171875 48.375 
Q 18.84375 56 30.609375 56 
z
" id="DejaVuSans-111"/>
     </defs>
     <use xlink:href="#DejaVuSans-80"/>
     <use x="58.052734" xlink:href="#DejaVuSans-105"/>
     <use x="85.835938" xlink:href="#DejaVuSans-99"/>
     <use x="140.816406" xlink:href="#DejaVuSans-97"/>
     <use x="202.095703" xlink:href="#DejaVuSans-114"/>
     <use x="241.458984" xlink:href="#DejaVuSans-100"/>
     <use x="304.935547" xlink:href="#DejaVuSans-58"/>
     <use x="338.626953" xlink:href="#DejaVuSans-32"/>
     <use x="370.414062" xlink:href="#DejaVuSans-66"/>
     <use x="439.017578" xlink:href="#DejaVuSans-97"/>
     <use x="500.296875" xlink:href="#DejaVuSans-115"/>
     <use x="552.396484" xlink:href="#DejaVuSans-101"/>
     <use x="613.919922" xlink:href="#DejaVuSans-32"/>
     <use x="645.707031" xlink:href="#DejaVuSans-68"/>
     <use x="722.708984" xlink:href="#DejaVuSans-105"/>
     <use x="750.492188" xlink:href="#DejaVuSans-115"/>
     <use x="802.591797" xlink:href="#DejaVuSans-116"/>
     <use x="841.800781" xlink:href="#DejaVuSans-114"/>
     <use x="882.914062" xlink:href="#DejaVuSans-105"/>
     <use x="910.697266" xlink:href="#DejaVuSans-98"/>
     <use x="974.173828" xlink:href="#DejaVuSans-117"/>
     <use x="1037.552734" xlink:href="#DejaVuSans-116"/>
     <use x="1076.761719" xlink:href="#DejaVuSans-105"/>
     <use x="1104.544922" xlink:href="#DejaVuSans-111"/>
     <use x="1165.726562" xlink:href="#DejaVuSans-110"/>
    </g>
   </g>
   <g id="legend_1">
    <g id="line2d_20">
     <path d="M 50.348125 291.525394 
L 66.348125 291.525394 
" style="fill:none;stroke:#7cb5ec;stroke-linecap:square;"/>
    </g>
    <g id="line2d_21"/>
    <g id="text_18">
     <!-- SPT5_INPUT_R1_R1 -->
     <g transform="translate(72.748125 294.325394)scale(0.08 -0.08)">
      <defs>
       <path d="M 53.515625 70.515625 
L 53.515625 60.890625 
Q 47.90625 63.578125 42.921875 64.890625 
Q 37.9375 66.21875 33.296875 66.21875 
Q 25.25 66.21875 20.875 63.09375 
Q 16.5 59.96875 16.5 54.203125 
Q 16.5 49.359375 19.40625 46.890625 
Q 22.3125 44.4375 30.421875 42.921875 
L 36.375 41.703125 
Q 47.40625 39.59375 52.65625 34.296875 
Q 57.90625 29 57.90625 20.125 
Q 57.90625 9.515625 50.796875 4.046875 
Q 43.703125 -1.421875 29.984375 -1.421875 
Q 24.8125 -1.421875 18.96875 -0.25 
Q 13.140625 0.921875 6.890625 3.21875 
L 6.890625 13.375 
Q 12.890625 10.015625 18.65625 8.296875 
Q 24.421875 6.59375 29.984375 6.59375 
Q 38.421875 6.59375 43.015625 9.90625 
Q 47.609375 13.234375 47.609375 19.390625 
Q 47.609375 24.75 44.3125 27.78125 
Q 41.015625 30.8125 33.5 32.328125 
L 27.484375 33.5 
Q 16.453125 35.6875 11.515625 40.375 
Q 6.59375 45.0625 6.59375 53.421875 
Q 6.59375 63.09375 13.40625 68.65625 
Q 20.21875 74.21875 32.171875 74.21875 
Q 37.3125 74.21875 42.625 73.28125 
Q 47.953125 72.359375 53.515625 70.515625 
z
" id="DejaVuSans-83"/>
       <path d="M -0.296875 72.90625 
L 61.375 72.90625 
L 61.375 64.59375 
L 35.5 64.59375 
L 35.5 0 
L 25.59375 0 
L 25.59375 64.59375 
L -0.296875 64.59375 
z
" id="DejaVuSans-84"/>
       <path d="M 50.984375 -16.609375 
L 50.984375 -23.578125 
L -0.984375 -23.578125 
L -0.984375 -16.609375 
z
" id="DejaVuSans-95"/>
       <path d="M 9.8125 72.90625 
L 19.671875 72.90625 
L 19.671875 0 
L 9.8125 0 
z
" id="DejaVuSans-73"/>
       <path d="M 9.8125 72.90625 
L 23.09375 72.90625 
L 55.421875 11.921875 
L 55.421875 72.90625 
L 64.984375 72.90625 
L 64.984375 0 
L 51.703125 0 
L 19.390625 60.984375 
L 19.390625 0 
L 9.8125 0 
z
" id="DejaVuSans-78"/>
       <path d="M 8.6875 72.90625 
L 18.609375 72.90625 
L 18.609375 28.609375 
Q 18.609375 16.890625 22.84375 11.734375 
Q 27.09375 6.59375 36.625 6.59375 
Q 46.09375 6.59375 50.34375 11.734375 
Q 54.59375 16.890625 54.59375 28.609375 
L 54.59375 72.90625 
L 64.5 72.90625 
L 64.5 27.390625 
Q 64.5 13.140625 57.4375 5.859375 
Q 50.390625 -1.421875 36.625 -1.421875 
Q 22.796875 -1.421875 15.734375 5.859375 
Q 8.6875 13.140625 8.6875 27.390625 
z
" id="DejaVuSans-85"/>
       <path d="M 44.390625 34.1875 
Q 47.5625 33.109375 50.5625 29.59375 
Q 53.5625 26.078125 56.59375 19.921875 
L 66.609375 0 
L 56 0 
L 46.6875 18.703125 
Q 43.0625 26.03125 39.671875 28.421875 
Q 36.28125 30.8125 30.421875 30.8125 
L 19.671875 30.8125 
L 19.671875 0 
L 9.8125 0 
L 9.8125 72.90625 
L 32.078125 72.90625 
Q 44.578125 72.90625 50.734375 67.671875 
Q 56.890625 62.453125 56.890625 51.90625 
Q 56.890625 45.015625 53.6875 40.46875 
Q 50.484375 35.9375 44.390625 34.1875 
z
M 19.671875 64.796875 
L 19.671875 38.921875 
L 32.078125 38.921875 
Q 39.203125 38.921875 42.84375 42.21875 
Q 46.484375 45.515625 46.484375 51.90625 
Q 46.484375 58.296875 42.84375 61.546875 
Q 39.203125 64.796875 32.078125 64.796875 
z
" id="DejaVuSans-82"/>
      </defs>
      <use xlink:href="#DejaVuSans-83"/>
      <use x="63.476562" xlink:href="#DejaVuSans-80"/>
      <use x="123.779297" xlink:href="#DejaVuSans-84"/>
      <use x="184.863281" xlink:href="#DejaVuSans-53"/>
      <use x="248.486328" xlink:href="#DejaVuSans-95"/>
      <use x="298.486328" xlink:href="#DejaVuSans-73"/>
      <use x="327.978516" xlink:href="#DejaVuSans-78"/>
      <use x="402.783203" xlink:href="#DejaVuSans-80"/>
      <use x="463.085938" xlink:href="#DejaVuSans-85"/>
      <use x="536.279297" xlink:href="#DejaVuSans-84"/>
      <use x="597.363281" xlink:href="#DejaVuSans-95"/>
      <use x="647.363281" xlink:href="#DejaVuSans-82"/>
      <use x="716.845703" xlink:href="#DejaVuSans-49"/>
      <use x="780.46875" xlink:href="#DejaVuSans-95"/>
      <use x="830.46875" xlink:href="#DejaVuSans-82"/>
      <use x="899.951172" xlink:href="#DejaVuSans-49"/>
     </g>
    </g>
    <g id="line2d_22">
     <path d="M 50.348125 303.490394 
L 66.348125 303.490394 
" style="fill:none;stroke:#434348;stroke-linecap:square;"/>
    </g>
    <g id="line2d_23"/>
    <g id="text_19">
     <!-- SPT5_INPUT_R1_R2 -->
     <g transform="translate(72.748125 306.290394)scale(0.08 -0.08)">
      <use xlink:href="#DejaVuSans-83"/>
      <use x="63.476562" xlink:href="#DejaVuSans-80"/>
      <use x="123.779297" xlink:href="#DejaVuSans-84"/>
      <use x="184.863281" xlink:href="#DejaVuSans-53"/>
      <use x="248.486328" xlink:href="#DejaVuSans-95"/>
      <use x="298.486328" xlink:href="#DejaVuSans-73"/>
      <use x="327.978516" xlink:href="#DejaVuSans-78"/>
      <use x="402.783203" xlink:href="#DejaVuSans-80"/>
      <use x="463.085938" xlink:href="#DejaVuSans-85"/>
      <use x="536.279297" xlink:href="#DejaVuSans-84"/>
      <use x="597.363281" xlink:href="#DejaVuSans-95"/>
      <use x="647.363281" xlink:href="#DejaVuSans-82"/>
      <use x="716.845703" xlink:href="#DejaVuSans-49"/>
      <use x="780.46875" xlink:href="#DejaVuSans-95"/>
      <use x="830.46875" xlink:href="#DejaVuSans-82"/>
      <use x="899.951172" xlink:href="#DejaVuSans-50"/>
     </g>
    </g>
    <g id="line2d_24">
     <path d="M 50.348125 315.455394 
L 66.348125 315.455394 
" style="fill:none;stroke:#90ed7d;stroke-linecap:square;"/>
    </g>
    <g id="line2d_25"/>
    <g id="text_20">
     <!-- SPT5_INPUT_R2_R1 -->
     <g transform="translate(72.748125 318.255394)scale(0.08 -0.08)">
      <use xlink:href="#DejaVuSans-83"/>
      <use x="63.476562" xlink:href="#DejaVuSans-80"/>
      <use x="123.779297" xlink:href="#DejaVuSans-84"/>
      <use x="184.863281" xlink:href="#DejaVuSans-53"/>
      <use x="248.486328" xlink:href="#DejaVuSans-95"/>
      <use x="298.486328" xlink:href="#DejaVuSans-73"/>
      <use x="327.978516" xlink:href="#DejaVuSans-78"/>
      <use x="402.783203" xlink:href="#DejaVuSans-80"/>
      <use x="463.085938" xlink:href="#DejaVuSans-85"/>
      <use x="536.279297" xlink:href="#DejaVuSans-84"/>
      <use x="597.363281" xlink:href="#DejaVuSans-95"/>
      <use x="647.363281" xlink:href="#DejaVuSans-82"/>
      <use x="716.845703" xlink:href="#DejaVuSans-50"/>
      <use x="780.46875" xlink:href="#DejaVuSans-95"/>
      <use x="830.46875" xlink:href="#DejaVuSans-82"/>
      <use x="899.951172" xlink:href="#DejaVuSans-49"/>
     </g>
    </g>
    <g id="line2d_26">
     <path d="M 267.264375 291.525394 
L 283.264375 291.525394 
" style="fill:none;stroke:#f7a35c;stroke-linecap:square;"/>
    </g>
    <g id="line2d_27"/>
    <g id="text_21">
     <!-- SPT5_INPUT_R2_R2 -->
     <g transform="translate(289.664375 294.325394)scale(0.08 -0.08)">
      <use xlink:href="#DejaVuSans-83"/>
      <use x="63.476562" xlink:href="#DejaVuSans-80"/>
      <use x="123.779297" xlink:href="#DejaVuSans-84"/>
      <use x="184.863281" xlink:href="#DejaVuSans-53"/>
      <use x="248.486328" xlink:href="#DejaVuSans-95"/>
      <use x="298.486328" xlink:href="#DejaVuSans-73"/>
      <use x="327.978516" xlink:href="#DejaVuSans-78"/>
      <use x="402.783203" xlink:href="#DejaVuSans-80"/>
      <use x="463.085938" xlink:href="#DejaVuSans-85"/>
      <use x="536.279297" xlink:href="#DejaVuSans-84"/>
      <use x="597.363281" xlink:href="#DejaVuSans-95"/>
      <use x="647.363281" xlink:href="#DejaVuSans-82"/>
      <use x="716.845703" xlink:href="#DejaVuSans-50"/>
      <use x="780.46875" xlink:href="#DejaVuSans-95"/>
      <use x="830.46875" xlink:href="#DejaVuSans-82"/>
      <use x="899.951172" xlink:href="#DejaVuSans-50"/>
     </g>
    </g>
    <g id="line2d_28">
     <path d="M 267.264375 303.490394 
L 283.264375 303.490394 
" style="fill:none;stroke:#8085e9;stroke-linecap:square;"/>
    </g>
    <g id="line2d_29"/>
    <g id="text_22">
     <!-- SPT5_T0_R1_R1 -->
     <g transform="translate(289.664375 306.290394)scale(0.08 -0.08)">
      <use xlink:href="#DejaVuSans-83"/>
      <use x="63.476562" xlink:href="#DejaVuSans-80"/>
      <use x="123.779297" xlink:href="#DejaVuSans-84"/>
      <use x="184.863281" xlink:href="#DejaVuSans-53"/>
      <use x="248.486328" xlink:href="#DejaVuSans-95"/>
      <use x="298.486328" xlink:href="#DejaVuSans-84"/>
      <use x="359.570312" xlink:href="#DejaVuSans-48"/>
      <use x="423.193359" xlink:href="#DejaVuSans-95"/>
      <use x="473.193359" xlink:href="#DejaVuSans-82"/>
      <use x="542.675781" xlink:href="#DejaVuSans-49"/>
      <use x="606.298828" xlink:href="#DejaVuSans-95"/>
      <use x="656.298828" xlink:href="#DejaVuSans-82"/>
      <use x="725.78125" xlink:href="#DejaVuSans-49"/>
     </g>
    </g>
    <g id="line2d_30">
     <path d="M 267.264375 315.455394 
L 283.264375 315.455394 
" style="fill:none;stroke:#f15c80;stroke-linecap:square;"/>
    </g>
    <g id="line2d_31"/>
    <g id="text_23">
     <!-- SPT5_T0_R1_R2 -->
     <g transform="translate(289.664375 318.255394)scale(0.08 -0.08)">
      <use xlink:href="#DejaVuSans-83"/>
      <use x="63.476562" xlink:href="#DejaVuSans-80"/>
      <use x="123.779297" xlink:href="#DejaVuSans-84"/>
      <use x="184.863281" xlink:href="#DejaVuSans-53"/>
      <use x="248.486328" xlink:href="#DejaVuSans-95"/>
      <use x="298.486328" xlink:href="#DejaVuSans-84"/>
      <use x="359.570312" xlink:href="#DejaVuSans-48"/>
      <use x="423.193359" xlink:href="#DejaVuSans-95"/>
      <use x="473.193359" xlink:href="#DejaVuSans-82"/>
      <use x="542.675781" xlink:href="#DejaVuSans-49"/>
      <use x="606.298828" xlink:href="#DejaVuSans-95"/>
      <use x="656.298828" xlink:href="#DejaVuSans-82"/>
      <use x="725.78125" xlink:href="#DejaVuSans-50"/>
     </g>
    </g>
    <g id="line2d_32">
     <path d="M 484.180625 291.525394 
L 500.180625 291.525394 
" style="fill:none;stroke:#e4d354;stroke-linecap:square;"/>
    </g>
    <g id="line2d_33"/>
    <g id="text_24">
     <!-- SPT5_T0_R2_R1 -->
     <g transform="translate(506.580625 294.325394)scale(0.08 -0.08)">
      <use xlink:href="#DejaVuSans-83"/>
      <use x="63.476562" xlink:href="#DejaVuSans-80"/>
      <use x="123.779297" xlink:href="#DejaVuSans-84"/>
      <use x="184.863281" xlink:href="#DejaVuSans-53"/>
      <use x="248.486328" xlink:href="#DejaVuSans-95"/>
      <use x="298.486328" xlink:href="#DejaVuSans-84"/>
      <use x="359.570312" xlink:href="#DejaVuSans-48"/>
      <use x="423.193359" xlink:href="#DejaVuSans-95"/>
      <use x="473.193359" xlink:href="#DejaVuSans-82"/>
      <use x="542.675781" xlink:href="#DejaVuSans-50"/>
      <use x="606.298828" xlink:href="#DejaVuSans-95"/>
      <use x="656.298828" xlink:href="#DejaVuSans-82"/>
      <use x="725.78125" xlink:href="#DejaVuSans-49"/>
     </g>
    </g>
    <g id="line2d_34">
     <path d="M 484.180625 303.490394 
L 500.180625 303.490394 
" style="fill:none;stroke:#2b908f;stroke-linecap:square;"/>
    </g>
    <g id="line2d_35"/>
    <g id="text_25">
     <!-- SPT5_T0_R2_R2 -->
     <g transform="translate(506.580625 306.290394)scale(0.08 -0.08)">
      <use xlink:href="#DejaVuSans-83"/>
      <use x="63.476562" xlink:href="#DejaVuSans-80"/>
      <use x="123.779297" xlink:href="#DejaVuSans-84"/>
      <use x="184.863281" xlink:href="#DejaVuSans-53"/>
      <use x="248.486328" xlink:href="#DejaVuSans-95"/>
      <use x="298.486328" xlink:href="#DejaVuSans-84"/>
      <use x="359.570312" xlink:href="#DejaVuSans-48"/>
      <use x="423.193359" xlink:href="#DejaVuSans-95"/>
      <use x="473.193359" xlink:href="#DejaVuSans-82"/>
      <use x="542.675781" xlink:href="#DejaVuSans-50"/>
      <use x="606.298828" xlink:href="#DejaVuSans-95"/>
      <use x="656.298828" xlink:href="#DejaVuSans-82"/>
      <use x="725.78125" xlink:href="#DejaVuSans-50"/>
     </g>
    </g>
    <g id="line2d_36">
     <path d="M 687.163125 291.525394 
L 703.163125 291.525394 
" style="fill:none;stroke:#f45b5b;stroke-linecap:square;"/>
    </g>
    <g id="line2d_37"/>
    <g id="text_26">
     <!-- SPT5_T15_R1_R1 -->
     <g transform="translate(709.563125 294.325394)scale(0.08 -0.08)">
      <use xlink:href="#DejaVuSans-83"/>
      <use x="63.476562" xlink:href="#DejaVuSans-80"/>
      <use x="123.779297" xlink:href="#DejaVuSans-84"/>
      <use x="184.863281" xlink:href="#DejaVuSans-53"/>
      <use x="248.486328" xlink:href="#DejaVuSans-95"/>
      <use x="298.486328" xlink:href="#DejaVuSans-84"/>
      <use x="359.570312" xlink:href="#DejaVuSans-49"/>
      <use x="423.193359" xlink:href="#DejaVuSans-53"/>
      <use x="486.816406" xlink:href="#DejaVuSans-95"/>
      <use x="536.816406" xlink:href="#DejaVuSans-82"/>
      <use x="606.298828" xlink:href="#DejaVuSans-49"/>
      <use x="669.921875" xlink:href="#DejaVuSans-95"/>
      <use x="719.921875" xlink:href="#DejaVuSans-82"/>
      <use x="789.404297" xlink:href="#DejaVuSans-49"/>
     </g>
    </g>
    <g id="line2d_38">
     <path d="M 687.163125 303.490394 
L 703.163125 303.490394 
" style="fill:none;stroke:#91e8e1;stroke-linecap:square;"/>
    </g>
    <g id="line2d_39"/>
    <g id="text_27">
     <!-- SPT5_T15_R1_R2 -->
     <g transform="translate(709.563125 306.290394)scale(0.08 -0.08)">
      <use xlink:href="#DejaVuSans-83"/>
      <use x="63.476562" xlink:href="#DejaVuSans-80"/>
      <use x="123.779297" xlink:href="#DejaVuSans-84"/>
      <use x="184.863281" xlink:href="#DejaVuSans-53"/>
      <use x="248.486328" xlink:href="#DejaVuSans-95"/>
      <use x="298.486328" xlink:href="#DejaVuSans-84"/>
      <use x="359.570312" xlink:href="#DejaVuSans-49"/>
      <use x="423.193359" xlink:href="#DejaVuSans-53"/>
      <use x="486.816406" xlink:href="#DejaVuSans-95"/>
      <use x="536.816406" xlink:href="#DejaVuSans-82"/>
      <use x="606.298828" xlink:href="#DejaVuSans-49"/>
      <use x="669.921875" xlink:href="#DejaVuSans-95"/>
      <use x="719.921875" xlink:href="#DejaVuSans-82"/>
      <use x="789.404297" xlink:href="#DejaVuSans-50"/>
     </g>
    </g>
    <g id="line2d_40">
     <path d="M 895.235625 291.525394 
L 911.235625 291.525394 
" style="fill:none;stroke:#7cb5ec;stroke-linecap:square;"/>
    </g>
    <g id="line2d_41"/>
    <g id="text_28">
     <!-- SPT5_T15_R2_R1 -->
     <g transform="translate(917.635625 294.325394)scale(0.08 -0.08)">
      <use xlink:href="#DejaVuSans-83"/>
      <use x="63.476562" xlink:href="#DejaVuSans-80"/>
      <use x="123.779297" xlink:href="#DejaVuSans-84"/>
      <use x="184.863281" xlink:href="#DejaVuSans-53"/>
      <use x="248.486328" xlink:href="#DejaVuSans-95"/>
      <use x="298.486328" xlink:href="#DejaVuSans-84"/>
      <use x="359.570312" xlink:href="#DejaVuSans-49"/>
      <use x="423.193359" xlink:href="#DejaVuSans-53"/>
      <use x="486.816406" xlink:href="#DejaVuSans-95"/>
      <use x="536.816406" xlink:href="#DejaVuSans-82"/>
      <use x="606.298828" xlink:href="#DejaVuSans-50"/>
      <use x="669.921875" xlink:href="#DejaVuSans-95"/>
      <use x="719.921875" xlink:href="#DejaVuSans-82"/>
      <use x="789.404297" xlink:href="#DejaVuSans-49"/>
     </g>
    </g>
    <g id="line2d_42">
     <path d="M 895.235625 303.490394 
L 911.235625 303.490394 
" style="fill:none;stroke:#434348;stroke-linecap:square;"/>
    </g>
    <g id="line2d_43"/>
    <g id="text_29">
     <!-- SPT5_T15_R2_R2 -->
     <g transform="translate(917.635625 306.290394)scale(0.08 -0.08)">
      <use xlink:href="#DejaVuSans-83"/>
      <use x="63.476562" xlink:href="#DejaVuSans-80"/>
      <use x="123.779297" xlink:href="#DejaVuSans-84"/>
      <use x="184.863281" xlink:href="#DejaVuSans-53"/>
      <use x="248.486328" xlink:href="#DejaVuSans-95"/>
      <use x="298.486328" xlink:href="#DejaVuSans-84"/>
      <use x="359.570312" xlink:href="#DejaVuSans-49"/>
      <use x="423.193359" xlink:href="#DejaVuSans-53"/>
      <use x="486.816406" xlink:href="#DejaVuSans-95"/>
      <use x="536.816406" xlink:href="#DejaVuSans-82"/>
      <use x="606.298828" xlink:href="#DejaVuSans-50"/>
      <use x="669.921875" xlink:href="#DejaVuSans-95"/>
      <use x="719.921875" xlink:href="#DejaVuSans-82"/>
      <use x="789.404297" xlink:href="#DejaVuSans-50"/>
     </g>
    </g>
   </g>
  </g>
 </g>
 <defs>
  <clipPath id="pfaf2c3544f">
   <rect height="242.5072" width="949.93" x="43.148125" y="31.48286"/>
  </clipPath>
 </defs>
</svg>
