<?xml version="1.0" encoding="utf-8" standalone="no"?>
<!DOCTYPE svg PUBLIC "-//W3C//DTD SVG 1.1//EN"
  "http://www.w3.org/Graphics/SVG/1.1/DTD/svg11.dtd">
<!-- Created with matplotlib (https://matplotlib.org/) -->
<svg height="330.541644pt" version="1.1" viewBox="0 0 1000.278125 330.541644" width="1000.278125pt" xmlns="http://www.w3.org/2000/svg" xmlns:xlink="http://www.w3.org/1999/xlink">
 <metadata>
  <rdf:RDF xmlns:cc="http://creativecommons.org/ns#" xmlns:dc="http://purl.org/dc/elements/1.1/" xmlns:rdf="http://www.w3.org/1999/02/22-rdf-syntax-ns#">
   <cc:Work>
    <dc:type rdf:resource="http://purl.org/dc/dcmitype/StillImage"/>
    <dc:date>2021-01-29T21:50:59.888812</dc:date>
    <dc:format>image/svg+xml</dc:format>
    <dc:creator>
     <cc:Agent>
      <dc:title>Matplotlib v3.3.0, https://matplotlib.org/</dc:title>
     </cc:Agent>
    </dc:creator>
   </cc:Work>
  </rdf:RDF>
 </metadata>
 <defs>
  <style type="text/css">*{stroke-linecap:butt;stroke-linejoin:round;}</style>
 </defs>
 <g id="figure_1">
  <g id="axes_1">
   <g id="patch_1">
    <path d="M 43.148125 273.99006 
L 993.078125 273.99006 
L 993.078125 31.48286 
L 43.148125 31.48286 
z
" style="fill:#ffffff;"/>
   </g>
   <g id="matplotlib.axis_1">
    <g id="xtick_1">
     <g id="text_1">
      <!-- 0 -->
      <g transform="translate(72.267458 287.06881)scale(0.08 -0.08)">
       <defs>
        <path d="M 31.78125 66.40625 
Q 24.171875 66.40625 20.328125 58.90625 
Q 16.5 51.421875 16.5 36.375 
Q 16.5 21.390625 20.328125 13.890625 
Q 24.171875 6.390625 31.78125 6.390625 
Q 39.453125 6.390625 43.28125 13.890625 
Q 47.125 21.390625 47.125 36.375 
Q 47.125 51.421875 43.28125 58.90625 
Q 39.453125 66.40625 31.78125 66.40625 
z
M 31.78125 74.21875 
Q 44.046875 74.21875 50.515625 64.515625 
Q 56.984375 54.828125 56.984375 36.375 
Q 56.984375 17.96875 50.515625 8.265625 
Q 44.046875 -1.421875 31.78125 -1.421875 
Q 19.53125 -1.421875 13.0625 8.265625 
Q 6.59375 17.96875 6.59375 36.375 
Q 6.59375 54.828125 13.0625 64.515625 
Q 19.53125 74.21875 31.78125 74.21875 
z
" id="DejaVuSans-48"/>
       </defs>
       <use xlink:href="#DejaVuSans-48"/>
      </g>
     </g>
    </g>
    <g id="xtick_2">
     <g id="text_2">
      <!-- 10 -->
      <g transform="translate(184.865489 287.06881)scale(0.08 -0.08)">
       <defs>
        <path d="M 12.40625 8.296875 
L 28.515625 8.296875 
L 28.515625 63.921875 
L 10.984375 60.40625 
L 10.984375 69.390625 
L 28.421875 72.90625 
L 38.28125 72.90625 
L 38.28125 8.296875 
L 54.390625 8.296875 
L 54.390625 0 
L 12.40625 0 
z
" id="DejaVuSans-49"/>
       </defs>
       <use xlink:href="#DejaVuSans-49"/>
       <use x="63.623047" xlink:href="#DejaVuSans-48"/>
      </g>
     </g>
    </g>
    <g id="xtick_3">
     <g id="text_3">
      <!-- 20 -->
      <g transform="translate(300.008519 287.06881)scale(0.08 -0.08)">
       <defs>
        <path d="M 19.1875 8.296875 
L 53.609375 8.296875 
L 53.609375 0 
L 7.328125 0 
L 7.328125 8.296875 
Q 12.9375 14.109375 22.625 23.890625 
Q 32.328125 33.6875 34.8125 36.53125 
Q 39.546875 41.84375 41.421875 45.53125 
Q 43.3125 49.21875 43.3125 52.78125 
Q 43.3125 58.59375 39.234375 62.25 
Q 35.15625 65.921875 28.609375 65.921875 
Q 23.96875 65.921875 18.8125 64.3125 
Q 13.671875 62.703125 7.8125 59.421875 
L 7.8125 69.390625 
Q 13.765625 71.78125 18.9375 73 
Q 24.125 74.21875 28.421875 74.21875 
Q 39.75 74.21875 46.484375 68.546875 
Q 53.21875 62.890625 53.21875 53.421875 
Q 53.21875 48.921875 51.53125 44.890625 
Q 49.859375 40.875 45.40625 35.40625 
Q 44.1875 33.984375 37.640625 27.21875 
Q 31.109375 20.453125 19.1875 8.296875 
z
" id="DejaVuSans-50"/>
       </defs>
       <use xlink:href="#DejaVuSans-50"/>
       <use x="63.623047" xlink:href="#DejaVuSans-48"/>
      </g>
     </g>
    </g>
    <g id="xtick_4">
     <g id="text_4">
      <!-- 30 -->
      <g transform="translate(415.151549 287.06881)scale(0.08 -0.08)">
       <defs>
        <path d="M 40.578125 39.3125 
Q 47.65625 37.796875 51.625 33 
Q 55.609375 28.21875 55.609375 21.1875 
Q 55.609375 10.40625 48.1875 4.484375 
Q 40.765625 -1.421875 27.09375 -1.421875 
Q 22.515625 -1.421875 17.65625 -0.515625 
Q 12.796875 0.390625 7.625 2.203125 
L 7.625 11.71875 
Q 11.71875 9.328125 16.59375 8.109375 
Q 21.484375 6.890625 26.8125 6.890625 
Q 36.078125 6.890625 40.9375 10.546875 
Q 45.796875 14.203125 45.796875 21.1875 
Q 45.796875 27.640625 41.28125 31.265625 
Q 36.765625 34.90625 28.71875 34.90625 
L 20.21875 34.90625 
L 20.21875 43.015625 
L 29.109375 43.015625 
Q 36.375 43.015625 40.234375 45.921875 
Q 44.09375 48.828125 44.09375 54.296875 
Q 44.09375 59.90625 40.109375 62.90625 
Q 36.140625 65.921875 28.71875 65.921875 
Q 24.65625 65.921875 20.015625 65.03125 
Q 15.375 64.15625 9.8125 62.3125 
L 9.8125 71.09375 
Q 15.4375 72.65625 20.34375 73.4375 
Q 25.25 74.21875 29.59375 74.21875 
Q 40.828125 74.21875 47.359375 69.109375 
Q 53.90625 64.015625 53.90625 55.328125 
Q 53.90625 49.265625 50.4375 45.09375 
Q 46.96875 40.921875 40.578125 39.3125 
z
" id="DejaVuSans-51"/>
       </defs>
       <use xlink:href="#DejaVuSans-51"/>
       <use x="63.623047" xlink:href="#DejaVuSans-48"/>
      </g>
     </g>
    </g>
    <g id="xtick_5">
     <g id="text_5">
      <!-- 40 -->
      <g transform="translate(530.29458 287.06881)scale(0.08 -0.08)">
       <defs>
        <path d="M 37.796875 64.3125 
L 12.890625 25.390625 
L 37.796875 25.390625 
z
M 35.203125 72.90625 
L 47.609375 72.90625 
L 47.609375 25.390625 
L 58.015625 25.390625 
L 58.015625 17.1875 
L 47.609375 17.1875 
L 47.609375 0 
L 37.796875 0 
L 37.796875 17.1875 
L 4.890625 17.1875 
L 4.890625 26.703125 
z
" id="DejaVuSans-52"/>
       </defs>
       <use xlink:href="#DejaVuSans-52"/>
       <use x="63.623047" xlink:href="#DejaVuSans-48"/>
      </g>
     </g>
    </g>
    <g id="xtick_6">
     <g id="text_6">
      <!-- 50 -->
      <g transform="translate(645.43761 287.06881)scale(0.08 -0.08)">
       <defs>
        <path d="M 10.796875 72.90625 
L 49.515625 72.90625 
L 49.515625 64.59375 
L 19.828125 64.59375 
L 19.828125 46.734375 
Q 21.96875 47.46875 24.109375 47.828125 
Q 26.265625 48.1875 28.421875 48.1875 
Q 40.625 48.1875 47.75 41.5 
Q 54.890625 34.8125 54.890625 23.390625 
Q 54.890625 11.625 47.5625 5.09375 
Q 40.234375 -1.421875 26.90625 -1.421875 
Q 22.3125 -1.421875 17.546875 -0.640625 
Q 12.796875 0.140625 7.71875 1.703125 
L 7.71875 11.625 
Q 12.109375 9.234375 16.796875 8.0625 
Q 21.484375 6.890625 26.703125 6.890625 
Q 35.15625 6.890625 40.078125 11.328125 
Q 45.015625 15.765625 45.015625 23.390625 
Q 45.015625 31 40.078125 35.4375 
Q 35.15625 39.890625 26.703125 39.890625 
Q 22.75 39.890625 18.8125 39.015625 
Q 14.890625 38.140625 10.796875 36.28125 
z
" id="DejaVuSans-53"/>
       </defs>
       <use xlink:href="#DejaVuSans-53"/>
       <use x="63.623047" xlink:href="#DejaVuSans-48"/>
      </g>
     </g>
    </g>
    <g id="xtick_7">
     <g id="text_7">
      <!-- 60 -->
      <g transform="translate(760.58064 287.06881)scale(0.08 -0.08)">
       <defs>
        <path d="M 33.015625 40.375 
Q 26.375 40.375 22.484375 35.828125 
Q 18.609375 31.296875 18.609375 23.390625 
Q 18.609375 15.53125 22.484375 10.953125 
Q 26.375 6.390625 33.015625 6.390625 
Q 39.65625 6.390625 43.53125 10.953125 
Q 47.40625 15.53125 47.40625 23.390625 
Q 47.40625 31.296875 43.53125 35.828125 
Q 39.65625 40.375 33.015625 40.375 
z
M 52.59375 71.296875 
L 52.59375 62.3125 
Q 48.875 64.0625 45.09375 64.984375 
Q 41.3125 65.921875 37.59375 65.921875 
Q 27.828125 65.921875 22.671875 59.328125 
Q 17.53125 52.734375 16.796875 39.40625 
Q 19.671875 43.65625 24.015625 45.921875 
Q 28.375 48.1875 33.59375 48.1875 
Q 44.578125 48.1875 50.953125 41.515625 
Q 57.328125 34.859375 57.328125 23.390625 
Q 57.328125 12.15625 50.6875 5.359375 
Q 44.046875 -1.421875 33.015625 -1.421875 
Q 20.359375 -1.421875 13.671875 8.265625 
Q 6.984375 17.96875 6.984375 36.375 
Q 6.984375 53.65625 15.1875 63.9375 
Q 23.390625 74.21875 37.203125 74.21875 
Q 40.921875 74.21875 44.703125 73.484375 
Q 48.484375 72.75 52.59375 71.296875 
z
" id="DejaVuSans-54"/>
       </defs>
       <use xlink:href="#DejaVuSans-54"/>
       <use x="63.623047" xlink:href="#DejaVuSans-48"/>
      </g>
     </g>
    </g>
    <g id="xtick_8">
     <g id="text_8">
      <!-- 70 -->
      <g transform="translate(875.72367 287.06881)scale(0.08 -0.08)">
       <defs>
        <path d="M 8.203125 72.90625 
L 55.078125 72.90625 
L 55.078125 68.703125 
L 28.609375 0 
L 18.3125 0 
L 43.21875 64.59375 
L 8.203125 64.59375 
z
" id="DejaVuSans-55"/>
       </defs>
       <use xlink:href="#DejaVuSans-55"/>
       <use x="63.623047" xlink:href="#DejaVuSans-48"/>
      </g>
     </g>
    </g>
    <g id="text_9">
     <!-- Cycle # -->
     <g transform="translate(498.668594 300.330997)scale(0.1 -0.1)">
      <defs>
       <path d="M 64.40625 67.28125 
L 64.40625 56.890625 
Q 59.421875 61.53125 53.78125 63.8125 
Q 48.140625 66.109375 41.796875 66.109375 
Q 29.296875 66.109375 22.65625 58.46875 
Q 16.015625 50.828125 16.015625 36.375 
Q 16.015625 21.96875 22.65625 14.328125 
Q 29.296875 6.6875 41.796875 6.6875 
Q 48.140625 6.6875 53.78125 8.984375 
Q 59.421875 11.28125 64.40625 15.921875 
L 64.40625 5.609375 
Q 59.234375 2.09375 53.4375 0.328125 
Q 47.65625 -1.421875 41.21875 -1.421875 
Q 24.65625 -1.421875 15.125 8.703125 
Q 5.609375 18.84375 5.609375 36.375 
Q 5.609375 53.953125 15.125 64.078125 
Q 24.65625 74.21875 41.21875 74.21875 
Q 47.75 74.21875 53.53125 72.484375 
Q 59.328125 70.75 64.40625 67.28125 
z
" id="DejaVuSans-67"/>
       <path d="M 32.171875 -5.078125 
Q 28.375 -14.84375 24.75 -17.8125 
Q 21.140625 -20.796875 15.09375 -20.796875 
L 7.90625 -20.796875 
L 7.90625 -13.28125 
L 13.1875 -13.28125 
Q 16.890625 -13.28125 18.9375 -11.515625 
Q 21 -9.765625 23.484375 -3.21875 
L 25.09375 0.875 
L 2.984375 54.6875 
L 12.5 54.6875 
L 29.59375 11.921875 
L 46.6875 54.6875 
L 56.203125 54.6875 
z
" id="DejaVuSans-121"/>
       <path d="M 48.78125 52.59375 
L 48.78125 44.1875 
Q 44.96875 46.296875 41.140625 47.34375 
Q 37.3125 48.390625 33.40625 48.390625 
Q 24.65625 48.390625 19.8125 42.84375 
Q 14.984375 37.3125 14.984375 27.296875 
Q 14.984375 17.28125 19.8125 11.734375 
Q 24.65625 6.203125 33.40625 6.203125 
Q 37.3125 6.203125 41.140625 7.25 
Q 44.96875 8.296875 48.78125 10.40625 
L 48.78125 2.09375 
Q 45.015625 0.34375 40.984375 -0.53125 
Q 36.96875 -1.421875 32.421875 -1.421875 
Q 20.0625 -1.421875 12.78125 6.34375 
Q 5.515625 14.109375 5.515625 27.296875 
Q 5.515625 40.671875 12.859375 48.328125 
Q 20.21875 56 33.015625 56 
Q 37.15625 56 41.109375 55.140625 
Q 45.0625 54.296875 48.78125 52.59375 
z
" id="DejaVuSans-99"/>
       <path d="M 9.421875 75.984375 
L 18.40625 75.984375 
L 18.40625 0 
L 9.421875 0 
z
" id="DejaVuSans-108"/>
       <path d="M 56.203125 29.59375 
L 56.203125 25.203125 
L 14.890625 25.203125 
Q 15.484375 15.921875 20.484375 11.0625 
Q 25.484375 6.203125 34.421875 6.203125 
Q 39.59375 6.203125 44.453125 7.46875 
Q 49.3125 8.734375 54.109375 11.28125 
L 54.109375 2.78125 
Q 49.265625 0.734375 44.1875 -0.34375 
Q 39.109375 -1.421875 33.890625 -1.421875 
Q 20.796875 -1.421875 13.15625 6.1875 
Q 5.515625 13.8125 5.515625 26.8125 
Q 5.515625 40.234375 12.765625 48.109375 
Q 20.015625 56 32.328125 56 
Q 43.359375 56 49.78125 48.890625 
Q 56.203125 41.796875 56.203125 29.59375 
z
M 47.21875 32.234375 
Q 47.125 39.59375 43.09375 43.984375 
Q 39.0625 48.390625 32.421875 48.390625 
Q 24.90625 48.390625 20.390625 44.140625 
Q 15.875 39.890625 15.1875 32.171875 
z
" id="DejaVuSans-101"/>
       <path id="DejaVuSans-32"/>
       <path d="M 51.125 44 
L 36.921875 44 
L 32.8125 27.6875 
L 47.125 27.6875 
z
M 43.796875 71.78125 
L 38.71875 51.515625 
L 52.984375 51.515625 
L 58.109375 71.78125 
L 65.921875 71.78125 
L 60.890625 51.515625 
L 76.125 51.515625 
L 76.125 44 
L 58.984375 44 
L 54.984375 27.6875 
L 70.515625 27.6875 
L 70.515625 20.21875 
L 53.078125 20.21875 
L 48 0 
L 40.1875 0 
L 45.21875 20.21875 
L 30.90625 20.21875 
L 25.875 0 
L 18.015625 0 
L 23.09375 20.21875 
L 7.71875 20.21875 
L 7.71875 27.6875 
L 24.90625 27.6875 
L 29 44 
L 13.28125 44 
L 13.28125 51.515625 
L 30.90625 51.515625 
L 35.890625 71.78125 
z
" id="DejaVuSans-35"/>
      </defs>
      <use xlink:href="#DejaVuSans-67"/>
      <use x="69.824219" xlink:href="#DejaVuSans-121"/>
      <use x="129.003906" xlink:href="#DejaVuSans-99"/>
      <use x="183.984375" xlink:href="#DejaVuSans-108"/>
      <use x="211.767578" xlink:href="#DejaVuSans-101"/>
      <use x="273.291016" xlink:href="#DejaVuSans-32"/>
      <use x="305.078125" xlink:href="#DejaVuSans-35"/>
     </g>
    </g>
   </g>
   <g id="matplotlib.axis_2">
    <g id="ytick_1">
     <g id="line2d_1">
      <path clip-path="url(#pf753268f9b)" d="M 43.148125 273.99006 
L 993.078125 273.99006 
" style="fill:none;stroke:#dedede;stroke-linecap:square;"/>
     </g>
     <g id="text_10">
      <!-- 0 -->
      <g transform="translate(31.058125 277.029435)scale(0.08 -0.08)">
       <use xlink:href="#DejaVuSans-48"/>
      </g>
     </g>
    </g>
    <g id="ytick_2">
     <g id="line2d_2">
      <path clip-path="url(#pf753268f9b)" d="M 43.148125 225.48862 
L 993.078125 225.48862 
" style="fill:none;stroke:#dedede;stroke-linecap:square;"/>
     </g>
     <g id="text_11">
      <!-- 20 -->
      <g transform="translate(25.968125 228.527995)scale(0.08 -0.08)">
       <use xlink:href="#DejaVuSans-50"/>
       <use x="63.623047" xlink:href="#DejaVuSans-48"/>
      </g>
     </g>
    </g>
    <g id="ytick_3">
     <g id="line2d_3">
      <path clip-path="url(#pf753268f9b)" d="M 43.148125 176.98718 
L 993.078125 176.98718 
" style="fill:none;stroke:#dedede;stroke-linecap:square;"/>
     </g>
     <g id="text_12">
      <!-- 40 -->
      <g transform="translate(25.968125 180.026555)scale(0.08 -0.08)">
       <use xlink:href="#DejaVuSans-52"/>
       <use x="63.623047" xlink:href="#DejaVuSans-48"/>
      </g>
     </g>
    </g>
    <g id="ytick_4">
     <g id="line2d_4">
      <path clip-path="url(#pf753268f9b)" d="M 43.148125 128.48574 
L 993.078125 128.48574 
" style="fill:none;stroke:#dedede;stroke-linecap:square;"/>
     </g>
     <g id="text_13">
      <!-- 60 -->
      <g transform="translate(25.968125 131.525115)scale(0.08 -0.08)">
       <use xlink:href="#DejaVuSans-54"/>
       <use x="63.623047" xlink:href="#DejaVuSans-48"/>
      </g>
     </g>
    </g>
    <g id="ytick_5">
     <g id="line2d_5">
      <path clip-path="url(#pf753268f9b)" d="M 43.148125 79.9843 
L 993.078125 79.9843 
" style="fill:none;stroke:#dedede;stroke-linecap:square;"/>
     </g>
     <g id="text_14">
      <!-- 80 -->
      <g transform="translate(25.968125 83.023675)scale(0.08 -0.08)">
       <defs>
        <path d="M 31.78125 34.625 
Q 24.75 34.625 20.71875 30.859375 
Q 16.703125 27.09375 16.703125 20.515625 
Q 16.703125 13.921875 20.71875 10.15625 
Q 24.75 6.390625 31.78125 6.390625 
Q 38.8125 6.390625 42.859375 10.171875 
Q 46.921875 13.96875 46.921875 20.515625 
Q 46.921875 27.09375 42.890625 30.859375 
Q 38.875 34.625 31.78125 34.625 
z
M 21.921875 38.8125 
Q 15.578125 40.375 12.03125 44.71875 
Q 8.5 49.078125 8.5 55.328125 
Q 8.5 64.0625 14.71875 69.140625 
Q 20.953125 74.21875 31.78125 74.21875 
Q 42.671875 74.21875 48.875 69.140625 
Q 55.078125 64.0625 55.078125 55.328125 
Q 55.078125 49.078125 51.53125 44.71875 
Q 48 40.375 41.703125 38.8125 
Q 48.828125 37.15625 52.796875 32.3125 
Q 56.78125 27.484375 56.78125 20.515625 
Q 56.78125 9.90625 50.3125 4.234375 
Q 43.84375 -1.421875 31.78125 -1.421875 
Q 19.734375 -1.421875 13.25 4.234375 
Q 6.78125 9.90625 6.78125 20.515625 
Q 6.78125 27.484375 10.78125 32.3125 
Q 14.796875 37.15625 21.921875 38.8125 
z
M 18.3125 54.390625 
Q 18.3125 48.734375 21.84375 45.5625 
Q 25.390625 42.390625 31.78125 42.390625 
Q 38.140625 42.390625 41.71875 45.5625 
Q 45.3125 48.734375 45.3125 54.390625 
Q 45.3125 60.0625 41.71875 63.234375 
Q 38.140625 66.40625 31.78125 66.40625 
Q 25.390625 66.40625 21.84375 63.234375 
Q 18.3125 60.0625 18.3125 54.390625 
z
" id="DejaVuSans-56"/>
       </defs>
       <use xlink:href="#DejaVuSans-56"/>
       <use x="63.623047" xlink:href="#DejaVuSans-48"/>
      </g>
     </g>
    </g>
    <g id="ytick_6">
     <g id="line2d_6">
      <path clip-path="url(#pf753268f9b)" d="M 43.148125 31.48286 
L 993.078125 31.48286 
" style="fill:none;stroke:#dedede;stroke-linecap:square;"/>
     </g>
     <g id="text_15">
      <!-- 100 -->
      <g transform="translate(20.878125 34.522235)scale(0.08 -0.08)">
       <use xlink:href="#DejaVuSans-49"/>
       <use x="63.623047" xlink:href="#DejaVuSans-48"/>
       <use x="127.246094" xlink:href="#DejaVuSans-48"/>
      </g>
     </g>
    </g>
    <g id="text_16">
     <!-- % Adenine -->
     <g transform="translate(14.798437 179.463022)rotate(-90)scale(0.1 -0.1)">
      <defs>
       <path d="M 72.703125 32.078125 
Q 68.453125 32.078125 66.03125 28.46875 
Q 63.625 24.859375 63.625 18.40625 
Q 63.625 12.0625 66.03125 8.421875 
Q 68.453125 4.78125 72.703125 4.78125 
Q 76.859375 4.78125 79.265625 8.421875 
Q 81.6875 12.0625 81.6875 18.40625 
Q 81.6875 24.8125 79.265625 28.4375 
Q 76.859375 32.078125 72.703125 32.078125 
z
M 72.703125 38.28125 
Q 80.421875 38.28125 84.953125 32.90625 
Q 89.5 27.546875 89.5 18.40625 
Q 89.5 9.28125 84.9375 3.921875 
Q 80.375 -1.421875 72.703125 -1.421875 
Q 64.890625 -1.421875 60.34375 3.921875 
Q 55.8125 9.28125 55.8125 18.40625 
Q 55.8125 27.59375 60.375 32.9375 
Q 64.9375 38.28125 72.703125 38.28125 
z
M 22.3125 68.015625 
Q 18.109375 68.015625 15.6875 64.375 
Q 13.28125 60.75 13.28125 54.390625 
Q 13.28125 47.953125 15.671875 44.328125 
Q 18.0625 40.71875 22.3125 40.71875 
Q 26.5625 40.71875 28.96875 44.328125 
Q 31.390625 47.953125 31.390625 54.390625 
Q 31.390625 60.6875 28.953125 64.34375 
Q 26.515625 68.015625 22.3125 68.015625 
z
M 66.40625 74.21875 
L 74.21875 74.21875 
L 28.609375 -1.421875 
L 20.796875 -1.421875 
z
M 22.3125 74.21875 
Q 30.03125 74.21875 34.609375 68.875 
Q 39.203125 63.53125 39.203125 54.390625 
Q 39.203125 45.171875 34.640625 39.84375 
Q 30.078125 34.515625 22.3125 34.515625 
Q 14.546875 34.515625 10.03125 39.859375 
Q 5.515625 45.21875 5.515625 54.390625 
Q 5.515625 63.484375 10.046875 68.84375 
Q 14.59375 74.21875 22.3125 74.21875 
z
" id="DejaVuSans-37"/>
       <path d="M 34.1875 63.1875 
L 20.796875 26.90625 
L 47.609375 26.90625 
z
M 28.609375 72.90625 
L 39.796875 72.90625 
L 67.578125 0 
L 57.328125 0 
L 50.6875 18.703125 
L 17.828125 18.703125 
L 11.1875 0 
L 0.78125 0 
z
" id="DejaVuSans-65"/>
       <path d="M 45.40625 46.390625 
L 45.40625 75.984375 
L 54.390625 75.984375 
L 54.390625 0 
L 45.40625 0 
L 45.40625 8.203125 
Q 42.578125 3.328125 38.25 0.953125 
Q 33.9375 -1.421875 27.875 -1.421875 
Q 17.96875 -1.421875 11.734375 6.484375 
Q 5.515625 14.40625 5.515625 27.296875 
Q 5.515625 40.1875 11.734375 48.09375 
Q 17.96875 56 27.875 56 
Q 33.9375 56 38.25 53.625 
Q 42.578125 51.265625 45.40625 46.390625 
z
M 14.796875 27.296875 
Q 14.796875 17.390625 18.875 11.75 
Q 22.953125 6.109375 30.078125 6.109375 
Q 37.203125 6.109375 41.296875 11.75 
Q 45.40625 17.390625 45.40625 27.296875 
Q 45.40625 37.203125 41.296875 42.84375 
Q 37.203125 48.484375 30.078125 48.484375 
Q 22.953125 48.484375 18.875 42.84375 
Q 14.796875 37.203125 14.796875 27.296875 
z
" id="DejaVuSans-100"/>
       <path d="M 54.890625 33.015625 
L 54.890625 0 
L 45.90625 0 
L 45.90625 32.71875 
Q 45.90625 40.484375 42.875 44.328125 
Q 39.84375 48.1875 33.796875 48.1875 
Q 26.515625 48.1875 22.3125 43.546875 
Q 18.109375 38.921875 18.109375 30.90625 
L 18.109375 0 
L 9.078125 0 
L 9.078125 54.6875 
L 18.109375 54.6875 
L 18.109375 46.1875 
Q 21.34375 51.125 25.703125 53.5625 
Q 30.078125 56 35.796875 56 
Q 45.21875 56 50.046875 50.171875 
Q 54.890625 44.34375 54.890625 33.015625 
z
" id="DejaVuSans-110"/>
       <path d="M 9.421875 54.6875 
L 18.40625 54.6875 
L 18.40625 0 
L 9.421875 0 
z
M 9.421875 75.984375 
L 18.40625 75.984375 
L 18.40625 64.59375 
L 9.421875 64.59375 
z
" id="DejaVuSans-105"/>
      </defs>
      <use xlink:href="#DejaVuSans-37"/>
      <use x="95.019531" xlink:href="#DejaVuSans-32"/>
      <use x="126.806641" xlink:href="#DejaVuSans-65"/>
      <use x="193.464844" xlink:href="#DejaVuSans-100"/>
      <use x="256.941406" xlink:href="#DejaVuSans-101"/>
      <use x="318.464844" xlink:href="#DejaVuSans-110"/>
      <use x="381.84375" xlink:href="#DejaVuSans-105"/>
      <use x="409.626953" xlink:href="#DejaVuSans-110"/>
      <use x="473.005859" xlink:href="#DejaVuSans-101"/>
     </g>
    </g>
   </g>
   <g id="line2d_7">
    <path clip-path="url(#pf753268f9b)" d="M 86.326761 203.463723 
L 97.841064 199.308581 
L 109.355367 198.78809 
L 120.86967 200.42851 
L 132.383973 199.513266 
L 143.898277 201.159534 
L 155.41258 200.712147 
L 166.926883 200.294001 
L 178.441186 201.270651 
L 189.955489 202.159575 
L 201.469792 202.656674 
L 212.984095 202.302856 
L 224.498398 201.565983 
L 236.012701 200.97824 
L 247.527004 201.162458 
L 259.041307 201.1069 
L 270.55561 201.703417 
L 282.069913 201.794064 
L 293.584216 201.244334 
L 305.098519 202.156651 
L 316.612822 201.872144 
L 328.127125 201.639392 
L 339.641428 201.348146 
L 351.155731 201.835074 
L 362.670034 201.323008 
L 374.184337 201.684853 
L 385.69864 201.302257 
L 397.212943 202.004099 
L 408.727246 201.48631 
L 420.241549 201.995507 
L 431.755852 202.427536 
L 443.270155 200.910952 
L 454.784458 201.377242 
L 466.298761 201.778041 
L 477.813064 201.541209 
L 489.327367 201.707835 
L 500.84167 201.242585 
L 512.355973 201.360332 
L 523.870277 201.554025 
L 535.38458 201.266909 
L 546.898883 201.039168 
L 558.413186 202.393115 
L 569.927489 201.735651 
L 581.441792 201.435391 
L 592.956095 201.750623 
L 604.470398 202.084335 
L 615.984701 201.980661 
L 627.499004 202.082555 
L 639.013307 202.957288 
L 650.52761 218.135673 
" style="fill:none;stroke:#7cb5ec;stroke-linecap:square;"/>
   </g>
   <g id="line2d_8">
    <path clip-path="url(#pf753268f9b)" d="M 86.326761 203.615778 
L 97.841064 199.121438 
L 109.355367 199.615609 
L 120.86967 200.147796 
L 132.383973 199.238401 
L 143.898277 202.027991 
L 155.41258 200.83496 
L 166.926883 200.925607 
L 178.441186 201.457793 
L 189.955489 201.843773 
L 201.469792 202.428593 
L 212.984095 201.408082 
L 224.498398 201.346677 
L 236.012701 201.364222 
L 247.527004 201.340827 
L 259.041307 201.180004 
L 270.55561 200.975316 
L 282.069913 201.554287 
L 293.584216 201.273573 
L 305.098519 201.457793 
L 316.612822 201.963748 
L 328.127125 201.761713 
L 339.641428 201.394395 
L 351.155731 201.644565 
L 362.670034 201.570285 
L 374.184337 201.703191 
L 385.69864 201.418779 
L 397.212943 201.818714 
L 408.727246 201.222966 
L 420.241549 201.460463 
L 431.755852 201.45143 
L 443.270155 201.954535 
L 454.784458 201.315556 
L 466.298761 201.805946 
L 477.813064 201.423496 
L 489.327367 201.885399 
L 500.84167 201.308006 
L 512.355973 202.164333 
L 523.870277 201.604845 
L 535.38458 201.497232 
L 546.898883 201.683352 
L 558.413186 201.889987 
L 569.927489 200.577196 
L 581.441792 201.066874 
L 592.956095 201.435046 
L 604.470398 201.382248 
L 615.984701 200.768166 
L 627.499004 202.809269 
L 639.013307 202.94713 
L 650.52761 217.550435 
" style="fill:none;stroke:#434348;stroke-linecap:square;"/>
   </g>
   <g id="line2d_9">
    <path clip-path="url(#pf753268f9b)" d="M 86.326761 199.889696 
L 97.841064 198.466809 
L 109.355367 198.229191 
L 120.86967 199.445573 
L 132.383973 198.048147 
L 143.898277 199.646417 
L 155.41258 200.149945 
L 166.926883 199.422942 
L 178.441186 200.226322 
L 189.955489 200.732677 
L 201.469792 200.526175 
L 212.984095 200.690244 
L 224.498398 200.741163 
L 236.012701 199.906666 
L 247.527004 199.867065 
L 259.041307 199.773714 
L 270.55561 200.636497 
L 282.069913 200.466771 
L 293.584216 201.004242 
L 305.098519 200.58558 
L 316.612822 200.788398 
L 328.127125 200.089919 
L 339.641428 200.485369 
L 351.155731 199.718056 
L 362.670034 200.272217 
L 374.184337 200.524553 
L 385.69864 200.41445 
L 397.212943 199.983949 
L 408.727246 200.436996 
L 420.241549 199.66334 
L 431.755852 200.018967 
L 443.270155 200.558708 
L 454.784458 200.074826 
L 466.298761 200.427523 
L 477.813064 200.190662 
L 489.327367 200.027374 
L 500.84167 200.768527 
L 512.355973 200.081405 
L 523.870277 200.457776 
L 535.38458 200.273859 
L 546.898883 200.958054 
L 558.413186 200.591029 
L 569.927489 200.345105 
L 581.441792 200.151436 
L 592.956095 199.784457 
L 604.470398 200.847866 
L 615.984701 200.502075 
L 627.499004 201.156541 
L 639.013307 203.037546 
L 650.52761 217.020142 
" style="fill:none;stroke:#90ed7d;stroke-linecap:square;"/>
   </g>
   <g id="line2d_10">
    <path clip-path="url(#pf753268f9b)" d="M 86.326761 199.646417 
L 97.841064 198.229191 
L 109.355367 199.292818 
L 120.86967 200.206519 
L 132.383973 198.246164 
L 143.898277 201.544541 
L 155.41258 199.838777 
L 166.926883 199.168351 
L 178.441186 200.237638 
L 189.955489 199.971731 
L 201.469792 200.760964 
L 212.984095 201.015557 
L 224.498398 199.796345 
L 236.012701 200.115999 
L 247.527004 199.793515 
L 259.041307 199.963243 
L 270.55561 199.991532 
L 282.069913 200.410194 
L 293.584216 199.776542 
L 305.098519 200.271582 
L 316.612822 200.318456 
L 328.127125 200.447989 
L 339.641428 200.298182 
L 351.155731 200.65945 
L 362.670034 200.189304 
L 374.184337 200.385856 
L 385.69864 199.727451 
L 397.212943 199.904797 
L 408.727246 200.052867 
L 420.241549 199.696912 
L 431.755852 199.918658 
L 443.270155 199.764904 
L 454.784458 200.181919 
L 466.298761 200.767443 
L 477.813064 200.103607 
L 489.327367 200.232123 
L 500.84167 200.338758 
L 512.355973 200.160809 
L 523.870277 201.089088 
L 535.38458 200.142762 
L 546.898883 200.277807 
L 558.413186 200.526466 
L 569.927489 200.085055 
L 581.441792 200.040004 
L 592.956095 200.713376 
L 604.470398 199.852864 
L 615.984701 200.439588 
L 627.499004 201.235548 
L 639.013307 202.330145 
L 650.52761 216.948336 
" style="fill:none;stroke:#f7a35c;stroke-linecap:square;"/>
   </g>
   <g id="line2d_11">
    <path clip-path="url(#pf753268f9b)" d="M 86.326761 227.731707 
L 97.841064 199.928245 
L 109.355367 202.973182 
L 120.86967 202.545656 
L 132.383973 183.230964 
L 143.898277 203.642972 
L 155.41258 205.091812 
L 166.926883 201.49584 
L 178.441186 223.280684 
L 189.955489 198.374899 
L 201.469792 215.214686 
L 212.984095 203.438711 
L 224.498398 214.307382 
L 236.012701 213.409576 
L 247.527004 207.666472 
L 259.041307 203.657225 
L 270.55561 201.619349 
L 282.069913 201.728606 
L 293.584216 202.122879 
L 305.098519 201.538594 
L 316.612822 202.032625 
L 328.127125 203.375574 
L 339.641428 203.831612 
L 351.155731 204.19804 
L 362.670034 204.105038 
L 374.184337 202.740712 
L 385.69864 203.668913 
L 397.212943 203.092003 
L 408.727246 202.27028 
L 420.241549 202.786852 
L 431.755852 201.897195 
L 443.270155 202.609897 
L 454.784458 202.722599 
L 466.298761 203.437644 
L 477.813064 202.479258 
L 489.327367 202.586892 
L 500.84167 203.250581 
L 512.355973 202.410473 
L 523.870277 201.754079 
L 535.38458 202.954029 
L 546.898883 201.470261 
L 558.413186 201.32326 
L 569.927489 203.553679 
L 581.441792 202.713057 
L 592.956095 201.539775 
L 604.470398 202.007109 
L 615.984701 201.747796 
L 627.499004 201.581128 
L 639.013307 201.485075 
L 650.52761 201.840552 
L 662.041913 202.111746 
L 673.556216 201.438124 
L 685.070519 202.010809 
L 696.584822 202.718006 
L 708.099125 201.598297 
L 719.613428 202.678507 
L 731.127731 202.302237 
L 742.642034 202.311615 
L 754.156337 200.939058 
L 765.67064 201.775968 
L 777.184943 201.423779 
L 788.699246 201.145456 
L 800.213549 201.179592 
L 811.727852 201.867691 
L 823.242155 202.581012 
L 834.756458 201.100629 
L 846.270761 201.496294 
L 857.785064 201.289125 
L 869.299367 201.19347 
L 880.81367 200.890477 
L 892.327973 201.812477 
L 903.842277 200.698266 
L 915.35658 201.622216 
L 926.870883 199.450632 
L 938.385186 196.497997 
L 949.899489 184.561953 
" style="fill:none;stroke:#8085e9;stroke-linecap:square;"/>
   </g>
   <g id="line2d_12">
    <path clip-path="url(#pf753268f9b)" d="M 86.326761 229.399061 
L 97.841064 199.790486 
L 109.355367 203.215447 
L 120.86967 204.198758 
L 132.383973 184.309282 
L 143.898277 203.77598 
L 155.41258 203.818734 
L 166.926883 201.244074 
L 178.441186 221.974354 
L 189.955489 199.638475 
L 201.469792 214.430888 
L 212.984095 202.859175 
L 224.498398 213.927358 
L 236.012701 213.898857 
L 247.527004 207.200943 
L 259.041307 203.343704 
L 270.55561 201.942369 
L 282.069913 200.645537 
L 293.584216 201.909116 
L 305.098519 202.593159 
L 316.612822 203.329454 
L 328.127125 203.464448 
L 339.641428 203.591333 
L 351.155731 203.99714 
L 362.670034 203.843742 
L 374.184337 203.059044 
L 385.69864 202.320547 
L 397.212943 203.678138 
L 408.727246 202.383004 
L 420.241549 201.9743 
L 431.755852 202.620041 
L 443.270155 203.07666 
L 454.784458 201.874857 
L 466.298761 203.435646 
L 477.813064 202.347273 
L 489.327367 202.777743 
L 500.84167 201.839793 
L 512.355973 202.63235 
L 523.870277 202.215413 
L 535.38458 203.257163 
L 546.898883 201.998068 
L 558.413186 202.59313 
L 569.927489 203.418804 
L 581.441792 201.832411 
L 592.956095 202.128011 
L 604.470398 202.33866 
L 615.984701 202.32879 
L 627.499004 201.043691 
L 639.013307 202.235361 
L 650.52761 201.268347 
L 662.041913 201.199276 
L 673.556216 201.825444 
L 685.070519 202.546971 
L 696.584822 201.999673 
L 708.099125 203.566464 
L 719.613428 202.308077 
L 731.127731 201.729392 
L 742.642034 202.15836 
L 754.156337 202.037044 
L 765.67064 202.281724 
L 777.184943 202.29116 
L 788.699246 201.414006 
L 800.213549 202.463849 
L 811.727852 202.239787 
L 823.242155 202.041724 
L 834.756458 202.339181 
L 846.270761 202.464169 
L 857.785064 201.54133 
L 869.299367 201.480659 
L 880.81367 202.274931 
L 892.327973 201.335342 
L 903.842277 201.889628 
L 915.35658 201.887894 
L 926.870883 199.399269 
L 938.385186 196.5539 
L 949.899489 185.853862 
" style="fill:none;stroke:#f15c80;stroke-linecap:square;"/>
   </g>
   <g id="line2d_13">
    <path clip-path="url(#pf753268f9b)" d="M 86.326761 227.898594 
L 97.841064 200.095584 
L 109.355367 205.724555 
L 120.86967 203.320278 
L 132.383973 183.510633 
L 143.898277 204.317312 
L 155.41258 205.838502 
L 166.926883 201.565498 
L 178.441186 223.203986 
L 189.955489 201.987099 
L 201.469792 213.968602 
L 212.984095 202.875886 
L 224.498398 215.592343 
L 236.012701 214.105339 
L 247.527004 207.747109 
L 259.041307 205.622001 
L 270.55561 202.311848 
L 282.069913 201.850364 
L 293.584216 202.790424 
L 305.098519 203.588052 
L 316.612822 203.763021 
L 328.127125 204.677055 
L 339.641428 203.860632 
L 351.155731 204.024225 
L 362.670034 202.872243 
L 374.184337 203.011091 
L 385.69864 202.254548 
L 397.212943 202.940267 
L 408.727246 201.966302 
L 420.241549 202.980295 
L 431.755852 202.699379 
L 443.270155 202.434683 
L 454.784458 201.741944 
L 466.298761 204.407011 
L 477.813064 203.378715 
L 489.327367 203.370399 
L 500.84167 203.950755 
L 512.355973 202.782365 
L 523.870277 202.004841 
L 535.38458 202.625752 
L 546.898883 201.903073 
L 558.413186 201.837632 
L 569.927489 202.227543 
L 581.441792 202.617451 
L 592.956095 202.224613 
L 604.470398 204.265161 
L 615.984701 201.674799 
L 627.499004 201.526651 
L 639.013307 201.923883 
L 650.52761 202.131357 
L 662.041913 201.257204 
L 673.556216 201.551496 
L 685.070519 201.860586 
L 696.584822 201.908503 
L 708.099125 201.108588 
L 719.613428 202.637499 
L 731.127731 202.183334 
L 742.642034 202.006122 
L 754.156337 201.125311 
L 765.67064 201.480225 
L 777.184943 201.437483 
L 788.699246 201.086949 
L 800.213549 201.273648 
L 811.727852 201.123269 
L 823.242155 201.854603 
L 834.756458 201.070007 
L 846.270761 200.726518 
L 857.785064 200.665096 
L 869.299367 200.114042 
L 880.81367 199.80623 
L 892.327973 199.880898 
L 903.842277 201.327198 
L 915.35658 200.175723 
L 926.870883 199.468247 
L 938.385186 195.072872 
L 949.899489 184.238591 
" style="fill:none;stroke:#e4d354;stroke-linecap:square;"/>
   </g>
   <g id="line2d_14">
    <path clip-path="url(#pf753268f9b)" d="M 86.326761 228.963996 
L 97.841064 200.89321 
L 109.355367 205.206096 
L 120.86967 203.160752 
L 132.383973 184.234195 
L 143.898277 202.887279 
L 155.41258 205.211793 
L 166.926883 201.508523 
L 178.441186 223.124226 
L 189.955489 200.015821 
L 201.469792 213.974301 
L 212.984095 202.425795 
L 224.498398 214.333233 
L 236.012701 213.47863 
L 247.527004 208.368119 
L 259.041307 203.9128 
L 270.55561 201.713629 
L 282.069913 201.029948 
L 293.584216 203.035409 
L 305.098519 202.8417 
L 316.612822 202.570569 
L 328.127125 203.640807 
L 339.641428 203.321483 
L 351.155731 203.15192 
L 362.670034 203.240505 
L 374.184337 203.267821 
L 385.69864 201.637229 
L 397.212943 202.266919 
L 408.727246 202.168226 
L 420.241549 202.006095 
L 431.755852 201.151541 
L 443.270155 201.671081 
L 454.784458 202.386916 
L 466.298761 202.144351 
L 477.813064 202.365374 
L 489.327367 202.936847 
L 500.84167 202.671544 
L 512.355973 202.594122 
L 523.870277 200.948533 
L 535.38458 201.608005 
L 546.898883 201.272227 
L 558.413186 201.049513 
L 569.927489 202.111627 
L 581.441792 202.600301 
L 592.956095 203.325184 
L 604.470398 202.951165 
L 615.984701 202.037922 
L 627.499004 201.021571 
L 639.013307 201.090596 
L 650.52761 202.48259 
L 662.041913 201.597257 
L 673.556216 201.070269 
L 685.070519 201.384015 
L 696.584822 202.924613 
L 708.099125 202.020439 
L 719.613428 202.355817 
L 731.127731 201.883226 
L 742.642034 201.685132 
L 754.156337 200.032591 
L 765.67064 200.082307 
L 777.184943 201.161231 
L 788.699246 200.501524 
L 800.213549 201.894098 
L 811.727852 201.728543 
L 823.242155 200.958352 
L 834.756458 201.764803 
L 846.270761 201.065574 
L 857.785064 199.984851 
L 869.299367 200.167849 
L 880.81367 199.983917 
L 892.327973 200.161294 
L 903.842277 200.573772 
L 915.35658 199.972898 
L 926.870883 200.354597 
L 938.385186 197.710841 
L 949.899489 186.165037 
" style="fill:none;stroke:#2b908f;stroke-linecap:square;"/>
   </g>
   <g id="line2d_15">
    <path clip-path="url(#pf753268f9b)" d="M 86.326761 230.183268 
L 97.841064 199.381427 
L 109.355367 202.726133 
L 120.86967 202.798494 
L 132.383973 182.613682 
L 143.898277 203.606531 
L 155.41258 203.783413 
L 166.926883 201.809555 
L 178.441186 226.368213 
L 189.955489 197.190486 
L 201.469792 214.82255 
L 212.984095 203.417586 
L 224.498398 214.806469 
L 236.012701 213.278838 
L 247.527004 208.17736 
L 259.041307 204.446726 
L 270.55561 200.96936 
L 282.069913 201.355286 
L 293.584216 202.111062 
L 305.098519 202.55729 
L 316.612822 204.000498 
L 328.127125 203.483589 
L 339.641428 204.676444 
L 351.155731 203.579426 
L 362.670034 204.17732 
L 374.184337 203.618465 
L 385.69864 203.167986 
L 397.212943 202.85794 
L 408.727246 203.221747 
L 420.241549 203.31228 
L 431.755852 203.54709 
L 443.270155 203.94146 
L 454.784458 203.700219 
L 466.298761 204.06015 
L 477.813064 203.535862 
L 489.327367 204.062668 
L 500.84167 202.619 
L 512.355973 203.101345 
L 523.870277 202.814694 
L 535.38458 203.402049 
L 546.898883 203.709754 
L 558.413186 203.348947 
L 569.927489 203.93573 
L 581.441792 204.338153 
L 592.956095 203.58932 
L 604.470398 204.878379 
L 615.984701 203.893187 
L 627.499004 203.214482 
L 639.013307 203.848912 
L 650.52761 203.539269 
L 662.041913 202.49302 
L 673.556216 203.840987 
L 685.070519 202.593947 
L 696.584822 203.948779 
L 708.099125 203.165512 
L 719.613428 204.190677 
L 731.127731 203.663731 
L 742.642034 203.309661 
L 754.156337 203.570031 
L 765.67064 202.817936 
L 777.184943 202.247242 
L 788.699246 202.362704 
L 800.213549 203.026803 
L 811.727852 203.260153 
L 823.242155 202.452919 
L 834.756458 203.277849 
L 846.270761 202.964197 
L 857.785064 202.986474 
L 869.299367 202.22959 
L 880.81367 202.336244 
L 892.327973 201.943967 
L 903.842277 202.241843 
L 915.35658 201.637346 
L 926.870883 201.707683 
L 938.385186 198.209999 
L 949.899489 186.565926 
" style="fill:none;stroke:#f45b5b;stroke-linecap:square;"/>
   </g>
   <g id="line2d_16">
    <path clip-path="url(#pf753268f9b)" d="M 86.326761 231.433512 
L 97.841064 200.125141 
L 109.355367 203.755273 
L 120.86967 203.220602 
L 132.383973 182.891066 
L 143.898277 203.56633 
L 155.41258 204.59145 
L 166.926883 201.825636 
L 178.441186 227.067706 
L 189.955489 197.797516 
L 201.469792 215.530081 
L 212.984095 203.960298 
L 224.498398 214.919031 
L 236.012701 214.372299 
L 247.527004 208.494945 
L 259.041307 204.342206 
L 270.55561 202.484928 
L 282.069913 201.423627 
L 293.584216 203.148241 
L 305.098519 202.991457 
L 316.612822 203.970035 
L 328.127125 203.948774 
L 339.641428 204.336431 
L 351.155731 203.989515 
L 362.670034 204.67989 
L 374.184337 204.493792 
L 385.69864 203.544793 
L 397.212943 204.196699 
L 408.727246 203.379314 
L 420.241549 202.793882 
L 431.755852 202.574452 
L 443.270155 203.396481 
L 454.784458 203.60786 
L 466.298761 204.186838 
L 477.813064 204.1388 
L 489.327367 203.911367 
L 500.84167 202.277943 
L 512.355973 203.527997 
L 523.870277 203.227783 
L 535.38458 202.521559 
L 546.898883 202.632862 
L 558.413186 203.10701 
L 569.927489 203.361504 
L 581.441792 203.025197 
L 592.956095 204.064697 
L 604.470398 203.364259 
L 615.984701 203.388296 
L 627.499004 202.865681 
L 639.013307 201.698979 
L 650.52761 203.66554 
L 662.041913 201.720615 
L 673.556216 203.028175 
L 685.070519 204.036394 
L 696.584822 203.024087 
L 708.099125 202.663896 
L 719.613428 204.365811 
L 731.127731 203.555575 
L 742.642034 202.981621 
L 754.156337 202.705796 
L 765.67064 202.219664 
L 777.184943 203.337241 
L 788.699246 202.897045 
L 800.213549 202.691898 
L 811.727852 202.973417 
L 823.242155 202.568566 
L 834.756458 203.656143 
L 846.270761 202.177329 
L 857.785064 201.292302 
L 869.299367 203.356474 
L 880.81367 202.321847 
L 892.327973 202.12543 
L 903.842277 201.898904 
L 915.35658 203.357185 
L 926.870883 201.059349 
L 938.385186 198.115537 
L 949.899489 186.273435 
" style="fill:none;stroke:#91e8e1;stroke-linecap:square;"/>
   </g>
   <g id="line2d_17">
    <path clip-path="url(#pf753268f9b)" d="M 86.326761 228.63468 
L 97.841064 199.933291 
L 109.355367 202.874089 
L 120.86967 202.021455 
L 132.383973 181.799035 
L 143.898277 202.834613 
L 155.41258 203.462249 
L 166.926883 200.399082 
L 178.441186 224.320196 
L 189.955489 197.801706 
L 201.469792 214.428065 
L 212.984095 202.641192 
L 224.498398 213.630695 
L 236.012701 213.251745 
L 247.527004 207.038573 
L 259.041307 202.925403 
L 270.55561 200.722766 
L 282.069913 200.722766 
L 293.584216 200.710925 
L 305.098519 201.275399 
L 316.612822 202.218825 
L 328.127125 203.101883 
L 339.641428 202.888722 
L 351.155731 203.048255 
L 362.670034 202.916828 
L 374.184337 202.689492 
L 385.69864 201.645824 
L 397.212943 200.720785 
L 408.727246 201.103503 
L 420.241549 201.504095 
L 431.755852 202.474932 
L 443.270155 201.4113 
L 454.784458 201.510772 
L 466.298761 201.88422 
L 477.813064 202.449088 
L 489.327367 202.18037 
L 500.84167 202.335039 
L 512.355973 202.482709 
L 523.870277 201.079135 
L 535.38458 201.512496 
L 546.898883 201.674394 
L 558.413186 201.049004 
L 569.927489 202.867786 
L 581.441792 202.615402 
L 592.956095 201.969644 
L 604.470398 202.210902 
L 615.984701 201.962621 
L 627.499004 201.271924 
L 639.013307 201.967643 
L 650.52761 201.371012 
L 662.041913 202.776378 
L 673.556216 202.276081 
L 685.070519 201.971797 
L 696.584822 203.222142 
L 708.099125 202.264159 
L 719.613428 201.722735 
L 731.127731 202.127948 
L 742.642034 201.718074 
L 754.156337 200.765089 
L 765.67064 200.831739 
L 777.184943 202.189219 
L 788.699246 200.807474 
L 800.213549 201.098805 
L 811.727852 201.50144 
L 823.242155 201.83788 
L 834.756458 201.812324 
L 846.270761 202.192297 
L 857.785064 201.962681 
L 869.299367 201.223447 
L 880.81367 202.348314 
L 892.327973 200.562282 
L 903.842277 201.61649 
L 915.35658 201.242372 
L 926.870883 200.215883 
L 938.385186 196.341229 
L 949.899489 185.78167 
" style="fill:none;stroke:#7cb5ec;stroke-linecap:square;"/>
   </g>
   <g id="line2d_18">
    <path clip-path="url(#pf753268f9b)" d="M 86.326761 230.636003 
L 97.841064 198.753026 
L 109.355367 201.863559 
L 120.86967 202.424088 
L 132.383973 182.422719 
L 143.898277 202.226718 
L 155.41258 202.97672 
L 166.926883 200.896452 
L 178.441186 224.766249 
L 189.955489 197.296443 
L 201.469792 214.104381 
L 212.984095 202.838561 
L 224.498398 213.603063 
L 236.012701 213.153062 
L 247.527004 207.093835 
L 259.041307 201.993824 
L 270.55561 200.367503 
L 282.069913 200.624083 
L 293.584216 200.908294 
L 305.098519 201.733296 
L 316.612822 201.888845 
L 328.127125 203.695657 
L 339.641428 202.816981 
L 351.155731 202.383184 
L 362.670034 201.846695 
L 374.184337 202.290493 
L 385.69864 201.474878 
L 397.212943 202.790392 
L 408.727246 202.269038 
L 420.241549 201.472123 
L 431.755852 201.490437 
L 443.270155 202.274681 
L 454.784458 201.512455 
L 466.298761 202.251469 
L 477.813064 202.120941 
L 489.327367 202.250598 
L 500.84167 202.255611 
L 512.355973 201.935244 
L 523.870277 202.09801 
L 535.38458 201.626979 
L 546.898883 200.93543 
L 558.413186 201.388536 
L 569.927489 201.845092 
L 581.441792 201.734453 
L 592.956095 202.442341 
L 604.470398 202.471452 
L 615.984701 201.375154 
L 627.499004 201.278025 
L 639.013307 201.752934 
L 650.52761 201.205411 
L 662.041913 201.933323 
L 673.556216 200.775111 
L 685.070519 202.191273 
L 696.584822 202.269096 
L 708.099125 201.448125 
L 719.613428 202.50258 
L 731.127731 202.258952 
L 742.642034 202.2087 
L 754.156337 201.818889 
L 765.67064 200.786366 
L 777.184943 201.72105 
L 788.699246 201.403074 
L 800.213549 201.487491 
L 811.727852 201.626574 
L 823.242155 201.682678 
L 834.756458 200.859072 
L 846.270761 201.205375 
L 857.785064 200.850783 
L 869.299367 201.487687 
L 880.81367 202.449328 
L 892.327973 201.03213 
L 903.842277 201.030515 
L 915.35658 200.90792 
L 926.870883 199.141733 
L 938.385186 195.793531 
L 949.899489 185.090558 
" style="fill:none;stroke:#434348;stroke-linecap:square;"/>
   </g>
   <g id="line2d_19">
    <path clip-path="url(#pf753268f9b)" d="M 43.148125 273.99006 
L 993.078125 273.99006 
" style="fill:none;stroke:#dedede;stroke-linecap:square;stroke-width:2;"/>
   </g>
   <g id="text_17">
    <!-- Picard: Base Distribution -->
    <g transform="translate(419.786875 19.3575)scale(0.16 -0.16)">
     <defs>
      <path d="M 19.671875 64.796875 
L 19.671875 37.40625 
L 32.078125 37.40625 
Q 38.96875 37.40625 42.71875 40.96875 
Q 46.484375 44.53125 46.484375 51.125 
Q 46.484375 57.671875 42.71875 61.234375 
Q 38.96875 64.796875 32.078125 64.796875 
z
M 9.8125 72.90625 
L 32.078125 72.90625 
Q 44.34375 72.90625 50.609375 67.359375 
Q 56.890625 61.8125 56.890625 51.125 
Q 56.890625 40.328125 50.609375 34.8125 
Q 44.34375 29.296875 32.078125 29.296875 
L 19.671875 29.296875 
L 19.671875 0 
L 9.8125 0 
z
" id="DejaVuSans-80"/>
      <path d="M 34.28125 27.484375 
Q 23.390625 27.484375 19.1875 25 
Q 14.984375 22.515625 14.984375 16.5 
Q 14.984375 11.71875 18.140625 8.90625 
Q 21.296875 6.109375 26.703125 6.109375 
Q 34.1875 6.109375 38.703125 11.40625 
Q 43.21875 16.703125 43.21875 25.484375 
L 43.21875 27.484375 
z
M 52.203125 31.203125 
L 52.203125 0 
L 43.21875 0 
L 43.21875 8.296875 
Q 40.140625 3.328125 35.546875 0.953125 
Q 30.953125 -1.421875 24.3125 -1.421875 
Q 15.921875 -1.421875 10.953125 3.296875 
Q 6 8.015625 6 15.921875 
Q 6 25.140625 12.171875 29.828125 
Q 18.359375 34.515625 30.609375 34.515625 
L 43.21875 34.515625 
L 43.21875 35.40625 
Q 43.21875 41.609375 39.140625 45 
Q 35.0625 48.390625 27.6875 48.390625 
Q 23 48.390625 18.546875 47.265625 
Q 14.109375 46.140625 10.015625 43.890625 
L 10.015625 52.203125 
Q 14.9375 54.109375 19.578125 55.046875 
Q 24.21875 56 28.609375 56 
Q 40.484375 56 46.34375 49.84375 
Q 52.203125 43.703125 52.203125 31.203125 
z
" id="DejaVuSans-97"/>
      <path d="M 41.109375 46.296875 
Q 39.59375 47.171875 37.8125 47.578125 
Q 36.03125 48 33.890625 48 
Q 26.265625 48 22.1875 43.046875 
Q 18.109375 38.09375 18.109375 28.8125 
L 18.109375 0 
L 9.078125 0 
L 9.078125 54.6875 
L 18.109375 54.6875 
L 18.109375 46.1875 
Q 20.953125 51.171875 25.484375 53.578125 
Q 30.03125 56 36.53125 56 
Q 37.453125 56 38.578125 55.875 
Q 39.703125 55.765625 41.0625 55.515625 
z
" id="DejaVuSans-114"/>
      <path d="M 11.71875 12.40625 
L 22.015625 12.40625 
L 22.015625 0 
L 11.71875 0 
z
M 11.71875 51.703125 
L 22.015625 51.703125 
L 22.015625 39.3125 
L 11.71875 39.3125 
z
" id="DejaVuSans-58"/>
      <path d="M 19.671875 34.8125 
L 19.671875 8.109375 
L 35.5 8.109375 
Q 43.453125 8.109375 47.28125 11.40625 
Q 51.125 14.703125 51.125 21.484375 
Q 51.125 28.328125 47.28125 31.5625 
Q 43.453125 34.8125 35.5 34.8125 
z
M 19.671875 64.796875 
L 19.671875 42.828125 
L 34.28125 42.828125 
Q 41.5 42.828125 45.03125 45.53125 
Q 48.578125 48.25 48.578125 53.8125 
Q 48.578125 59.328125 45.03125 62.0625 
Q 41.5 64.796875 34.28125 64.796875 
z
M 9.8125 72.90625 
L 35.015625 72.90625 
Q 46.296875 72.90625 52.390625 68.21875 
Q 58.5 63.53125 58.5 54.890625 
Q 58.5 48.1875 55.375 44.234375 
Q 52.25 40.28125 46.1875 39.3125 
Q 53.46875 37.75 57.5 32.78125 
Q 61.53125 27.828125 61.53125 20.40625 
Q 61.53125 10.640625 54.890625 5.3125 
Q 48.25 0 35.984375 0 
L 9.8125 0 
z
" id="DejaVuSans-66"/>
      <path d="M 44.28125 53.078125 
L 44.28125 44.578125 
Q 40.484375 46.53125 36.375 47.5 
Q 32.28125 48.484375 27.875 48.484375 
Q 21.1875 48.484375 17.84375 46.4375 
Q 14.5 44.390625 14.5 40.28125 
Q 14.5 37.15625 16.890625 35.375 
Q 19.28125 33.59375 26.515625 31.984375 
L 29.59375 31.296875 
Q 39.15625 29.25 43.1875 25.515625 
Q 47.21875 21.78125 47.21875 15.09375 
Q 47.21875 7.46875 41.1875 3.015625 
Q 35.15625 -1.421875 24.609375 -1.421875 
Q 20.21875 -1.421875 15.453125 -0.5625 
Q 10.6875 0.296875 5.421875 2 
L 5.421875 11.28125 
Q 10.40625 8.6875 15.234375 7.390625 
Q 20.0625 6.109375 24.8125 6.109375 
Q 31.15625 6.109375 34.5625 8.28125 
Q 37.984375 10.453125 37.984375 14.40625 
Q 37.984375 18.0625 35.515625 20.015625 
Q 33.0625 21.96875 24.703125 23.78125 
L 21.578125 24.515625 
Q 13.234375 26.265625 9.515625 29.90625 
Q 5.8125 33.546875 5.8125 39.890625 
Q 5.8125 47.609375 11.28125 51.796875 
Q 16.75 56 26.8125 56 
Q 31.78125 56 36.171875 55.265625 
Q 40.578125 54.546875 44.28125 53.078125 
z
" id="DejaVuSans-115"/>
      <path d="M 19.671875 64.796875 
L 19.671875 8.109375 
L 31.59375 8.109375 
Q 46.6875 8.109375 53.6875 14.9375 
Q 60.6875 21.78125 60.6875 36.53125 
Q 60.6875 51.171875 53.6875 57.984375 
Q 46.6875 64.796875 31.59375 64.796875 
z
M 9.8125 72.90625 
L 30.078125 72.90625 
Q 51.265625 72.90625 61.171875 64.09375 
Q 71.09375 55.28125 71.09375 36.53125 
Q 71.09375 17.671875 61.125 8.828125 
Q 51.171875 0 30.078125 0 
L 9.8125 0 
z
" id="DejaVuSans-68"/>
      <path d="M 18.3125 70.21875 
L 18.3125 54.6875 
L 36.8125 54.6875 
L 36.8125 47.703125 
L 18.3125 47.703125 
L 18.3125 18.015625 
Q 18.3125 11.328125 20.140625 9.421875 
Q 21.96875 7.515625 27.59375 7.515625 
L 36.8125 7.515625 
L 36.8125 0 
L 27.59375 0 
Q 17.1875 0 13.234375 3.875 
Q 9.28125 7.765625 9.28125 18.015625 
L 9.28125 47.703125 
L 2.6875 47.703125 
L 2.6875 54.6875 
L 9.28125 54.6875 
L 9.28125 70.21875 
z
" id="DejaVuSans-116"/>
      <path d="M 48.6875 27.296875 
Q 48.6875 37.203125 44.609375 42.84375 
Q 40.53125 48.484375 33.40625 48.484375 
Q 26.265625 48.484375 22.1875 42.84375 
Q 18.109375 37.203125 18.109375 27.296875 
Q 18.109375 17.390625 22.1875 11.75 
Q 26.265625 6.109375 33.40625 6.109375 
Q 40.53125 6.109375 44.609375 11.75 
Q 48.6875 17.390625 48.6875 27.296875 
z
M 18.109375 46.390625 
Q 20.953125 51.265625 25.265625 53.625 
Q 29.59375 56 35.59375 56 
Q 45.5625 56 51.78125 48.09375 
Q 58.015625 40.1875 58.015625 27.296875 
Q 58.015625 14.40625 51.78125 6.484375 
Q 45.5625 -1.421875 35.59375 -1.421875 
Q 29.59375 -1.421875 25.265625 0.953125 
Q 20.953125 3.328125 18.109375 8.203125 
L 18.109375 0 
L 9.078125 0 
L 9.078125 75.984375 
L 18.109375 75.984375 
z
" id="DejaVuSans-98"/>
      <path d="M 8.5 21.578125 
L 8.5 54.6875 
L 17.484375 54.6875 
L 17.484375 21.921875 
Q 17.484375 14.15625 20.5 10.265625 
Q 23.53125 6.390625 29.59375 6.390625 
Q 36.859375 6.390625 41.078125 11.03125 
Q 45.3125 15.671875 45.3125 23.6875 
L 45.3125 54.6875 
L 54.296875 54.6875 
L 54.296875 0 
L 45.3125 0 
L 45.3125 8.40625 
Q 42.046875 3.421875 37.71875 1 
Q 33.40625 -1.421875 27.6875 -1.421875 
Q 18.265625 -1.421875 13.375 4.4375 
Q 8.5 10.296875 8.5 21.578125 
z
M 31.109375 56 
z
" id="DejaVuSans-117"/>
      <path d="M 30.609375 48.390625 
Q 23.390625 48.390625 19.1875 42.75 
Q 14.984375 37.109375 14.984375 27.296875 
Q 14.984375 17.484375 19.15625 11.84375 
Q 23.34375 6.203125 30.609375 6.203125 
Q 37.796875 6.203125 41.984375 11.859375 
Q 46.1875 17.53125 46.1875 27.296875 
Q 46.1875 37.015625 41.984375 42.703125 
Q 37.796875 48.390625 30.609375 48.390625 
z
M 30.609375 56 
Q 42.328125 56 49.015625 48.375 
Q 55.71875 40.765625 55.71875 27.296875 
Q 55.71875 13.875 49.015625 6.21875 
Q 42.328125 -1.421875 30.609375 -1.421875 
Q 18.84375 -1.421875 12.171875 6.21875 
Q 5.515625 13.875 5.515625 27.296875 
Q 5.515625 40.765625 12.171875 48.375 
Q 18.84375 56 30.609375 56 
z
" id="DejaVuSans-111"/>
     </defs>
     <use xlink:href="#DejaVuSans-80"/>
     <use x="58.052734" xlink:href="#DejaVuSans-105"/>
     <use x="85.835938" xlink:href="#DejaVuSans-99"/>
     <use x="140.816406" xlink:href="#DejaVuSans-97"/>
     <use x="202.095703" xlink:href="#DejaVuSans-114"/>
     <use x="241.458984" xlink:href="#DejaVuSans-100"/>
     <use x="304.935547" xlink:href="#DejaVuSans-58"/>
     <use x="338.626953" xlink:href="#DejaVuSans-32"/>
     <use x="370.414062" xlink:href="#DejaVuSans-66"/>
     <use x="439.017578" xlink:href="#DejaVuSans-97"/>
     <use x="500.296875" xlink:href="#DejaVuSans-115"/>
     <use x="552.396484" xlink:href="#DejaVuSans-101"/>
     <use x="613.919922" xlink:href="#DejaVuSans-32"/>
     <use x="645.707031" xlink:href="#DejaVuSans-68"/>
     <use x="722.708984" xlink:href="#DejaVuSans-105"/>
     <use x="750.492188" xlink:href="#DejaVuSans-115"/>
     <use x="802.591797" xlink:href="#DejaVuSans-116"/>
     <use x="841.800781" xlink:href="#DejaVuSans-114"/>
     <use x="882.914062" xlink:href="#DejaVuSans-105"/>
     <use x="910.697266" xlink:href="#DejaVuSans-98"/>
     <use x="974.173828" xlink:href="#DejaVuSans-117"/>
     <use x="1037.552734" xlink:href="#DejaVuSans-116"/>
     <use x="1076.761719" xlink:href="#DejaVuSans-105"/>
     <use x="1104.544922" xlink:href="#DejaVuSans-111"/>
     <use x="1165.726562" xlink:href="#DejaVuSans-110"/>
    </g>
   </g>
   <g id="legend_1">
    <g id="line2d_20">
     <path d="M 50.348125 291.525394 
L 66.348125 291.525394 
" style="fill:none;stroke:#7cb5ec;stroke-linecap:square;"/>
    </g>
    <g id="line2d_21"/>
    <g id="text_18">
     <!-- SPT5_INPUT_R1_R1 -->
     <g transform="translate(72.748125 294.325394)scale(0.08 -0.08)">
      <defs>
       <path d="M 53.515625 70.515625 
L 53.515625 60.890625 
Q 47.90625 63.578125 42.921875 64.890625 
Q 37.9375 66.21875 33.296875 66.21875 
Q 25.25 66.21875 20.875 63.09375 
Q 16.5 59.96875 16.5 54.203125 
Q 16.5 49.359375 19.40625 46.890625 
Q 22.3125 44.4375 30.421875 42.921875 
L 36.375 41.703125 
Q 47.40625 39.59375 52.65625 34.296875 
Q 57.90625 29 57.90625 20.125 
Q 57.90625 9.515625 50.796875 4.046875 
Q 43.703125 -1.421875 29.984375 -1.421875 
Q 24.8125 -1.421875 18.96875 -0.25 
Q 13.140625 0.921875 6.890625 3.21875 
L 6.890625 13.375 
Q 12.890625 10.015625 18.65625 8.296875 
Q 24.421875 6.59375 29.984375 6.59375 
Q 38.421875 6.59375 43.015625 9.90625 
Q 47.609375 13.234375 47.609375 19.390625 
Q 47.609375 24.75 44.3125 27.78125 
Q 41.015625 30.8125 33.5 32.328125 
L 27.484375 33.5 
Q 16.453125 35.6875 11.515625 40.375 
Q 6.59375 45.0625 6.59375 53.421875 
Q 6.59375 63.09375 13.40625 68.65625 
Q 20.21875 74.21875 32.171875 74.21875 
Q 37.3125 74.21875 42.625 73.28125 
Q 47.953125 72.359375 53.515625 70.515625 
z
" id="DejaVuSans-83"/>
       <path d="M -0.296875 72.90625 
L 61.375 72.90625 
L 61.375 64.59375 
L 35.5 64.59375 
L 35.5 0 
L 25.59375 0 
L 25.59375 64.59375 
L -0.296875 64.59375 
z
" id="DejaVuSans-84"/>
       <path d="M 50.984375 -16.609375 
L 50.984375 -23.578125 
L -0.984375 -23.578125 
L -0.984375 -16.609375 
z
" id="DejaVuSans-95"/>
       <path d="M 9.8125 72.90625 
L 19.671875 72.90625 
L 19.671875 0 
L 9.8125 0 
z
" id="DejaVuSans-73"/>
       <path d="M 9.8125 72.90625 
L 23.09375 72.90625 
L 55.421875 11.921875 
L 55.421875 72.90625 
L 64.984375 72.90625 
L 64.984375 0 
L 51.703125 0 
L 19.390625 60.984375 
L 19.390625 0 
L 9.8125 0 
z
" id="DejaVuSans-78"/>
       <path d="M 8.6875 72.90625 
L 18.609375 72.90625 
L 18.609375 28.609375 
Q 18.609375 16.890625 22.84375 11.734375 
Q 27.09375 6.59375 36.625 6.59375 
Q 46.09375 6.59375 50.34375 11.734375 
Q 54.59375 16.890625 54.59375 28.609375 
L 54.59375 72.90625 
L 64.5 72.90625 
L 64.5 27.390625 
Q 64.5 13.140625 57.4375 5.859375 
Q 50.390625 -1.421875 36.625 -1.421875 
Q 22.796875 -1.421875 15.734375 5.859375 
Q 8.6875 13.140625 8.6875 27.390625 
z
" id="DejaVuSans-85"/>
       <path d="M 44.390625 34.1875 
Q 47.5625 33.109375 50.5625 29.59375 
Q 53.5625 26.078125 56.59375 19.921875 
L 66.609375 0 
L 56 0 
L 46.6875 18.703125 
Q 43.0625 26.03125 39.671875 28.421875 
Q 36.28125 30.8125 30.421875 30.8125 
L 19.671875 30.8125 
L 19.671875 0 
L 9.8125 0 
L 9.8125 72.90625 
L 32.078125 72.90625 
Q 44.578125 72.90625 50.734375 67.671875 
Q 56.890625 62.453125 56.890625 51.90625 
Q 56.890625 45.015625 53.6875 40.46875 
Q 50.484375 35.9375 44.390625 34.1875 
z
M 19.671875 64.796875 
L 19.671875 38.921875 
L 32.078125 38.921875 
Q 39.203125 38.921875 42.84375 42.21875 
Q 46.484375 45.515625 46.484375 51.90625 
Q 46.484375 58.296875 42.84375 61.546875 
Q 39.203125 64.796875 32.078125 64.796875 
z
" id="DejaVuSans-82"/>
      </defs>
      <use xlink:href="#DejaVuSans-83"/>
      <use x="63.476562" xlink:href="#DejaVuSans-80"/>
      <use x="123.779297" xlink:href="#DejaVuSans-84"/>
      <use x="184.863281" xlink:href="#DejaVuSans-53"/>
      <use x="248.486328" xlink:href="#DejaVuSans-95"/>
      <use x="298.486328" xlink:href="#DejaVuSans-73"/>
      <use x="327.978516" xlink:href="#DejaVuSans-78"/>
      <use x="402.783203" xlink:href="#DejaVuSans-80"/>
      <use x="463.085938" xlink:href="#DejaVuSans-85"/>
      <use x="536.279297" xlink:href="#DejaVuSans-84"/>
      <use x="597.363281" xlink:href="#DejaVuSans-95"/>
      <use x="647.363281" xlink:href="#DejaVuSans-82"/>
      <use x="716.845703" xlink:href="#DejaVuSans-49"/>
      <use x="780.46875" xlink:href="#DejaVuSans-95"/>
      <use x="830.46875" xlink:href="#DejaVuSans-82"/>
      <use x="899.951172" xlink:href="#DejaVuSans-49"/>
     </g>
    </g>
    <g id="line2d_22">
     <path d="M 50.348125 303.490394 
L 66.348125 303.490394 
" style="fill:none;stroke:#434348;stroke-linecap:square;"/>
    </g>
    <g id="line2d_23"/>
    <g id="text_19">
     <!-- SPT5_INPUT_R1_R2 -->
     <g transform="translate(72.748125 306.290394)scale(0.08 -0.08)">
      <use xlink:href="#DejaVuSans-83"/>
      <use x="63.476562" xlink:href="#DejaVuSans-80"/>
      <use x="123.779297" xlink:href="#DejaVuSans-84"/>
      <use x="184.863281" xlink:href="#DejaVuSans-53"/>
      <use x="248.486328" xlink:href="#DejaVuSans-95"/>
      <use x="298.486328" xlink:href="#DejaVuSans-73"/>
      <use x="327.978516" xlink:href="#DejaVuSans-78"/>
      <use x="402.783203" xlink:href="#DejaVuSans-80"/>
      <use x="463.085938" xlink:href="#DejaVuSans-85"/>
      <use x="536.279297" xlink:href="#DejaVuSans-84"/>
      <use x="597.363281" xlink:href="#DejaVuSans-95"/>
      <use x="647.363281" xlink:href="#DejaVuSans-82"/>
      <use x="716.845703" xlink:href="#DejaVuSans-49"/>
      <use x="780.46875" xlink:href="#DejaVuSans-95"/>
      <use x="830.46875" xlink:href="#DejaVuSans-82"/>
      <use x="899.951172" xlink:href="#DejaVuSans-50"/>
     </g>
    </g>
    <g id="line2d_24">
     <path d="M 50.348125 315.455394 
L 66.348125 315.455394 
" style="fill:none;stroke:#90ed7d;stroke-linecap:square;"/>
    </g>
    <g id="line2d_25"/>
    <g id="text_20">
     <!-- SPT5_INPUT_R2_R1 -->
     <g transform="translate(72.748125 318.255394)scale(0.08 -0.08)">
      <use xlink:href="#DejaVuSans-83"/>
      <use x="63.476562" xlink:href="#DejaVuSans-80"/>
      <use x="123.779297" xlink:href="#DejaVuSans-84"/>
      <use x="184.863281" xlink:href="#DejaVuSans-53"/>
      <use x="248.486328" xlink:href="#DejaVuSans-95"/>
      <use x="298.486328" xlink:href="#DejaVuSans-73"/>
      <use x="327.978516" xlink:href="#DejaVuSans-78"/>
      <use x="402.783203" xlink:href="#DejaVuSans-80"/>
      <use x="463.085938" xlink:href="#DejaVuSans-85"/>
      <use x="536.279297" xlink:href="#DejaVuSans-84"/>
      <use x="597.363281" xlink:href="#DejaVuSans-95"/>
      <use x="647.363281" xlink:href="#DejaVuSans-82"/>
      <use x="716.845703" xlink:href="#DejaVuSans-50"/>
      <use x="780.46875" xlink:href="#DejaVuSans-95"/>
      <use x="830.46875" xlink:href="#DejaVuSans-82"/>
      <use x="899.951172" xlink:href="#DejaVuSans-49"/>
     </g>
    </g>
    <g id="line2d_26">
     <path d="M 267.264375 291.525394 
L 283.264375 291.525394 
" style="fill:none;stroke:#f7a35c;stroke-linecap:square;"/>
    </g>
    <g id="line2d_27"/>
    <g id="text_21">
     <!-- SPT5_INPUT_R2_R2 -->
     <g transform="translate(289.664375 294.325394)scale(0.08 -0.08)">
      <use xlink:href="#DejaVuSans-83"/>
      <use x="63.476562" xlink:href="#DejaVuSans-80"/>
      <use x="123.779297" xlink:href="#DejaVuSans-84"/>
      <use x="184.863281" xlink:href="#DejaVuSans-53"/>
      <use x="248.486328" xlink:href="#DejaVuSans-95"/>
      <use x="298.486328" xlink:href="#DejaVuSans-73"/>
      <use x="327.978516" xlink:href="#DejaVuSans-78"/>
      <use x="402.783203" xlink:href="#DejaVuSans-80"/>
      <use x="463.085938" xlink:href="#DejaVuSans-85"/>
      <use x="536.279297" xlink:href="#DejaVuSans-84"/>
      <use x="597.363281" xlink:href="#DejaVuSans-95"/>
      <use x="647.363281" xlink:href="#DejaVuSans-82"/>
      <use x="716.845703" xlink:href="#DejaVuSans-50"/>
      <use x="780.46875" xlink:href="#DejaVuSans-95"/>
      <use x="830.46875" xlink:href="#DejaVuSans-82"/>
      <use x="899.951172" xlink:href="#DejaVuSans-50"/>
     </g>
    </g>
    <g id="line2d_28">
     <path d="M 267.264375 303.490394 
L 283.264375 303.490394 
" style="fill:none;stroke:#8085e9;stroke-linecap:square;"/>
    </g>
    <g id="line2d_29"/>
    <g id="text_22">
     <!-- SPT5_T0_R1_R1 -->
     <g transform="translate(289.664375 306.290394)scale(0.08 -0.08)">
      <use xlink:href="#DejaVuSans-83"/>
      <use x="63.476562" xlink:href="#DejaVuSans-80"/>
      <use x="123.779297" xlink:href="#DejaVuSans-84"/>
      <use x="184.863281" xlink:href="#DejaVuSans-53"/>
      <use x="248.486328" xlink:href="#DejaVuSans-95"/>
      <use x="298.486328" xlink:href="#DejaVuSans-84"/>
      <use x="359.570312" xlink:href="#DejaVuSans-48"/>
      <use x="423.193359" xlink:href="#DejaVuSans-95"/>
      <use x="473.193359" xlink:href="#DejaVuSans-82"/>
      <use x="542.675781" xlink:href="#DejaVuSans-49"/>
      <use x="606.298828" xlink:href="#DejaVuSans-95"/>
      <use x="656.298828" xlink:href="#DejaVuSans-82"/>
      <use x="725.78125" xlink:href="#DejaVuSans-49"/>
     </g>
    </g>
    <g id="line2d_30">
     <path d="M 267.264375 315.455394 
L 283.264375 315.455394 
" style="fill:none;stroke:#f15c80;stroke-linecap:square;"/>
    </g>
    <g id="line2d_31"/>
    <g id="text_23">
     <!-- SPT5_T0_R1_R2 -->
     <g transform="translate(289.664375 318.255394)scale(0.08 -0.08)">
      <use xlink:href="#DejaVuSans-83"/>
      <use x="63.476562" xlink:href="#DejaVuSans-80"/>
      <use x="123.779297" xlink:href="#DejaVuSans-84"/>
      <use x="184.863281" xlink:href="#DejaVuSans-53"/>
      <use x="248.486328" xlink:href="#DejaVuSans-95"/>
      <use x="298.486328" xlink:href="#DejaVuSans-84"/>
      <use x="359.570312" xlink:href="#DejaVuSans-48"/>
      <use x="423.193359" xlink:href="#DejaVuSans-95"/>
      <use x="473.193359" xlink:href="#DejaVuSans-82"/>
      <use x="542.675781" xlink:href="#DejaVuSans-49"/>
      <use x="606.298828" xlink:href="#DejaVuSans-95"/>
      <use x="656.298828" xlink:href="#DejaVuSans-82"/>
      <use x="725.78125" xlink:href="#DejaVuSans-50"/>
     </g>
    </g>
    <g id="line2d_32">
     <path d="M 484.180625 291.525394 
L 500.180625 291.525394 
" style="fill:none;stroke:#e4d354;stroke-linecap:square;"/>
    </g>
    <g id="line2d_33"/>
    <g id="text_24">
     <!-- SPT5_T0_R2_R1 -->
     <g transform="translate(506.580625 294.325394)scale(0.08 -0.08)">
      <use xlink:href="#DejaVuSans-83"/>
      <use x="63.476562" xlink:href="#DejaVuSans-80"/>
      <use x="123.779297" xlink:href="#DejaVuSans-84"/>
      <use x="184.863281" xlink:href="#DejaVuSans-53"/>
      <use x="248.486328" xlink:href="#DejaVuSans-95"/>
      <use x="298.486328" xlink:href="#DejaVuSans-84"/>
      <use x="359.570312" xlink:href="#DejaVuSans-48"/>
      <use x="423.193359" xlink:href="#DejaVuSans-95"/>
      <use x="473.193359" xlink:href="#DejaVuSans-82"/>
      <use x="542.675781" xlink:href="#DejaVuSans-50"/>
      <use x="606.298828" xlink:href="#DejaVuSans-95"/>
      <use x="656.298828" xlink:href="#DejaVuSans-82"/>
      <use x="725.78125" xlink:href="#DejaVuSans-49"/>
     </g>
    </g>
    <g id="line2d_34">
     <path d="M 484.180625 303.490394 
L 500.180625 303.490394 
" style="fill:none;stroke:#2b908f;stroke-linecap:square;"/>
    </g>
    <g id="line2d_35"/>
    <g id="text_25">
     <!-- SPT5_T0_R2_R2 -->
     <g transform="translate(506.580625 306.290394)scale(0.08 -0.08)">
      <use xlink:href="#DejaVuSans-83"/>
      <use x="63.476562" xlink:href="#DejaVuSans-80"/>
      <use x="123.779297" xlink:href="#DejaVuSans-84"/>
      <use x="184.863281" xlink:href="#DejaVuSans-53"/>
      <use x="248.486328" xlink:href="#DejaVuSans-95"/>
      <use x="298.486328" xlink:href="#DejaVuSans-84"/>
      <use x="359.570312" xlink:href="#DejaVuSans-48"/>
      <use x="423.193359" xlink:href="#DejaVuSans-95"/>
      <use x="473.193359" xlink:href="#DejaVuSans-82"/>
      <use x="542.675781" xlink:href="#DejaVuSans-50"/>
      <use x="606.298828" xlink:href="#DejaVuSans-95"/>
      <use x="656.298828" xlink:href="#DejaVuSans-82"/>
      <use x="725.78125" xlink:href="#DejaVuSans-50"/>
     </g>
    </g>
    <g id="line2d_36">
     <path d="M 687.163125 291.525394 
L 703.163125 291.525394 
" style="fill:none;stroke:#f45b5b;stroke-linecap:square;"/>
    </g>
    <g id="line2d_37"/>
    <g id="text_26">
     <!-- SPT5_T15_R1_R1 -->
     <g transform="translate(709.563125 294.325394)scale(0.08 -0.08)">
      <use xlink:href="#DejaVuSans-83"/>
      <use x="63.476562" xlink:href="#DejaVuSans-80"/>
      <use x="123.779297" xlink:href="#DejaVuSans-84"/>
      <use x="184.863281" xlink:href="#DejaVuSans-53"/>
      <use x="248.486328" xlink:href="#DejaVuSans-95"/>
      <use x="298.486328" xlink:href="#DejaVuSans-84"/>
      <use x="359.570312" xlink:href="#DejaVuSans-49"/>
      <use x="423.193359" xlink:href="#DejaVuSans-53"/>
      <use x="486.816406" xlink:href="#DejaVuSans-95"/>
      <use x="536.816406" xlink:href="#DejaVuSans-82"/>
      <use x="606.298828" xlink:href="#DejaVuSans-49"/>
      <use x="669.921875" xlink:href="#DejaVuSans-95"/>
      <use x="719.921875" xlink:href="#DejaVuSans-82"/>
      <use x="789.404297" xlink:href="#DejaVuSans-49"/>
     </g>
    </g>
    <g id="line2d_38">
     <path d="M 687.163125 303.490394 
L 703.163125 303.490394 
" style="fill:none;stroke:#91e8e1;stroke-linecap:square;"/>
    </g>
    <g id="line2d_39"/>
    <g id="text_27">
     <!-- SPT5_T15_R1_R2 -->
     <g transform="translate(709.563125 306.290394)scale(0.08 -0.08)">
      <use xlink:href="#DejaVuSans-83"/>
      <use x="63.476562" xlink:href="#DejaVuSans-80"/>
      <use x="123.779297" xlink:href="#DejaVuSans-84"/>
      <use x="184.863281" xlink:href="#DejaVuSans-53"/>
      <use x="248.486328" xlink:href="#DejaVuSans-95"/>
      <use x="298.486328" xlink:href="#DejaVuSans-84"/>
      <use x="359.570312" xlink:href="#DejaVuSans-49"/>
      <use x="423.193359" xlink:href="#DejaVuSans-53"/>
      <use x="486.816406" xlink:href="#DejaVuSans-95"/>
      <use x="536.816406" xlink:href="#DejaVuSans-82"/>
      <use x="606.298828" xlink:href="#DejaVuSans-49"/>
      <use x="669.921875" xlink:href="#DejaVuSans-95"/>
      <use x="719.921875" xlink:href="#DejaVuSans-82"/>
      <use x="789.404297" xlink:href="#DejaVuSans-50"/>
     </g>
    </g>
    <g id="line2d_40">
     <path d="M 895.235625 291.525394 
L 911.235625 291.525394 
" style="fill:none;stroke:#7cb5ec;stroke-linecap:square;"/>
    </g>
    <g id="line2d_41"/>
    <g id="text_28">
     <!-- SPT5_T15_R2_R1 -->
     <g transform="translate(917.635625 294.325394)scale(0.08 -0.08)">
      <use xlink:href="#DejaVuSans-83"/>
      <use x="63.476562" xlink:href="#DejaVuSans-80"/>
      <use x="123.779297" xlink:href="#DejaVuSans-84"/>
      <use x="184.863281" xlink:href="#DejaVuSans-53"/>
      <use x="248.486328" xlink:href="#DejaVuSans-95"/>
      <use x="298.486328" xlink:href="#DejaVuSans-84"/>
      <use x="359.570312" xlink:href="#DejaVuSans-49"/>
      <use x="423.193359" xlink:href="#DejaVuSans-53"/>
      <use x="486.816406" xlink:href="#DejaVuSans-95"/>
      <use x="536.816406" xlink:href="#DejaVuSans-82"/>
      <use x="606.298828" xlink:href="#DejaVuSans-50"/>
      <use x="669.921875" xlink:href="#DejaVuSans-95"/>
      <use x="719.921875" xlink:href="#DejaVuSans-82"/>
      <use x="789.404297" xlink:href="#DejaVuSans-49"/>
     </g>
    </g>
    <g id="line2d_42">
     <path d="M 895.235625 303.490394 
L 911.235625 303.490394 
" style="fill:none;stroke:#434348;stroke-linecap:square;"/>
    </g>
    <g id="line2d_43"/>
    <g id="text_29">
     <!-- SPT5_T15_R2_R2 -->
     <g transform="translate(917.635625 306.290394)scale(0.08 -0.08)">
      <use xlink:href="#DejaVuSans-83"/>
      <use x="63.476562" xlink:href="#DejaVuSans-80"/>
      <use x="123.779297" xlink:href="#DejaVuSans-84"/>
      <use x="184.863281" xlink:href="#DejaVuSans-53"/>
      <use x="248.486328" xlink:href="#DejaVuSans-95"/>
      <use x="298.486328" xlink:href="#DejaVuSans-84"/>
      <use x="359.570312" xlink:href="#DejaVuSans-49"/>
      <use x="423.193359" xlink:href="#DejaVuSans-53"/>
      <use x="486.816406" xlink:href="#DejaVuSans-95"/>
      <use x="536.816406" xlink:href="#DejaVuSans-82"/>
      <use x="606.298828" xlink:href="#DejaVuSans-50"/>
      <use x="669.921875" xlink:href="#DejaVuSans-95"/>
      <use x="719.921875" xlink:href="#DejaVuSans-82"/>
      <use x="789.404297" xlink:href="#DejaVuSans-50"/>
     </g>
    </g>
   </g>
  </g>
 </g>
 <defs>
  <clipPath id="pf753268f9b">
   <rect height="242.5072" width="949.93" x="43.148125" y="31.48286"/>
  </clipPath>
 </defs>
</svg>
