<?xml version="1.0" encoding="utf-8" standalone="no"?>
<!DOCTYPE svg PUBLIC "-//W3C//DTD SVG 1.1//EN"
  "http://www.w3.org/Graphics/SVG/1.1/DTD/svg11.dtd">
<!-- Created with matplotlib (https://matplotlib.org/) -->
<svg height="330.541644pt" version="1.1" viewBox="0 0 1000.278125 330.541644" width="1000.278125pt" xmlns="http://www.w3.org/2000/svg" xmlns:xlink="http://www.w3.org/1999/xlink">
 <metadata>
  <rdf:RDF xmlns:cc="http://creativecommons.org/ns#" xmlns:dc="http://purl.org/dc/elements/1.1/" xmlns:rdf="http://www.w3.org/1999/02/22-rdf-syntax-ns#">
   <cc:Work>
    <dc:type rdf:resource="http://purl.org/dc/dcmitype/StillImage"/>
    <dc:date>2021-01-29T20:16:29.464351</dc:date>
    <dc:format>image/svg+xml</dc:format>
    <dc:creator>
     <cc:Agent>
      <dc:title>Matplotlib v3.3.0, https://matplotlib.org/</dc:title>
     </cc:Agent>
    </dc:creator>
   </cc:Work>
  </rdf:RDF>
 </metadata>
 <defs>
  <style type="text/css">*{stroke-linecap:butt;stroke-linejoin:round;}</style>
 </defs>
 <g id="figure_1">
  <g id="axes_1">
   <g id="patch_1">
    <path d="M 43.148125 273.99006 
L 993.078125 273.99006 
L 993.078125 31.48286 
L 43.148125 31.48286 
z
" style="fill:#ffffff;"/>
   </g>
   <g id="matplotlib.axis_1">
    <g id="xtick_1">
     <g id="text_1">
      <!-- 0 -->
      <g transform="translate(72.267458 287.06881)scale(0.08 -0.08)">
       <defs>
        <path d="M 31.78125 66.40625 
Q 24.171875 66.40625 20.328125 58.90625 
Q 16.5 51.421875 16.5 36.375 
Q 16.5 21.390625 20.328125 13.890625 
Q 24.171875 6.390625 31.78125 6.390625 
Q 39.453125 6.390625 43.28125 13.890625 
Q 47.125 21.390625 47.125 36.375 
Q 47.125 51.421875 43.28125 58.90625 
Q 39.453125 66.40625 31.78125 66.40625 
z
M 31.78125 74.21875 
Q 44.046875 74.21875 50.515625 64.515625 
Q 56.984375 54.828125 56.984375 36.375 
Q 56.984375 17.96875 50.515625 8.265625 
Q 44.046875 -1.421875 31.78125 -1.421875 
Q 19.53125 -1.421875 13.0625 8.265625 
Q 6.59375 17.96875 6.59375 36.375 
Q 6.59375 54.828125 13.0625 64.515625 
Q 19.53125 74.21875 31.78125 74.21875 
z
" id="DejaVuSans-48"/>
       </defs>
       <use xlink:href="#DejaVuSans-48"/>
      </g>
     </g>
    </g>
    <g id="xtick_2">
     <g id="text_2">
      <!-- 10 -->
      <g transform="translate(184.865489 287.06881)scale(0.08 -0.08)">
       <defs>
        <path d="M 12.40625 8.296875 
L 28.515625 8.296875 
L 28.515625 63.921875 
L 10.984375 60.40625 
L 10.984375 69.390625 
L 28.421875 72.90625 
L 38.28125 72.90625 
L 38.28125 8.296875 
L 54.390625 8.296875 
L 54.390625 0 
L 12.40625 0 
z
" id="DejaVuSans-49"/>
       </defs>
       <use xlink:href="#DejaVuSans-49"/>
       <use x="63.623047" xlink:href="#DejaVuSans-48"/>
      </g>
     </g>
    </g>
    <g id="xtick_3">
     <g id="text_3">
      <!-- 20 -->
      <g transform="translate(300.008519 287.06881)scale(0.08 -0.08)">
       <defs>
        <path d="M 19.1875 8.296875 
L 53.609375 8.296875 
L 53.609375 0 
L 7.328125 0 
L 7.328125 8.296875 
Q 12.9375 14.109375 22.625 23.890625 
Q 32.328125 33.6875 34.8125 36.53125 
Q 39.546875 41.84375 41.421875 45.53125 
Q 43.3125 49.21875 43.3125 52.78125 
Q 43.3125 58.59375 39.234375 62.25 
Q 35.15625 65.921875 28.609375 65.921875 
Q 23.96875 65.921875 18.8125 64.3125 
Q 13.671875 62.703125 7.8125 59.421875 
L 7.8125 69.390625 
Q 13.765625 71.78125 18.9375 73 
Q 24.125 74.21875 28.421875 74.21875 
Q 39.75 74.21875 46.484375 68.546875 
Q 53.21875 62.890625 53.21875 53.421875 
Q 53.21875 48.921875 51.53125 44.890625 
Q 49.859375 40.875 45.40625 35.40625 
Q 44.1875 33.984375 37.640625 27.21875 
Q 31.109375 20.453125 19.1875 8.296875 
z
" id="DejaVuSans-50"/>
       </defs>
       <use xlink:href="#DejaVuSans-50"/>
       <use x="63.623047" xlink:href="#DejaVuSans-48"/>
      </g>
     </g>
    </g>
    <g id="xtick_4">
     <g id="text_4">
      <!-- 30 -->
      <g transform="translate(415.151549 287.06881)scale(0.08 -0.08)">
       <defs>
        <path d="M 40.578125 39.3125 
Q 47.65625 37.796875 51.625 33 
Q 55.609375 28.21875 55.609375 21.1875 
Q 55.609375 10.40625 48.1875 4.484375 
Q 40.765625 -1.421875 27.09375 -1.421875 
Q 22.515625 -1.421875 17.65625 -0.515625 
Q 12.796875 0.390625 7.625 2.203125 
L 7.625 11.71875 
Q 11.71875 9.328125 16.59375 8.109375 
Q 21.484375 6.890625 26.8125 6.890625 
Q 36.078125 6.890625 40.9375 10.546875 
Q 45.796875 14.203125 45.796875 21.1875 
Q 45.796875 27.640625 41.28125 31.265625 
Q 36.765625 34.90625 28.71875 34.90625 
L 20.21875 34.90625 
L 20.21875 43.015625 
L 29.109375 43.015625 
Q 36.375 43.015625 40.234375 45.921875 
Q 44.09375 48.828125 44.09375 54.296875 
Q 44.09375 59.90625 40.109375 62.90625 
Q 36.140625 65.921875 28.71875 65.921875 
Q 24.65625 65.921875 20.015625 65.03125 
Q 15.375 64.15625 9.8125 62.3125 
L 9.8125 71.09375 
Q 15.4375 72.65625 20.34375 73.4375 
Q 25.25 74.21875 29.59375 74.21875 
Q 40.828125 74.21875 47.359375 69.109375 
Q 53.90625 64.015625 53.90625 55.328125 
Q 53.90625 49.265625 50.4375 45.09375 
Q 46.96875 40.921875 40.578125 39.3125 
z
" id="DejaVuSans-51"/>
       </defs>
       <use xlink:href="#DejaVuSans-51"/>
       <use x="63.623047" xlink:href="#DejaVuSans-48"/>
      </g>
     </g>
    </g>
    <g id="xtick_5">
     <g id="text_5">
      <!-- 40 -->
      <g transform="translate(530.29458 287.06881)scale(0.08 -0.08)">
       <defs>
        <path d="M 37.796875 64.3125 
L 12.890625 25.390625 
L 37.796875 25.390625 
z
M 35.203125 72.90625 
L 47.609375 72.90625 
L 47.609375 25.390625 
L 58.015625 25.390625 
L 58.015625 17.1875 
L 47.609375 17.1875 
L 47.609375 0 
L 37.796875 0 
L 37.796875 17.1875 
L 4.890625 17.1875 
L 4.890625 26.703125 
z
" id="DejaVuSans-52"/>
       </defs>
       <use xlink:href="#DejaVuSans-52"/>
       <use x="63.623047" xlink:href="#DejaVuSans-48"/>
      </g>
     </g>
    </g>
    <g id="xtick_6">
     <g id="text_6">
      <!-- 50 -->
      <g transform="translate(645.43761 287.06881)scale(0.08 -0.08)">
       <defs>
        <path d="M 10.796875 72.90625 
L 49.515625 72.90625 
L 49.515625 64.59375 
L 19.828125 64.59375 
L 19.828125 46.734375 
Q 21.96875 47.46875 24.109375 47.828125 
Q 26.265625 48.1875 28.421875 48.1875 
Q 40.625 48.1875 47.75 41.5 
Q 54.890625 34.8125 54.890625 23.390625 
Q 54.890625 11.625 47.5625 5.09375 
Q 40.234375 -1.421875 26.90625 -1.421875 
Q 22.3125 -1.421875 17.546875 -0.640625 
Q 12.796875 0.140625 7.71875 1.703125 
L 7.71875 11.625 
Q 12.109375 9.234375 16.796875 8.0625 
Q 21.484375 6.890625 26.703125 6.890625 
Q 35.15625 6.890625 40.078125 11.328125 
Q 45.015625 15.765625 45.015625 23.390625 
Q 45.015625 31 40.078125 35.4375 
Q 35.15625 39.890625 26.703125 39.890625 
Q 22.75 39.890625 18.8125 39.015625 
Q 14.890625 38.140625 10.796875 36.28125 
z
" id="DejaVuSans-53"/>
       </defs>
       <use xlink:href="#DejaVuSans-53"/>
       <use x="63.623047" xlink:href="#DejaVuSans-48"/>
      </g>
     </g>
    </g>
    <g id="xtick_7">
     <g id="text_7">
      <!-- 60 -->
      <g transform="translate(760.58064 287.06881)scale(0.08 -0.08)">
       <defs>
        <path d="M 33.015625 40.375 
Q 26.375 40.375 22.484375 35.828125 
Q 18.609375 31.296875 18.609375 23.390625 
Q 18.609375 15.53125 22.484375 10.953125 
Q 26.375 6.390625 33.015625 6.390625 
Q 39.65625 6.390625 43.53125 10.953125 
Q 47.40625 15.53125 47.40625 23.390625 
Q 47.40625 31.296875 43.53125 35.828125 
Q 39.65625 40.375 33.015625 40.375 
z
M 52.59375 71.296875 
L 52.59375 62.3125 
Q 48.875 64.0625 45.09375 64.984375 
Q 41.3125 65.921875 37.59375 65.921875 
Q 27.828125 65.921875 22.671875 59.328125 
Q 17.53125 52.734375 16.796875 39.40625 
Q 19.671875 43.65625 24.015625 45.921875 
Q 28.375 48.1875 33.59375 48.1875 
Q 44.578125 48.1875 50.953125 41.515625 
Q 57.328125 34.859375 57.328125 23.390625 
Q 57.328125 12.15625 50.6875 5.359375 
Q 44.046875 -1.421875 33.015625 -1.421875 
Q 20.359375 -1.421875 13.671875 8.265625 
Q 6.984375 17.96875 6.984375 36.375 
Q 6.984375 53.65625 15.1875 63.9375 
Q 23.390625 74.21875 37.203125 74.21875 
Q 40.921875 74.21875 44.703125 73.484375 
Q 48.484375 72.75 52.59375 71.296875 
z
" id="DejaVuSans-54"/>
       </defs>
       <use xlink:href="#DejaVuSans-54"/>
       <use x="63.623047" xlink:href="#DejaVuSans-48"/>
      </g>
     </g>
    </g>
    <g id="xtick_8">
     <g id="text_8">
      <!-- 70 -->
      <g transform="translate(875.72367 287.06881)scale(0.08 -0.08)">
       <defs>
        <path d="M 8.203125 72.90625 
L 55.078125 72.90625 
L 55.078125 68.703125 
L 28.609375 0 
L 18.3125 0 
L 43.21875 64.59375 
L 8.203125 64.59375 
z
" id="DejaVuSans-55"/>
       </defs>
       <use xlink:href="#DejaVuSans-55"/>
       <use x="63.623047" xlink:href="#DejaVuSans-48"/>
      </g>
     </g>
    </g>
    <g id="text_9">
     <!-- Cycle # -->
     <g transform="translate(498.668594 300.330997)scale(0.1 -0.1)">
      <defs>
       <path d="M 64.40625 67.28125 
L 64.40625 56.890625 
Q 59.421875 61.53125 53.78125 63.8125 
Q 48.140625 66.109375 41.796875 66.109375 
Q 29.296875 66.109375 22.65625 58.46875 
Q 16.015625 50.828125 16.015625 36.375 
Q 16.015625 21.96875 22.65625 14.328125 
Q 29.296875 6.6875 41.796875 6.6875 
Q 48.140625 6.6875 53.78125 8.984375 
Q 59.421875 11.28125 64.40625 15.921875 
L 64.40625 5.609375 
Q 59.234375 2.09375 53.4375 0.328125 
Q 47.65625 -1.421875 41.21875 -1.421875 
Q 24.65625 -1.421875 15.125 8.703125 
Q 5.609375 18.84375 5.609375 36.375 
Q 5.609375 53.953125 15.125 64.078125 
Q 24.65625 74.21875 41.21875 74.21875 
Q 47.75 74.21875 53.53125 72.484375 
Q 59.328125 70.75 64.40625 67.28125 
z
" id="DejaVuSans-67"/>
       <path d="M 32.171875 -5.078125 
Q 28.375 -14.84375 24.75 -17.8125 
Q 21.140625 -20.796875 15.09375 -20.796875 
L 7.90625 -20.796875 
L 7.90625 -13.28125 
L 13.1875 -13.28125 
Q 16.890625 -13.28125 18.9375 -11.515625 
Q 21 -9.765625 23.484375 -3.21875 
L 25.09375 0.875 
L 2.984375 54.6875 
L 12.5 54.6875 
L 29.59375 11.921875 
L 46.6875 54.6875 
L 56.203125 54.6875 
z
" id="DejaVuSans-121"/>
       <path d="M 48.78125 52.59375 
L 48.78125 44.1875 
Q 44.96875 46.296875 41.140625 47.34375 
Q 37.3125 48.390625 33.40625 48.390625 
Q 24.65625 48.390625 19.8125 42.84375 
Q 14.984375 37.3125 14.984375 27.296875 
Q 14.984375 17.28125 19.8125 11.734375 
Q 24.65625 6.203125 33.40625 6.203125 
Q 37.3125 6.203125 41.140625 7.25 
Q 44.96875 8.296875 48.78125 10.40625 
L 48.78125 2.09375 
Q 45.015625 0.34375 40.984375 -0.53125 
Q 36.96875 -1.421875 32.421875 -1.421875 
Q 20.0625 -1.421875 12.78125 6.34375 
Q 5.515625 14.109375 5.515625 27.296875 
Q 5.515625 40.671875 12.859375 48.328125 
Q 20.21875 56 33.015625 56 
Q 37.15625 56 41.109375 55.140625 
Q 45.0625 54.296875 48.78125 52.59375 
z
" id="DejaVuSans-99"/>
       <path d="M 9.421875 75.984375 
L 18.40625 75.984375 
L 18.40625 0 
L 9.421875 0 
z
" id="DejaVuSans-108"/>
       <path d="M 56.203125 29.59375 
L 56.203125 25.203125 
L 14.890625 25.203125 
Q 15.484375 15.921875 20.484375 11.0625 
Q 25.484375 6.203125 34.421875 6.203125 
Q 39.59375 6.203125 44.453125 7.46875 
Q 49.3125 8.734375 54.109375 11.28125 
L 54.109375 2.78125 
Q 49.265625 0.734375 44.1875 -0.34375 
Q 39.109375 -1.421875 33.890625 -1.421875 
Q 20.796875 -1.421875 13.15625 6.1875 
Q 5.515625 13.8125 5.515625 26.8125 
Q 5.515625 40.234375 12.765625 48.109375 
Q 20.015625 56 32.328125 56 
Q 43.359375 56 49.78125 48.890625 
Q 56.203125 41.796875 56.203125 29.59375 
z
M 47.21875 32.234375 
Q 47.125 39.59375 43.09375 43.984375 
Q 39.0625 48.390625 32.421875 48.390625 
Q 24.90625 48.390625 20.390625 44.140625 
Q 15.875 39.890625 15.1875 32.171875 
z
" id="DejaVuSans-101"/>
       <path id="DejaVuSans-32"/>
       <path d="M 51.125 44 
L 36.921875 44 
L 32.8125 27.6875 
L 47.125 27.6875 
z
M 43.796875 71.78125 
L 38.71875 51.515625 
L 52.984375 51.515625 
L 58.109375 71.78125 
L 65.921875 71.78125 
L 60.890625 51.515625 
L 76.125 51.515625 
L 76.125 44 
L 58.984375 44 
L 54.984375 27.6875 
L 70.515625 27.6875 
L 70.515625 20.21875 
L 53.078125 20.21875 
L 48 0 
L 40.1875 0 
L 45.21875 20.21875 
L 30.90625 20.21875 
L 25.875 0 
L 18.015625 0 
L 23.09375 20.21875 
L 7.71875 20.21875 
L 7.71875 27.6875 
L 24.90625 27.6875 
L 29 44 
L 13.28125 44 
L 13.28125 51.515625 
L 30.90625 51.515625 
L 35.890625 71.78125 
z
" id="DejaVuSans-35"/>
      </defs>
      <use xlink:href="#DejaVuSans-67"/>
      <use x="69.824219" xlink:href="#DejaVuSans-121"/>
      <use x="129.003906" xlink:href="#DejaVuSans-99"/>
      <use x="183.984375" xlink:href="#DejaVuSans-108"/>
      <use x="211.767578" xlink:href="#DejaVuSans-101"/>
      <use x="273.291016" xlink:href="#DejaVuSans-32"/>
      <use x="305.078125" xlink:href="#DejaVuSans-35"/>
     </g>
    </g>
   </g>
   <g id="matplotlib.axis_2">
    <g id="ytick_1">
     <g id="line2d_1">
      <path clip-path="url(#pad9643b1db)" d="M 43.148125 273.99006 
L 993.078125 273.99006 
" style="fill:none;stroke:#dedede;stroke-linecap:square;"/>
     </g>
     <g id="text_10">
      <!-- 0 -->
      <g transform="translate(31.058125 277.029435)scale(0.08 -0.08)">
       <use xlink:href="#DejaVuSans-48"/>
      </g>
     </g>
    </g>
    <g id="ytick_2">
     <g id="line2d_2">
      <path clip-path="url(#pad9643b1db)" d="M 43.148125 225.48862 
L 993.078125 225.48862 
" style="fill:none;stroke:#dedede;stroke-linecap:square;"/>
     </g>
     <g id="text_11">
      <!-- 20 -->
      <g transform="translate(25.968125 228.527995)scale(0.08 -0.08)">
       <use xlink:href="#DejaVuSans-50"/>
       <use x="63.623047" xlink:href="#DejaVuSans-48"/>
      </g>
     </g>
    </g>
    <g id="ytick_3">
     <g id="line2d_3">
      <path clip-path="url(#pad9643b1db)" d="M 43.148125 176.98718 
L 993.078125 176.98718 
" style="fill:none;stroke:#dedede;stroke-linecap:square;"/>
     </g>
     <g id="text_12">
      <!-- 40 -->
      <g transform="translate(25.968125 180.026555)scale(0.08 -0.08)">
       <use xlink:href="#DejaVuSans-52"/>
       <use x="63.623047" xlink:href="#DejaVuSans-48"/>
      </g>
     </g>
    </g>
    <g id="ytick_4">
     <g id="line2d_4">
      <path clip-path="url(#pad9643b1db)" d="M 43.148125 128.48574 
L 993.078125 128.48574 
" style="fill:none;stroke:#dedede;stroke-linecap:square;"/>
     </g>
     <g id="text_13">
      <!-- 60 -->
      <g transform="translate(25.968125 131.525115)scale(0.08 -0.08)">
       <use xlink:href="#DejaVuSans-54"/>
       <use x="63.623047" xlink:href="#DejaVuSans-48"/>
      </g>
     </g>
    </g>
    <g id="ytick_5">
     <g id="line2d_5">
      <path clip-path="url(#pad9643b1db)" d="M 43.148125 79.9843 
L 993.078125 79.9843 
" style="fill:none;stroke:#dedede;stroke-linecap:square;"/>
     </g>
     <g id="text_14">
      <!-- 80 -->
      <g transform="translate(25.968125 83.023675)scale(0.08 -0.08)">
       <defs>
        <path d="M 31.78125 34.625 
Q 24.75 34.625 20.71875 30.859375 
Q 16.703125 27.09375 16.703125 20.515625 
Q 16.703125 13.921875 20.71875 10.15625 
Q 24.75 6.390625 31.78125 6.390625 
Q 38.8125 6.390625 42.859375 10.171875 
Q 46.921875 13.96875 46.921875 20.515625 
Q 46.921875 27.09375 42.890625 30.859375 
Q 38.875 34.625 31.78125 34.625 
z
M 21.921875 38.8125 
Q 15.578125 40.375 12.03125 44.71875 
Q 8.5 49.078125 8.5 55.328125 
Q 8.5 64.0625 14.71875 69.140625 
Q 20.953125 74.21875 31.78125 74.21875 
Q 42.671875 74.21875 48.875 69.140625 
Q 55.078125 64.0625 55.078125 55.328125 
Q 55.078125 49.078125 51.53125 44.71875 
Q 48 40.375 41.703125 38.8125 
Q 48.828125 37.15625 52.796875 32.3125 
Q 56.78125 27.484375 56.78125 20.515625 
Q 56.78125 9.90625 50.3125 4.234375 
Q 43.84375 -1.421875 31.78125 -1.421875 
Q 19.734375 -1.421875 13.25 4.234375 
Q 6.78125 9.90625 6.78125 20.515625 
Q 6.78125 27.484375 10.78125 32.3125 
Q 14.796875 37.15625 21.921875 38.8125 
z
M 18.3125 54.390625 
Q 18.3125 48.734375 21.84375 45.5625 
Q 25.390625 42.390625 31.78125 42.390625 
Q 38.140625 42.390625 41.71875 45.5625 
Q 45.3125 48.734375 45.3125 54.390625 
Q 45.3125 60.0625 41.71875 63.234375 
Q 38.140625 66.40625 31.78125 66.40625 
Q 25.390625 66.40625 21.84375 63.234375 
Q 18.3125 60.0625 18.3125 54.390625 
z
" id="DejaVuSans-56"/>
       </defs>
       <use xlink:href="#DejaVuSans-56"/>
       <use x="63.623047" xlink:href="#DejaVuSans-48"/>
      </g>
     </g>
    </g>
    <g id="ytick_6">
     <g id="line2d_6">
      <path clip-path="url(#pad9643b1db)" d="M 43.148125 31.48286 
L 993.078125 31.48286 
" style="fill:none;stroke:#dedede;stroke-linecap:square;"/>
     </g>
     <g id="text_15">
      <!-- 100 -->
      <g transform="translate(20.878125 34.522235)scale(0.08 -0.08)">
       <use xlink:href="#DejaVuSans-49"/>
       <use x="63.623047" xlink:href="#DejaVuSans-48"/>
       <use x="127.246094" xlink:href="#DejaVuSans-48"/>
      </g>
     </g>
    </g>
    <g id="text_16">
     <!-- % Cytosine -->
     <g transform="translate(14.798437 180.785679)rotate(-90)scale(0.1 -0.1)">
      <defs>
       <path d="M 72.703125 32.078125 
Q 68.453125 32.078125 66.03125 28.46875 
Q 63.625 24.859375 63.625 18.40625 
Q 63.625 12.0625 66.03125 8.421875 
Q 68.453125 4.78125 72.703125 4.78125 
Q 76.859375 4.78125 79.265625 8.421875 
Q 81.6875 12.0625 81.6875 18.40625 
Q 81.6875 24.8125 79.265625 28.4375 
Q 76.859375 32.078125 72.703125 32.078125 
z
M 72.703125 38.28125 
Q 80.421875 38.28125 84.953125 32.90625 
Q 89.5 27.546875 89.5 18.40625 
Q 89.5 9.28125 84.9375 3.921875 
Q 80.375 -1.421875 72.703125 -1.421875 
Q 64.890625 -1.421875 60.34375 3.921875 
Q 55.8125 9.28125 55.8125 18.40625 
Q 55.8125 27.59375 60.375 32.9375 
Q 64.9375 38.28125 72.703125 38.28125 
z
M 22.3125 68.015625 
Q 18.109375 68.015625 15.6875 64.375 
Q 13.28125 60.75 13.28125 54.390625 
Q 13.28125 47.953125 15.671875 44.328125 
Q 18.0625 40.71875 22.3125 40.71875 
Q 26.5625 40.71875 28.96875 44.328125 
Q 31.390625 47.953125 31.390625 54.390625 
Q 31.390625 60.6875 28.953125 64.34375 
Q 26.515625 68.015625 22.3125 68.015625 
z
M 66.40625 74.21875 
L 74.21875 74.21875 
L 28.609375 -1.421875 
L 20.796875 -1.421875 
z
M 22.3125 74.21875 
Q 30.03125 74.21875 34.609375 68.875 
Q 39.203125 63.53125 39.203125 54.390625 
Q 39.203125 45.171875 34.640625 39.84375 
Q 30.078125 34.515625 22.3125 34.515625 
Q 14.546875 34.515625 10.03125 39.859375 
Q 5.515625 45.21875 5.515625 54.390625 
Q 5.515625 63.484375 10.046875 68.84375 
Q 14.59375 74.21875 22.3125 74.21875 
z
" id="DejaVuSans-37"/>
       <path d="M 18.3125 70.21875 
L 18.3125 54.6875 
L 36.8125 54.6875 
L 36.8125 47.703125 
L 18.3125 47.703125 
L 18.3125 18.015625 
Q 18.3125 11.328125 20.140625 9.421875 
Q 21.96875 7.515625 27.59375 7.515625 
L 36.8125 7.515625 
L 36.8125 0 
L 27.59375 0 
Q 17.1875 0 13.234375 3.875 
Q 9.28125 7.765625 9.28125 18.015625 
L 9.28125 47.703125 
L 2.6875 47.703125 
L 2.6875 54.6875 
L 9.28125 54.6875 
L 9.28125 70.21875 
z
" id="DejaVuSans-116"/>
       <path d="M 30.609375 48.390625 
Q 23.390625 48.390625 19.1875 42.75 
Q 14.984375 37.109375 14.984375 27.296875 
Q 14.984375 17.484375 19.15625 11.84375 
Q 23.34375 6.203125 30.609375 6.203125 
Q 37.796875 6.203125 41.984375 11.859375 
Q 46.1875 17.53125 46.1875 27.296875 
Q 46.1875 37.015625 41.984375 42.703125 
Q 37.796875 48.390625 30.609375 48.390625 
z
M 30.609375 56 
Q 42.328125 56 49.015625 48.375 
Q 55.71875 40.765625 55.71875 27.296875 
Q 55.71875 13.875 49.015625 6.21875 
Q 42.328125 -1.421875 30.609375 -1.421875 
Q 18.84375 -1.421875 12.171875 6.21875 
Q 5.515625 13.875 5.515625 27.296875 
Q 5.515625 40.765625 12.171875 48.375 
Q 18.84375 56 30.609375 56 
z
" id="DejaVuSans-111"/>
       <path d="M 44.28125 53.078125 
L 44.28125 44.578125 
Q 40.484375 46.53125 36.375 47.5 
Q 32.28125 48.484375 27.875 48.484375 
Q 21.1875 48.484375 17.84375 46.4375 
Q 14.5 44.390625 14.5 40.28125 
Q 14.5 37.15625 16.890625 35.375 
Q 19.28125 33.59375 26.515625 31.984375 
L 29.59375 31.296875 
Q 39.15625 29.25 43.1875 25.515625 
Q 47.21875 21.78125 47.21875 15.09375 
Q 47.21875 7.46875 41.1875 3.015625 
Q 35.15625 -1.421875 24.609375 -1.421875 
Q 20.21875 -1.421875 15.453125 -0.5625 
Q 10.6875 0.296875 5.421875 2 
L 5.421875 11.28125 
Q 10.40625 8.6875 15.234375 7.390625 
Q 20.0625 6.109375 24.8125 6.109375 
Q 31.15625 6.109375 34.5625 8.28125 
Q 37.984375 10.453125 37.984375 14.40625 
Q 37.984375 18.0625 35.515625 20.015625 
Q 33.0625 21.96875 24.703125 23.78125 
L 21.578125 24.515625 
Q 13.234375 26.265625 9.515625 29.90625 
Q 5.8125 33.546875 5.8125 39.890625 
Q 5.8125 47.609375 11.28125 51.796875 
Q 16.75 56 26.8125 56 
Q 31.78125 56 36.171875 55.265625 
Q 40.578125 54.546875 44.28125 53.078125 
z
" id="DejaVuSans-115"/>
       <path d="M 9.421875 54.6875 
L 18.40625 54.6875 
L 18.40625 0 
L 9.421875 0 
z
M 9.421875 75.984375 
L 18.40625 75.984375 
L 18.40625 64.59375 
L 9.421875 64.59375 
z
" id="DejaVuSans-105"/>
       <path d="M 54.890625 33.015625 
L 54.890625 0 
L 45.90625 0 
L 45.90625 32.71875 
Q 45.90625 40.484375 42.875 44.328125 
Q 39.84375 48.1875 33.796875 48.1875 
Q 26.515625 48.1875 22.3125 43.546875 
Q 18.109375 38.921875 18.109375 30.90625 
L 18.109375 0 
L 9.078125 0 
L 9.078125 54.6875 
L 18.109375 54.6875 
L 18.109375 46.1875 
Q 21.34375 51.125 25.703125 53.5625 
Q 30.078125 56 35.796875 56 
Q 45.21875 56 50.046875 50.171875 
Q 54.890625 44.34375 54.890625 33.015625 
z
" id="DejaVuSans-110"/>
      </defs>
      <use xlink:href="#DejaVuSans-37"/>
      <use x="95.019531" xlink:href="#DejaVuSans-32"/>
      <use x="126.806641" xlink:href="#DejaVuSans-67"/>
      <use x="196.630859" xlink:href="#DejaVuSans-121"/>
      <use x="255.810547" xlink:href="#DejaVuSans-116"/>
      <use x="295.019531" xlink:href="#DejaVuSans-111"/>
      <use x="356.201172" xlink:href="#DejaVuSans-115"/>
      <use x="408.300781" xlink:href="#DejaVuSans-105"/>
      <use x="436.083984" xlink:href="#DejaVuSans-110"/>
      <use x="499.462891" xlink:href="#DejaVuSans-101"/>
     </g>
    </g>
   </g>
   <g id="line2d_7">
    <path clip-path="url(#pad9643b1db)" d="M 86.326761 222.903132 
L 97.841064 227.336067 
L 109.355367 227.537828 
L 120.86967 226.084552 
L 132.383973 227.251267 
L 143.898277 225.678101 
L 155.41258 225.999752 
L 166.926883 225.95589 
L 178.441186 225.248259 
L 189.955489 224.964623 
L 201.469792 224.502615 
L 212.984095 224.642971 
L 224.498398 224.718997 
L 236.012701 225.844776 
L 247.527004 225.32136 
L 259.041307 225.219017 
L 270.55561 225.131295 
L 282.069913 224.537703 
L 293.584216 225.034799 
L 305.098519 225.046495 
L 316.612822 225.411423 
L 328.127125 225.012559 
L 339.641428 225.455867 
L 351.155731 225.066915 
L 362.670034 224.843432 
L 374.184337 225.161594 
L 385.69864 224.868456 
L 397.212943 225.074949 
L 408.727246 225.314822 
L 420.241549 224.870011 
L 431.755852 224.476038 
L 443.270155 225.257971 
L 454.784458 225.920111 
L 466.298761 225.113888 
L 477.813064 225.252648 
L 489.327367 225.324656 
L 500.84167 224.306715 
L 512.355973 225.489207 
L 523.870277 225.173962 
L 535.38458 225.499169 
L 546.898883 225.382511 
L 558.413186 224.934469 
L 569.927489 224.675559 
L 581.441792 225.219236 
L 592.956095 224.749781 
L 604.470398 225.574499 
L 615.984701 224.731061 
L 627.499004 224.900928 
L 639.013307 223.527382 
L 650.52761 208.369091 
" style="fill:none;stroke:#7cb5ec;stroke-linecap:square;"/>
   </g>
   <g id="line2d_8">
    <path clip-path="url(#pad9643b1db)" d="M 86.326761 223.230631 
L 97.841064 226.953009 
L 109.355367 227.14015 
L 120.86967 225.721963 
L 132.383973 227.80977 
L 143.898277 224.701454 
L 155.41258 225.719038 
L 166.926883 225.903256 
L 178.441186 225.034799 
L 189.955489 225.058192 
L 201.469792 224.230672 
L 212.984095 224.581565 
L 224.498398 224.716072 
L 236.012701 225.716116 
L 247.527004 225.26288 
L 259.041307 225.151763 
L 270.55561 225.379843 
L 282.069913 224.411968 
L 293.584216 225.040649 
L 305.098519 225.97636 
L 316.612822 225.204363 
L 328.127125 225.393276 
L 339.641428 225.02645 
L 351.155731 225.324785 
L 362.670034 225.088937 
L 374.184337 225.32767 
L 385.69864 224.8892 
L 397.212943 225.060037 
L 408.727246 224.846214 
L 420.241549 225.397837 
L 431.755852 224.608724 
L 443.270155 225.592335 
L 454.784458 224.972865 
L 466.298761 224.475047 
L 477.813064 225.673922 
L 489.327367 224.929095 
L 500.84167 225.246913 
L 512.355973 225.625957 
L 523.870277 224.963153 
L 535.38458 225.08097 
L 546.898883 225.225344 
L 558.413186 225.31869 
L 569.927489 226.181684 
L 581.441792 225.178359 
L 592.956095 225.561113 
L 604.470398 225.260144 
L 615.984701 225.396458 
L 627.499004 224.334763 
L 639.013307 222.982138 
L 650.52761 209.047248 
" style="fill:none;stroke:#434348;stroke-linecap:square;"/>
   </g>
   <g id="line2d_9">
    <path clip-path="url(#pad9643b1db)" d="M 86.326761 226.743476 
L 97.841064 227.985317 
L 109.355367 228.440755 
L 120.86967 227.351667 
L 132.383973 228.452068 
L 143.898277 226.822681 
L 155.41258 226.862285 
L 166.926883 227.244173 
L 178.441186 227.131019 
L 189.955489 226.050419 
L 201.469792 226.169229 
L 212.984095 225.886349 
L 224.498398 226.07022 
L 236.012701 226.480397 
L 247.527004 226.531316 
L 259.041307 226.607691 
L 270.55561 226.49454 
L 282.069913 225.843917 
L 293.584216 225.467687 
L 305.098519 226.446451 
L 316.612822 225.733031 
L 328.127125 226.565876 
L 339.641428 226.467476 
L 351.155731 225.837176 
L 362.670034 226.062428 
L 374.184337 226.194893 
L 385.69864 226.173412 
L 397.212943 226.874165 
L 408.727246 226.473478 
L 420.241549 226.150371 
L 431.755852 226.217829 
L 443.270155 226.075798 
L 454.784458 226.456338 
L 466.298761 226.143263 
L 477.813064 226.629311 
L 489.327367 226.534871 
L 500.84167 226.276667 
L 512.355973 226.319302 
L 523.870277 226.610209 
L 535.38458 226.578801 
L 546.898883 226.385147 
L 558.413186 225.748389 
L 569.927489 225.951615 
L 581.441792 226.223145 
L 592.956095 226.141221 
L 604.470398 225.729299 
L 615.984701 226.576609 
L 627.499004 225.812884 
L 639.013307 224.733176 
L 650.52761 209.681462 
" style="fill:none;stroke:#90ed7d;stroke-linecap:square;"/>
   </g>
   <g id="line2d_10">
    <path clip-path="url(#pad9643b1db)" d="M 86.326761 226.757619 
L 97.841064 228.44924 
L 109.355367 227.459161 
L 120.86967 226.596378 
L 132.383973 228.94428 
L 143.898277 225.521434 
L 155.41258 227.15648 
L 166.926883 227.351667 
L 178.441186 226.610521 
L 189.955489 226.254092 
L 201.469792 226.336127 
L 212.984095 225.292301 
L 224.498398 226.539801 
L 236.012701 226.517171 
L 247.527004 226.559602 
L 259.041307 226.655783 
L 270.55561 226.845312 
L 282.069913 225.877863 
L 293.584216 226.751961 
L 305.098519 226.500198 
L 316.612822 226.430697 
L 328.127125 225.919223 
L 339.641428 226.37882 
L 351.155731 226.392517 
L 362.670034 226.507499 
L 374.184337 225.743384 
L 385.69864 226.006732 
L 397.212943 226.714125 
L 408.727246 226.721803 
L 420.241549 226.579209 
L 431.755852 226.221343 
L 443.270155 226.050383 
L 454.784458 226.200168 
L 466.298761 226.33198 
L 477.813064 226.536401 
L 489.327367 226.129821 
L 500.84167 226.995138 
L 512.355973 226.931933 
L 523.870277 226.228138 
L 535.38458 226.190305 
L 546.898883 226.337868 
L 558.413186 225.946985 
L 569.927489 226.880456 
L 581.441792 226.59253 
L 592.956095 225.936177 
L 604.470398 226.516543 
L 615.984701 226.551502 
L 627.499004 225.19686 
L 639.013307 223.94899 
L 650.52761 209.823826 
" style="fill:none;stroke:#f7a35c;stroke-linecap:square;"/>
   </g>
   <g id="line2d_11">
    <path clip-path="url(#pad9643b1db)" d="M 86.326761 198.982937 
L 97.841064 226.928909 
L 109.355367 223.632206 
L 120.86967 223.803217 
L 132.383973 243.65944 
L 143.898277 222.7154 
L 155.41258 221.855595 
L 166.926883 225.617828 
L 178.441186 203.25345 
L 189.955489 227.802963 
L 201.469792 210.982176 
L 212.984095 223.907723 
L 224.498398 212.545021 
L 236.012701 214.540145 
L 247.527004 218.886662 
L 259.041307 223.560952 
L 270.55561 225.831591 
L 282.069913 224.549011 
L 293.584216 224.952786 
L 305.098519 224.677271 
L 316.612822 223.442194 
L 328.127125 223.331945 
L 339.641428 222.595635 
L 351.155731 223.352721 
L 362.670034 222.880402 
L 374.184337 222.748114 
L 385.69864 223.425943 
L 397.212943 223.962551 
L 408.727246 224.392044 
L 420.241549 223.949194 
L 431.755852 224.31134 
L 443.270155 223.930315 
L 454.784458 223.217848 
L 466.298761 222.270741 
L 477.813064 223.192467 
L 489.327367 224.146816 
L 500.84167 223.776374 
L 512.355973 224.651274 
L 523.870277 224.26724 
L 535.38458 223.992508 
L 546.898883 224.542255 
L 558.413186 223.814763 
L 569.927489 223.486197 
L 581.441792 222.621516 
L 592.956095 224.559131 
L 604.470398 223.85281 
L 615.984701 224.513258 
L 627.499004 225.142722 
L 639.013307 224.344825 
L 650.52761 224.64665 
L 662.041913 225.230275 
L 673.556216 224.971515 
L 685.070519 224.153906 
L 696.584822 223.862393 
L 708.099125 224.708821 
L 719.613428 224.559383 
L 731.127731 224.320977 
L 742.642034 224.835209 
L 754.156337 225.489823 
L 765.67064 224.901968 
L 777.184943 224.784367 
L 788.699246 225.044393 
L 800.213549 224.879202 
L 811.727852 224.915738 
L 823.242155 224.806527 
L 834.756458 225.023314 
L 846.270761 224.068425 
L 857.785064 223.460612 
L 869.299367 224.57485 
L 880.81367 224.1257 
L 892.327973 225.316721 
L 903.842277 226.339452 
L 915.35658 225.048809 
L 926.870883 226.085561 
L 938.385186 228.384757 
L 949.899489 241.234833 
" style="fill:none;stroke:#8085e9;stroke-linecap:square;"/>
   </g>
   <g id="line2d_12">
    <path clip-path="url(#pad9643b1db)" d="M 86.326761 197.961623 
L 97.841064 226.64389 
L 109.355367 223.351938 
L 120.86967 223.014668 
L 132.383973 243.721194 
L 143.898277 224.02173 
L 155.41258 222.07886 
L 166.926883 224.948038 
L 178.441186 204.754543 
L 189.955489 226.46338 
L 201.469792 212.364511 
L 212.984095 224.140486 
L 224.498398 212.264756 
L 236.012701 213.248064 
L 247.527004 219.485199 
L 259.041307 223.427944 
L 270.55561 225.209303 
L 282.069913 225.779338 
L 293.584216 224.758026 
L 305.098519 222.924412 
L 316.612822 223.575202 
L 328.127125 223.568477 
L 339.641428 222.49386 
L 351.155731 223.579766 
L 362.670034 222.695119 
L 374.184337 223.413285 
L 385.69864 222.761566 
L 397.212943 223.583209 
L 408.727246 225.123404 
L 420.241549 223.856726 
L 431.755852 223.149245 
L 443.270155 223.508929 
L 454.784458 223.544777 
L 466.298761 222.679063 
L 477.813064 223.166543 
L 489.327367 224.01827 
L 500.84167 223.732938 
L 512.355973 224.791152 
L 523.870277 224.624999 
L 535.38458 223.664927 
L 546.898883 224.554332 
L 558.413186 223.608265 
L 569.927489 223.842501 
L 581.441792 223.697898 
L 592.956095 223.953089 
L 604.470398 224.118299 
L 615.984701 224.321057 
L 627.499004 225.634811 
L 639.013307 224.170875 
L 650.52761 224.620854 
L 662.041913 224.423686 
L 673.556216 224.211499 
L 685.070519 223.7655 
L 696.584822 224.205633 
L 708.099125 223.822137 
L 719.613428 224.138046 
L 731.127731 225.129884 
L 742.642034 224.940515 
L 754.156337 224.53926 
L 765.67064 225.567515 
L 777.184943 224.809336 
L 788.699246 225.324916 
L 800.213549 223.955557 
L 811.727852 224.186482 
L 823.242155 224.815679 
L 834.756458 224.190797 
L 846.270761 224.639864 
L 857.785064 224.324816 
L 869.299367 224.496358 
L 880.81367 224.695951 
L 892.327973 225.600949 
L 903.842277 224.272699 
L 915.35658 224.769332 
L 926.870883 225.716225 
L 938.385186 229.103338 
L 949.899489 240.196366 
" style="fill:none;stroke:#f15c80;stroke-linecap:square;"/>
   </g>
   <g id="line2d_13">
    <path clip-path="url(#pad9643b1db)" d="M 86.326761 197.640032 
L 97.841064 226.57681 
L 109.355367 222.036033 
L 120.86967 223.232474 
L 132.383973 243.731496 
L 143.898277 222.805174 
L 155.41258 221.147249 
L 166.926883 225.933012 
L 178.441186 203.76467 
L 189.955489 226.605298 
L 201.469792 211.906165 
L 212.984095 224.252296 
L 224.498398 210.738212 
L 236.012701 214.697862 
L 247.527004 219.073417 
L 259.041307 222.696923 
L 270.55561 225.431648 
L 282.069913 224.446006 
L 293.584216 224.63402 
L 305.098519 223.272356 
L 316.612822 223.254071 
L 328.127125 223.166221 
L 339.641428 222.435699 
L 351.155731 223.642466 
L 362.670034 223.592146 
L 374.184337 223.159702 
L 385.69864 223.317339 
L 397.212943 224.259768 
L 408.727246 224.303541 
L 420.241549 224.603141 
L 431.755852 224.870193 
L 443.270155 224.386185 
L 454.784458 224.266558 
L 466.298761 222.316645 
L 477.813064 223.158606 
L 489.327367 223.511316 
L 500.84167 223.147824 
L 512.355973 223.906484 
L 523.870277 224.739164 
L 535.38458 223.956995 
L 546.898883 224.932832 
L 558.413186 224.713198 
L 569.927489 224.028433 
L 581.441792 223.120217 
L 592.956095 224.337252 
L 604.470398 223.689626 
L 615.984701 223.961026 
L 627.499004 225.409698 
L 639.013307 224.771053 
L 650.52761 224.770287 
L 662.041913 225.565832 
L 673.556216 224.282285 
L 685.070519 225.124568 
L 696.584822 224.048309 
L 708.099125 225.178005 
L 719.613428 224.055378 
L 731.127731 224.057915 
L 742.642034 225.176123 
L 754.156337 225.542498 
L 765.67064 225.350745 
L 777.184943 224.291122 
L 788.699246 224.934423 
L 800.213549 225.531517 
L 811.727852 223.934243 
L 823.242155 224.173761 
L 834.756458 225.34492 
L 846.270761 224.832396 
L 857.785064 224.128489 
L 869.299367 224.571829 
L 880.81367 225.00031 
L 892.327973 225.198923 
L 903.842277 225.668757 
L 915.35658 225.880114 
L 926.870883 226.136774 
L 938.385186 229.978886 
L 949.899489 241.872719 
" style="fill:none;stroke:#e4d354;stroke-linecap:square;"/>
   </g>
   <g id="line2d_14">
    <path clip-path="url(#pad9643b1db)" d="M 86.326761 196.415104 
L 97.841064 226.62239 
L 109.355367 222.309506 
L 120.86967 223.363512 
L 132.383973 242.603425 
L 143.898277 223.477459 
L 155.41258 221.705588 
L 166.926883 225.118292 
L 178.441186 202.704964 
L 189.955489 226.736337 
L 201.469792 211.832101 
L 212.984095 225.198055 
L 224.498398 211.222484 
L 236.012701 214.515548 
L 247.527004 219.158877 
L 259.041307 224.138352 
L 270.55561 225.397462 
L 282.069913 225.243634 
L 293.584216 224.736571 
L 305.098519 223.426184 
L 316.612822 224.067637 
L 328.127125 223.424753 
L 339.641428 221.871984 
L 351.155731 223.945091 
L 362.670034 222.975816 
L 374.184337 223.698184 
L 385.69864 223.788615 
L 397.212943 223.184028 
L 408.727246 225.257894 
L 420.241549 223.783045 
L 431.755852 225.394825 
L 443.270155 224.125557 
L 454.784458 223.764236 
L 466.298761 223.642485 
L 477.813064 223.887779 
L 489.327367 223.683236 
L 500.84167 222.718329 
L 512.355973 224.213609 
L 523.870277 225.107076 
L 535.38458 224.413552 
L 546.898883 225.241236 
L 558.413186 224.794686 
L 569.927489 224.764915 
L 581.441792 223.363277 
L 592.956095 223.819525 
L 604.470398 225.069548 
L 615.984701 224.788136 
L 627.499004 224.899204 
L 639.013307 225.03849 
L 650.52761 224.699616 
L 662.041913 224.543218 
L 673.556216 223.921458 
L 685.070519 224.389143 
L 696.584822 224.056467 
L 708.099125 224.482593 
L 719.613428 225.313525 
L 731.127731 225.48862 
L 742.642034 225.782202 
L 754.156337 225.155311 
L 765.67064 225.201465 
L 777.184943 225.294486 
L 788.699246 224.415982 
L 800.213549 224.585543 
L 811.727852 224.918609 
L 823.242155 225.608011 
L 834.756458 224.205854 
L 846.270761 225.834753 
L 857.785064 225.634723 
L 869.299367 225.638802 
L 880.81367 225.184579 
L 892.327973 225.455047 
L 903.842277 225.436229 
L 915.35658 225.726151 
L 926.870883 225.833911 
L 938.385186 229.015679 
L 949.899489 241.844031 
" style="fill:none;stroke:#2b908f;stroke-linecap:square;"/>
   </g>
   <g id="line2d_15">
    <path clip-path="url(#pad9643b1db)" d="M 86.326761 196.390489 
L 97.841064 227.397353 
L 109.355367 223.803404 
L 120.86967 223.574258 
L 132.383973 244.321882 
L 143.898277 223.505918 
L 155.41258 222.183312 
L 166.926883 225.528018 
L 178.441186 200.651772 
L 189.955489 228.80438 
L 201.469792 211.413522 
L 212.984095 222.927026 
L 224.498398 211.650706 
L 236.012701 213.021553 
L 247.527004 218.541121 
L 259.041307 222.428536 
L 270.55561 224.354154 
L 282.069913 224.506917 
L 293.584216 225.495856 
L 305.098519 223.755162 
L 316.612822 222.669741 
L 328.127125 222.47507 
L 339.641428 222.080227 
L 351.155731 222.238466 
L 362.670034 222.370285 
L 374.184337 222.575333 
L 385.69864 222.754332 
L 397.212943 223.820318 
L 408.727246 224.255102 
L 420.241549 223.376014 
L 431.755852 223.519549 
L 443.270155 222.869598 
L 454.784458 222.855166 
L 466.298761 221.601028 
L 477.813064 222.594202 
L 489.327367 221.758299 
L 500.84167 222.973779 
L 512.355973 222.692643 
L 523.870277 224.241342 
L 535.38458 223.418387 
L 546.898883 223.549317 
L 558.413186 223.159557 
L 569.927489 222.722634 
L 581.441792 222.313643 
L 592.956095 222.600985 
L 604.470398 222.806161 
L 615.984701 222.599452 
L 627.499004 224.221743 
L 639.013307 222.685872 
L 650.52761 223.185107 
L 662.041913 224.211948 
L 673.556216 222.426421 
L 685.070519 223.847249 
L 696.584822 222.252036 
L 708.099125 222.238914 
L 719.613428 222.602326 
L 731.127731 223.296944 
L 742.642034 223.762454 
L 754.156337 223.328104 
L 765.67064 223.319764 
L 777.184943 223.44523 
L 788.699246 223.615635 
L 800.213549 223.065122 
L 811.727852 222.993531 
L 823.242155 223.200145 
L 834.756458 223.62075 
L 846.270761 222.988858 
L 857.785064 223.142855 
L 869.299367 223.107025 
L 880.81367 223.513734 
L 892.327973 224.131137 
L 903.842277 223.497473 
L 915.35658 224.096781 
L 926.870883 224.840891 
L 938.385186 228.180821 
L 949.899489 239.52878 
" style="fill:none;stroke:#f45b5b;stroke-linecap:square;"/>
   </g>
   <g id="line2d_16">
    <path clip-path="url(#pad9643b1db)" d="M 86.326761 194.983462 
L 97.841064 226.247612 
L 109.355367 222.898886 
L 120.86967 223.530037 
L 132.383973 244.205301 
L 143.898277 223.132049 
L 155.41258 221.885826 
L 166.926883 225.616458 
L 178.441186 200.48695 
L 189.955489 228.83252 
L 201.469792 210.826591 
L 212.984095 223.18833 
L 224.498398 211.35322 
L 236.012701 212.812509 
L 247.527004 218.094893 
L 259.041307 222.163211 
L 270.55561 225.310933 
L 282.069913 225.588317 
L 293.584216 224.68782 
L 305.098519 223.739081 
L 316.612822 222.631859 
L 328.127125 222.38979 
L 339.641428 222.183038 
L 351.155731 222.387222 
L 362.670034 221.936067 
L 374.184337 223.097159 
L 385.69864 222.254869 
L 397.212943 222.857594 
L 408.727246 224.004959 
L 420.241549 223.17416 
L 431.755852 223.236482 
L 443.270155 222.993956 
L 454.784458 222.669789 
L 466.298761 221.893356 
L 477.813064 221.971279 
L 489.327367 222.464337 
L 500.84167 223.107105 
L 512.355973 223.417398 
L 523.870277 223.199827 
L 535.38458 223.133548 
L 546.898883 224.341369 
L 558.413186 222.871211 
L 569.927489 223.338175 
L 581.441792 222.271735 
L 592.956095 222.580486 
L 604.470398 222.93062 
L 615.984701 221.998963 
L 627.499004 223.670282 
L 639.013307 223.850363 
L 650.52761 223.626145 
L 662.041913 224.194204 
L 673.556216 223.462497 
L 685.070519 222.772818 
L 696.584822 222.220877 
L 708.099125 223.153491 
L 719.613428 222.841074 
L 731.127731 223.048447 
L 742.642034 223.036652 
L 754.156337 222.882034 
L 765.67064 223.675854 
L 777.184943 222.863758 
L 788.699246 223.254663 
L 800.213549 223.120959 
L 811.727852 223.743798 
L 823.242155 223.488406 
L 834.756458 222.851393 
L 846.270761 223.648628 
L 857.785064 224.140986 
L 869.299367 223.874468 
L 880.81367 223.879871 
L 892.327973 223.544042 
L 903.842277 223.262341 
L 915.35658 222.989028 
L 926.870883 224.621814 
L 938.385186 228.169661 
L 949.899489 239.1408 
" style="fill:none;stroke:#91e8e1;stroke-linecap:square;"/>
   </g>
   <g id="line2d_17">
    <path clip-path="url(#pad9643b1db)" d="M 86.326761 197.718813 
L 97.841064 227.48994 
L 109.355367 223.905722 
L 120.86967 224.703091 
L 132.383973 244.992618 
L 143.898277 224.079406 
L 155.41258 223.341245 
L 166.926883 226.096515 
L 178.441186 201.081978 
L 189.955489 229.755735 
L 201.469792 211.988586 
L 212.984095 223.996512 
L 224.498398 212.801744 
L 236.012701 214.676749 
L 247.527004 218.750446 
L 259.041307 223.775457 
L 270.55561 226.234674 
L 282.069913 225.603093 
L 293.584216 226.724151 
L 305.098519 225.32283 
L 316.612822 223.893878 
L 328.127125 223.395686 
L 339.641428 223.245683 
L 351.155731 223.492728 
L 362.670034 224.020889 
L 374.184337 223.861351 
L 385.69864 224.822043 
L 397.212943 225.067501 
L 408.727246 225.037996 
L 420.241549 224.785356 
L 431.755852 224.884746 
L 443.270155 224.669916 
L 454.784458 224.651391 
L 466.298761 224.792765 
L 477.813064 223.868944 
L 489.327367 224.720976 
L 500.84167 224.313711 
L 512.355973 224.530275 
L 523.870277 225.139659 
L 535.38458 224.782056 
L 546.898883 225.652919 
L 558.413186 224.46142 
L 569.927489 223.811004 
L 581.441792 224.044128 
L 592.956095 223.774029 
L 604.470398 224.331953 
L 615.984701 224.114286 
L 627.499004 225.136175 
L 639.013307 225.036497 
L 650.52761 224.574203 
L 662.041913 223.7994 
L 673.556216 223.625801 
L 685.070519 225.084976 
L 696.584822 223.893262 
L 708.099125 224.153923 
L 719.613428 224.430197 
L 731.127731 224.150208 
L 742.642034 225.003625 
L 754.156337 225.608406 
L 765.67064 224.783492 
L 777.184943 224.472752 
L 788.699246 225.716109 
L 800.213549 224.542769 
L 811.727852 224.137215 
L 823.242155 225.33708 
L 834.756458 224.680055 
L 846.270761 224.67867 
L 857.785064 225.349707 
L 869.299367 224.895481 
L 880.81367 224.805288 
L 892.327973 226.068658 
L 903.842277 225.601204 
L 915.35658 225.322052 
L 926.870883 225.780625 
L 938.385186 228.761776 
L 949.899489 241.167183 
" style="fill:none;stroke:#7cb5ec;stroke-linecap:square;"/>
   </g>
   <g id="line2d_18">
    <path clip-path="url(#pad9643b1db)" d="M 86.326761 195.437227 
L 97.841064 227.48994 
L 109.355367 223.578088 
L 120.86967 223.996512 
L 132.383973 244.372879 
L 143.898277 223.704405 
L 155.41258 224.055723 
L 166.926883 225.839938 
L 178.441186 202.155666 
L 189.955489 230.118895 
L 201.469792 212.632009 
L 212.984095 224.221513 
L 224.498398 212.714902 
L 236.012701 214.799118 
L 247.527004 219.464921 
L 259.041307 224.801777 
L 270.55561 226.230726 
L 282.069913 226.195201 
L 293.584216 225.993884 
L 305.098519 225.299147 
L 316.612822 224.117256 
L 328.127125 223.938803 
L 339.641428 223.03315 
L 351.155731 224.222926 
L 362.670034 223.640126 
L 374.184337 224.376802 
L 385.69864 224.355076 
L 397.212943 224.459684 
L 408.727246 224.726337 
L 420.241549 224.779624 
L 431.755852 224.864006 
L 443.270155 223.93305 
L 454.784458 223.841293 
L 466.298761 223.581194 
L 477.813064 223.804255 
L 489.327367 223.649227 
L 500.84167 223.850549 
L 512.355973 224.699099 
L 523.870277 225.289514 
L 535.38458 224.204942 
L 546.898883 225.639855 
L 558.413186 224.584805 
L 569.927489 225.124221 
L 581.441792 223.99561 
L 592.956095 224.129874 
L 604.470398 224.041504 
L 615.984701 224.009045 
L 627.499004 224.868439 
L 639.013307 224.975788 
L 650.52761 225.265201 
L 662.041913 224.113968 
L 673.556216 225.01357 
L 685.070519 224.239468 
L 696.584822 223.698374 
L 708.099125 225.016779 
L 719.613428 223.742607 
L 731.127731 224.972851 
L 742.642034 224.375694 
L 754.156337 224.343186 
L 765.67064 225.220351 
L 777.184943 224.479662 
L 788.699246 225.283403 
L 800.213549 224.425585 
L 811.727852 224.90102 
L 823.242155 224.60627 
L 834.756458 224.773575 
L 846.270761 224.419462 
L 857.785064 226.360298 
L 869.299367 225.18802 
L 880.81367 224.420315 
L 892.327973 225.446048 
L 903.842277 225.105842 
L 915.35658 225.203383 
L 926.870883 226.987196 
L 938.385186 229.585311 
L 949.899489 239.983321 
" style="fill:none;stroke:#434348;stroke-linecap:square;"/>
   </g>
   <g id="line2d_19">
    <path clip-path="url(#pad9643b1db)" d="M 43.148125 273.99006 
L 993.078125 273.99006 
" style="fill:none;stroke:#dedede;stroke-linecap:square;stroke-width:2;"/>
   </g>
   <g id="text_17">
    <!-- Picard: Base Distribution -->
    <g transform="translate(419.786875 19.3575)scale(0.16 -0.16)">
     <defs>
      <path d="M 19.671875 64.796875 
L 19.671875 37.40625 
L 32.078125 37.40625 
Q 38.96875 37.40625 42.71875 40.96875 
Q 46.484375 44.53125 46.484375 51.125 
Q 46.484375 57.671875 42.71875 61.234375 
Q 38.96875 64.796875 32.078125 64.796875 
z
M 9.8125 72.90625 
L 32.078125 72.90625 
Q 44.34375 72.90625 50.609375 67.359375 
Q 56.890625 61.8125 56.890625 51.125 
Q 56.890625 40.328125 50.609375 34.8125 
Q 44.34375 29.296875 32.078125 29.296875 
L 19.671875 29.296875 
L 19.671875 0 
L 9.8125 0 
z
" id="DejaVuSans-80"/>
      <path d="M 34.28125 27.484375 
Q 23.390625 27.484375 19.1875 25 
Q 14.984375 22.515625 14.984375 16.5 
Q 14.984375 11.71875 18.140625 8.90625 
Q 21.296875 6.109375 26.703125 6.109375 
Q 34.1875 6.109375 38.703125 11.40625 
Q 43.21875 16.703125 43.21875 25.484375 
L 43.21875 27.484375 
z
M 52.203125 31.203125 
L 52.203125 0 
L 43.21875 0 
L 43.21875 8.296875 
Q 40.140625 3.328125 35.546875 0.953125 
Q 30.953125 -1.421875 24.3125 -1.421875 
Q 15.921875 -1.421875 10.953125 3.296875 
Q 6 8.015625 6 15.921875 
Q 6 25.140625 12.171875 29.828125 
Q 18.359375 34.515625 30.609375 34.515625 
L 43.21875 34.515625 
L 43.21875 35.40625 
Q 43.21875 41.609375 39.140625 45 
Q 35.0625 48.390625 27.6875 48.390625 
Q 23 48.390625 18.546875 47.265625 
Q 14.109375 46.140625 10.015625 43.890625 
L 10.015625 52.203125 
Q 14.9375 54.109375 19.578125 55.046875 
Q 24.21875 56 28.609375 56 
Q 40.484375 56 46.34375 49.84375 
Q 52.203125 43.703125 52.203125 31.203125 
z
" id="DejaVuSans-97"/>
      <path d="M 41.109375 46.296875 
Q 39.59375 47.171875 37.8125 47.578125 
Q 36.03125 48 33.890625 48 
Q 26.265625 48 22.1875 43.046875 
Q 18.109375 38.09375 18.109375 28.8125 
L 18.109375 0 
L 9.078125 0 
L 9.078125 54.6875 
L 18.109375 54.6875 
L 18.109375 46.1875 
Q 20.953125 51.171875 25.484375 53.578125 
Q 30.03125 56 36.53125 56 
Q 37.453125 56 38.578125 55.875 
Q 39.703125 55.765625 41.0625 55.515625 
z
" id="DejaVuSans-114"/>
      <path d="M 45.40625 46.390625 
L 45.40625 75.984375 
L 54.390625 75.984375 
L 54.390625 0 
L 45.40625 0 
L 45.40625 8.203125 
Q 42.578125 3.328125 38.25 0.953125 
Q 33.9375 -1.421875 27.875 -1.421875 
Q 17.96875 -1.421875 11.734375 6.484375 
Q 5.515625 14.40625 5.515625 27.296875 
Q 5.515625 40.1875 11.734375 48.09375 
Q 17.96875 56 27.875 56 
Q 33.9375 56 38.25 53.625 
Q 42.578125 51.265625 45.40625 46.390625 
z
M 14.796875 27.296875 
Q 14.796875 17.390625 18.875 11.75 
Q 22.953125 6.109375 30.078125 6.109375 
Q 37.203125 6.109375 41.296875 11.75 
Q 45.40625 17.390625 45.40625 27.296875 
Q 45.40625 37.203125 41.296875 42.84375 
Q 37.203125 48.484375 30.078125 48.484375 
Q 22.953125 48.484375 18.875 42.84375 
Q 14.796875 37.203125 14.796875 27.296875 
z
" id="DejaVuSans-100"/>
      <path d="M 11.71875 12.40625 
L 22.015625 12.40625 
L 22.015625 0 
L 11.71875 0 
z
M 11.71875 51.703125 
L 22.015625 51.703125 
L 22.015625 39.3125 
L 11.71875 39.3125 
z
" id="DejaVuSans-58"/>
      <path d="M 19.671875 34.8125 
L 19.671875 8.109375 
L 35.5 8.109375 
Q 43.453125 8.109375 47.28125 11.40625 
Q 51.125 14.703125 51.125 21.484375 
Q 51.125 28.328125 47.28125 31.5625 
Q 43.453125 34.8125 35.5 34.8125 
z
M 19.671875 64.796875 
L 19.671875 42.828125 
L 34.28125 42.828125 
Q 41.5 42.828125 45.03125 45.53125 
Q 48.578125 48.25 48.578125 53.8125 
Q 48.578125 59.328125 45.03125 62.0625 
Q 41.5 64.796875 34.28125 64.796875 
z
M 9.8125 72.90625 
L 35.015625 72.90625 
Q 46.296875 72.90625 52.390625 68.21875 
Q 58.5 63.53125 58.5 54.890625 
Q 58.5 48.1875 55.375 44.234375 
Q 52.25 40.28125 46.1875 39.3125 
Q 53.46875 37.75 57.5 32.78125 
Q 61.53125 27.828125 61.53125 20.40625 
Q 61.53125 10.640625 54.890625 5.3125 
Q 48.25 0 35.984375 0 
L 9.8125 0 
z
" id="DejaVuSans-66"/>
      <path d="M 19.671875 64.796875 
L 19.671875 8.109375 
L 31.59375 8.109375 
Q 46.6875 8.109375 53.6875 14.9375 
Q 60.6875 21.78125 60.6875 36.53125 
Q 60.6875 51.171875 53.6875 57.984375 
Q 46.6875 64.796875 31.59375 64.796875 
z
M 9.8125 72.90625 
L 30.078125 72.90625 
Q 51.265625 72.90625 61.171875 64.09375 
Q 71.09375 55.28125 71.09375 36.53125 
Q 71.09375 17.671875 61.125 8.828125 
Q 51.171875 0 30.078125 0 
L 9.8125 0 
z
" id="DejaVuSans-68"/>
      <path d="M 48.6875 27.296875 
Q 48.6875 37.203125 44.609375 42.84375 
Q 40.53125 48.484375 33.40625 48.484375 
Q 26.265625 48.484375 22.1875 42.84375 
Q 18.109375 37.203125 18.109375 27.296875 
Q 18.109375 17.390625 22.1875 11.75 
Q 26.265625 6.109375 33.40625 6.109375 
Q 40.53125 6.109375 44.609375 11.75 
Q 48.6875 17.390625 48.6875 27.296875 
z
M 18.109375 46.390625 
Q 20.953125 51.265625 25.265625 53.625 
Q 29.59375 56 35.59375 56 
Q 45.5625 56 51.78125 48.09375 
Q 58.015625 40.1875 58.015625 27.296875 
Q 58.015625 14.40625 51.78125 6.484375 
Q 45.5625 -1.421875 35.59375 -1.421875 
Q 29.59375 -1.421875 25.265625 0.953125 
Q 20.953125 3.328125 18.109375 8.203125 
L 18.109375 0 
L 9.078125 0 
L 9.078125 75.984375 
L 18.109375 75.984375 
z
" id="DejaVuSans-98"/>
      <path d="M 8.5 21.578125 
L 8.5 54.6875 
L 17.484375 54.6875 
L 17.484375 21.921875 
Q 17.484375 14.15625 20.5 10.265625 
Q 23.53125 6.390625 29.59375 6.390625 
Q 36.859375 6.390625 41.078125 11.03125 
Q 45.3125 15.671875 45.3125 23.6875 
L 45.3125 54.6875 
L 54.296875 54.6875 
L 54.296875 0 
L 45.3125 0 
L 45.3125 8.40625 
Q 42.046875 3.421875 37.71875 1 
Q 33.40625 -1.421875 27.6875 -1.421875 
Q 18.265625 -1.421875 13.375 4.4375 
Q 8.5 10.296875 8.5 21.578125 
z
M 31.109375 56 
z
" id="DejaVuSans-117"/>
     </defs>
     <use xlink:href="#DejaVuSans-80"/>
     <use x="58.052734" xlink:href="#DejaVuSans-105"/>
     <use x="85.835938" xlink:href="#DejaVuSans-99"/>
     <use x="140.816406" xlink:href="#DejaVuSans-97"/>
     <use x="202.095703" xlink:href="#DejaVuSans-114"/>
     <use x="241.458984" xlink:href="#DejaVuSans-100"/>
     <use x="304.935547" xlink:href="#DejaVuSans-58"/>
     <use x="338.626953" xlink:href="#DejaVuSans-32"/>
     <use x="370.414062" xlink:href="#DejaVuSans-66"/>
     <use x="439.017578" xlink:href="#DejaVuSans-97"/>
     <use x="500.296875" xlink:href="#DejaVuSans-115"/>
     <use x="552.396484" xlink:href="#DejaVuSans-101"/>
     <use x="613.919922" xlink:href="#DejaVuSans-32"/>
     <use x="645.707031" xlink:href="#DejaVuSans-68"/>
     <use x="722.708984" xlink:href="#DejaVuSans-105"/>
     <use x="750.492188" xlink:href="#DejaVuSans-115"/>
     <use x="802.591797" xlink:href="#DejaVuSans-116"/>
     <use x="841.800781" xlink:href="#DejaVuSans-114"/>
     <use x="882.914062" xlink:href="#DejaVuSans-105"/>
     <use x="910.697266" xlink:href="#DejaVuSans-98"/>
     <use x="974.173828" xlink:href="#DejaVuSans-117"/>
     <use x="1037.552734" xlink:href="#DejaVuSans-116"/>
     <use x="1076.761719" xlink:href="#DejaVuSans-105"/>
     <use x="1104.544922" xlink:href="#DejaVuSans-111"/>
     <use x="1165.726562" xlink:href="#DejaVuSans-110"/>
    </g>
   </g>
   <g id="legend_1">
    <g id="line2d_20">
     <path d="M 50.348125 291.525394 
L 66.348125 291.525394 
" style="fill:none;stroke:#7cb5ec;stroke-linecap:square;"/>
    </g>
    <g id="line2d_21"/>
    <g id="text_18">
     <!-- SPT5_INPUT_R1_R1 -->
     <g transform="translate(72.748125 294.325394)scale(0.08 -0.08)">
      <defs>
       <path d="M 53.515625 70.515625 
L 53.515625 60.890625 
Q 47.90625 63.578125 42.921875 64.890625 
Q 37.9375 66.21875 33.296875 66.21875 
Q 25.25 66.21875 20.875 63.09375 
Q 16.5 59.96875 16.5 54.203125 
Q 16.5 49.359375 19.40625 46.890625 
Q 22.3125 44.4375 30.421875 42.921875 
L 36.375 41.703125 
Q 47.40625 39.59375 52.65625 34.296875 
Q 57.90625 29 57.90625 20.125 
Q 57.90625 9.515625 50.796875 4.046875 
Q 43.703125 -1.421875 29.984375 -1.421875 
Q 24.8125 -1.421875 18.96875 -0.25 
Q 13.140625 0.921875 6.890625 3.21875 
L 6.890625 13.375 
Q 12.890625 10.015625 18.65625 8.296875 
Q 24.421875 6.59375 29.984375 6.59375 
Q 38.421875 6.59375 43.015625 9.90625 
Q 47.609375 13.234375 47.609375 19.390625 
Q 47.609375 24.75 44.3125 27.78125 
Q 41.015625 30.8125 33.5 32.328125 
L 27.484375 33.5 
Q 16.453125 35.6875 11.515625 40.375 
Q 6.59375 45.0625 6.59375 53.421875 
Q 6.59375 63.09375 13.40625 68.65625 
Q 20.21875 74.21875 32.171875 74.21875 
Q 37.3125 74.21875 42.625 73.28125 
Q 47.953125 72.359375 53.515625 70.515625 
z
" id="DejaVuSans-83"/>
       <path d="M -0.296875 72.90625 
L 61.375 72.90625 
L 61.375 64.59375 
L 35.5 64.59375 
L 35.5 0 
L 25.59375 0 
L 25.59375 64.59375 
L -0.296875 64.59375 
z
" id="DejaVuSans-84"/>
       <path d="M 50.984375 -16.609375 
L 50.984375 -23.578125 
L -0.984375 -23.578125 
L -0.984375 -16.609375 
z
" id="DejaVuSans-95"/>
       <path d="M 9.8125 72.90625 
L 19.671875 72.90625 
L 19.671875 0 
L 9.8125 0 
z
" id="DejaVuSans-73"/>
       <path d="M 9.8125 72.90625 
L 23.09375 72.90625 
L 55.421875 11.921875 
L 55.421875 72.90625 
L 64.984375 72.90625 
L 64.984375 0 
L 51.703125 0 
L 19.390625 60.984375 
L 19.390625 0 
L 9.8125 0 
z
" id="DejaVuSans-78"/>
       <path d="M 8.6875 72.90625 
L 18.609375 72.90625 
L 18.609375 28.609375 
Q 18.609375 16.890625 22.84375 11.734375 
Q 27.09375 6.59375 36.625 6.59375 
Q 46.09375 6.59375 50.34375 11.734375 
Q 54.59375 16.890625 54.59375 28.609375 
L 54.59375 72.90625 
L 64.5 72.90625 
L 64.5 27.390625 
Q 64.5 13.140625 57.4375 5.859375 
Q 50.390625 -1.421875 36.625 -1.421875 
Q 22.796875 -1.421875 15.734375 5.859375 
Q 8.6875 13.140625 8.6875 27.390625 
z
" id="DejaVuSans-85"/>
       <path d="M 44.390625 34.1875 
Q 47.5625 33.109375 50.5625 29.59375 
Q 53.5625 26.078125 56.59375 19.921875 
L 66.609375 0 
L 56 0 
L 46.6875 18.703125 
Q 43.0625 26.03125 39.671875 28.421875 
Q 36.28125 30.8125 30.421875 30.8125 
L 19.671875 30.8125 
L 19.671875 0 
L 9.8125 0 
L 9.8125 72.90625 
L 32.078125 72.90625 
Q 44.578125 72.90625 50.734375 67.671875 
Q 56.890625 62.453125 56.890625 51.90625 
Q 56.890625 45.015625 53.6875 40.46875 
Q 50.484375 35.9375 44.390625 34.1875 
z
M 19.671875 64.796875 
L 19.671875 38.921875 
L 32.078125 38.921875 
Q 39.203125 38.921875 42.84375 42.21875 
Q 46.484375 45.515625 46.484375 51.90625 
Q 46.484375 58.296875 42.84375 61.546875 
Q 39.203125 64.796875 32.078125 64.796875 
z
" id="DejaVuSans-82"/>
      </defs>
      <use xlink:href="#DejaVuSans-83"/>
      <use x="63.476562" xlink:href="#DejaVuSans-80"/>
      <use x="123.779297" xlink:href="#DejaVuSans-84"/>
      <use x="184.863281" xlink:href="#DejaVuSans-53"/>
      <use x="248.486328" xlink:href="#DejaVuSans-95"/>
      <use x="298.486328" xlink:href="#DejaVuSans-73"/>
      <use x="327.978516" xlink:href="#DejaVuSans-78"/>
      <use x="402.783203" xlink:href="#DejaVuSans-80"/>
      <use x="463.085938" xlink:href="#DejaVuSans-85"/>
      <use x="536.279297" xlink:href="#DejaVuSans-84"/>
      <use x="597.363281" xlink:href="#DejaVuSans-95"/>
      <use x="647.363281" xlink:href="#DejaVuSans-82"/>
      <use x="716.845703" xlink:href="#DejaVuSans-49"/>
      <use x="780.46875" xlink:href="#DejaVuSans-95"/>
      <use x="830.46875" xlink:href="#DejaVuSans-82"/>
      <use x="899.951172" xlink:href="#DejaVuSans-49"/>
     </g>
    </g>
    <g id="line2d_22">
     <path d="M 50.348125 303.490394 
L 66.348125 303.490394 
" style="fill:none;stroke:#434348;stroke-linecap:square;"/>
    </g>
    <g id="line2d_23"/>
    <g id="text_19">
     <!-- SPT5_INPUT_R1_R2 -->
     <g transform="translate(72.748125 306.290394)scale(0.08 -0.08)">
      <use xlink:href="#DejaVuSans-83"/>
      <use x="63.476562" xlink:href="#DejaVuSans-80"/>
      <use x="123.779297" xlink:href="#DejaVuSans-84"/>
      <use x="184.863281" xlink:href="#DejaVuSans-53"/>
      <use x="248.486328" xlink:href="#DejaVuSans-95"/>
      <use x="298.486328" xlink:href="#DejaVuSans-73"/>
      <use x="327.978516" xlink:href="#DejaVuSans-78"/>
      <use x="402.783203" xlink:href="#DejaVuSans-80"/>
      <use x="463.085938" xlink:href="#DejaVuSans-85"/>
      <use x="536.279297" xlink:href="#DejaVuSans-84"/>
      <use x="597.363281" xlink:href="#DejaVuSans-95"/>
      <use x="647.363281" xlink:href="#DejaVuSans-82"/>
      <use x="716.845703" xlink:href="#DejaVuSans-49"/>
      <use x="780.46875" xlink:href="#DejaVuSans-95"/>
      <use x="830.46875" xlink:href="#DejaVuSans-82"/>
      <use x="899.951172" xlink:href="#DejaVuSans-50"/>
     </g>
    </g>
    <g id="line2d_24">
     <path d="M 50.348125 315.455394 
L 66.348125 315.455394 
" style="fill:none;stroke:#90ed7d;stroke-linecap:square;"/>
    </g>
    <g id="line2d_25"/>
    <g id="text_20">
     <!-- SPT5_INPUT_R2_R1 -->
     <g transform="translate(72.748125 318.255394)scale(0.08 -0.08)">
      <use xlink:href="#DejaVuSans-83"/>
      <use x="63.476562" xlink:href="#DejaVuSans-80"/>
      <use x="123.779297" xlink:href="#DejaVuSans-84"/>
      <use x="184.863281" xlink:href="#DejaVuSans-53"/>
      <use x="248.486328" xlink:href="#DejaVuSans-95"/>
      <use x="298.486328" xlink:href="#DejaVuSans-73"/>
      <use x="327.978516" xlink:href="#DejaVuSans-78"/>
      <use x="402.783203" xlink:href="#DejaVuSans-80"/>
      <use x="463.085938" xlink:href="#DejaVuSans-85"/>
      <use x="536.279297" xlink:href="#DejaVuSans-84"/>
      <use x="597.363281" xlink:href="#DejaVuSans-95"/>
      <use x="647.363281" xlink:href="#DejaVuSans-82"/>
      <use x="716.845703" xlink:href="#DejaVuSans-50"/>
      <use x="780.46875" xlink:href="#DejaVuSans-95"/>
      <use x="830.46875" xlink:href="#DejaVuSans-82"/>
      <use x="899.951172" xlink:href="#DejaVuSans-49"/>
     </g>
    </g>
    <g id="line2d_26">
     <path d="M 267.264375 291.525394 
L 283.264375 291.525394 
" style="fill:none;stroke:#f7a35c;stroke-linecap:square;"/>
    </g>
    <g id="line2d_27"/>
    <g id="text_21">
     <!-- SPT5_INPUT_R2_R2 -->
     <g transform="translate(289.664375 294.325394)scale(0.08 -0.08)">
      <use xlink:href="#DejaVuSans-83"/>
      <use x="63.476562" xlink:href="#DejaVuSans-80"/>
      <use x="123.779297" xlink:href="#DejaVuSans-84"/>
      <use x="184.863281" xlink:href="#DejaVuSans-53"/>
      <use x="248.486328" xlink:href="#DejaVuSans-95"/>
      <use x="298.486328" xlink:href="#DejaVuSans-73"/>
      <use x="327.978516" xlink:href="#DejaVuSans-78"/>
      <use x="402.783203" xlink:href="#DejaVuSans-80"/>
      <use x="463.085938" xlink:href="#DejaVuSans-85"/>
      <use x="536.279297" xlink:href="#DejaVuSans-84"/>
      <use x="597.363281" xlink:href="#DejaVuSans-95"/>
      <use x="647.363281" xlink:href="#DejaVuSans-82"/>
      <use x="716.845703" xlink:href="#DejaVuSans-50"/>
      <use x="780.46875" xlink:href="#DejaVuSans-95"/>
      <use x="830.46875" xlink:href="#DejaVuSans-82"/>
      <use x="899.951172" xlink:href="#DejaVuSans-50"/>
     </g>
    </g>
    <g id="line2d_28">
     <path d="M 267.264375 303.490394 
L 283.264375 303.490394 
" style="fill:none;stroke:#8085e9;stroke-linecap:square;"/>
    </g>
    <g id="line2d_29"/>
    <g id="text_22">
     <!-- SPT5_T0_R1_R1 -->
     <g transform="translate(289.664375 306.290394)scale(0.08 -0.08)">
      <use xlink:href="#DejaVuSans-83"/>
      <use x="63.476562" xlink:href="#DejaVuSans-80"/>
      <use x="123.779297" xlink:href="#DejaVuSans-84"/>
      <use x="184.863281" xlink:href="#DejaVuSans-53"/>
      <use x="248.486328" xlink:href="#DejaVuSans-95"/>
      <use x="298.486328" xlink:href="#DejaVuSans-84"/>
      <use x="359.570312" xlink:href="#DejaVuSans-48"/>
      <use x="423.193359" xlink:href="#DejaVuSans-95"/>
      <use x="473.193359" xlink:href="#DejaVuSans-82"/>
      <use x="542.675781" xlink:href="#DejaVuSans-49"/>
      <use x="606.298828" xlink:href="#DejaVuSans-95"/>
      <use x="656.298828" xlink:href="#DejaVuSans-82"/>
      <use x="725.78125" xlink:href="#DejaVuSans-49"/>
     </g>
    </g>
    <g id="line2d_30">
     <path d="M 267.264375 315.455394 
L 283.264375 315.455394 
" style="fill:none;stroke:#f15c80;stroke-linecap:square;"/>
    </g>
    <g id="line2d_31"/>
    <g id="text_23">
     <!-- SPT5_T0_R1_R2 -->
     <g transform="translate(289.664375 318.255394)scale(0.08 -0.08)">
      <use xlink:href="#DejaVuSans-83"/>
      <use x="63.476562" xlink:href="#DejaVuSans-80"/>
      <use x="123.779297" xlink:href="#DejaVuSans-84"/>
      <use x="184.863281" xlink:href="#DejaVuSans-53"/>
      <use x="248.486328" xlink:href="#DejaVuSans-95"/>
      <use x="298.486328" xlink:href="#DejaVuSans-84"/>
      <use x="359.570312" xlink:href="#DejaVuSans-48"/>
      <use x="423.193359" xlink:href="#DejaVuSans-95"/>
      <use x="473.193359" xlink:href="#DejaVuSans-82"/>
      <use x="542.675781" xlink:href="#DejaVuSans-49"/>
      <use x="606.298828" xlink:href="#DejaVuSans-95"/>
      <use x="656.298828" xlink:href="#DejaVuSans-82"/>
      <use x="725.78125" xlink:href="#DejaVuSans-50"/>
     </g>
    </g>
    <g id="line2d_32">
     <path d="M 484.180625 291.525394 
L 500.180625 291.525394 
" style="fill:none;stroke:#e4d354;stroke-linecap:square;"/>
    </g>
    <g id="line2d_33"/>
    <g id="text_24">
     <!-- SPT5_T0_R2_R1 -->
     <g transform="translate(506.580625 294.325394)scale(0.08 -0.08)">
      <use xlink:href="#DejaVuSans-83"/>
      <use x="63.476562" xlink:href="#DejaVuSans-80"/>
      <use x="123.779297" xlink:href="#DejaVuSans-84"/>
      <use x="184.863281" xlink:href="#DejaVuSans-53"/>
      <use x="248.486328" xlink:href="#DejaVuSans-95"/>
      <use x="298.486328" xlink:href="#DejaVuSans-84"/>
      <use x="359.570312" xlink:href="#DejaVuSans-48"/>
      <use x="423.193359" xlink:href="#DejaVuSans-95"/>
      <use x="473.193359" xlink:href="#DejaVuSans-82"/>
      <use x="542.675781" xlink:href="#DejaVuSans-50"/>
      <use x="606.298828" xlink:href="#DejaVuSans-95"/>
      <use x="656.298828" xlink:href="#DejaVuSans-82"/>
      <use x="725.78125" xlink:href="#DejaVuSans-49"/>
     </g>
    </g>
    <g id="line2d_34">
     <path d="M 484.180625 303.490394 
L 500.180625 303.490394 
" style="fill:none;stroke:#2b908f;stroke-linecap:square;"/>
    </g>
    <g id="line2d_35"/>
    <g id="text_25">
     <!-- SPT5_T0_R2_R2 -->
     <g transform="translate(506.580625 306.290394)scale(0.08 -0.08)">
      <use xlink:href="#DejaVuSans-83"/>
      <use x="63.476562" xlink:href="#DejaVuSans-80"/>
      <use x="123.779297" xlink:href="#DejaVuSans-84"/>
      <use x="184.863281" xlink:href="#DejaVuSans-53"/>
      <use x="248.486328" xlink:href="#DejaVuSans-95"/>
      <use x="298.486328" xlink:href="#DejaVuSans-84"/>
      <use x="359.570312" xlink:href="#DejaVuSans-48"/>
      <use x="423.193359" xlink:href="#DejaVuSans-95"/>
      <use x="473.193359" xlink:href="#DejaVuSans-82"/>
      <use x="542.675781" xlink:href="#DejaVuSans-50"/>
      <use x="606.298828" xlink:href="#DejaVuSans-95"/>
      <use x="656.298828" xlink:href="#DejaVuSans-82"/>
      <use x="725.78125" xlink:href="#DejaVuSans-50"/>
     </g>
    </g>
    <g id="line2d_36">
     <path d="M 687.163125 291.525394 
L 703.163125 291.525394 
" style="fill:none;stroke:#f45b5b;stroke-linecap:square;"/>
    </g>
    <g id="line2d_37"/>
    <g id="text_26">
     <!-- SPT5_T15_R1_R1 -->
     <g transform="translate(709.563125 294.325394)scale(0.08 -0.08)">
      <use xlink:href="#DejaVuSans-83"/>
      <use x="63.476562" xlink:href="#DejaVuSans-80"/>
      <use x="123.779297" xlink:href="#DejaVuSans-84"/>
      <use x="184.863281" xlink:href="#DejaVuSans-53"/>
      <use x="248.486328" xlink:href="#DejaVuSans-95"/>
      <use x="298.486328" xlink:href="#DejaVuSans-84"/>
      <use x="359.570312" xlink:href="#DejaVuSans-49"/>
      <use x="423.193359" xlink:href="#DejaVuSans-53"/>
      <use x="486.816406" xlink:href="#DejaVuSans-95"/>
      <use x="536.816406" xlink:href="#DejaVuSans-82"/>
      <use x="606.298828" xlink:href="#DejaVuSans-49"/>
      <use x="669.921875" xlink:href="#DejaVuSans-95"/>
      <use x="719.921875" xlink:href="#DejaVuSans-82"/>
      <use x="789.404297" xlink:href="#DejaVuSans-49"/>
     </g>
    </g>
    <g id="line2d_38">
     <path d="M 687.163125 303.490394 
L 703.163125 303.490394 
" style="fill:none;stroke:#91e8e1;stroke-linecap:square;"/>
    </g>
    <g id="line2d_39"/>
    <g id="text_27">
     <!-- SPT5_T15_R1_R2 -->
     <g transform="translate(709.563125 306.290394)scale(0.08 -0.08)">
      <use xlink:href="#DejaVuSans-83"/>
      <use x="63.476562" xlink:href="#DejaVuSans-80"/>
      <use x="123.779297" xlink:href="#DejaVuSans-84"/>
      <use x="184.863281" xlink:href="#DejaVuSans-53"/>
      <use x="248.486328" xlink:href="#DejaVuSans-95"/>
      <use x="298.486328" xlink:href="#DejaVuSans-84"/>
      <use x="359.570312" xlink:href="#DejaVuSans-49"/>
      <use x="423.193359" xlink:href="#DejaVuSans-53"/>
      <use x="486.816406" xlink:href="#DejaVuSans-95"/>
      <use x="536.816406" xlink:href="#DejaVuSans-82"/>
      <use x="606.298828" xlink:href="#DejaVuSans-49"/>
      <use x="669.921875" xlink:href="#DejaVuSans-95"/>
      <use x="719.921875" xlink:href="#DejaVuSans-82"/>
      <use x="789.404297" xlink:href="#DejaVuSans-50"/>
     </g>
    </g>
    <g id="line2d_40">
     <path d="M 895.235625 291.525394 
L 911.235625 291.525394 
" style="fill:none;stroke:#7cb5ec;stroke-linecap:square;"/>
    </g>
    <g id="line2d_41"/>
    <g id="text_28">
     <!-- SPT5_T15_R2_R1 -->
     <g transform="translate(917.635625 294.325394)scale(0.08 -0.08)">
      <use xlink:href="#DejaVuSans-83"/>
      <use x="63.476562" xlink:href="#DejaVuSans-80"/>
      <use x="123.779297" xlink:href="#DejaVuSans-84"/>
      <use x="184.863281" xlink:href="#DejaVuSans-53"/>
      <use x="248.486328" xlink:href="#DejaVuSans-95"/>
      <use x="298.486328" xlink:href="#DejaVuSans-84"/>
      <use x="359.570312" xlink:href="#DejaVuSans-49"/>
      <use x="423.193359" xlink:href="#DejaVuSans-53"/>
      <use x="486.816406" xlink:href="#DejaVuSans-95"/>
      <use x="536.816406" xlink:href="#DejaVuSans-82"/>
      <use x="606.298828" xlink:href="#DejaVuSans-50"/>
      <use x="669.921875" xlink:href="#DejaVuSans-95"/>
      <use x="719.921875" xlink:href="#DejaVuSans-82"/>
      <use x="789.404297" xlink:href="#DejaVuSans-49"/>
     </g>
    </g>
    <g id="line2d_42">
     <path d="M 895.235625 303.490394 
L 911.235625 303.490394 
" style="fill:none;stroke:#434348;stroke-linecap:square;"/>
    </g>
    <g id="line2d_43"/>
    <g id="text_29">
     <!-- SPT5_T15_R2_R2 -->
     <g transform="translate(917.635625 306.290394)scale(0.08 -0.08)">
      <use xlink:href="#DejaVuSans-83"/>
      <use x="63.476562" xlink:href="#DejaVuSans-80"/>
      <use x="123.779297" xlink:href="#DejaVuSans-84"/>
      <use x="184.863281" xlink:href="#DejaVuSans-53"/>
      <use x="248.486328" xlink:href="#DejaVuSans-95"/>
      <use x="298.486328" xlink:href="#DejaVuSans-84"/>
      <use x="359.570312" xlink:href="#DejaVuSans-49"/>
      <use x="423.193359" xlink:href="#DejaVuSans-53"/>
      <use x="486.816406" xlink:href="#DejaVuSans-95"/>
      <use x="536.816406" xlink:href="#DejaVuSans-82"/>
      <use x="606.298828" xlink:href="#DejaVuSans-50"/>
      <use x="669.921875" xlink:href="#DejaVuSans-95"/>
      <use x="719.921875" xlink:href="#DejaVuSans-82"/>
      <use x="789.404297" xlink:href="#DejaVuSans-50"/>
     </g>
    </g>
   </g>
  </g>
 </g>
 <defs>
  <clipPath id="pad9643b1db">
   <rect height="242.5072" width="949.93" x="43.148125" y="31.48286"/>
  </clipPath>
 </defs>
</svg>
