<?xml version="1.0" encoding="utf-8" standalone="no"?>
<!DOCTYPE svg PUBLIC "-//W3C//DTD SVG 1.1//EN"
  "http://www.w3.org/Graphics/SVG/1.1/DTD/svg11.dtd">
<!-- Created with matplotlib (https://matplotlib.org/) -->
<svg height="330.541644pt" version="1.1" viewBox="0 0 1000.198125 330.541644" width="1000.198125pt" xmlns="http://www.w3.org/2000/svg" xmlns:xlink="http://www.w3.org/1999/xlink">
 <metadata>
  <rdf:RDF xmlns:cc="http://creativecommons.org/ns#" xmlns:dc="http://purl.org/dc/elements/1.1/" xmlns:rdf="http://www.w3.org/1999/02/22-rdf-syntax-ns#">
   <cc:Work>
    <dc:type rdf:resource="http://purl.org/dc/dcmitype/StillImage"/>
    <dc:date>2021-01-29T22:05:48.578839</dc:date>
    <dc:format>image/svg+xml</dc:format>
    <dc:creator>
     <cc:Agent>
      <dc:title>Matplotlib v3.3.0, https://matplotlib.org/</dc:title>
     </cc:Agent>
    </dc:creator>
   </cc:Work>
  </rdf:RDF>
 </metadata>
 <defs>
  <style type="text/css">*{stroke-linecap:butt;stroke-linejoin:round;}</style>
 </defs>
 <g id="figure_1">
  <g id="axes_1">
   <g id="patch_1">
    <path d="M 53.328125 273.99006 
L 992.998125 273.99006 
L 992.998125 31.48286 
L 53.328125 31.48286 
z
" style="fill:#ffffff;"/>
   </g>
   <g id="matplotlib.axis_1">
    <g id="xtick_1">
     <g id="text_1">
      <!-- 20 -->
      <g transform="translate(90.950398 287.06881)scale(0.08 -0.08)">
       <defs>
        <path d="M 19.1875 8.296875 
L 53.609375 8.296875 
L 53.609375 0 
L 7.328125 0 
L 7.328125 8.296875 
Q 12.9375 14.109375 22.625 23.890625 
Q 32.328125 33.6875 34.8125 36.53125 
Q 39.546875 41.84375 41.421875 45.53125 
Q 43.3125 49.21875 43.3125 52.78125 
Q 43.3125 58.59375 39.234375 62.25 
Q 35.15625 65.921875 28.609375 65.921875 
Q 23.96875 65.921875 18.8125 64.3125 
Q 13.671875 62.703125 7.8125 59.421875 
L 7.8125 69.390625 
Q 13.765625 71.78125 18.9375 73 
Q 24.125 74.21875 28.421875 74.21875 
Q 39.75 74.21875 46.484375 68.546875 
Q 53.21875 62.890625 53.21875 53.421875 
Q 53.21875 48.921875 51.53125 44.890625 
Q 49.859375 40.875 45.40625 35.40625 
Q 44.1875 33.984375 37.640625 27.21875 
Q 31.109375 20.453125 19.1875 8.296875 
z
" id="DejaVuSans-50"/>
        <path d="M 31.78125 66.40625 
Q 24.171875 66.40625 20.328125 58.90625 
Q 16.5 51.421875 16.5 36.375 
Q 16.5 21.390625 20.328125 13.890625 
Q 24.171875 6.390625 31.78125 6.390625 
Q 39.453125 6.390625 43.28125 13.890625 
Q 47.125 21.390625 47.125 36.375 
Q 47.125 51.421875 43.28125 58.90625 
Q 39.453125 66.40625 31.78125 66.40625 
z
M 31.78125 74.21875 
Q 44.046875 74.21875 50.515625 64.515625 
Q 56.984375 54.828125 56.984375 36.375 
Q 56.984375 17.96875 50.515625 8.265625 
Q 44.046875 -1.421875 31.78125 -1.421875 
Q 19.53125 -1.421875 13.0625 8.265625 
Q 6.59375 17.96875 6.59375 36.375 
Q 6.59375 54.828125 13.0625 64.515625 
Q 19.53125 74.21875 31.78125 74.21875 
z
" id="DejaVuSans-48"/>
       </defs>
       <use xlink:href="#DejaVuSans-50"/>
       <use x="63.623047" xlink:href="#DejaVuSans-48"/>
      </g>
     </g>
    </g>
    <g id="xtick_2">
     <g id="text_2">
      <!-- 30 -->
      <g transform="translate(243.494229 287.06881)scale(0.08 -0.08)">
       <defs>
        <path d="M 40.578125 39.3125 
Q 47.65625 37.796875 51.625 33 
Q 55.609375 28.21875 55.609375 21.1875 
Q 55.609375 10.40625 48.1875 4.484375 
Q 40.765625 -1.421875 27.09375 -1.421875 
Q 22.515625 -1.421875 17.65625 -0.515625 
Q 12.796875 0.390625 7.625 2.203125 
L 7.625 11.71875 
Q 11.71875 9.328125 16.59375 8.109375 
Q 21.484375 6.890625 26.8125 6.890625 
Q 36.078125 6.890625 40.9375 10.546875 
Q 45.796875 14.203125 45.796875 21.1875 
Q 45.796875 27.640625 41.28125 31.265625 
Q 36.765625 34.90625 28.71875 34.90625 
L 20.21875 34.90625 
L 20.21875 43.015625 
L 29.109375 43.015625 
Q 36.375 43.015625 40.234375 45.921875 
Q 44.09375 48.828125 44.09375 54.296875 
Q 44.09375 59.90625 40.109375 62.90625 
Q 36.140625 65.921875 28.71875 65.921875 
Q 24.65625 65.921875 20.015625 65.03125 
Q 15.375 64.15625 9.8125 62.3125 
L 9.8125 71.09375 
Q 15.4375 72.65625 20.34375 73.4375 
Q 25.25 74.21875 29.59375 74.21875 
Q 40.828125 74.21875 47.359375 69.109375 
Q 53.90625 64.015625 53.90625 55.328125 
Q 53.90625 49.265625 50.4375 45.09375 
Q 46.96875 40.921875 40.578125 39.3125 
z
" id="DejaVuSans-51"/>
       </defs>
       <use xlink:href="#DejaVuSans-51"/>
       <use x="63.623047" xlink:href="#DejaVuSans-48"/>
      </g>
     </g>
    </g>
    <g id="xtick_3">
     <g id="text_3">
      <!-- 40 -->
      <g transform="translate(396.03806 287.06881)scale(0.08 -0.08)">
       <defs>
        <path d="M 37.796875 64.3125 
L 12.890625 25.390625 
L 37.796875 25.390625 
z
M 35.203125 72.90625 
L 47.609375 72.90625 
L 47.609375 25.390625 
L 58.015625 25.390625 
L 58.015625 17.1875 
L 47.609375 17.1875 
L 47.609375 0 
L 37.796875 0 
L 37.796875 17.1875 
L 4.890625 17.1875 
L 4.890625 26.703125 
z
" id="DejaVuSans-52"/>
       </defs>
       <use xlink:href="#DejaVuSans-52"/>
       <use x="63.623047" xlink:href="#DejaVuSans-48"/>
      </g>
     </g>
    </g>
    <g id="xtick_4">
     <g id="text_4">
      <!-- 50 -->
      <g transform="translate(548.581891 287.06881)scale(0.08 -0.08)">
       <defs>
        <path d="M 10.796875 72.90625 
L 49.515625 72.90625 
L 49.515625 64.59375 
L 19.828125 64.59375 
L 19.828125 46.734375 
Q 21.96875 47.46875 24.109375 47.828125 
Q 26.265625 48.1875 28.421875 48.1875 
Q 40.625 48.1875 47.75 41.5 
Q 54.890625 34.8125 54.890625 23.390625 
Q 54.890625 11.625 47.5625 5.09375 
Q 40.234375 -1.421875 26.90625 -1.421875 
Q 22.3125 -1.421875 17.546875 -0.640625 
Q 12.796875 0.140625 7.71875 1.703125 
L 7.71875 11.625 
Q 12.109375 9.234375 16.796875 8.0625 
Q 21.484375 6.890625 26.703125 6.890625 
Q 35.15625 6.890625 40.078125 11.328125 
Q 45.015625 15.765625 45.015625 23.390625 
Q 45.015625 31 40.078125 35.4375 
Q 35.15625 39.890625 26.703125 39.890625 
Q 22.75 39.890625 18.8125 39.015625 
Q 14.890625 38.140625 10.796875 36.28125 
z
" id="DejaVuSans-53"/>
       </defs>
       <use xlink:href="#DejaVuSans-53"/>
       <use x="63.623047" xlink:href="#DejaVuSans-48"/>
      </g>
     </g>
    </g>
    <g id="xtick_5">
     <g id="text_5">
      <!-- 60 -->
      <g transform="translate(701.125722 287.06881)scale(0.08 -0.08)">
       <defs>
        <path d="M 33.015625 40.375 
Q 26.375 40.375 22.484375 35.828125 
Q 18.609375 31.296875 18.609375 23.390625 
Q 18.609375 15.53125 22.484375 10.953125 
Q 26.375 6.390625 33.015625 6.390625 
Q 39.65625 6.390625 43.53125 10.953125 
Q 47.40625 15.53125 47.40625 23.390625 
Q 47.40625 31.296875 43.53125 35.828125 
Q 39.65625 40.375 33.015625 40.375 
z
M 52.59375 71.296875 
L 52.59375 62.3125 
Q 48.875 64.0625 45.09375 64.984375 
Q 41.3125 65.921875 37.59375 65.921875 
Q 27.828125 65.921875 22.671875 59.328125 
Q 17.53125 52.734375 16.796875 39.40625 
Q 19.671875 43.65625 24.015625 45.921875 
Q 28.375 48.1875 33.59375 48.1875 
Q 44.578125 48.1875 50.953125 41.515625 
Q 57.328125 34.859375 57.328125 23.390625 
Q 57.328125 12.15625 50.6875 5.359375 
Q 44.046875 -1.421875 33.015625 -1.421875 
Q 20.359375 -1.421875 13.671875 8.265625 
Q 6.984375 17.96875 6.984375 36.375 
Q 6.984375 53.65625 15.1875 63.9375 
Q 23.390625 74.21875 37.203125 74.21875 
Q 40.921875 74.21875 44.703125 73.484375 
Q 48.484375 72.75 52.59375 71.296875 
z
" id="DejaVuSans-54"/>
       </defs>
       <use xlink:href="#DejaVuSans-54"/>
       <use x="63.623047" xlink:href="#DejaVuSans-48"/>
      </g>
     </g>
    </g>
    <g id="xtick_6">
     <g id="text_6">
      <!-- 70 -->
      <g transform="translate(853.669554 287.06881)scale(0.08 -0.08)">
       <defs>
        <path d="M 8.203125 72.90625 
L 55.078125 72.90625 
L 55.078125 68.703125 
L 28.609375 0 
L 18.3125 0 
L 43.21875 64.59375 
L 8.203125 64.59375 
z
" id="DejaVuSans-55"/>
       </defs>
       <use xlink:href="#DejaVuSans-55"/>
       <use x="63.623047" xlink:href="#DejaVuSans-48"/>
      </g>
     </g>
    </g>
    <g id="text_7">
     <!-- Sequence Length (bp) -->
     <g transform="translate(467.823281 300.330997)scale(0.1 -0.1)">
      <defs>
       <path d="M 53.515625 70.515625 
L 53.515625 60.890625 
Q 47.90625 63.578125 42.921875 64.890625 
Q 37.9375 66.21875 33.296875 66.21875 
Q 25.25 66.21875 20.875 63.09375 
Q 16.5 59.96875 16.5 54.203125 
Q 16.5 49.359375 19.40625 46.890625 
Q 22.3125 44.4375 30.421875 42.921875 
L 36.375 41.703125 
Q 47.40625 39.59375 52.65625 34.296875 
Q 57.90625 29 57.90625 20.125 
Q 57.90625 9.515625 50.796875 4.046875 
Q 43.703125 -1.421875 29.984375 -1.421875 
Q 24.8125 -1.421875 18.96875 -0.25 
Q 13.140625 0.921875 6.890625 3.21875 
L 6.890625 13.375 
Q 12.890625 10.015625 18.65625 8.296875 
Q 24.421875 6.59375 29.984375 6.59375 
Q 38.421875 6.59375 43.015625 9.90625 
Q 47.609375 13.234375 47.609375 19.390625 
Q 47.609375 24.75 44.3125 27.78125 
Q 41.015625 30.8125 33.5 32.328125 
L 27.484375 33.5 
Q 16.453125 35.6875 11.515625 40.375 
Q 6.59375 45.0625 6.59375 53.421875 
Q 6.59375 63.09375 13.40625 68.65625 
Q 20.21875 74.21875 32.171875 74.21875 
Q 37.3125 74.21875 42.625 73.28125 
Q 47.953125 72.359375 53.515625 70.515625 
z
" id="DejaVuSans-83"/>
       <path d="M 56.203125 29.59375 
L 56.203125 25.203125 
L 14.890625 25.203125 
Q 15.484375 15.921875 20.484375 11.0625 
Q 25.484375 6.203125 34.421875 6.203125 
Q 39.59375 6.203125 44.453125 7.46875 
Q 49.3125 8.734375 54.109375 11.28125 
L 54.109375 2.78125 
Q 49.265625 0.734375 44.1875 -0.34375 
Q 39.109375 -1.421875 33.890625 -1.421875 
Q 20.796875 -1.421875 13.15625 6.1875 
Q 5.515625 13.8125 5.515625 26.8125 
Q 5.515625 40.234375 12.765625 48.109375 
Q 20.015625 56 32.328125 56 
Q 43.359375 56 49.78125 48.890625 
Q 56.203125 41.796875 56.203125 29.59375 
z
M 47.21875 32.234375 
Q 47.125 39.59375 43.09375 43.984375 
Q 39.0625 48.390625 32.421875 48.390625 
Q 24.90625 48.390625 20.390625 44.140625 
Q 15.875 39.890625 15.1875 32.171875 
z
" id="DejaVuSans-101"/>
       <path d="M 14.796875 27.296875 
Q 14.796875 17.390625 18.875 11.75 
Q 22.953125 6.109375 30.078125 6.109375 
Q 37.203125 6.109375 41.296875 11.75 
Q 45.40625 17.390625 45.40625 27.296875 
Q 45.40625 37.203125 41.296875 42.84375 
Q 37.203125 48.484375 30.078125 48.484375 
Q 22.953125 48.484375 18.875 42.84375 
Q 14.796875 37.203125 14.796875 27.296875 
z
M 45.40625 8.203125 
Q 42.578125 3.328125 38.25 0.953125 
Q 33.9375 -1.421875 27.875 -1.421875 
Q 17.96875 -1.421875 11.734375 6.484375 
Q 5.515625 14.40625 5.515625 27.296875 
Q 5.515625 40.1875 11.734375 48.09375 
Q 17.96875 56 27.875 56 
Q 33.9375 56 38.25 53.625 
Q 42.578125 51.265625 45.40625 46.390625 
L 45.40625 54.6875 
L 54.390625 54.6875 
L 54.390625 -20.796875 
L 45.40625 -20.796875 
z
" id="DejaVuSans-113"/>
       <path d="M 8.5 21.578125 
L 8.5 54.6875 
L 17.484375 54.6875 
L 17.484375 21.921875 
Q 17.484375 14.15625 20.5 10.265625 
Q 23.53125 6.390625 29.59375 6.390625 
Q 36.859375 6.390625 41.078125 11.03125 
Q 45.3125 15.671875 45.3125 23.6875 
L 45.3125 54.6875 
L 54.296875 54.6875 
L 54.296875 0 
L 45.3125 0 
L 45.3125 8.40625 
Q 42.046875 3.421875 37.71875 1 
Q 33.40625 -1.421875 27.6875 -1.421875 
Q 18.265625 -1.421875 13.375 4.4375 
Q 8.5 10.296875 8.5 21.578125 
z
M 31.109375 56 
z
" id="DejaVuSans-117"/>
       <path d="M 54.890625 33.015625 
L 54.890625 0 
L 45.90625 0 
L 45.90625 32.71875 
Q 45.90625 40.484375 42.875 44.328125 
Q 39.84375 48.1875 33.796875 48.1875 
Q 26.515625 48.1875 22.3125 43.546875 
Q 18.109375 38.921875 18.109375 30.90625 
L 18.109375 0 
L 9.078125 0 
L 9.078125 54.6875 
L 18.109375 54.6875 
L 18.109375 46.1875 
Q 21.34375 51.125 25.703125 53.5625 
Q 30.078125 56 35.796875 56 
Q 45.21875 56 50.046875 50.171875 
Q 54.890625 44.34375 54.890625 33.015625 
z
" id="DejaVuSans-110"/>
       <path d="M 48.78125 52.59375 
L 48.78125 44.1875 
Q 44.96875 46.296875 41.140625 47.34375 
Q 37.3125 48.390625 33.40625 48.390625 
Q 24.65625 48.390625 19.8125 42.84375 
Q 14.984375 37.3125 14.984375 27.296875 
Q 14.984375 17.28125 19.8125 11.734375 
Q 24.65625 6.203125 33.40625 6.203125 
Q 37.3125 6.203125 41.140625 7.25 
Q 44.96875 8.296875 48.78125 10.40625 
L 48.78125 2.09375 
Q 45.015625 0.34375 40.984375 -0.53125 
Q 36.96875 -1.421875 32.421875 -1.421875 
Q 20.0625 -1.421875 12.78125 6.34375 
Q 5.515625 14.109375 5.515625 27.296875 
Q 5.515625 40.671875 12.859375 48.328125 
Q 20.21875 56 33.015625 56 
Q 37.15625 56 41.109375 55.140625 
Q 45.0625 54.296875 48.78125 52.59375 
z
" id="DejaVuSans-99"/>
       <path id="DejaVuSans-32"/>
       <path d="M 9.8125 72.90625 
L 19.671875 72.90625 
L 19.671875 8.296875 
L 55.171875 8.296875 
L 55.171875 0 
L 9.8125 0 
z
" id="DejaVuSans-76"/>
       <path d="M 45.40625 27.984375 
Q 45.40625 37.75 41.375 43.109375 
Q 37.359375 48.484375 30.078125 48.484375 
Q 22.859375 48.484375 18.828125 43.109375 
Q 14.796875 37.75 14.796875 27.984375 
Q 14.796875 18.265625 18.828125 12.890625 
Q 22.859375 7.515625 30.078125 7.515625 
Q 37.359375 7.515625 41.375 12.890625 
Q 45.40625 18.265625 45.40625 27.984375 
z
M 54.390625 6.78125 
Q 54.390625 -7.171875 48.1875 -13.984375 
Q 42 -20.796875 29.203125 -20.796875 
Q 24.46875 -20.796875 20.265625 -20.09375 
Q 16.0625 -19.390625 12.109375 -17.921875 
L 12.109375 -9.1875 
Q 16.0625 -11.328125 19.921875 -12.34375 
Q 23.78125 -13.375 27.78125 -13.375 
Q 36.625 -13.375 41.015625 -8.765625 
Q 45.40625 -4.15625 45.40625 5.171875 
L 45.40625 9.625 
Q 42.625 4.78125 38.28125 2.390625 
Q 33.9375 0 27.875 0 
Q 17.828125 0 11.671875 7.65625 
Q 5.515625 15.328125 5.515625 27.984375 
Q 5.515625 40.671875 11.671875 48.328125 
Q 17.828125 56 27.875 56 
Q 33.9375 56 38.28125 53.609375 
Q 42.625 51.21875 45.40625 46.390625 
L 45.40625 54.6875 
L 54.390625 54.6875 
z
" id="DejaVuSans-103"/>
       <path d="M 18.3125 70.21875 
L 18.3125 54.6875 
L 36.8125 54.6875 
L 36.8125 47.703125 
L 18.3125 47.703125 
L 18.3125 18.015625 
Q 18.3125 11.328125 20.140625 9.421875 
Q 21.96875 7.515625 27.59375 7.515625 
L 36.8125 7.515625 
L 36.8125 0 
L 27.59375 0 
Q 17.1875 0 13.234375 3.875 
Q 9.28125 7.765625 9.28125 18.015625 
L 9.28125 47.703125 
L 2.6875 47.703125 
L 2.6875 54.6875 
L 9.28125 54.6875 
L 9.28125 70.21875 
z
" id="DejaVuSans-116"/>
       <path d="M 54.890625 33.015625 
L 54.890625 0 
L 45.90625 0 
L 45.90625 32.71875 
Q 45.90625 40.484375 42.875 44.328125 
Q 39.84375 48.1875 33.796875 48.1875 
Q 26.515625 48.1875 22.3125 43.546875 
Q 18.109375 38.921875 18.109375 30.90625 
L 18.109375 0 
L 9.078125 0 
L 9.078125 75.984375 
L 18.109375 75.984375 
L 18.109375 46.1875 
Q 21.34375 51.125 25.703125 53.5625 
Q 30.078125 56 35.796875 56 
Q 45.21875 56 50.046875 50.171875 
Q 54.890625 44.34375 54.890625 33.015625 
z
" id="DejaVuSans-104"/>
       <path d="M 31 75.875 
Q 24.46875 64.65625 21.28125 53.65625 
Q 18.109375 42.671875 18.109375 31.390625 
Q 18.109375 20.125 21.3125 9.0625 
Q 24.515625 -2 31 -13.1875 
L 23.1875 -13.1875 
Q 15.875 -1.703125 12.234375 9.375 
Q 8.59375 20.453125 8.59375 31.390625 
Q 8.59375 42.28125 12.203125 53.3125 
Q 15.828125 64.359375 23.1875 75.875 
z
" id="DejaVuSans-40"/>
       <path d="M 48.6875 27.296875 
Q 48.6875 37.203125 44.609375 42.84375 
Q 40.53125 48.484375 33.40625 48.484375 
Q 26.265625 48.484375 22.1875 42.84375 
Q 18.109375 37.203125 18.109375 27.296875 
Q 18.109375 17.390625 22.1875 11.75 
Q 26.265625 6.109375 33.40625 6.109375 
Q 40.53125 6.109375 44.609375 11.75 
Q 48.6875 17.390625 48.6875 27.296875 
z
M 18.109375 46.390625 
Q 20.953125 51.265625 25.265625 53.625 
Q 29.59375 56 35.59375 56 
Q 45.5625 56 51.78125 48.09375 
Q 58.015625 40.1875 58.015625 27.296875 
Q 58.015625 14.40625 51.78125 6.484375 
Q 45.5625 -1.421875 35.59375 -1.421875 
Q 29.59375 -1.421875 25.265625 0.953125 
Q 20.953125 3.328125 18.109375 8.203125 
L 18.109375 0 
L 9.078125 0 
L 9.078125 75.984375 
L 18.109375 75.984375 
z
" id="DejaVuSans-98"/>
       <path d="M 18.109375 8.203125 
L 18.109375 -20.796875 
L 9.078125 -20.796875 
L 9.078125 54.6875 
L 18.109375 54.6875 
L 18.109375 46.390625 
Q 20.953125 51.265625 25.265625 53.625 
Q 29.59375 56 35.59375 56 
Q 45.5625 56 51.78125 48.09375 
Q 58.015625 40.1875 58.015625 27.296875 
Q 58.015625 14.40625 51.78125 6.484375 
Q 45.5625 -1.421875 35.59375 -1.421875 
Q 29.59375 -1.421875 25.265625 0.953125 
Q 20.953125 3.328125 18.109375 8.203125 
z
M 48.6875 27.296875 
Q 48.6875 37.203125 44.609375 42.84375 
Q 40.53125 48.484375 33.40625 48.484375 
Q 26.265625 48.484375 22.1875 42.84375 
Q 18.109375 37.203125 18.109375 27.296875 
Q 18.109375 17.390625 22.1875 11.75 
Q 26.265625 6.109375 33.40625 6.109375 
Q 40.53125 6.109375 44.609375 11.75 
Q 48.6875 17.390625 48.6875 27.296875 
z
" id="DejaVuSans-112"/>
       <path d="M 8.015625 75.875 
L 15.828125 75.875 
Q 23.140625 64.359375 26.78125 53.3125 
Q 30.421875 42.28125 30.421875 31.390625 
Q 30.421875 20.453125 26.78125 9.375 
Q 23.140625 -1.703125 15.828125 -13.1875 
L 8.015625 -13.1875 
Q 14.5 -2 17.703125 9.0625 
Q 20.90625 20.125 20.90625 31.390625 
Q 20.90625 42.671875 17.703125 53.65625 
Q 14.5 64.65625 8.015625 75.875 
z
" id="DejaVuSans-41"/>
      </defs>
      <use xlink:href="#DejaVuSans-83"/>
      <use x="63.476562" xlink:href="#DejaVuSans-101"/>
      <use x="125" xlink:href="#DejaVuSans-113"/>
      <use x="188.476562" xlink:href="#DejaVuSans-117"/>
      <use x="251.855469" xlink:href="#DejaVuSans-101"/>
      <use x="313.378906" xlink:href="#DejaVuSans-110"/>
      <use x="376.757812" xlink:href="#DejaVuSans-99"/>
      <use x="431.738281" xlink:href="#DejaVuSans-101"/>
      <use x="493.261719" xlink:href="#DejaVuSans-32"/>
      <use x="525.048828" xlink:href="#DejaVuSans-76"/>
      <use x="579.011719" xlink:href="#DejaVuSans-101"/>
      <use x="640.535156" xlink:href="#DejaVuSans-110"/>
      <use x="703.914062" xlink:href="#DejaVuSans-103"/>
      <use x="767.390625" xlink:href="#DejaVuSans-116"/>
      <use x="806.599609" xlink:href="#DejaVuSans-104"/>
      <use x="869.978516" xlink:href="#DejaVuSans-32"/>
      <use x="901.765625" xlink:href="#DejaVuSans-40"/>
      <use x="940.779297" xlink:href="#DejaVuSans-98"/>
      <use x="1004.255859" xlink:href="#DejaVuSans-112"/>
      <use x="1067.732422" xlink:href="#DejaVuSans-41"/>
     </g>
    </g>
   </g>
   <g id="matplotlib.axis_2">
    <g id="ytick_1">
     <g id="line2d_1">
      <path clip-path="url(#pfffa684a16)" d="M 53.328125 273.99006 
L 992.998125 273.99006 
" style="fill:none;stroke:#dedede;stroke-linecap:square;"/>
     </g>
     <g id="text_8">
      <!-- 0 -->
      <g transform="translate(41.238125 277.029435)scale(0.08 -0.08)">
       <use xlink:href="#DejaVuSans-48"/>
      </g>
     </g>
    </g>
    <g id="ytick_2">
     <g id="line2d_2">
      <path clip-path="url(#pfffa684a16)" d="M 53.328125 237.024133 
L 992.998125 237.024133 
" style="fill:none;stroke:#dedede;stroke-linecap:square;"/>
     </g>
     <g id="text_9">
      <!-- 10000 -->
      <g transform="translate(20.878125 240.063508)scale(0.08 -0.08)">
       <defs>
        <path d="M 12.40625 8.296875 
L 28.515625 8.296875 
L 28.515625 63.921875 
L 10.984375 60.40625 
L 10.984375 69.390625 
L 28.421875 72.90625 
L 38.28125 72.90625 
L 38.28125 8.296875 
L 54.390625 8.296875 
L 54.390625 0 
L 12.40625 0 
z
" id="DejaVuSans-49"/>
       </defs>
       <use xlink:href="#DejaVuSans-49"/>
       <use x="63.623047" xlink:href="#DejaVuSans-48"/>
       <use x="127.246094" xlink:href="#DejaVuSans-48"/>
       <use x="190.869141" xlink:href="#DejaVuSans-48"/>
       <use x="254.492188" xlink:href="#DejaVuSans-48"/>
      </g>
     </g>
    </g>
    <g id="ytick_3">
     <g id="line2d_3">
      <path clip-path="url(#pfffa684a16)" d="M 53.328125 200.058206 
L 992.998125 200.058206 
" style="fill:none;stroke:#dedede;stroke-linecap:square;"/>
     </g>
     <g id="text_10">
      <!-- 20000 -->
      <g transform="translate(20.878125 203.097581)scale(0.08 -0.08)">
       <use xlink:href="#DejaVuSans-50"/>
       <use x="63.623047" xlink:href="#DejaVuSans-48"/>
       <use x="127.246094" xlink:href="#DejaVuSans-48"/>
       <use x="190.869141" xlink:href="#DejaVuSans-48"/>
       <use x="254.492188" xlink:href="#DejaVuSans-48"/>
      </g>
     </g>
    </g>
    <g id="ytick_4">
     <g id="line2d_4">
      <path clip-path="url(#pfffa684a16)" d="M 53.328125 163.09228 
L 992.998125 163.09228 
" style="fill:none;stroke:#dedede;stroke-linecap:square;"/>
     </g>
     <g id="text_11">
      <!-- 30000 -->
      <g transform="translate(20.878125 166.131655)scale(0.08 -0.08)">
       <use xlink:href="#DejaVuSans-51"/>
       <use x="63.623047" xlink:href="#DejaVuSans-48"/>
       <use x="127.246094" xlink:href="#DejaVuSans-48"/>
       <use x="190.869141" xlink:href="#DejaVuSans-48"/>
       <use x="254.492188" xlink:href="#DejaVuSans-48"/>
      </g>
     </g>
    </g>
    <g id="ytick_5">
     <g id="line2d_5">
      <path clip-path="url(#pfffa684a16)" d="M 53.328125 126.126353 
L 992.998125 126.126353 
" style="fill:none;stroke:#dedede;stroke-linecap:square;"/>
     </g>
     <g id="text_12">
      <!-- 40000 -->
      <g transform="translate(20.878125 129.165728)scale(0.08 -0.08)">
       <use xlink:href="#DejaVuSans-52"/>
       <use x="63.623047" xlink:href="#DejaVuSans-48"/>
       <use x="127.246094" xlink:href="#DejaVuSans-48"/>
       <use x="190.869141" xlink:href="#DejaVuSans-48"/>
       <use x="254.492188" xlink:href="#DejaVuSans-48"/>
      </g>
     </g>
    </g>
    <g id="ytick_6">
     <g id="line2d_6">
      <path clip-path="url(#pfffa684a16)" d="M 53.328125 89.160426 
L 992.998125 89.160426 
" style="fill:none;stroke:#dedede;stroke-linecap:square;"/>
     </g>
     <g id="text_13">
      <!-- 50000 -->
      <g transform="translate(20.878125 92.199801)scale(0.08 -0.08)">
       <use xlink:href="#DejaVuSans-53"/>
       <use x="63.623047" xlink:href="#DejaVuSans-48"/>
       <use x="127.246094" xlink:href="#DejaVuSans-48"/>
       <use x="190.869141" xlink:href="#DejaVuSans-48"/>
       <use x="254.492188" xlink:href="#DejaVuSans-48"/>
      </g>
     </g>
    </g>
    <g id="ytick_7">
     <g id="line2d_7">
      <path clip-path="url(#pfffa684a16)" d="M 53.328125 52.194499 
L 992.998125 52.194499 
" style="fill:none;stroke:#dedede;stroke-linecap:square;"/>
     </g>
     <g id="text_14">
      <!-- 60000 -->
      <g transform="translate(20.878125 55.233874)scale(0.08 -0.08)">
       <use xlink:href="#DejaVuSans-54"/>
       <use x="63.623047" xlink:href="#DejaVuSans-48"/>
       <use x="127.246094" xlink:href="#DejaVuSans-48"/>
       <use x="190.869141" xlink:href="#DejaVuSans-48"/>
       <use x="254.492188" xlink:href="#DejaVuSans-48"/>
      </g>
     </g>
    </g>
    <g id="text_15">
     <!-- Read Count -->
     <g transform="translate(14.798437 181.738022)rotate(-90)scale(0.1 -0.1)">
      <defs>
       <path d="M 44.390625 34.1875 
Q 47.5625 33.109375 50.5625 29.59375 
Q 53.5625 26.078125 56.59375 19.921875 
L 66.609375 0 
L 56 0 
L 46.6875 18.703125 
Q 43.0625 26.03125 39.671875 28.421875 
Q 36.28125 30.8125 30.421875 30.8125 
L 19.671875 30.8125 
L 19.671875 0 
L 9.8125 0 
L 9.8125 72.90625 
L 32.078125 72.90625 
Q 44.578125 72.90625 50.734375 67.671875 
Q 56.890625 62.453125 56.890625 51.90625 
Q 56.890625 45.015625 53.6875 40.46875 
Q 50.484375 35.9375 44.390625 34.1875 
z
M 19.671875 64.796875 
L 19.671875 38.921875 
L 32.078125 38.921875 
Q 39.203125 38.921875 42.84375 42.21875 
Q 46.484375 45.515625 46.484375 51.90625 
Q 46.484375 58.296875 42.84375 61.546875 
Q 39.203125 64.796875 32.078125 64.796875 
z
" id="DejaVuSans-82"/>
       <path d="M 34.28125 27.484375 
Q 23.390625 27.484375 19.1875 25 
Q 14.984375 22.515625 14.984375 16.5 
Q 14.984375 11.71875 18.140625 8.90625 
Q 21.296875 6.109375 26.703125 6.109375 
Q 34.1875 6.109375 38.703125 11.40625 
Q 43.21875 16.703125 43.21875 25.484375 
L 43.21875 27.484375 
z
M 52.203125 31.203125 
L 52.203125 0 
L 43.21875 0 
L 43.21875 8.296875 
Q 40.140625 3.328125 35.546875 0.953125 
Q 30.953125 -1.421875 24.3125 -1.421875 
Q 15.921875 -1.421875 10.953125 3.296875 
Q 6 8.015625 6 15.921875 
Q 6 25.140625 12.171875 29.828125 
Q 18.359375 34.515625 30.609375 34.515625 
L 43.21875 34.515625 
L 43.21875 35.40625 
Q 43.21875 41.609375 39.140625 45 
Q 35.0625 48.390625 27.6875 48.390625 
Q 23 48.390625 18.546875 47.265625 
Q 14.109375 46.140625 10.015625 43.890625 
L 10.015625 52.203125 
Q 14.9375 54.109375 19.578125 55.046875 
Q 24.21875 56 28.609375 56 
Q 40.484375 56 46.34375 49.84375 
Q 52.203125 43.703125 52.203125 31.203125 
z
" id="DejaVuSans-97"/>
       <path d="M 45.40625 46.390625 
L 45.40625 75.984375 
L 54.390625 75.984375 
L 54.390625 0 
L 45.40625 0 
L 45.40625 8.203125 
Q 42.578125 3.328125 38.25 0.953125 
Q 33.9375 -1.421875 27.875 -1.421875 
Q 17.96875 -1.421875 11.734375 6.484375 
Q 5.515625 14.40625 5.515625 27.296875 
Q 5.515625 40.1875 11.734375 48.09375 
Q 17.96875 56 27.875 56 
Q 33.9375 56 38.25 53.625 
Q 42.578125 51.265625 45.40625 46.390625 
z
M 14.796875 27.296875 
Q 14.796875 17.390625 18.875 11.75 
Q 22.953125 6.109375 30.078125 6.109375 
Q 37.203125 6.109375 41.296875 11.75 
Q 45.40625 17.390625 45.40625 27.296875 
Q 45.40625 37.203125 41.296875 42.84375 
Q 37.203125 48.484375 30.078125 48.484375 
Q 22.953125 48.484375 18.875 42.84375 
Q 14.796875 37.203125 14.796875 27.296875 
z
" id="DejaVuSans-100"/>
       <path d="M 64.40625 67.28125 
L 64.40625 56.890625 
Q 59.421875 61.53125 53.78125 63.8125 
Q 48.140625 66.109375 41.796875 66.109375 
Q 29.296875 66.109375 22.65625 58.46875 
Q 16.015625 50.828125 16.015625 36.375 
Q 16.015625 21.96875 22.65625 14.328125 
Q 29.296875 6.6875 41.796875 6.6875 
Q 48.140625 6.6875 53.78125 8.984375 
Q 59.421875 11.28125 64.40625 15.921875 
L 64.40625 5.609375 
Q 59.234375 2.09375 53.4375 0.328125 
Q 47.65625 -1.421875 41.21875 -1.421875 
Q 24.65625 -1.421875 15.125 8.703125 
Q 5.609375 18.84375 5.609375 36.375 
Q 5.609375 53.953125 15.125 64.078125 
Q 24.65625 74.21875 41.21875 74.21875 
Q 47.75 74.21875 53.53125 72.484375 
Q 59.328125 70.75 64.40625 67.28125 
z
" id="DejaVuSans-67"/>
       <path d="M 30.609375 48.390625 
Q 23.390625 48.390625 19.1875 42.75 
Q 14.984375 37.109375 14.984375 27.296875 
Q 14.984375 17.484375 19.15625 11.84375 
Q 23.34375 6.203125 30.609375 6.203125 
Q 37.796875 6.203125 41.984375 11.859375 
Q 46.1875 17.53125 46.1875 27.296875 
Q 46.1875 37.015625 41.984375 42.703125 
Q 37.796875 48.390625 30.609375 48.390625 
z
M 30.609375 56 
Q 42.328125 56 49.015625 48.375 
Q 55.71875 40.765625 55.71875 27.296875 
Q 55.71875 13.875 49.015625 6.21875 
Q 42.328125 -1.421875 30.609375 -1.421875 
Q 18.84375 -1.421875 12.171875 6.21875 
Q 5.515625 13.875 5.515625 27.296875 
Q 5.515625 40.765625 12.171875 48.375 
Q 18.84375 56 30.609375 56 
z
" id="DejaVuSans-111"/>
      </defs>
      <use xlink:href="#DejaVuSans-82"/>
      <use x="64.982422" xlink:href="#DejaVuSans-101"/>
      <use x="126.505859" xlink:href="#DejaVuSans-97"/>
      <use x="187.785156" xlink:href="#DejaVuSans-100"/>
      <use x="251.261719" xlink:href="#DejaVuSans-32"/>
      <use x="283.048828" xlink:href="#DejaVuSans-67"/>
      <use x="352.873047" xlink:href="#DejaVuSans-111"/>
      <use x="414.054688" xlink:href="#DejaVuSans-117"/>
      <use x="477.433594" xlink:href="#DejaVuSans-110"/>
      <use x="540.8125" xlink:href="#DejaVuSans-116"/>
     </g>
    </g>
   </g>
   <g id="line2d_8">
    <path clip-path="url(#pfffa684a16)" d="M 96.040398 273.986363 
L 111.294781 273.97897 
L 126.549164 273.982667 
L 141.803547 273.971577 
L 157.05793 273.960487 
L 172.312313 273.945701 
L 187.566696 273.96788 
L 202.82108 273.953094 
L 218.075463 273.945701 
L 233.329846 273.945701 
L 248.584229 273.953094 
L 263.838612 273.938308 
L 279.092995 273.938308 
L 294.347378 273.956791 
L 309.601761 273.971577 
L 324.856144 273.956791 
L 340.110528 273.938308 
L 355.364911 273.912432 
L 370.619294 273.905038 
L 385.873677 273.934611 
L 401.12806 273.868072 
L 416.382443 273.879162 
L 431.636826 273.849589 
L 446.891209 273.797837 
L 462.145593 273.749781 
L 477.399976 273.409695 
L 492.654359 271.716656 
L 507.908742 266.412045 
L 523.163125 251.49999 
L 538.417508 171.424399 
L 553.671891 43.030646 
" style="fill:none;stroke:#f0ad4e;stroke-linecap:square;"/>
   </g>
   <g id="line2d_9">
    <path clip-path="url(#pfffa684a16)" d="M 96.040398 273.949397 
L 111.294781 273.949397 
L 126.549164 273.934611 
L 141.803547 273.923521 
L 157.05793 273.938308 
L 172.312313 273.927218 
L 187.566696 273.927218 
L 202.82108 273.897645 
L 218.075463 273.919825 
L 233.329846 273.923521 
L 248.584229 273.905038 
L 263.838612 273.908735 
L 279.092995 273.897645 
L 294.347378 273.897645 
L 309.601761 273.882859 
L 324.856144 273.908735 
L 340.110528 273.879162 
L 355.364911 273.834803 
L 370.619294 273.871769 
L 385.873677 273.808927 
L 401.12806 273.790444 
L 416.382443 273.80523 
L 431.636826 273.746085 
L 446.891209 273.716512 
L 462.145593 273.572345 
L 477.399976 273.324673 
L 492.654359 271.454197 
L 507.908742 266.3529 
L 523.163125 251.278195 
L 538.417508 172.433569 
L 553.671891 44.121141 
" style="fill:none;stroke:#f0ad4e;stroke-linecap:square;"/>
   </g>
   <g id="line2d_10">
    <path clip-path="url(#pfffa684a16)" d="M 96.040398 273.982667 
L 111.294781 273.975274 
L 126.549164 273.971577 
L 141.803547 273.971577 
L 157.05793 273.960487 
L 172.312313 273.964184 
L 187.566696 273.975274 
L 202.82108 273.953094 
L 218.075463 273.971577 
L 233.329846 273.942004 
L 248.584229 273.945701 
L 263.838612 273.945701 
L 279.092995 273.97897 
L 294.347378 273.949397 
L 309.601761 273.930915 
L 324.856144 273.934611 
L 340.110528 273.930915 
L 355.364911 273.927218 
L 370.619294 273.908735 
L 385.873677 273.882859 
L 401.12806 273.893949 
L 416.382443 273.897645 
L 431.636826 273.845893 
L 446.891209 273.808927 
L 462.145593 273.749781 
L 477.399976 273.332067 
L 492.654359 271.687083 
L 507.908742 266.14589 
L 523.163125 251.688516 
L 538.417508 170.888394 
L 553.671891 43.792144 
" style="fill:none;stroke:#f0ad4e;stroke-linecap:square;"/>
   </g>
   <g id="line2d_11">
    <path clip-path="url(#pfffa684a16)" d="M 96.040398 273.945701 
L 111.294781 273.975274 
L 126.549164 273.927218 
L 141.803547 273.934611 
L 157.05793 273.964184 
L 172.312313 273.927218 
L 187.566696 273.916128 
L 202.82108 273.938308 
L 218.075463 273.890252 
L 233.329846 273.934611 
L 248.584229 273.905038 
L 263.838612 273.868072 
L 279.092995 273.893949 
L 294.347378 273.875466 
L 309.601761 273.893949 
L 324.856144 273.893949 
L 340.110528 273.849589 
L 355.364911 273.893949 
L 370.619294 273.868072 
L 385.873677 273.871769 
L 401.12806 273.834803 
L 416.382443 273.80523 
L 431.636826 273.760871 
L 446.891209 273.627794 
L 462.145593 273.638884 
L 477.399976 273.16572 
L 492.654359 271.602061 
L 507.908742 265.935185 
L 523.163125 251.585012 
L 538.417508 171.221087 
L 553.671891 45.389072 
" style="fill:none;stroke:#f0ad4e;stroke-linecap:square;"/>
   </g>
   <g id="line2d_12">
    <path clip-path="url(#pfffa684a16)" d="M 96.040398 273.964184 
L 126.549164 273.964184 
L 157.05793 273.930915 
L 187.566696 273.727602 
L 218.075463 273.202686 
L 248.584229 272.810847 
L 279.092995 273.661063 
L 309.601761 272.958711 
L 340.110528 271.387659 
L 370.619294 268.522799 
L 401.12806 262.482567 
L 431.636826 267.813054 
L 462.145593 267.103308 
L 492.654359 267.576472 
L 523.163125 267.783481 
L 553.671891 264.693129 
L 584.180657 267.424911 
L 614.689424 267.842626 
L 645.19819 267.735425 
L 675.706956 268.278824 
L 706.215722 267.742818 
L 736.724489 268.289914 
L 767.233255 268.556069 
L 797.742021 268.66327 
L 828.250787 268.622607 
L 858.759554 268.156837 
L 889.26832 263.65069 
L 919.777086 197.23401 
L 950.285852 109.173779 
" style="fill:none;stroke:#f0ad4e;stroke-linecap:square;"/>
   </g>
   <g id="line2d_13">
    <path clip-path="url(#pfffa684a16)" d="M 96.040398 273.949397 
L 126.549164 273.949397 
L 157.05793 273.916128 
L 187.566696 273.716512 
L 218.075463 273.169416 
L 248.584229 272.803454 
L 279.092995 273.661063 
L 309.601761 272.910655 
L 340.110528 271.398749 
L 370.619294 268.533889 
L 401.12806 262.611948 
L 431.636826 267.883289 
L 462.145593 267.095915 
L 492.654359 267.561685 
L 523.163125 267.772391 
L 553.671891 264.741185 
L 584.180657 267.450788 
L 614.689424 267.861109 
L 645.19819 267.761301 
L 675.706956 268.286217 
L 706.215722 267.716942 
L 736.724489 268.267735 
L 767.233255 268.485833 
L 797.742021 268.637394 
L 828.250787 268.570855 
L 858.759554 268.031153 
L 889.26832 263.273638 
L 919.777086 194.846011 
L 950.285852 112.09039 
" style="fill:none;stroke:#f0ad4e;stroke-linecap:square;"/>
   </g>
   <g id="line2d_14">
    <path clip-path="url(#pfffa684a16)" d="M 96.040398 273.919825 
L 126.549164 273.905038 
L 157.05793 273.82741 
L 187.566696 273.450357 
L 218.075463 273.324673 
L 248.584229 273.542772 
L 279.092995 273.298797 
L 309.601761 272.478154 
L 340.110528 270.34522 
L 370.619294 268.925728 
L 401.12806 268.267735 
L 431.636826 268.105084 
L 462.145593 267.720639 
L 492.654359 267.997883 
L 523.163125 268.319487 
L 553.671891 267.753908 
L 584.180657 268.145747 
L 614.689424 267.972007 
L 645.19819 268.127264 
L 675.706956 268.774168 
L 706.215722 268.80374 
L 736.724489 268.958997 
L 767.233255 269.051412 
L 797.742021 269.1734 
L 828.250787 269.376712 
L 858.759554 268.818527 
L 889.26832 263.621118 
L 919.777086 191.740873 
L 950.285852 99.377808 
" style="fill:none;stroke:#f0ad4e;stroke-linecap:square;"/>
   </g>
   <g id="line2d_15">
    <path clip-path="url(#pfffa684a16)" d="M 96.040398 273.8385 
L 126.549164 273.797837 
L 157.05793 273.753478 
L 187.566696 273.476234 
L 218.075463 273.284011 
L 248.584229 273.49102 
L 279.092995 273.302494 
L 309.601761 272.452277 
L 340.110528 270.308254 
L 370.619294 268.896155 
L 401.12806 268.282521 
L 431.636826 268.086601 
L 462.145593 267.746515 
L 492.654359 268.016366 
L 523.163125 268.408205 
L 553.671891 267.768695 
L 584.180657 268.149444 
L 614.689424 267.997883 
L 645.19819 268.171623 
L 675.706956 268.785258 
L 706.215722 268.811134 
L 736.724489 269.014446 
L 767.233255 269.025536 
L 797.742021 269.221455 
L 828.250787 269.446948 
L 858.759554 268.515406 
L 889.26832 262.708059 
L 919.777086 188.776206 
L 950.285852 103.591924 
" style="fill:none;stroke:#f0ad4e;stroke-linecap:square;"/>
   </g>
   <g id="line2d_16">
    <path clip-path="url(#pfffa684a16)" d="M 96.040398 273.975274 
L 126.549164 273.971577 
L 157.05793 273.975274 
L 187.566696 273.871769 
L 218.075463 273.790444 
L 248.584229 273.831107 
L 279.092995 273.801534 
L 309.601761 273.476234 
L 340.110528 272.260055 
L 370.619294 271.513343 
L 401.12806 271.572488 
L 431.636826 270.97364 
L 462.145593 270.714879 
L 492.654359 270.452421 
L 523.163125 270.204749 
L 553.671891 270.396972 
L 584.180657 270.34522 
L 614.689424 270.156693 
L 645.19819 269.994043 
L 675.706956 269.735282 
L 706.215722 270.082762 
L 736.724489 270.315647 
L 767.233255 270.226929 
L 797.742021 269.923808 
L 828.250787 269.687226 
L 858.759554 269.14013 
L 889.26832 263.983384 
L 919.777086 182.029924 
L 950.285852 72.503579 
" style="fill:none;stroke:#f0ad4e;stroke-linecap:square;"/>
   </g>
   <g id="line2d_17">
    <path clip-path="url(#pfffa684a16)" d="M 96.040398 273.953094 
L 126.549164 273.956791 
L 157.05793 273.942004 
L 187.566696 273.875466 
L 218.075463 273.790444 
L 248.584229 273.834803 
L 279.092995 273.812624 
L 309.601761 273.487323 
L 340.110528 272.256358 
L 370.619294 271.524433 
L 401.12806 271.590971 
L 431.636826 270.944068 
L 462.145593 270.744452 
L 492.654359 270.470904 
L 523.163125 270.256501 
L 553.671891 270.430241 
L 584.180657 270.360006 
L 614.689424 270.212142 
L 645.19819 270.00883 
L 675.706956 269.750068 
L 706.215722 270.060582 
L 736.724489 270.341523 
L 767.233255 270.16039 
L 797.742021 269.897932 
L 828.250787 269.631777 
L 858.759554 269.206669 
L 889.26832 263.159043 
L 919.777086 179.575386 
L 950.285852 75.671559 
" style="fill:none;stroke:#f0ad4e;stroke-linecap:square;"/>
   </g>
   <g id="line2d_18">
    <path clip-path="url(#pfffa684a16)" d="M 96.040398 273.97897 
L 126.549164 273.975274 
L 157.05793 273.96788 
L 187.566696 273.734995 
L 218.075463 273.557559 
L 248.584229 273.649973 
L 279.092995 273.649973 
L 309.601761 273.036339 
L 340.110528 270.910798 
L 370.619294 269.391499 
L 401.12806 268.877672 
L 431.636826 268.230769 
L 462.145593 267.332497 
L 492.654359 267.16615 
L 523.163125 267.487753 
L 553.671891 267.790874 
L 584.180657 268.241858 
L 614.689424 267.986793 
L 645.19819 267.883289 
L 675.706956 268.389722 
L 706.215722 268.740898 
L 736.724489 268.840706 
L 767.233255 268.958997 
L 797.742021 268.903548 
L 828.250787 268.689146 
L 858.759554 268.504316 
L 889.26832 264.053619 
L 919.777086 192.22143 
L 950.285852 98.871375 
" style="fill:none;stroke:#f0ad4e;stroke-linecap:square;"/>
   </g>
   <g id="line2d_19">
    <path clip-path="url(#pfffa684a16)" d="M 96.040398 273.956791 
L 126.549164 273.949397 
L 157.05793 273.938308 
L 187.566696 273.698029 
L 218.075463 273.50211 
L 248.584229 273.601918 
L 279.092995 273.631491 
L 309.601761 273.036339 
L 340.110528 270.914495 
L 370.619294 269.406285 
L 401.12806 268.966391 
L 431.636826 268.271431 
L 462.145593 267.347283 
L 492.654359 267.210509 
L 523.163125 267.50254 
L 553.671891 267.831537 
L 584.180657 268.241858 
L 614.689424 268.034849 
L 645.19819 267.894379 
L 675.706956 268.437778 
L 706.215722 268.829617 
L 736.724489 268.859189 
L 767.233255 268.922031 
L 797.742021 268.881369 
L 828.250787 268.526496 
L 858.759554 268.31579 
L 889.26832 262.874406 
L 919.777086 191.7113 
L 950.285852 100.730761 
" style="fill:none;stroke:#f0ad4e;stroke-linecap:square;"/>
   </g>
   <g id="line2d_20">
    <path clip-path="url(#pfffa684a16)" d="M 53.328125 273.99006 
L 992.998125 273.99006 
" style="fill:none;stroke:#dedede;stroke-linecap:square;stroke-width:2;"/>
   </g>
   <g id="text_16">
    <!-- FastQC: Sequence Length Distribution -->
    <g transform="translate(371.150625 19.3575)scale(0.16 -0.16)">
     <defs>
      <path d="M 9.8125 72.90625 
L 51.703125 72.90625 
L 51.703125 64.59375 
L 19.671875 64.59375 
L 19.671875 43.109375 
L 48.578125 43.109375 
L 48.578125 34.8125 
L 19.671875 34.8125 
L 19.671875 0 
L 9.8125 0 
z
" id="DejaVuSans-70"/>
      <path d="M 44.28125 53.078125 
L 44.28125 44.578125 
Q 40.484375 46.53125 36.375 47.5 
Q 32.28125 48.484375 27.875 48.484375 
Q 21.1875 48.484375 17.84375 46.4375 
Q 14.5 44.390625 14.5 40.28125 
Q 14.5 37.15625 16.890625 35.375 
Q 19.28125 33.59375 26.515625 31.984375 
L 29.59375 31.296875 
Q 39.15625 29.25 43.1875 25.515625 
Q 47.21875 21.78125 47.21875 15.09375 
Q 47.21875 7.46875 41.1875 3.015625 
Q 35.15625 -1.421875 24.609375 -1.421875 
Q 20.21875 -1.421875 15.453125 -0.5625 
Q 10.6875 0.296875 5.421875 2 
L 5.421875 11.28125 
Q 10.40625 8.6875 15.234375 7.390625 
Q 20.0625 6.109375 24.8125 6.109375 
Q 31.15625 6.109375 34.5625 8.28125 
Q 37.984375 10.453125 37.984375 14.40625 
Q 37.984375 18.0625 35.515625 20.015625 
Q 33.0625 21.96875 24.703125 23.78125 
L 21.578125 24.515625 
Q 13.234375 26.265625 9.515625 29.90625 
Q 5.8125 33.546875 5.8125 39.890625 
Q 5.8125 47.609375 11.28125 51.796875 
Q 16.75 56 26.8125 56 
Q 31.78125 56 36.171875 55.265625 
Q 40.578125 54.546875 44.28125 53.078125 
z
" id="DejaVuSans-115"/>
      <path d="M 39.40625 66.21875 
Q 28.65625 66.21875 22.328125 58.203125 
Q 16.015625 50.203125 16.015625 36.375 
Q 16.015625 22.609375 22.328125 14.59375 
Q 28.65625 6.59375 39.40625 6.59375 
Q 50.140625 6.59375 56.421875 14.59375 
Q 62.703125 22.609375 62.703125 36.375 
Q 62.703125 50.203125 56.421875 58.203125 
Q 50.140625 66.21875 39.40625 66.21875 
z
M 53.21875 1.3125 
L 66.21875 -12.890625 
L 54.296875 -12.890625 
L 43.5 -1.21875 
Q 41.890625 -1.3125 41.03125 -1.359375 
Q 40.1875 -1.421875 39.40625 -1.421875 
Q 24.03125 -1.421875 14.8125 8.859375 
Q 5.609375 19.140625 5.609375 36.375 
Q 5.609375 53.65625 14.8125 63.9375 
Q 24.03125 74.21875 39.40625 74.21875 
Q 54.734375 74.21875 63.90625 63.9375 
Q 73.09375 53.65625 73.09375 36.375 
Q 73.09375 23.6875 67.984375 14.640625 
Q 62.890625 5.609375 53.21875 1.3125 
z
" id="DejaVuSans-81"/>
      <path d="M 11.71875 12.40625 
L 22.015625 12.40625 
L 22.015625 0 
L 11.71875 0 
z
M 11.71875 51.703125 
L 22.015625 51.703125 
L 22.015625 39.3125 
L 11.71875 39.3125 
z
" id="DejaVuSans-58"/>
      <path d="M 19.671875 64.796875 
L 19.671875 8.109375 
L 31.59375 8.109375 
Q 46.6875 8.109375 53.6875 14.9375 
Q 60.6875 21.78125 60.6875 36.53125 
Q 60.6875 51.171875 53.6875 57.984375 
Q 46.6875 64.796875 31.59375 64.796875 
z
M 9.8125 72.90625 
L 30.078125 72.90625 
Q 51.265625 72.90625 61.171875 64.09375 
Q 71.09375 55.28125 71.09375 36.53125 
Q 71.09375 17.671875 61.125 8.828125 
Q 51.171875 0 30.078125 0 
L 9.8125 0 
z
" id="DejaVuSans-68"/>
      <path d="M 9.421875 54.6875 
L 18.40625 54.6875 
L 18.40625 0 
L 9.421875 0 
z
M 9.421875 75.984375 
L 18.40625 75.984375 
L 18.40625 64.59375 
L 9.421875 64.59375 
z
" id="DejaVuSans-105"/>
      <path d="M 41.109375 46.296875 
Q 39.59375 47.171875 37.8125 47.578125 
Q 36.03125 48 33.890625 48 
Q 26.265625 48 22.1875 43.046875 
Q 18.109375 38.09375 18.109375 28.8125 
L 18.109375 0 
L 9.078125 0 
L 9.078125 54.6875 
L 18.109375 54.6875 
L 18.109375 46.1875 
Q 20.953125 51.171875 25.484375 53.578125 
Q 30.03125 56 36.53125 56 
Q 37.453125 56 38.578125 55.875 
Q 39.703125 55.765625 41.0625 55.515625 
z
" id="DejaVuSans-114"/>
     </defs>
     <use xlink:href="#DejaVuSans-70"/>
     <use x="48.394531" xlink:href="#DejaVuSans-97"/>
     <use x="109.673828" xlink:href="#DejaVuSans-115"/>
     <use x="161.773438" xlink:href="#DejaVuSans-116"/>
     <use x="200.982422" xlink:href="#DejaVuSans-81"/>
     <use x="279.693359" xlink:href="#DejaVuSans-67"/>
     <use x="349.517578" xlink:href="#DejaVuSans-58"/>
     <use x="383.208984" xlink:href="#DejaVuSans-32"/>
     <use x="414.996094" xlink:href="#DejaVuSans-83"/>
     <use x="478.472656" xlink:href="#DejaVuSans-101"/>
     <use x="539.996094" xlink:href="#DejaVuSans-113"/>
     <use x="603.472656" xlink:href="#DejaVuSans-117"/>
     <use x="666.851562" xlink:href="#DejaVuSans-101"/>
     <use x="728.375" xlink:href="#DejaVuSans-110"/>
     <use x="791.753906" xlink:href="#DejaVuSans-99"/>
     <use x="846.734375" xlink:href="#DejaVuSans-101"/>
     <use x="908.257812" xlink:href="#DejaVuSans-32"/>
     <use x="940.044922" xlink:href="#DejaVuSans-76"/>
     <use x="994.007812" xlink:href="#DejaVuSans-101"/>
     <use x="1055.53125" xlink:href="#DejaVuSans-110"/>
     <use x="1118.910156" xlink:href="#DejaVuSans-103"/>
     <use x="1182.386719" xlink:href="#DejaVuSans-116"/>
     <use x="1221.595703" xlink:href="#DejaVuSans-104"/>
     <use x="1284.974609" xlink:href="#DejaVuSans-32"/>
     <use x="1316.761719" xlink:href="#DejaVuSans-68"/>
     <use x="1393.763672" xlink:href="#DejaVuSans-105"/>
     <use x="1421.546875" xlink:href="#DejaVuSans-115"/>
     <use x="1473.646484" xlink:href="#DejaVuSans-116"/>
     <use x="1512.855469" xlink:href="#DejaVuSans-114"/>
     <use x="1553.96875" xlink:href="#DejaVuSans-105"/>
     <use x="1581.751953" xlink:href="#DejaVuSans-98"/>
     <use x="1645.228516" xlink:href="#DejaVuSans-117"/>
     <use x="1708.607422" xlink:href="#DejaVuSans-116"/>
     <use x="1747.816406" xlink:href="#DejaVuSans-105"/>
     <use x="1775.599609" xlink:href="#DejaVuSans-111"/>
     <use x="1836.78125" xlink:href="#DejaVuSans-110"/>
    </g>
   </g>
   <g id="legend_1">
    <g id="line2d_21">
     <path d="M 60.528125 291.525394 
L 76.528125 291.525394 
" style="fill:none;stroke:#f0ad4e;stroke-linecap:square;"/>
    </g>
    <g id="line2d_22"/>
    <g id="text_17">
     <!-- SPT5_INPUT_R1_T1_1 -->
     <g transform="translate(82.928125 294.325394)scale(0.08 -0.08)">
      <defs>
       <path d="M 19.671875 64.796875 
L 19.671875 37.40625 
L 32.078125 37.40625 
Q 38.96875 37.40625 42.71875 40.96875 
Q 46.484375 44.53125 46.484375 51.125 
Q 46.484375 57.671875 42.71875 61.234375 
Q 38.96875 64.796875 32.078125 64.796875 
z
M 9.8125 72.90625 
L 32.078125 72.90625 
Q 44.34375 72.90625 50.609375 67.359375 
Q 56.890625 61.8125 56.890625 51.125 
Q 56.890625 40.328125 50.609375 34.8125 
Q 44.34375 29.296875 32.078125 29.296875 
L 19.671875 29.296875 
L 19.671875 0 
L 9.8125 0 
z
" id="DejaVuSans-80"/>
       <path d="M -0.296875 72.90625 
L 61.375 72.90625 
L 61.375 64.59375 
L 35.5 64.59375 
L 35.5 0 
L 25.59375 0 
L 25.59375 64.59375 
L -0.296875 64.59375 
z
" id="DejaVuSans-84"/>
       <path d="M 50.984375 -16.609375 
L 50.984375 -23.578125 
L -0.984375 -23.578125 
L -0.984375 -16.609375 
z
" id="DejaVuSans-95"/>
       <path d="M 9.8125 72.90625 
L 19.671875 72.90625 
L 19.671875 0 
L 9.8125 0 
z
" id="DejaVuSans-73"/>
       <path d="M 9.8125 72.90625 
L 23.09375 72.90625 
L 55.421875 11.921875 
L 55.421875 72.90625 
L 64.984375 72.90625 
L 64.984375 0 
L 51.703125 0 
L 19.390625 60.984375 
L 19.390625 0 
L 9.8125 0 
z
" id="DejaVuSans-78"/>
       <path d="M 8.6875 72.90625 
L 18.609375 72.90625 
L 18.609375 28.609375 
Q 18.609375 16.890625 22.84375 11.734375 
Q 27.09375 6.59375 36.625 6.59375 
Q 46.09375 6.59375 50.34375 11.734375 
Q 54.59375 16.890625 54.59375 28.609375 
L 54.59375 72.90625 
L 64.5 72.90625 
L 64.5 27.390625 
Q 64.5 13.140625 57.4375 5.859375 
Q 50.390625 -1.421875 36.625 -1.421875 
Q 22.796875 -1.421875 15.734375 5.859375 
Q 8.6875 13.140625 8.6875 27.390625 
z
" id="DejaVuSans-85"/>
      </defs>
      <use xlink:href="#DejaVuSans-83"/>
      <use x="63.476562" xlink:href="#DejaVuSans-80"/>
      <use x="123.779297" xlink:href="#DejaVuSans-84"/>
      <use x="184.863281" xlink:href="#DejaVuSans-53"/>
      <use x="248.486328" xlink:href="#DejaVuSans-95"/>
      <use x="298.486328" xlink:href="#DejaVuSans-73"/>
      <use x="327.978516" xlink:href="#DejaVuSans-78"/>
      <use x="402.783203" xlink:href="#DejaVuSans-80"/>
      <use x="463.085938" xlink:href="#DejaVuSans-85"/>
      <use x="536.279297" xlink:href="#DejaVuSans-84"/>
      <use x="597.363281" xlink:href="#DejaVuSans-95"/>
      <use x="647.363281" xlink:href="#DejaVuSans-82"/>
      <use x="716.845703" xlink:href="#DejaVuSans-49"/>
      <use x="780.46875" xlink:href="#DejaVuSans-95"/>
      <use x="830.46875" xlink:href="#DejaVuSans-84"/>
      <use x="891.552734" xlink:href="#DejaVuSans-49"/>
      <use x="955.175781" xlink:href="#DejaVuSans-95"/>
      <use x="1005.175781" xlink:href="#DejaVuSans-49"/>
     </g>
    </g>
    <g id="line2d_23">
     <path d="M 60.528125 303.490394 
L 76.528125 303.490394 
" style="fill:none;stroke:#f0ad4e;stroke-linecap:square;"/>
    </g>
    <g id="line2d_24"/>
    <g id="text_18">
     <!-- SPT5_INPUT_R1_T1_2 -->
     <g transform="translate(82.928125 306.290394)scale(0.08 -0.08)">
      <use xlink:href="#DejaVuSans-83"/>
      <use x="63.476562" xlink:href="#DejaVuSans-80"/>
      <use x="123.779297" xlink:href="#DejaVuSans-84"/>
      <use x="184.863281" xlink:href="#DejaVuSans-53"/>
      <use x="248.486328" xlink:href="#DejaVuSans-95"/>
      <use x="298.486328" xlink:href="#DejaVuSans-73"/>
      <use x="327.978516" xlink:href="#DejaVuSans-78"/>
      <use x="402.783203" xlink:href="#DejaVuSans-80"/>
      <use x="463.085938" xlink:href="#DejaVuSans-85"/>
      <use x="536.279297" xlink:href="#DejaVuSans-84"/>
      <use x="597.363281" xlink:href="#DejaVuSans-95"/>
      <use x="647.363281" xlink:href="#DejaVuSans-82"/>
      <use x="716.845703" xlink:href="#DejaVuSans-49"/>
      <use x="780.46875" xlink:href="#DejaVuSans-95"/>
      <use x="830.46875" xlink:href="#DejaVuSans-84"/>
      <use x="891.552734" xlink:href="#DejaVuSans-49"/>
      <use x="955.175781" xlink:href="#DejaVuSans-95"/>
      <use x="1005.175781" xlink:href="#DejaVuSans-50"/>
     </g>
    </g>
    <g id="line2d_25">
     <path d="M 60.528125 315.455394 
L 76.528125 315.455394 
" style="fill:none;stroke:#f0ad4e;stroke-linecap:square;"/>
    </g>
    <g id="line2d_26"/>
    <g id="text_19">
     <!-- SPT5_INPUT_R2_T1_1 -->
     <g transform="translate(82.928125 318.255394)scale(0.08 -0.08)">
      <use xlink:href="#DejaVuSans-83"/>
      <use x="63.476562" xlink:href="#DejaVuSans-80"/>
      <use x="123.779297" xlink:href="#DejaVuSans-84"/>
      <use x="184.863281" xlink:href="#DejaVuSans-53"/>
      <use x="248.486328" xlink:href="#DejaVuSans-95"/>
      <use x="298.486328" xlink:href="#DejaVuSans-73"/>
      <use x="327.978516" xlink:href="#DejaVuSans-78"/>
      <use x="402.783203" xlink:href="#DejaVuSans-80"/>
      <use x="463.085938" xlink:href="#DejaVuSans-85"/>
      <use x="536.279297" xlink:href="#DejaVuSans-84"/>
      <use x="597.363281" xlink:href="#DejaVuSans-95"/>
      <use x="647.363281" xlink:href="#DejaVuSans-82"/>
      <use x="716.845703" xlink:href="#DejaVuSans-50"/>
      <use x="780.46875" xlink:href="#DejaVuSans-95"/>
      <use x="830.46875" xlink:href="#DejaVuSans-84"/>
      <use x="891.552734" xlink:href="#DejaVuSans-49"/>
      <use x="955.175781" xlink:href="#DejaVuSans-95"/>
      <use x="1005.175781" xlink:href="#DejaVuSans-49"/>
     </g>
    </g>
    <g id="line2d_27">
     <path d="M 272.775 291.525394 
L 288.775 291.525394 
" style="fill:none;stroke:#f0ad4e;stroke-linecap:square;"/>
    </g>
    <g id="line2d_28"/>
    <g id="text_20">
     <!-- SPT5_INPUT_R2_T1_2 -->
     <g transform="translate(295.175 294.325394)scale(0.08 -0.08)">
      <use xlink:href="#DejaVuSans-83"/>
      <use x="63.476562" xlink:href="#DejaVuSans-80"/>
      <use x="123.779297" xlink:href="#DejaVuSans-84"/>
      <use x="184.863281" xlink:href="#DejaVuSans-53"/>
      <use x="248.486328" xlink:href="#DejaVuSans-95"/>
      <use x="298.486328" xlink:href="#DejaVuSans-73"/>
      <use x="327.978516" xlink:href="#DejaVuSans-78"/>
      <use x="402.783203" xlink:href="#DejaVuSans-80"/>
      <use x="463.085938" xlink:href="#DejaVuSans-85"/>
      <use x="536.279297" xlink:href="#DejaVuSans-84"/>
      <use x="597.363281" xlink:href="#DejaVuSans-95"/>
      <use x="647.363281" xlink:href="#DejaVuSans-82"/>
      <use x="716.845703" xlink:href="#DejaVuSans-50"/>
      <use x="780.46875" xlink:href="#DejaVuSans-95"/>
      <use x="830.46875" xlink:href="#DejaVuSans-84"/>
      <use x="891.552734" xlink:href="#DejaVuSans-49"/>
      <use x="955.175781" xlink:href="#DejaVuSans-95"/>
      <use x="1005.175781" xlink:href="#DejaVuSans-50"/>
     </g>
    </g>
    <g id="line2d_29">
     <path d="M 272.775 303.490394 
L 288.775 303.490394 
" style="fill:none;stroke:#f0ad4e;stroke-linecap:square;"/>
    </g>
    <g id="line2d_30"/>
    <g id="text_21">
     <!-- SPT5_T0_R1_T1_1 -->
     <g transform="translate(295.175 306.290394)scale(0.08 -0.08)">
      <use xlink:href="#DejaVuSans-83"/>
      <use x="63.476562" xlink:href="#DejaVuSans-80"/>
      <use x="123.779297" xlink:href="#DejaVuSans-84"/>
      <use x="184.863281" xlink:href="#DejaVuSans-53"/>
      <use x="248.486328" xlink:href="#DejaVuSans-95"/>
      <use x="298.486328" xlink:href="#DejaVuSans-84"/>
      <use x="359.570312" xlink:href="#DejaVuSans-48"/>
      <use x="423.193359" xlink:href="#DejaVuSans-95"/>
      <use x="473.193359" xlink:href="#DejaVuSans-82"/>
      <use x="542.675781" xlink:href="#DejaVuSans-49"/>
      <use x="606.298828" xlink:href="#DejaVuSans-95"/>
      <use x="656.298828" xlink:href="#DejaVuSans-84"/>
      <use x="717.382812" xlink:href="#DejaVuSans-49"/>
      <use x="781.005859" xlink:href="#DejaVuSans-95"/>
      <use x="831.005859" xlink:href="#DejaVuSans-49"/>
     </g>
    </g>
    <g id="line2d_31">
     <path d="M 272.775 315.455394 
L 288.775 315.455394 
" style="fill:none;stroke:#f0ad4e;stroke-linecap:square;"/>
    </g>
    <g id="line2d_32"/>
    <g id="text_22">
     <!-- SPT5_T0_R1_T1_2 -->
     <g transform="translate(295.175 318.255394)scale(0.08 -0.08)">
      <use xlink:href="#DejaVuSans-83"/>
      <use x="63.476562" xlink:href="#DejaVuSans-80"/>
      <use x="123.779297" xlink:href="#DejaVuSans-84"/>
      <use x="184.863281" xlink:href="#DejaVuSans-53"/>
      <use x="248.486328" xlink:href="#DejaVuSans-95"/>
      <use x="298.486328" xlink:href="#DejaVuSans-84"/>
      <use x="359.570312" xlink:href="#DejaVuSans-48"/>
      <use x="423.193359" xlink:href="#DejaVuSans-95"/>
      <use x="473.193359" xlink:href="#DejaVuSans-82"/>
      <use x="542.675781" xlink:href="#DejaVuSans-49"/>
      <use x="606.298828" xlink:href="#DejaVuSans-95"/>
      <use x="656.298828" xlink:href="#DejaVuSans-84"/>
      <use x="717.382812" xlink:href="#DejaVuSans-49"/>
      <use x="781.005859" xlink:href="#DejaVuSans-95"/>
      <use x="831.005859" xlink:href="#DejaVuSans-50"/>
     </g>
    </g>
    <g id="line2d_33">
     <path d="M 485.021875 291.525394 
L 501.021875 291.525394 
" style="fill:none;stroke:#f0ad4e;stroke-linecap:square;"/>
    </g>
    <g id="line2d_34"/>
    <g id="text_23">
     <!-- SPT5_T0_R2_T1_1 -->
     <g transform="translate(507.421875 294.325394)scale(0.08 -0.08)">
      <use xlink:href="#DejaVuSans-83"/>
      <use x="63.476562" xlink:href="#DejaVuSans-80"/>
      <use x="123.779297" xlink:href="#DejaVuSans-84"/>
      <use x="184.863281" xlink:href="#DejaVuSans-53"/>
      <use x="248.486328" xlink:href="#DejaVuSans-95"/>
      <use x="298.486328" xlink:href="#DejaVuSans-84"/>
      <use x="359.570312" xlink:href="#DejaVuSans-48"/>
      <use x="423.193359" xlink:href="#DejaVuSans-95"/>
      <use x="473.193359" xlink:href="#DejaVuSans-82"/>
      <use x="542.675781" xlink:href="#DejaVuSans-50"/>
      <use x="606.298828" xlink:href="#DejaVuSans-95"/>
      <use x="656.298828" xlink:href="#DejaVuSans-84"/>
      <use x="717.382812" xlink:href="#DejaVuSans-49"/>
      <use x="781.005859" xlink:href="#DejaVuSans-95"/>
      <use x="831.005859" xlink:href="#DejaVuSans-49"/>
     </g>
    </g>
    <g id="line2d_35">
     <path d="M 485.021875 303.490394 
L 501.021875 303.490394 
" style="fill:none;stroke:#f0ad4e;stroke-linecap:square;"/>
    </g>
    <g id="line2d_36"/>
    <g id="text_24">
     <!-- SPT5_T0_R2_T1_2 -->
     <g transform="translate(507.421875 306.290394)scale(0.08 -0.08)">
      <use xlink:href="#DejaVuSans-83"/>
      <use x="63.476562" xlink:href="#DejaVuSans-80"/>
      <use x="123.779297" xlink:href="#DejaVuSans-84"/>
      <use x="184.863281" xlink:href="#DejaVuSans-53"/>
      <use x="248.486328" xlink:href="#DejaVuSans-95"/>
      <use x="298.486328" xlink:href="#DejaVuSans-84"/>
      <use x="359.570312" xlink:href="#DejaVuSans-48"/>
      <use x="423.193359" xlink:href="#DejaVuSans-95"/>
      <use x="473.193359" xlink:href="#DejaVuSans-82"/>
      <use x="542.675781" xlink:href="#DejaVuSans-50"/>
      <use x="606.298828" xlink:href="#DejaVuSans-95"/>
      <use x="656.298828" xlink:href="#DejaVuSans-84"/>
      <use x="717.382812" xlink:href="#DejaVuSans-49"/>
      <use x="781.005859" xlink:href="#DejaVuSans-95"/>
      <use x="831.005859" xlink:href="#DejaVuSans-50"/>
     </g>
    </g>
    <g id="line2d_37">
     <path d="M 683.335 291.525394 
L 699.335 291.525394 
" style="fill:none;stroke:#f0ad4e;stroke-linecap:square;"/>
    </g>
    <g id="line2d_38"/>
    <g id="text_25">
     <!-- SPT5_T15_R1_T1_1 -->
     <g transform="translate(705.735 294.325394)scale(0.08 -0.08)">
      <use xlink:href="#DejaVuSans-83"/>
      <use x="63.476562" xlink:href="#DejaVuSans-80"/>
      <use x="123.779297" xlink:href="#DejaVuSans-84"/>
      <use x="184.863281" xlink:href="#DejaVuSans-53"/>
      <use x="248.486328" xlink:href="#DejaVuSans-95"/>
      <use x="298.486328" xlink:href="#DejaVuSans-84"/>
      <use x="359.570312" xlink:href="#DejaVuSans-49"/>
      <use x="423.193359" xlink:href="#DejaVuSans-53"/>
      <use x="486.816406" xlink:href="#DejaVuSans-95"/>
      <use x="536.816406" xlink:href="#DejaVuSans-82"/>
      <use x="606.298828" xlink:href="#DejaVuSans-49"/>
      <use x="669.921875" xlink:href="#DejaVuSans-95"/>
      <use x="719.921875" xlink:href="#DejaVuSans-84"/>
      <use x="781.005859" xlink:href="#DejaVuSans-49"/>
      <use x="844.628906" xlink:href="#DejaVuSans-95"/>
      <use x="894.628906" xlink:href="#DejaVuSans-49"/>
     </g>
    </g>
    <g id="line2d_39">
     <path d="M 683.335 303.490394 
L 699.335 303.490394 
" style="fill:none;stroke:#f0ad4e;stroke-linecap:square;"/>
    </g>
    <g id="line2d_40"/>
    <g id="text_26">
     <!-- SPT5_T15_R1_T1_2 -->
     <g transform="translate(705.735 306.290394)scale(0.08 -0.08)">
      <use xlink:href="#DejaVuSans-83"/>
      <use x="63.476562" xlink:href="#DejaVuSans-80"/>
      <use x="123.779297" xlink:href="#DejaVuSans-84"/>
      <use x="184.863281" xlink:href="#DejaVuSans-53"/>
      <use x="248.486328" xlink:href="#DejaVuSans-95"/>
      <use x="298.486328" xlink:href="#DejaVuSans-84"/>
      <use x="359.570312" xlink:href="#DejaVuSans-49"/>
      <use x="423.193359" xlink:href="#DejaVuSans-53"/>
      <use x="486.816406" xlink:href="#DejaVuSans-95"/>
      <use x="536.816406" xlink:href="#DejaVuSans-82"/>
      <use x="606.298828" xlink:href="#DejaVuSans-49"/>
      <use x="669.921875" xlink:href="#DejaVuSans-95"/>
      <use x="719.921875" xlink:href="#DejaVuSans-84"/>
      <use x="781.005859" xlink:href="#DejaVuSans-49"/>
      <use x="844.628906" xlink:href="#DejaVuSans-95"/>
      <use x="894.628906" xlink:href="#DejaVuSans-50"/>
     </g>
    </g>
    <g id="line2d_41">
     <path d="M 886.738125 291.525394 
L 902.738125 291.525394 
" style="fill:none;stroke:#f0ad4e;stroke-linecap:square;"/>
    </g>
    <g id="line2d_42"/>
    <g id="text_27">
     <!-- SPT5_T15_R2_T1_1 -->
     <g transform="translate(909.138125 294.325394)scale(0.08 -0.08)">
      <use xlink:href="#DejaVuSans-83"/>
      <use x="63.476562" xlink:href="#DejaVuSans-80"/>
      <use x="123.779297" xlink:href="#DejaVuSans-84"/>
      <use x="184.863281" xlink:href="#DejaVuSans-53"/>
      <use x="248.486328" xlink:href="#DejaVuSans-95"/>
      <use x="298.486328" xlink:href="#DejaVuSans-84"/>
      <use x="359.570312" xlink:href="#DejaVuSans-49"/>
      <use x="423.193359" xlink:href="#DejaVuSans-53"/>
      <use x="486.816406" xlink:href="#DejaVuSans-95"/>
      <use x="536.816406" xlink:href="#DejaVuSans-82"/>
      <use x="606.298828" xlink:href="#DejaVuSans-50"/>
      <use x="669.921875" xlink:href="#DejaVuSans-95"/>
      <use x="719.921875" xlink:href="#DejaVuSans-84"/>
      <use x="781.005859" xlink:href="#DejaVuSans-49"/>
      <use x="844.628906" xlink:href="#DejaVuSans-95"/>
      <use x="894.628906" xlink:href="#DejaVuSans-49"/>
     </g>
    </g>
    <g id="line2d_43">
     <path d="M 886.738125 303.490394 
L 902.738125 303.490394 
" style="fill:none;stroke:#f0ad4e;stroke-linecap:square;"/>
    </g>
    <g id="line2d_44"/>
    <g id="text_28">
     <!-- SPT5_T15_R2_T1_2 -->
     <g transform="translate(909.138125 306.290394)scale(0.08 -0.08)">
      <use xlink:href="#DejaVuSans-83"/>
      <use x="63.476562" xlink:href="#DejaVuSans-80"/>
      <use x="123.779297" xlink:href="#DejaVuSans-84"/>
      <use x="184.863281" xlink:href="#DejaVuSans-53"/>
      <use x="248.486328" xlink:href="#DejaVuSans-95"/>
      <use x="298.486328" xlink:href="#DejaVuSans-84"/>
      <use x="359.570312" xlink:href="#DejaVuSans-49"/>
      <use x="423.193359" xlink:href="#DejaVuSans-53"/>
      <use x="486.816406" xlink:href="#DejaVuSans-95"/>
      <use x="536.816406" xlink:href="#DejaVuSans-82"/>
      <use x="606.298828" xlink:href="#DejaVuSans-50"/>
      <use x="669.921875" xlink:href="#DejaVuSans-95"/>
      <use x="719.921875" xlink:href="#DejaVuSans-84"/>
      <use x="781.005859" xlink:href="#DejaVuSans-49"/>
      <use x="844.628906" xlink:href="#DejaVuSans-95"/>
      <use x="894.628906" xlink:href="#DejaVuSans-50"/>
     </g>
    </g>
   </g>
  </g>
 </g>
 <defs>
  <clipPath id="pfffa684a16">
   <rect height="242.5072" width="939.67" x="53.328125" y="31.48286"/>
  </clipPath>
 </defs>
</svg>
