<?xml version="1.0" encoding="utf-8" standalone="no"?>
<!DOCTYPE svg PUBLIC "-//W3C//DTD SVG 1.1//EN"
  "http://www.w3.org/Graphics/SVG/1.1/DTD/svg11.dtd">
<!-- Created with matplotlib (https://matplotlib.org/) -->
<svg height="330.541644pt" version="1.1" viewBox="0 0 1000.318125 330.541644" width="1000.318125pt" xmlns="http://www.w3.org/2000/svg" xmlns:xlink="http://www.w3.org/1999/xlink">
 <metadata>
  <rdf:RDF xmlns:cc="http://creativecommons.org/ns#" xmlns:dc="http://purl.org/dc/elements/1.1/" xmlns:rdf="http://www.w3.org/1999/02/22-rdf-syntax-ns#">
   <cc:Work>
    <dc:type rdf:resource="http://purl.org/dc/dcmitype/StillImage"/>
    <dc:date>2021-02-13T18:39:47.151864</dc:date>
    <dc:format>image/svg+xml</dc:format>
    <dc:creator>
     <cc:Agent>
      <dc:title>Matplotlib v3.3.0, https://matplotlib.org/</dc:title>
     </cc:Agent>
    </dc:creator>
   </cc:Work>
  </rdf:RDF>
 </metadata>
 <defs>
  <style type="text/css">*{stroke-linecap:butt;stroke-linejoin:round;}</style>
 </defs>
 <g id="figure_1">
  <g id="axes_1">
   <g id="patch_1">
    <path d="M 38.058125 273.99006 
L 993.118125 273.99006 
L 993.118125 31.48286 
L 38.058125 31.48286 
z
" style="fill:#ffffff;"/>
   </g>
   <g id="patch_2">
    <path clip-path="url(#p4a9f72974d)" d="M 38.058125 92.568091 
L 963.2725 92.568091 
L 963.2725 -633.119787 
L 38.058125 -633.119787 
z
" style="fill:#e6c3c3;"/>
   </g>
   <g id="patch_3">
    <path clip-path="url(#p4a9f72974d)" d="M 38.058125 228.634568 
L 963.2725 228.634568 
L 963.2725 92.568091 
L 38.058125 92.568091 
z
" style="fill:#e6dcc3;"/>
   </g>
   <g id="patch_4">
    <path clip-path="url(#p4a9f72974d)" d="M 38.058125 273.99006 
L 963.2725 273.99006 
L 963.2725 228.634568 
L 38.058125 228.634568 
z
" style="fill:#c3e6c3;"/>
   </g>
   <g id="matplotlib.axis_1">
    <g id="xtick_1">
     <g id="text_1">
      <!-- 0 -->
      <g transform="translate(65.35875 287.06881)scale(0.08 -0.08)">
       <defs>
        <path d="M 31.78125 66.40625 
Q 24.171875 66.40625 20.328125 58.90625 
Q 16.5 51.421875 16.5 36.375 
Q 16.5 21.390625 20.328125 13.890625 
Q 24.171875 6.390625 31.78125 6.390625 
Q 39.453125 6.390625 43.28125 13.890625 
Q 47.125 21.390625 47.125 36.375 
Q 47.125 51.421875 43.28125 58.90625 
Q 39.453125 66.40625 31.78125 66.40625 
z
M 31.78125 74.21875 
Q 44.046875 74.21875 50.515625 64.515625 
Q 56.984375 54.828125 56.984375 36.375 
Q 56.984375 17.96875 50.515625 8.265625 
Q 44.046875 -1.421875 31.78125 -1.421875 
Q 19.53125 -1.421875 13.0625 8.265625 
Q 6.59375 17.96875 6.59375 36.375 
Q 6.59375 54.828125 13.0625 64.515625 
Q 19.53125 74.21875 31.78125 74.21875 
z
" id="DejaVuSans-48"/>
       </defs>
       <use xlink:href="#DejaVuSans-48"/>
      </g>
     </g>
    </g>
    <g id="xtick_2">
     <g id="text_2">
      <!-- 10 -->
      <g transform="translate(198.475682 287.06881)scale(0.08 -0.08)">
       <defs>
        <path d="M 12.40625 8.296875 
L 28.515625 8.296875 
L 28.515625 63.921875 
L 10.984375 60.40625 
L 10.984375 69.390625 
L 28.421875 72.90625 
L 38.28125 72.90625 
L 38.28125 8.296875 
L 54.390625 8.296875 
L 54.390625 0 
L 12.40625 0 
z
" id="DejaVuSans-49"/>
       </defs>
       <use xlink:href="#DejaVuSans-49"/>
       <use x="63.623047" xlink:href="#DejaVuSans-48"/>
      </g>
     </g>
    </g>
    <g id="xtick_3">
     <g id="text_3">
      <!-- 20 -->
      <g transform="translate(334.137614 287.06881)scale(0.08 -0.08)">
       <defs>
        <path d="M 19.1875 8.296875 
L 53.609375 8.296875 
L 53.609375 0 
L 7.328125 0 
L 7.328125 8.296875 
Q 12.9375 14.109375 22.625 23.890625 
Q 32.328125 33.6875 34.8125 36.53125 
Q 39.546875 41.84375 41.421875 45.53125 
Q 43.3125 49.21875 43.3125 52.78125 
Q 43.3125 58.59375 39.234375 62.25 
Q 35.15625 65.921875 28.609375 65.921875 
Q 23.96875 65.921875 18.8125 64.3125 
Q 13.671875 62.703125 7.8125 59.421875 
L 7.8125 69.390625 
Q 13.765625 71.78125 18.9375 73 
Q 24.125 74.21875 28.421875 74.21875 
Q 39.75 74.21875 46.484375 68.546875 
Q 53.21875 62.890625 53.21875 53.421875 
Q 53.21875 48.921875 51.53125 44.890625 
Q 49.859375 40.875 45.40625 35.40625 
Q 44.1875 33.984375 37.640625 27.21875 
Q 31.109375 20.453125 19.1875 8.296875 
z
" id="DejaVuSans-50"/>
       </defs>
       <use xlink:href="#DejaVuSans-50"/>
       <use x="63.623047" xlink:href="#DejaVuSans-48"/>
      </g>
     </g>
    </g>
    <g id="xtick_4">
     <g id="text_4">
      <!-- 30 -->
      <g transform="translate(469.799545 287.06881)scale(0.08 -0.08)">
       <defs>
        <path d="M 40.578125 39.3125 
Q 47.65625 37.796875 51.625 33 
Q 55.609375 28.21875 55.609375 21.1875 
Q 55.609375 10.40625 48.1875 4.484375 
Q 40.765625 -1.421875 27.09375 -1.421875 
Q 22.515625 -1.421875 17.65625 -0.515625 
Q 12.796875 0.390625 7.625 2.203125 
L 7.625 11.71875 
Q 11.71875 9.328125 16.59375 8.109375 
Q 21.484375 6.890625 26.8125 6.890625 
Q 36.078125 6.890625 40.9375 10.546875 
Q 45.796875 14.203125 45.796875 21.1875 
Q 45.796875 27.640625 41.28125 31.265625 
Q 36.765625 34.90625 28.71875 34.90625 
L 20.21875 34.90625 
L 20.21875 43.015625 
L 29.109375 43.015625 
Q 36.375 43.015625 40.234375 45.921875 
Q 44.09375 48.828125 44.09375 54.296875 
Q 44.09375 59.90625 40.109375 62.90625 
Q 36.140625 65.921875 28.71875 65.921875 
Q 24.65625 65.921875 20.015625 65.03125 
Q 15.375 64.15625 9.8125 62.3125 
L 9.8125 71.09375 
Q 15.4375 72.65625 20.34375 73.4375 
Q 25.25 74.21875 29.59375 74.21875 
Q 40.828125 74.21875 47.359375 69.109375 
Q 53.90625 64.015625 53.90625 55.328125 
Q 53.90625 49.265625 50.4375 45.09375 
Q 46.96875 40.921875 40.578125 39.3125 
z
" id="DejaVuSans-51"/>
       </defs>
       <use xlink:href="#DejaVuSans-51"/>
       <use x="63.623047" xlink:href="#DejaVuSans-48"/>
      </g>
     </g>
    </g>
    <g id="xtick_5">
     <g id="text_5">
      <!-- 40 -->
      <g transform="translate(605.461477 287.06881)scale(0.08 -0.08)">
       <defs>
        <path d="M 37.796875 64.3125 
L 12.890625 25.390625 
L 37.796875 25.390625 
z
M 35.203125 72.90625 
L 47.609375 72.90625 
L 47.609375 25.390625 
L 58.015625 25.390625 
L 58.015625 17.1875 
L 47.609375 17.1875 
L 47.609375 0 
L 37.796875 0 
L 37.796875 17.1875 
L 4.890625 17.1875 
L 4.890625 26.703125 
z
" id="DejaVuSans-52"/>
       </defs>
       <use xlink:href="#DejaVuSans-52"/>
       <use x="63.623047" xlink:href="#DejaVuSans-48"/>
      </g>
     </g>
    </g>
    <g id="xtick_6">
     <g id="text_6">
      <!-- 50 -->
      <g transform="translate(741.123409 287.06881)scale(0.08 -0.08)">
       <defs>
        <path d="M 10.796875 72.90625 
L 49.515625 72.90625 
L 49.515625 64.59375 
L 19.828125 64.59375 
L 19.828125 46.734375 
Q 21.96875 47.46875 24.109375 47.828125 
Q 26.265625 48.1875 28.421875 48.1875 
Q 40.625 48.1875 47.75 41.5 
Q 54.890625 34.8125 54.890625 23.390625 
Q 54.890625 11.625 47.5625 5.09375 
Q 40.234375 -1.421875 26.90625 -1.421875 
Q 22.3125 -1.421875 17.546875 -0.640625 
Q 12.796875 0.140625 7.71875 1.703125 
L 7.71875 11.625 
Q 12.109375 9.234375 16.796875 8.0625 
Q 21.484375 6.890625 26.703125 6.890625 
Q 35.15625 6.890625 40.078125 11.328125 
Q 45.015625 15.765625 45.015625 23.390625 
Q 45.015625 31 40.078125 35.4375 
Q 35.15625 39.890625 26.703125 39.890625 
Q 22.75 39.890625 18.8125 39.015625 
Q 14.890625 38.140625 10.796875 36.28125 
z
" id="DejaVuSans-53"/>
       </defs>
       <use xlink:href="#DejaVuSans-53"/>
       <use x="63.623047" xlink:href="#DejaVuSans-48"/>
      </g>
     </g>
    </g>
    <g id="xtick_7">
     <g id="text_7">
      <!-- 60 -->
      <g transform="translate(876.785341 287.06881)scale(0.08 -0.08)">
       <defs>
        <path d="M 33.015625 40.375 
Q 26.375 40.375 22.484375 35.828125 
Q 18.609375 31.296875 18.609375 23.390625 
Q 18.609375 15.53125 22.484375 10.953125 
Q 26.375 6.390625 33.015625 6.390625 
Q 39.65625 6.390625 43.53125 10.953125 
Q 47.40625 15.53125 47.40625 23.390625 
Q 47.40625 31.296875 43.53125 35.828125 
Q 39.65625 40.375 33.015625 40.375 
z
M 52.59375 71.296875 
L 52.59375 62.3125 
Q 48.875 64.0625 45.09375 64.984375 
Q 41.3125 65.921875 37.59375 65.921875 
Q 27.828125 65.921875 22.671875 59.328125 
Q 17.53125 52.734375 16.796875 39.40625 
Q 19.671875 43.65625 24.015625 45.921875 
Q 28.375 48.1875 33.59375 48.1875 
Q 44.578125 48.1875 50.953125 41.515625 
Q 57.328125 34.859375 57.328125 23.390625 
Q 57.328125 12.15625 50.6875 5.359375 
Q 44.046875 -1.421875 33.015625 -1.421875 
Q 20.359375 -1.421875 13.671875 8.265625 
Q 6.984375 17.96875 6.984375 36.375 
Q 6.984375 53.65625 15.1875 63.9375 
Q 23.390625 74.21875 37.203125 74.21875 
Q 40.921875 74.21875 44.703125 73.484375 
Q 48.484375 72.75 52.59375 71.296875 
z
" id="DejaVuSans-54"/>
       </defs>
       <use xlink:href="#DejaVuSans-54"/>
       <use x="63.623047" xlink:href="#DejaVuSans-48"/>
      </g>
     </g>
    </g>
    <g id="text_8">
     <!-- Position (bp) -->
     <g transform="translate(484.285 300.330997)scale(0.1 -0.1)">
      <defs>
       <path d="M 19.671875 64.796875 
L 19.671875 37.40625 
L 32.078125 37.40625 
Q 38.96875 37.40625 42.71875 40.96875 
Q 46.484375 44.53125 46.484375 51.125 
Q 46.484375 57.671875 42.71875 61.234375 
Q 38.96875 64.796875 32.078125 64.796875 
z
M 9.8125 72.90625 
L 32.078125 72.90625 
Q 44.34375 72.90625 50.609375 67.359375 
Q 56.890625 61.8125 56.890625 51.125 
Q 56.890625 40.328125 50.609375 34.8125 
Q 44.34375 29.296875 32.078125 29.296875 
L 19.671875 29.296875 
L 19.671875 0 
L 9.8125 0 
z
" id="DejaVuSans-80"/>
       <path d="M 30.609375 48.390625 
Q 23.390625 48.390625 19.1875 42.75 
Q 14.984375 37.109375 14.984375 27.296875 
Q 14.984375 17.484375 19.15625 11.84375 
Q 23.34375 6.203125 30.609375 6.203125 
Q 37.796875 6.203125 41.984375 11.859375 
Q 46.1875 17.53125 46.1875 27.296875 
Q 46.1875 37.015625 41.984375 42.703125 
Q 37.796875 48.390625 30.609375 48.390625 
z
M 30.609375 56 
Q 42.328125 56 49.015625 48.375 
Q 55.71875 40.765625 55.71875 27.296875 
Q 55.71875 13.875 49.015625 6.21875 
Q 42.328125 -1.421875 30.609375 -1.421875 
Q 18.84375 -1.421875 12.171875 6.21875 
Q 5.515625 13.875 5.515625 27.296875 
Q 5.515625 40.765625 12.171875 48.375 
Q 18.84375 56 30.609375 56 
z
" id="DejaVuSans-111"/>
       <path d="M 44.28125 53.078125 
L 44.28125 44.578125 
Q 40.484375 46.53125 36.375 47.5 
Q 32.28125 48.484375 27.875 48.484375 
Q 21.1875 48.484375 17.84375 46.4375 
Q 14.5 44.390625 14.5 40.28125 
Q 14.5 37.15625 16.890625 35.375 
Q 19.28125 33.59375 26.515625 31.984375 
L 29.59375 31.296875 
Q 39.15625 29.25 43.1875 25.515625 
Q 47.21875 21.78125 47.21875 15.09375 
Q 47.21875 7.46875 41.1875 3.015625 
Q 35.15625 -1.421875 24.609375 -1.421875 
Q 20.21875 -1.421875 15.453125 -0.5625 
Q 10.6875 0.296875 5.421875 2 
L 5.421875 11.28125 
Q 10.40625 8.6875 15.234375 7.390625 
Q 20.0625 6.109375 24.8125 6.109375 
Q 31.15625 6.109375 34.5625 8.28125 
Q 37.984375 10.453125 37.984375 14.40625 
Q 37.984375 18.0625 35.515625 20.015625 
Q 33.0625 21.96875 24.703125 23.78125 
L 21.578125 24.515625 
Q 13.234375 26.265625 9.515625 29.90625 
Q 5.8125 33.546875 5.8125 39.890625 
Q 5.8125 47.609375 11.28125 51.796875 
Q 16.75 56 26.8125 56 
Q 31.78125 56 36.171875 55.265625 
Q 40.578125 54.546875 44.28125 53.078125 
z
" id="DejaVuSans-115"/>
       <path d="M 9.421875 54.6875 
L 18.40625 54.6875 
L 18.40625 0 
L 9.421875 0 
z
M 9.421875 75.984375 
L 18.40625 75.984375 
L 18.40625 64.59375 
L 9.421875 64.59375 
z
" id="DejaVuSans-105"/>
       <path d="M 18.3125 70.21875 
L 18.3125 54.6875 
L 36.8125 54.6875 
L 36.8125 47.703125 
L 18.3125 47.703125 
L 18.3125 18.015625 
Q 18.3125 11.328125 20.140625 9.421875 
Q 21.96875 7.515625 27.59375 7.515625 
L 36.8125 7.515625 
L 36.8125 0 
L 27.59375 0 
Q 17.1875 0 13.234375 3.875 
Q 9.28125 7.765625 9.28125 18.015625 
L 9.28125 47.703125 
L 2.6875 47.703125 
L 2.6875 54.6875 
L 9.28125 54.6875 
L 9.28125 70.21875 
z
" id="DejaVuSans-116"/>
       <path d="M 54.890625 33.015625 
L 54.890625 0 
L 45.90625 0 
L 45.90625 32.71875 
Q 45.90625 40.484375 42.875 44.328125 
Q 39.84375 48.1875 33.796875 48.1875 
Q 26.515625 48.1875 22.3125 43.546875 
Q 18.109375 38.921875 18.109375 30.90625 
L 18.109375 0 
L 9.078125 0 
L 9.078125 54.6875 
L 18.109375 54.6875 
L 18.109375 46.1875 
Q 21.34375 51.125 25.703125 53.5625 
Q 30.078125 56 35.796875 56 
Q 45.21875 56 50.046875 50.171875 
Q 54.890625 44.34375 54.890625 33.015625 
z
" id="DejaVuSans-110"/>
       <path id="DejaVuSans-32"/>
       <path d="M 31 75.875 
Q 24.46875 64.65625 21.28125 53.65625 
Q 18.109375 42.671875 18.109375 31.390625 
Q 18.109375 20.125 21.3125 9.0625 
Q 24.515625 -2 31 -13.1875 
L 23.1875 -13.1875 
Q 15.875 -1.703125 12.234375 9.375 
Q 8.59375 20.453125 8.59375 31.390625 
Q 8.59375 42.28125 12.203125 53.3125 
Q 15.828125 64.359375 23.1875 75.875 
z
" id="DejaVuSans-40"/>
       <path d="M 48.6875 27.296875 
Q 48.6875 37.203125 44.609375 42.84375 
Q 40.53125 48.484375 33.40625 48.484375 
Q 26.265625 48.484375 22.1875 42.84375 
Q 18.109375 37.203125 18.109375 27.296875 
Q 18.109375 17.390625 22.1875 11.75 
Q 26.265625 6.109375 33.40625 6.109375 
Q 40.53125 6.109375 44.609375 11.75 
Q 48.6875 17.390625 48.6875 27.296875 
z
M 18.109375 46.390625 
Q 20.953125 51.265625 25.265625 53.625 
Q 29.59375 56 35.59375 56 
Q 45.5625 56 51.78125 48.09375 
Q 58.015625 40.1875 58.015625 27.296875 
Q 58.015625 14.40625 51.78125 6.484375 
Q 45.5625 -1.421875 35.59375 -1.421875 
Q 29.59375 -1.421875 25.265625 0.953125 
Q 20.953125 3.328125 18.109375 8.203125 
L 18.109375 0 
L 9.078125 0 
L 9.078125 75.984375 
L 18.109375 75.984375 
z
" id="DejaVuSans-98"/>
       <path d="M 18.109375 8.203125 
L 18.109375 -20.796875 
L 9.078125 -20.796875 
L 9.078125 54.6875 
L 18.109375 54.6875 
L 18.109375 46.390625 
Q 20.953125 51.265625 25.265625 53.625 
Q 29.59375 56 35.59375 56 
Q 45.5625 56 51.78125 48.09375 
Q 58.015625 40.1875 58.015625 27.296875 
Q 58.015625 14.40625 51.78125 6.484375 
Q 45.5625 -1.421875 35.59375 -1.421875 
Q 29.59375 -1.421875 25.265625 0.953125 
Q 20.953125 3.328125 18.109375 8.203125 
z
M 48.6875 27.296875 
Q 48.6875 37.203125 44.609375 42.84375 
Q 40.53125 48.484375 33.40625 48.484375 
Q 26.265625 48.484375 22.1875 42.84375 
Q 18.109375 37.203125 18.109375 27.296875 
Q 18.109375 17.390625 22.1875 11.75 
Q 26.265625 6.109375 33.40625 6.109375 
Q 40.53125 6.109375 44.609375 11.75 
Q 48.6875 17.390625 48.6875 27.296875 
z
" id="DejaVuSans-112"/>
       <path d="M 8.015625 75.875 
L 15.828125 75.875 
Q 23.140625 64.359375 26.78125 53.3125 
Q 30.421875 42.28125 30.421875 31.390625 
Q 30.421875 20.453125 26.78125 9.375 
Q 23.140625 -1.703125 15.828125 -13.1875 
L 8.015625 -13.1875 
Q 14.5 -2 17.703125 9.0625 
Q 20.90625 20.125 20.90625 31.390625 
Q 20.90625 42.671875 17.703125 53.65625 
Q 14.5 64.65625 8.015625 75.875 
z
" id="DejaVuSans-41"/>
      </defs>
      <use xlink:href="#DejaVuSans-80"/>
      <use x="56.677734" xlink:href="#DejaVuSans-111"/>
      <use x="117.859375" xlink:href="#DejaVuSans-115"/>
      <use x="169.958984" xlink:href="#DejaVuSans-105"/>
      <use x="197.742188" xlink:href="#DejaVuSans-116"/>
      <use x="236.951172" xlink:href="#DejaVuSans-105"/>
      <use x="264.734375" xlink:href="#DejaVuSans-111"/>
      <use x="325.916016" xlink:href="#DejaVuSans-110"/>
      <use x="389.294922" xlink:href="#DejaVuSans-32"/>
      <use x="421.082031" xlink:href="#DejaVuSans-40"/>
      <use x="460.095703" xlink:href="#DejaVuSans-98"/>
      <use x="523.572266" xlink:href="#DejaVuSans-112"/>
      <use x="587.048828" xlink:href="#DejaVuSans-41"/>
     </g>
    </g>
   </g>
   <g id="matplotlib.axis_2">
    <g id="ytick_1">
     <g id="line2d_1">
      <path clip-path="url(#p4a9f72974d)" d="M 38.058125 273.99006 
L 993.118125 273.99006 
" style="fill:none;stroke:#dedede;stroke-linecap:square;"/>
     </g>
     <g id="text_9">
      <!-- 0 -->
      <g transform="translate(25.968125 277.029435)scale(0.08 -0.08)">
       <use xlink:href="#DejaVuSans-48"/>
      </g>
     </g>
    </g>
    <g id="ytick_2">
     <g id="line2d_2">
      <path clip-path="url(#p4a9f72974d)" d="M 38.058125 228.634568 
L 993.118125 228.634568 
" style="fill:none;stroke:#dedede;stroke-linecap:square;"/>
     </g>
     <g id="text_10">
      <!-- 5 -->
      <g transform="translate(25.968125 231.673943)scale(0.08 -0.08)">
       <use xlink:href="#DejaVuSans-53"/>
      </g>
     </g>
    </g>
    <g id="ytick_3">
     <g id="line2d_3">
      <path clip-path="url(#p4a9f72974d)" d="M 38.058125 183.279075 
L 993.118125 183.279075 
" style="fill:none;stroke:#dedede;stroke-linecap:square;"/>
     </g>
     <g id="text_11">
      <!-- 10 -->
      <g transform="translate(20.878125 186.31845)scale(0.08 -0.08)">
       <use xlink:href="#DejaVuSans-49"/>
       <use x="63.623047" xlink:href="#DejaVuSans-48"/>
      </g>
     </g>
    </g>
    <g id="ytick_4">
     <g id="line2d_4">
      <path clip-path="url(#p4a9f72974d)" d="M 38.058125 137.923583 
L 993.118125 137.923583 
" style="fill:none;stroke:#dedede;stroke-linecap:square;"/>
     </g>
     <g id="text_12">
      <!-- 15 -->
      <g transform="translate(20.878125 140.962958)scale(0.08 -0.08)">
       <use xlink:href="#DejaVuSans-49"/>
       <use x="63.623047" xlink:href="#DejaVuSans-53"/>
      </g>
     </g>
    </g>
    <g id="ytick_5">
     <g id="line2d_5">
      <path clip-path="url(#p4a9f72974d)" d="M 38.058125 92.568091 
L 993.118125 92.568091 
" style="fill:none;stroke:#dedede;stroke-linecap:square;"/>
     </g>
     <g id="text_13">
      <!-- 20 -->
      <g transform="translate(20.878125 95.607466)scale(0.08 -0.08)">
       <use xlink:href="#DejaVuSans-50"/>
       <use x="63.623047" xlink:href="#DejaVuSans-48"/>
      </g>
     </g>
    </g>
    <g id="ytick_6">
     <g id="line2d_6">
      <path clip-path="url(#p4a9f72974d)" d="M 38.058125 47.212598 
L 993.118125 47.212598 
" style="fill:none;stroke:#dedede;stroke-linecap:square;"/>
     </g>
     <g id="text_14">
      <!-- 25 -->
      <g transform="translate(20.878125 50.251973)scale(0.08 -0.08)">
       <use xlink:href="#DejaVuSans-50"/>
       <use x="63.623047" xlink:href="#DejaVuSans-53"/>
      </g>
     </g>
    </g>
    <g id="text_15">
     <!-- % of Sequences -->
     <g transform="translate(14.798438 192.754429)rotate(-90)scale(0.1 -0.1)">
      <defs>
       <path d="M 72.703125 32.078125 
Q 68.453125 32.078125 66.03125 28.46875 
Q 63.625 24.859375 63.625 18.40625 
Q 63.625 12.0625 66.03125 8.421875 
Q 68.453125 4.78125 72.703125 4.78125 
Q 76.859375 4.78125 79.265625 8.421875 
Q 81.6875 12.0625 81.6875 18.40625 
Q 81.6875 24.8125 79.265625 28.4375 
Q 76.859375 32.078125 72.703125 32.078125 
z
M 72.703125 38.28125 
Q 80.421875 38.28125 84.953125 32.90625 
Q 89.5 27.546875 89.5 18.40625 
Q 89.5 9.28125 84.9375 3.921875 
Q 80.375 -1.421875 72.703125 -1.421875 
Q 64.890625 -1.421875 60.34375 3.921875 
Q 55.8125 9.28125 55.8125 18.40625 
Q 55.8125 27.59375 60.375 32.9375 
Q 64.9375 38.28125 72.703125 38.28125 
z
M 22.3125 68.015625 
Q 18.109375 68.015625 15.6875 64.375 
Q 13.28125 60.75 13.28125 54.390625 
Q 13.28125 47.953125 15.671875 44.328125 
Q 18.0625 40.71875 22.3125 40.71875 
Q 26.5625 40.71875 28.96875 44.328125 
Q 31.390625 47.953125 31.390625 54.390625 
Q 31.390625 60.6875 28.953125 64.34375 
Q 26.515625 68.015625 22.3125 68.015625 
z
M 66.40625 74.21875 
L 74.21875 74.21875 
L 28.609375 -1.421875 
L 20.796875 -1.421875 
z
M 22.3125 74.21875 
Q 30.03125 74.21875 34.609375 68.875 
Q 39.203125 63.53125 39.203125 54.390625 
Q 39.203125 45.171875 34.640625 39.84375 
Q 30.078125 34.515625 22.3125 34.515625 
Q 14.546875 34.515625 10.03125 39.859375 
Q 5.515625 45.21875 5.515625 54.390625 
Q 5.515625 63.484375 10.046875 68.84375 
Q 14.59375 74.21875 22.3125 74.21875 
z
" id="DejaVuSans-37"/>
       <path d="M 37.109375 75.984375 
L 37.109375 68.5 
L 28.515625 68.5 
Q 23.6875 68.5 21.796875 66.546875 
Q 19.921875 64.59375 19.921875 59.515625 
L 19.921875 54.6875 
L 34.71875 54.6875 
L 34.71875 47.703125 
L 19.921875 47.703125 
L 19.921875 0 
L 10.890625 0 
L 10.890625 47.703125 
L 2.296875 47.703125 
L 2.296875 54.6875 
L 10.890625 54.6875 
L 10.890625 58.5 
Q 10.890625 67.625 15.140625 71.796875 
Q 19.390625 75.984375 28.609375 75.984375 
z
" id="DejaVuSans-102"/>
       <path d="M 53.515625 70.515625 
L 53.515625 60.890625 
Q 47.90625 63.578125 42.921875 64.890625 
Q 37.9375 66.21875 33.296875 66.21875 
Q 25.25 66.21875 20.875 63.09375 
Q 16.5 59.96875 16.5 54.203125 
Q 16.5 49.359375 19.40625 46.890625 
Q 22.3125 44.4375 30.421875 42.921875 
L 36.375 41.703125 
Q 47.40625 39.59375 52.65625 34.296875 
Q 57.90625 29 57.90625 20.125 
Q 57.90625 9.515625 50.796875 4.046875 
Q 43.703125 -1.421875 29.984375 -1.421875 
Q 24.8125 -1.421875 18.96875 -0.25 
Q 13.140625 0.921875 6.890625 3.21875 
L 6.890625 13.375 
Q 12.890625 10.015625 18.65625 8.296875 
Q 24.421875 6.59375 29.984375 6.59375 
Q 38.421875 6.59375 43.015625 9.90625 
Q 47.609375 13.234375 47.609375 19.390625 
Q 47.609375 24.75 44.3125 27.78125 
Q 41.015625 30.8125 33.5 32.328125 
L 27.484375 33.5 
Q 16.453125 35.6875 11.515625 40.375 
Q 6.59375 45.0625 6.59375 53.421875 
Q 6.59375 63.09375 13.40625 68.65625 
Q 20.21875 74.21875 32.171875 74.21875 
Q 37.3125 74.21875 42.625 73.28125 
Q 47.953125 72.359375 53.515625 70.515625 
z
" id="DejaVuSans-83"/>
       <path d="M 56.203125 29.59375 
L 56.203125 25.203125 
L 14.890625 25.203125 
Q 15.484375 15.921875 20.484375 11.0625 
Q 25.484375 6.203125 34.421875 6.203125 
Q 39.59375 6.203125 44.453125 7.46875 
Q 49.3125 8.734375 54.109375 11.28125 
L 54.109375 2.78125 
Q 49.265625 0.734375 44.1875 -0.34375 
Q 39.109375 -1.421875 33.890625 -1.421875 
Q 20.796875 -1.421875 13.15625 6.1875 
Q 5.515625 13.8125 5.515625 26.8125 
Q 5.515625 40.234375 12.765625 48.109375 
Q 20.015625 56 32.328125 56 
Q 43.359375 56 49.78125 48.890625 
Q 56.203125 41.796875 56.203125 29.59375 
z
M 47.21875 32.234375 
Q 47.125 39.59375 43.09375 43.984375 
Q 39.0625 48.390625 32.421875 48.390625 
Q 24.90625 48.390625 20.390625 44.140625 
Q 15.875 39.890625 15.1875 32.171875 
z
" id="DejaVuSans-101"/>
       <path d="M 14.796875 27.296875 
Q 14.796875 17.390625 18.875 11.75 
Q 22.953125 6.109375 30.078125 6.109375 
Q 37.203125 6.109375 41.296875 11.75 
Q 45.40625 17.390625 45.40625 27.296875 
Q 45.40625 37.203125 41.296875 42.84375 
Q 37.203125 48.484375 30.078125 48.484375 
Q 22.953125 48.484375 18.875 42.84375 
Q 14.796875 37.203125 14.796875 27.296875 
z
M 45.40625 8.203125 
Q 42.578125 3.328125 38.25 0.953125 
Q 33.9375 -1.421875 27.875 -1.421875 
Q 17.96875 -1.421875 11.734375 6.484375 
Q 5.515625 14.40625 5.515625 27.296875 
Q 5.515625 40.1875 11.734375 48.09375 
Q 17.96875 56 27.875 56 
Q 33.9375 56 38.25 53.625 
Q 42.578125 51.265625 45.40625 46.390625 
L 45.40625 54.6875 
L 54.390625 54.6875 
L 54.390625 -20.796875 
L 45.40625 -20.796875 
z
" id="DejaVuSans-113"/>
       <path d="M 8.5 21.578125 
L 8.5 54.6875 
L 17.484375 54.6875 
L 17.484375 21.921875 
Q 17.484375 14.15625 20.5 10.265625 
Q 23.53125 6.390625 29.59375 6.390625 
Q 36.859375 6.390625 41.078125 11.03125 
Q 45.3125 15.671875 45.3125 23.6875 
L 45.3125 54.6875 
L 54.296875 54.6875 
L 54.296875 0 
L 45.3125 0 
L 45.3125 8.40625 
Q 42.046875 3.421875 37.71875 1 
Q 33.40625 -1.421875 27.6875 -1.421875 
Q 18.265625 -1.421875 13.375 4.4375 
Q 8.5 10.296875 8.5 21.578125 
z
M 31.109375 56 
z
" id="DejaVuSans-117"/>
       <path d="M 48.78125 52.59375 
L 48.78125 44.1875 
Q 44.96875 46.296875 41.140625 47.34375 
Q 37.3125 48.390625 33.40625 48.390625 
Q 24.65625 48.390625 19.8125 42.84375 
Q 14.984375 37.3125 14.984375 27.296875 
Q 14.984375 17.28125 19.8125 11.734375 
Q 24.65625 6.203125 33.40625 6.203125 
Q 37.3125 6.203125 41.140625 7.25 
Q 44.96875 8.296875 48.78125 10.40625 
L 48.78125 2.09375 
Q 45.015625 0.34375 40.984375 -0.53125 
Q 36.96875 -1.421875 32.421875 -1.421875 
Q 20.0625 -1.421875 12.78125 6.34375 
Q 5.515625 14.109375 5.515625 27.296875 
Q 5.515625 40.671875 12.859375 48.328125 
Q 20.21875 56 33.015625 56 
Q 37.15625 56 41.109375 55.140625 
Q 45.0625 54.296875 48.78125 52.59375 
z
" id="DejaVuSans-99"/>
      </defs>
      <use xlink:href="#DejaVuSans-37"/>
      <use x="95.019531" xlink:href="#DejaVuSans-32"/>
      <use x="126.806641" xlink:href="#DejaVuSans-111"/>
      <use x="187.988281" xlink:href="#DejaVuSans-102"/>
      <use x="223.193359" xlink:href="#DejaVuSans-32"/>
      <use x="254.980469" xlink:href="#DejaVuSans-83"/>
      <use x="318.457031" xlink:href="#DejaVuSans-101"/>
      <use x="379.980469" xlink:href="#DejaVuSans-113"/>
      <use x="443.457031" xlink:href="#DejaVuSans-117"/>
      <use x="506.835938" xlink:href="#DejaVuSans-101"/>
      <use x="568.359375" xlink:href="#DejaVuSans-110"/>
      <use x="631.738281" xlink:href="#DejaVuSans-99"/>
      <use x="686.71875" xlink:href="#DejaVuSans-101"/>
      <use x="748.242188" xlink:href="#DejaVuSans-115"/>
     </g>
    </g>
   </g>
   <g id="line2d_7">
    <path clip-path="url(#p4a9f72974d)" d="M 81.469943 273.99006 
L 95.036136 273.99006 
L 108.60233 273.99006 
L 122.168523 273.99006 
L 135.734716 273.99006 
L 149.300909 273.99006 
L 162.867102 273.99006 
L 176.433295 273.99006 
L 189.999489 273.99006 
L 203.565682 273.99006 
L 217.131875 273.99006 
L 230.698068 273.99006 
L 244.264261 273.99006 
L 257.830455 273.99006 
L 271.396648 273.99006 
L 284.962841 273.99006 
L 298.529034 273.99006 
L 312.095227 273.99006 
L 325.66142 273.99006 
L 339.227614 273.99006 
L 352.793807 273.971918 
L 366.36 273.971918 
L 379.926193 273.962847 
L 393.492386 273.962847 
L 407.05858 273.962847 
L 420.624773 273.935633 
L 434.190966 273.736069 
L 447.757159 273.427652 
L 461.323352 273.08295 
L 474.889545 271.59529 
L 488.455739 269.418226 
L 502.021932 268.901174 
L 515.588125 268.61997 
L 529.154318 268.284339 
L 542.720511 267.422585 
L 556.286705 265.871427 
L 569.852898 263.113813 
L 583.419091 259.830075 
L 596.985284 255.221957 
L 610.551477 246.813049 
L 624.11767 232.081585 
L 637.683864 219.409261 
L 651.250057 211.88932 
L 664.81625 204.822934 
L 678.382443 196.686159 
L 691.948636 188.513099 
L 705.51483 180.467035 
L 719.081023 173.309938 
L 732.647216 166.352406 
L 746.213409 158.641972 
L 759.779602 147.938076 
L 773.345795 136.463136 
L 786.911989 127.809308 
L 800.478182 120.824562 
L 814.044375 113.876101 
L 827.610568 106.192881 
L 841.176761 98.536873 
L 854.742955 91.388848 
L 868.309148 84.957439 
L 881.875341 77.7822 
L 895.441534 70.661388 
L 909.007727 62.878385 
L 922.57392 55.585222 
L 936.140114 49.416875 
L 949.706307 43.030822 
" style="fill:none;stroke:#7cb5ec;stroke-linecap:square;"/>
   </g>
   <g id="line2d_8">
    <path clip-path="url(#p4a9f72974d)" d="M 81.469943 273.99006 
L 95.036136 273.99006 
L 108.60233 273.99006 
L 122.168523 273.99006 
L 135.734716 273.99006 
L 149.300909 273.99006 
L 162.867102 273.99006 
L 176.433295 273.99006 
L 189.999489 273.99006 
L 203.565682 273.99006 
L 217.131875 273.99006 
L 230.698068 273.99006 
L 244.264261 273.99006 
L 257.830455 273.980989 
L 271.396648 273.980989 
L 284.962841 273.980989 
L 298.529034 273.980989 
L 312.095227 273.980989 
L 325.66142 273.980989 
L 339.227614 273.980989 
L 352.793807 273.953776 
L 366.36 273.953776 
L 379.926193 273.944705 
L 393.492386 273.944705 
L 407.05858 273.944705 
L 420.624773 273.917491 
L 434.190966 273.717927 
L 447.757159 273.391368 
L 461.323352 273.064808 
L 474.889545 271.568077 
L 488.455739 269.409155 
L 502.021932 268.87396 
L 515.588125 268.592756 
L 529.154318 268.257126 
L 542.720511 267.431656 
L 556.286705 265.889569 
L 569.852898 263.16824 
L 583.419091 259.857289 
L 596.985284 255.339882 
L 610.551477 246.940044 
L 624.11767 232.20858 
L 637.683864 219.626967 
L 651.250057 212.215879 
L 664.81625 205.185778 
L 678.382443 197.058074 
L 691.948636 188.885014 
L 705.51483 180.802665 
L 719.081023 173.699995 
L 732.647216 166.71525 
L 746.213409 159.077385 
L 759.779602 148.337204 
L 773.345795 136.82598 
L 786.911989 128.290076 
L 800.478182 121.287188 
L 814.044375 114.411296 
L 827.610568 106.746218 
L 841.176761 99.108353 
L 854.742955 91.951256 
L 868.309148 85.583345 
L 881.875341 78.44439 
L 895.441534 71.34172 
L 909.007727 63.676642 
L 922.57392 56.401621 
L 936.140114 50.233274 
L 949.706307 43.810936 
" style="fill:none;stroke:#434348;stroke-linecap:square;"/>
   </g>
   <g id="line2d_9">
    <path clip-path="url(#p4a9f72974d)" d="M 81.469943 273.99006 
L 95.036136 273.99006 
L 108.60233 273.99006 
L 122.168523 273.99006 
L 135.734716 273.99006 
L 149.300909 273.99006 
L 162.867102 273.99006 
L 176.433295 273.99006 
L 189.999489 273.99006 
L 203.565682 273.99006 
L 217.131875 273.99006 
L 230.698068 273.99006 
L 244.264261 273.99006 
L 257.830455 273.99006 
L 271.396648 273.99006 
L 284.962841 273.99006 
L 298.529034 273.980989 
L 312.095227 273.971918 
L 325.66142 273.962847 
L 339.227614 273.944705 
L 352.793807 273.917491 
L 366.36 273.917491 
L 379.926193 273.90842 
L 393.492386 273.863065 
L 407.05858 273.835851 
L 420.624773 273.772354 
L 434.190966 273.373225 
L 447.757159 272.865244 
L 461.323352 272.248409 
L 474.889545 271.559006 
L 488.455739 271.078237 
L 502.021932 270.715393 
L 515.588125 270.252767 
L 529.154318 269.291231 
L 542.720511 268.139201 
L 556.286705 265.871427 
L 569.852898 262.215774 
L 583.419091 257.371808 
L 596.985284 251.61166 
L 610.551477 245.425171 
L 624.11767 238.440425 
L 637.683864 231.891092 
L 651.250057 225.51411 
L 664.81625 217.966956 
L 678.382443 210.492371 
L 691.948636 203.099425 
L 705.51483 195.851618 
L 719.081023 188.857801 
L 732.647216 182.00005 
L 746.213409 175.586784 
L 759.779602 167.658644 
L 773.345795 160.837178 
L 786.911989 153.843361 
L 800.478182 147.049108 
L 814.044375 140.055291 
L 827.610568 132.834697 
L 841.176761 126.058586 
L 854.742955 119.082911 
L 868.309148 113.195769 
L 881.875341 106.918568 
L 895.441534 100.850004 
L 909.007727 94.745154 
L 922.57392 88.957793 
L 936.140114 82.998082 
L 949.706307 77.165365 
" style="fill:none;stroke:#90ed7d;stroke-linecap:square;"/>
   </g>
   <g id="line2d_10">
    <path clip-path="url(#p4a9f72974d)" d="M 81.469943 273.99006 
L 95.036136 273.99006 
L 108.60233 273.99006 
L 122.168523 273.99006 
L 135.734716 273.99006 
L 149.300909 273.99006 
L 162.867102 273.99006 
L 176.433295 273.99006 
L 189.999489 273.99006 
L 203.565682 273.99006 
L 217.131875 273.99006 
L 230.698068 273.99006 
L 244.264261 273.99006 
L 257.830455 273.99006 
L 271.396648 273.99006 
L 284.962841 273.99006 
L 298.529034 273.99006 
L 312.095227 273.962847 
L 325.66142 273.935633 
L 339.227614 273.899349 
L 352.793807 273.872136 
L 366.36 273.853994 
L 379.926193 273.82678 
L 393.492386 273.790496 
L 407.05858 273.763283 
L 420.624773 273.6635 
L 434.190966 273.255301 
L 447.757159 272.729177 
L 461.323352 272.0942 
L 474.889545 271.422939 
L 488.455739 270.951242 
L 502.021932 270.570256 
L 515.588125 270.10763 
L 529.154318 269.155165 
L 542.720511 267.975922 
L 556.286705 265.73536 
L 569.852898 262.088779 
L 583.419091 257.235741 
L 596.985284 251.53002 
L 610.551477 245.388887 
L 624.11767 238.485781 
L 637.683864 232.054372 
L 651.250057 225.722745 
L 664.81625 218.266302 
L 678.382443 210.828001 
L 691.948636 203.516696 
L 705.51483 196.36867 
L 719.081023 189.447422 
L 732.647216 182.625956 
L 746.213409 176.185476 
L 759.779602 168.239194 
L 773.345795 161.553794 
L 786.911989 154.569049 
L 800.478182 147.756654 
L 814.044375 140.771908 
L 827.610568 133.651096 
L 841.176761 126.884056 
L 854.742955 119.999092 
L 868.309148 114.148234 
L 881.875341 107.825678 
L 895.441534 101.7299 
L 909.007727 95.706691 
L 922.57392 90.00097 
L 936.140114 84.122898 
L 949.706307 78.380893 
" style="fill:none;stroke:#f7a35c;stroke-linecap:square;"/>
   </g>
   <g id="line2d_11">
    <path clip-path="url(#p4a9f72974d)" d="M 81.469943 273.99006 
L 95.036136 273.99006 
L 108.60233 273.99006 
L 122.168523 273.99006 
L 135.734716 273.99006 
L 149.300909 273.99006 
L 162.867102 273.99006 
L 176.433295 273.99006 
L 189.999489 273.99006 
L 203.565682 273.99006 
L 217.131875 273.99006 
L 230.698068 273.99006 
L 244.264261 273.99006 
L 257.830455 273.99006 
L 271.396648 273.99006 
L 284.962841 273.99006 
L 298.529034 273.99006 
L 312.095227 273.980989 
L 325.66142 273.980989 
L 339.227614 273.980989 
L 352.793807 273.980989 
L 366.36 273.980989 
L 379.926193 273.980989 
L 393.492386 273.980989 
L 407.05858 273.980989 
L 420.624773 273.980989 
L 434.190966 273.944705 
L 447.757159 273.799567 
L 461.323352 273.609074 
L 474.889545 273.427652 
L 488.455739 273.24623 
L 502.021932 273.128306 
L 515.588125 272.974097 
L 529.154318 272.783604 
L 542.720511 272.375404 
L 556.286705 271.667859 
L 569.852898 270.071345 
L 583.419091 267.585864 
L 596.985284 264.701255 
L 610.551477 261.834788 
L 624.11767 259.249525 
L 637.683864 256.092783 
L 651.250057 252.781832 
L 664.81625 248.899402 
L 678.382443 244.917189 
L 691.948636 241.261537 
L 705.51483 237.197685 
L 719.081023 232.8617 
L 732.647216 228.40779 
L 746.213409 223.990165 
L 759.779602 219.4909 
L 773.345795 215.563115 
L 786.911989 211.326912 
L 800.478182 206.999998 
L 814.044375 202.39188 
L 827.610568 197.910757 
L 841.176761 193.23007 
L 854.742955 188.449601 
L 868.309148 183.678204 
L 881.875341 178.398824 
L 895.441534 173.690924 
L 909.007727 169.164446 
L 922.57392 164.801248 
L 936.140114 160.574116 
L 949.706307 156.056709 
" style="fill:none;stroke:#8085e9;stroke-linecap:square;"/>
   </g>
   <g id="line2d_12">
    <path clip-path="url(#p4a9f72974d)" d="M 81.469943 273.99006 
L 95.036136 273.99006 
L 108.60233 273.99006 
L 122.168523 273.99006 
L 135.734716 273.99006 
L 149.300909 273.99006 
L 162.867102 273.99006 
L 176.433295 273.99006 
L 189.999489 273.99006 
L 203.565682 273.99006 
L 217.131875 273.99006 
L 230.698068 273.99006 
L 244.264261 273.99006 
L 257.830455 273.99006 
L 271.396648 273.99006 
L 284.962841 273.99006 
L 298.529034 273.99006 
L 312.095227 273.980989 
L 325.66142 273.980989 
L 339.227614 273.980989 
L 352.793807 273.980989 
L 366.36 273.980989 
L 379.926193 273.980989 
L 393.492386 273.980989 
L 407.05858 273.980989 
L 420.624773 273.980989 
L 434.190966 273.944705 
L 447.757159 273.799567 
L 461.323352 273.609074 
L 474.889545 273.418581 
L 488.455739 273.24623 
L 502.021932 273.137377 
L 515.588125 272.983168 
L 529.154318 272.801746 
L 542.720511 272.393547 
L 556.286705 271.686001 
L 569.852898 270.071345 
L 583.419091 267.567722 
L 596.985284 264.674042 
L 610.551477 261.798504 
L 624.11767 259.240454 
L 637.683864 256.101854 
L 651.250057 252.809045 
L 664.81625 248.990113 
L 678.382443 244.998829 
L 691.948636 241.361319 
L 705.51483 237.306538 
L 719.081023 232.988695 
L 732.647216 228.534786 
L 746.213409 224.126232 
L 759.779602 219.608825 
L 773.345795 215.681039 
L 786.911989 211.435765 
L 800.478182 207.054424 
L 814.044375 202.464449 
L 827.610568 198.037753 
L 841.176761 193.338924 
L 854.742955 188.558455 
L 868.309148 183.787057 
L 881.875341 178.480464 
L 895.441534 173.745351 
L 909.007727 169.28237 
L 922.57392 164.973599 
L 936.140114 160.800893 
L 949.706307 156.292557 
" style="fill:none;stroke:#f15c80;stroke-linecap:square;"/>
   </g>
   <g id="line2d_13">
    <path clip-path="url(#p4a9f72974d)" d="M 81.469943 273.99006 
L 95.036136 273.99006 
L 108.60233 273.99006 
L 122.168523 273.99006 
L 135.734716 273.99006 
L 149.300909 273.99006 
L 162.867102 273.99006 
L 176.433295 273.99006 
L 189.999489 273.99006 
L 203.565682 273.99006 
L 217.131875 273.99006 
L 230.698068 273.99006 
L 244.264261 273.99006 
L 257.830455 273.99006 
L 271.396648 273.99006 
L 284.962841 273.99006 
L 298.529034 273.99006 
L 312.095227 273.99006 
L 325.66142 273.99006 
L 339.227614 273.99006 
L 352.793807 273.99006 
L 366.36 273.99006 
L 379.926193 273.99006 
L 393.492386 273.99006 
L 407.05858 273.99006 
L 420.624773 273.971918 
L 434.190966 273.781425 
L 447.757159 273.391368 
L 461.323352 272.901528 
L 474.889545 272.375404 
L 488.455739 271.92185 
L 502.021932 271.613432 
L 515.588125 271.332228 
L 529.154318 270.878673 
L 542.720511 270.180199 
L 556.286705 268.647183 
L 569.852898 265.390659 
L 583.419091 261.299593 
L 596.985284 256.101854 
L 610.551477 250.36892 
L 624.11767 244.209644 
L 637.683864 238.349714 
L 651.250057 231.70967 
L 664.81625 224.670498 
L 678.382443 216.67886 
L 691.948636 208.741649 
L 705.51483 200.623016 
L 719.081023 192.495311 
L 732.647216 184.730451 
L 746.213409 177.029088 
L 759.779602 169.255157 
L 773.345795 162.34298 
L 786.911989 155.503372 
L 800.478182 148.663764 
L 814.044375 141.742515 
L 827.610568 134.385855 
L 841.176761 127.455535 
L 854.742955 119.853955 
L 868.309148 113.259266 
L 881.875341 106.492227 
L 895.441534 100.32388 
L 909.007727 94.101106 
L 922.57392 88.086968 
L 936.140114 82.054688 
L 949.706307 76.022407 
" style="fill:none;stroke:#e4d354;stroke-linecap:square;"/>
   </g>
   <g id="line2d_14">
    <path clip-path="url(#p4a9f72974d)" d="M 81.469943 273.99006 
L 95.036136 273.99006 
L 108.60233 273.99006 
L 122.168523 273.99006 
L 135.734716 273.99006 
L 149.300909 273.99006 
L 162.867102 273.99006 
L 176.433295 273.99006 
L 189.999489 273.99006 
L 203.565682 273.99006 
L 217.131875 273.99006 
L 230.698068 273.99006 
L 244.264261 273.99006 
L 257.830455 273.99006 
L 271.396648 273.99006 
L 284.962841 273.99006 
L 298.529034 273.99006 
L 312.095227 273.99006 
L 325.66142 273.99006 
L 339.227614 273.99006 
L 352.793807 273.99006 
L 366.36 273.99006 
L 379.926193 273.99006 
L 393.492386 273.99006 
L 407.05858 273.99006 
L 420.624773 273.971918 
L 434.190966 273.781425 
L 447.757159 273.40951 
L 461.323352 272.937813 
L 474.889545 272.393547 
L 488.455739 271.958134 
L 502.021932 271.667859 
L 515.588125 271.377584 
L 529.154318 270.924029 
L 542.720511 270.225554 
L 556.286705 268.756036 
L 569.852898 265.517654 
L 583.419091 261.544513 
L 596.985284 256.428413 
L 610.551477 250.740835 
L 624.11767 244.59063 
L 637.683864 238.839553 
L 651.250057 232.281149 
L 664.81625 225.332688 
L 678.382443 217.42269 
L 691.948636 209.558048 
L 705.51483 201.493841 
L 719.081023 193.420563 
L 732.647216 185.719201 
L 746.213409 178.063194 
L 759.779602 170.298333 
L 773.345795 163.422441 
L 786.911989 156.673544 
L 800.478182 149.933717 
L 814.044375 143.121322 
L 827.610568 135.83723 
L 841.176761 128.934124 
L 854.742955 121.405113 
L 868.309148 114.910206 
L 881.875341 108.315518 
L 895.441534 102.192526 
L 909.007727 96.078606 
L 922.57392 90.055396 
L 936.140114 84.122898 
L 949.706307 78.181328 
" style="fill:none;stroke:#2b908f;stroke-linecap:square;"/>
   </g>
   <g id="line2d_15">
    <path clip-path="url(#p4a9f72974d)" d="M 38.058125 273.99006 
L 993.118125 273.99006 
" style="fill:none;stroke:#dedede;stroke-linecap:square;stroke-width:2;"/>
   </g>
   <g id="text_16">
    <!-- FastQC: Adapter Content -->
    <g transform="translate(416.290625 19.3575)scale(0.16 -0.16)">
     <defs>
      <path d="M 9.8125 72.90625 
L 51.703125 72.90625 
L 51.703125 64.59375 
L 19.671875 64.59375 
L 19.671875 43.109375 
L 48.578125 43.109375 
L 48.578125 34.8125 
L 19.671875 34.8125 
L 19.671875 0 
L 9.8125 0 
z
" id="DejaVuSans-70"/>
      <path d="M 34.28125 27.484375 
Q 23.390625 27.484375 19.1875 25 
Q 14.984375 22.515625 14.984375 16.5 
Q 14.984375 11.71875 18.140625 8.90625 
Q 21.296875 6.109375 26.703125 6.109375 
Q 34.1875 6.109375 38.703125 11.40625 
Q 43.21875 16.703125 43.21875 25.484375 
L 43.21875 27.484375 
z
M 52.203125 31.203125 
L 52.203125 0 
L 43.21875 0 
L 43.21875 8.296875 
Q 40.140625 3.328125 35.546875 0.953125 
Q 30.953125 -1.421875 24.3125 -1.421875 
Q 15.921875 -1.421875 10.953125 3.296875 
Q 6 8.015625 6 15.921875 
Q 6 25.140625 12.171875 29.828125 
Q 18.359375 34.515625 30.609375 34.515625 
L 43.21875 34.515625 
L 43.21875 35.40625 
Q 43.21875 41.609375 39.140625 45 
Q 35.0625 48.390625 27.6875 48.390625 
Q 23 48.390625 18.546875 47.265625 
Q 14.109375 46.140625 10.015625 43.890625 
L 10.015625 52.203125 
Q 14.9375 54.109375 19.578125 55.046875 
Q 24.21875 56 28.609375 56 
Q 40.484375 56 46.34375 49.84375 
Q 52.203125 43.703125 52.203125 31.203125 
z
" id="DejaVuSans-97"/>
      <path d="M 39.40625 66.21875 
Q 28.65625 66.21875 22.328125 58.203125 
Q 16.015625 50.203125 16.015625 36.375 
Q 16.015625 22.609375 22.328125 14.59375 
Q 28.65625 6.59375 39.40625 6.59375 
Q 50.140625 6.59375 56.421875 14.59375 
Q 62.703125 22.609375 62.703125 36.375 
Q 62.703125 50.203125 56.421875 58.203125 
Q 50.140625 66.21875 39.40625 66.21875 
z
M 53.21875 1.3125 
L 66.21875 -12.890625 
L 54.296875 -12.890625 
L 43.5 -1.21875 
Q 41.890625 -1.3125 41.03125 -1.359375 
Q 40.1875 -1.421875 39.40625 -1.421875 
Q 24.03125 -1.421875 14.8125 8.859375 
Q 5.609375 19.140625 5.609375 36.375 
Q 5.609375 53.65625 14.8125 63.9375 
Q 24.03125 74.21875 39.40625 74.21875 
Q 54.734375 74.21875 63.90625 63.9375 
Q 73.09375 53.65625 73.09375 36.375 
Q 73.09375 23.6875 67.984375 14.640625 
Q 62.890625 5.609375 53.21875 1.3125 
z
" id="DejaVuSans-81"/>
      <path d="M 64.40625 67.28125 
L 64.40625 56.890625 
Q 59.421875 61.53125 53.78125 63.8125 
Q 48.140625 66.109375 41.796875 66.109375 
Q 29.296875 66.109375 22.65625 58.46875 
Q 16.015625 50.828125 16.015625 36.375 
Q 16.015625 21.96875 22.65625 14.328125 
Q 29.296875 6.6875 41.796875 6.6875 
Q 48.140625 6.6875 53.78125 8.984375 
Q 59.421875 11.28125 64.40625 15.921875 
L 64.40625 5.609375 
Q 59.234375 2.09375 53.4375 0.328125 
Q 47.65625 -1.421875 41.21875 -1.421875 
Q 24.65625 -1.421875 15.125 8.703125 
Q 5.609375 18.84375 5.609375 36.375 
Q 5.609375 53.953125 15.125 64.078125 
Q 24.65625 74.21875 41.21875 74.21875 
Q 47.75 74.21875 53.53125 72.484375 
Q 59.328125 70.75 64.40625 67.28125 
z
" id="DejaVuSans-67"/>
      <path d="M 11.71875 12.40625 
L 22.015625 12.40625 
L 22.015625 0 
L 11.71875 0 
z
M 11.71875 51.703125 
L 22.015625 51.703125 
L 22.015625 39.3125 
L 11.71875 39.3125 
z
" id="DejaVuSans-58"/>
      <path d="M 34.1875 63.1875 
L 20.796875 26.90625 
L 47.609375 26.90625 
z
M 28.609375 72.90625 
L 39.796875 72.90625 
L 67.578125 0 
L 57.328125 0 
L 50.6875 18.703125 
L 17.828125 18.703125 
L 11.1875 0 
L 0.78125 0 
z
" id="DejaVuSans-65"/>
      <path d="M 45.40625 46.390625 
L 45.40625 75.984375 
L 54.390625 75.984375 
L 54.390625 0 
L 45.40625 0 
L 45.40625 8.203125 
Q 42.578125 3.328125 38.25 0.953125 
Q 33.9375 -1.421875 27.875 -1.421875 
Q 17.96875 -1.421875 11.734375 6.484375 
Q 5.515625 14.40625 5.515625 27.296875 
Q 5.515625 40.1875 11.734375 48.09375 
Q 17.96875 56 27.875 56 
Q 33.9375 56 38.25 53.625 
Q 42.578125 51.265625 45.40625 46.390625 
z
M 14.796875 27.296875 
Q 14.796875 17.390625 18.875 11.75 
Q 22.953125 6.109375 30.078125 6.109375 
Q 37.203125 6.109375 41.296875 11.75 
Q 45.40625 17.390625 45.40625 27.296875 
Q 45.40625 37.203125 41.296875 42.84375 
Q 37.203125 48.484375 30.078125 48.484375 
Q 22.953125 48.484375 18.875 42.84375 
Q 14.796875 37.203125 14.796875 27.296875 
z
" id="DejaVuSans-100"/>
      <path d="M 41.109375 46.296875 
Q 39.59375 47.171875 37.8125 47.578125 
Q 36.03125 48 33.890625 48 
Q 26.265625 48 22.1875 43.046875 
Q 18.109375 38.09375 18.109375 28.8125 
L 18.109375 0 
L 9.078125 0 
L 9.078125 54.6875 
L 18.109375 54.6875 
L 18.109375 46.1875 
Q 20.953125 51.171875 25.484375 53.578125 
Q 30.03125 56 36.53125 56 
Q 37.453125 56 38.578125 55.875 
Q 39.703125 55.765625 41.0625 55.515625 
z
" id="DejaVuSans-114"/>
     </defs>
     <use xlink:href="#DejaVuSans-70"/>
     <use x="48.394531" xlink:href="#DejaVuSans-97"/>
     <use x="109.673828" xlink:href="#DejaVuSans-115"/>
     <use x="161.773438" xlink:href="#DejaVuSans-116"/>
     <use x="200.982422" xlink:href="#DejaVuSans-81"/>
     <use x="279.693359" xlink:href="#DejaVuSans-67"/>
     <use x="349.517578" xlink:href="#DejaVuSans-58"/>
     <use x="383.208984" xlink:href="#DejaVuSans-32"/>
     <use x="414.996094" xlink:href="#DejaVuSans-65"/>
     <use x="481.654297" xlink:href="#DejaVuSans-100"/>
     <use x="545.130859" xlink:href="#DejaVuSans-97"/>
     <use x="606.410156" xlink:href="#DejaVuSans-112"/>
     <use x="669.886719" xlink:href="#DejaVuSans-116"/>
     <use x="709.095703" xlink:href="#DejaVuSans-101"/>
     <use x="770.619141" xlink:href="#DejaVuSans-114"/>
     <use x="811.732422" xlink:href="#DejaVuSans-32"/>
     <use x="843.519531" xlink:href="#DejaVuSans-67"/>
     <use x="913.34375" xlink:href="#DejaVuSans-111"/>
     <use x="974.525391" xlink:href="#DejaVuSans-110"/>
     <use x="1037.904297" xlink:href="#DejaVuSans-116"/>
     <use x="1077.113281" xlink:href="#DejaVuSans-101"/>
     <use x="1138.636719" xlink:href="#DejaVuSans-110"/>
     <use x="1202.015625" xlink:href="#DejaVuSans-116"/>
    </g>
   </g>
   <g id="legend_1">
    <g id="line2d_16">
     <path d="M 45.258125 303.490394 
L 61.258125 303.490394 
" style="fill:none;stroke:#7cb5ec;stroke-linecap:square;"/>
    </g>
    <g id="line2d_17"/>
    <g id="text_17">
     <!-- SPT5_T0_R1_T1_1 - nextera_transposase_sequence -->
     <g transform="translate(67.658125 306.290394)scale(0.08 -0.08)">
      <defs>
       <path d="M -0.296875 72.90625 
L 61.375 72.90625 
L 61.375 64.59375 
L 35.5 64.59375 
L 35.5 0 
L 25.59375 0 
L 25.59375 64.59375 
L -0.296875 64.59375 
z
" id="DejaVuSans-84"/>
       <path d="M 50.984375 -16.609375 
L 50.984375 -23.578125 
L -0.984375 -23.578125 
L -0.984375 -16.609375 
z
" id="DejaVuSans-95"/>
       <path d="M 44.390625 34.1875 
Q 47.5625 33.109375 50.5625 29.59375 
Q 53.5625 26.078125 56.59375 19.921875 
L 66.609375 0 
L 56 0 
L 46.6875 18.703125 
Q 43.0625 26.03125 39.671875 28.421875 
Q 36.28125 30.8125 30.421875 30.8125 
L 19.671875 30.8125 
L 19.671875 0 
L 9.8125 0 
L 9.8125 72.90625 
L 32.078125 72.90625 
Q 44.578125 72.90625 50.734375 67.671875 
Q 56.890625 62.453125 56.890625 51.90625 
Q 56.890625 45.015625 53.6875 40.46875 
Q 50.484375 35.9375 44.390625 34.1875 
z
M 19.671875 64.796875 
L 19.671875 38.921875 
L 32.078125 38.921875 
Q 39.203125 38.921875 42.84375 42.21875 
Q 46.484375 45.515625 46.484375 51.90625 
Q 46.484375 58.296875 42.84375 61.546875 
Q 39.203125 64.796875 32.078125 64.796875 
z
" id="DejaVuSans-82"/>
       <path d="M 4.890625 31.390625 
L 31.203125 31.390625 
L 31.203125 23.390625 
L 4.890625 23.390625 
z
" id="DejaVuSans-45"/>
       <path d="M 54.890625 54.6875 
L 35.109375 28.078125 
L 55.90625 0 
L 45.3125 0 
L 29.390625 21.484375 
L 13.484375 0 
L 2.875 0 
L 24.125 28.609375 
L 4.6875 54.6875 
L 15.28125 54.6875 
L 29.78125 35.203125 
L 44.28125 54.6875 
z
" id="DejaVuSans-120"/>
      </defs>
      <use xlink:href="#DejaVuSans-83"/>
      <use x="63.476562" xlink:href="#DejaVuSans-80"/>
      <use x="123.779297" xlink:href="#DejaVuSans-84"/>
      <use x="184.863281" xlink:href="#DejaVuSans-53"/>
      <use x="248.486328" xlink:href="#DejaVuSans-95"/>
      <use x="298.486328" xlink:href="#DejaVuSans-84"/>
      <use x="359.570312" xlink:href="#DejaVuSans-48"/>
      <use x="423.193359" xlink:href="#DejaVuSans-95"/>
      <use x="473.193359" xlink:href="#DejaVuSans-82"/>
      <use x="542.675781" xlink:href="#DejaVuSans-49"/>
      <use x="606.298828" xlink:href="#DejaVuSans-95"/>
      <use x="656.298828" xlink:href="#DejaVuSans-84"/>
      <use x="717.382812" xlink:href="#DejaVuSans-49"/>
      <use x="781.005859" xlink:href="#DejaVuSans-95"/>
      <use x="831.005859" xlink:href="#DejaVuSans-49"/>
      <use x="894.628906" xlink:href="#DejaVuSans-32"/>
      <use x="926.416016" xlink:href="#DejaVuSans-45"/>
      <use x="962.5" xlink:href="#DejaVuSans-32"/>
      <use x="994.287109" xlink:href="#DejaVuSans-110"/>
      <use x="1057.666016" xlink:href="#DejaVuSans-101"/>
      <use x="1117.439453" xlink:href="#DejaVuSans-120"/>
      <use x="1176.619141" xlink:href="#DejaVuSans-116"/>
      <use x="1215.828125" xlink:href="#DejaVuSans-101"/>
      <use x="1277.351562" xlink:href="#DejaVuSans-114"/>
      <use x="1318.464844" xlink:href="#DejaVuSans-97"/>
      <use x="1379.744141" xlink:href="#DejaVuSans-95"/>
      <use x="1429.744141" xlink:href="#DejaVuSans-116"/>
      <use x="1468.953125" xlink:href="#DejaVuSans-114"/>
      <use x="1510.066406" xlink:href="#DejaVuSans-97"/>
      <use x="1571.345703" xlink:href="#DejaVuSans-110"/>
      <use x="1634.724609" xlink:href="#DejaVuSans-115"/>
      <use x="1686.824219" xlink:href="#DejaVuSans-112"/>
      <use x="1750.300781" xlink:href="#DejaVuSans-111"/>
      <use x="1811.482422" xlink:href="#DejaVuSans-115"/>
      <use x="1863.582031" xlink:href="#DejaVuSans-97"/>
      <use x="1924.861328" xlink:href="#DejaVuSans-115"/>
      <use x="1976.960938" xlink:href="#DejaVuSans-101"/>
      <use x="2038.484375" xlink:href="#DejaVuSans-95"/>
      <use x="2088.484375" xlink:href="#DejaVuSans-115"/>
      <use x="2140.583984" xlink:href="#DejaVuSans-101"/>
      <use x="2202.107422" xlink:href="#DejaVuSans-113"/>
      <use x="2265.583984" xlink:href="#DejaVuSans-117"/>
      <use x="2328.962891" xlink:href="#DejaVuSans-101"/>
      <use x="2390.486328" xlink:href="#DejaVuSans-110"/>
      <use x="2453.865234" xlink:href="#DejaVuSans-99"/>
      <use x="2508.845703" xlink:href="#DejaVuSans-101"/>
     </g>
    </g>
    <g id="line2d_18">
     <path d="M 45.258125 315.455394 
L 61.258125 315.455394 
" style="fill:none;stroke:#434348;stroke-linecap:square;"/>
    </g>
    <g id="line2d_19"/>
    <g id="text_18">
     <!-- SPT5_T0_R1_T1_2 - nextera_transposase_sequence -->
     <g transform="translate(67.658125 318.255394)scale(0.08 -0.08)">
      <use xlink:href="#DejaVuSans-83"/>
      <use x="63.476562" xlink:href="#DejaVuSans-80"/>
      <use x="123.779297" xlink:href="#DejaVuSans-84"/>
      <use x="184.863281" xlink:href="#DejaVuSans-53"/>
      <use x="248.486328" xlink:href="#DejaVuSans-95"/>
      <use x="298.486328" xlink:href="#DejaVuSans-84"/>
      <use x="359.570312" xlink:href="#DejaVuSans-48"/>
      <use x="423.193359" xlink:href="#DejaVuSans-95"/>
      <use x="473.193359" xlink:href="#DejaVuSans-82"/>
      <use x="542.675781" xlink:href="#DejaVuSans-49"/>
      <use x="606.298828" xlink:href="#DejaVuSans-95"/>
      <use x="656.298828" xlink:href="#DejaVuSans-84"/>
      <use x="717.382812" xlink:href="#DejaVuSans-49"/>
      <use x="781.005859" xlink:href="#DejaVuSans-95"/>
      <use x="831.005859" xlink:href="#DejaVuSans-50"/>
      <use x="894.628906" xlink:href="#DejaVuSans-32"/>
      <use x="926.416016" xlink:href="#DejaVuSans-45"/>
      <use x="962.5" xlink:href="#DejaVuSans-32"/>
      <use x="994.287109" xlink:href="#DejaVuSans-110"/>
      <use x="1057.666016" xlink:href="#DejaVuSans-101"/>
      <use x="1117.439453" xlink:href="#DejaVuSans-120"/>
      <use x="1176.619141" xlink:href="#DejaVuSans-116"/>
      <use x="1215.828125" xlink:href="#DejaVuSans-101"/>
      <use x="1277.351562" xlink:href="#DejaVuSans-114"/>
      <use x="1318.464844" xlink:href="#DejaVuSans-97"/>
      <use x="1379.744141" xlink:href="#DejaVuSans-95"/>
      <use x="1429.744141" xlink:href="#DejaVuSans-116"/>
      <use x="1468.953125" xlink:href="#DejaVuSans-114"/>
      <use x="1510.066406" xlink:href="#DejaVuSans-97"/>
      <use x="1571.345703" xlink:href="#DejaVuSans-110"/>
      <use x="1634.724609" xlink:href="#DejaVuSans-115"/>
      <use x="1686.824219" xlink:href="#DejaVuSans-112"/>
      <use x="1750.300781" xlink:href="#DejaVuSans-111"/>
      <use x="1811.482422" xlink:href="#DejaVuSans-115"/>
      <use x="1863.582031" xlink:href="#DejaVuSans-97"/>
      <use x="1924.861328" xlink:href="#DejaVuSans-115"/>
      <use x="1976.960938" xlink:href="#DejaVuSans-101"/>
      <use x="2038.484375" xlink:href="#DejaVuSans-95"/>
      <use x="2088.484375" xlink:href="#DejaVuSans-115"/>
      <use x="2140.583984" xlink:href="#DejaVuSans-101"/>
      <use x="2202.107422" xlink:href="#DejaVuSans-113"/>
      <use x="2265.583984" xlink:href="#DejaVuSans-117"/>
      <use x="2328.962891" xlink:href="#DejaVuSans-101"/>
      <use x="2390.486328" xlink:href="#DejaVuSans-110"/>
      <use x="2453.865234" xlink:href="#DejaVuSans-99"/>
      <use x="2508.845703" xlink:href="#DejaVuSans-101"/>
     </g>
    </g>
    <g id="line2d_20">
     <path d="M 219.598125 303.490394 
L 235.598125 303.490394 
" style="fill:none;stroke:#90ed7d;stroke-linecap:square;"/>
    </g>
    <g id="line2d_21"/>
    <g id="text_19">
     <!-- SPT5_T0_R2_T1_1 - nextera_transposase_sequence -->
     <g transform="translate(241.998125 306.290394)scale(0.08 -0.08)">
      <use xlink:href="#DejaVuSans-83"/>
      <use x="63.476562" xlink:href="#DejaVuSans-80"/>
      <use x="123.779297" xlink:href="#DejaVuSans-84"/>
      <use x="184.863281" xlink:href="#DejaVuSans-53"/>
      <use x="248.486328" xlink:href="#DejaVuSans-95"/>
      <use x="298.486328" xlink:href="#DejaVuSans-84"/>
      <use x="359.570312" xlink:href="#DejaVuSans-48"/>
      <use x="423.193359" xlink:href="#DejaVuSans-95"/>
      <use x="473.193359" xlink:href="#DejaVuSans-82"/>
      <use x="542.675781" xlink:href="#DejaVuSans-50"/>
      <use x="606.298828" xlink:href="#DejaVuSans-95"/>
      <use x="656.298828" xlink:href="#DejaVuSans-84"/>
      <use x="717.382812" xlink:href="#DejaVuSans-49"/>
      <use x="781.005859" xlink:href="#DejaVuSans-95"/>
      <use x="831.005859" xlink:href="#DejaVuSans-49"/>
      <use x="894.628906" xlink:href="#DejaVuSans-32"/>
      <use x="926.416016" xlink:href="#DejaVuSans-45"/>
      <use x="962.5" xlink:href="#DejaVuSans-32"/>
      <use x="994.287109" xlink:href="#DejaVuSans-110"/>
      <use x="1057.666016" xlink:href="#DejaVuSans-101"/>
      <use x="1117.439453" xlink:href="#DejaVuSans-120"/>
      <use x="1176.619141" xlink:href="#DejaVuSans-116"/>
      <use x="1215.828125" xlink:href="#DejaVuSans-101"/>
      <use x="1277.351562" xlink:href="#DejaVuSans-114"/>
      <use x="1318.464844" xlink:href="#DejaVuSans-97"/>
      <use x="1379.744141" xlink:href="#DejaVuSans-95"/>
      <use x="1429.744141" xlink:href="#DejaVuSans-116"/>
      <use x="1468.953125" xlink:href="#DejaVuSans-114"/>
      <use x="1510.066406" xlink:href="#DejaVuSans-97"/>
      <use x="1571.345703" xlink:href="#DejaVuSans-110"/>
      <use x="1634.724609" xlink:href="#DejaVuSans-115"/>
      <use x="1686.824219" xlink:href="#DejaVuSans-112"/>
      <use x="1750.300781" xlink:href="#DejaVuSans-111"/>
      <use x="1811.482422" xlink:href="#DejaVuSans-115"/>
      <use x="1863.582031" xlink:href="#DejaVuSans-97"/>
      <use x="1924.861328" xlink:href="#DejaVuSans-115"/>
      <use x="1976.960938" xlink:href="#DejaVuSans-101"/>
      <use x="2038.484375" xlink:href="#DejaVuSans-95"/>
      <use x="2088.484375" xlink:href="#DejaVuSans-115"/>
      <use x="2140.583984" xlink:href="#DejaVuSans-101"/>
      <use x="2202.107422" xlink:href="#DejaVuSans-113"/>
      <use x="2265.583984" xlink:href="#DejaVuSans-117"/>
      <use x="2328.962891" xlink:href="#DejaVuSans-101"/>
      <use x="2390.486328" xlink:href="#DejaVuSans-110"/>
      <use x="2453.865234" xlink:href="#DejaVuSans-99"/>
      <use x="2508.845703" xlink:href="#DejaVuSans-101"/>
     </g>
    </g>
    <g id="line2d_22">
     <path d="M 219.598125 315.455394 
L 235.598125 315.455394 
" style="fill:none;stroke:#f7a35c;stroke-linecap:square;"/>
    </g>
    <g id="line2d_23"/>
    <g id="text_20">
     <!-- SPT5_T0_R2_T1_2 - nextera_transposase_sequence -->
     <g transform="translate(241.998125 318.255394)scale(0.08 -0.08)">
      <use xlink:href="#DejaVuSans-83"/>
      <use x="63.476562" xlink:href="#DejaVuSans-80"/>
      <use x="123.779297" xlink:href="#DejaVuSans-84"/>
      <use x="184.863281" xlink:href="#DejaVuSans-53"/>
      <use x="248.486328" xlink:href="#DejaVuSans-95"/>
      <use x="298.486328" xlink:href="#DejaVuSans-84"/>
      <use x="359.570312" xlink:href="#DejaVuSans-48"/>
      <use x="423.193359" xlink:href="#DejaVuSans-95"/>
      <use x="473.193359" xlink:href="#DejaVuSans-82"/>
      <use x="542.675781" xlink:href="#DejaVuSans-50"/>
      <use x="606.298828" xlink:href="#DejaVuSans-95"/>
      <use x="656.298828" xlink:href="#DejaVuSans-84"/>
      <use x="717.382812" xlink:href="#DejaVuSans-49"/>
      <use x="781.005859" xlink:href="#DejaVuSans-95"/>
      <use x="831.005859" xlink:href="#DejaVuSans-50"/>
      <use x="894.628906" xlink:href="#DejaVuSans-32"/>
      <use x="926.416016" xlink:href="#DejaVuSans-45"/>
      <use x="962.5" xlink:href="#DejaVuSans-32"/>
      <use x="994.287109" xlink:href="#DejaVuSans-110"/>
      <use x="1057.666016" xlink:href="#DejaVuSans-101"/>
      <use x="1117.439453" xlink:href="#DejaVuSans-120"/>
      <use x="1176.619141" xlink:href="#DejaVuSans-116"/>
      <use x="1215.828125" xlink:href="#DejaVuSans-101"/>
      <use x="1277.351562" xlink:href="#DejaVuSans-114"/>
      <use x="1318.464844" xlink:href="#DejaVuSans-97"/>
      <use x="1379.744141" xlink:href="#DejaVuSans-95"/>
      <use x="1429.744141" xlink:href="#DejaVuSans-116"/>
      <use x="1468.953125" xlink:href="#DejaVuSans-114"/>
      <use x="1510.066406" xlink:href="#DejaVuSans-97"/>
      <use x="1571.345703" xlink:href="#DejaVuSans-110"/>
      <use x="1634.724609" xlink:href="#DejaVuSans-115"/>
      <use x="1686.824219" xlink:href="#DejaVuSans-112"/>
      <use x="1750.300781" xlink:href="#DejaVuSans-111"/>
      <use x="1811.482422" xlink:href="#DejaVuSans-115"/>
      <use x="1863.582031" xlink:href="#DejaVuSans-97"/>
      <use x="1924.861328" xlink:href="#DejaVuSans-115"/>
      <use x="1976.960938" xlink:href="#DejaVuSans-101"/>
      <use x="2038.484375" xlink:href="#DejaVuSans-95"/>
      <use x="2088.484375" xlink:href="#DejaVuSans-115"/>
      <use x="2140.583984" xlink:href="#DejaVuSans-101"/>
      <use x="2202.107422" xlink:href="#DejaVuSans-113"/>
      <use x="2265.583984" xlink:href="#DejaVuSans-117"/>
      <use x="2328.962891" xlink:href="#DejaVuSans-101"/>
      <use x="2390.486328" xlink:href="#DejaVuSans-110"/>
      <use x="2453.865234" xlink:href="#DejaVuSans-99"/>
      <use x="2508.845703" xlink:href="#DejaVuSans-101"/>
     </g>
    </g>
    <g id="line2d_24">
     <path d="M 393.938125 303.490394 
L 409.938125 303.490394 
" style="fill:none;stroke:#8085e9;stroke-linecap:square;"/>
    </g>
    <g id="line2d_25"/>
    <g id="text_21">
     <!-- SPT5_T15_R1_T1_1 - nextera_transposase_sequence -->
     <g transform="translate(416.338125 306.290394)scale(0.08 -0.08)">
      <use xlink:href="#DejaVuSans-83"/>
      <use x="63.476562" xlink:href="#DejaVuSans-80"/>
      <use x="123.779297" xlink:href="#DejaVuSans-84"/>
      <use x="184.863281" xlink:href="#DejaVuSans-53"/>
      <use x="248.486328" xlink:href="#DejaVuSans-95"/>
      <use x="298.486328" xlink:href="#DejaVuSans-84"/>
      <use x="359.570312" xlink:href="#DejaVuSans-49"/>
      <use x="423.193359" xlink:href="#DejaVuSans-53"/>
      <use x="486.816406" xlink:href="#DejaVuSans-95"/>
      <use x="536.816406" xlink:href="#DejaVuSans-82"/>
      <use x="606.298828" xlink:href="#DejaVuSans-49"/>
      <use x="669.921875" xlink:href="#DejaVuSans-95"/>
      <use x="719.921875" xlink:href="#DejaVuSans-84"/>
      <use x="781.005859" xlink:href="#DejaVuSans-49"/>
      <use x="844.628906" xlink:href="#DejaVuSans-95"/>
      <use x="894.628906" xlink:href="#DejaVuSans-49"/>
      <use x="958.251953" xlink:href="#DejaVuSans-32"/>
      <use x="990.039062" xlink:href="#DejaVuSans-45"/>
      <use x="1026.123047" xlink:href="#DejaVuSans-32"/>
      <use x="1057.910156" xlink:href="#DejaVuSans-110"/>
      <use x="1121.289062" xlink:href="#DejaVuSans-101"/>
      <use x="1181.0625" xlink:href="#DejaVuSans-120"/>
      <use x="1240.242188" xlink:href="#DejaVuSans-116"/>
      <use x="1279.451172" xlink:href="#DejaVuSans-101"/>
      <use x="1340.974609" xlink:href="#DejaVuSans-114"/>
      <use x="1382.087891" xlink:href="#DejaVuSans-97"/>
      <use x="1443.367188" xlink:href="#DejaVuSans-95"/>
      <use x="1493.367188" xlink:href="#DejaVuSans-116"/>
      <use x="1532.576172" xlink:href="#DejaVuSans-114"/>
      <use x="1573.689453" xlink:href="#DejaVuSans-97"/>
      <use x="1634.96875" xlink:href="#DejaVuSans-110"/>
      <use x="1698.347656" xlink:href="#DejaVuSans-115"/>
      <use x="1750.447266" xlink:href="#DejaVuSans-112"/>
      <use x="1813.923828" xlink:href="#DejaVuSans-111"/>
      <use x="1875.105469" xlink:href="#DejaVuSans-115"/>
      <use x="1927.205078" xlink:href="#DejaVuSans-97"/>
      <use x="1988.484375" xlink:href="#DejaVuSans-115"/>
      <use x="2040.583984" xlink:href="#DejaVuSans-101"/>
      <use x="2102.107422" xlink:href="#DejaVuSans-95"/>
      <use x="2152.107422" xlink:href="#DejaVuSans-115"/>
      <use x="2204.207031" xlink:href="#DejaVuSans-101"/>
      <use x="2265.730469" xlink:href="#DejaVuSans-113"/>
      <use x="2329.207031" xlink:href="#DejaVuSans-117"/>
      <use x="2392.585938" xlink:href="#DejaVuSans-101"/>
      <use x="2454.109375" xlink:href="#DejaVuSans-110"/>
      <use x="2517.488281" xlink:href="#DejaVuSans-99"/>
      <use x="2572.46875" xlink:href="#DejaVuSans-101"/>
     </g>
    </g>
    <g id="line2d_26">
     <path d="M 393.938125 315.455394 
L 409.938125 315.455394 
" style="fill:none;stroke:#f15c80;stroke-linecap:square;"/>
    </g>
    <g id="line2d_27"/>
    <g id="text_22">
     <!-- SPT5_T15_R1_T1_2 - nextera_transposase_sequence -->
     <g transform="translate(416.338125 318.255394)scale(0.08 -0.08)">
      <use xlink:href="#DejaVuSans-83"/>
      <use x="63.476562" xlink:href="#DejaVuSans-80"/>
      <use x="123.779297" xlink:href="#DejaVuSans-84"/>
      <use x="184.863281" xlink:href="#DejaVuSans-53"/>
      <use x="248.486328" xlink:href="#DejaVuSans-95"/>
      <use x="298.486328" xlink:href="#DejaVuSans-84"/>
      <use x="359.570312" xlink:href="#DejaVuSans-49"/>
      <use x="423.193359" xlink:href="#DejaVuSans-53"/>
      <use x="486.816406" xlink:href="#DejaVuSans-95"/>
      <use x="536.816406" xlink:href="#DejaVuSans-82"/>
      <use x="606.298828" xlink:href="#DejaVuSans-49"/>
      <use x="669.921875" xlink:href="#DejaVuSans-95"/>
      <use x="719.921875" xlink:href="#DejaVuSans-84"/>
      <use x="781.005859" xlink:href="#DejaVuSans-49"/>
      <use x="844.628906" xlink:href="#DejaVuSans-95"/>
      <use x="894.628906" xlink:href="#DejaVuSans-50"/>
      <use x="958.251953" xlink:href="#DejaVuSans-32"/>
      <use x="990.039062" xlink:href="#DejaVuSans-45"/>
      <use x="1026.123047" xlink:href="#DejaVuSans-32"/>
      <use x="1057.910156" xlink:href="#DejaVuSans-110"/>
      <use x="1121.289062" xlink:href="#DejaVuSans-101"/>
      <use x="1181.0625" xlink:href="#DejaVuSans-120"/>
      <use x="1240.242188" xlink:href="#DejaVuSans-116"/>
      <use x="1279.451172" xlink:href="#DejaVuSans-101"/>
      <use x="1340.974609" xlink:href="#DejaVuSans-114"/>
      <use x="1382.087891" xlink:href="#DejaVuSans-97"/>
      <use x="1443.367188" xlink:href="#DejaVuSans-95"/>
      <use x="1493.367188" xlink:href="#DejaVuSans-116"/>
      <use x="1532.576172" xlink:href="#DejaVuSans-114"/>
      <use x="1573.689453" xlink:href="#DejaVuSans-97"/>
      <use x="1634.96875" xlink:href="#DejaVuSans-110"/>
      <use x="1698.347656" xlink:href="#DejaVuSans-115"/>
      <use x="1750.447266" xlink:href="#DejaVuSans-112"/>
      <use x="1813.923828" xlink:href="#DejaVuSans-111"/>
      <use x="1875.105469" xlink:href="#DejaVuSans-115"/>
      <use x="1927.205078" xlink:href="#DejaVuSans-97"/>
      <use x="1988.484375" xlink:href="#DejaVuSans-115"/>
      <use x="2040.583984" xlink:href="#DejaVuSans-101"/>
      <use x="2102.107422" xlink:href="#DejaVuSans-95"/>
      <use x="2152.107422" xlink:href="#DejaVuSans-115"/>
      <use x="2204.207031" xlink:href="#DejaVuSans-101"/>
      <use x="2265.730469" xlink:href="#DejaVuSans-113"/>
      <use x="2329.207031" xlink:href="#DejaVuSans-117"/>
      <use x="2392.585938" xlink:href="#DejaVuSans-101"/>
      <use x="2454.109375" xlink:href="#DejaVuSans-110"/>
      <use x="2517.488281" xlink:href="#DejaVuSans-99"/>
      <use x="2572.46875" xlink:href="#DejaVuSans-101"/>
     </g>
    </g>
    <g id="line2d_28">
     <path d="M 573.368125 303.490394 
L 589.368125 303.490394 
" style="fill:none;stroke:#e4d354;stroke-linecap:square;"/>
    </g>
    <g id="line2d_29"/>
    <g id="text_23">
     <!-- SPT5_T15_R2_T1_1 - nextera_transposase_sequence -->
     <g transform="translate(595.768125 306.290394)scale(0.08 -0.08)">
      <use xlink:href="#DejaVuSans-83"/>
      <use x="63.476562" xlink:href="#DejaVuSans-80"/>
      <use x="123.779297" xlink:href="#DejaVuSans-84"/>
      <use x="184.863281" xlink:href="#DejaVuSans-53"/>
      <use x="248.486328" xlink:href="#DejaVuSans-95"/>
      <use x="298.486328" xlink:href="#DejaVuSans-84"/>
      <use x="359.570312" xlink:href="#DejaVuSans-49"/>
      <use x="423.193359" xlink:href="#DejaVuSans-53"/>
      <use x="486.816406" xlink:href="#DejaVuSans-95"/>
      <use x="536.816406" xlink:href="#DejaVuSans-82"/>
      <use x="606.298828" xlink:href="#DejaVuSans-50"/>
      <use x="669.921875" xlink:href="#DejaVuSans-95"/>
      <use x="719.921875" xlink:href="#DejaVuSans-84"/>
      <use x="781.005859" xlink:href="#DejaVuSans-49"/>
      <use x="844.628906" xlink:href="#DejaVuSans-95"/>
      <use x="894.628906" xlink:href="#DejaVuSans-49"/>
      <use x="958.251953" xlink:href="#DejaVuSans-32"/>
      <use x="990.039062" xlink:href="#DejaVuSans-45"/>
      <use x="1026.123047" xlink:href="#DejaVuSans-32"/>
      <use x="1057.910156" xlink:href="#DejaVuSans-110"/>
      <use x="1121.289062" xlink:href="#DejaVuSans-101"/>
      <use x="1181.0625" xlink:href="#DejaVuSans-120"/>
      <use x="1240.242188" xlink:href="#DejaVuSans-116"/>
      <use x="1279.451172" xlink:href="#DejaVuSans-101"/>
      <use x="1340.974609" xlink:href="#DejaVuSans-114"/>
      <use x="1382.087891" xlink:href="#DejaVuSans-97"/>
      <use x="1443.367188" xlink:href="#DejaVuSans-95"/>
      <use x="1493.367188" xlink:href="#DejaVuSans-116"/>
      <use x="1532.576172" xlink:href="#DejaVuSans-114"/>
      <use x="1573.689453" xlink:href="#DejaVuSans-97"/>
      <use x="1634.96875" xlink:href="#DejaVuSans-110"/>
      <use x="1698.347656" xlink:href="#DejaVuSans-115"/>
      <use x="1750.447266" xlink:href="#DejaVuSans-112"/>
      <use x="1813.923828" xlink:href="#DejaVuSans-111"/>
      <use x="1875.105469" xlink:href="#DejaVuSans-115"/>
      <use x="1927.205078" xlink:href="#DejaVuSans-97"/>
      <use x="1988.484375" xlink:href="#DejaVuSans-115"/>
      <use x="2040.583984" xlink:href="#DejaVuSans-101"/>
      <use x="2102.107422" xlink:href="#DejaVuSans-95"/>
      <use x="2152.107422" xlink:href="#DejaVuSans-115"/>
      <use x="2204.207031" xlink:href="#DejaVuSans-101"/>
      <use x="2265.730469" xlink:href="#DejaVuSans-113"/>
      <use x="2329.207031" xlink:href="#DejaVuSans-117"/>
      <use x="2392.585938" xlink:href="#DejaVuSans-101"/>
      <use x="2454.109375" xlink:href="#DejaVuSans-110"/>
      <use x="2517.488281" xlink:href="#DejaVuSans-99"/>
      <use x="2572.46875" xlink:href="#DejaVuSans-101"/>
     </g>
    </g>
    <g id="line2d_30">
     <path d="M 752.798125 303.490394 
L 768.798125 303.490394 
" style="fill:none;stroke:#2b908f;stroke-linecap:square;"/>
    </g>
    <g id="line2d_31"/>
    <g id="text_24">
     <!-- SPT5_T15_R2_T1_2 - nextera_transposase_sequence -->
     <g transform="translate(775.198125 306.290394)scale(0.08 -0.08)">
      <use xlink:href="#DejaVuSans-83"/>
      <use x="63.476562" xlink:href="#DejaVuSans-80"/>
      <use x="123.779297" xlink:href="#DejaVuSans-84"/>
      <use x="184.863281" xlink:href="#DejaVuSans-53"/>
      <use x="248.486328" xlink:href="#DejaVuSans-95"/>
      <use x="298.486328" xlink:href="#DejaVuSans-84"/>
      <use x="359.570312" xlink:href="#DejaVuSans-49"/>
      <use x="423.193359" xlink:href="#DejaVuSans-53"/>
      <use x="486.816406" xlink:href="#DejaVuSans-95"/>
      <use x="536.816406" xlink:href="#DejaVuSans-82"/>
      <use x="606.298828" xlink:href="#DejaVuSans-50"/>
      <use x="669.921875" xlink:href="#DejaVuSans-95"/>
      <use x="719.921875" xlink:href="#DejaVuSans-84"/>
      <use x="781.005859" xlink:href="#DejaVuSans-49"/>
      <use x="844.628906" xlink:href="#DejaVuSans-95"/>
      <use x="894.628906" xlink:href="#DejaVuSans-50"/>
      <use x="958.251953" xlink:href="#DejaVuSans-32"/>
      <use x="990.039062" xlink:href="#DejaVuSans-45"/>
      <use x="1026.123047" xlink:href="#DejaVuSans-32"/>
      <use x="1057.910156" xlink:href="#DejaVuSans-110"/>
      <use x="1121.289062" xlink:href="#DejaVuSans-101"/>
      <use x="1181.0625" xlink:href="#DejaVuSans-120"/>
      <use x="1240.242188" xlink:href="#DejaVuSans-116"/>
      <use x="1279.451172" xlink:href="#DejaVuSans-101"/>
      <use x="1340.974609" xlink:href="#DejaVuSans-114"/>
      <use x="1382.087891" xlink:href="#DejaVuSans-97"/>
      <use x="1443.367188" xlink:href="#DejaVuSans-95"/>
      <use x="1493.367188" xlink:href="#DejaVuSans-116"/>
      <use x="1532.576172" xlink:href="#DejaVuSans-114"/>
      <use x="1573.689453" xlink:href="#DejaVuSans-97"/>
      <use x="1634.96875" xlink:href="#DejaVuSans-110"/>
      <use x="1698.347656" xlink:href="#DejaVuSans-115"/>
      <use x="1750.447266" xlink:href="#DejaVuSans-112"/>
      <use x="1813.923828" xlink:href="#DejaVuSans-111"/>
      <use x="1875.105469" xlink:href="#DejaVuSans-115"/>
      <use x="1927.205078" xlink:href="#DejaVuSans-97"/>
      <use x="1988.484375" xlink:href="#DejaVuSans-115"/>
      <use x="2040.583984" xlink:href="#DejaVuSans-101"/>
      <use x="2102.107422" xlink:href="#DejaVuSans-95"/>
      <use x="2152.107422" xlink:href="#DejaVuSans-115"/>
      <use x="2204.207031" xlink:href="#DejaVuSans-101"/>
      <use x="2265.730469" xlink:href="#DejaVuSans-113"/>
      <use x="2329.207031" xlink:href="#DejaVuSans-117"/>
      <use x="2392.585938" xlink:href="#DejaVuSans-101"/>
      <use x="2454.109375" xlink:href="#DejaVuSans-110"/>
      <use x="2517.488281" xlink:href="#DejaVuSans-99"/>
      <use x="2572.46875" xlink:href="#DejaVuSans-101"/>
     </g>
    </g>
   </g>
  </g>
 </g>
 <defs>
  <clipPath id="p4a9f72974d">
   <rect height="242.5072" width="955.06" x="38.058125" y="31.48286"/>
  </clipPath>
 </defs>
</svg>
