<?xml version="1.0" encoding="utf-8" standalone="no"?>
<!DOCTYPE svg PUBLIC "-//W3C//DTD SVG 1.1//EN"
  "http://www.w3.org/Graphics/SVG/1.1/DTD/svg11.dtd">
<!-- Created with matplotlib (https://matplotlib.org/) -->
<svg height="330.541644pt" version="1.1" viewBox="0 0 1000.318125 330.541644" width="1000.318125pt" xmlns="http://www.w3.org/2000/svg" xmlns:xlink="http://www.w3.org/1999/xlink">
 <metadata>
  <rdf:RDF xmlns:cc="http://creativecommons.org/ns#" xmlns:dc="http://purl.org/dc/elements/1.1/" xmlns:rdf="http://www.w3.org/1999/02/22-rdf-syntax-ns#">
   <cc:Work>
    <dc:type rdf:resource="http://purl.org/dc/dcmitype/StillImage"/>
    <dc:date>2021-01-29T21:53:06.142820</dc:date>
    <dc:format>image/svg+xml</dc:format>
    <dc:creator>
     <cc:Agent>
      <dc:title>Matplotlib v3.3.0, https://matplotlib.org/</dc:title>
     </cc:Agent>
    </dc:creator>
   </cc:Work>
  </rdf:RDF>
 </metadata>
 <defs>
  <style type="text/css">*{stroke-linecap:butt;stroke-linejoin:round;}</style>
 </defs>
 <g id="figure_1">
  <g id="axes_1">
   <g id="patch_1">
    <path d="M 38.058125 273.99006 
L 993.118125 273.99006 
L 993.118125 31.48286 
L 38.058125 31.48286 
z
" style="fill:#ffffff;"/>
   </g>
   <g id="patch_2">
    <path clip-path="url(#pb853b49550)" d="M 577.072674 273.99006 
L 949.706307 273.99006 
L 949.706307 -49.951812 
L 577.072674 -49.951812 
z
" style="fill:#f7cfcf;"/>
   </g>
   <g id="patch_3">
    <path clip-path="url(#pb853b49550)" d="M 452.861464 273.99006 
L 577.072674 273.99006 
L 577.072674 -49.951812 
L 452.861464 -49.951812 
z
" style="fill:#ffffe2;"/>
   </g>
   <g id="patch_4">
    <path clip-path="url(#pb853b49550)" d="M 81.469943 273.99006 
L 452.861464 273.99006 
L 452.861464 -49.951812 
L 81.469943 -49.951812 
z
" style="fill:#e5fce0;"/>
   </g>
   <g id="matplotlib.axis_1">
    <g id="xtick_1">
     <g id="text_1">
      <!-- −3000 -->
      <g transform="translate(66.695956 287.06881)scale(0.08 -0.08)">
       <defs>
        <path d="M 10.59375 35.5 
L 73.1875 35.5 
L 73.1875 27.203125 
L 10.59375 27.203125 
z
" id="DejaVuSans-8722"/>
        <path d="M 40.578125 39.3125 
Q 47.65625 37.796875 51.625 33 
Q 55.609375 28.21875 55.609375 21.1875 
Q 55.609375 10.40625 48.1875 4.484375 
Q 40.765625 -1.421875 27.09375 -1.421875 
Q 22.515625 -1.421875 17.65625 -0.515625 
Q 12.796875 0.390625 7.625 2.203125 
L 7.625 11.71875 
Q 11.71875 9.328125 16.59375 8.109375 
Q 21.484375 6.890625 26.8125 6.890625 
Q 36.078125 6.890625 40.9375 10.546875 
Q 45.796875 14.203125 45.796875 21.1875 
Q 45.796875 27.640625 41.28125 31.265625 
Q 36.765625 34.90625 28.71875 34.90625 
L 20.21875 34.90625 
L 20.21875 43.015625 
L 29.109375 43.015625 
Q 36.375 43.015625 40.234375 45.921875 
Q 44.09375 48.828125 44.09375 54.296875 
Q 44.09375 59.90625 40.109375 62.90625 
Q 36.140625 65.921875 28.71875 65.921875 
Q 24.65625 65.921875 20.015625 65.03125 
Q 15.375 64.15625 9.8125 62.3125 
L 9.8125 71.09375 
Q 15.4375 72.65625 20.34375 73.4375 
Q 25.25 74.21875 29.59375 74.21875 
Q 40.828125 74.21875 47.359375 69.109375 
Q 53.90625 64.015625 53.90625 55.328125 
Q 53.90625 49.265625 50.4375 45.09375 
Q 46.96875 40.921875 40.578125 39.3125 
z
" id="DejaVuSans-51"/>
        <path d="M 31.78125 66.40625 
Q 24.171875 66.40625 20.328125 58.90625 
Q 16.5 51.421875 16.5 36.375 
Q 16.5 21.390625 20.328125 13.890625 
Q 24.171875 6.390625 31.78125 6.390625 
Q 39.453125 6.390625 43.28125 13.890625 
Q 47.125 21.390625 47.125 36.375 
Q 47.125 51.421875 43.28125 58.90625 
Q 39.453125 66.40625 31.78125 66.40625 
z
M 31.78125 74.21875 
Q 44.046875 74.21875 50.515625 64.515625 
Q 56.984375 54.828125 56.984375 36.375 
Q 56.984375 17.96875 50.515625 8.265625 
Q 44.046875 -1.421875 31.78125 -1.421875 
Q 19.53125 -1.421875 13.0625 8.265625 
Q 6.59375 17.96875 6.59375 36.375 
Q 6.59375 54.828125 13.0625 64.515625 
Q 19.53125 74.21875 31.78125 74.21875 
z
" id="DejaVuSans-48"/>
       </defs>
       <use xlink:href="#DejaVuSans-8722"/>
       <use x="83.789062" xlink:href="#DejaVuSans-51"/>
       <use x="147.412109" xlink:href="#DejaVuSans-48"/>
       <use x="211.035156" xlink:href="#DejaVuSans-48"/>
       <use x="274.658203" xlink:href="#DejaVuSans-48"/>
      </g>
     </g>
    </g>
    <g id="xtick_2">
     <g id="text_2">
      <!-- −2000 -->
      <g transform="translate(190.907167 287.06881)scale(0.08 -0.08)">
       <defs>
        <path d="M 19.1875 8.296875 
L 53.609375 8.296875 
L 53.609375 0 
L 7.328125 0 
L 7.328125 8.296875 
Q 12.9375 14.109375 22.625 23.890625 
Q 32.328125 33.6875 34.8125 36.53125 
Q 39.546875 41.84375 41.421875 45.53125 
Q 43.3125 49.21875 43.3125 52.78125 
Q 43.3125 58.59375 39.234375 62.25 
Q 35.15625 65.921875 28.609375 65.921875 
Q 23.96875 65.921875 18.8125 64.3125 
Q 13.671875 62.703125 7.8125 59.421875 
L 7.8125 69.390625 
Q 13.765625 71.78125 18.9375 73 
Q 24.125 74.21875 28.421875 74.21875 
Q 39.75 74.21875 46.484375 68.546875 
Q 53.21875 62.890625 53.21875 53.421875 
Q 53.21875 48.921875 51.53125 44.890625 
Q 49.859375 40.875 45.40625 35.40625 
Q 44.1875 33.984375 37.640625 27.21875 
Q 31.109375 20.453125 19.1875 8.296875 
z
" id="DejaVuSans-50"/>
       </defs>
       <use xlink:href="#DejaVuSans-8722"/>
       <use x="83.789062" xlink:href="#DejaVuSans-50"/>
       <use x="147.412109" xlink:href="#DejaVuSans-48"/>
       <use x="211.035156" xlink:href="#DejaVuSans-48"/>
       <use x="274.658203" xlink:href="#DejaVuSans-48"/>
      </g>
     </g>
    </g>
    <g id="xtick_3">
     <g id="text_3">
      <!-- −1000 -->
      <g transform="translate(315.118378 287.06881)scale(0.08 -0.08)">
       <defs>
        <path d="M 12.40625 8.296875 
L 28.515625 8.296875 
L 28.515625 63.921875 
L 10.984375 60.40625 
L 10.984375 69.390625 
L 28.421875 72.90625 
L 38.28125 72.90625 
L 38.28125 8.296875 
L 54.390625 8.296875 
L 54.390625 0 
L 12.40625 0 
z
" id="DejaVuSans-49"/>
       </defs>
       <use xlink:href="#DejaVuSans-8722"/>
       <use x="83.789062" xlink:href="#DejaVuSans-49"/>
       <use x="147.412109" xlink:href="#DejaVuSans-48"/>
       <use x="211.035156" xlink:href="#DejaVuSans-48"/>
       <use x="274.658203" xlink:href="#DejaVuSans-48"/>
      </g>
     </g>
    </g>
    <g id="xtick_4">
     <g id="text_4">
      <!-- 0 -->
      <g transform="translate(450.316464 287.06881)scale(0.08 -0.08)">
       <use xlink:href="#DejaVuSans-48"/>
      </g>
     </g>
    </g>
    <g id="xtick_5">
     <g id="text_5">
      <!-- 1000 -->
      <g transform="translate(566.892674 287.06881)scale(0.08 -0.08)">
       <use xlink:href="#DejaVuSans-49"/>
       <use x="63.623047" xlink:href="#DejaVuSans-48"/>
       <use x="127.246094" xlink:href="#DejaVuSans-48"/>
       <use x="190.869141" xlink:href="#DejaVuSans-48"/>
      </g>
     </g>
    </g>
    <g id="xtick_6">
     <g id="text_6">
      <!-- 2000 -->
      <g transform="translate(691.103885 287.06881)scale(0.08 -0.08)">
       <use xlink:href="#DejaVuSans-50"/>
       <use x="63.623047" xlink:href="#DejaVuSans-48"/>
       <use x="127.246094" xlink:href="#DejaVuSans-48"/>
       <use x="190.869141" xlink:href="#DejaVuSans-48"/>
      </g>
     </g>
    </g>
    <g id="xtick_7">
     <g id="text_7">
      <!-- 3000 -->
      <g transform="translate(815.315096 287.06881)scale(0.08 -0.08)">
       <use xlink:href="#DejaVuSans-51"/>
       <use x="63.623047" xlink:href="#DejaVuSans-48"/>
       <use x="127.246094" xlink:href="#DejaVuSans-48"/>
       <use x="190.869141" xlink:href="#DejaVuSans-48"/>
      </g>
     </g>
    </g>
    <g id="xtick_8">
     <g id="text_8">
      <!-- 4000 -->
      <g transform="translate(939.526307 287.06881)scale(0.08 -0.08)">
       <defs>
        <path d="M 37.796875 64.3125 
L 12.890625 25.390625 
L 37.796875 25.390625 
z
M 35.203125 72.90625 
L 47.609375 72.90625 
L 47.609375 25.390625 
L 58.015625 25.390625 
L 58.015625 17.1875 
L 47.609375 17.1875 
L 47.609375 0 
L 37.796875 0 
L 37.796875 17.1875 
L 4.890625 17.1875 
L 4.890625 26.703125 
z
" id="DejaVuSans-52"/>
       </defs>
       <use xlink:href="#DejaVuSans-52"/>
       <use x="63.623047" xlink:href="#DejaVuSans-48"/>
       <use x="127.246094" xlink:href="#DejaVuSans-48"/>
       <use x="190.869141" xlink:href="#DejaVuSans-48"/>
      </g>
     </g>
    </g>
   </g>
   <g id="matplotlib.axis_2">
    <g id="ytick_1">
     <g id="line2d_1">
      <path clip-path="url(#pb853b49550)" d="M 38.058125 254.020021 
L 993.118125 254.020021 
" style="fill:none;stroke:#dedede;stroke-linecap:square;"/>
     </g>
     <g id="text_9">
      <!-- 10 -->
      <g transform="translate(20.878125 257.059396)scale(0.08 -0.08)">
       <use xlink:href="#DejaVuSans-49"/>
       <use x="63.623047" xlink:href="#DejaVuSans-48"/>
      </g>
     </g>
    </g>
    <g id="ytick_2">
     <g id="line2d_2">
      <path clip-path="url(#pb853b49550)" d="M 38.058125 203.317666 
L 993.118125 203.317666 
" style="fill:none;stroke:#dedede;stroke-linecap:square;"/>
     </g>
     <g id="text_10">
      <!-- 15 -->
      <g transform="translate(20.878125 206.357041)scale(0.08 -0.08)">
       <defs>
        <path d="M 10.796875 72.90625 
L 49.515625 72.90625 
L 49.515625 64.59375 
L 19.828125 64.59375 
L 19.828125 46.734375 
Q 21.96875 47.46875 24.109375 47.828125 
Q 26.265625 48.1875 28.421875 48.1875 
Q 40.625 48.1875 47.75 41.5 
Q 54.890625 34.8125 54.890625 23.390625 
Q 54.890625 11.625 47.5625 5.09375 
Q 40.234375 -1.421875 26.90625 -1.421875 
Q 22.3125 -1.421875 17.546875 -0.640625 
Q 12.796875 0.140625 7.71875 1.703125 
L 7.71875 11.625 
Q 12.109375 9.234375 16.796875 8.0625 
Q 21.484375 6.890625 26.703125 6.890625 
Q 35.15625 6.890625 40.078125 11.328125 
Q 45.015625 15.765625 45.015625 23.390625 
Q 45.015625 31 40.078125 35.4375 
Q 35.15625 39.890625 26.703125 39.890625 
Q 22.75 39.890625 18.8125 39.015625 
Q 14.890625 38.140625 10.796875 36.28125 
z
" id="DejaVuSans-53"/>
       </defs>
       <use xlink:href="#DejaVuSans-49"/>
       <use x="63.623047" xlink:href="#DejaVuSans-53"/>
      </g>
     </g>
    </g>
    <g id="ytick_3">
     <g id="line2d_3">
      <path clip-path="url(#pb853b49550)" d="M 38.058125 152.61531 
L 993.118125 152.61531 
" style="fill:none;stroke:#dedede;stroke-linecap:square;"/>
     </g>
     <g id="text_11">
      <!-- 20 -->
      <g transform="translate(20.878125 155.654685)scale(0.08 -0.08)">
       <use xlink:href="#DejaVuSans-50"/>
       <use x="63.623047" xlink:href="#DejaVuSans-48"/>
      </g>
     </g>
    </g>
    <g id="ytick_4">
     <g id="line2d_4">
      <path clip-path="url(#pb853b49550)" d="M 38.058125 101.912955 
L 993.118125 101.912955 
" style="fill:none;stroke:#dedede;stroke-linecap:square;"/>
     </g>
     <g id="text_12">
      <!-- 25 -->
      <g transform="translate(20.878125 104.95233)scale(0.08 -0.08)">
       <use xlink:href="#DejaVuSans-50"/>
       <use x="63.623047" xlink:href="#DejaVuSans-53"/>
      </g>
     </g>
    </g>
    <g id="ytick_5">
     <g id="line2d_5">
      <path clip-path="url(#pb853b49550)" d="M 38.058125 51.210599 
L 993.118125 51.210599 
" style="fill:none;stroke:#dedede;stroke-linecap:square;"/>
     </g>
     <g id="text_13">
      <!-- 30 -->
      <g transform="translate(20.878125 54.249974)scale(0.08 -0.08)">
       <use xlink:href="#DejaVuSans-51"/>
       <use x="63.623047" xlink:href="#DejaVuSans-48"/>
      </g>
     </g>
    </g>
    <g id="text_14">
     <!-- Occurrence -->
     <g transform="translate(14.798438 181.321616)rotate(-90)scale(0.1 -0.1)">
      <defs>
       <path d="M 39.40625 66.21875 
Q 28.65625 66.21875 22.328125 58.203125 
Q 16.015625 50.203125 16.015625 36.375 
Q 16.015625 22.609375 22.328125 14.59375 
Q 28.65625 6.59375 39.40625 6.59375 
Q 50.140625 6.59375 56.421875 14.59375 
Q 62.703125 22.609375 62.703125 36.375 
Q 62.703125 50.203125 56.421875 58.203125 
Q 50.140625 66.21875 39.40625 66.21875 
z
M 39.40625 74.21875 
Q 54.734375 74.21875 63.90625 63.9375 
Q 73.09375 53.65625 73.09375 36.375 
Q 73.09375 19.140625 63.90625 8.859375 
Q 54.734375 -1.421875 39.40625 -1.421875 
Q 24.03125 -1.421875 14.8125 8.828125 
Q 5.609375 19.09375 5.609375 36.375 
Q 5.609375 53.65625 14.8125 63.9375 
Q 24.03125 74.21875 39.40625 74.21875 
z
" id="DejaVuSans-79"/>
       <path d="M 48.78125 52.59375 
L 48.78125 44.1875 
Q 44.96875 46.296875 41.140625 47.34375 
Q 37.3125 48.390625 33.40625 48.390625 
Q 24.65625 48.390625 19.8125 42.84375 
Q 14.984375 37.3125 14.984375 27.296875 
Q 14.984375 17.28125 19.8125 11.734375 
Q 24.65625 6.203125 33.40625 6.203125 
Q 37.3125 6.203125 41.140625 7.25 
Q 44.96875 8.296875 48.78125 10.40625 
L 48.78125 2.09375 
Q 45.015625 0.34375 40.984375 -0.53125 
Q 36.96875 -1.421875 32.421875 -1.421875 
Q 20.0625 -1.421875 12.78125 6.34375 
Q 5.515625 14.109375 5.515625 27.296875 
Q 5.515625 40.671875 12.859375 48.328125 
Q 20.21875 56 33.015625 56 
Q 37.15625 56 41.109375 55.140625 
Q 45.0625 54.296875 48.78125 52.59375 
z
" id="DejaVuSans-99"/>
       <path d="M 8.5 21.578125 
L 8.5 54.6875 
L 17.484375 54.6875 
L 17.484375 21.921875 
Q 17.484375 14.15625 20.5 10.265625 
Q 23.53125 6.390625 29.59375 6.390625 
Q 36.859375 6.390625 41.078125 11.03125 
Q 45.3125 15.671875 45.3125 23.6875 
L 45.3125 54.6875 
L 54.296875 54.6875 
L 54.296875 0 
L 45.3125 0 
L 45.3125 8.40625 
Q 42.046875 3.421875 37.71875 1 
Q 33.40625 -1.421875 27.6875 -1.421875 
Q 18.265625 -1.421875 13.375 4.4375 
Q 8.5 10.296875 8.5 21.578125 
z
M 31.109375 56 
z
" id="DejaVuSans-117"/>
       <path d="M 41.109375 46.296875 
Q 39.59375 47.171875 37.8125 47.578125 
Q 36.03125 48 33.890625 48 
Q 26.265625 48 22.1875 43.046875 
Q 18.109375 38.09375 18.109375 28.8125 
L 18.109375 0 
L 9.078125 0 
L 9.078125 54.6875 
L 18.109375 54.6875 
L 18.109375 46.1875 
Q 20.953125 51.171875 25.484375 53.578125 
Q 30.03125 56 36.53125 56 
Q 37.453125 56 38.578125 55.875 
Q 39.703125 55.765625 41.0625 55.515625 
z
" id="DejaVuSans-114"/>
       <path d="M 56.203125 29.59375 
L 56.203125 25.203125 
L 14.890625 25.203125 
Q 15.484375 15.921875 20.484375 11.0625 
Q 25.484375 6.203125 34.421875 6.203125 
Q 39.59375 6.203125 44.453125 7.46875 
Q 49.3125 8.734375 54.109375 11.28125 
L 54.109375 2.78125 
Q 49.265625 0.734375 44.1875 -0.34375 
Q 39.109375 -1.421875 33.890625 -1.421875 
Q 20.796875 -1.421875 13.15625 6.1875 
Q 5.515625 13.8125 5.515625 26.8125 
Q 5.515625 40.234375 12.765625 48.109375 
Q 20.015625 56 32.328125 56 
Q 43.359375 56 49.78125 48.890625 
Q 56.203125 41.796875 56.203125 29.59375 
z
M 47.21875 32.234375 
Q 47.125 39.59375 43.09375 43.984375 
Q 39.0625 48.390625 32.421875 48.390625 
Q 24.90625 48.390625 20.390625 44.140625 
Q 15.875 39.890625 15.1875 32.171875 
z
" id="DejaVuSans-101"/>
       <path d="M 54.890625 33.015625 
L 54.890625 0 
L 45.90625 0 
L 45.90625 32.71875 
Q 45.90625 40.484375 42.875 44.328125 
Q 39.84375 48.1875 33.796875 48.1875 
Q 26.515625 48.1875 22.3125 43.546875 
Q 18.109375 38.921875 18.109375 30.90625 
L 18.109375 0 
L 9.078125 0 
L 9.078125 54.6875 
L 18.109375 54.6875 
L 18.109375 46.1875 
Q 21.34375 51.125 25.703125 53.5625 
Q 30.078125 56 35.796875 56 
Q 45.21875 56 50.046875 50.171875 
Q 54.890625 44.34375 54.890625 33.015625 
z
" id="DejaVuSans-110"/>
      </defs>
      <use xlink:href="#DejaVuSans-79"/>
      <use x="78.710938" xlink:href="#DejaVuSans-99"/>
      <use x="133.691406" xlink:href="#DejaVuSans-99"/>
      <use x="188.671875" xlink:href="#DejaVuSans-117"/>
      <use x="252.050781" xlink:href="#DejaVuSans-114"/>
      <use x="291.414062" xlink:href="#DejaVuSans-114"/>
      <use x="330.277344" xlink:href="#DejaVuSans-101"/>
      <use x="391.800781" xlink:href="#DejaVuSans-110"/>
      <use x="455.179688" xlink:href="#DejaVuSans-99"/>
      <use x="510.160156" xlink:href="#DejaVuSans-101"/>
     </g>
    </g>
   </g>
   <g id="line2d_6">
    <path clip-path="url(#pb853b49550)" d="M 81.469943 248.91369 
L 90.164728 249.110648 
L 98.859513 248.990567 
L 107.554297 248.670836 
L 116.249082 248.870976 
L 124.943867 248.931461 
L 133.638652 247.850975 
L 142.333436 244.529745 
L 151.028221 246.011593 
L 160.965118 248.421836 
L 169.659903 247.75132 
L 178.354688 247.774228 
L 187.049472 248.013267 
L 195.744257 248.366971 
L 204.439042 247.701189 
L 213.133827 248.330501 
L 221.828611 248.600414 
L 230.523396 247.921893 
L 239.218181 247.629479 
L 247.912966 248.670123 
L 256.60775 247.896573 
L 265.302535 248.847641 
L 273.99732 248.714705 
L 282.692105 248.258852 
L 291.386889 246.828593 
L 301.323786 247.742265 
L 310.018571 247.160986 
L 318.713356 247.570373 
L 327.408141 247.107488 
L 336.102925 245.901091 
L 344.79771 245.222651 
L 353.492495 246.926389 
L 362.18728 247.730348 
L 370.882064 246.234983 
L 379.576849 247.01219 
L 388.271634 247.335958 
L 396.966419 247.73178 
L 405.661203 250.147634 
L 414.355988 251.477805 
L 423.050773 253.189413 
L 431.745558 255.110955 
L 440.440342 257.538284 
L 450.377239 253.907398 
L 459.072024 246.096925 
L 467.766809 244.258135 
L 476.461594 243.874221 
L 485.156378 244.744544 
L 493.851163 243.075165 
L 502.545948 245.15681 
L 511.240733 244.766583 
L 519.935517 243.822122 
L 528.630302 245.847678 
L 537.325087 246.710295 
L 546.019872 245.190599 
L 554.714656 245.013384 
L 563.409441 246.332966 
L 572.104226 251.161887 
L 580.799011 261.863552 
L 590.735908 262.967005 
L 599.430692 257.012697 
L 608.125477 253.079074 
L 616.820262 250.704924 
L 625.515047 247.048313 
L 634.209831 245.796743 
L 642.904616 247.868884 
L 651.599401 247.498009 
L 660.294186 244.428505 
L 668.98897 245.804721 
L 677.683755 246.60443 
L 686.37854 248.208951 
L 695.073325 248.505799 
L 703.768109 247.515793 
L 712.462894 248.505647 
L 721.157679 247.063218 
L 729.852464 248.069531 
L 739.789361 250.102533 
L 748.484145 249.084593 
L 757.17893 249.416012 
L 765.873715 249.166564 
L 774.5685 249.312995 
L 783.263284 249.742003 
L 791.958069 250.580592 
L 800.652854 250.943481 
L 809.347639 248.670846 
L 818.042423 248.435962 
L 826.737208 249.405166 
L 835.431993 249.348623 
L 844.126778 249.448168 
L 852.821562 248.118708 
L 861.516347 249.167089 
L 870.211132 250.360433 
L 880.148029 249.538734 
L 888.842814 248.667522 
L 897.537598 248.003352 
L 906.232383 249.739225 
L 914.927168 249.342118 
L 923.621953 247.954604 
L 932.316737 249.966753 
L 941.011522 250.424697 
L 949.706307 250.973111 
" style="fill:none;stroke:#7cb5ec;stroke-linecap:square;"/>
   </g>
   <g id="line2d_7">
    <path clip-path="url(#pb853b49550)" d="M 81.469943 253.233519 
L 90.164728 252.649658 
L 98.859513 252.685132 
L 107.554297 252.109349 
L 116.249082 250.811651 
L 124.943867 250.274609 
L 133.638652 250.985608 
L 142.333436 251.200083 
L 151.028221 251.507006 
L 160.965118 251.873907 
L 169.659903 251.903795 
L 178.354688 253.877303 
L 187.049472 251.162681 
L 195.744257 250.876783 
L 204.439042 251.927724 
L 213.133827 251.418275 
L 221.828611 252.009789 
L 230.523396 252.306409 
L 239.218181 252.460008 
L 247.912966 253.850737 
L 256.60775 254.211636 
L 265.302535 253.757338 
L 273.99732 252.517141 
L 282.692105 252.292943 
L 291.386889 252.035853 
L 301.323786 251.69224 
L 310.018571 251.381245 
L 318.713356 252.551807 
L 327.408141 252.032646 
L 336.102925 251.132059 
L 344.79771 252.338437 
L 353.492495 251.99846 
L 362.18728 253.107279 
L 370.882064 251.974291 
L 379.576849 251.143834 
L 388.271634 250.949423 
L 396.966419 252.034259 
L 405.661203 253.421946 
L 414.355988 254.552305 
L 423.050773 254.906359 
L 431.745558 254.64625 
L 440.440342 256.030879 
L 450.377239 255.591185 
L 459.072024 251.291727 
L 467.766809 248.645722 
L 476.461594 249.156529 
L 485.156378 251.216388 
L 493.851163 249.32207 
L 502.545948 250.663461 
L 511.240733 249.144471 
L 519.935517 249.940594 
L 528.630302 250.150629 
L 537.325087 249.794076 
L 546.019872 251.049464 
L 554.714656 251.438762 
L 563.409441 251.091123 
L 572.104226 253.267381 
L 580.799011 258.756507 
L 590.735908 262.508596 
L 599.430692 258.311118 
L 608.125477 253.99253 
L 616.820262 251.914789 
L 625.515047 250.793229 
L 634.209831 250.880618 
L 642.904616 251.219844 
L 651.599401 249.529137 
L 660.294186 248.471151 
L 668.98897 248.613479 
L 677.683755 250.134711 
L 686.37854 250.956326 
L 695.073325 250.939386 
L 703.768109 252.115017 
L 712.462894 252.962153 
L 721.157679 252.473542 
L 729.852464 251.680584 
L 739.789361 252.492106 
L 748.484145 253.057639 
L 757.17893 254.151018 
L 765.873715 253.177024 
L 774.5685 252.542338 
L 783.263284 253.65782 
L 791.958069 253.161082 
L 800.652854 253.746829 
L 809.347639 252.603323 
L 818.042423 251.684777 
L 826.737208 252.525028 
L 835.431993 252.02704 
L 844.126778 251.071259 
L 852.821562 251.310606 
L 861.516347 250.879106 
L 870.211132 251.131994 
L 880.148029 252.936128 
L 888.842814 252.587073 
L 897.537598 253.206329 
L 906.232383 252.937673 
L 914.927168 253.546891 
L 923.621953 251.861696 
L 932.316737 252.225724 
L 941.011522 252.814113 
L 949.706307 253.790436 
" style="fill:none;stroke:#434348;stroke-linecap:square;"/>
   </g>
   <g id="line2d_8">
    <path clip-path="url(#pb853b49550)" d="M 81.469943 154.960377 
L 90.164728 154.6087 
L 98.859513 141.153983 
L 107.554297 135.093068 
L 116.249082 136.414126 
L 124.943867 141.586852 
L 133.638652 139.189618 
L 142.333436 137.944503 
L 151.028221 142.679341 
L 160.965118 143.83015 
L 169.659903 148.407735 
L 178.354688 152.631977 
L 187.049472 158.184006 
L 195.744257 159.907938 
L 204.439042 162.542199 
L 213.133827 166.433343 
L 221.828611 168.61086 
L 230.523396 164.513212 
L 239.218181 165.631077 
L 247.912966 165.334585 
L 256.60775 165.951134 
L 265.302535 164.195811 
L 273.99732 163.42137 
L 282.692105 159.447509 
L 291.386889 165.030778 
L 301.323786 163.073005 
L 310.018571 158.410218 
L 318.713356 159.83913 
L 327.408141 154.437363 
L 336.102925 151.44975 
L 344.79771 143.553408 
L 353.492495 137.612128 
L 362.18728 127.519372 
L 370.882064 116.248149 
L 379.576849 106.954096 
L 388.271634 99.975516 
L 396.966419 97.217919 
L 405.661203 92.035347 
L 414.355988 91.091319 
L 423.050773 95.236038 
L 431.745558 111.222783 
L 440.440342 144.268392 
L 450.377239 159.679711 
L 459.072024 161.101339 
L 467.766809 162.322689 
L 476.461594 159.026646 
L 485.156378 157.379544 
L 493.851163 153.943735 
L 502.545948 151.877185 
L 511.240733 149.871801 
L 519.935517 152.029716 
L 528.630302 151.337841 
L 537.325087 150.143475 
L 546.019872 149.655388 
L 554.714656 149.005461 
L 563.409441 146.355416 
L 572.104226 147.833546 
L 580.799011 138.994684 
L 590.735908 142.131864 
L 599.430692 140.773424 
L 608.125477 139.362816 
L 616.820262 132.532667 
L 625.515047 125.848444 
L 634.209831 129.283292 
L 642.904616 140.71454 
L 651.599401 140.295033 
L 660.294186 138.417848 
L 668.98897 135.98046 
L 677.683755 144.61763 
L 686.37854 157.430653 
L 695.073325 164.086836 
L 703.768109 170.25318 
L 712.462894 172.669883 
L 721.157679 168.937612 
L 729.852464 167.883964 
L 739.789361 172.004109 
L 748.484145 170.771735 
L 757.17893 169.60045 
L 765.873715 169.273951 
L 774.5685 163.738999 
L 783.263284 165.307334 
L 791.958069 170.506706 
L 800.652854 168.851074 
L 809.347639 169.792909 
L 818.042423 166.856828 
L 826.737208 162.312193 
L 835.431993 160.367207 
L 844.126778 161.633526 
L 852.821562 157.32673 
L 861.516347 159.989845 
L 870.211132 162.092653 
L 880.148029 161.98739 
L 888.842814 163.830137 
L 897.537598 165.735401 
L 906.232383 166.827912 
L 914.927168 173.011879 
L 923.621953 175.315171 
L 932.316737 174.387829 
L 941.011522 177.845436 
L 949.706307 173.132548 
" style="fill:none;stroke:#90ed7d;stroke-linecap:square;"/>
   </g>
   <g id="line2d_9">
    <path clip-path="url(#pb853b49550)" d="M 81.469943 102.19738 
L 90.164728 98.778003 
L 98.859513 75.524174 
L 107.554297 64.271102 
L 116.249082 62.601091 
L 124.943867 72.332369 
L 133.638652 67.870847 
L 142.333436 70.729841 
L 151.028221 74.620342 
L 160.965118 76.78041 
L 169.659903 89.562824 
L 178.354688 89.346191 
L 187.049472 100.790938 
L 195.744257 104.13999 
L 204.439042 115.144968 
L 213.133827 119.77249 
L 221.828611 133.942747 
L 230.523396 136.193209 
L 239.218181 136.437818 
L 247.912966 135.872503 
L 256.60775 139.235939 
L 265.302535 132.435119 
L 273.99732 128.841553 
L 282.692105 129.408221 
L 291.386889 128.859438 
L 301.323786 128.039463 
L 310.018571 128.724994 
L 318.713356 129.722874 
L 327.408141 126.597612 
L 336.102925 121.247837 
L 344.79771 110.564239 
L 353.492495 100.468556 
L 362.18728 89.207363 
L 370.882064 81.785659 
L 379.576849 74.069701 
L 388.271634 67.604103 
L 396.966419 66.678363 
L 405.661203 60.147896 
L 414.355988 63.491259 
L 423.050773 71.09036 
L 431.745558 87.079271 
L 440.440342 113.661017 
L 450.377239 127.017783 
L 459.072024 127.471791 
L 467.766809 121.242367 
L 476.461594 118.044072 
L 485.156378 115.369186 
L 493.851163 112.767673 
L 502.545948 113.508602 
L 511.240733 111.815538 
L 519.935517 113.145153 
L 528.630302 112.011834 
L 537.325087 110.6144 
L 546.019872 113.193596 
L 554.714656 115.507838 
L 563.409441 117.139638 
L 572.104226 116.870137 
L 580.799011 111.122038 
L 590.735908 102.258107 
L 599.430692 90.54879 
L 608.125477 78.282098 
L 616.820262 65.007937 
L 625.515047 44.278925 
L 634.209831 42.505915 
L 642.904616 57.971782 
L 651.599401 52.225327 
L 660.294186 47.90605 
L 668.98897 53.521661 
L 677.683755 68.133725 
L 686.37854 87.446508 
L 695.073325 89.487555 
L 703.768109 103.345657 
L 712.462894 115.905215 
L 721.157679 115.450894 
L 729.852464 128.213552 
L 739.789361 129.237229 
L 748.484145 132.51782 
L 757.17893 135.280702 
L 765.873715 134.836749 
L 774.5685 136.24214 
L 783.263284 134.789665 
L 791.958069 135.635749 
L 800.652854 126.802385 
L 809.347639 120.741867 
L 818.042423 111.435204 
L 826.737208 104.787422 
L 835.431993 103.545208 
L 844.126778 107.978795 
L 852.821562 104.25375 
L 861.516347 105.395118 
L 870.211132 113.926886 
L 880.148029 116.197546 
L 888.842814 117.782444 
L 897.537598 122.972411 
L 906.232383 125.848215 
L 914.927168 129.017873 
L 923.621953 132.479975 
L 932.316737 136.2189 
L 941.011522 141.973821 
L 949.706307 147.645713 
" style="fill:none;stroke:#f7a35c;stroke-linecap:square;"/>
   </g>
   <g id="line2d_10">
    <path clip-path="url(#pb853b49550)" d="M 81.469943 177.917951 
L 90.164728 175.488334 
L 98.859513 164.333397 
L 107.554297 162.772995 
L 116.249082 163.331087 
L 124.943867 166.668392 
L 133.638652 164.358932 
L 142.333436 158.853763 
L 151.028221 160.005097 
L 160.965118 159.096164 
L 169.659903 166.16406 
L 178.354688 168.240532 
L 187.049472 174.163914 
L 195.744257 180.132663 
L 204.439042 181.037495 
L 213.133827 183.258211 
L 221.828611 188.502996 
L 230.523396 188.629103 
L 239.218181 187.55289 
L 247.912966 186.713801 
L 256.60775 186.303923 
L 265.302535 187.498645 
L 273.99732 186.719585 
L 282.692105 183.891198 
L 291.386889 182.766259 
L 301.323786 181.361525 
L 310.018571 179.367967 
L 318.713356 179.868375 
L 327.408141 175.035343 
L 336.102925 171.711579 
L 344.79771 165.116468 
L 353.492495 152.914413 
L 362.18728 146.949263 
L 370.882064 136.210893 
L 379.576849 126.077151 
L 388.271634 114.260543 
L 396.966419 105.384557 
L 405.661203 93.603793 
L 414.355988 92.802523 
L 423.050773 102.067229 
L 431.745558 120.753059 
L 440.440342 150.926986 
L 450.377239 170.651052 
L 459.072024 175.04179 
L 467.766809 181.999195 
L 476.461594 183.068742 
L 485.156378 179.805461 
L 493.851163 178.729529 
L 502.545948 177.434948 
L 511.240733 177.635114 
L 519.935517 180.514265 
L 528.630302 176.331184 
L 537.325087 175.505577 
L 546.019872 177.072413 
L 554.714656 175.829087 
L 563.409441 172.460751 
L 572.104226 166.932198 
L 580.799011 159.256411 
L 590.735908 153.493725 
L 599.430692 149.84566 
L 608.125477 149.789265 
L 616.820262 146.501519 
L 625.515047 145.328308 
L 634.209831 150.298604 
L 642.904616 160.164455 
L 651.599401 164.691023 
L 660.294186 162.661724 
L 668.98897 160.52205 
L 677.683755 167.600865 
L 686.37854 175.031369 
L 695.073325 179.181197 
L 703.768109 185.479484 
L 712.462894 188.293728 
L 721.157679 187.474132 
L 729.852464 187.732259 
L 739.789361 186.612546 
L 748.484145 189.700247 
L 757.17893 188.376367 
L 765.873715 190.863503 
L 774.5685 188.084504 
L 783.263284 187.640773 
L 791.958069 188.132109 
L 800.652854 184.855324 
L 809.347639 185.916598 
L 818.042423 182.661775 
L 826.737208 177.333405 
L 835.431993 175.77464 
L 844.126778 174.562544 
L 852.821562 175.134737 
L 861.516347 174.771237 
L 870.211132 172.896079 
L 880.148029 176.992228 
L 888.842814 179.053997 
L 897.537598 180.863856 
L 906.232383 182.098846 
L 914.927168 183.614095 
L 923.621953 187.948819 
L 932.316737 190.739125 
L 941.011522 190.584877 
L 949.706307 186.492604 
" style="fill:none;stroke:#8085e9;stroke-linecap:square;"/>
   </g>
   <g id="line2d_11">
    <path clip-path="url(#pb853b49550)" d="M 81.469943 181.424707 
L 90.164728 181.145883 
L 98.859513 172.767087 
L 107.554297 169.949101 
L 116.249082 172.338426 
L 124.943867 172.835005 
L 133.638652 170.665268 
L 142.333436 168.090657 
L 151.028221 172.12277 
L 160.965118 173.190556 
L 169.659903 177.455927 
L 178.354688 177.648734 
L 187.049472 178.408398 
L 195.744257 183.687551 
L 204.439042 186.956559 
L 213.133827 189.350853 
L 221.828611 193.138229 
L 230.523396 193.881749 
L 239.218181 195.91837 
L 247.912966 195.625993 
L 256.60775 197.830908 
L 265.302535 194.302393 
L 273.99732 191.582862 
L 282.692105 192.839734 
L 291.386889 192.33537 
L 301.323786 193.429084 
L 310.018571 194.665158 
L 318.713356 193.419152 
L 327.408141 185.850041 
L 336.102925 184.740392 
L 344.79771 180.91354 
L 353.492495 174.930021 
L 362.18728 161.622756 
L 370.882064 155.001454 
L 379.576849 143.93241 
L 388.271634 135.568341 
L 396.966419 128.007512 
L 405.661203 118.827208 
L 414.355988 114.860866 
L 423.050773 122.795041 
L 431.745558 129.304539 
L 440.440342 159.883812 
L 450.377239 184.47171 
L 459.072024 187.944458 
L 467.766809 191.818736 
L 476.461594 191.76493 
L 485.156378 190.103734 
L 493.851163 189.199861 
L 502.545948 188.343375 
L 511.240733 187.44635 
L 519.935517 186.375046 
L 528.630302 187.253948 
L 537.325087 188.159894 
L 546.019872 188.742334 
L 554.714656 188.733635 
L 563.409441 186.087392 
L 572.104226 182.325064 
L 580.799011 173.033288 
L 590.735908 165.568924 
L 599.430692 158.236469 
L 608.125477 161.283062 
L 616.820262 158.024887 
L 625.515047 156.575876 
L 634.209831 161.944053 
L 642.904616 170.085155 
L 651.599401 171.517092 
L 660.294186 172.844814 
L 668.98897 169.208541 
L 677.683755 174.525897 
L 686.37854 182.1423 
L 695.073325 182.926831 
L 703.768109 188.885162 
L 712.462894 194.406003 
L 721.157679 194.054652 
L 729.852464 198.034926 
L 739.789361 195.867855 
L 748.484145 195.391229 
L 757.17893 198.995028 
L 765.873715 197.64289 
L 774.5685 195.842565 
L 783.263284 196.001093 
L 791.958069 196.960158 
L 800.652854 195.288481 
L 809.347639 194.144012 
L 818.042423 189.684607 
L 826.737208 185.531019 
L 835.431993 186.243372 
L 844.126778 185.825915 
L 852.821562 182.8356 
L 861.516347 180.452992 
L 870.211132 184.754788 
L 880.148029 185.274667 
L 888.842814 184.648992 
L 897.537598 185.704916 
L 906.232383 182.638549 
L 914.927168 186.797309 
L 923.621953 191.011979 
L 932.316737 190.779241 
L 941.011522 195.195049 
L 949.706307 194.196075 
" style="fill:none;stroke:#f15c80;stroke-linecap:square;"/>
   </g>
   <g id="line2d_12">
    <path clip-path="url(#pb853b49550)" style="fill:none;stroke:#dedede;stroke-linecap:square;stroke-width:2;"/>
   </g>
   <g id="text_15">
    <!-- deeptools: Read Distribution Profile after Annotation -->
    <g transform="translate(306.421875 19.3575)scale(0.16 -0.16)">
     <defs>
      <path d="M 45.40625 46.390625 
L 45.40625 75.984375 
L 54.390625 75.984375 
L 54.390625 0 
L 45.40625 0 
L 45.40625 8.203125 
Q 42.578125 3.328125 38.25 0.953125 
Q 33.9375 -1.421875 27.875 -1.421875 
Q 17.96875 -1.421875 11.734375 6.484375 
Q 5.515625 14.40625 5.515625 27.296875 
Q 5.515625 40.1875 11.734375 48.09375 
Q 17.96875 56 27.875 56 
Q 33.9375 56 38.25 53.625 
Q 42.578125 51.265625 45.40625 46.390625 
z
M 14.796875 27.296875 
Q 14.796875 17.390625 18.875 11.75 
Q 22.953125 6.109375 30.078125 6.109375 
Q 37.203125 6.109375 41.296875 11.75 
Q 45.40625 17.390625 45.40625 27.296875 
Q 45.40625 37.203125 41.296875 42.84375 
Q 37.203125 48.484375 30.078125 48.484375 
Q 22.953125 48.484375 18.875 42.84375 
Q 14.796875 37.203125 14.796875 27.296875 
z
" id="DejaVuSans-100"/>
      <path d="M 18.109375 8.203125 
L 18.109375 -20.796875 
L 9.078125 -20.796875 
L 9.078125 54.6875 
L 18.109375 54.6875 
L 18.109375 46.390625 
Q 20.953125 51.265625 25.265625 53.625 
Q 29.59375 56 35.59375 56 
Q 45.5625 56 51.78125 48.09375 
Q 58.015625 40.1875 58.015625 27.296875 
Q 58.015625 14.40625 51.78125 6.484375 
Q 45.5625 -1.421875 35.59375 -1.421875 
Q 29.59375 -1.421875 25.265625 0.953125 
Q 20.953125 3.328125 18.109375 8.203125 
z
M 48.6875 27.296875 
Q 48.6875 37.203125 44.609375 42.84375 
Q 40.53125 48.484375 33.40625 48.484375 
Q 26.265625 48.484375 22.1875 42.84375 
Q 18.109375 37.203125 18.109375 27.296875 
Q 18.109375 17.390625 22.1875 11.75 
Q 26.265625 6.109375 33.40625 6.109375 
Q 40.53125 6.109375 44.609375 11.75 
Q 48.6875 17.390625 48.6875 27.296875 
z
" id="DejaVuSans-112"/>
      <path d="M 18.3125 70.21875 
L 18.3125 54.6875 
L 36.8125 54.6875 
L 36.8125 47.703125 
L 18.3125 47.703125 
L 18.3125 18.015625 
Q 18.3125 11.328125 20.140625 9.421875 
Q 21.96875 7.515625 27.59375 7.515625 
L 36.8125 7.515625 
L 36.8125 0 
L 27.59375 0 
Q 17.1875 0 13.234375 3.875 
Q 9.28125 7.765625 9.28125 18.015625 
L 9.28125 47.703125 
L 2.6875 47.703125 
L 2.6875 54.6875 
L 9.28125 54.6875 
L 9.28125 70.21875 
z
" id="DejaVuSans-116"/>
      <path d="M 30.609375 48.390625 
Q 23.390625 48.390625 19.1875 42.75 
Q 14.984375 37.109375 14.984375 27.296875 
Q 14.984375 17.484375 19.15625 11.84375 
Q 23.34375 6.203125 30.609375 6.203125 
Q 37.796875 6.203125 41.984375 11.859375 
Q 46.1875 17.53125 46.1875 27.296875 
Q 46.1875 37.015625 41.984375 42.703125 
Q 37.796875 48.390625 30.609375 48.390625 
z
M 30.609375 56 
Q 42.328125 56 49.015625 48.375 
Q 55.71875 40.765625 55.71875 27.296875 
Q 55.71875 13.875 49.015625 6.21875 
Q 42.328125 -1.421875 30.609375 -1.421875 
Q 18.84375 -1.421875 12.171875 6.21875 
Q 5.515625 13.875 5.515625 27.296875 
Q 5.515625 40.765625 12.171875 48.375 
Q 18.84375 56 30.609375 56 
z
" id="DejaVuSans-111"/>
      <path d="M 9.421875 75.984375 
L 18.40625 75.984375 
L 18.40625 0 
L 9.421875 0 
z
" id="DejaVuSans-108"/>
      <path d="M 44.28125 53.078125 
L 44.28125 44.578125 
Q 40.484375 46.53125 36.375 47.5 
Q 32.28125 48.484375 27.875 48.484375 
Q 21.1875 48.484375 17.84375 46.4375 
Q 14.5 44.390625 14.5 40.28125 
Q 14.5 37.15625 16.890625 35.375 
Q 19.28125 33.59375 26.515625 31.984375 
L 29.59375 31.296875 
Q 39.15625 29.25 43.1875 25.515625 
Q 47.21875 21.78125 47.21875 15.09375 
Q 47.21875 7.46875 41.1875 3.015625 
Q 35.15625 -1.421875 24.609375 -1.421875 
Q 20.21875 -1.421875 15.453125 -0.5625 
Q 10.6875 0.296875 5.421875 2 
L 5.421875 11.28125 
Q 10.40625 8.6875 15.234375 7.390625 
Q 20.0625 6.109375 24.8125 6.109375 
Q 31.15625 6.109375 34.5625 8.28125 
Q 37.984375 10.453125 37.984375 14.40625 
Q 37.984375 18.0625 35.515625 20.015625 
Q 33.0625 21.96875 24.703125 23.78125 
L 21.578125 24.515625 
Q 13.234375 26.265625 9.515625 29.90625 
Q 5.8125 33.546875 5.8125 39.890625 
Q 5.8125 47.609375 11.28125 51.796875 
Q 16.75 56 26.8125 56 
Q 31.78125 56 36.171875 55.265625 
Q 40.578125 54.546875 44.28125 53.078125 
z
" id="DejaVuSans-115"/>
      <path d="M 11.71875 12.40625 
L 22.015625 12.40625 
L 22.015625 0 
L 11.71875 0 
z
M 11.71875 51.703125 
L 22.015625 51.703125 
L 22.015625 39.3125 
L 11.71875 39.3125 
z
" id="DejaVuSans-58"/>
      <path id="DejaVuSans-32"/>
      <path d="M 44.390625 34.1875 
Q 47.5625 33.109375 50.5625 29.59375 
Q 53.5625 26.078125 56.59375 19.921875 
L 66.609375 0 
L 56 0 
L 46.6875 18.703125 
Q 43.0625 26.03125 39.671875 28.421875 
Q 36.28125 30.8125 30.421875 30.8125 
L 19.671875 30.8125 
L 19.671875 0 
L 9.8125 0 
L 9.8125 72.90625 
L 32.078125 72.90625 
Q 44.578125 72.90625 50.734375 67.671875 
Q 56.890625 62.453125 56.890625 51.90625 
Q 56.890625 45.015625 53.6875 40.46875 
Q 50.484375 35.9375 44.390625 34.1875 
z
M 19.671875 64.796875 
L 19.671875 38.921875 
L 32.078125 38.921875 
Q 39.203125 38.921875 42.84375 42.21875 
Q 46.484375 45.515625 46.484375 51.90625 
Q 46.484375 58.296875 42.84375 61.546875 
Q 39.203125 64.796875 32.078125 64.796875 
z
" id="DejaVuSans-82"/>
      <path d="M 34.28125 27.484375 
Q 23.390625 27.484375 19.1875 25 
Q 14.984375 22.515625 14.984375 16.5 
Q 14.984375 11.71875 18.140625 8.90625 
Q 21.296875 6.109375 26.703125 6.109375 
Q 34.1875 6.109375 38.703125 11.40625 
Q 43.21875 16.703125 43.21875 25.484375 
L 43.21875 27.484375 
z
M 52.203125 31.203125 
L 52.203125 0 
L 43.21875 0 
L 43.21875 8.296875 
Q 40.140625 3.328125 35.546875 0.953125 
Q 30.953125 -1.421875 24.3125 -1.421875 
Q 15.921875 -1.421875 10.953125 3.296875 
Q 6 8.015625 6 15.921875 
Q 6 25.140625 12.171875 29.828125 
Q 18.359375 34.515625 30.609375 34.515625 
L 43.21875 34.515625 
L 43.21875 35.40625 
Q 43.21875 41.609375 39.140625 45 
Q 35.0625 48.390625 27.6875 48.390625 
Q 23 48.390625 18.546875 47.265625 
Q 14.109375 46.140625 10.015625 43.890625 
L 10.015625 52.203125 
Q 14.9375 54.109375 19.578125 55.046875 
Q 24.21875 56 28.609375 56 
Q 40.484375 56 46.34375 49.84375 
Q 52.203125 43.703125 52.203125 31.203125 
z
" id="DejaVuSans-97"/>
      <path d="M 19.671875 64.796875 
L 19.671875 8.109375 
L 31.59375 8.109375 
Q 46.6875 8.109375 53.6875 14.9375 
Q 60.6875 21.78125 60.6875 36.53125 
Q 60.6875 51.171875 53.6875 57.984375 
Q 46.6875 64.796875 31.59375 64.796875 
z
M 9.8125 72.90625 
L 30.078125 72.90625 
Q 51.265625 72.90625 61.171875 64.09375 
Q 71.09375 55.28125 71.09375 36.53125 
Q 71.09375 17.671875 61.125 8.828125 
Q 51.171875 0 30.078125 0 
L 9.8125 0 
z
" id="DejaVuSans-68"/>
      <path d="M 9.421875 54.6875 
L 18.40625 54.6875 
L 18.40625 0 
L 9.421875 0 
z
M 9.421875 75.984375 
L 18.40625 75.984375 
L 18.40625 64.59375 
L 9.421875 64.59375 
z
" id="DejaVuSans-105"/>
      <path d="M 48.6875 27.296875 
Q 48.6875 37.203125 44.609375 42.84375 
Q 40.53125 48.484375 33.40625 48.484375 
Q 26.265625 48.484375 22.1875 42.84375 
Q 18.109375 37.203125 18.109375 27.296875 
Q 18.109375 17.390625 22.1875 11.75 
Q 26.265625 6.109375 33.40625 6.109375 
Q 40.53125 6.109375 44.609375 11.75 
Q 48.6875 17.390625 48.6875 27.296875 
z
M 18.109375 46.390625 
Q 20.953125 51.265625 25.265625 53.625 
Q 29.59375 56 35.59375 56 
Q 45.5625 56 51.78125 48.09375 
Q 58.015625 40.1875 58.015625 27.296875 
Q 58.015625 14.40625 51.78125 6.484375 
Q 45.5625 -1.421875 35.59375 -1.421875 
Q 29.59375 -1.421875 25.265625 0.953125 
Q 20.953125 3.328125 18.109375 8.203125 
L 18.109375 0 
L 9.078125 0 
L 9.078125 75.984375 
L 18.109375 75.984375 
z
" id="DejaVuSans-98"/>
      <path d="M 19.671875 64.796875 
L 19.671875 37.40625 
L 32.078125 37.40625 
Q 38.96875 37.40625 42.71875 40.96875 
Q 46.484375 44.53125 46.484375 51.125 
Q 46.484375 57.671875 42.71875 61.234375 
Q 38.96875 64.796875 32.078125 64.796875 
z
M 9.8125 72.90625 
L 32.078125 72.90625 
Q 44.34375 72.90625 50.609375 67.359375 
Q 56.890625 61.8125 56.890625 51.125 
Q 56.890625 40.328125 50.609375 34.8125 
Q 44.34375 29.296875 32.078125 29.296875 
L 19.671875 29.296875 
L 19.671875 0 
L 9.8125 0 
z
" id="DejaVuSans-80"/>
      <path d="M 37.109375 75.984375 
L 37.109375 68.5 
L 28.515625 68.5 
Q 23.6875 68.5 21.796875 66.546875 
Q 19.921875 64.59375 19.921875 59.515625 
L 19.921875 54.6875 
L 34.71875 54.6875 
L 34.71875 47.703125 
L 19.921875 47.703125 
L 19.921875 0 
L 10.890625 0 
L 10.890625 47.703125 
L 2.296875 47.703125 
L 2.296875 54.6875 
L 10.890625 54.6875 
L 10.890625 58.5 
Q 10.890625 67.625 15.140625 71.796875 
Q 19.390625 75.984375 28.609375 75.984375 
z
" id="DejaVuSans-102"/>
      <path d="M 34.1875 63.1875 
L 20.796875 26.90625 
L 47.609375 26.90625 
z
M 28.609375 72.90625 
L 39.796875 72.90625 
L 67.578125 0 
L 57.328125 0 
L 50.6875 18.703125 
L 17.828125 18.703125 
L 11.1875 0 
L 0.78125 0 
z
" id="DejaVuSans-65"/>
     </defs>
     <use xlink:href="#DejaVuSans-100"/>
     <use x="63.476562" xlink:href="#DejaVuSans-101"/>
     <use x="125" xlink:href="#DejaVuSans-101"/>
     <use x="186.523438" xlink:href="#DejaVuSans-112"/>
     <use x="250" xlink:href="#DejaVuSans-116"/>
     <use x="289.208984" xlink:href="#DejaVuSans-111"/>
     <use x="350.390625" xlink:href="#DejaVuSans-111"/>
     <use x="411.572266" xlink:href="#DejaVuSans-108"/>
     <use x="439.355469" xlink:href="#DejaVuSans-115"/>
     <use x="491.455078" xlink:href="#DejaVuSans-58"/>
     <use x="525.146484" xlink:href="#DejaVuSans-32"/>
     <use x="556.933594" xlink:href="#DejaVuSans-82"/>
     <use x="621.916016" xlink:href="#DejaVuSans-101"/>
     <use x="683.439453" xlink:href="#DejaVuSans-97"/>
     <use x="744.71875" xlink:href="#DejaVuSans-100"/>
     <use x="808.195312" xlink:href="#DejaVuSans-32"/>
     <use x="839.982422" xlink:href="#DejaVuSans-68"/>
     <use x="916.984375" xlink:href="#DejaVuSans-105"/>
     <use x="944.767578" xlink:href="#DejaVuSans-115"/>
     <use x="996.867188" xlink:href="#DejaVuSans-116"/>
     <use x="1036.076172" xlink:href="#DejaVuSans-114"/>
     <use x="1077.189453" xlink:href="#DejaVuSans-105"/>
     <use x="1104.972656" xlink:href="#DejaVuSans-98"/>
     <use x="1168.449219" xlink:href="#DejaVuSans-117"/>
     <use x="1231.828125" xlink:href="#DejaVuSans-116"/>
     <use x="1271.037109" xlink:href="#DejaVuSans-105"/>
     <use x="1298.820312" xlink:href="#DejaVuSans-111"/>
     <use x="1360.001953" xlink:href="#DejaVuSans-110"/>
     <use x="1423.380859" xlink:href="#DejaVuSans-32"/>
     <use x="1455.167969" xlink:href="#DejaVuSans-80"/>
     <use x="1513.720703" xlink:href="#DejaVuSans-114"/>
     <use x="1552.583984" xlink:href="#DejaVuSans-111"/>
     <use x="1613.765625" xlink:href="#DejaVuSans-102"/>
     <use x="1648.970703" xlink:href="#DejaVuSans-105"/>
     <use x="1676.753906" xlink:href="#DejaVuSans-108"/>
     <use x="1704.537109" xlink:href="#DejaVuSans-101"/>
     <use x="1766.060547" xlink:href="#DejaVuSans-32"/>
     <use x="1797.847656" xlink:href="#DejaVuSans-97"/>
     <use x="1859.126953" xlink:href="#DejaVuSans-102"/>
     <use x="1892.582031" xlink:href="#DejaVuSans-116"/>
     <use x="1931.791016" xlink:href="#DejaVuSans-101"/>
     <use x="1993.314453" xlink:href="#DejaVuSans-114"/>
     <use x="2034.427734" xlink:href="#DejaVuSans-32"/>
     <use x="2066.214844" xlink:href="#DejaVuSans-65"/>
     <use x="2134.623047" xlink:href="#DejaVuSans-110"/>
     <use x="2198.001953" xlink:href="#DejaVuSans-110"/>
     <use x="2261.380859" xlink:href="#DejaVuSans-111"/>
     <use x="2322.5625" xlink:href="#DejaVuSans-116"/>
     <use x="2361.771484" xlink:href="#DejaVuSans-97"/>
     <use x="2423.050781" xlink:href="#DejaVuSans-116"/>
     <use x="2462.259766" xlink:href="#DejaVuSans-105"/>
     <use x="2490.042969" xlink:href="#DejaVuSans-111"/>
     <use x="2551.224609" xlink:href="#DejaVuSans-110"/>
    </g>
   </g>
   <g id="legend_1">
    <g id="line2d_13">
     <path d="M 45.258125 303.490394 
L 61.258125 303.490394 
" style="fill:none;stroke:#7cb5ec;stroke-linecap:square;"/>
    </g>
    <g id="line2d_14"/>
    <g id="text_16">
     <!-- SPT5_INPUT_R1 -->
     <g transform="translate(67.658125 306.290394)scale(0.08 -0.08)">
      <defs>
       <path d="M 53.515625 70.515625 
L 53.515625 60.890625 
Q 47.90625 63.578125 42.921875 64.890625 
Q 37.9375 66.21875 33.296875 66.21875 
Q 25.25 66.21875 20.875 63.09375 
Q 16.5 59.96875 16.5 54.203125 
Q 16.5 49.359375 19.40625 46.890625 
Q 22.3125 44.4375 30.421875 42.921875 
L 36.375 41.703125 
Q 47.40625 39.59375 52.65625 34.296875 
Q 57.90625 29 57.90625 20.125 
Q 57.90625 9.515625 50.796875 4.046875 
Q 43.703125 -1.421875 29.984375 -1.421875 
Q 24.8125 -1.421875 18.96875 -0.25 
Q 13.140625 0.921875 6.890625 3.21875 
L 6.890625 13.375 
Q 12.890625 10.015625 18.65625 8.296875 
Q 24.421875 6.59375 29.984375 6.59375 
Q 38.421875 6.59375 43.015625 9.90625 
Q 47.609375 13.234375 47.609375 19.390625 
Q 47.609375 24.75 44.3125 27.78125 
Q 41.015625 30.8125 33.5 32.328125 
L 27.484375 33.5 
Q 16.453125 35.6875 11.515625 40.375 
Q 6.59375 45.0625 6.59375 53.421875 
Q 6.59375 63.09375 13.40625 68.65625 
Q 20.21875 74.21875 32.171875 74.21875 
Q 37.3125 74.21875 42.625 73.28125 
Q 47.953125 72.359375 53.515625 70.515625 
z
" id="DejaVuSans-83"/>
       <path d="M -0.296875 72.90625 
L 61.375 72.90625 
L 61.375 64.59375 
L 35.5 64.59375 
L 35.5 0 
L 25.59375 0 
L 25.59375 64.59375 
L -0.296875 64.59375 
z
" id="DejaVuSans-84"/>
       <path d="M 50.984375 -16.609375 
L 50.984375 -23.578125 
L -0.984375 -23.578125 
L -0.984375 -16.609375 
z
" id="DejaVuSans-95"/>
       <path d="M 9.8125 72.90625 
L 19.671875 72.90625 
L 19.671875 0 
L 9.8125 0 
z
" id="DejaVuSans-73"/>
       <path d="M 9.8125 72.90625 
L 23.09375 72.90625 
L 55.421875 11.921875 
L 55.421875 72.90625 
L 64.984375 72.90625 
L 64.984375 0 
L 51.703125 0 
L 19.390625 60.984375 
L 19.390625 0 
L 9.8125 0 
z
" id="DejaVuSans-78"/>
       <path d="M 8.6875 72.90625 
L 18.609375 72.90625 
L 18.609375 28.609375 
Q 18.609375 16.890625 22.84375 11.734375 
Q 27.09375 6.59375 36.625 6.59375 
Q 46.09375 6.59375 50.34375 11.734375 
Q 54.59375 16.890625 54.59375 28.609375 
L 54.59375 72.90625 
L 64.5 72.90625 
L 64.5 27.390625 
Q 64.5 13.140625 57.4375 5.859375 
Q 50.390625 -1.421875 36.625 -1.421875 
Q 22.796875 -1.421875 15.734375 5.859375 
Q 8.6875 13.140625 8.6875 27.390625 
z
" id="DejaVuSans-85"/>
      </defs>
      <use xlink:href="#DejaVuSans-83"/>
      <use x="63.476562" xlink:href="#DejaVuSans-80"/>
      <use x="123.779297" xlink:href="#DejaVuSans-84"/>
      <use x="184.863281" xlink:href="#DejaVuSans-53"/>
      <use x="248.486328" xlink:href="#DejaVuSans-95"/>
      <use x="298.486328" xlink:href="#DejaVuSans-73"/>
      <use x="327.978516" xlink:href="#DejaVuSans-78"/>
      <use x="402.783203" xlink:href="#DejaVuSans-80"/>
      <use x="463.085938" xlink:href="#DejaVuSans-85"/>
      <use x="536.279297" xlink:href="#DejaVuSans-84"/>
      <use x="597.363281" xlink:href="#DejaVuSans-95"/>
      <use x="647.363281" xlink:href="#DejaVuSans-82"/>
      <use x="716.845703" xlink:href="#DejaVuSans-49"/>
     </g>
    </g>
    <g id="line2d_15">
     <path d="M 45.258125 315.455394 
L 61.258125 315.455394 
" style="fill:none;stroke:#434348;stroke-linecap:square;"/>
    </g>
    <g id="line2d_16"/>
    <g id="text_17">
     <!-- SPT5_INPUT_R2 -->
     <g transform="translate(67.658125 318.255394)scale(0.08 -0.08)">
      <use xlink:href="#DejaVuSans-83"/>
      <use x="63.476562" xlink:href="#DejaVuSans-80"/>
      <use x="123.779297" xlink:href="#DejaVuSans-84"/>
      <use x="184.863281" xlink:href="#DejaVuSans-53"/>
      <use x="248.486328" xlink:href="#DejaVuSans-95"/>
      <use x="298.486328" xlink:href="#DejaVuSans-73"/>
      <use x="327.978516" xlink:href="#DejaVuSans-78"/>
      <use x="402.783203" xlink:href="#DejaVuSans-80"/>
      <use x="463.085938" xlink:href="#DejaVuSans-85"/>
      <use x="536.279297" xlink:href="#DejaVuSans-84"/>
      <use x="597.363281" xlink:href="#DejaVuSans-95"/>
      <use x="647.363281" xlink:href="#DejaVuSans-82"/>
      <use x="716.845703" xlink:href="#DejaVuSans-50"/>
     </g>
    </g>
    <g id="line2d_17">
     <path d="M 270.6025 303.490394 
L 286.6025 303.490394 
" style="fill:none;stroke:#90ed7d;stroke-linecap:square;"/>
    </g>
    <g id="line2d_18"/>
    <g id="text_18">
     <!-- SPT5_T0_R1 -->
     <g transform="translate(293.0025 306.290394)scale(0.08 -0.08)">
      <use xlink:href="#DejaVuSans-83"/>
      <use x="63.476562" xlink:href="#DejaVuSans-80"/>
      <use x="123.779297" xlink:href="#DejaVuSans-84"/>
      <use x="184.863281" xlink:href="#DejaVuSans-53"/>
      <use x="248.486328" xlink:href="#DejaVuSans-95"/>
      <use x="298.486328" xlink:href="#DejaVuSans-84"/>
      <use x="359.570312" xlink:href="#DejaVuSans-48"/>
      <use x="423.193359" xlink:href="#DejaVuSans-95"/>
      <use x="473.193359" xlink:href="#DejaVuSans-82"/>
      <use x="542.675781" xlink:href="#DejaVuSans-49"/>
     </g>
    </g>
    <g id="line2d_19">
     <path d="M 482.013125 303.490394 
L 498.013125 303.490394 
" style="fill:none;stroke:#f7a35c;stroke-linecap:square;"/>
    </g>
    <g id="line2d_20"/>
    <g id="text_19">
     <!-- SPT5_T0_R2 -->
     <g transform="translate(504.413125 306.290394)scale(0.08 -0.08)">
      <use xlink:href="#DejaVuSans-83"/>
      <use x="63.476562" xlink:href="#DejaVuSans-80"/>
      <use x="123.779297" xlink:href="#DejaVuSans-84"/>
      <use x="184.863281" xlink:href="#DejaVuSans-53"/>
      <use x="248.486328" xlink:href="#DejaVuSans-95"/>
      <use x="298.486328" xlink:href="#DejaVuSans-84"/>
      <use x="359.570312" xlink:href="#DejaVuSans-48"/>
      <use x="423.193359" xlink:href="#DejaVuSans-95"/>
      <use x="473.193359" xlink:href="#DejaVuSans-82"/>
      <use x="542.675781" xlink:href="#DejaVuSans-50"/>
     </g>
    </g>
    <g id="line2d_21">
     <path d="M 693.42375 303.490394 
L 709.42375 303.490394 
" style="fill:none;stroke:#8085e9;stroke-linecap:square;"/>
    </g>
    <g id="line2d_22"/>
    <g id="text_20">
     <!-- SPT5_T15_R1 -->
     <g transform="translate(715.82375 306.290394)scale(0.08 -0.08)">
      <use xlink:href="#DejaVuSans-83"/>
      <use x="63.476562" xlink:href="#DejaVuSans-80"/>
      <use x="123.779297" xlink:href="#DejaVuSans-84"/>
      <use x="184.863281" xlink:href="#DejaVuSans-53"/>
      <use x="248.486328" xlink:href="#DejaVuSans-95"/>
      <use x="298.486328" xlink:href="#DejaVuSans-84"/>
      <use x="359.570312" xlink:href="#DejaVuSans-49"/>
      <use x="423.193359" xlink:href="#DejaVuSans-53"/>
      <use x="486.816406" xlink:href="#DejaVuSans-95"/>
      <use x="536.816406" xlink:href="#DejaVuSans-82"/>
      <use x="606.298828" xlink:href="#DejaVuSans-49"/>
     </g>
    </g>
    <g id="line2d_23">
     <path d="M 909.924375 303.490394 
L 925.924375 303.490394 
" style="fill:none;stroke:#f15c80;stroke-linecap:square;"/>
    </g>
    <g id="line2d_24"/>
    <g id="text_21">
     <!-- SPT5_T15_R2 -->
     <g transform="translate(932.324375 306.290394)scale(0.08 -0.08)">
      <use xlink:href="#DejaVuSans-83"/>
      <use x="63.476562" xlink:href="#DejaVuSans-80"/>
      <use x="123.779297" xlink:href="#DejaVuSans-84"/>
      <use x="184.863281" xlink:href="#DejaVuSans-53"/>
      <use x="248.486328" xlink:href="#DejaVuSans-95"/>
      <use x="298.486328" xlink:href="#DejaVuSans-84"/>
      <use x="359.570312" xlink:href="#DejaVuSans-49"/>
      <use x="423.193359" xlink:href="#DejaVuSans-53"/>
      <use x="486.816406" xlink:href="#DejaVuSans-95"/>
      <use x="536.816406" xlink:href="#DejaVuSans-82"/>
      <use x="606.298828" xlink:href="#DejaVuSans-50"/>
     </g>
    </g>
   </g>
  </g>
 </g>
 <defs>
  <clipPath id="pb853b49550">
   <rect height="242.5072" width="955.06" x="38.058125" y="31.48286"/>
  </clipPath>
 </defs>
</svg>
