<?xml version="1.0" encoding="utf-8" standalone="no"?>
<!DOCTYPE svg PUBLIC "-//W3C//DTD SVG 1.1//EN"
  "http://www.w3.org/Graphics/SVG/1.1/DTD/svg11.dtd">
<!-- Created with matplotlib (https://matplotlib.org/) -->
<svg height="330.541644pt" version="1.1" viewBox="0 0 1000.298125 330.541644" width="1000.298125pt" xmlns="http://www.w3.org/2000/svg" xmlns:xlink="http://www.w3.org/1999/xlink">
 <metadata>
  <rdf:RDF xmlns:cc="http://creativecommons.org/ns#" xmlns:dc="http://purl.org/dc/elements/1.1/" xmlns:rdf="http://www.w3.org/1999/02/22-rdf-syntax-ns#">
   <cc:Work>
    <dc:type rdf:resource="http://purl.org/dc/dcmitype/StillImage"/>
    <dc:date>2021-02-15T10:58:49.407053</dc:date>
    <dc:format>image/svg+xml</dc:format>
    <dc:creator>
     <cc:Agent>
      <dc:title>Matplotlib v3.3.0, https://matplotlib.org/</dc:title>
     </cc:Agent>
    </dc:creator>
   </cc:Work>
  </rdf:RDF>
 </metadata>
 <defs>
  <style type="text/css">*{stroke-linecap:butt;stroke-linejoin:round;}</style>
 </defs>
 <g id="figure_1">
  <g id="axes_1">
   <g id="patch_1">
    <path d="M 32.968125 273.99006 
L 985.463125 273.99006 
L 985.463125 31.48286 
L 32.968125 31.48286 
z
" style="fill:#ffffff;"/>
   </g>
   <g id="matplotlib.axis_1">
    <g id="xtick_1">
     <g id="text_1">
      <!-- 0 -->
      <g transform="translate(30.423125 287.06881)scale(0.08 -0.08)">
       <defs>
        <path d="M 31.78125 66.40625 
Q 24.171875 66.40625 20.328125 58.90625 
Q 16.5 51.421875 16.5 36.375 
Q 16.5 21.390625 20.328125 13.890625 
Q 24.171875 6.390625 31.78125 6.390625 
Q 39.453125 6.390625 43.28125 13.890625 
Q 47.125 21.390625 47.125 36.375 
Q 47.125 51.421875 43.28125 58.90625 
Q 39.453125 66.40625 31.78125 66.40625 
z
M 31.78125 74.21875 
Q 44.046875 74.21875 50.515625 64.515625 
Q 56.984375 54.828125 56.984375 36.375 
Q 56.984375 17.96875 50.515625 8.265625 
Q 44.046875 -1.421875 31.78125 -1.421875 
Q 19.53125 -1.421875 13.0625 8.265625 
Q 6.59375 17.96875 6.59375 36.375 
Q 6.59375 54.828125 13.0625 64.515625 
Q 19.53125 74.21875 31.78125 74.21875 
z
" id="DejaVuSans-48"/>
       </defs>
       <use xlink:href="#DejaVuSans-48"/>
      </g>
     </g>
    </g>
    <g id="xtick_2">
     <g id="text_2">
      <!-- 20 -->
      <g transform="translate(218.377125 287.06881)scale(0.08 -0.08)">
       <defs>
        <path d="M 19.1875 8.296875 
L 53.609375 8.296875 
L 53.609375 0 
L 7.328125 0 
L 7.328125 8.296875 
Q 12.9375 14.109375 22.625 23.890625 
Q 32.328125 33.6875 34.8125 36.53125 
Q 39.546875 41.84375 41.421875 45.53125 
Q 43.3125 49.21875 43.3125 52.78125 
Q 43.3125 58.59375 39.234375 62.25 
Q 35.15625 65.921875 28.609375 65.921875 
Q 23.96875 65.921875 18.8125 64.3125 
Q 13.671875 62.703125 7.8125 59.421875 
L 7.8125 69.390625 
Q 13.765625 71.78125 18.9375 73 
Q 24.125 74.21875 28.421875 74.21875 
Q 39.75 74.21875 46.484375 68.546875 
Q 53.21875 62.890625 53.21875 53.421875 
Q 53.21875 48.921875 51.53125 44.890625 
Q 49.859375 40.875 45.40625 35.40625 
Q 44.1875 33.984375 37.640625 27.21875 
Q 31.109375 20.453125 19.1875 8.296875 
z
" id="DejaVuSans-50"/>
       </defs>
       <use xlink:href="#DejaVuSans-50"/>
       <use x="63.623047" xlink:href="#DejaVuSans-48"/>
      </g>
     </g>
    </g>
    <g id="xtick_3">
     <g id="text_3">
      <!-- 40 -->
      <g transform="translate(408.876125 287.06881)scale(0.08 -0.08)">
       <defs>
        <path d="M 37.796875 64.3125 
L 12.890625 25.390625 
L 37.796875 25.390625 
z
M 35.203125 72.90625 
L 47.609375 72.90625 
L 47.609375 25.390625 
L 58.015625 25.390625 
L 58.015625 17.1875 
L 47.609375 17.1875 
L 47.609375 0 
L 37.796875 0 
L 37.796875 17.1875 
L 4.890625 17.1875 
L 4.890625 26.703125 
z
" id="DejaVuSans-52"/>
       </defs>
       <use xlink:href="#DejaVuSans-52"/>
       <use x="63.623047" xlink:href="#DejaVuSans-48"/>
      </g>
     </g>
    </g>
    <g id="xtick_4">
     <g id="text_4">
      <!-- 60 -->
      <g transform="translate(599.375125 287.06881)scale(0.08 -0.08)">
       <defs>
        <path d="M 33.015625 40.375 
Q 26.375 40.375 22.484375 35.828125 
Q 18.609375 31.296875 18.609375 23.390625 
Q 18.609375 15.53125 22.484375 10.953125 
Q 26.375 6.390625 33.015625 6.390625 
Q 39.65625 6.390625 43.53125 10.953125 
Q 47.40625 15.53125 47.40625 23.390625 
Q 47.40625 31.296875 43.53125 35.828125 
Q 39.65625 40.375 33.015625 40.375 
z
M 52.59375 71.296875 
L 52.59375 62.3125 
Q 48.875 64.0625 45.09375 64.984375 
Q 41.3125 65.921875 37.59375 65.921875 
Q 27.828125 65.921875 22.671875 59.328125 
Q 17.53125 52.734375 16.796875 39.40625 
Q 19.671875 43.65625 24.015625 45.921875 
Q 28.375 48.1875 33.59375 48.1875 
Q 44.578125 48.1875 50.953125 41.515625 
Q 57.328125 34.859375 57.328125 23.390625 
Q 57.328125 12.15625 50.6875 5.359375 
Q 44.046875 -1.421875 33.015625 -1.421875 
Q 20.359375 -1.421875 13.671875 8.265625 
Q 6.984375 17.96875 6.984375 36.375 
Q 6.984375 53.65625 15.1875 63.9375 
Q 23.390625 74.21875 37.203125 74.21875 
Q 40.921875 74.21875 44.703125 73.484375 
Q 48.484375 72.75 52.59375 71.296875 
z
" id="DejaVuSans-54"/>
       </defs>
       <use xlink:href="#DejaVuSans-54"/>
       <use x="63.623047" xlink:href="#DejaVuSans-48"/>
      </g>
     </g>
    </g>
    <g id="xtick_5">
     <g id="text_5">
      <!-- 80 -->
      <g transform="translate(789.874125 287.06881)scale(0.08 -0.08)">
       <defs>
        <path d="M 31.78125 34.625 
Q 24.75 34.625 20.71875 30.859375 
Q 16.703125 27.09375 16.703125 20.515625 
Q 16.703125 13.921875 20.71875 10.15625 
Q 24.75 6.390625 31.78125 6.390625 
Q 38.8125 6.390625 42.859375 10.171875 
Q 46.921875 13.96875 46.921875 20.515625 
Q 46.921875 27.09375 42.890625 30.859375 
Q 38.875 34.625 31.78125 34.625 
z
M 21.921875 38.8125 
Q 15.578125 40.375 12.03125 44.71875 
Q 8.5 49.078125 8.5 55.328125 
Q 8.5 64.0625 14.71875 69.140625 
Q 20.953125 74.21875 31.78125 74.21875 
Q 42.671875 74.21875 48.875 69.140625 
Q 55.078125 64.0625 55.078125 55.328125 
Q 55.078125 49.078125 51.53125 44.71875 
Q 48 40.375 41.703125 38.8125 
Q 48.828125 37.15625 52.796875 32.3125 
Q 56.78125 27.484375 56.78125 20.515625 
Q 56.78125 9.90625 50.3125 4.234375 
Q 43.84375 -1.421875 31.78125 -1.421875 
Q 19.734375 -1.421875 13.25 4.234375 
Q 6.78125 9.90625 6.78125 20.515625 
Q 6.78125 27.484375 10.78125 32.3125 
Q 14.796875 37.15625 21.921875 38.8125 
z
M 18.3125 54.390625 
Q 18.3125 48.734375 21.84375 45.5625 
Q 25.390625 42.390625 31.78125 42.390625 
Q 38.140625 42.390625 41.71875 45.5625 
Q 45.3125 48.734375 45.3125 54.390625 
Q 45.3125 60.0625 41.71875 63.234375 
Q 38.140625 66.40625 31.78125 66.40625 
Q 25.390625 66.40625 21.84375 63.234375 
Q 18.3125 60.0625 18.3125 54.390625 
z
" id="DejaVuSans-56"/>
       </defs>
       <use xlink:href="#DejaVuSans-56"/>
       <use x="63.623047" xlink:href="#DejaVuSans-48"/>
      </g>
     </g>
    </g>
    <g id="xtick_6">
     <g id="text_6">
      <!-- 100 -->
      <g transform="translate(977.828125 287.06881)scale(0.08 -0.08)">
       <defs>
        <path d="M 12.40625 8.296875 
L 28.515625 8.296875 
L 28.515625 63.921875 
L 10.984375 60.40625 
L 10.984375 69.390625 
L 28.421875 72.90625 
L 38.28125 72.90625 
L 38.28125 8.296875 
L 54.390625 8.296875 
L 54.390625 0 
L 12.40625 0 
z
" id="DejaVuSans-49"/>
       </defs>
       <use xlink:href="#DejaVuSans-49"/>
       <use x="63.623047" xlink:href="#DejaVuSans-48"/>
       <use x="127.246094" xlink:href="#DejaVuSans-48"/>
      </g>
     </g>
    </g>
    <g id="text_7">
     <!-- % GC -->
     <g transform="translate(495.510156 300.330997)scale(0.1 -0.1)">
      <defs>
       <path d="M 72.703125 32.078125 
Q 68.453125 32.078125 66.03125 28.46875 
Q 63.625 24.859375 63.625 18.40625 
Q 63.625 12.0625 66.03125 8.421875 
Q 68.453125 4.78125 72.703125 4.78125 
Q 76.859375 4.78125 79.265625 8.421875 
Q 81.6875 12.0625 81.6875 18.40625 
Q 81.6875 24.8125 79.265625 28.4375 
Q 76.859375 32.078125 72.703125 32.078125 
z
M 72.703125 38.28125 
Q 80.421875 38.28125 84.953125 32.90625 
Q 89.5 27.546875 89.5 18.40625 
Q 89.5 9.28125 84.9375 3.921875 
Q 80.375 -1.421875 72.703125 -1.421875 
Q 64.890625 -1.421875 60.34375 3.921875 
Q 55.8125 9.28125 55.8125 18.40625 
Q 55.8125 27.59375 60.375 32.9375 
Q 64.9375 38.28125 72.703125 38.28125 
z
M 22.3125 68.015625 
Q 18.109375 68.015625 15.6875 64.375 
Q 13.28125 60.75 13.28125 54.390625 
Q 13.28125 47.953125 15.671875 44.328125 
Q 18.0625 40.71875 22.3125 40.71875 
Q 26.5625 40.71875 28.96875 44.328125 
Q 31.390625 47.953125 31.390625 54.390625 
Q 31.390625 60.6875 28.953125 64.34375 
Q 26.515625 68.015625 22.3125 68.015625 
z
M 66.40625 74.21875 
L 74.21875 74.21875 
L 28.609375 -1.421875 
L 20.796875 -1.421875 
z
M 22.3125 74.21875 
Q 30.03125 74.21875 34.609375 68.875 
Q 39.203125 63.53125 39.203125 54.390625 
Q 39.203125 45.171875 34.640625 39.84375 
Q 30.078125 34.515625 22.3125 34.515625 
Q 14.546875 34.515625 10.03125 39.859375 
Q 5.515625 45.21875 5.515625 54.390625 
Q 5.515625 63.484375 10.046875 68.84375 
Q 14.59375 74.21875 22.3125 74.21875 
z
" id="DejaVuSans-37"/>
       <path id="DejaVuSans-32"/>
       <path d="M 59.515625 10.40625 
L 59.515625 29.984375 
L 43.40625 29.984375 
L 43.40625 38.09375 
L 69.28125 38.09375 
L 69.28125 6.78125 
Q 63.578125 2.734375 56.6875 0.65625 
Q 49.8125 -1.421875 42 -1.421875 
Q 24.90625 -1.421875 15.25 8.5625 
Q 5.609375 18.5625 5.609375 36.375 
Q 5.609375 54.25 15.25 64.234375 
Q 24.90625 74.21875 42 74.21875 
Q 49.125 74.21875 55.546875 72.453125 
Q 61.96875 70.703125 67.390625 67.28125 
L 67.390625 56.78125 
Q 61.921875 61.421875 55.765625 63.765625 
Q 49.609375 66.109375 42.828125 66.109375 
Q 29.4375 66.109375 22.71875 58.640625 
Q 16.015625 51.171875 16.015625 36.375 
Q 16.015625 21.625 22.71875 14.15625 
Q 29.4375 6.6875 42.828125 6.6875 
Q 48.046875 6.6875 52.140625 7.59375 
Q 56.25 8.5 59.515625 10.40625 
z
" id="DejaVuSans-71"/>
       <path d="M 64.40625 67.28125 
L 64.40625 56.890625 
Q 59.421875 61.53125 53.78125 63.8125 
Q 48.140625 66.109375 41.796875 66.109375 
Q 29.296875 66.109375 22.65625 58.46875 
Q 16.015625 50.828125 16.015625 36.375 
Q 16.015625 21.96875 22.65625 14.328125 
Q 29.296875 6.6875 41.796875 6.6875 
Q 48.140625 6.6875 53.78125 8.984375 
Q 59.421875 11.28125 64.40625 15.921875 
L 64.40625 5.609375 
Q 59.234375 2.09375 53.4375 0.328125 
Q 47.65625 -1.421875 41.21875 -1.421875 
Q 24.65625 -1.421875 15.125 8.703125 
Q 5.609375 18.84375 5.609375 36.375 
Q 5.609375 53.953125 15.125 64.078125 
Q 24.65625 74.21875 41.21875 74.21875 
Q 47.75 74.21875 53.53125 72.484375 
Q 59.328125 70.75 64.40625 67.28125 
z
" id="DejaVuSans-67"/>
      </defs>
      <use xlink:href="#DejaVuSans-37"/>
      <use x="95.019531" xlink:href="#DejaVuSans-32"/>
      <use x="126.806641" xlink:href="#DejaVuSans-71"/>
      <use x="204.296875" xlink:href="#DejaVuSans-67"/>
     </g>
    </g>
   </g>
   <g id="matplotlib.axis_2">
    <g id="ytick_1">
     <g id="line2d_1">
      <path clip-path="url(#p389f17ea6b)" d="M 32.968125 273.99006 
L 985.463125 273.99006 
" style="fill:none;stroke:#dedede;stroke-linecap:square;"/>
     </g>
     <g id="text_8">
      <!-- 0 -->
      <g transform="translate(20.878125 277.029435)scale(0.08 -0.08)">
       <use xlink:href="#DejaVuSans-48"/>
      </g>
     </g>
    </g>
    <g id="ytick_2">
     <g id="line2d_2">
      <path clip-path="url(#p389f17ea6b)" d="M 32.968125 230.223022 
L 985.463125 230.223022 
" style="fill:none;stroke:#dedede;stroke-linecap:square;"/>
     </g>
     <g id="text_9">
      <!-- 1 -->
      <g transform="translate(20.878125 233.262397)scale(0.08 -0.08)">
       <use xlink:href="#DejaVuSans-49"/>
      </g>
     </g>
    </g>
    <g id="ytick_3">
     <g id="line2d_3">
      <path clip-path="url(#p389f17ea6b)" d="M 32.968125 186.455984 
L 985.463125 186.455984 
" style="fill:none;stroke:#dedede;stroke-linecap:square;"/>
     </g>
     <g id="text_10">
      <!-- 2 -->
      <g transform="translate(20.878125 189.495359)scale(0.08 -0.08)">
       <use xlink:href="#DejaVuSans-50"/>
      </g>
     </g>
    </g>
    <g id="ytick_4">
     <g id="line2d_4">
      <path clip-path="url(#p389f17ea6b)" d="M 32.968125 142.688945 
L 985.463125 142.688945 
" style="fill:none;stroke:#dedede;stroke-linecap:square;"/>
     </g>
     <g id="text_11">
      <!-- 3 -->
      <g transform="translate(20.878125 145.72832)scale(0.08 -0.08)">
       <defs>
        <path d="M 40.578125 39.3125 
Q 47.65625 37.796875 51.625 33 
Q 55.609375 28.21875 55.609375 21.1875 
Q 55.609375 10.40625 48.1875 4.484375 
Q 40.765625 -1.421875 27.09375 -1.421875 
Q 22.515625 -1.421875 17.65625 -0.515625 
Q 12.796875 0.390625 7.625 2.203125 
L 7.625 11.71875 
Q 11.71875 9.328125 16.59375 8.109375 
Q 21.484375 6.890625 26.8125 6.890625 
Q 36.078125 6.890625 40.9375 10.546875 
Q 45.796875 14.203125 45.796875 21.1875 
Q 45.796875 27.640625 41.28125 31.265625 
Q 36.765625 34.90625 28.71875 34.90625 
L 20.21875 34.90625 
L 20.21875 43.015625 
L 29.109375 43.015625 
Q 36.375 43.015625 40.234375 45.921875 
Q 44.09375 48.828125 44.09375 54.296875 
Q 44.09375 59.90625 40.109375 62.90625 
Q 36.140625 65.921875 28.71875 65.921875 
Q 24.65625 65.921875 20.015625 65.03125 
Q 15.375 64.15625 9.8125 62.3125 
L 9.8125 71.09375 
Q 15.4375 72.65625 20.34375 73.4375 
Q 25.25 74.21875 29.59375 74.21875 
Q 40.828125 74.21875 47.359375 69.109375 
Q 53.90625 64.015625 53.90625 55.328125 
Q 53.90625 49.265625 50.4375 45.09375 
Q 46.96875 40.921875 40.578125 39.3125 
z
" id="DejaVuSans-51"/>
       </defs>
       <use xlink:href="#DejaVuSans-51"/>
      </g>
     </g>
    </g>
    <g id="ytick_5">
     <g id="line2d_5">
      <path clip-path="url(#p389f17ea6b)" d="M 32.968125 98.921907 
L 985.463125 98.921907 
" style="fill:none;stroke:#dedede;stroke-linecap:square;"/>
     </g>
     <g id="text_12">
      <!-- 4 -->
      <g transform="translate(20.878125 101.961282)scale(0.08 -0.08)">
       <use xlink:href="#DejaVuSans-52"/>
      </g>
     </g>
    </g>
    <g id="ytick_6">
     <g id="line2d_6">
      <path clip-path="url(#p389f17ea6b)" d="M 32.968125 55.154869 
L 985.463125 55.154869 
" style="fill:none;stroke:#dedede;stroke-linecap:square;"/>
     </g>
     <g id="text_13">
      <!-- 5 -->
      <g transform="translate(20.878125 58.194244)scale(0.08 -0.08)">
       <defs>
        <path d="M 10.796875 72.90625 
L 49.515625 72.90625 
L 49.515625 64.59375 
L 19.828125 64.59375 
L 19.828125 46.734375 
Q 21.96875 47.46875 24.109375 47.828125 
Q 26.265625 48.1875 28.421875 48.1875 
Q 40.625 48.1875 47.75 41.5 
Q 54.890625 34.8125 54.890625 23.390625 
Q 54.890625 11.625 47.5625 5.09375 
Q 40.234375 -1.421875 26.90625 -1.421875 
Q 22.3125 -1.421875 17.546875 -0.640625 
Q 12.796875 0.140625 7.71875 1.703125 
L 7.71875 11.625 
Q 12.109375 9.234375 16.796875 8.0625 
Q 21.484375 6.890625 26.703125 6.890625 
Q 35.15625 6.890625 40.078125 11.328125 
Q 45.015625 15.765625 45.015625 23.390625 
Q 45.015625 31 40.078125 35.4375 
Q 35.15625 39.890625 26.703125 39.890625 
Q 22.75 39.890625 18.8125 39.015625 
Q 14.890625 38.140625 10.796875 36.28125 
z
" id="DejaVuSans-53"/>
       </defs>
       <use xlink:href="#DejaVuSans-53"/>
      </g>
     </g>
    </g>
    <g id="text_14">
     <!-- Percentage -->
     <g transform="translate(14.798437 180.859116)rotate(-90)scale(0.1 -0.1)">
      <defs>
       <path d="M 19.671875 64.796875 
L 19.671875 37.40625 
L 32.078125 37.40625 
Q 38.96875 37.40625 42.71875 40.96875 
Q 46.484375 44.53125 46.484375 51.125 
Q 46.484375 57.671875 42.71875 61.234375 
Q 38.96875 64.796875 32.078125 64.796875 
z
M 9.8125 72.90625 
L 32.078125 72.90625 
Q 44.34375 72.90625 50.609375 67.359375 
Q 56.890625 61.8125 56.890625 51.125 
Q 56.890625 40.328125 50.609375 34.8125 
Q 44.34375 29.296875 32.078125 29.296875 
L 19.671875 29.296875 
L 19.671875 0 
L 9.8125 0 
z
" id="DejaVuSans-80"/>
       <path d="M 56.203125 29.59375 
L 56.203125 25.203125 
L 14.890625 25.203125 
Q 15.484375 15.921875 20.484375 11.0625 
Q 25.484375 6.203125 34.421875 6.203125 
Q 39.59375 6.203125 44.453125 7.46875 
Q 49.3125 8.734375 54.109375 11.28125 
L 54.109375 2.78125 
Q 49.265625 0.734375 44.1875 -0.34375 
Q 39.109375 -1.421875 33.890625 -1.421875 
Q 20.796875 -1.421875 13.15625 6.1875 
Q 5.515625 13.8125 5.515625 26.8125 
Q 5.515625 40.234375 12.765625 48.109375 
Q 20.015625 56 32.328125 56 
Q 43.359375 56 49.78125 48.890625 
Q 56.203125 41.796875 56.203125 29.59375 
z
M 47.21875 32.234375 
Q 47.125 39.59375 43.09375 43.984375 
Q 39.0625 48.390625 32.421875 48.390625 
Q 24.90625 48.390625 20.390625 44.140625 
Q 15.875 39.890625 15.1875 32.171875 
z
" id="DejaVuSans-101"/>
       <path d="M 41.109375 46.296875 
Q 39.59375 47.171875 37.8125 47.578125 
Q 36.03125 48 33.890625 48 
Q 26.265625 48 22.1875 43.046875 
Q 18.109375 38.09375 18.109375 28.8125 
L 18.109375 0 
L 9.078125 0 
L 9.078125 54.6875 
L 18.109375 54.6875 
L 18.109375 46.1875 
Q 20.953125 51.171875 25.484375 53.578125 
Q 30.03125 56 36.53125 56 
Q 37.453125 56 38.578125 55.875 
Q 39.703125 55.765625 41.0625 55.515625 
z
" id="DejaVuSans-114"/>
       <path d="M 48.78125 52.59375 
L 48.78125 44.1875 
Q 44.96875 46.296875 41.140625 47.34375 
Q 37.3125 48.390625 33.40625 48.390625 
Q 24.65625 48.390625 19.8125 42.84375 
Q 14.984375 37.3125 14.984375 27.296875 
Q 14.984375 17.28125 19.8125 11.734375 
Q 24.65625 6.203125 33.40625 6.203125 
Q 37.3125 6.203125 41.140625 7.25 
Q 44.96875 8.296875 48.78125 10.40625 
L 48.78125 2.09375 
Q 45.015625 0.34375 40.984375 -0.53125 
Q 36.96875 -1.421875 32.421875 -1.421875 
Q 20.0625 -1.421875 12.78125 6.34375 
Q 5.515625 14.109375 5.515625 27.296875 
Q 5.515625 40.671875 12.859375 48.328125 
Q 20.21875 56 33.015625 56 
Q 37.15625 56 41.109375 55.140625 
Q 45.0625 54.296875 48.78125 52.59375 
z
" id="DejaVuSans-99"/>
       <path d="M 54.890625 33.015625 
L 54.890625 0 
L 45.90625 0 
L 45.90625 32.71875 
Q 45.90625 40.484375 42.875 44.328125 
Q 39.84375 48.1875 33.796875 48.1875 
Q 26.515625 48.1875 22.3125 43.546875 
Q 18.109375 38.921875 18.109375 30.90625 
L 18.109375 0 
L 9.078125 0 
L 9.078125 54.6875 
L 18.109375 54.6875 
L 18.109375 46.1875 
Q 21.34375 51.125 25.703125 53.5625 
Q 30.078125 56 35.796875 56 
Q 45.21875 56 50.046875 50.171875 
Q 54.890625 44.34375 54.890625 33.015625 
z
" id="DejaVuSans-110"/>
       <path d="M 18.3125 70.21875 
L 18.3125 54.6875 
L 36.8125 54.6875 
L 36.8125 47.703125 
L 18.3125 47.703125 
L 18.3125 18.015625 
Q 18.3125 11.328125 20.140625 9.421875 
Q 21.96875 7.515625 27.59375 7.515625 
L 36.8125 7.515625 
L 36.8125 0 
L 27.59375 0 
Q 17.1875 0 13.234375 3.875 
Q 9.28125 7.765625 9.28125 18.015625 
L 9.28125 47.703125 
L 2.6875 47.703125 
L 2.6875 54.6875 
L 9.28125 54.6875 
L 9.28125 70.21875 
z
" id="DejaVuSans-116"/>
       <path d="M 34.28125 27.484375 
Q 23.390625 27.484375 19.1875 25 
Q 14.984375 22.515625 14.984375 16.5 
Q 14.984375 11.71875 18.140625 8.90625 
Q 21.296875 6.109375 26.703125 6.109375 
Q 34.1875 6.109375 38.703125 11.40625 
Q 43.21875 16.703125 43.21875 25.484375 
L 43.21875 27.484375 
z
M 52.203125 31.203125 
L 52.203125 0 
L 43.21875 0 
L 43.21875 8.296875 
Q 40.140625 3.328125 35.546875 0.953125 
Q 30.953125 -1.421875 24.3125 -1.421875 
Q 15.921875 -1.421875 10.953125 3.296875 
Q 6 8.015625 6 15.921875 
Q 6 25.140625 12.171875 29.828125 
Q 18.359375 34.515625 30.609375 34.515625 
L 43.21875 34.515625 
L 43.21875 35.40625 
Q 43.21875 41.609375 39.140625 45 
Q 35.0625 48.390625 27.6875 48.390625 
Q 23 48.390625 18.546875 47.265625 
Q 14.109375 46.140625 10.015625 43.890625 
L 10.015625 52.203125 
Q 14.9375 54.109375 19.578125 55.046875 
Q 24.21875 56 28.609375 56 
Q 40.484375 56 46.34375 49.84375 
Q 52.203125 43.703125 52.203125 31.203125 
z
" id="DejaVuSans-97"/>
       <path d="M 45.40625 27.984375 
Q 45.40625 37.75 41.375 43.109375 
Q 37.359375 48.484375 30.078125 48.484375 
Q 22.859375 48.484375 18.828125 43.109375 
Q 14.796875 37.75 14.796875 27.984375 
Q 14.796875 18.265625 18.828125 12.890625 
Q 22.859375 7.515625 30.078125 7.515625 
Q 37.359375 7.515625 41.375 12.890625 
Q 45.40625 18.265625 45.40625 27.984375 
z
M 54.390625 6.78125 
Q 54.390625 -7.171875 48.1875 -13.984375 
Q 42 -20.796875 29.203125 -20.796875 
Q 24.46875 -20.796875 20.265625 -20.09375 
Q 16.0625 -19.390625 12.109375 -17.921875 
L 12.109375 -9.1875 
Q 16.0625 -11.328125 19.921875 -12.34375 
Q 23.78125 -13.375 27.78125 -13.375 
Q 36.625 -13.375 41.015625 -8.765625 
Q 45.40625 -4.15625 45.40625 5.171875 
L 45.40625 9.625 
Q 42.625 4.78125 38.28125 2.390625 
Q 33.9375 0 27.875 0 
Q 17.828125 0 11.671875 7.65625 
Q 5.515625 15.328125 5.515625 27.984375 
Q 5.515625 40.671875 11.671875 48.328125 
Q 17.828125 56 27.875 56 
Q 33.9375 56 38.28125 53.609375 
Q 42.625 51.21875 45.40625 46.390625 
L 45.40625 54.6875 
L 54.390625 54.6875 
z
" id="DejaVuSans-103"/>
      </defs>
      <use xlink:href="#DejaVuSans-80"/>
      <use x="56.677734" xlink:href="#DejaVuSans-101"/>
      <use x="118.201172" xlink:href="#DejaVuSans-114"/>
      <use x="157.064453" xlink:href="#DejaVuSans-99"/>
      <use x="212.044922" xlink:href="#DejaVuSans-101"/>
      <use x="273.568359" xlink:href="#DejaVuSans-110"/>
      <use x="336.947266" xlink:href="#DejaVuSans-116"/>
      <use x="376.15625" xlink:href="#DejaVuSans-97"/>
      <use x="437.435547" xlink:href="#DejaVuSans-103"/>
      <use x="500.912109" xlink:href="#DejaVuSans-101"/>
     </g>
    </g>
   </g>
   <g id="line2d_7">
    <path clip-path="url(#p389f17ea6b)" d="M 32.968125 273.99006 
L 42.493075 273.99006 
L 52.018025 273.99006 
L 61.542975 273.99006 
L 71.067925 273.99006 
L 80.592875 273.968176 
L 90.117825 273.946293 
L 99.642775 273.946293 
L 109.167725 273.946293 
L 118.692675 273.869701 
L 128.217625 273.793108 
L 137.742575 273.727458 
L 147.267525 273.661807 
L 156.792475 273.497681 
L 166.317425 273.333554 
L 175.842375 272.939651 
L 185.367325 272.545748 
L 194.892275 271.801708 
L 204.417225 271.057668 
L 213.942175 269.679007 
L 223.467125 268.300345 
L 232.992075 265.280419 
L 242.517025 262.260494 
L 252.041975 258.168276 
L 261.566925 254.076058 
L 271.091875 246.351175 
L 280.616825 238.626293 
L 290.141775 225.835376 
L 299.666725 213.044459 
L 309.191675 197.167966 
L 318.716625 181.291473 
L 328.241575 162.920259 
L 337.766525 144.549044 
L 347.291475 125.138363 
L 356.816425 105.727682 
L 366.341375 91.076666 
L 375.866325 76.425649 
L 385.391275 63.667558 
L 394.916225 50.909466 
L 404.441175 47.911424 
L 413.966125 44.913382 
L 423.491075 49.115018 
L 433.016025 53.316653 
L 442.540975 64.531957 
L 452.065925 75.74726 
L 461.590875 92.280259 
L 471.115825 108.813258 
L 480.640775 125.6198 
L 490.165725 142.426343 
L 499.690675 159.604906 
L 509.215625 176.783468 
L 518.740575 190.471609 
L 528.265525 204.159751 
L 537.790475 216.447346 
L 547.315425 228.734942 
L 556.840375 235.584484 
L 566.365325 242.434025 
L 575.890275 248.484818 
L 585.415225 254.535612 
L 594.940175 258.529354 
L 604.465125 262.523096 
L 613.990075 264.219069 
L 623.515025 265.915041 
L 633.039975 267.501597 
L 642.564925 269.088152 
L 652.089875 270.160444 
L 661.614825 271.232737 
L 671.139775 271.856417 
L 680.664725 272.480097 
L 690.189675 272.928709 
L 699.714625 273.377321 
L 709.239575 273.519564 
L 718.764525 273.661807 
L 728.289475 273.760283 
L 737.814425 273.858759 
L 747.339375 273.869701 
L 756.864325 273.880642 
L 766.389275 273.913468 
L 775.914225 273.946293 
L 785.439175 273.957235 
L 794.964125 273.968176 
L 804.489075 273.968176 
L 814.014025 273.968176 
L 823.538975 273.979118 
L 833.063925 273.99006 
L 842.588875 273.99006 
L 852.113825 273.99006 
L 861.638775 273.99006 
L 871.163725 273.99006 
L 880.688675 273.99006 
L 890.213625 273.99006 
L 899.738575 273.99006 
L 909.263525 273.99006 
L 918.788475 273.99006 
L 928.313425 273.99006 
L 937.838375 273.99006 
L 947.363325 273.99006 
L 956.888275 273.99006 
L 966.413225 273.99006 
L 975.938175 273.99006 
L 985.463125 273.99006 
" style="fill:none;stroke:#5cb85c;stroke-linecap:square;"/>
   </g>
   <g id="line2d_8">
    <path clip-path="url(#p389f17ea6b)" d="M 32.968125 273.968176 
L 42.493075 273.935351 
L 52.018025 273.902526 
L 61.542975 273.902526 
L 71.067925 273.902526 
L 80.592875 273.902526 
L 90.117825 273.902526 
L 99.642775 273.902526 
L 109.167725 273.902526 
L 118.692675 273.858759 
L 128.217625 273.814991 
L 137.742575 273.782166 
L 147.267525 273.749341 
L 156.792475 273.541447 
L 166.317425 273.333553 
L 175.842375 273.027183 
L 185.367325 272.720813 
L 194.892275 272.097131 
L 204.417225 271.473449 
L 213.942175 269.668054 
L 223.467125 267.862659 
L 232.992075 265.510175 
L 242.517025 263.157691 
L 252.041975 258.266712 
L 261.566925 253.375733 
L 271.091875 246.143212 
L 280.616825 238.910691 
L 290.141775 227.345222 
L 299.666725 215.779754 
L 309.191675 200.680088 
L 318.716625 185.580422 
L 328.241575 165.05363 
L 337.766525 144.526837 
L 347.291475 125.564721 
L 356.816425 106.602604 
L 366.341375 89.971088 
L 375.866325 73.339572 
L 385.391275 61.434907 
L 394.916225 49.530243 
L 404.441175 46.280533 
L 413.966125 43.030822 
L 423.491075 49.956973 
L 433.016025 56.883124 
L 442.540975 68.240699 
L 452.065925 79.598274 
L 461.590875 94.599464 
L 471.115825 109.600653 
L 480.640775 123.573315 
L 490.165725 137.545977 
L 499.690675 155.742169 
L 509.215625 173.93836 
L 518.740575 188.031382 
L 528.265525 202.124404 
L 537.790475 214.444856 
L 547.315425 226.765308 
L 556.840375 235.606272 
L 566.365325 244.447235 
L 575.890275 249.480457 
L 585.415225 254.513679 
L 594.940175 258.452723 
L 604.465125 262.391766 
L 613.990075 264.536356 
L 623.515025 266.680946 
L 633.039975 267.80795 
L 642.564925 268.934954 
L 652.089875 270.116667 
L 661.614825 271.29838 
L 671.139775 271.714168 
L 680.664725 272.129956 
L 690.189675 272.687987 
L 699.714625 273.246018 
L 709.239575 273.289786 
L 718.764525 273.333553 
L 728.289475 273.541447 
L 737.814425 273.749341 
L 747.339375 273.847817 
L 756.864325 273.946293 
L 766.389275 273.935351 
L 775.914225 273.924409 
L 785.439175 273.913467 
L 794.964125 273.902526 
L 804.489075 273.935351 
L 814.014025 273.968176 
L 823.538975 273.968176 
L 833.063925 273.968176 
L 842.588875 273.979118 
L 852.113825 273.99006 
L 861.638775 273.968176 
L 871.163725 273.946293 
L 880.688675 273.968176 
L 890.213625 273.99006 
L 899.738575 273.99006 
L 909.263525 273.99006 
L 918.788475 273.99006 
L 928.313425 273.99006 
L 937.838375 273.99006 
L 947.363325 273.99006 
L 956.888275 273.99006 
L 966.413225 273.99006 
L 975.938175 273.99006 
L 985.463125 273.99006 
" style="fill:none;stroke:#5cb85c;stroke-linecap:square;"/>
   </g>
   <g id="line2d_9">
    <path clip-path="url(#p389f17ea6b)" d="M 32.968125 273.99006 
L 42.493075 273.99006 
L 52.018025 273.99006 
L 61.542975 273.935351 
L 71.067925 273.880642 
L 80.592875 273.902526 
L 90.117825 273.924409 
L 99.642775 273.902526 
L 109.167725 273.880642 
L 118.692675 273.793108 
L 128.217625 273.705574 
L 137.742575 273.585215 
L 147.267525 273.464856 
L 156.792475 273.092836 
L 166.317425 272.720816 
L 175.842375 272.348796 
L 185.367325 271.976776 
L 194.892275 270.69659 
L 204.417225 269.416405 
L 213.942175 268.026801 
L 223.467125 266.637198 
L 232.992075 262.54498 
L 242.517025 258.452761 
L 252.041975 252.358201 
L 261.566925 246.263641 
L 271.091875 237.477408 
L 280.616825 228.691175 
L 290.141775 214.652898 
L 299.666725 200.61462 
L 309.191675 183.709602 
L 318.716625 166.804583 
L 328.241575 146.376318 
L 337.766525 125.948053 
L 347.291475 107.489305 
L 356.816425 89.030556 
L 366.341375 74.521783 
L 375.866325 60.01301 
L 385.391275 52.506963 
L 394.916225 45.000916 
L 404.441175 46.948549 
L 413.966125 48.896182 
L 423.491075 57.682415 
L 433.016025 66.468648 
L 442.540975 79.303332 
L 452.065925 92.138016 
L 461.590875 108.112985 
L 471.115825 124.087954 
L 480.640775 140.194224 
L 490.165725 156.300494 
L 499.690675 172.756901 
L 509.215625 189.213307 
L 518.740575 201.555612 
L 528.265525 213.897917 
L 537.790475 224.905327 
L 547.315425 235.912737 
L 556.840375 242.718511 
L 566.365325 249.524286 
L 575.890275 254.305835 
L 585.415225 259.087383 
L 594.940175 262.030717 
L 604.465125 264.97405 
L 613.990075 266.516838 
L 623.515025 268.059626 
L 633.039975 269.296045 
L 642.564925 270.532464 
L 652.089875 271.221795 
L 661.614825 271.911126 
L 671.139775 272.512922 
L 680.664725 273.114719 
L 690.189675 273.278846 
L 699.714625 273.442972 
L 709.239575 273.55239 
L 718.764525 273.661807 
L 728.289475 273.760283 
L 737.814425 273.858759 
L 747.339375 273.869701 
L 756.864325 273.880642 
L 766.389275 273.902526 
L 775.914225 273.924409 
L 785.439175 273.946293 
L 794.964125 273.968176 
L 804.489075 273.979118 
L 814.014025 273.99006 
L 823.538975 273.99006 
L 833.063925 273.99006 
L 842.588875 273.99006 
L 852.113825 273.99006 
L 861.638775 273.979118 
L 871.163725 273.968176 
L 880.688675 273.979118 
L 890.213625 273.99006 
L 899.738575 273.99006 
L 909.263525 273.99006 
L 918.788475 273.99006 
L 928.313425 273.99006 
L 937.838375 273.99006 
L 947.363325 273.99006 
L 956.888275 273.99006 
L 966.413225 273.99006 
L 975.938175 273.99006 
L 985.463125 273.99006 
" style="fill:none;stroke:#5cb85c;stroke-linecap:square;"/>
   </g>
   <g id="line2d_10">
    <path clip-path="url(#p389f17ea6b)" d="M 32.968125 273.968176 
L 42.493075 273.924409 
L 52.018025 273.880642 
L 61.542975 273.858759 
L 71.067925 273.836875 
L 80.592875 273.793108 
L 90.117825 273.749341 
L 99.642775 273.749341 
L 109.167725 273.749341 
L 118.692675 273.782166 
L 128.217625 273.814991 
L 137.742575 273.694632 
L 147.267525 273.574272 
L 156.792475 273.125659 
L 166.317425 272.677046 
L 175.842375 272.009597 
L 185.367325 271.342148 
L 194.892275 270.61999 
L 204.417225 269.897832 
L 213.942175 267.818892 
L 223.467125 265.739953 
L 232.992075 262.151047 
L 242.517025 258.56214 
L 252.041975 252.511332 
L 261.566925 246.460524 
L 271.091875 237.707095 
L 280.616825 228.953665 
L 290.141775 213.843057 
L 299.666725 198.73245 
L 309.191675 182.133759 
L 318.716625 165.535068 
L 328.241575 146.791787 
L 337.766525 128.048506 
L 347.291475 110.902726 
L 356.816425 93.756946 
L 366.341375 77.803821 
L 375.866325 61.850695 
L 385.391275 54.257095 
L 394.916225 46.663495 
L 404.441175 47.133992 
L 413.966125 47.604489 
L 423.491075 55.832713 
L 433.016025 64.060936 
L 442.540975 76.501748 
L 452.065925 88.94256 
L 461.590875 106.340001 
L 471.115825 123.737442 
L 480.640775 141.145825 
L 490.165725 158.554208 
L 499.690675 173.478805 
L 509.215625 188.403403 
L 518.740575 200.811389 
L 528.265525 213.219376 
L 537.790475 223.745375 
L 547.315425 234.271374 
L 556.840375 242.598073 
L 566.365325 250.924773 
L 575.890275 254.644981 
L 585.415225 258.365188 
L 594.940175 261.910327 
L 604.465125 265.455466 
L 613.990075 267.151443 
L 623.515025 268.84742 
L 633.039975 269.777472 
L 642.564925 270.707524 
L 652.089875 271.385915 
L 661.614825 272.064306 
L 671.139775 272.491035 
L 680.664725 272.917765 
L 690.189675 273.092833 
L 699.714625 273.267902 
L 709.239575 273.442971 
L 718.764525 273.618039 
L 728.289475 273.716515 
L 737.814425 273.814991 
L 747.339375 273.836875 
L 756.864325 273.858759 
L 766.389275 273.891584 
L 775.914225 273.924409 
L 785.439175 273.946293 
L 794.964125 273.968176 
L 804.489075 273.957235 
L 814.014025 273.946293 
L 823.538975 273.957235 
L 833.063925 273.968176 
L 842.588875 273.968176 
L 852.113825 273.968176 
L 861.638775 273.979118 
L 871.163725 273.99006 
L 880.688675 273.99006 
L 890.213625 273.99006 
L 899.738575 273.99006 
L 909.263525 273.99006 
L 918.788475 273.99006 
L 928.313425 273.99006 
L 937.838375 273.99006 
L 947.363325 273.99006 
L 956.888275 273.99006 
L 966.413225 273.99006 
L 975.938175 273.99006 
L 985.463125 273.99006 
" style="fill:none;stroke:#5cb85c;stroke-linecap:square;"/>
   </g>
   <g id="line2d_11">
    <path clip-path="url(#p389f17ea6b)" d="M 32.968125 273.99006 
L 42.493075 273.99006 
L 52.018025 273.99006 
L 61.542975 273.99006 
L 71.067925 273.99006 
L 80.592875 273.99006 
L 90.117825 273.956752 
L 99.642775 273.940098 
L 109.167725 273.956752 
L 118.692675 273.806865 
L 128.217625 273.656979 
L 137.742575 273.623671 
L 147.267525 273.590363 
L 156.792475 273.37386 
L 166.317425 273.057433 
L 175.842375 272.907546 
L 185.367325 272.241384 
L 194.892275 271.625183 
L 204.417225 271.24214 
L 213.942175 270.392783 
L 223.467125 269.11042 
L 232.992075 268.294371 
L 242.517025 267.111933 
L 252.041975 264.480591 
L 261.566925 261.666055 
L 271.091875 260.300422 
L 280.616825 256.286793 
L 290.141775 246.810633 
L 299.666725 237.018045 
L 309.191675 232.687989 
L 318.716625 225.393511 
L 328.241575 208.306444 
L 337.766525 193.201211 
L 347.291475 187.888566 
L 356.816425 182.259493 
L 366.341375 165.305659 
L 375.866325 144.621316 
L 385.391275 135.261734 
L 394.916225 127.61752 
L 404.441175 106.217052 
L 413.966125 91.078511 
L 423.491075 83.933919 
L 433.016025 78.171614 
L 442.540975 69.761313 
L 452.065925 58.902865 
L 461.590875 56.038367 
L 471.115825 55.622015 
L 480.640775 57.520578 
L 490.165725 70.594016 
L 499.690675 83.81734 
L 509.215625 85.86579 
L 518.740575 96.49108 
L 528.265525 121.688674 
L 537.790475 153.930936 
L 547.315425 171.600894 
L 556.840375 185.623614 
L 566.365325 210.754591 
L 575.890275 228.740977 
L 585.415225 235.619104 
L 594.940175 242.064226 
L 604.465125 252.739478 
L 613.990075 259.600952 
L 623.515025 262.232293 
L 633.039975 263.547964 
L 642.564925 266.245922 
L 652.089875 269.293615 
L 661.614825 271.558567 
L 671.139775 272.158113 
L 680.664725 272.457886 
L 690.189675 272.974162 
L 699.714625 273.290589 
L 709.239575 273.390514 
L 718.764525 273.557054 
L 728.289475 273.740249 
L 737.814425 273.756903 
L 747.339375 273.756903 
L 756.864325 273.823519 
L 766.389275 273.890136 
L 775.914225 273.923444 
L 785.439175 273.956752 
L 794.964125 273.956752 
L 804.489075 273.973406 
L 814.014025 273.99006 
L 823.538975 273.99006 
L 833.063925 273.99006 
L 842.588875 273.973406 
L 852.113825 273.973406 
L 861.638775 273.99006 
L 871.163725 273.99006 
L 880.688675 273.99006 
L 890.213625 273.973406 
L 899.738575 273.973406 
L 909.263525 273.99006 
L 918.788475 273.956752 
L 928.313425 273.956752 
L 937.838375 273.99006 
L 947.363325 273.99006 
L 956.888275 273.99006 
L 966.413225 273.973406 
L 975.938175 273.923444 
L 985.463125 273.890136 
" style="fill:none;stroke:#5cb85c;stroke-linecap:square;"/>
   </g>
   <g id="line2d_12">
    <path clip-path="url(#p389f17ea6b)" d="M 32.968125 271.456811 
L 42.493075 272.506776 
L 52.018025 273.556741 
L 61.542975 273.673404 
L 71.067925 273.790067 
L 80.592875 273.773401 
L 90.117825 273.69007 
L 99.642775 273.640072 
L 109.167725 273.656738 
L 118.692675 273.556741 
L 128.217625 273.473411 
L 137.742575 273.39008 
L 147.267525 273.290083 
L 156.792475 273.140088 
L 166.317425 272.906763 
L 175.842375 272.523442 
L 185.367325 271.840132 
L 194.892275 271.456811 
L 204.417225 271.240152 
L 213.942175 270.69017 
L 223.467125 269.373548 
L 232.992075 268.390247 
L 242.517025 267.30695 
L 252.041975 264.857032 
L 261.566925 260.490511 
L 271.091875 257.490611 
L 280.616825 255.307351 
L 290.141775 247.624274 
L 299.666725 237.8746 
L 309.191675 233.624741 
L 318.716625 224.8917 
L 328.241575 208.092261 
L 337.766525 193.342754 
L 347.291475 186.659643 
L 356.816425 180.776507 
L 366.341375 162.127129 
L 375.866325 141.594482 
L 385.391275 133.828075 
L 394.916225 126.511652 
L 404.441175 106.695647 
L 413.966125 90.429524 
L 423.491075 82.046471 
L 433.016025 77.429958 
L 442.540975 70.896843 
L 452.065925 60.613853 
L 461.590875 55.997341 
L 471.115825 55.130703 
L 480.640775 58.280598 
L 490.165725 71.263498 
L 499.690675 86.646317 
L 509.215625 92.196132 
L 518.740575 101.92914 
L 528.265525 122.845108 
L 537.790475 154.277392 
L 547.315425 174.526715 
L 556.840375 187.109628 
L 566.365325 210.825503 
L 575.890275 229.641541 
L 585.415225 237.324618 
L 594.940175 243.274419 
L 604.465125 253.307417 
L 613.990075 260.157189 
L 623.515025 262.923763 
L 633.039975 263.640406 
L 642.564925 266.156988 
L 652.089875 269.073558 
L 661.614825 271.223486 
L 671.139775 272.256785 
L 680.664725 272.640105 
L 690.189675 272.956761 
L 699.714625 273.206753 
L 709.239575 273.523409 
L 718.764525 273.623406 
L 728.289475 273.756734 
L 737.814425 273.706736 
L 747.339375 273.623406 
L 756.864325 273.773401 
L 766.389275 273.806733 
L 775.914225 273.823399 
L 785.439175 273.956728 
L 794.964125 273.940062 
L 804.489075 273.890063 
L 814.014025 273.873397 
L 823.538975 273.890063 
L 833.063925 273.940062 
L 842.588875 273.940062 
L 852.113825 273.923396 
L 861.638775 273.956728 
L 871.163725 273.923396 
L 880.688675 273.923396 
L 890.213625 273.906729 
L 899.738575 273.906729 
L 909.263525 273.956728 
L 918.788475 273.940062 
L 928.313425 273.890063 
L 937.838375 273.890063 
L 947.363325 273.923396 
L 956.888275 273.890063 
L 966.413225 273.773401 
L 975.938175 272.590107 
L 985.463125 271.490143 
" style="fill:none;stroke:#f0ad4e;stroke-linecap:square;"/>
   </g>
   <g id="line2d_13">
    <path clip-path="url(#p389f17ea6b)" d="M 32.968125 273.99006 
L 42.493075 273.956807 
L 52.018025 273.940181 
L 61.542975 273.940181 
L 71.067925 273.923554 
L 80.592875 273.940181 
L 90.117825 273.906928 
L 99.642775 273.873675 
L 109.167725 273.890301 
L 118.692675 273.790542 
L 128.217625 273.690783 
L 137.742575 273.624278 
L 147.267525 273.557772 
L 156.792475 273.258495 
L 166.317425 272.726448 
L 175.842375 272.111268 
L 185.367325 271.047174 
L 194.892275 270.365488 
L 204.417225 269.667176 
L 213.942175 268.785973 
L 223.467125 266.840675 
L 232.992075 265.078269 
L 242.517025 263.831283 
L 252.041975 262.118756 
L 261.566925 260.30647 
L 271.091875 258.959725 
L 280.616825 253.423108 
L 290.141775 243.380717 
L 299.666725 233.554469 
L 309.191675 228.233996 
L 318.716625 221.550153 
L 328.241575 208.149213 
L 337.766525 194.831405 
L 347.291475 188.230694 
L 356.816425 183.824677 
L 366.341375 170.50687 
L 375.866325 151.752204 
L 385.391275 141.90933 
L 394.916225 132.89778 
L 404.441175 111.466251 
L 413.966125 95.471581 
L 423.491075 88.189184 
L 433.016025 84.48148 
L 442.540975 78.961489 
L 452.065925 66.624644 
L 461.590875 59.442006 
L 471.115825 59.076223 
L 480.640775 65.893079 
L 490.165725 78.894984 
L 499.690675 88.056172 
L 509.215625 91.032311 
L 518.740575 103.40241 
L 528.265525 119.912501 
L 537.790475 142.374871 
L 547.315425 160.697248 
L 556.840375 176.409269 
L 566.365325 204.225364 
L 575.890275 223.794727 
L 585.415225 231.260015 
L 594.940175 237.2788 
L 604.465125 248.169142 
L 613.990075 256.615392 
L 623.515025 260.190084 
L 633.039975 261.686467 
L 642.564925 265.726701 
L 652.089875 269.185008 
L 661.614825 271.246691 
L 671.139775 272.393918 
L 680.664725 272.776327 
L 690.189675 273.158736 
L 699.714625 273.225242 
L 709.239575 273.291748 
L 718.764525 273.491266 
L 728.289475 273.724036 
L 737.814425 273.857048 
L 747.339375 273.956807 
L 756.864325 273.956807 
L 766.389275 273.956807 
L 775.914225 273.973434 
L 785.439175 273.99006 
L 794.964125 273.99006 
L 804.489075 273.99006 
L 814.014025 273.99006 
L 823.538975 273.99006 
L 833.063925 273.99006 
L 842.588875 273.956807 
L 852.113825 273.956807 
L 861.638775 273.99006 
L 871.163725 273.99006 
L 880.688675 273.99006 
L 890.213625 273.99006 
L 899.738575 273.99006 
L 909.263525 273.99006 
L 918.788475 273.99006 
L 928.313425 273.99006 
L 937.838375 273.973434 
L 947.363325 273.956807 
L 956.888275 273.973434 
L 966.413225 273.99006 
L 975.938175 273.906928 
L 985.463125 273.823795 
" style="fill:none;stroke:#5cb85c;stroke-linecap:square;"/>
   </g>
   <g id="line2d_14">
    <path clip-path="url(#p389f17ea6b)" d="M 32.968125 271.521699 
L 42.493075 272.422317 
L 52.018025 273.356292 
L 61.542975 273.573107 
L 71.067925 273.756566 
L 80.592875 273.806601 
L 90.117825 273.823279 
L 99.642775 273.673176 
L 109.167725 273.556429 
L 118.692675 273.589785 
L 128.217625 273.439682 
L 137.742575 273.156154 
L 147.267525 273.056086 
L 156.792475 272.922661 
L 166.317425 272.388961 
L 175.842375 271.671802 
L 185.367325 270.971322 
L 194.892275 270.587725 
L 204.417225 269.787175 
L 213.942175 268.68642 
L 223.467125 266.401518 
L 232.992075 264.416823 
L 242.517025 263.783055 
L 252.041975 261.664934 
L 261.566925 259.263286 
L 271.091875 258.34599 
L 280.616825 254.159783 
L 290.141775 244.169594 
L 299.666725 234.162726 
L 309.191675 229.959841 
L 318.716625 222.054415 
L 328.241575 205.559762 
L 337.766525 193.434773 
L 347.291475 189.899013 
L 356.816425 182.193725 
L 366.341375 163.964547 
L 375.866325 145.184992 
L 385.391275 136.929326 
L 394.916225 126.738999 
L 404.441175 104.573786 
L 413.966125 87.662179 
L 423.491075 81.924908 
L 433.016025 81.124359 
L 442.540975 73.60253 
L 452.065925 60.176649 
L 461.590875 55.540133 
L 471.115825 56.80767 
L 480.640775 62.46155 
L 490.165725 76.60459 
L 499.690675 86.111115 
L 509.215625 87.12848 
L 518.740575 102.539056 
L 528.265525 126.605574 
L 537.790475 156.526109 
L 547.315425 177.790703 
L 556.840375 189.532095 
L 566.365325 212.681316 
L 575.890275 230.243369 
L 585.415225 236.397593 
L 594.940175 242.268289 
L 604.465125 253.059028 
L 613.990075 260.580857 
L 623.515025 263.182643 
L 633.039975 264.016548 
L 642.564925 266.584978 
L 652.089875 269.57036 
L 661.614825 271.788549 
L 671.139775 272.75588 
L 680.664725 272.855948 
L 690.189675 273.256223 
L 699.714625 273.523073 
L 709.239575 273.489717 
L 718.764525 273.673176 
L 728.289475 273.873313 
L 737.814425 273.873313 
L 747.339375 273.856635 
L 756.864325 273.873313 
L 766.389275 273.856635 
L 775.914225 273.823279 
L 785.439175 273.823279 
L 794.964125 273.889991 
L 804.489075 273.923348 
L 814.014025 273.940026 
L 823.538975 273.99006 
L 833.063925 273.99006 
L 842.588875 273.940026 
L 852.113825 273.923348 
L 861.638775 273.956704 
L 871.163725 273.889991 
L 880.688675 273.889991 
L 890.213625 273.940026 
L 899.738575 273.906669 
L 909.263525 273.889991 
L 918.788475 273.923348 
L 928.313425 273.956704 
L 937.838375 273.889991 
L 947.363325 273.823279 
L 956.888275 273.873313 
L 966.413225 273.940026 
L 975.938175 273.37297 
L 985.463125 272.789236 
" style="fill:none;stroke:#f0ad4e;stroke-linecap:square;"/>
   </g>
   <g id="line2d_15">
    <path clip-path="url(#p389f17ea6b)" d="M 32.968125 273.99006 
L 42.493075 273.973405 
L 52.018025 273.973405 
L 61.542975 273.973405 
L 71.067925 273.956751 
L 80.592875 273.973405 
L 90.117825 273.956751 
L 99.642775 273.940096 
L 109.167725 273.956751 
L 118.692675 273.956751 
L 128.217625 273.940096 
L 137.742575 273.773551 
L 147.267525 273.62366 
L 156.792475 273.59035 
L 166.317425 273.423805 
L 175.842375 273.124022 
L 185.367325 272.740967 
L 194.892275 272.524458 
L 204.417225 272.541113 
L 213.942175 272.024821 
L 223.467125 270.975583 
L 232.992075 270.459292 
L 242.517025 269.7598 
L 252.041975 267.844525 
L 261.566925 263.914047 
L 271.091875 261.199352 
L 280.616825 257.352147 
L 290.141775 249.058172 
L 299.666725 239.831542 
L 309.191675 235.051681 
L 318.716625 226.857633 
L 328.241575 208.47099 
L 337.766525 189.934457 
L 347.291475 181.590518 
L 356.816425 174.395745 
L 366.341375 154.959864 
L 375.866325 130.794087 
L 385.391275 118.869416 
L 394.916225 110.358932 
L 404.441175 89.274249 
L 413.966125 72.153353 
L 423.491075 67.773202 
L 433.016025 67.939748 
L 442.540975 63.992615 
L 452.065925 59.3793 
L 461.590875 59.429264 
L 471.115825 60.14541 
L 480.640775 67.140329 
L 490.165725 84.461079 
L 499.690675 97.868006 
L 509.215625 100.949101 
L 518.740575 115.488539 
L 528.265525 137.605805 
L 537.790475 163.437039 
L 547.315425 181.690446 
L 556.840375 193.115479 
L 566.365325 213.633906 
L 575.890275 228.789563 
L 585.415225 234.851826 
L 594.940175 240.680925 
L 604.465125 251.706248 
L 613.990075 258.767785 
L 623.515025 260.633097 
L 633.039975 262.048735 
L 642.564925 265.063212 
L 652.089875 267.994416 
L 661.614825 270.392673 
L 671.139775 271.458566 
L 680.664725 272.041476 
L 690.189675 272.890859 
L 699.714625 273.22395 
L 709.239575 273.290568 
L 718.764525 273.507078 
L 728.289475 273.723587 
L 737.814425 273.823514 
L 747.339375 273.923442 
L 756.864325 273.906787 
L 766.389275 273.940096 
L 775.914225 273.973405 
L 785.439175 273.956751 
L 794.964125 273.973405 
L 804.489075 273.973405 
L 814.014025 273.956751 
L 823.538975 273.956751 
L 833.063925 273.973405 
L 842.588875 273.99006 
L 852.113825 273.99006 
L 861.638775 273.99006 
L 871.163725 273.973405 
L 880.688675 273.973405 
L 890.213625 273.99006 
L 899.738575 273.99006 
L 909.263525 273.99006 
L 918.788475 273.99006 
L 928.313425 273.99006 
L 937.838375 273.99006 
L 947.363325 273.99006 
L 956.888275 273.99006 
L 966.413225 273.99006 
L 975.938175 273.973405 
L 985.463125 273.956751 
" style="fill:none;stroke:#5cb85c;stroke-linecap:square;"/>
   </g>
   <g id="line2d_16">
    <path clip-path="url(#p389f17ea6b)" d="M 32.968125 271.388245 
L 42.493075 272.372265 
L 52.018025 273.523067 
L 61.542975 273.756564 
L 71.067925 273.823277 
L 80.592875 273.706529 
L 90.117825 273.739885 
L 99.642775 273.823277 
L 109.167725 273.756564 
L 118.692675 273.706529 
L 128.217625 273.723207 
L 137.742575 273.539746 
L 147.267525 273.289571 
L 156.792475 273.289571 
L 166.317425 273.289571 
L 175.842375 273.122788 
L 185.367325 272.589082 
L 194.892275 272.22216 
L 204.417225 272.172125 
L 213.942175 271.755167 
L 223.467125 270.437581 
L 232.992075 269.486918 
L 242.517025 268.653003 
L 252.041975 267.068564 
L 261.566925 264.083148 
L 271.091875 261.848255 
L 280.616825 259.062978 
L 290.141775 250.673791 
L 299.666725 240.116425 
L 309.191675 235.162969 
L 318.716625 226.757103 
L 328.241575 206.726461 
L 337.766525 186.895957 
L 347.291475 178.690232 
L 356.816425 173.269783 
L 366.341375 153.856237 
L 375.866325 130.223081 
L 385.391275 120.583021 
L 394.916225 109.57534 
L 404.441175 87.776797 
L 413.966125 73.566882 
L 423.491075 68.429965 
L 433.016025 66.7121 
L 442.540975 60.274274 
L 452.065925 56.605047 
L 461.590875 60.290953 
L 471.115825 61.208259 
L 480.640775 66.245107 
L 490.165725 85.458513 
L 499.690675 102.053425 
L 509.215625 104.47178 
L 518.740575 117.931171 
L 528.265525 138.695659 
L 537.790475 165.264197 
L 547.315425 184.527638 
L 556.840375 195.051648 
L 566.365325 214.148306 
L 575.890275 230.843288 
L 585.415225 238.965622 
L 594.940175 243.635547 
L 604.465125 252.208195 
L 613.990075 258.362489 
L 623.515025 260.61406 
L 633.039975 262.348604 
L 642.564925 265.584195 
L 652.089875 268.269402 
L 661.614825 270.520973 
L 671.139775 271.588384 
L 680.664725 272.272195 
L 690.189675 273.022718 
L 699.714625 273.139467 
L 709.239575 273.189501 
L 718.764525 273.322928 
L 728.289475 273.589781 
L 737.814425 273.723207 
L 747.339375 273.723207 
L 756.864325 273.773242 
L 766.389275 273.856634 
L 775.914225 273.923347 
L 785.439175 273.956703 
L 794.964125 273.956703 
L 804.489075 273.906668 
L 814.014025 273.856634 
L 823.538975 273.856634 
L 833.063925 273.856634 
L 842.588875 273.839955 
L 852.113825 273.906668 
L 861.638775 273.99006 
L 871.163725 273.856634 
L 880.688675 273.756564 
L 890.213625 273.823277 
L 899.738575 273.873312 
L 909.263525 273.88999 
L 918.788475 273.923347 
L 928.313425 273.906668 
L 937.838375 273.839955 
L 947.363325 273.823277 
L 956.888275 273.873312 
L 966.413225 273.839955 
L 975.938175 272.522369 
L 985.463125 271.288175 
" style="fill:none;stroke:#5cb85c;stroke-linecap:square;"/>
   </g>
   <g id="line2d_17">
    <path clip-path="url(#p389f17ea6b)" d="M 32.968125 273.99006 
L 42.493075 273.99006 
L 52.018025 273.99006 
L 61.542975 273.99006 
L 71.067925 273.99006 
L 80.592875 273.956721 
L 90.117825 273.940052 
L 99.642775 273.923383 
L 109.167725 273.890044 
L 118.692675 273.873375 
L 128.217625 273.840036 
L 137.742575 273.790028 
L 147.267525 273.756689 
L 156.792475 273.556657 
L 166.317425 273.289947 
L 175.842375 273.023238 
L 185.367325 272.139762 
L 194.892275 271.456319 
L 204.417225 271.372972 
L 213.942175 270.772876 
L 223.467125 268.672538 
L 232.992075 267.08895 
L 242.517025 265.672056 
L 252.041975 262.604896 
L 261.566925 258.67093 
L 271.091875 256.387229 
L 280.616825 252.386586 
L 290.141775 242.468324 
L 299.666725 230.999813 
L 309.191675 225.448921 
L 318.716625 216.897546 
L 328.241575 198.277885 
L 337.766525 179.658224 
L 347.291475 171.106849 
L 356.816425 163.088893 
L 366.341375 142.652273 
L 375.866325 122.632387 
L 385.391275 115.031164 
L 394.916225 107.179902 
L 404.441175 88.993644 
L 413.966125 76.524972 
L 423.491075 70.724039 
L 433.016025 67.056783 
L 442.540975 64.039631 
L 452.065925 63.422865 
L 461.590875 68.823734 
L 471.115825 71.824216 
L 480.640775 77.808512 
L 490.165725 92.627562 
L 499.690675 107.496619 
L 509.215625 113.530923 
L 518.740575 124.516023 
L 528.265525 144.552578 
L 537.790475 169.173204 
L 547.315425 184.742375 
L 556.840375 197.527764 
L 566.365325 218.514472 
L 575.890275 233.550223 
L 585.415225 240.384656 
L 594.940175 245.6355 
L 604.465125 254.486924 
L 613.990075 260.637913 
L 623.515025 263.188323 
L 633.039975 264.521871 
L 642.564925 267.138958 
L 652.089875 269.672699 
L 661.614825 271.873053 
L 671.139775 272.823206 
L 680.664725 272.72319 
L 690.189675 273.006569 
L 699.714625 273.373294 
L 709.239575 273.356625 
L 718.764525 273.523318 
L 728.289475 273.773358 
L 737.814425 273.906713 
L 747.339375 273.956721 
L 756.864325 273.956721 
L 766.389275 273.923383 
L 775.914225 273.923383 
L 785.439175 273.956721 
L 794.964125 273.973391 
L 804.489075 273.973391 
L 814.014025 273.973391 
L 823.538975 273.99006 
L 833.063925 273.956721 
L 842.588875 273.956721 
L 852.113825 273.99006 
L 861.638775 273.99006 
L 871.163725 273.99006 
L 880.688675 273.99006 
L 890.213625 273.99006 
L 899.738575 273.99006 
L 909.263525 273.99006 
L 918.788475 273.99006 
L 928.313425 273.99006 
L 937.838375 273.99006 
L 947.363325 273.99006 
L 956.888275 273.99006 
L 966.413225 273.973391 
L 975.938175 273.973391 
L 985.463125 273.99006 
" style="fill:none;stroke:#5cb85c;stroke-linecap:square;"/>
   </g>
   <g id="line2d_18">
    <path clip-path="url(#p389f17ea6b)" d="M 32.968125 271.8234 
L 42.493075 272.606731 
L 52.018025 273.540061 
L 61.542975 273.673394 
L 71.067925 273.656728 
L 80.592875 273.706727 
L 90.117825 273.706727 
L 99.642775 273.606728 
L 109.167725 273.556728 
L 118.692675 273.606728 
L 128.217625 273.440062 
L 137.742575 273.256729 
L 147.267525 273.290062 
L 156.792475 273.190062 
L 166.317425 272.990063 
L 175.842375 272.573397 
L 185.367325 271.740067 
L 194.892275 271.223401 
L 204.417225 270.956736 
L 213.942175 270.390071 
L 223.467125 268.523409 
L 232.992075 266.956747 
L 242.517025 265.273419 
L 252.041975 262.573427 
L 261.566925 258.273439 
L 271.091875 254.990116 
L 280.616825 251.956791 
L 290.141775 242.990151 
L 299.666725 231.623518 
L 309.191675 226.1902 
L 318.716625 216.406896 
L 328.241575 198.456948 
L 337.766525 178.973672 
L 347.291475 167.657039 
L 356.816425 161.44039 
L 366.341375 144.290441 
L 375.866325 121.507174 
L 385.391275 109.657209 
L 394.916225 100.557236 
L 404.441175 84.47395 
L 413.966125 73.373982 
L 423.491075 70.423991 
L 433.016025 71.590654 
L 442.540975 66.874001 
L 452.065925 63.340678 
L 461.590875 66.107337 
L 471.115825 67.690665 
L 480.640775 74.407312 
L 490.165725 93.590589 
L 499.690675 110.690539 
L 509.215625 115.323859 
L 518.740575 127.523823 
L 528.265525 146.057102 
L 537.790475 173.073689 
L 547.315425 193.756962 
L 556.840375 203.590267 
L 566.365325 222.623544 
L 575.890275 237.140168 
L 585.415225 242.456819 
L 594.940175 248.290135 
L 604.465125 256.690111 
L 613.990075 261.606763 
L 623.515025 263.956756 
L 633.039975 264.97342 
L 642.564925 267.473412 
L 652.089875 269.973405 
L 661.614825 271.756733 
L 671.139775 272.523398 
L 680.664725 272.80673 
L 690.189675 273.256729 
L 699.714625 273.440062 
L 709.239575 273.456728 
L 718.764525 273.606728 
L 728.289475 273.790061 
L 737.814425 273.740061 
L 747.339375 273.656728 
L 756.864325 273.690061 
L 766.389275 273.790061 
L 775.914225 273.873394 
L 785.439175 273.89006 
L 794.964125 273.790061 
L 804.489075 273.806727 
L 814.014025 273.873394 
L 823.538975 273.823394 
L 833.063925 273.823394 
L 842.588875 273.84006 
L 852.113825 273.873394 
L 861.638775 273.89006 
L 871.163725 273.94006 
L 880.688675 273.956727 
L 890.213625 273.906727 
L 899.738575 273.873394 
L 909.263525 273.856727 
L 918.788475 273.823394 
L 928.313425 273.823394 
L 937.838375 273.84006 
L 947.363325 273.823394 
L 956.888275 273.906727 
L 966.413225 273.923394 
L 975.938175 272.523398 
L 985.463125 271.190068 
" style="fill:none;stroke:#5cb85c;stroke-linecap:square;"/>
   </g>
   <g id="line2d_19">
    <path clip-path="url(#p389f17ea6b)" d="M 32.968125 273.99006 
L 985.463125 273.99006 
" style="fill:none;stroke:#dedede;stroke-linecap:square;stroke-width:2;"/>
   </g>
   <g id="text_15">
    <!-- FastQC: Per Sequence GC Content -->
    <g transform="translate(372.579375 19.3575)scale(0.16 -0.16)">
     <defs>
      <path d="M 9.8125 72.90625 
L 51.703125 72.90625 
L 51.703125 64.59375 
L 19.671875 64.59375 
L 19.671875 43.109375 
L 48.578125 43.109375 
L 48.578125 34.8125 
L 19.671875 34.8125 
L 19.671875 0 
L 9.8125 0 
z
" id="DejaVuSans-70"/>
      <path d="M 44.28125 53.078125 
L 44.28125 44.578125 
Q 40.484375 46.53125 36.375 47.5 
Q 32.28125 48.484375 27.875 48.484375 
Q 21.1875 48.484375 17.84375 46.4375 
Q 14.5 44.390625 14.5 40.28125 
Q 14.5 37.15625 16.890625 35.375 
Q 19.28125 33.59375 26.515625 31.984375 
L 29.59375 31.296875 
Q 39.15625 29.25 43.1875 25.515625 
Q 47.21875 21.78125 47.21875 15.09375 
Q 47.21875 7.46875 41.1875 3.015625 
Q 35.15625 -1.421875 24.609375 -1.421875 
Q 20.21875 -1.421875 15.453125 -0.5625 
Q 10.6875 0.296875 5.421875 2 
L 5.421875 11.28125 
Q 10.40625 8.6875 15.234375 7.390625 
Q 20.0625 6.109375 24.8125 6.109375 
Q 31.15625 6.109375 34.5625 8.28125 
Q 37.984375 10.453125 37.984375 14.40625 
Q 37.984375 18.0625 35.515625 20.015625 
Q 33.0625 21.96875 24.703125 23.78125 
L 21.578125 24.515625 
Q 13.234375 26.265625 9.515625 29.90625 
Q 5.8125 33.546875 5.8125 39.890625 
Q 5.8125 47.609375 11.28125 51.796875 
Q 16.75 56 26.8125 56 
Q 31.78125 56 36.171875 55.265625 
Q 40.578125 54.546875 44.28125 53.078125 
z
" id="DejaVuSans-115"/>
      <path d="M 39.40625 66.21875 
Q 28.65625 66.21875 22.328125 58.203125 
Q 16.015625 50.203125 16.015625 36.375 
Q 16.015625 22.609375 22.328125 14.59375 
Q 28.65625 6.59375 39.40625 6.59375 
Q 50.140625 6.59375 56.421875 14.59375 
Q 62.703125 22.609375 62.703125 36.375 
Q 62.703125 50.203125 56.421875 58.203125 
Q 50.140625 66.21875 39.40625 66.21875 
z
M 53.21875 1.3125 
L 66.21875 -12.890625 
L 54.296875 -12.890625 
L 43.5 -1.21875 
Q 41.890625 -1.3125 41.03125 -1.359375 
Q 40.1875 -1.421875 39.40625 -1.421875 
Q 24.03125 -1.421875 14.8125 8.859375 
Q 5.609375 19.140625 5.609375 36.375 
Q 5.609375 53.65625 14.8125 63.9375 
Q 24.03125 74.21875 39.40625 74.21875 
Q 54.734375 74.21875 63.90625 63.9375 
Q 73.09375 53.65625 73.09375 36.375 
Q 73.09375 23.6875 67.984375 14.640625 
Q 62.890625 5.609375 53.21875 1.3125 
z
" id="DejaVuSans-81"/>
      <path d="M 11.71875 12.40625 
L 22.015625 12.40625 
L 22.015625 0 
L 11.71875 0 
z
M 11.71875 51.703125 
L 22.015625 51.703125 
L 22.015625 39.3125 
L 11.71875 39.3125 
z
" id="DejaVuSans-58"/>
      <path d="M 53.515625 70.515625 
L 53.515625 60.890625 
Q 47.90625 63.578125 42.921875 64.890625 
Q 37.9375 66.21875 33.296875 66.21875 
Q 25.25 66.21875 20.875 63.09375 
Q 16.5 59.96875 16.5 54.203125 
Q 16.5 49.359375 19.40625 46.890625 
Q 22.3125 44.4375 30.421875 42.921875 
L 36.375 41.703125 
Q 47.40625 39.59375 52.65625 34.296875 
Q 57.90625 29 57.90625 20.125 
Q 57.90625 9.515625 50.796875 4.046875 
Q 43.703125 -1.421875 29.984375 -1.421875 
Q 24.8125 -1.421875 18.96875 -0.25 
Q 13.140625 0.921875 6.890625 3.21875 
L 6.890625 13.375 
Q 12.890625 10.015625 18.65625 8.296875 
Q 24.421875 6.59375 29.984375 6.59375 
Q 38.421875 6.59375 43.015625 9.90625 
Q 47.609375 13.234375 47.609375 19.390625 
Q 47.609375 24.75 44.3125 27.78125 
Q 41.015625 30.8125 33.5 32.328125 
L 27.484375 33.5 
Q 16.453125 35.6875 11.515625 40.375 
Q 6.59375 45.0625 6.59375 53.421875 
Q 6.59375 63.09375 13.40625 68.65625 
Q 20.21875 74.21875 32.171875 74.21875 
Q 37.3125 74.21875 42.625 73.28125 
Q 47.953125 72.359375 53.515625 70.515625 
z
" id="DejaVuSans-83"/>
      <path d="M 14.796875 27.296875 
Q 14.796875 17.390625 18.875 11.75 
Q 22.953125 6.109375 30.078125 6.109375 
Q 37.203125 6.109375 41.296875 11.75 
Q 45.40625 17.390625 45.40625 27.296875 
Q 45.40625 37.203125 41.296875 42.84375 
Q 37.203125 48.484375 30.078125 48.484375 
Q 22.953125 48.484375 18.875 42.84375 
Q 14.796875 37.203125 14.796875 27.296875 
z
M 45.40625 8.203125 
Q 42.578125 3.328125 38.25 0.953125 
Q 33.9375 -1.421875 27.875 -1.421875 
Q 17.96875 -1.421875 11.734375 6.484375 
Q 5.515625 14.40625 5.515625 27.296875 
Q 5.515625 40.1875 11.734375 48.09375 
Q 17.96875 56 27.875 56 
Q 33.9375 56 38.25 53.625 
Q 42.578125 51.265625 45.40625 46.390625 
L 45.40625 54.6875 
L 54.390625 54.6875 
L 54.390625 -20.796875 
L 45.40625 -20.796875 
z
" id="DejaVuSans-113"/>
      <path d="M 8.5 21.578125 
L 8.5 54.6875 
L 17.484375 54.6875 
L 17.484375 21.921875 
Q 17.484375 14.15625 20.5 10.265625 
Q 23.53125 6.390625 29.59375 6.390625 
Q 36.859375 6.390625 41.078125 11.03125 
Q 45.3125 15.671875 45.3125 23.6875 
L 45.3125 54.6875 
L 54.296875 54.6875 
L 54.296875 0 
L 45.3125 0 
L 45.3125 8.40625 
Q 42.046875 3.421875 37.71875 1 
Q 33.40625 -1.421875 27.6875 -1.421875 
Q 18.265625 -1.421875 13.375 4.4375 
Q 8.5 10.296875 8.5 21.578125 
z
M 31.109375 56 
z
" id="DejaVuSans-117"/>
      <path d="M 30.609375 48.390625 
Q 23.390625 48.390625 19.1875 42.75 
Q 14.984375 37.109375 14.984375 27.296875 
Q 14.984375 17.484375 19.15625 11.84375 
Q 23.34375 6.203125 30.609375 6.203125 
Q 37.796875 6.203125 41.984375 11.859375 
Q 46.1875 17.53125 46.1875 27.296875 
Q 46.1875 37.015625 41.984375 42.703125 
Q 37.796875 48.390625 30.609375 48.390625 
z
M 30.609375 56 
Q 42.328125 56 49.015625 48.375 
Q 55.71875 40.765625 55.71875 27.296875 
Q 55.71875 13.875 49.015625 6.21875 
Q 42.328125 -1.421875 30.609375 -1.421875 
Q 18.84375 -1.421875 12.171875 6.21875 
Q 5.515625 13.875 5.515625 27.296875 
Q 5.515625 40.765625 12.171875 48.375 
Q 18.84375 56 30.609375 56 
z
" id="DejaVuSans-111"/>
     </defs>
     <use xlink:href="#DejaVuSans-70"/>
     <use x="48.394531" xlink:href="#DejaVuSans-97"/>
     <use x="109.673828" xlink:href="#DejaVuSans-115"/>
     <use x="161.773438" xlink:href="#DejaVuSans-116"/>
     <use x="200.982422" xlink:href="#DejaVuSans-81"/>
     <use x="279.693359" xlink:href="#DejaVuSans-67"/>
     <use x="349.517578" xlink:href="#DejaVuSans-58"/>
     <use x="383.208984" xlink:href="#DejaVuSans-32"/>
     <use x="414.996094" xlink:href="#DejaVuSans-80"/>
     <use x="471.673828" xlink:href="#DejaVuSans-101"/>
     <use x="533.197266" xlink:href="#DejaVuSans-114"/>
     <use x="574.310547" xlink:href="#DejaVuSans-32"/>
     <use x="606.097656" xlink:href="#DejaVuSans-83"/>
     <use x="669.574219" xlink:href="#DejaVuSans-101"/>
     <use x="731.097656" xlink:href="#DejaVuSans-113"/>
     <use x="794.574219" xlink:href="#DejaVuSans-117"/>
     <use x="857.953125" xlink:href="#DejaVuSans-101"/>
     <use x="919.476562" xlink:href="#DejaVuSans-110"/>
     <use x="982.855469" xlink:href="#DejaVuSans-99"/>
     <use x="1037.835938" xlink:href="#DejaVuSans-101"/>
     <use x="1099.359375" xlink:href="#DejaVuSans-32"/>
     <use x="1131.146484" xlink:href="#DejaVuSans-71"/>
     <use x="1208.636719" xlink:href="#DejaVuSans-67"/>
     <use x="1278.460938" xlink:href="#DejaVuSans-32"/>
     <use x="1310.248047" xlink:href="#DejaVuSans-67"/>
     <use x="1380.072266" xlink:href="#DejaVuSans-111"/>
     <use x="1441.253906" xlink:href="#DejaVuSans-110"/>
     <use x="1504.632812" xlink:href="#DejaVuSans-116"/>
     <use x="1543.841797" xlink:href="#DejaVuSans-101"/>
     <use x="1605.365234" xlink:href="#DejaVuSans-110"/>
     <use x="1668.744141" xlink:href="#DejaVuSans-116"/>
    </g>
   </g>
   <g id="legend_1">
    <g id="line2d_20">
     <path d="M 40.168125 291.525394 
L 56.168125 291.525394 
" style="fill:none;stroke:#5cb85c;stroke-linecap:square;"/>
    </g>
    <g id="line2d_21"/>
    <g id="text_16">
     <!-- SPT5_INPUT_R1_T1_1 -->
     <g transform="translate(62.568125 294.325394)scale(0.08 -0.08)">
      <defs>
       <path d="M -0.296875 72.90625 
L 61.375 72.90625 
L 61.375 64.59375 
L 35.5 64.59375 
L 35.5 0 
L 25.59375 0 
L 25.59375 64.59375 
L -0.296875 64.59375 
z
" id="DejaVuSans-84"/>
       <path d="M 50.984375 -16.609375 
L 50.984375 -23.578125 
L -0.984375 -23.578125 
L -0.984375 -16.609375 
z
" id="DejaVuSans-95"/>
       <path d="M 9.8125 72.90625 
L 19.671875 72.90625 
L 19.671875 0 
L 9.8125 0 
z
" id="DejaVuSans-73"/>
       <path d="M 9.8125 72.90625 
L 23.09375 72.90625 
L 55.421875 11.921875 
L 55.421875 72.90625 
L 64.984375 72.90625 
L 64.984375 0 
L 51.703125 0 
L 19.390625 60.984375 
L 19.390625 0 
L 9.8125 0 
z
" id="DejaVuSans-78"/>
       <path d="M 8.6875 72.90625 
L 18.609375 72.90625 
L 18.609375 28.609375 
Q 18.609375 16.890625 22.84375 11.734375 
Q 27.09375 6.59375 36.625 6.59375 
Q 46.09375 6.59375 50.34375 11.734375 
Q 54.59375 16.890625 54.59375 28.609375 
L 54.59375 72.90625 
L 64.5 72.90625 
L 64.5 27.390625 
Q 64.5 13.140625 57.4375 5.859375 
Q 50.390625 -1.421875 36.625 -1.421875 
Q 22.796875 -1.421875 15.734375 5.859375 
Q 8.6875 13.140625 8.6875 27.390625 
z
" id="DejaVuSans-85"/>
       <path d="M 44.390625 34.1875 
Q 47.5625 33.109375 50.5625 29.59375 
Q 53.5625 26.078125 56.59375 19.921875 
L 66.609375 0 
L 56 0 
L 46.6875 18.703125 
Q 43.0625 26.03125 39.671875 28.421875 
Q 36.28125 30.8125 30.421875 30.8125 
L 19.671875 30.8125 
L 19.671875 0 
L 9.8125 0 
L 9.8125 72.90625 
L 32.078125 72.90625 
Q 44.578125 72.90625 50.734375 67.671875 
Q 56.890625 62.453125 56.890625 51.90625 
Q 56.890625 45.015625 53.6875 40.46875 
Q 50.484375 35.9375 44.390625 34.1875 
z
M 19.671875 64.796875 
L 19.671875 38.921875 
L 32.078125 38.921875 
Q 39.203125 38.921875 42.84375 42.21875 
Q 46.484375 45.515625 46.484375 51.90625 
Q 46.484375 58.296875 42.84375 61.546875 
Q 39.203125 64.796875 32.078125 64.796875 
z
" id="DejaVuSans-82"/>
      </defs>
      <use xlink:href="#DejaVuSans-83"/>
      <use x="63.476562" xlink:href="#DejaVuSans-80"/>
      <use x="123.779297" xlink:href="#DejaVuSans-84"/>
      <use x="184.863281" xlink:href="#DejaVuSans-53"/>
      <use x="248.486328" xlink:href="#DejaVuSans-95"/>
      <use x="298.486328" xlink:href="#DejaVuSans-73"/>
      <use x="327.978516" xlink:href="#DejaVuSans-78"/>
      <use x="402.783203" xlink:href="#DejaVuSans-80"/>
      <use x="463.085938" xlink:href="#DejaVuSans-85"/>
      <use x="536.279297" xlink:href="#DejaVuSans-84"/>
      <use x="597.363281" xlink:href="#DejaVuSans-95"/>
      <use x="647.363281" xlink:href="#DejaVuSans-82"/>
      <use x="716.845703" xlink:href="#DejaVuSans-49"/>
      <use x="780.46875" xlink:href="#DejaVuSans-95"/>
      <use x="830.46875" xlink:href="#DejaVuSans-84"/>
      <use x="891.552734" xlink:href="#DejaVuSans-49"/>
      <use x="955.175781" xlink:href="#DejaVuSans-95"/>
      <use x="1005.175781" xlink:href="#DejaVuSans-49"/>
     </g>
    </g>
    <g id="line2d_22">
     <path d="M 40.168125 303.490394 
L 56.168125 303.490394 
" style="fill:none;stroke:#5cb85c;stroke-linecap:square;"/>
    </g>
    <g id="line2d_23"/>
    <g id="text_17">
     <!-- SPT5_INPUT_R1_T1_2 -->
     <g transform="translate(62.568125 306.290394)scale(0.08 -0.08)">
      <use xlink:href="#DejaVuSans-83"/>
      <use x="63.476562" xlink:href="#DejaVuSans-80"/>
      <use x="123.779297" xlink:href="#DejaVuSans-84"/>
      <use x="184.863281" xlink:href="#DejaVuSans-53"/>
      <use x="248.486328" xlink:href="#DejaVuSans-95"/>
      <use x="298.486328" xlink:href="#DejaVuSans-73"/>
      <use x="327.978516" xlink:href="#DejaVuSans-78"/>
      <use x="402.783203" xlink:href="#DejaVuSans-80"/>
      <use x="463.085938" xlink:href="#DejaVuSans-85"/>
      <use x="536.279297" xlink:href="#DejaVuSans-84"/>
      <use x="597.363281" xlink:href="#DejaVuSans-95"/>
      <use x="647.363281" xlink:href="#DejaVuSans-82"/>
      <use x="716.845703" xlink:href="#DejaVuSans-49"/>
      <use x="780.46875" xlink:href="#DejaVuSans-95"/>
      <use x="830.46875" xlink:href="#DejaVuSans-84"/>
      <use x="891.552734" xlink:href="#DejaVuSans-49"/>
      <use x="955.175781" xlink:href="#DejaVuSans-95"/>
      <use x="1005.175781" xlink:href="#DejaVuSans-50"/>
     </g>
    </g>
    <g id="line2d_24">
     <path d="M 40.168125 315.455394 
L 56.168125 315.455394 
" style="fill:none;stroke:#5cb85c;stroke-linecap:square;"/>
    </g>
    <g id="line2d_25"/>
    <g id="text_18">
     <!-- SPT5_INPUT_R2_T1_1 -->
     <g transform="translate(62.568125 318.255394)scale(0.08 -0.08)">
      <use xlink:href="#DejaVuSans-83"/>
      <use x="63.476562" xlink:href="#DejaVuSans-80"/>
      <use x="123.779297" xlink:href="#DejaVuSans-84"/>
      <use x="184.863281" xlink:href="#DejaVuSans-53"/>
      <use x="248.486328" xlink:href="#DejaVuSans-95"/>
      <use x="298.486328" xlink:href="#DejaVuSans-73"/>
      <use x="327.978516" xlink:href="#DejaVuSans-78"/>
      <use x="402.783203" xlink:href="#DejaVuSans-80"/>
      <use x="463.085938" xlink:href="#DejaVuSans-85"/>
      <use x="536.279297" xlink:href="#DejaVuSans-84"/>
      <use x="597.363281" xlink:href="#DejaVuSans-95"/>
      <use x="647.363281" xlink:href="#DejaVuSans-82"/>
      <use x="716.845703" xlink:href="#DejaVuSans-50"/>
      <use x="780.46875" xlink:href="#DejaVuSans-95"/>
      <use x="830.46875" xlink:href="#DejaVuSans-84"/>
      <use x="891.552734" xlink:href="#DejaVuSans-49"/>
      <use x="955.175781" xlink:href="#DejaVuSans-95"/>
      <use x="1005.175781" xlink:href="#DejaVuSans-49"/>
     </g>
    </g>
    <g id="line2d_26">
     <path d="M 255.62125 291.525394 
L 271.62125 291.525394 
" style="fill:none;stroke:#5cb85c;stroke-linecap:square;"/>
    </g>
    <g id="line2d_27"/>
    <g id="text_19">
     <!-- SPT5_INPUT_R2_T1_2 -->
     <g transform="translate(278.02125 294.325394)scale(0.08 -0.08)">
      <use xlink:href="#DejaVuSans-83"/>
      <use x="63.476562" xlink:href="#DejaVuSans-80"/>
      <use x="123.779297" xlink:href="#DejaVuSans-84"/>
      <use x="184.863281" xlink:href="#DejaVuSans-53"/>
      <use x="248.486328" xlink:href="#DejaVuSans-95"/>
      <use x="298.486328" xlink:href="#DejaVuSans-73"/>
      <use x="327.978516" xlink:href="#DejaVuSans-78"/>
      <use x="402.783203" xlink:href="#DejaVuSans-80"/>
      <use x="463.085938" xlink:href="#DejaVuSans-85"/>
      <use x="536.279297" xlink:href="#DejaVuSans-84"/>
      <use x="597.363281" xlink:href="#DejaVuSans-95"/>
      <use x="647.363281" xlink:href="#DejaVuSans-82"/>
      <use x="716.845703" xlink:href="#DejaVuSans-50"/>
      <use x="780.46875" xlink:href="#DejaVuSans-95"/>
      <use x="830.46875" xlink:href="#DejaVuSans-84"/>
      <use x="891.552734" xlink:href="#DejaVuSans-49"/>
      <use x="955.175781" xlink:href="#DejaVuSans-95"/>
      <use x="1005.175781" xlink:href="#DejaVuSans-50"/>
     </g>
    </g>
    <g id="line2d_28">
     <path d="M 255.62125 303.490394 
L 271.62125 303.490394 
" style="fill:none;stroke:#5cb85c;stroke-linecap:square;"/>
    </g>
    <g id="line2d_29"/>
    <g id="text_20">
     <!-- SPT5_T0_R1_T1_1 -->
     <g transform="translate(278.02125 306.290394)scale(0.08 -0.08)">
      <use xlink:href="#DejaVuSans-83"/>
      <use x="63.476562" xlink:href="#DejaVuSans-80"/>
      <use x="123.779297" xlink:href="#DejaVuSans-84"/>
      <use x="184.863281" xlink:href="#DejaVuSans-53"/>
      <use x="248.486328" xlink:href="#DejaVuSans-95"/>
      <use x="298.486328" xlink:href="#DejaVuSans-84"/>
      <use x="359.570312" xlink:href="#DejaVuSans-48"/>
      <use x="423.193359" xlink:href="#DejaVuSans-95"/>
      <use x="473.193359" xlink:href="#DejaVuSans-82"/>
      <use x="542.675781" xlink:href="#DejaVuSans-49"/>
      <use x="606.298828" xlink:href="#DejaVuSans-95"/>
      <use x="656.298828" xlink:href="#DejaVuSans-84"/>
      <use x="717.382812" xlink:href="#DejaVuSans-49"/>
      <use x="781.005859" xlink:href="#DejaVuSans-95"/>
      <use x="831.005859" xlink:href="#DejaVuSans-49"/>
     </g>
    </g>
    <g id="line2d_30">
     <path d="M 255.62125 315.455394 
L 271.62125 315.455394 
" style="fill:none;stroke:#f0ad4e;stroke-linecap:square;"/>
    </g>
    <g id="line2d_31"/>
    <g id="text_21">
     <!-- SPT5_T0_R1_T1_2 -->
     <g transform="translate(278.02125 318.255394)scale(0.08 -0.08)">
      <use xlink:href="#DejaVuSans-83"/>
      <use x="63.476562" xlink:href="#DejaVuSans-80"/>
      <use x="123.779297" xlink:href="#DejaVuSans-84"/>
      <use x="184.863281" xlink:href="#DejaVuSans-53"/>
      <use x="248.486328" xlink:href="#DejaVuSans-95"/>
      <use x="298.486328" xlink:href="#DejaVuSans-84"/>
      <use x="359.570312" xlink:href="#DejaVuSans-48"/>
      <use x="423.193359" xlink:href="#DejaVuSans-95"/>
      <use x="473.193359" xlink:href="#DejaVuSans-82"/>
      <use x="542.675781" xlink:href="#DejaVuSans-49"/>
      <use x="606.298828" xlink:href="#DejaVuSans-95"/>
      <use x="656.298828" xlink:href="#DejaVuSans-84"/>
      <use x="717.382812" xlink:href="#DejaVuSans-49"/>
      <use x="781.005859" xlink:href="#DejaVuSans-95"/>
      <use x="831.005859" xlink:href="#DejaVuSans-50"/>
     </g>
    </g>
    <g id="line2d_32">
     <path d="M 471.074375 291.525394 
L 487.074375 291.525394 
" style="fill:none;stroke:#5cb85c;stroke-linecap:square;"/>
    </g>
    <g id="line2d_33"/>
    <g id="text_22">
     <!-- SPT5_T0_R2_T1_1 -->
     <g transform="translate(493.474375 294.325394)scale(0.08 -0.08)">
      <use xlink:href="#DejaVuSans-83"/>
      <use x="63.476562" xlink:href="#DejaVuSans-80"/>
      <use x="123.779297" xlink:href="#DejaVuSans-84"/>
      <use x="184.863281" xlink:href="#DejaVuSans-53"/>
      <use x="248.486328" xlink:href="#DejaVuSans-95"/>
      <use x="298.486328" xlink:href="#DejaVuSans-84"/>
      <use x="359.570312" xlink:href="#DejaVuSans-48"/>
      <use x="423.193359" xlink:href="#DejaVuSans-95"/>
      <use x="473.193359" xlink:href="#DejaVuSans-82"/>
      <use x="542.675781" xlink:href="#DejaVuSans-50"/>
      <use x="606.298828" xlink:href="#DejaVuSans-95"/>
      <use x="656.298828" xlink:href="#DejaVuSans-84"/>
      <use x="717.382812" xlink:href="#DejaVuSans-49"/>
      <use x="781.005859" xlink:href="#DejaVuSans-95"/>
      <use x="831.005859" xlink:href="#DejaVuSans-49"/>
     </g>
    </g>
    <g id="line2d_34">
     <path d="M 471.074375 303.490394 
L 487.074375 303.490394 
" style="fill:none;stroke:#f0ad4e;stroke-linecap:square;"/>
    </g>
    <g id="line2d_35"/>
    <g id="text_23">
     <!-- SPT5_T0_R2_T1_2 -->
     <g transform="translate(493.474375 306.290394)scale(0.08 -0.08)">
      <use xlink:href="#DejaVuSans-83"/>
      <use x="63.476562" xlink:href="#DejaVuSans-80"/>
      <use x="123.779297" xlink:href="#DejaVuSans-84"/>
      <use x="184.863281" xlink:href="#DejaVuSans-53"/>
      <use x="248.486328" xlink:href="#DejaVuSans-95"/>
      <use x="298.486328" xlink:href="#DejaVuSans-84"/>
      <use x="359.570312" xlink:href="#DejaVuSans-48"/>
      <use x="423.193359" xlink:href="#DejaVuSans-95"/>
      <use x="473.193359" xlink:href="#DejaVuSans-82"/>
      <use x="542.675781" xlink:href="#DejaVuSans-50"/>
      <use x="606.298828" xlink:href="#DejaVuSans-95"/>
      <use x="656.298828" xlink:href="#DejaVuSans-84"/>
      <use x="717.382812" xlink:href="#DejaVuSans-49"/>
      <use x="781.005859" xlink:href="#DejaVuSans-95"/>
      <use x="831.005859" xlink:href="#DejaVuSans-50"/>
     </g>
    </g>
    <g id="line2d_36">
     <path d="M 672.59375 291.525394 
L 688.59375 291.525394 
" style="fill:none;stroke:#5cb85c;stroke-linecap:square;"/>
    </g>
    <g id="line2d_37"/>
    <g id="text_24">
     <!-- SPT5_T15_R1_T1_1 -->
     <g transform="translate(694.99375 294.325394)scale(0.08 -0.08)">
      <use xlink:href="#DejaVuSans-83"/>
      <use x="63.476562" xlink:href="#DejaVuSans-80"/>
      <use x="123.779297" xlink:href="#DejaVuSans-84"/>
      <use x="184.863281" xlink:href="#DejaVuSans-53"/>
      <use x="248.486328" xlink:href="#DejaVuSans-95"/>
      <use x="298.486328" xlink:href="#DejaVuSans-84"/>
      <use x="359.570312" xlink:href="#DejaVuSans-49"/>
      <use x="423.193359" xlink:href="#DejaVuSans-53"/>
      <use x="486.816406" xlink:href="#DejaVuSans-95"/>
      <use x="536.816406" xlink:href="#DejaVuSans-82"/>
      <use x="606.298828" xlink:href="#DejaVuSans-49"/>
      <use x="669.921875" xlink:href="#DejaVuSans-95"/>
      <use x="719.921875" xlink:href="#DejaVuSans-84"/>
      <use x="781.005859" xlink:href="#DejaVuSans-49"/>
      <use x="844.628906" xlink:href="#DejaVuSans-95"/>
      <use x="894.628906" xlink:href="#DejaVuSans-49"/>
     </g>
    </g>
    <g id="line2d_38">
     <path d="M 672.59375 303.490394 
L 688.59375 303.490394 
" style="fill:none;stroke:#5cb85c;stroke-linecap:square;"/>
    </g>
    <g id="line2d_39"/>
    <g id="text_25">
     <!-- SPT5_T15_R1_T1_2 -->
     <g transform="translate(694.99375 306.290394)scale(0.08 -0.08)">
      <use xlink:href="#DejaVuSans-83"/>
      <use x="63.476562" xlink:href="#DejaVuSans-80"/>
      <use x="123.779297" xlink:href="#DejaVuSans-84"/>
      <use x="184.863281" xlink:href="#DejaVuSans-53"/>
      <use x="248.486328" xlink:href="#DejaVuSans-95"/>
      <use x="298.486328" xlink:href="#DejaVuSans-84"/>
      <use x="359.570312" xlink:href="#DejaVuSans-49"/>
      <use x="423.193359" xlink:href="#DejaVuSans-53"/>
      <use x="486.816406" xlink:href="#DejaVuSans-95"/>
      <use x="536.816406" xlink:href="#DejaVuSans-82"/>
      <use x="606.298828" xlink:href="#DejaVuSans-49"/>
      <use x="669.921875" xlink:href="#DejaVuSans-95"/>
      <use x="719.921875" xlink:href="#DejaVuSans-84"/>
      <use x="781.005859" xlink:href="#DejaVuSans-49"/>
      <use x="844.628906" xlink:href="#DejaVuSans-95"/>
      <use x="894.628906" xlink:href="#DejaVuSans-50"/>
     </g>
    </g>
    <g id="line2d_40">
     <path d="M 879.203125 291.525394 
L 895.203125 291.525394 
" style="fill:none;stroke:#5cb85c;stroke-linecap:square;"/>
    </g>
    <g id="line2d_41"/>
    <g id="text_26">
     <!-- SPT5_T15_R2_T1_1 -->
     <g transform="translate(901.603125 294.325394)scale(0.08 -0.08)">
      <use xlink:href="#DejaVuSans-83"/>
      <use x="63.476562" xlink:href="#DejaVuSans-80"/>
      <use x="123.779297" xlink:href="#DejaVuSans-84"/>
      <use x="184.863281" xlink:href="#DejaVuSans-53"/>
      <use x="248.486328" xlink:href="#DejaVuSans-95"/>
      <use x="298.486328" xlink:href="#DejaVuSans-84"/>
      <use x="359.570312" xlink:href="#DejaVuSans-49"/>
      <use x="423.193359" xlink:href="#DejaVuSans-53"/>
      <use x="486.816406" xlink:href="#DejaVuSans-95"/>
      <use x="536.816406" xlink:href="#DejaVuSans-82"/>
      <use x="606.298828" xlink:href="#DejaVuSans-50"/>
      <use x="669.921875" xlink:href="#DejaVuSans-95"/>
      <use x="719.921875" xlink:href="#DejaVuSans-84"/>
      <use x="781.005859" xlink:href="#DejaVuSans-49"/>
      <use x="844.628906" xlink:href="#DejaVuSans-95"/>
      <use x="894.628906" xlink:href="#DejaVuSans-49"/>
     </g>
    </g>
    <g id="line2d_42">
     <path d="M 879.203125 303.490394 
L 895.203125 303.490394 
" style="fill:none;stroke:#5cb85c;stroke-linecap:square;"/>
    </g>
    <g id="line2d_43"/>
    <g id="text_27">
     <!-- SPT5_T15_R2_T1_2 -->
     <g transform="translate(901.603125 306.290394)scale(0.08 -0.08)">
      <use xlink:href="#DejaVuSans-83"/>
      <use x="63.476562" xlink:href="#DejaVuSans-80"/>
      <use x="123.779297" xlink:href="#DejaVuSans-84"/>
      <use x="184.863281" xlink:href="#DejaVuSans-53"/>
      <use x="248.486328" xlink:href="#DejaVuSans-95"/>
      <use x="298.486328" xlink:href="#DejaVuSans-84"/>
      <use x="359.570312" xlink:href="#DejaVuSans-49"/>
      <use x="423.193359" xlink:href="#DejaVuSans-53"/>
      <use x="486.816406" xlink:href="#DejaVuSans-95"/>
      <use x="536.816406" xlink:href="#DejaVuSans-82"/>
      <use x="606.298828" xlink:href="#DejaVuSans-50"/>
      <use x="669.921875" xlink:href="#DejaVuSans-95"/>
      <use x="719.921875" xlink:href="#DejaVuSans-84"/>
      <use x="781.005859" xlink:href="#DejaVuSans-49"/>
      <use x="844.628906" xlink:href="#DejaVuSans-95"/>
      <use x="894.628906" xlink:href="#DejaVuSans-50"/>
     </g>
    </g>
   </g>
  </g>
 </g>
 <defs>
  <clipPath id="p389f17ea6b">
   <rect height="242.5072" width="952.495" x="32.968125" y="31.48286"/>
  </clipPath>
 </defs>
</svg>
