<?xml version="1.0" encoding="utf-8" standalone="no"?>
<!DOCTYPE svg PUBLIC "-//W3C//DTD SVG 1.1//EN"
  "http://www.w3.org/Graphics/SVG/1.1/DTD/svg11.dtd">
<!-- Created with matplotlib (https://matplotlib.org/) -->
<svg height="330.541644pt" version="1.1" viewBox="0 0 1000.138125 330.541644" width="1000.138125pt" xmlns="http://www.w3.org/2000/svg" xmlns:xlink="http://www.w3.org/1999/xlink">
 <metadata>
  <rdf:RDF xmlns:cc="http://creativecommons.org/ns#" xmlns:dc="http://purl.org/dc/elements/1.1/" xmlns:rdf="http://www.w3.org/1999/02/22-rdf-syntax-ns#">
   <cc:Work>
    <dc:type rdf:resource="http://purl.org/dc/dcmitype/StillImage"/>
    <dc:date>2021-02-16T10:26:40.249144</dc:date>
    <dc:format>image/svg+xml</dc:format>
    <dc:creator>
     <cc:Agent>
      <dc:title>Matplotlib v3.3.0, https://matplotlib.org/</dc:title>
     </cc:Agent>
    </dc:creator>
   </cc:Work>
  </rdf:RDF>
 </metadata>
 <defs>
  <style type="text/css">*{stroke-linecap:butt;stroke-linejoin:round;}</style>
 </defs>
 <g id="figure_1">
  <g id="axes_1">
   <g id="patch_1">
    <path d="M 53.328125 273.99006 
L 985.303125 273.99006 
L 985.303125 31.48286 
L 53.328125 31.48286 
z
" style="fill:#ffffff;"/>
   </g>
   <g id="matplotlib.axis_1">
    <g id="xtick_1">
     <g id="text_1">
      <!-- 0 -->
      <g transform="translate(50.783125 287.06881)scale(0.08 -0.08)">
       <defs>
        <path d="M 31.78125 66.40625 
Q 24.171875 66.40625 20.328125 58.90625 
Q 16.5 51.421875 16.5 36.375 
Q 16.5 21.390625 20.328125 13.890625 
Q 24.171875 6.390625 31.78125 6.390625 
Q 39.453125 6.390625 43.28125 13.890625 
Q 47.125 21.390625 47.125 36.375 
Q 47.125 51.421875 43.28125 58.90625 
Q 39.453125 66.40625 31.78125 66.40625 
z
M 31.78125 74.21875 
Q 44.046875 74.21875 50.515625 64.515625 
Q 56.984375 54.828125 56.984375 36.375 
Q 56.984375 17.96875 50.515625 8.265625 
Q 44.046875 -1.421875 31.78125 -1.421875 
Q 19.53125 -1.421875 13.0625 8.265625 
Q 6.59375 17.96875 6.59375 36.375 
Q 6.59375 54.828125 13.0625 64.515625 
Q 19.53125 74.21875 31.78125 74.21875 
z
" id="DejaVuSans-48"/>
       </defs>
       <use xlink:href="#DejaVuSans-48"/>
      </g>
     </g>
    </g>
    <g id="xtick_2">
     <g id="text_2">
      <!-- 20 -->
      <g transform="translate(234.633125 287.06881)scale(0.08 -0.08)">
       <defs>
        <path d="M 19.1875 8.296875 
L 53.609375 8.296875 
L 53.609375 0 
L 7.328125 0 
L 7.328125 8.296875 
Q 12.9375 14.109375 22.625 23.890625 
Q 32.328125 33.6875 34.8125 36.53125 
Q 39.546875 41.84375 41.421875 45.53125 
Q 43.3125 49.21875 43.3125 52.78125 
Q 43.3125 58.59375 39.234375 62.25 
Q 35.15625 65.921875 28.609375 65.921875 
Q 23.96875 65.921875 18.8125 64.3125 
Q 13.671875 62.703125 7.8125 59.421875 
L 7.8125 69.390625 
Q 13.765625 71.78125 18.9375 73 
Q 24.125 74.21875 28.421875 74.21875 
Q 39.75 74.21875 46.484375 68.546875 
Q 53.21875 62.890625 53.21875 53.421875 
Q 53.21875 48.921875 51.53125 44.890625 
Q 49.859375 40.875 45.40625 35.40625 
Q 44.1875 33.984375 37.640625 27.21875 
Q 31.109375 20.453125 19.1875 8.296875 
z
" id="DejaVuSans-50"/>
       </defs>
       <use xlink:href="#DejaVuSans-50"/>
       <use x="63.623047" xlink:href="#DejaVuSans-48"/>
      </g>
     </g>
    </g>
    <g id="xtick_3">
     <g id="text_3">
      <!-- 40 -->
      <g transform="translate(421.028125 287.06881)scale(0.08 -0.08)">
       <defs>
        <path d="M 37.796875 64.3125 
L 12.890625 25.390625 
L 37.796875 25.390625 
z
M 35.203125 72.90625 
L 47.609375 72.90625 
L 47.609375 25.390625 
L 58.015625 25.390625 
L 58.015625 17.1875 
L 47.609375 17.1875 
L 47.609375 0 
L 37.796875 0 
L 37.796875 17.1875 
L 4.890625 17.1875 
L 4.890625 26.703125 
z
" id="DejaVuSans-52"/>
       </defs>
       <use xlink:href="#DejaVuSans-52"/>
       <use x="63.623047" xlink:href="#DejaVuSans-48"/>
      </g>
     </g>
    </g>
    <g id="xtick_4">
     <g id="text_4">
      <!-- 60 -->
      <g transform="translate(607.423125 287.06881)scale(0.08 -0.08)">
       <defs>
        <path d="M 33.015625 40.375 
Q 26.375 40.375 22.484375 35.828125 
Q 18.609375 31.296875 18.609375 23.390625 
Q 18.609375 15.53125 22.484375 10.953125 
Q 26.375 6.390625 33.015625 6.390625 
Q 39.65625 6.390625 43.53125 10.953125 
Q 47.40625 15.53125 47.40625 23.390625 
Q 47.40625 31.296875 43.53125 35.828125 
Q 39.65625 40.375 33.015625 40.375 
z
M 52.59375 71.296875 
L 52.59375 62.3125 
Q 48.875 64.0625 45.09375 64.984375 
Q 41.3125 65.921875 37.59375 65.921875 
Q 27.828125 65.921875 22.671875 59.328125 
Q 17.53125 52.734375 16.796875 39.40625 
Q 19.671875 43.65625 24.015625 45.921875 
Q 28.375 48.1875 33.59375 48.1875 
Q 44.578125 48.1875 50.953125 41.515625 
Q 57.328125 34.859375 57.328125 23.390625 
Q 57.328125 12.15625 50.6875 5.359375 
Q 44.046875 -1.421875 33.015625 -1.421875 
Q 20.359375 -1.421875 13.671875 8.265625 
Q 6.984375 17.96875 6.984375 36.375 
Q 6.984375 53.65625 15.1875 63.9375 
Q 23.390625 74.21875 37.203125 74.21875 
Q 40.921875 74.21875 44.703125 73.484375 
Q 48.484375 72.75 52.59375 71.296875 
z
" id="DejaVuSans-54"/>
       </defs>
       <use xlink:href="#DejaVuSans-54"/>
       <use x="63.623047" xlink:href="#DejaVuSans-48"/>
      </g>
     </g>
    </g>
    <g id="xtick_5">
     <g id="text_5">
      <!-- 80 -->
      <g transform="translate(793.818125 287.06881)scale(0.08 -0.08)">
       <defs>
        <path d="M 31.78125 34.625 
Q 24.75 34.625 20.71875 30.859375 
Q 16.703125 27.09375 16.703125 20.515625 
Q 16.703125 13.921875 20.71875 10.15625 
Q 24.75 6.390625 31.78125 6.390625 
Q 38.8125 6.390625 42.859375 10.171875 
Q 46.921875 13.96875 46.921875 20.515625 
Q 46.921875 27.09375 42.890625 30.859375 
Q 38.875 34.625 31.78125 34.625 
z
M 21.921875 38.8125 
Q 15.578125 40.375 12.03125 44.71875 
Q 8.5 49.078125 8.5 55.328125 
Q 8.5 64.0625 14.71875 69.140625 
Q 20.953125 74.21875 31.78125 74.21875 
Q 42.671875 74.21875 48.875 69.140625 
Q 55.078125 64.0625 55.078125 55.328125 
Q 55.078125 49.078125 51.53125 44.71875 
Q 48 40.375 41.703125 38.8125 
Q 48.828125 37.15625 52.796875 32.3125 
Q 56.78125 27.484375 56.78125 20.515625 
Q 56.78125 9.90625 50.3125 4.234375 
Q 43.84375 -1.421875 31.78125 -1.421875 
Q 19.734375 -1.421875 13.25 4.234375 
Q 6.78125 9.90625 6.78125 20.515625 
Q 6.78125 27.484375 10.78125 32.3125 
Q 14.796875 37.15625 21.921875 38.8125 
z
M 18.3125 54.390625 
Q 18.3125 48.734375 21.84375 45.5625 
Q 25.390625 42.390625 31.78125 42.390625 
Q 38.140625 42.390625 41.71875 45.5625 
Q 45.3125 48.734375 45.3125 54.390625 
Q 45.3125 60.0625 41.71875 63.234375 
Q 38.140625 66.40625 31.78125 66.40625 
Q 25.390625 66.40625 21.84375 63.234375 
Q 18.3125 60.0625 18.3125 54.390625 
z
" id="DejaVuSans-56"/>
       </defs>
       <use xlink:href="#DejaVuSans-56"/>
       <use x="63.623047" xlink:href="#DejaVuSans-48"/>
      </g>
     </g>
    </g>
    <g id="xtick_6">
     <g id="text_6">
      <!-- 100 -->
      <g transform="translate(977.668125 287.06881)scale(0.08 -0.08)">
       <defs>
        <path d="M 12.40625 8.296875 
L 28.515625 8.296875 
L 28.515625 63.921875 
L 10.984375 60.40625 
L 10.984375 69.390625 
L 28.421875 72.90625 
L 38.28125 72.90625 
L 38.28125 8.296875 
L 54.390625 8.296875 
L 54.390625 0 
L 12.40625 0 
z
" id="DejaVuSans-49"/>
       </defs>
       <use xlink:href="#DejaVuSans-49"/>
       <use x="63.623047" xlink:href="#DejaVuSans-48"/>
       <use x="127.246094" xlink:href="#DejaVuSans-48"/>
      </g>
     </g>
    </g>
    <g id="text_7">
     <!-- % GC -->
     <g transform="translate(505.610156 300.330997)scale(0.1 -0.1)">
      <defs>
       <path d="M 72.703125 32.078125 
Q 68.453125 32.078125 66.03125 28.46875 
Q 63.625 24.859375 63.625 18.40625 
Q 63.625 12.0625 66.03125 8.421875 
Q 68.453125 4.78125 72.703125 4.78125 
Q 76.859375 4.78125 79.265625 8.421875 
Q 81.6875 12.0625 81.6875 18.40625 
Q 81.6875 24.8125 79.265625 28.4375 
Q 76.859375 32.078125 72.703125 32.078125 
z
M 72.703125 38.28125 
Q 80.421875 38.28125 84.953125 32.90625 
Q 89.5 27.546875 89.5 18.40625 
Q 89.5 9.28125 84.9375 3.921875 
Q 80.375 -1.421875 72.703125 -1.421875 
Q 64.890625 -1.421875 60.34375 3.921875 
Q 55.8125 9.28125 55.8125 18.40625 
Q 55.8125 27.59375 60.375 32.9375 
Q 64.9375 38.28125 72.703125 38.28125 
z
M 22.3125 68.015625 
Q 18.109375 68.015625 15.6875 64.375 
Q 13.28125 60.75 13.28125 54.390625 
Q 13.28125 47.953125 15.671875 44.328125 
Q 18.0625 40.71875 22.3125 40.71875 
Q 26.5625 40.71875 28.96875 44.328125 
Q 31.390625 47.953125 31.390625 54.390625 
Q 31.390625 60.6875 28.953125 64.34375 
Q 26.515625 68.015625 22.3125 68.015625 
z
M 66.40625 74.21875 
L 74.21875 74.21875 
L 28.609375 -1.421875 
L 20.796875 -1.421875 
z
M 22.3125 74.21875 
Q 30.03125 74.21875 34.609375 68.875 
Q 39.203125 63.53125 39.203125 54.390625 
Q 39.203125 45.171875 34.640625 39.84375 
Q 30.078125 34.515625 22.3125 34.515625 
Q 14.546875 34.515625 10.03125 39.859375 
Q 5.515625 45.21875 5.515625 54.390625 
Q 5.515625 63.484375 10.046875 68.84375 
Q 14.59375 74.21875 22.3125 74.21875 
z
" id="DejaVuSans-37"/>
       <path id="DejaVuSans-32"/>
       <path d="M 59.515625 10.40625 
L 59.515625 29.984375 
L 43.40625 29.984375 
L 43.40625 38.09375 
L 69.28125 38.09375 
L 69.28125 6.78125 
Q 63.578125 2.734375 56.6875 0.65625 
Q 49.8125 -1.421875 42 -1.421875 
Q 24.90625 -1.421875 15.25 8.5625 
Q 5.609375 18.5625 5.609375 36.375 
Q 5.609375 54.25 15.25 64.234375 
Q 24.90625 74.21875 42 74.21875 
Q 49.125 74.21875 55.546875 72.453125 
Q 61.96875 70.703125 67.390625 67.28125 
L 67.390625 56.78125 
Q 61.921875 61.421875 55.765625 63.765625 
Q 49.609375 66.109375 42.828125 66.109375 
Q 29.4375 66.109375 22.71875 58.640625 
Q 16.015625 51.171875 16.015625 36.375 
Q 16.015625 21.625 22.71875 14.15625 
Q 29.4375 6.6875 42.828125 6.6875 
Q 48.046875 6.6875 52.140625 7.59375 
Q 56.25 8.5 59.515625 10.40625 
z
" id="DejaVuSans-71"/>
       <path d="M 64.40625 67.28125 
L 64.40625 56.890625 
Q 59.421875 61.53125 53.78125 63.8125 
Q 48.140625 66.109375 41.796875 66.109375 
Q 29.296875 66.109375 22.65625 58.46875 
Q 16.015625 50.828125 16.015625 36.375 
Q 16.015625 21.96875 22.65625 14.328125 
Q 29.296875 6.6875 41.796875 6.6875 
Q 48.140625 6.6875 53.78125 8.984375 
Q 59.421875 11.28125 64.40625 15.921875 
L 64.40625 5.609375 
Q 59.234375 2.09375 53.4375 0.328125 
Q 47.65625 -1.421875 41.21875 -1.421875 
Q 24.65625 -1.421875 15.125 8.703125 
Q 5.609375 18.84375 5.609375 36.375 
Q 5.609375 53.953125 15.125 64.078125 
Q 24.65625 74.21875 41.21875 74.21875 
Q 47.75 74.21875 53.53125 72.484375 
Q 59.328125 70.75 64.40625 67.28125 
z
" id="DejaVuSans-67"/>
      </defs>
      <use xlink:href="#DejaVuSans-37"/>
      <use x="95.019531" xlink:href="#DejaVuSans-32"/>
      <use x="126.806641" xlink:href="#DejaVuSans-71"/>
      <use x="204.296875" xlink:href="#DejaVuSans-67"/>
     </g>
    </g>
   </g>
   <g id="matplotlib.axis_2">
    <g id="ytick_1">
     <g id="line2d_1">
      <path clip-path="url(#pf1613a25b4)" d="M 53.328125 273.99006 
L 985.303125 273.99006 
" style="fill:none;stroke:#dedede;stroke-linecap:square;"/>
     </g>
     <g id="text_8">
      <!-- 0 -->
      <g transform="translate(41.238125 277.029435)scale(0.08 -0.08)">
       <use xlink:href="#DejaVuSans-48"/>
      </g>
     </g>
    </g>
    <g id="ytick_2">
     <g id="line2d_2">
      <path clip-path="url(#pf1613a25b4)" d="M 53.328125 230.222912 
L 985.303125 230.222912 
" style="fill:none;stroke:#dedede;stroke-linecap:square;"/>
     </g>
     <g id="text_9">
      <!-- 2000 -->
      <g transform="translate(25.968125 233.262287)scale(0.08 -0.08)">
       <use xlink:href="#DejaVuSans-50"/>
       <use x="63.623047" xlink:href="#DejaVuSans-48"/>
       <use x="127.246094" xlink:href="#DejaVuSans-48"/>
       <use x="190.869141" xlink:href="#DejaVuSans-48"/>
      </g>
     </g>
    </g>
    <g id="ytick_3">
     <g id="line2d_3">
      <path clip-path="url(#pf1613a25b4)" d="M 53.328125 186.455765 
L 985.303125 186.455765 
" style="fill:none;stroke:#dedede;stroke-linecap:square;"/>
     </g>
     <g id="text_10">
      <!-- 4000 -->
      <g transform="translate(25.968125 189.49514)scale(0.08 -0.08)">
       <use xlink:href="#DejaVuSans-52"/>
       <use x="63.623047" xlink:href="#DejaVuSans-48"/>
       <use x="127.246094" xlink:href="#DejaVuSans-48"/>
       <use x="190.869141" xlink:href="#DejaVuSans-48"/>
      </g>
     </g>
    </g>
    <g id="ytick_4">
     <g id="line2d_4">
      <path clip-path="url(#pf1613a25b4)" d="M 53.328125 142.688617 
L 985.303125 142.688617 
" style="fill:none;stroke:#dedede;stroke-linecap:square;"/>
     </g>
     <g id="text_11">
      <!-- 6000 -->
      <g transform="translate(25.968125 145.727992)scale(0.08 -0.08)">
       <use xlink:href="#DejaVuSans-54"/>
       <use x="63.623047" xlink:href="#DejaVuSans-48"/>
       <use x="127.246094" xlink:href="#DejaVuSans-48"/>
       <use x="190.869141" xlink:href="#DejaVuSans-48"/>
      </g>
     </g>
    </g>
    <g id="ytick_5">
     <g id="line2d_5">
      <path clip-path="url(#pf1613a25b4)" d="M 53.328125 98.921469 
L 985.303125 98.921469 
" style="fill:none;stroke:#dedede;stroke-linecap:square;"/>
     </g>
     <g id="text_12">
      <!-- 8000 -->
      <g transform="translate(25.968125 101.960844)scale(0.08 -0.08)">
       <use xlink:href="#DejaVuSans-56"/>
       <use x="63.623047" xlink:href="#DejaVuSans-48"/>
       <use x="127.246094" xlink:href="#DejaVuSans-48"/>
       <use x="190.869141" xlink:href="#DejaVuSans-48"/>
      </g>
     </g>
    </g>
    <g id="ytick_6">
     <g id="line2d_6">
      <path clip-path="url(#pf1613a25b4)" d="M 53.328125 55.154322 
L 985.303125 55.154322 
" style="fill:none;stroke:#dedede;stroke-linecap:square;"/>
     </g>
     <g id="text_13">
      <!-- 10000 -->
      <g transform="translate(20.878125 58.193697)scale(0.08 -0.08)">
       <use xlink:href="#DejaVuSans-49"/>
       <use x="63.623047" xlink:href="#DejaVuSans-48"/>
       <use x="127.246094" xlink:href="#DejaVuSans-48"/>
       <use x="190.869141" xlink:href="#DejaVuSans-48"/>
       <use x="254.492188" xlink:href="#DejaVuSans-48"/>
      </g>
     </g>
    </g>
    <g id="text_14">
     <!-- Count -->
     <g transform="translate(14.798437 167.584897)rotate(-90)scale(0.1 -0.1)">
      <defs>
       <path d="M 30.609375 48.390625 
Q 23.390625 48.390625 19.1875 42.75 
Q 14.984375 37.109375 14.984375 27.296875 
Q 14.984375 17.484375 19.15625 11.84375 
Q 23.34375 6.203125 30.609375 6.203125 
Q 37.796875 6.203125 41.984375 11.859375 
Q 46.1875 17.53125 46.1875 27.296875 
Q 46.1875 37.015625 41.984375 42.703125 
Q 37.796875 48.390625 30.609375 48.390625 
z
M 30.609375 56 
Q 42.328125 56 49.015625 48.375 
Q 55.71875 40.765625 55.71875 27.296875 
Q 55.71875 13.875 49.015625 6.21875 
Q 42.328125 -1.421875 30.609375 -1.421875 
Q 18.84375 -1.421875 12.171875 6.21875 
Q 5.515625 13.875 5.515625 27.296875 
Q 5.515625 40.765625 12.171875 48.375 
Q 18.84375 56 30.609375 56 
z
" id="DejaVuSans-111"/>
       <path d="M 8.5 21.578125 
L 8.5 54.6875 
L 17.484375 54.6875 
L 17.484375 21.921875 
Q 17.484375 14.15625 20.5 10.265625 
Q 23.53125 6.390625 29.59375 6.390625 
Q 36.859375 6.390625 41.078125 11.03125 
Q 45.3125 15.671875 45.3125 23.6875 
L 45.3125 54.6875 
L 54.296875 54.6875 
L 54.296875 0 
L 45.3125 0 
L 45.3125 8.40625 
Q 42.046875 3.421875 37.71875 1 
Q 33.40625 -1.421875 27.6875 -1.421875 
Q 18.265625 -1.421875 13.375 4.4375 
Q 8.5 10.296875 8.5 21.578125 
z
M 31.109375 56 
z
" id="DejaVuSans-117"/>
       <path d="M 54.890625 33.015625 
L 54.890625 0 
L 45.90625 0 
L 45.90625 32.71875 
Q 45.90625 40.484375 42.875 44.328125 
Q 39.84375 48.1875 33.796875 48.1875 
Q 26.515625 48.1875 22.3125 43.546875 
Q 18.109375 38.921875 18.109375 30.90625 
L 18.109375 0 
L 9.078125 0 
L 9.078125 54.6875 
L 18.109375 54.6875 
L 18.109375 46.1875 
Q 21.34375 51.125 25.703125 53.5625 
Q 30.078125 56 35.796875 56 
Q 45.21875 56 50.046875 50.171875 
Q 54.890625 44.34375 54.890625 33.015625 
z
" id="DejaVuSans-110"/>
       <path d="M 18.3125 70.21875 
L 18.3125 54.6875 
L 36.8125 54.6875 
L 36.8125 47.703125 
L 18.3125 47.703125 
L 18.3125 18.015625 
Q 18.3125 11.328125 20.140625 9.421875 
Q 21.96875 7.515625 27.59375 7.515625 
L 36.8125 7.515625 
L 36.8125 0 
L 27.59375 0 
Q 17.1875 0 13.234375 3.875 
Q 9.28125 7.765625 9.28125 18.015625 
L 9.28125 47.703125 
L 2.6875 47.703125 
L 2.6875 54.6875 
L 9.28125 54.6875 
L 9.28125 70.21875 
z
" id="DejaVuSans-116"/>
      </defs>
      <use xlink:href="#DejaVuSans-67"/>
      <use x="69.824219" xlink:href="#DejaVuSans-111"/>
      <use x="131.005859" xlink:href="#DejaVuSans-117"/>
      <use x="194.384766" xlink:href="#DejaVuSans-110"/>
      <use x="257.763672" xlink:href="#DejaVuSans-116"/>
     </g>
    </g>
   </g>
   <g id="line2d_7">
    <path clip-path="url(#pf1613a25b4)" d="M 53.328125 273.99006 
L 62.647875 273.99006 
L 71.967625 273.99006 
L 81.287375 273.99006 
L 90.607125 273.99006 
L 99.926875 273.968176 
L 109.246625 273.946293 
L 118.566375 273.946293 
L 127.886125 273.946293 
L 137.205875 273.8697 
L 146.525625 273.793108 
L 155.845375 273.727457 
L 165.165125 273.661806 
L 174.484875 273.49768 
L 183.804625 273.333553 
L 193.124375 272.939648 
L 202.444125 272.545744 
L 211.763875 271.801703 
L 221.083625 271.057661 
L 230.403375 269.678996 
L 239.723125 268.300331 
L 249.042875 265.280398 
L 258.362625 262.260464 
L 267.682375 258.168236 
L 277.002125 254.076008 
L 286.321875 246.351106 
L 295.641625 238.626205 
L 304.961375 225.835256 
L 314.281125 213.044307 
L 323.600875 197.167774 
L 332.920625 181.291241 
L 342.240375 162.919981 
L 351.560125 144.548721 
L 360.879875 125.137991 
L 370.199625 105.727261 
L 379.519375 91.076208 
L 388.839125 76.425156 
L 398.158875 63.667032 
L 407.478625 50.908908 
L 416.798375 47.910859 
L 426.118125 44.912809 
L 435.437875 49.114455 
L 444.757625 53.316102 
L 454.077375 64.531433 
L 463.397125 75.746765 
L 472.716875 92.279805 
L 482.036625 108.812845 
L 491.356375 125.61943 
L 500.676125 142.426014 
L 509.995875 159.60462 
L 519.315625 176.783225 
L 528.635375 190.471401 
L 537.955125 204.159576 
L 547.274875 216.447203 
L 556.594625 228.734829 
L 565.914375 235.584388 
L 575.234125 242.433947 
L 584.553875 248.484755 
L 593.873625 254.535563 
L 603.193375 258.529315 
L 612.513125 262.523067 
L 621.832875 264.219044 
L 631.152625 265.915021 
L 640.472375 267.50158 
L 649.792125 269.088139 
L 659.111875 270.160435 
L 668.431625 271.23273 
L 677.751375 271.856412 
L 687.071125 272.480093 
L 696.390875 272.928707 
L 705.710625 273.37732 
L 715.030375 273.519563 
L 724.350125 273.661806 
L 733.669875 273.760282 
L 742.989625 273.858759 
L 752.309375 273.8697 
L 761.629125 273.880642 
L 770.948875 273.913467 
L 780.268625 273.946293 
L 789.588375 273.957235 
L 798.908125 273.968176 
L 808.227875 273.968176 
L 817.547625 273.968176 
L 826.867375 273.979118 
L 836.187125 273.99006 
L 845.506875 273.99006 
L 854.826625 273.99006 
L 864.146375 273.99006 
L 873.466125 273.99006 
L 882.785875 273.99006 
L 892.105625 273.99006 
L 901.425375 273.99006 
L 910.745125 273.99006 
L 920.064875 273.99006 
L 929.384625 273.99006 
L 938.704375 273.99006 
L 948.024125 273.99006 
L 957.343875 273.99006 
L 966.663625 273.99006 
L 975.983375 273.99006 
L 985.303125 273.99006 
" style="fill:none;stroke:#5cb85c;stroke-linecap:square;"/>
   </g>
   <g id="line2d_8">
    <path clip-path="url(#pf1613a25b4)" d="M 53.328125 273.968176 
L 62.647875 273.935351 
L 71.967625 273.902526 
L 81.287375 273.902526 
L 90.607125 273.902526 
L 99.926875 273.902526 
L 109.246625 273.902526 
L 118.566375 273.902526 
L 127.886125 273.902526 
L 137.205875 273.858759 
L 146.525625 273.814991 
L 155.845375 273.782166 
L 165.165125 273.749341 
L 174.484875 273.541447 
L 183.804625 273.333553 
L 193.124375 273.027183 
L 202.444125 272.720813 
L 211.763875 272.097131 
L 221.083625 271.473449 
L 230.403375 269.668054 
L 239.723125 267.862659 
L 249.042875 265.510175 
L 258.362625 263.157691 
L 267.682375 258.266712 
L 277.002125 253.375733 
L 286.321875 246.143212 
L 295.641625 238.910691 
L 304.961375 227.345222 
L 314.281125 215.779754 
L 323.600875 200.680088 
L 332.920625 185.580422 
L 342.240375 165.05363 
L 351.560125 144.526837 
L 360.879875 125.564721 
L 370.199625 106.602604 
L 379.519375 89.971088 
L 388.839125 73.339572 
L 398.158875 61.434907 
L 407.478625 49.530243 
L 416.798375 46.280533 
L 426.118125 43.030822 
L 435.437875 49.956973 
L 444.757625 56.883124 
L 454.077375 68.240699 
L 463.397125 79.598274 
L 472.716875 94.599464 
L 482.036625 109.600653 
L 491.356375 123.573315 
L 500.676125 137.545977 
L 509.995875 155.742169 
L 519.315625 173.93836 
L 528.635375 188.031382 
L 537.955125 202.124404 
L 547.274875 214.444856 
L 556.594625 226.765308 
L 565.914375 235.606272 
L 575.234125 244.447235 
L 584.553875 249.480457 
L 593.873625 254.513679 
L 603.193375 258.452723 
L 612.513125 262.391766 
L 621.832875 264.536356 
L 631.152625 266.680946 
L 640.472375 267.80795 
L 649.792125 268.934954 
L 659.111875 270.116667 
L 668.431625 271.29838 
L 677.751375 271.714168 
L 687.071125 272.129956 
L 696.390875 272.687987 
L 705.710625 273.246018 
L 715.030375 273.289786 
L 724.350125 273.333553 
L 733.669875 273.541447 
L 742.989625 273.749341 
L 752.309375 273.847817 
L 761.629125 273.946293 
L 770.948875 273.935351 
L 780.268625 273.924409 
L 789.588375 273.913467 
L 798.908125 273.902526 
L 808.227875 273.935351 
L 817.547625 273.968176 
L 826.867375 273.968176 
L 836.187125 273.968176 
L 845.506875 273.979118 
L 854.826625 273.99006 
L 864.146375 273.968176 
L 873.466125 273.946293 
L 882.785875 273.968176 
L 892.105625 273.99006 
L 901.425375 273.99006 
L 910.745125 273.99006 
L 920.064875 273.99006 
L 929.384625 273.99006 
L 938.704375 273.99006 
L 948.024125 273.99006 
L 957.343875 273.99006 
L 966.663625 273.99006 
L 975.983375 273.99006 
L 985.303125 273.99006 
" style="fill:none;stroke:#5cb85c;stroke-linecap:square;"/>
   </g>
   <g id="line2d_9">
    <path clip-path="url(#pf1613a25b4)" d="M 53.328125 273.99006 
L 62.647875 273.99006 
L 71.967625 273.99006 
L 81.287375 273.935351 
L 90.607125 273.880642 
L 99.926875 273.902526 
L 109.246625 273.924409 
L 118.566375 273.902526 
L 127.886125 273.880642 
L 137.205875 273.793108 
L 146.525625 273.705574 
L 155.845375 273.585214 
L 165.165125 273.464854 
L 174.484875 273.092833 
L 183.804625 272.720813 
L 193.124375 272.348792 
L 202.444125 271.976771 
L 211.763875 270.696582 
L 221.083625 269.416393 
L 230.403375 268.026786 
L 239.723125 266.637179 
L 249.042875 262.544951 
L 258.362625 258.452723 
L 267.682375 252.358147 
L 277.002125 246.263572 
L 286.321875 237.477317 
L 295.641625 228.691062 
L 304.961375 214.65275 
L 314.281125 200.614437 
L 323.600875 183.709376 
L 332.920625 166.804315 
L 342.240375 146.375999 
L 351.560125 125.947683 
L 360.879875 107.488889 
L 370.199625 89.030094 
L 379.519375 74.521285 
L 388.839125 60.012475 
L 398.158875 52.506409 
L 407.478625 45.000344 
L 416.798375 46.947982 
L 426.118125 48.89562 
L 435.437875 57.681875 
L 444.757625 66.468129 
L 454.077375 79.302846 
L 463.397125 92.137562 
L 472.716875 108.11257 
L 482.036625 124.087579 
L 491.356375 140.19389 
L 500.676125 156.3002 
L 509.995875 172.756648 
L 519.315625 189.213095 
L 528.635375 201.555431 
L 537.955125 213.897766 
L 547.274875 224.905204 
L 556.594625 235.912642 
L 565.914375 242.718433 
L 575.234125 249.524224 
L 584.553875 254.305785 
L 593.873625 259.087346 
L 603.193375 262.030687 
L 612.513125 264.974028 
L 621.832875 266.51682 
L 631.152625 268.059611 
L 640.472375 269.296033 
L 649.792125 270.532455 
L 659.111875 271.221788 
L 668.431625 271.91112 
L 677.751375 272.512919 
L 687.071125 273.114717 
L 696.390875 273.278844 
L 705.710625 273.442971 
L 715.030375 273.552389 
L 724.350125 273.661806 
L 733.669875 273.760282 
L 742.989625 273.858759 
L 752.309375 273.8697 
L 761.629125 273.880642 
L 770.948875 273.902526 
L 780.268625 273.924409 
L 789.588375 273.946293 
L 798.908125 273.968176 
L 808.227875 273.979118 
L 817.547625 273.99006 
L 826.867375 273.99006 
L 836.187125 273.99006 
L 845.506875 273.99006 
L 854.826625 273.99006 
L 864.146375 273.979118 
L 873.466125 273.968176 
L 882.785875 273.979118 
L 892.105625 273.99006 
L 901.425375 273.99006 
L 910.745125 273.99006 
L 920.064875 273.99006 
L 929.384625 273.99006 
L 938.704375 273.99006 
L 948.024125 273.99006 
L 957.343875 273.99006 
L 966.663625 273.99006 
L 975.983375 273.99006 
L 985.303125 273.99006 
" style="fill:none;stroke:#5cb85c;stroke-linecap:square;"/>
   </g>
   <g id="line2d_10">
    <path clip-path="url(#pf1613a25b4)" d="M 53.328125 273.968176 
L 62.647875 273.924409 
L 71.967625 273.880642 
L 81.287375 273.858759 
L 90.607125 273.836875 
L 99.926875 273.793108 
L 109.246625 273.749341 
L 118.566375 273.749341 
L 127.886125 273.749341 
L 137.205875 273.782166 
L 146.525625 273.814991 
L 155.845375 273.694632 
L 165.165125 273.574272 
L 174.484875 273.125659 
L 183.804625 272.677046 
L 193.124375 272.009597 
L 202.444125 271.342148 
L 211.763875 270.61999 
L 221.083625 269.897832 
L 230.403375 267.818892 
L 239.723125 265.739953 
L 249.042875 262.151047 
L 258.362625 258.56214 
L 267.682375 252.511332 
L 277.002125 246.460524 
L 286.321875 237.707095 
L 295.641625 228.953665 
L 304.961375 213.843057 
L 314.281125 198.73245 
L 323.600875 182.133759 
L 332.920625 165.535068 
L 342.240375 146.791787 
L 351.560125 128.048506 
L 360.879875 110.902726 
L 370.199625 93.756946 
L 379.519375 77.803821 
L 388.839125 61.850695 
L 398.158875 54.257095 
L 407.478625 46.663495 
L 416.798375 47.133992 
L 426.118125 47.604489 
L 435.437875 55.832713 
L 444.757625 64.060936 
L 454.077375 76.501748 
L 463.397125 88.94256 
L 472.716875 106.340001 
L 482.036625 123.737442 
L 491.356375 141.145825 
L 500.676125 158.554208 
L 509.995875 173.478805 
L 519.315625 188.403403 
L 528.635375 200.811389 
L 537.955125 213.219376 
L 547.274875 223.745375 
L 556.594625 234.271374 
L 565.914375 242.598073 
L 575.234125 250.924773 
L 584.553875 254.644981 
L 593.873625 258.365188 
L 603.193375 261.910327 
L 612.513125 265.455466 
L 621.832875 267.151443 
L 631.152625 268.84742 
L 640.472375 269.777472 
L 649.792125 270.707524 
L 659.111875 271.385915 
L 668.431625 272.064306 
L 677.751375 272.491035 
L 687.071125 272.917765 
L 696.390875 273.092833 
L 705.710625 273.267902 
L 715.030375 273.442971 
L 724.350125 273.618039 
L 733.669875 273.716515 
L 742.989625 273.814991 
L 752.309375 273.836875 
L 761.629125 273.858759 
L 770.948875 273.891584 
L 780.268625 273.924409 
L 789.588375 273.946293 
L 798.908125 273.968176 
L 808.227875 273.957235 
L 817.547625 273.946293 
L 826.867375 273.957235 
L 836.187125 273.968176 
L 845.506875 273.968176 
L 854.826625 273.968176 
L 864.146375 273.979118 
L 873.466125 273.99006 
L 882.785875 273.99006 
L 892.105625 273.99006 
L 901.425375 273.99006 
L 910.745125 273.99006 
L 920.064875 273.99006 
L 929.384625 273.99006 
L 938.704375 273.99006 
L 948.024125 273.99006 
L 957.343875 273.99006 
L 966.663625 273.99006 
L 975.983375 273.99006 
L 985.303125 273.99006 
" style="fill:none;stroke:#5cb85c;stroke-linecap:square;"/>
   </g>
   <g id="line2d_11">
    <path clip-path="url(#pf1613a25b4)" d="M 53.328125 273.99006 
L 62.647875 273.99006 
L 71.967625 273.99006 
L 81.287375 273.99006 
L 90.607125 273.99006 
L 99.926875 273.99006 
L 109.246625 273.968176 
L 118.566375 273.957235 
L 127.886125 273.968176 
L 137.205875 273.8697 
L 146.525625 273.771224 
L 155.845375 273.749341 
L 165.165125 273.727457 
L 174.484875 273.585214 
L 183.804625 273.37732 
L 193.124375 273.278844 
L 202.444125 272.841172 
L 211.763875 272.436326 
L 221.083625 272.184665 
L 230.403375 271.626634 
L 239.723125 270.784116 
L 249.042875 270.247969 
L 258.362625 269.471102 
L 267.682375 267.7423 
L 277.002125 265.893138 
L 286.321875 264.995911 
L 295.641625 262.358941 
L 304.961375 256.133064 
L 314.281125 249.699293 
L 323.600875 246.854428 
L 332.920625 242.061926 
L 342.240375 230.835652 
L 351.560125 220.911452 
L 360.879875 217.421022 
L 370.199625 213.722698 
L 379.519375 202.583959 
L 388.839125 188.994259 
L 398.158875 182.844975 
L 407.478625 177.822695 
L 416.798375 163.762499 
L 426.118125 153.816414 
L 435.437875 149.122388 
L 444.757625 145.33653 
L 454.077375 139.810927 
L 463.397125 132.676882 
L 472.716875 130.794895 
L 482.036625 130.52135 
L 491.356375 131.768714 
L 500.676125 140.358016 
L 509.995875 149.045795 
L 519.315625 150.391635 
L 528.635375 157.372495 
L 537.955125 173.927419 
L 547.274875 195.110718 
L 556.594625 206.719954 
L 565.914375 215.932939 
L 575.234125 232.444095 
L 584.553875 244.261225 
L 593.873625 248.780183 
L 603.193375 253.014654 
L 612.513125 260.02834 
L 621.832875 264.536356 
L 631.152625 266.265158 
L 640.472375 267.12956 
L 649.792125 268.902129 
L 659.111875 270.904476 
L 668.431625 272.392559 
L 677.751375 272.786463 
L 687.071125 272.983416 
L 696.390875 273.322611 
L 705.710625 273.530505 
L 715.030375 273.596156 
L 724.350125 273.705574 
L 733.669875 273.825933 
L 742.989625 273.836875 
L 752.309375 273.836875 
L 761.629125 273.880642 
L 770.948875 273.924409 
L 780.268625 273.946293 
L 789.588375 273.968176 
L 798.908125 273.968176 
L 808.227875 273.979118 
L 817.547625 273.99006 
L 826.867375 273.99006 
L 836.187125 273.99006 
L 845.506875 273.979118 
L 854.826625 273.979118 
L 864.146375 273.99006 
L 873.466125 273.99006 
L 882.785875 273.99006 
L 892.105625 273.979118 
L 901.425375 273.979118 
L 910.745125 273.99006 
L 920.064875 273.968176 
L 929.384625 273.968176 
L 938.704375 273.99006 
L 948.024125 273.99006 
L 957.343875 273.99006 
L 966.663625 273.979118 
L 975.983375 273.946293 
L 985.303125 273.924409 
" style="fill:none;stroke:#5cb85c;stroke-linecap:square;"/>
   </g>
   <g id="line2d_12">
    <path clip-path="url(#pf1613a25b4)" d="M 53.328125 272.326908 
L 62.647875 273.016241 
L 71.967625 273.705574 
L 81.287375 273.782166 
L 90.607125 273.858759 
L 99.926875 273.847817 
L 109.246625 273.793108 
L 118.566375 273.760282 
L 127.886125 273.771224 
L 137.205875 273.705574 
L 146.525625 273.650865 
L 155.845375 273.596156 
L 165.165125 273.530505 
L 174.484875 273.432029 
L 183.804625 273.278844 
L 193.124375 273.027183 
L 202.444125 272.578569 
L 211.763875 272.326908 
L 221.083625 272.184665 
L 230.403375 271.823586 
L 239.723125 270.959185 
L 249.042875 270.31362 
L 258.362625 269.602403 
L 267.682375 267.993961 
L 277.002125 265.127213 
L 286.321875 263.157691 
L 295.641625 261.724317 
L 304.961375 256.680153 
L 314.281125 250.279208 
L 323.600875 247.489052 
L 332.920625 241.755556 
L 342.240375 230.726235 
L 351.560125 221.042753 
L 360.879875 216.655097 
L 370.199625 212.792646 
L 379.519375 200.548786 
L 388.839125 187.068505 
L 398.158875 181.969632 
L 407.478625 177.166188 
L 416.798375 164.156403 
L 426.118125 153.477219 
L 435.437875 147.9735 
L 444.757625 144.942625 
L 454.077375 140.653445 
L 463.397125 133.902362 
L 472.716875 130.871487 
L 482.036625 130.302514 
L 491.356375 132.370512 
L 500.676125 140.894164 
L 509.995875 150.993433 
L 519.315625 154.637048 
L 528.635375 161.027052 
L 537.955125 174.758995 
L 547.274875 195.395205 
L 556.594625 208.689476 
L 565.914375 216.950525 
L 575.234125 232.520688 
L 584.553875 244.873965 
L 593.873625 249.918129 
L 603.193375 253.824347 
L 612.513125 260.411302 
L 621.832875 264.908377 
L 631.152625 266.724713 
L 640.472375 267.19521 
L 649.792125 268.84742 
L 659.111875 270.762233 
L 668.431625 272.173723 
L 677.751375 272.852114 
L 687.071125 273.103775 
L 696.390875 273.311669 
L 705.710625 273.475796 
L 715.030375 273.68369 
L 724.350125 273.749341 
L 733.669875 273.836875 
L 742.989625 273.80405 
L 752.309375 273.749341 
L 761.629125 273.847817 
L 770.948875 273.8697 
L 780.268625 273.880642 
L 789.588375 273.968176 
L 798.908125 273.957235 
L 808.227875 273.924409 
L 817.547625 273.913467 
L 826.867375 273.924409 
L 836.187125 273.957235 
L 845.506875 273.957235 
L 854.826625 273.946293 
L 864.146375 273.968176 
L 873.466125 273.946293 
L 882.785875 273.946293 
L 892.105625 273.935351 
L 901.425375 273.935351 
L 910.745125 273.968176 
L 920.064875 273.957235 
L 929.384625 273.924409 
L 938.704375 273.924409 
L 948.024125 273.946293 
L 957.343875 273.924409 
L 966.663625 273.847817 
L 975.983375 273.07095 
L 985.303125 272.348792 
" style="fill:none;stroke:#f0ad4e;stroke-linecap:square;"/>
   </g>
   <g id="line2d_13">
    <path clip-path="url(#pf1613a25b4)" d="M 53.328125 273.99006 
L 62.647875 273.968176 
L 71.967625 273.957235 
L 81.287375 273.957235 
L 90.607125 273.946293 
L 99.926875 273.957235 
L 109.246625 273.935351 
L 118.566375 273.913467 
L 127.886125 273.924409 
L 137.205875 273.858759 
L 146.525625 273.793108 
L 155.845375 273.749341 
L 165.165125 273.705574 
L 174.484875 273.508621 
L 183.804625 273.158484 
L 193.124375 272.753638 
L 202.444125 272.053364 
L 211.763875 271.60475 
L 221.083625 271.145195 
L 230.403375 270.565281 
L 239.723125 269.285092 
L 249.042875 268.125262 
L 258.362625 267.304628 
L 267.682375 266.177624 
L 277.002125 264.984969 
L 286.321875 264.098685 
L 295.641625 260.45507 
L 304.961375 253.84623 
L 314.281125 247.379634 
L 323.600875 243.878262 
L 332.920625 239.479664 
L 342.240375 230.660584 
L 351.560125 221.896213 
L 360.879875 217.552323 
L 370.199625 214.65275 
L 379.519375 205.888378 
L 388.839125 193.546043 
L 398.158875 187.068505 
L 407.478625 181.138056 
L 416.798375 167.034093 
L 426.118125 156.508094 
L 435.437875 151.715591 
L 444.757625 149.275573 
L 454.077375 145.6429 
L 463.397125 137.524094 
L 472.716875 132.797242 
L 482.036625 132.556522 
L 491.356375 137.042655 
L 500.676125 145.599132 
L 509.995875 151.628057 
L 519.315625 153.586637 
L 528.635375 161.727326 
L 537.955125 172.592521 
L 547.274875 187.374875 
L 556.594625 199.432724 
L 565.914375 209.772713 
L 575.234125 228.078322 
L 584.553875 240.956805 
L 593.873625 245.869668 
L 603.193375 249.830595 
L 612.513125 256.997465 
L 621.832875 262.555893 
L 631.152625 264.908377 
L 640.472375 265.893138 
L 649.792125 268.551992 
L 659.111875 270.827884 
L 668.431625 272.184665 
L 677.751375 272.939648 
L 687.071125 273.19131 
L 696.390875 273.442971 
L 705.710625 273.486738 
L 715.030375 273.530505 
L 724.350125 273.661806 
L 733.669875 273.814991 
L 742.989625 273.902526 
L 752.309375 273.968176 
L 761.629125 273.968176 
L 770.948875 273.968176 
L 780.268625 273.979118 
L 789.588375 273.99006 
L 798.908125 273.99006 
L 808.227875 273.99006 
L 817.547625 273.99006 
L 826.867375 273.99006 
L 836.187125 273.99006 
L 845.506875 273.968176 
L 854.826625 273.968176 
L 864.146375 273.99006 
L 873.466125 273.99006 
L 882.785875 273.99006 
L 892.105625 273.99006 
L 901.425375 273.99006 
L 910.745125 273.99006 
L 920.064875 273.99006 
L 929.384625 273.99006 
L 938.704375 273.979118 
L 948.024125 273.968176 
L 957.343875 273.979118 
L 966.663625 273.99006 
L 975.983375 273.935351 
L 985.303125 273.880642 
" style="fill:none;stroke:#5cb85c;stroke-linecap:square;"/>
   </g>
   <g id="line2d_14">
    <path clip-path="url(#pf1613a25b4)" d="M 53.328125 272.370676 
L 62.647875 272.961532 
L 71.967625 273.574272 
L 81.287375 273.716515 
L 90.607125 273.836875 
L 99.926875 273.8697 
L 109.246625 273.880642 
L 118.566375 273.782166 
L 127.886125 273.705574 
L 137.205875 273.727457 
L 146.525625 273.628981 
L 155.845375 273.442971 
L 165.165125 273.37732 
L 174.484875 273.289786 
L 183.804625 272.939648 
L 193.124375 272.469152 
L 202.444125 272.009597 
L 211.763875 271.757935 
L 221.083625 271.23273 
L 230.403375 270.510572 
L 239.723125 269.011547 
L 249.042875 267.709474 
L 258.362625 267.293686 
L 267.682375 265.904079 
L 277.002125 264.328462 
L 286.321875 263.726664 
L 295.641625 260.980275 
L 304.961375 254.426145 
L 314.281125 247.861073 
L 323.600875 245.103743 
L 332.920625 239.917336 
L 342.240375 229.095908 
L 351.560125 221.141229 
L 360.879875 218.82157 
L 370.199625 213.766465 
L 379.519375 201.807092 
L 388.839125 189.48664 
L 398.158875 184.070455 
L 407.478625 177.385023 
L 416.798375 162.843389 
L 426.118125 151.748417 
L 435.437875 147.984442 
L 444.757625 147.459236 
L 454.077375 142.52449 
L 463.397125 133.716352 
L 472.716875 130.674535 
L 482.036625 131.506111 
L 491.356375 135.215377 
L 500.676125 144.494012 
L 509.995875 150.73083 
L 519.315625 151.398279 
L 528.635375 161.508491 
L 537.955125 177.297489 
L 547.274875 196.927055 
L 556.594625 210.877833 
L 565.914375 218.580851 
L 575.234125 233.768051 
L 584.553875 245.289753 
L 593.873625 249.327272 
L 603.193375 253.178781 
L 612.513125 260.258117 
L 621.832875 265.192863 
L 631.152625 266.899782 
L 640.472375 267.446871 
L 649.792125 269.131907 
L 659.111875 271.090486 
L 668.431625 272.545744 
L 677.751375 273.180368 
L 687.071125 273.246018 
L 696.390875 273.508621 
L 705.710625 273.68369 
L 715.030375 273.661806 
L 724.350125 273.782166 
L 733.669875 273.913467 
L 742.989625 273.913467 
L 752.309375 273.902526 
L 761.629125 273.913467 
L 770.948875 273.902526 
L 780.268625 273.880642 
L 789.588375 273.880642 
L 798.908125 273.924409 
L 808.227875 273.946293 
L 817.547625 273.957235 
L 826.867375 273.99006 
L 836.187125 273.99006 
L 845.506875 273.957235 
L 854.826625 273.946293 
L 864.146375 273.968176 
L 873.466125 273.924409 
L 882.785875 273.924409 
L 892.105625 273.957235 
L 901.425375 273.935351 
L 910.745125 273.924409 
L 920.064875 273.946293 
L 929.384625 273.968176 
L 938.704375 273.924409 
L 948.024125 273.880642 
L 957.343875 273.913467 
L 966.663625 273.957235 
L 975.983375 273.585214 
L 985.303125 273.202251 
" style="fill:none;stroke:#f0ad4e;stroke-linecap:square;"/>
   </g>
   <g id="line2d_15">
    <path clip-path="url(#pf1613a25b4)" d="M 53.328125 273.99006 
L 62.647875 273.979118 
L 71.967625 273.979118 
L 81.287375 273.979118 
L 90.607125 273.968176 
L 99.926875 273.979118 
L 109.246625 273.968176 
L 118.566375 273.957235 
L 127.886125 273.968176 
L 137.205875 273.968176 
L 146.525625 273.957235 
L 155.845375 273.847817 
L 165.165125 273.749341 
L 174.484875 273.727457 
L 183.804625 273.618039 
L 193.124375 273.421087 
L 202.444125 273.169426 
L 211.763875 273.027183 
L 221.083625 273.038125 
L 230.403375 272.698929 
L 239.723125 272.009597 
L 249.042875 271.670401 
L 258.362625 271.210846 
L 267.682375 269.952541 
L 277.002125 267.370279 
L 286.321875 265.586768 
L 295.641625 263.059215 
L 304.961375 257.610205 
L 314.281125 251.548455 
L 323.600875 248.408162 
L 332.920625 243.024803 
L 342.240375 230.94507 
L 351.560125 218.766861 
L 360.879875 213.285026 
L 370.199625 208.558174 
L 379.519375 195.789109 
L 388.839125 179.912576 
L 398.158875 172.078257 
L 407.478625 166.487004 
L 416.798375 152.634701 
L 426.118125 141.386544 
L 435.437875 138.508854 
L 444.757625 138.618272 
L 454.077375 136.025069 
L 463.397125 132.994194 
L 472.716875 133.027019 
L 482.036625 133.497516 
L 491.356375 138.093067 
L 500.676125 149.472525 
L 509.995875 158.280663 
L 519.315625 160.304894 
L 528.635375 169.857074 
L 537.955125 184.387767 
L 547.274875 201.358478 
L 556.594625 213.350677 
L 565.914375 220.856743 
L 575.234125 234.337024 
L 584.553875 244.29405 
L 593.873625 248.276861 
L 603.193375 252.106486 
L 612.513125 259.349949 
L 621.832875 263.989267 
L 631.152625 265.214747 
L 640.472375 266.144799 
L 649.792125 268.125262 
L 659.111875 270.051017 
L 668.431625 271.626634 
L 677.751375 272.326908 
L 687.071125 272.709871 
L 696.390875 273.267902 
L 705.710625 273.486738 
L 715.030375 273.530505 
L 724.350125 273.672748 
L 733.669875 273.814991 
L 742.989625 273.880642 
L 752.309375 273.946293 
L 761.629125 273.935351 
L 770.948875 273.957235 
L 780.268625 273.979118 
L 789.588375 273.968176 
L 798.908125 273.979118 
L 808.227875 273.979118 
L 817.547625 273.968176 
L 826.867375 273.968176 
L 836.187125 273.979118 
L 845.506875 273.99006 
L 854.826625 273.99006 
L 864.146375 273.99006 
L 873.466125 273.979118 
L 882.785875 273.979118 
L 892.105625 273.99006 
L 901.425375 273.99006 
L 910.745125 273.99006 
L 920.064875 273.99006 
L 929.384625 273.99006 
L 938.704375 273.99006 
L 948.024125 273.99006 
L 957.343875 273.99006 
L 966.663625 273.99006 
L 975.983375 273.979118 
L 985.303125 273.968176 
" style="fill:none;stroke:#5cb85c;stroke-linecap:square;"/>
   </g>
   <g id="line2d_16">
    <path clip-path="url(#pf1613a25b4)" d="M 53.328125 272.283141 
L 62.647875 272.928707 
L 71.967625 273.68369 
L 81.287375 273.836875 
L 90.607125 273.880642 
L 99.926875 273.80405 
L 109.246625 273.825933 
L 118.566375 273.880642 
L 127.886125 273.836875 
L 137.205875 273.80405 
L 146.525625 273.814991 
L 155.845375 273.694632 
L 165.165125 273.530505 
L 174.484875 273.530505 
L 183.804625 273.530505 
L 193.124375 273.421087 
L 202.444125 273.07095 
L 211.763875 272.830231 
L 221.083625 272.797405 
L 230.403375 272.523861 
L 239.723125 271.659459 
L 249.042875 271.035778 
L 258.362625 270.488688 
L 267.682375 269.449218 
L 277.002125 267.490639 
L 286.321875 266.024439 
L 295.641625 264.197161 
L 304.961375 258.693442 
L 314.281125 251.767291 
L 323.600875 248.51758 
L 332.920625 243.002919 
L 342.240375 229.861833 
L 351.560125 216.852049 
L 360.879875 211.46869 
L 370.199625 207.912609 
L 379.519375 195.176369 
L 388.839125 179.671857 
L 398.158875 173.347504 
L 407.478625 166.125925 
L 416.798375 151.825009 
L 426.118125 142.502607 
L 435.437875 139.132536 
L 444.757625 138.005532 
L 454.077375 133.782003 
L 463.397125 131.374809 
L 472.716875 133.792944 
L 482.036625 134.394743 
L 491.356375 137.699162 
L 500.676125 150.304101 
L 509.995875 161.191179 
L 519.315625 162.777738 
L 528.635375 171.60776 
L 537.955125 185.230285 
L 547.274875 202.660551 
L 556.594625 215.298315 
L 565.914375 222.202583 
L 575.234125 234.730929 
L 584.553875 245.683657 
L 593.873625 251.012307 
L 603.193375 254.076008 
L 612.513125 259.700086 
L 621.832875 263.737606 
L 631.152625 265.214747 
L 640.472375 266.352693 
L 649.792125 268.475399 
L 659.111875 270.237027 
L 668.431625 271.714168 
L 677.751375 272.414443 
L 687.071125 272.863056 
L 696.390875 273.355436 
L 705.710625 273.432029 
L 715.030375 273.464854 
L 724.350125 273.552389 
L 733.669875 273.727457 
L 742.989625 273.814991 
L 752.309375 273.814991 
L 761.629125 273.847817 
L 770.948875 273.902526 
L 780.268625 273.946293 
L 789.588375 273.968176 
L 798.908125 273.968176 
L 808.227875 273.935351 
L 817.547625 273.902526 
L 826.867375 273.902526 
L 836.187125 273.902526 
L 845.506875 273.891584 
L 854.826625 273.935351 
L 864.146375 273.99006 
L 873.466125 273.902526 
L 882.785875 273.836875 
L 892.105625 273.880642 
L 901.425375 273.913467 
L 910.745125 273.924409 
L 920.064875 273.946293 
L 929.384625 273.935351 
L 938.704375 273.891584 
L 948.024125 273.880642 
L 957.343875 273.913467 
L 966.663625 273.891584 
L 975.983375 273.027183 
L 985.303125 272.217491 
" style="fill:none;stroke:#5cb85c;stroke-linecap:square;"/>
   </g>
   <g id="line2d_17">
    <path clip-path="url(#pf1613a25b4)" d="M 53.328125 273.99006 
L 62.647875 273.99006 
L 71.967625 273.99006 
L 81.287375 273.99006 
L 90.607125 273.99006 
L 99.926875 273.968176 
L 109.246625 273.957235 
L 118.566375 273.946293 
L 127.886125 273.924409 
L 137.205875 273.913467 
L 146.525625 273.891584 
L 155.845375 273.858759 
L 165.165125 273.836875 
L 174.484875 273.705574 
L 183.804625 273.530505 
L 193.124375 273.355436 
L 202.444125 272.775522 
L 211.763875 272.326908 
L 221.083625 272.272199 
L 230.403375 271.878295 
L 239.723125 270.49963 
L 249.042875 269.46016 
L 258.362625 268.530108 
L 267.682375 266.51682 
L 277.002125 263.934558 
L 286.321875 262.435533 
L 295.641625 259.809504 
L 304.961375 253.299141 
L 314.281125 245.771192 
L 323.600875 242.127577 
L 332.920625 236.51444 
L 342.240375 224.292464 
L 351.560125 212.070488 
L 360.879875 206.457351 
L 370.199625 201.194352 
L 379.519375 187.779721 
L 388.839125 174.638635 
L 398.158875 169.64918 
L 407.478625 164.495598 
L 416.798375 152.558109 
L 426.118125 144.373652 
L 435.437875 140.56591 
L 444.757625 138.158717 
L 454.077375 136.178254 
L 463.397125 135.773408 
L 472.716875 139.318547 
L 482.036625 141.288068 
L 491.356375 145.21617 
L 500.676125 154.943418 
L 509.995875 164.703492 
L 519.315625 168.664419 
L 528.635375 175.875057 
L 537.955125 189.027085 
L 547.274875 205.188104 
L 556.594625 215.407733 
L 565.914375 223.800083 
L 575.234125 237.575793 
L 584.553875 247.445285 
L 593.873625 251.931418 
L 603.193375 255.37808 
L 612.513125 261.188169 
L 621.832875 265.225689 
L 631.152625 266.899782 
L 640.472375 267.775125 
L 649.792125 269.492986 
L 659.111875 271.156137 
L 668.431625 272.600453 
L 677.751375 273.224135 
L 687.071125 273.158484 
L 696.390875 273.344495 
L 705.710625 273.585214 
L 715.030375 273.574272 
L 724.350125 273.68369 
L 733.669875 273.847817 
L 742.989625 273.935351 
L 752.309375 273.968176 
L 761.629125 273.968176 
L 770.948875 273.946293 
L 780.268625 273.946293 
L 789.588375 273.968176 
L 798.908125 273.979118 
L 808.227875 273.979118 
L 817.547625 273.979118 
L 826.867375 273.99006 
L 836.187125 273.968176 
L 845.506875 273.968176 
L 854.826625 273.99006 
L 864.146375 273.99006 
L 873.466125 273.99006 
L 882.785875 273.99006 
L 892.105625 273.99006 
L 901.425375 273.99006 
L 910.745125 273.99006 
L 920.064875 273.99006 
L 929.384625 273.99006 
L 938.704375 273.99006 
L 948.024125 273.99006 
L 957.343875 273.99006 
L 966.663625 273.979118 
L 975.983375 273.979118 
L 985.303125 273.99006 
" style="fill:none;stroke:#5cb85c;stroke-linecap:square;"/>
   </g>
   <g id="line2d_18">
    <path clip-path="url(#pf1613a25b4)" d="M 53.328125 272.567628 
L 62.647875 273.081892 
L 71.967625 273.694632 
L 81.287375 273.782166 
L 90.607125 273.771224 
L 99.926875 273.80405 
L 109.246625 273.80405 
L 118.566375 273.738399 
L 127.886125 273.705574 
L 137.205875 273.738399 
L 146.525625 273.628981 
L 155.845375 273.508621 
L 165.165125 273.530505 
L 174.484875 273.464854 
L 183.804625 273.333553 
L 193.124375 273.060008 
L 202.444125 272.512919 
L 211.763875 272.173723 
L 221.083625 271.998655 
L 230.403375 271.626634 
L 239.723125 270.401154 
L 249.042875 269.372626 
L 258.362625 268.267505 
L 267.682375 266.494936 
L 277.002125 263.671955 
L 286.321875 261.516423 
L 295.641625 259.525018 
L 304.961375 253.638336 
L 314.281125 246.176038 
L 323.600875 242.609015 
L 332.920625 236.186186 
L 342.240375 224.401882 
L 351.560125 211.610933 
L 360.879875 204.18146 
L 370.199625 200.100173 
L 379.519375 188.841074 
L 388.839125 173.883652 
L 398.158875 166.104041 
L 407.478625 160.129825 
L 416.798375 149.571001 
L 426.118125 142.283771 
L 435.437875 140.347075 
L 444.757625 141.113 
L 454.077375 138.016474 
L 463.397125 135.696815 
L 472.716875 137.513152 
L 482.036625 138.552622 
L 491.356375 142.962162 
L 500.676125 155.556158 
L 509.995875 166.782432 
L 519.315625 169.824249 
L 528.635375 177.833637 
L 537.955125 190.000904 
L 547.274875 207.73754 
L 556.594625 221.316298 
L 565.914375 227.771952 
L 575.234125 240.267473 
L 584.553875 249.797769 
L 593.873625 253.288199 
L 603.193375 257.117825 
L 612.513125 262.632485 
L 621.832875 265.860312 
L 631.152625 267.403104 
L 640.472375 268.070553 
L 649.792125 269.711821 
L 659.111875 271.353089 
L 668.431625 272.523861 
L 677.751375 273.027183 
L 687.071125 273.213193 
L 696.390875 273.508621 
L 705.710625 273.628981 
L 715.030375 273.639923 
L 724.350125 273.738399 
L 733.669875 273.858759 
L 742.989625 273.825933 
L 752.309375 273.771224 
L 761.629125 273.793108 
L 770.948875 273.858759 
L 780.268625 273.913467 
L 789.588375 273.924409 
L 798.908125 273.858759 
L 808.227875 273.8697 
L 817.547625 273.913467 
L 826.867375 273.880642 
L 836.187125 273.880642 
L 845.506875 273.891584 
L 854.826625 273.913467 
L 864.146375 273.924409 
L 873.466125 273.957235 
L 882.785875 273.968176 
L 892.105625 273.935351 
L 901.425375 273.913467 
L 910.745125 273.902526 
L 920.064875 273.880642 
L 929.384625 273.880642 
L 938.704375 273.891584 
L 948.024125 273.880642 
L 957.343875 273.935351 
L 966.663625 273.946293 
L 975.983375 273.027183 
L 985.303125 272.15184 
" style="fill:none;stroke:#5cb85c;stroke-linecap:square;"/>
   </g>
   <g id="line2d_19">
    <path clip-path="url(#pf1613a25b4)" d="M 53.328125 273.99006 
L 985.303125 273.99006 
" style="fill:none;stroke:#dedede;stroke-linecap:square;stroke-width:2;"/>
   </g>
   <g id="text_15">
    <!-- FastQC: Per Sequence GC Content -->
    <g transform="translate(382.679375 19.3575)scale(0.16 -0.16)">
     <defs>
      <path d="M 9.8125 72.90625 
L 51.703125 72.90625 
L 51.703125 64.59375 
L 19.671875 64.59375 
L 19.671875 43.109375 
L 48.578125 43.109375 
L 48.578125 34.8125 
L 19.671875 34.8125 
L 19.671875 0 
L 9.8125 0 
z
" id="DejaVuSans-70"/>
      <path d="M 34.28125 27.484375 
Q 23.390625 27.484375 19.1875 25 
Q 14.984375 22.515625 14.984375 16.5 
Q 14.984375 11.71875 18.140625 8.90625 
Q 21.296875 6.109375 26.703125 6.109375 
Q 34.1875 6.109375 38.703125 11.40625 
Q 43.21875 16.703125 43.21875 25.484375 
L 43.21875 27.484375 
z
M 52.203125 31.203125 
L 52.203125 0 
L 43.21875 0 
L 43.21875 8.296875 
Q 40.140625 3.328125 35.546875 0.953125 
Q 30.953125 -1.421875 24.3125 -1.421875 
Q 15.921875 -1.421875 10.953125 3.296875 
Q 6 8.015625 6 15.921875 
Q 6 25.140625 12.171875 29.828125 
Q 18.359375 34.515625 30.609375 34.515625 
L 43.21875 34.515625 
L 43.21875 35.40625 
Q 43.21875 41.609375 39.140625 45 
Q 35.0625 48.390625 27.6875 48.390625 
Q 23 48.390625 18.546875 47.265625 
Q 14.109375 46.140625 10.015625 43.890625 
L 10.015625 52.203125 
Q 14.9375 54.109375 19.578125 55.046875 
Q 24.21875 56 28.609375 56 
Q 40.484375 56 46.34375 49.84375 
Q 52.203125 43.703125 52.203125 31.203125 
z
" id="DejaVuSans-97"/>
      <path d="M 44.28125 53.078125 
L 44.28125 44.578125 
Q 40.484375 46.53125 36.375 47.5 
Q 32.28125 48.484375 27.875 48.484375 
Q 21.1875 48.484375 17.84375 46.4375 
Q 14.5 44.390625 14.5 40.28125 
Q 14.5 37.15625 16.890625 35.375 
Q 19.28125 33.59375 26.515625 31.984375 
L 29.59375 31.296875 
Q 39.15625 29.25 43.1875 25.515625 
Q 47.21875 21.78125 47.21875 15.09375 
Q 47.21875 7.46875 41.1875 3.015625 
Q 35.15625 -1.421875 24.609375 -1.421875 
Q 20.21875 -1.421875 15.453125 -0.5625 
Q 10.6875 0.296875 5.421875 2 
L 5.421875 11.28125 
Q 10.40625 8.6875 15.234375 7.390625 
Q 20.0625 6.109375 24.8125 6.109375 
Q 31.15625 6.109375 34.5625 8.28125 
Q 37.984375 10.453125 37.984375 14.40625 
Q 37.984375 18.0625 35.515625 20.015625 
Q 33.0625 21.96875 24.703125 23.78125 
L 21.578125 24.515625 
Q 13.234375 26.265625 9.515625 29.90625 
Q 5.8125 33.546875 5.8125 39.890625 
Q 5.8125 47.609375 11.28125 51.796875 
Q 16.75 56 26.8125 56 
Q 31.78125 56 36.171875 55.265625 
Q 40.578125 54.546875 44.28125 53.078125 
z
" id="DejaVuSans-115"/>
      <path d="M 39.40625 66.21875 
Q 28.65625 66.21875 22.328125 58.203125 
Q 16.015625 50.203125 16.015625 36.375 
Q 16.015625 22.609375 22.328125 14.59375 
Q 28.65625 6.59375 39.40625 6.59375 
Q 50.140625 6.59375 56.421875 14.59375 
Q 62.703125 22.609375 62.703125 36.375 
Q 62.703125 50.203125 56.421875 58.203125 
Q 50.140625 66.21875 39.40625 66.21875 
z
M 53.21875 1.3125 
L 66.21875 -12.890625 
L 54.296875 -12.890625 
L 43.5 -1.21875 
Q 41.890625 -1.3125 41.03125 -1.359375 
Q 40.1875 -1.421875 39.40625 -1.421875 
Q 24.03125 -1.421875 14.8125 8.859375 
Q 5.609375 19.140625 5.609375 36.375 
Q 5.609375 53.65625 14.8125 63.9375 
Q 24.03125 74.21875 39.40625 74.21875 
Q 54.734375 74.21875 63.90625 63.9375 
Q 73.09375 53.65625 73.09375 36.375 
Q 73.09375 23.6875 67.984375 14.640625 
Q 62.890625 5.609375 53.21875 1.3125 
z
" id="DejaVuSans-81"/>
      <path d="M 11.71875 12.40625 
L 22.015625 12.40625 
L 22.015625 0 
L 11.71875 0 
z
M 11.71875 51.703125 
L 22.015625 51.703125 
L 22.015625 39.3125 
L 11.71875 39.3125 
z
" id="DejaVuSans-58"/>
      <path d="M 19.671875 64.796875 
L 19.671875 37.40625 
L 32.078125 37.40625 
Q 38.96875 37.40625 42.71875 40.96875 
Q 46.484375 44.53125 46.484375 51.125 
Q 46.484375 57.671875 42.71875 61.234375 
Q 38.96875 64.796875 32.078125 64.796875 
z
M 9.8125 72.90625 
L 32.078125 72.90625 
Q 44.34375 72.90625 50.609375 67.359375 
Q 56.890625 61.8125 56.890625 51.125 
Q 56.890625 40.328125 50.609375 34.8125 
Q 44.34375 29.296875 32.078125 29.296875 
L 19.671875 29.296875 
L 19.671875 0 
L 9.8125 0 
z
" id="DejaVuSans-80"/>
      <path d="M 56.203125 29.59375 
L 56.203125 25.203125 
L 14.890625 25.203125 
Q 15.484375 15.921875 20.484375 11.0625 
Q 25.484375 6.203125 34.421875 6.203125 
Q 39.59375 6.203125 44.453125 7.46875 
Q 49.3125 8.734375 54.109375 11.28125 
L 54.109375 2.78125 
Q 49.265625 0.734375 44.1875 -0.34375 
Q 39.109375 -1.421875 33.890625 -1.421875 
Q 20.796875 -1.421875 13.15625 6.1875 
Q 5.515625 13.8125 5.515625 26.8125 
Q 5.515625 40.234375 12.765625 48.109375 
Q 20.015625 56 32.328125 56 
Q 43.359375 56 49.78125 48.890625 
Q 56.203125 41.796875 56.203125 29.59375 
z
M 47.21875 32.234375 
Q 47.125 39.59375 43.09375 43.984375 
Q 39.0625 48.390625 32.421875 48.390625 
Q 24.90625 48.390625 20.390625 44.140625 
Q 15.875 39.890625 15.1875 32.171875 
z
" id="DejaVuSans-101"/>
      <path d="M 41.109375 46.296875 
Q 39.59375 47.171875 37.8125 47.578125 
Q 36.03125 48 33.890625 48 
Q 26.265625 48 22.1875 43.046875 
Q 18.109375 38.09375 18.109375 28.8125 
L 18.109375 0 
L 9.078125 0 
L 9.078125 54.6875 
L 18.109375 54.6875 
L 18.109375 46.1875 
Q 20.953125 51.171875 25.484375 53.578125 
Q 30.03125 56 36.53125 56 
Q 37.453125 56 38.578125 55.875 
Q 39.703125 55.765625 41.0625 55.515625 
z
" id="DejaVuSans-114"/>
      <path d="M 53.515625 70.515625 
L 53.515625 60.890625 
Q 47.90625 63.578125 42.921875 64.890625 
Q 37.9375 66.21875 33.296875 66.21875 
Q 25.25 66.21875 20.875 63.09375 
Q 16.5 59.96875 16.5 54.203125 
Q 16.5 49.359375 19.40625 46.890625 
Q 22.3125 44.4375 30.421875 42.921875 
L 36.375 41.703125 
Q 47.40625 39.59375 52.65625 34.296875 
Q 57.90625 29 57.90625 20.125 
Q 57.90625 9.515625 50.796875 4.046875 
Q 43.703125 -1.421875 29.984375 -1.421875 
Q 24.8125 -1.421875 18.96875 -0.25 
Q 13.140625 0.921875 6.890625 3.21875 
L 6.890625 13.375 
Q 12.890625 10.015625 18.65625 8.296875 
Q 24.421875 6.59375 29.984375 6.59375 
Q 38.421875 6.59375 43.015625 9.90625 
Q 47.609375 13.234375 47.609375 19.390625 
Q 47.609375 24.75 44.3125 27.78125 
Q 41.015625 30.8125 33.5 32.328125 
L 27.484375 33.5 
Q 16.453125 35.6875 11.515625 40.375 
Q 6.59375 45.0625 6.59375 53.421875 
Q 6.59375 63.09375 13.40625 68.65625 
Q 20.21875 74.21875 32.171875 74.21875 
Q 37.3125 74.21875 42.625 73.28125 
Q 47.953125 72.359375 53.515625 70.515625 
z
" id="DejaVuSans-83"/>
      <path d="M 14.796875 27.296875 
Q 14.796875 17.390625 18.875 11.75 
Q 22.953125 6.109375 30.078125 6.109375 
Q 37.203125 6.109375 41.296875 11.75 
Q 45.40625 17.390625 45.40625 27.296875 
Q 45.40625 37.203125 41.296875 42.84375 
Q 37.203125 48.484375 30.078125 48.484375 
Q 22.953125 48.484375 18.875 42.84375 
Q 14.796875 37.203125 14.796875 27.296875 
z
M 45.40625 8.203125 
Q 42.578125 3.328125 38.25 0.953125 
Q 33.9375 -1.421875 27.875 -1.421875 
Q 17.96875 -1.421875 11.734375 6.484375 
Q 5.515625 14.40625 5.515625 27.296875 
Q 5.515625 40.1875 11.734375 48.09375 
Q 17.96875 56 27.875 56 
Q 33.9375 56 38.25 53.625 
Q 42.578125 51.265625 45.40625 46.390625 
L 45.40625 54.6875 
L 54.390625 54.6875 
L 54.390625 -20.796875 
L 45.40625 -20.796875 
z
" id="DejaVuSans-113"/>
      <path d="M 48.78125 52.59375 
L 48.78125 44.1875 
Q 44.96875 46.296875 41.140625 47.34375 
Q 37.3125 48.390625 33.40625 48.390625 
Q 24.65625 48.390625 19.8125 42.84375 
Q 14.984375 37.3125 14.984375 27.296875 
Q 14.984375 17.28125 19.8125 11.734375 
Q 24.65625 6.203125 33.40625 6.203125 
Q 37.3125 6.203125 41.140625 7.25 
Q 44.96875 8.296875 48.78125 10.40625 
L 48.78125 2.09375 
Q 45.015625 0.34375 40.984375 -0.53125 
Q 36.96875 -1.421875 32.421875 -1.421875 
Q 20.0625 -1.421875 12.78125 6.34375 
Q 5.515625 14.109375 5.515625 27.296875 
Q 5.515625 40.671875 12.859375 48.328125 
Q 20.21875 56 33.015625 56 
Q 37.15625 56 41.109375 55.140625 
Q 45.0625 54.296875 48.78125 52.59375 
z
" id="DejaVuSans-99"/>
     </defs>
     <use xlink:href="#DejaVuSans-70"/>
     <use x="48.394531" xlink:href="#DejaVuSans-97"/>
     <use x="109.673828" xlink:href="#DejaVuSans-115"/>
     <use x="161.773438" xlink:href="#DejaVuSans-116"/>
     <use x="200.982422" xlink:href="#DejaVuSans-81"/>
     <use x="279.693359" xlink:href="#DejaVuSans-67"/>
     <use x="349.517578" xlink:href="#DejaVuSans-58"/>
     <use x="383.208984" xlink:href="#DejaVuSans-32"/>
     <use x="414.996094" xlink:href="#DejaVuSans-80"/>
     <use x="471.673828" xlink:href="#DejaVuSans-101"/>
     <use x="533.197266" xlink:href="#DejaVuSans-114"/>
     <use x="574.310547" xlink:href="#DejaVuSans-32"/>
     <use x="606.097656" xlink:href="#DejaVuSans-83"/>
     <use x="669.574219" xlink:href="#DejaVuSans-101"/>
     <use x="731.097656" xlink:href="#DejaVuSans-113"/>
     <use x="794.574219" xlink:href="#DejaVuSans-117"/>
     <use x="857.953125" xlink:href="#DejaVuSans-101"/>
     <use x="919.476562" xlink:href="#DejaVuSans-110"/>
     <use x="982.855469" xlink:href="#DejaVuSans-99"/>
     <use x="1037.835938" xlink:href="#DejaVuSans-101"/>
     <use x="1099.359375" xlink:href="#DejaVuSans-32"/>
     <use x="1131.146484" xlink:href="#DejaVuSans-71"/>
     <use x="1208.636719" xlink:href="#DejaVuSans-67"/>
     <use x="1278.460938" xlink:href="#DejaVuSans-32"/>
     <use x="1310.248047" xlink:href="#DejaVuSans-67"/>
     <use x="1380.072266" xlink:href="#DejaVuSans-111"/>
     <use x="1441.253906" xlink:href="#DejaVuSans-110"/>
     <use x="1504.632812" xlink:href="#DejaVuSans-116"/>
     <use x="1543.841797" xlink:href="#DejaVuSans-101"/>
     <use x="1605.365234" xlink:href="#DejaVuSans-110"/>
     <use x="1668.744141" xlink:href="#DejaVuSans-116"/>
    </g>
   </g>
   <g id="legend_1">
    <g id="line2d_20">
     <path d="M 60.528125 291.525394 
L 76.528125 291.525394 
" style="fill:none;stroke:#5cb85c;stroke-linecap:square;"/>
    </g>
    <g id="line2d_21"/>
    <g id="text_16">
     <!-- SPT5_INPUT_R1_T1_1 -->
     <g transform="translate(82.928125 294.325394)scale(0.08 -0.08)">
      <defs>
       <path d="M -0.296875 72.90625 
L 61.375 72.90625 
L 61.375 64.59375 
L 35.5 64.59375 
L 35.5 0 
L 25.59375 0 
L 25.59375 64.59375 
L -0.296875 64.59375 
z
" id="DejaVuSans-84"/>
       <path d="M 10.796875 72.90625 
L 49.515625 72.90625 
L 49.515625 64.59375 
L 19.828125 64.59375 
L 19.828125 46.734375 
Q 21.96875 47.46875 24.109375 47.828125 
Q 26.265625 48.1875 28.421875 48.1875 
Q 40.625 48.1875 47.75 41.5 
Q 54.890625 34.8125 54.890625 23.390625 
Q 54.890625 11.625 47.5625 5.09375 
Q 40.234375 -1.421875 26.90625 -1.421875 
Q 22.3125 -1.421875 17.546875 -0.640625 
Q 12.796875 0.140625 7.71875 1.703125 
L 7.71875 11.625 
Q 12.109375 9.234375 16.796875 8.0625 
Q 21.484375 6.890625 26.703125 6.890625 
Q 35.15625 6.890625 40.078125 11.328125 
Q 45.015625 15.765625 45.015625 23.390625 
Q 45.015625 31 40.078125 35.4375 
Q 35.15625 39.890625 26.703125 39.890625 
Q 22.75 39.890625 18.8125 39.015625 
Q 14.890625 38.140625 10.796875 36.28125 
z
" id="DejaVuSans-53"/>
       <path d="M 50.984375 -16.609375 
L 50.984375 -23.578125 
L -0.984375 -23.578125 
L -0.984375 -16.609375 
z
" id="DejaVuSans-95"/>
       <path d="M 9.8125 72.90625 
L 19.671875 72.90625 
L 19.671875 0 
L 9.8125 0 
z
" id="DejaVuSans-73"/>
       <path d="M 9.8125 72.90625 
L 23.09375 72.90625 
L 55.421875 11.921875 
L 55.421875 72.90625 
L 64.984375 72.90625 
L 64.984375 0 
L 51.703125 0 
L 19.390625 60.984375 
L 19.390625 0 
L 9.8125 0 
z
" id="DejaVuSans-78"/>
       <path d="M 8.6875 72.90625 
L 18.609375 72.90625 
L 18.609375 28.609375 
Q 18.609375 16.890625 22.84375 11.734375 
Q 27.09375 6.59375 36.625 6.59375 
Q 46.09375 6.59375 50.34375 11.734375 
Q 54.59375 16.890625 54.59375 28.609375 
L 54.59375 72.90625 
L 64.5 72.90625 
L 64.5 27.390625 
Q 64.5 13.140625 57.4375 5.859375 
Q 50.390625 -1.421875 36.625 -1.421875 
Q 22.796875 -1.421875 15.734375 5.859375 
Q 8.6875 13.140625 8.6875 27.390625 
z
" id="DejaVuSans-85"/>
       <path d="M 44.390625 34.1875 
Q 47.5625 33.109375 50.5625 29.59375 
Q 53.5625 26.078125 56.59375 19.921875 
L 66.609375 0 
L 56 0 
L 46.6875 18.703125 
Q 43.0625 26.03125 39.671875 28.421875 
Q 36.28125 30.8125 30.421875 30.8125 
L 19.671875 30.8125 
L 19.671875 0 
L 9.8125 0 
L 9.8125 72.90625 
L 32.078125 72.90625 
Q 44.578125 72.90625 50.734375 67.671875 
Q 56.890625 62.453125 56.890625 51.90625 
Q 56.890625 45.015625 53.6875 40.46875 
Q 50.484375 35.9375 44.390625 34.1875 
z
M 19.671875 64.796875 
L 19.671875 38.921875 
L 32.078125 38.921875 
Q 39.203125 38.921875 42.84375 42.21875 
Q 46.484375 45.515625 46.484375 51.90625 
Q 46.484375 58.296875 42.84375 61.546875 
Q 39.203125 64.796875 32.078125 64.796875 
z
" id="DejaVuSans-82"/>
      </defs>
      <use xlink:href="#DejaVuSans-83"/>
      <use x="63.476562" xlink:href="#DejaVuSans-80"/>
      <use x="123.779297" xlink:href="#DejaVuSans-84"/>
      <use x="184.863281" xlink:href="#DejaVuSans-53"/>
      <use x="248.486328" xlink:href="#DejaVuSans-95"/>
      <use x="298.486328" xlink:href="#DejaVuSans-73"/>
      <use x="327.978516" xlink:href="#DejaVuSans-78"/>
      <use x="402.783203" xlink:href="#DejaVuSans-80"/>
      <use x="463.085938" xlink:href="#DejaVuSans-85"/>
      <use x="536.279297" xlink:href="#DejaVuSans-84"/>
      <use x="597.363281" xlink:href="#DejaVuSans-95"/>
      <use x="647.363281" xlink:href="#DejaVuSans-82"/>
      <use x="716.845703" xlink:href="#DejaVuSans-49"/>
      <use x="780.46875" xlink:href="#DejaVuSans-95"/>
      <use x="830.46875" xlink:href="#DejaVuSans-84"/>
      <use x="891.552734" xlink:href="#DejaVuSans-49"/>
      <use x="955.175781" xlink:href="#DejaVuSans-95"/>
      <use x="1005.175781" xlink:href="#DejaVuSans-49"/>
     </g>
    </g>
    <g id="line2d_22">
     <path d="M 60.528125 303.490394 
L 76.528125 303.490394 
" style="fill:none;stroke:#5cb85c;stroke-linecap:square;"/>
    </g>
    <g id="line2d_23"/>
    <g id="text_17">
     <!-- SPT5_INPUT_R1_T1_2 -->
     <g transform="translate(82.928125 306.290394)scale(0.08 -0.08)">
      <use xlink:href="#DejaVuSans-83"/>
      <use x="63.476562" xlink:href="#DejaVuSans-80"/>
      <use x="123.779297" xlink:href="#DejaVuSans-84"/>
      <use x="184.863281" xlink:href="#DejaVuSans-53"/>
      <use x="248.486328" xlink:href="#DejaVuSans-95"/>
      <use x="298.486328" xlink:href="#DejaVuSans-73"/>
      <use x="327.978516" xlink:href="#DejaVuSans-78"/>
      <use x="402.783203" xlink:href="#DejaVuSans-80"/>
      <use x="463.085938" xlink:href="#DejaVuSans-85"/>
      <use x="536.279297" xlink:href="#DejaVuSans-84"/>
      <use x="597.363281" xlink:href="#DejaVuSans-95"/>
      <use x="647.363281" xlink:href="#DejaVuSans-82"/>
      <use x="716.845703" xlink:href="#DejaVuSans-49"/>
      <use x="780.46875" xlink:href="#DejaVuSans-95"/>
      <use x="830.46875" xlink:href="#DejaVuSans-84"/>
      <use x="891.552734" xlink:href="#DejaVuSans-49"/>
      <use x="955.175781" xlink:href="#DejaVuSans-95"/>
      <use x="1005.175781" xlink:href="#DejaVuSans-50"/>
     </g>
    </g>
    <g id="line2d_24">
     <path d="M 60.528125 315.455394 
L 76.528125 315.455394 
" style="fill:none;stroke:#5cb85c;stroke-linecap:square;"/>
    </g>
    <g id="line2d_25"/>
    <g id="text_18">
     <!-- SPT5_INPUT_R2_T1_1 -->
     <g transform="translate(82.928125 318.255394)scale(0.08 -0.08)">
      <use xlink:href="#DejaVuSans-83"/>
      <use x="63.476562" xlink:href="#DejaVuSans-80"/>
      <use x="123.779297" xlink:href="#DejaVuSans-84"/>
      <use x="184.863281" xlink:href="#DejaVuSans-53"/>
      <use x="248.486328" xlink:href="#DejaVuSans-95"/>
      <use x="298.486328" xlink:href="#DejaVuSans-73"/>
      <use x="327.978516" xlink:href="#DejaVuSans-78"/>
      <use x="402.783203" xlink:href="#DejaVuSans-80"/>
      <use x="463.085938" xlink:href="#DejaVuSans-85"/>
      <use x="536.279297" xlink:href="#DejaVuSans-84"/>
      <use x="597.363281" xlink:href="#DejaVuSans-95"/>
      <use x="647.363281" xlink:href="#DejaVuSans-82"/>
      <use x="716.845703" xlink:href="#DejaVuSans-50"/>
      <use x="780.46875" xlink:href="#DejaVuSans-95"/>
      <use x="830.46875" xlink:href="#DejaVuSans-84"/>
      <use x="891.552734" xlink:href="#DejaVuSans-49"/>
      <use x="955.175781" xlink:href="#DejaVuSans-95"/>
      <use x="1005.175781" xlink:href="#DejaVuSans-49"/>
     </g>
    </g>
    <g id="line2d_26">
     <path d="M 270.85125 291.525394 
L 286.85125 291.525394 
" style="fill:none;stroke:#5cb85c;stroke-linecap:square;"/>
    </g>
    <g id="line2d_27"/>
    <g id="text_19">
     <!-- SPT5_INPUT_R2_T1_2 -->
     <g transform="translate(293.25125 294.325394)scale(0.08 -0.08)">
      <use xlink:href="#DejaVuSans-83"/>
      <use x="63.476562" xlink:href="#DejaVuSans-80"/>
      <use x="123.779297" xlink:href="#DejaVuSans-84"/>
      <use x="184.863281" xlink:href="#DejaVuSans-53"/>
      <use x="248.486328" xlink:href="#DejaVuSans-95"/>
      <use x="298.486328" xlink:href="#DejaVuSans-73"/>
      <use x="327.978516" xlink:href="#DejaVuSans-78"/>
      <use x="402.783203" xlink:href="#DejaVuSans-80"/>
      <use x="463.085938" xlink:href="#DejaVuSans-85"/>
      <use x="536.279297" xlink:href="#DejaVuSans-84"/>
      <use x="597.363281" xlink:href="#DejaVuSans-95"/>
      <use x="647.363281" xlink:href="#DejaVuSans-82"/>
      <use x="716.845703" xlink:href="#DejaVuSans-50"/>
      <use x="780.46875" xlink:href="#DejaVuSans-95"/>
      <use x="830.46875" xlink:href="#DejaVuSans-84"/>
      <use x="891.552734" xlink:href="#DejaVuSans-49"/>
      <use x="955.175781" xlink:href="#DejaVuSans-95"/>
      <use x="1005.175781" xlink:href="#DejaVuSans-50"/>
     </g>
    </g>
    <g id="line2d_28">
     <path d="M 270.85125 303.490394 
L 286.85125 303.490394 
" style="fill:none;stroke:#5cb85c;stroke-linecap:square;"/>
    </g>
    <g id="line2d_29"/>
    <g id="text_20">
     <!-- SPT5_T0_R1_T1_1 -->
     <g transform="translate(293.25125 306.290394)scale(0.08 -0.08)">
      <use xlink:href="#DejaVuSans-83"/>
      <use x="63.476562" xlink:href="#DejaVuSans-80"/>
      <use x="123.779297" xlink:href="#DejaVuSans-84"/>
      <use x="184.863281" xlink:href="#DejaVuSans-53"/>
      <use x="248.486328" xlink:href="#DejaVuSans-95"/>
      <use x="298.486328" xlink:href="#DejaVuSans-84"/>
      <use x="359.570312" xlink:href="#DejaVuSans-48"/>
      <use x="423.193359" xlink:href="#DejaVuSans-95"/>
      <use x="473.193359" xlink:href="#DejaVuSans-82"/>
      <use x="542.675781" xlink:href="#DejaVuSans-49"/>
      <use x="606.298828" xlink:href="#DejaVuSans-95"/>
      <use x="656.298828" xlink:href="#DejaVuSans-84"/>
      <use x="717.382812" xlink:href="#DejaVuSans-49"/>
      <use x="781.005859" xlink:href="#DejaVuSans-95"/>
      <use x="831.005859" xlink:href="#DejaVuSans-49"/>
     </g>
    </g>
    <g id="line2d_30">
     <path d="M 270.85125 315.455394 
L 286.85125 315.455394 
" style="fill:none;stroke:#f0ad4e;stroke-linecap:square;"/>
    </g>
    <g id="line2d_31"/>
    <g id="text_21">
     <!-- SPT5_T0_R1_T1_2 -->
     <g transform="translate(293.25125 318.255394)scale(0.08 -0.08)">
      <use xlink:href="#DejaVuSans-83"/>
      <use x="63.476562" xlink:href="#DejaVuSans-80"/>
      <use x="123.779297" xlink:href="#DejaVuSans-84"/>
      <use x="184.863281" xlink:href="#DejaVuSans-53"/>
      <use x="248.486328" xlink:href="#DejaVuSans-95"/>
      <use x="298.486328" xlink:href="#DejaVuSans-84"/>
      <use x="359.570312" xlink:href="#DejaVuSans-48"/>
      <use x="423.193359" xlink:href="#DejaVuSans-95"/>
      <use x="473.193359" xlink:href="#DejaVuSans-82"/>
      <use x="542.675781" xlink:href="#DejaVuSans-49"/>
      <use x="606.298828" xlink:href="#DejaVuSans-95"/>
      <use x="656.298828" xlink:href="#DejaVuSans-84"/>
      <use x="717.382812" xlink:href="#DejaVuSans-49"/>
      <use x="781.005859" xlink:href="#DejaVuSans-95"/>
      <use x="831.005859" xlink:href="#DejaVuSans-50"/>
     </g>
    </g>
    <g id="line2d_32">
     <path d="M 481.174375 291.525394 
L 497.174375 291.525394 
" style="fill:none;stroke:#5cb85c;stroke-linecap:square;"/>
    </g>
    <g id="line2d_33"/>
    <g id="text_22">
     <!-- SPT5_T0_R2_T1_1 -->
     <g transform="translate(503.574375 294.325394)scale(0.08 -0.08)">
      <use xlink:href="#DejaVuSans-83"/>
      <use x="63.476562" xlink:href="#DejaVuSans-80"/>
      <use x="123.779297" xlink:href="#DejaVuSans-84"/>
      <use x="184.863281" xlink:href="#DejaVuSans-53"/>
      <use x="248.486328" xlink:href="#DejaVuSans-95"/>
      <use x="298.486328" xlink:href="#DejaVuSans-84"/>
      <use x="359.570312" xlink:href="#DejaVuSans-48"/>
      <use x="423.193359" xlink:href="#DejaVuSans-95"/>
      <use x="473.193359" xlink:href="#DejaVuSans-82"/>
      <use x="542.675781" xlink:href="#DejaVuSans-50"/>
      <use x="606.298828" xlink:href="#DejaVuSans-95"/>
      <use x="656.298828" xlink:href="#DejaVuSans-84"/>
      <use x="717.382812" xlink:href="#DejaVuSans-49"/>
      <use x="781.005859" xlink:href="#DejaVuSans-95"/>
      <use x="831.005859" xlink:href="#DejaVuSans-49"/>
     </g>
    </g>
    <g id="line2d_34">
     <path d="M 481.174375 303.490394 
L 497.174375 303.490394 
" style="fill:none;stroke:#f0ad4e;stroke-linecap:square;"/>
    </g>
    <g id="line2d_35"/>
    <g id="text_23">
     <!-- SPT5_T0_R2_T1_2 -->
     <g transform="translate(503.574375 306.290394)scale(0.08 -0.08)">
      <use xlink:href="#DejaVuSans-83"/>
      <use x="63.476562" xlink:href="#DejaVuSans-80"/>
      <use x="123.779297" xlink:href="#DejaVuSans-84"/>
      <use x="184.863281" xlink:href="#DejaVuSans-53"/>
      <use x="248.486328" xlink:href="#DejaVuSans-95"/>
      <use x="298.486328" xlink:href="#DejaVuSans-84"/>
      <use x="359.570312" xlink:href="#DejaVuSans-48"/>
      <use x="423.193359" xlink:href="#DejaVuSans-95"/>
      <use x="473.193359" xlink:href="#DejaVuSans-82"/>
      <use x="542.675781" xlink:href="#DejaVuSans-50"/>
      <use x="606.298828" xlink:href="#DejaVuSans-95"/>
      <use x="656.298828" xlink:href="#DejaVuSans-84"/>
      <use x="717.382812" xlink:href="#DejaVuSans-49"/>
      <use x="781.005859" xlink:href="#DejaVuSans-95"/>
      <use x="831.005859" xlink:href="#DejaVuSans-50"/>
     </g>
    </g>
    <g id="line2d_36">
     <path d="M 677.56375 291.525394 
L 693.56375 291.525394 
" style="fill:none;stroke:#5cb85c;stroke-linecap:square;"/>
    </g>
    <g id="line2d_37"/>
    <g id="text_24">
     <!-- SPT5_T15_R1_T1_1 -->
     <g transform="translate(699.96375 294.325394)scale(0.08 -0.08)">
      <use xlink:href="#DejaVuSans-83"/>
      <use x="63.476562" xlink:href="#DejaVuSans-80"/>
      <use x="123.779297" xlink:href="#DejaVuSans-84"/>
      <use x="184.863281" xlink:href="#DejaVuSans-53"/>
      <use x="248.486328" xlink:href="#DejaVuSans-95"/>
      <use x="298.486328" xlink:href="#DejaVuSans-84"/>
      <use x="359.570312" xlink:href="#DejaVuSans-49"/>
      <use x="423.193359" xlink:href="#DejaVuSans-53"/>
      <use x="486.816406" xlink:href="#DejaVuSans-95"/>
      <use x="536.816406" xlink:href="#DejaVuSans-82"/>
      <use x="606.298828" xlink:href="#DejaVuSans-49"/>
      <use x="669.921875" xlink:href="#DejaVuSans-95"/>
      <use x="719.921875" xlink:href="#DejaVuSans-84"/>
      <use x="781.005859" xlink:href="#DejaVuSans-49"/>
      <use x="844.628906" xlink:href="#DejaVuSans-95"/>
      <use x="894.628906" xlink:href="#DejaVuSans-49"/>
     </g>
    </g>
    <g id="line2d_38">
     <path d="M 677.56375 303.490394 
L 693.56375 303.490394 
" style="fill:none;stroke:#5cb85c;stroke-linecap:square;"/>
    </g>
    <g id="line2d_39"/>
    <g id="text_25">
     <!-- SPT5_T15_R1_T1_2 -->
     <g transform="translate(699.96375 306.290394)scale(0.08 -0.08)">
      <use xlink:href="#DejaVuSans-83"/>
      <use x="63.476562" xlink:href="#DejaVuSans-80"/>
      <use x="123.779297" xlink:href="#DejaVuSans-84"/>
      <use x="184.863281" xlink:href="#DejaVuSans-53"/>
      <use x="248.486328" xlink:href="#DejaVuSans-95"/>
      <use x="298.486328" xlink:href="#DejaVuSans-84"/>
      <use x="359.570312" xlink:href="#DejaVuSans-49"/>
      <use x="423.193359" xlink:href="#DejaVuSans-53"/>
      <use x="486.816406" xlink:href="#DejaVuSans-95"/>
      <use x="536.816406" xlink:href="#DejaVuSans-82"/>
      <use x="606.298828" xlink:href="#DejaVuSans-49"/>
      <use x="669.921875" xlink:href="#DejaVuSans-95"/>
      <use x="719.921875" xlink:href="#DejaVuSans-84"/>
      <use x="781.005859" xlink:href="#DejaVuSans-49"/>
      <use x="844.628906" xlink:href="#DejaVuSans-95"/>
      <use x="894.628906" xlink:href="#DejaVuSans-50"/>
     </g>
    </g>
    <g id="line2d_40">
     <path d="M 879.043125 291.525394 
L 895.043125 291.525394 
" style="fill:none;stroke:#5cb85c;stroke-linecap:square;"/>
    </g>
    <g id="line2d_41"/>
    <g id="text_26">
     <!-- SPT5_T15_R2_T1_1 -->
     <g transform="translate(901.443125 294.325394)scale(0.08 -0.08)">
      <use xlink:href="#DejaVuSans-83"/>
      <use x="63.476562" xlink:href="#DejaVuSans-80"/>
      <use x="123.779297" xlink:href="#DejaVuSans-84"/>
      <use x="184.863281" xlink:href="#DejaVuSans-53"/>
      <use x="248.486328" xlink:href="#DejaVuSans-95"/>
      <use x="298.486328" xlink:href="#DejaVuSans-84"/>
      <use x="359.570312" xlink:href="#DejaVuSans-49"/>
      <use x="423.193359" xlink:href="#DejaVuSans-53"/>
      <use x="486.816406" xlink:href="#DejaVuSans-95"/>
      <use x="536.816406" xlink:href="#DejaVuSans-82"/>
      <use x="606.298828" xlink:href="#DejaVuSans-50"/>
      <use x="669.921875" xlink:href="#DejaVuSans-95"/>
      <use x="719.921875" xlink:href="#DejaVuSans-84"/>
      <use x="781.005859" xlink:href="#DejaVuSans-49"/>
      <use x="844.628906" xlink:href="#DejaVuSans-95"/>
      <use x="894.628906" xlink:href="#DejaVuSans-49"/>
     </g>
    </g>
    <g id="line2d_42">
     <path d="M 879.043125 303.490394 
L 895.043125 303.490394 
" style="fill:none;stroke:#5cb85c;stroke-linecap:square;"/>
    </g>
    <g id="line2d_43"/>
    <g id="text_27">
     <!-- SPT5_T15_R2_T1_2 -->
     <g transform="translate(901.443125 306.290394)scale(0.08 -0.08)">
      <use xlink:href="#DejaVuSans-83"/>
      <use x="63.476562" xlink:href="#DejaVuSans-80"/>
      <use x="123.779297" xlink:href="#DejaVuSans-84"/>
      <use x="184.863281" xlink:href="#DejaVuSans-53"/>
      <use x="248.486328" xlink:href="#DejaVuSans-95"/>
      <use x="298.486328" xlink:href="#DejaVuSans-84"/>
      <use x="359.570312" xlink:href="#DejaVuSans-49"/>
      <use x="423.193359" xlink:href="#DejaVuSans-53"/>
      <use x="486.816406" xlink:href="#DejaVuSans-95"/>
      <use x="536.816406" xlink:href="#DejaVuSans-82"/>
      <use x="606.298828" xlink:href="#DejaVuSans-50"/>
      <use x="669.921875" xlink:href="#DejaVuSans-95"/>
      <use x="719.921875" xlink:href="#DejaVuSans-84"/>
      <use x="781.005859" xlink:href="#DejaVuSans-49"/>
      <use x="844.628906" xlink:href="#DejaVuSans-95"/>
      <use x="894.628906" xlink:href="#DejaVuSans-50"/>
     </g>
    </g>
   </g>
  </g>
 </g>
 <defs>
  <clipPath id="pf1613a25b4">
   <rect height="242.5072" width="931.975" x="53.328125" y="31.48286"/>
  </clipPath>
 </defs>
</svg>
