<?xml version="1.0" encoding="utf-8" standalone="no"?>
<!DOCTYPE svg PUBLIC "-//W3C//DTD SVG 1.1//EN"
  "http://www.w3.org/Graphics/SVG/1.1/DTD/svg11.dtd">
<!-- Created with matplotlib (https://matplotlib.org/) -->
<svg height="330.541644pt" version="1.1" viewBox="0 0 1000.318125 330.541644" width="1000.318125pt" xmlns="http://www.w3.org/2000/svg" xmlns:xlink="http://www.w3.org/1999/xlink">
 <metadata>
  <rdf:RDF xmlns:cc="http://creativecommons.org/ns#" xmlns:dc="http://purl.org/dc/elements/1.1/" xmlns:rdf="http://www.w3.org/1999/02/22-rdf-syntax-ns#">
   <cc:Work>
    <dc:type rdf:resource="http://purl.org/dc/dcmitype/StillImage"/>
    <dc:date>2021-01-29T21:51:09.371219</dc:date>
    <dc:format>image/svg+xml</dc:format>
    <dc:creator>
     <cc:Agent>
      <dc:title>Matplotlib v3.3.0, https://matplotlib.org/</dc:title>
     </cc:Agent>
    </dc:creator>
   </cc:Work>
  </rdf:RDF>
 </metadata>
 <defs>
  <style type="text/css">*{stroke-linecap:butt;stroke-linejoin:round;}</style>
 </defs>
 <g id="figure_1">
  <g id="axes_1">
   <g id="patch_1">
    <path d="M 38.058125 273.99006 
L 993.118125 273.99006 
L 993.118125 31.48286 
L 38.058125 31.48286 
z
" style="fill:#ffffff;"/>
   </g>
   <g id="matplotlib.axis_1">
    <g id="xtick_1">
     <g id="text_1">
      <!-- 0 -->
      <g transform="translate(73.175033 287.06881)scale(0.08 -0.08)">
       <defs>
        <path d="M 31.78125 66.40625 
Q 24.171875 66.40625 20.328125 58.90625 
Q 16.5 51.421875 16.5 36.375 
Q 16.5 21.390625 20.328125 13.890625 
Q 24.171875 6.390625 31.78125 6.390625 
Q 39.453125 6.390625 43.28125 13.890625 
Q 47.125 21.390625 47.125 36.375 
Q 47.125 51.421875 43.28125 58.90625 
Q 39.453125 66.40625 31.78125 66.40625 
z
M 31.78125 74.21875 
Q 44.046875 74.21875 50.515625 64.515625 
Q 56.984375 54.828125 56.984375 36.375 
Q 56.984375 17.96875 50.515625 8.265625 
Q 44.046875 -1.421875 31.78125 -1.421875 
Q 19.53125 -1.421875 13.0625 8.265625 
Q 6.59375 17.96875 6.59375 36.375 
Q 6.59375 54.828125 13.0625 64.515625 
Q 19.53125 74.21875 31.78125 74.21875 
z
" id="DejaVuSans-48"/>
       </defs>
       <use xlink:href="#DejaVuSans-48"/>
      </g>
     </g>
    </g>
    <g id="xtick_2">
     <g id="text_2">
      <!-- 20 -->
      <g transform="translate(185.628227 287.06881)scale(0.08 -0.08)">
       <defs>
        <path d="M 19.1875 8.296875 
L 53.609375 8.296875 
L 53.609375 0 
L 7.328125 0 
L 7.328125 8.296875 
Q 12.9375 14.109375 22.625 23.890625 
Q 32.328125 33.6875 34.8125 36.53125 
Q 39.546875 41.84375 41.421875 45.53125 
Q 43.3125 49.21875 43.3125 52.78125 
Q 43.3125 58.59375 39.234375 62.25 
Q 35.15625 65.921875 28.609375 65.921875 
Q 23.96875 65.921875 18.8125 64.3125 
Q 13.671875 62.703125 7.8125 59.421875 
L 7.8125 69.390625 
Q 13.765625 71.78125 18.9375 73 
Q 24.125 74.21875 28.421875 74.21875 
Q 39.75 74.21875 46.484375 68.546875 
Q 53.21875 62.890625 53.21875 53.421875 
Q 53.21875 48.921875 51.53125 44.890625 
Q 49.859375 40.875 45.40625 35.40625 
Q 44.1875 33.984375 37.640625 27.21875 
Q 31.109375 20.453125 19.1875 8.296875 
z
" id="DejaVuSans-50"/>
       </defs>
       <use xlink:href="#DejaVuSans-50"/>
       <use x="63.623047" xlink:href="#DejaVuSans-48"/>
      </g>
     </g>
    </g>
    <g id="xtick_3">
     <g id="text_3">
      <!-- 40 -->
      <g transform="translate(300.626421 287.06881)scale(0.08 -0.08)">
       <defs>
        <path d="M 37.796875 64.3125 
L 12.890625 25.390625 
L 37.796875 25.390625 
z
M 35.203125 72.90625 
L 47.609375 72.90625 
L 47.609375 25.390625 
L 58.015625 25.390625 
L 58.015625 17.1875 
L 47.609375 17.1875 
L 47.609375 0 
L 37.796875 0 
L 37.796875 17.1875 
L 4.890625 17.1875 
L 4.890625 26.703125 
z
" id="DejaVuSans-52"/>
       </defs>
       <use xlink:href="#DejaVuSans-52"/>
       <use x="63.623047" xlink:href="#DejaVuSans-48"/>
      </g>
     </g>
    </g>
    <g id="xtick_4">
     <g id="text_4">
      <!-- 60 -->
      <g transform="translate(415.624615 287.06881)scale(0.08 -0.08)">
       <defs>
        <path d="M 33.015625 40.375 
Q 26.375 40.375 22.484375 35.828125 
Q 18.609375 31.296875 18.609375 23.390625 
Q 18.609375 15.53125 22.484375 10.953125 
Q 26.375 6.390625 33.015625 6.390625 
Q 39.65625 6.390625 43.53125 10.953125 
Q 47.40625 15.53125 47.40625 23.390625 
Q 47.40625 31.296875 43.53125 35.828125 
Q 39.65625 40.375 33.015625 40.375 
z
M 52.59375 71.296875 
L 52.59375 62.3125 
Q 48.875 64.0625 45.09375 64.984375 
Q 41.3125 65.921875 37.59375 65.921875 
Q 27.828125 65.921875 22.671875 59.328125 
Q 17.53125 52.734375 16.796875 39.40625 
Q 19.671875 43.65625 24.015625 45.921875 
Q 28.375 48.1875 33.59375 48.1875 
Q 44.578125 48.1875 50.953125 41.515625 
Q 57.328125 34.859375 57.328125 23.390625 
Q 57.328125 12.15625 50.6875 5.359375 
Q 44.046875 -1.421875 33.015625 -1.421875 
Q 20.359375 -1.421875 13.671875 8.265625 
Q 6.984375 17.96875 6.984375 36.375 
Q 6.984375 53.65625 15.1875 63.9375 
Q 23.390625 74.21875 37.203125 74.21875 
Q 40.921875 74.21875 44.703125 73.484375 
Q 48.484375 72.75 52.59375 71.296875 
z
" id="DejaVuSans-54"/>
       </defs>
       <use xlink:href="#DejaVuSans-54"/>
       <use x="63.623047" xlink:href="#DejaVuSans-48"/>
      </g>
     </g>
    </g>
    <g id="xtick_5">
     <g id="text_5">
      <!-- 80 -->
      <g transform="translate(530.622809 287.06881)scale(0.08 -0.08)">
       <defs>
        <path d="M 31.78125 34.625 
Q 24.75 34.625 20.71875 30.859375 
Q 16.703125 27.09375 16.703125 20.515625 
Q 16.703125 13.921875 20.71875 10.15625 
Q 24.75 6.390625 31.78125 6.390625 
Q 38.8125 6.390625 42.859375 10.171875 
Q 46.921875 13.96875 46.921875 20.515625 
Q 46.921875 27.09375 42.890625 30.859375 
Q 38.875 34.625 31.78125 34.625 
z
M 21.921875 38.8125 
Q 15.578125 40.375 12.03125 44.71875 
Q 8.5 49.078125 8.5 55.328125 
Q 8.5 64.0625 14.71875 69.140625 
Q 20.953125 74.21875 31.78125 74.21875 
Q 42.671875 74.21875 48.875 69.140625 
Q 55.078125 64.0625 55.078125 55.328125 
Q 55.078125 49.078125 51.53125 44.71875 
Q 48 40.375 41.703125 38.8125 
Q 48.828125 37.15625 52.796875 32.3125 
Q 56.78125 27.484375 56.78125 20.515625 
Q 56.78125 9.90625 50.3125 4.234375 
Q 43.84375 -1.421875 31.78125 -1.421875 
Q 19.734375 -1.421875 13.25 4.234375 
Q 6.78125 9.90625 6.78125 20.515625 
Q 6.78125 27.484375 10.78125 32.3125 
Q 14.796875 37.15625 21.921875 38.8125 
z
M 18.3125 54.390625 
Q 18.3125 48.734375 21.84375 45.5625 
Q 25.390625 42.390625 31.78125 42.390625 
Q 38.140625 42.390625 41.71875 45.5625 
Q 45.3125 48.734375 45.3125 54.390625 
Q 45.3125 60.0625 41.71875 63.234375 
Q 38.140625 66.40625 31.78125 66.40625 
Q 25.390625 66.40625 21.84375 63.234375 
Q 18.3125 60.0625 18.3125 54.390625 
z
" id="DejaVuSans-56"/>
       </defs>
       <use xlink:href="#DejaVuSans-56"/>
       <use x="63.623047" xlink:href="#DejaVuSans-48"/>
      </g>
     </g>
    </g>
    <g id="xtick_6">
     <g id="text_6">
      <!-- 100 -->
      <g transform="translate(643.076003 287.06881)scale(0.08 -0.08)">
       <defs>
        <path d="M 12.40625 8.296875 
L 28.515625 8.296875 
L 28.515625 63.921875 
L 10.984375 60.40625 
L 10.984375 69.390625 
L 28.421875 72.90625 
L 38.28125 72.90625 
L 38.28125 8.296875 
L 54.390625 8.296875 
L 54.390625 0 
L 12.40625 0 
z
" id="DejaVuSans-49"/>
       </defs>
       <use xlink:href="#DejaVuSans-49"/>
       <use x="63.623047" xlink:href="#DejaVuSans-48"/>
       <use x="127.246094" xlink:href="#DejaVuSans-48"/>
      </g>
     </g>
    </g>
    <g id="xtick_7">
     <g id="text_7">
      <!-- 120 -->
      <g transform="translate(758.074197 287.06881)scale(0.08 -0.08)">
       <use xlink:href="#DejaVuSans-49"/>
       <use x="63.623047" xlink:href="#DejaVuSans-50"/>
       <use x="127.246094" xlink:href="#DejaVuSans-48"/>
      </g>
     </g>
    </g>
    <g id="xtick_8">
     <g id="text_8">
      <!-- 140 -->
      <g transform="translate(873.072391 287.06881)scale(0.08 -0.08)">
       <use xlink:href="#DejaVuSans-49"/>
       <use x="63.623047" xlink:href="#DejaVuSans-52"/>
       <use x="127.246094" xlink:href="#DejaVuSans-48"/>
      </g>
     </g>
    </g>
    <g id="text_9">
     <!-- Cycle Number -->
     <g transform="translate(480.2475 300.330997)scale(0.1 -0.1)">
      <defs>
       <path d="M 64.40625 67.28125 
L 64.40625 56.890625 
Q 59.421875 61.53125 53.78125 63.8125 
Q 48.140625 66.109375 41.796875 66.109375 
Q 29.296875 66.109375 22.65625 58.46875 
Q 16.015625 50.828125 16.015625 36.375 
Q 16.015625 21.96875 22.65625 14.328125 
Q 29.296875 6.6875 41.796875 6.6875 
Q 48.140625 6.6875 53.78125 8.984375 
Q 59.421875 11.28125 64.40625 15.921875 
L 64.40625 5.609375 
Q 59.234375 2.09375 53.4375 0.328125 
Q 47.65625 -1.421875 41.21875 -1.421875 
Q 24.65625 -1.421875 15.125 8.703125 
Q 5.609375 18.84375 5.609375 36.375 
Q 5.609375 53.953125 15.125 64.078125 
Q 24.65625 74.21875 41.21875 74.21875 
Q 47.75 74.21875 53.53125 72.484375 
Q 59.328125 70.75 64.40625 67.28125 
z
" id="DejaVuSans-67"/>
       <path d="M 32.171875 -5.078125 
Q 28.375 -14.84375 24.75 -17.8125 
Q 21.140625 -20.796875 15.09375 -20.796875 
L 7.90625 -20.796875 
L 7.90625 -13.28125 
L 13.1875 -13.28125 
Q 16.890625 -13.28125 18.9375 -11.515625 
Q 21 -9.765625 23.484375 -3.21875 
L 25.09375 0.875 
L 2.984375 54.6875 
L 12.5 54.6875 
L 29.59375 11.921875 
L 46.6875 54.6875 
L 56.203125 54.6875 
z
" id="DejaVuSans-121"/>
       <path d="M 48.78125 52.59375 
L 48.78125 44.1875 
Q 44.96875 46.296875 41.140625 47.34375 
Q 37.3125 48.390625 33.40625 48.390625 
Q 24.65625 48.390625 19.8125 42.84375 
Q 14.984375 37.3125 14.984375 27.296875 
Q 14.984375 17.28125 19.8125 11.734375 
Q 24.65625 6.203125 33.40625 6.203125 
Q 37.3125 6.203125 41.140625 7.25 
Q 44.96875 8.296875 48.78125 10.40625 
L 48.78125 2.09375 
Q 45.015625 0.34375 40.984375 -0.53125 
Q 36.96875 -1.421875 32.421875 -1.421875 
Q 20.0625 -1.421875 12.78125 6.34375 
Q 5.515625 14.109375 5.515625 27.296875 
Q 5.515625 40.671875 12.859375 48.328125 
Q 20.21875 56 33.015625 56 
Q 37.15625 56 41.109375 55.140625 
Q 45.0625 54.296875 48.78125 52.59375 
z
" id="DejaVuSans-99"/>
       <path d="M 9.421875 75.984375 
L 18.40625 75.984375 
L 18.40625 0 
L 9.421875 0 
z
" id="DejaVuSans-108"/>
       <path d="M 56.203125 29.59375 
L 56.203125 25.203125 
L 14.890625 25.203125 
Q 15.484375 15.921875 20.484375 11.0625 
Q 25.484375 6.203125 34.421875 6.203125 
Q 39.59375 6.203125 44.453125 7.46875 
Q 49.3125 8.734375 54.109375 11.28125 
L 54.109375 2.78125 
Q 49.265625 0.734375 44.1875 -0.34375 
Q 39.109375 -1.421875 33.890625 -1.421875 
Q 20.796875 -1.421875 13.15625 6.1875 
Q 5.515625 13.8125 5.515625 26.8125 
Q 5.515625 40.234375 12.765625 48.109375 
Q 20.015625 56 32.328125 56 
Q 43.359375 56 49.78125 48.890625 
Q 56.203125 41.796875 56.203125 29.59375 
z
M 47.21875 32.234375 
Q 47.125 39.59375 43.09375 43.984375 
Q 39.0625 48.390625 32.421875 48.390625 
Q 24.90625 48.390625 20.390625 44.140625 
Q 15.875 39.890625 15.1875 32.171875 
z
" id="DejaVuSans-101"/>
       <path id="DejaVuSans-32"/>
       <path d="M 9.8125 72.90625 
L 23.09375 72.90625 
L 55.421875 11.921875 
L 55.421875 72.90625 
L 64.984375 72.90625 
L 64.984375 0 
L 51.703125 0 
L 19.390625 60.984375 
L 19.390625 0 
L 9.8125 0 
z
" id="DejaVuSans-78"/>
       <path d="M 8.5 21.578125 
L 8.5 54.6875 
L 17.484375 54.6875 
L 17.484375 21.921875 
Q 17.484375 14.15625 20.5 10.265625 
Q 23.53125 6.390625 29.59375 6.390625 
Q 36.859375 6.390625 41.078125 11.03125 
Q 45.3125 15.671875 45.3125 23.6875 
L 45.3125 54.6875 
L 54.296875 54.6875 
L 54.296875 0 
L 45.3125 0 
L 45.3125 8.40625 
Q 42.046875 3.421875 37.71875 1 
Q 33.40625 -1.421875 27.6875 -1.421875 
Q 18.265625 -1.421875 13.375 4.4375 
Q 8.5 10.296875 8.5 21.578125 
z
M 31.109375 56 
z
" id="DejaVuSans-117"/>
       <path d="M 52 44.1875 
Q 55.375 50.25 60.0625 53.125 
Q 64.75 56 71.09375 56 
Q 79.640625 56 84.28125 50.015625 
Q 88.921875 44.046875 88.921875 33.015625 
L 88.921875 0 
L 79.890625 0 
L 79.890625 32.71875 
Q 79.890625 40.578125 77.09375 44.375 
Q 74.3125 48.1875 68.609375 48.1875 
Q 61.625 48.1875 57.5625 43.546875 
Q 53.515625 38.921875 53.515625 30.90625 
L 53.515625 0 
L 44.484375 0 
L 44.484375 32.71875 
Q 44.484375 40.625 41.703125 44.40625 
Q 38.921875 48.1875 33.109375 48.1875 
Q 26.21875 48.1875 22.15625 43.53125 
Q 18.109375 38.875 18.109375 30.90625 
L 18.109375 0 
L 9.078125 0 
L 9.078125 54.6875 
L 18.109375 54.6875 
L 18.109375 46.1875 
Q 21.1875 51.21875 25.484375 53.609375 
Q 29.78125 56 35.6875 56 
Q 41.65625 56 45.828125 52.96875 
Q 50 49.953125 52 44.1875 
z
" id="DejaVuSans-109"/>
       <path d="M 48.6875 27.296875 
Q 48.6875 37.203125 44.609375 42.84375 
Q 40.53125 48.484375 33.40625 48.484375 
Q 26.265625 48.484375 22.1875 42.84375 
Q 18.109375 37.203125 18.109375 27.296875 
Q 18.109375 17.390625 22.1875 11.75 
Q 26.265625 6.109375 33.40625 6.109375 
Q 40.53125 6.109375 44.609375 11.75 
Q 48.6875 17.390625 48.6875 27.296875 
z
M 18.109375 46.390625 
Q 20.953125 51.265625 25.265625 53.625 
Q 29.59375 56 35.59375 56 
Q 45.5625 56 51.78125 48.09375 
Q 58.015625 40.1875 58.015625 27.296875 
Q 58.015625 14.40625 51.78125 6.484375 
Q 45.5625 -1.421875 35.59375 -1.421875 
Q 29.59375 -1.421875 25.265625 0.953125 
Q 20.953125 3.328125 18.109375 8.203125 
L 18.109375 0 
L 9.078125 0 
L 9.078125 75.984375 
L 18.109375 75.984375 
z
" id="DejaVuSans-98"/>
       <path d="M 41.109375 46.296875 
Q 39.59375 47.171875 37.8125 47.578125 
Q 36.03125 48 33.890625 48 
Q 26.265625 48 22.1875 43.046875 
Q 18.109375 38.09375 18.109375 28.8125 
L 18.109375 0 
L 9.078125 0 
L 9.078125 54.6875 
L 18.109375 54.6875 
L 18.109375 46.1875 
Q 20.953125 51.171875 25.484375 53.578125 
Q 30.03125 56 36.53125 56 
Q 37.453125 56 38.578125 55.875 
Q 39.703125 55.765625 41.0625 55.515625 
z
" id="DejaVuSans-114"/>
      </defs>
      <use xlink:href="#DejaVuSans-67"/>
      <use x="69.824219" xlink:href="#DejaVuSans-121"/>
      <use x="129.003906" xlink:href="#DejaVuSans-99"/>
      <use x="183.984375" xlink:href="#DejaVuSans-108"/>
      <use x="211.767578" xlink:href="#DejaVuSans-101"/>
      <use x="273.291016" xlink:href="#DejaVuSans-32"/>
      <use x="305.078125" xlink:href="#DejaVuSans-78"/>
      <use x="379.882812" xlink:href="#DejaVuSans-117"/>
      <use x="443.261719" xlink:href="#DejaVuSans-109"/>
      <use x="540.673828" xlink:href="#DejaVuSans-98"/>
      <use x="604.150391" xlink:href="#DejaVuSans-101"/>
      <use x="665.673828" xlink:href="#DejaVuSans-114"/>
     </g>
    </g>
   </g>
   <g id="matplotlib.axis_2">
    <g id="ytick_1">
     <g id="line2d_1">
      <path clip-path="url(#p49103cf86b)" d="M 38.058125 273.99006 
L 993.118125 273.99006 
" style="fill:none;stroke:#dedede;stroke-linecap:square;"/>
     </g>
     <g id="text_10">
      <!-- 0 -->
      <g transform="translate(25.968125 277.029435)scale(0.08 -0.08)">
       <use xlink:href="#DejaVuSans-48"/>
      </g>
     </g>
    </g>
    <g id="ytick_2">
     <g id="line2d_2">
      <path clip-path="url(#p49103cf86b)" d="M 38.058125 243.856549 
L 993.118125 243.856549 
" style="fill:none;stroke:#dedede;stroke-linecap:square;"/>
     </g>
     <g id="text_11">
      <!-- 5 -->
      <g transform="translate(25.968125 246.895924)scale(0.08 -0.08)">
       <defs>
        <path d="M 10.796875 72.90625 
L 49.515625 72.90625 
L 49.515625 64.59375 
L 19.828125 64.59375 
L 19.828125 46.734375 
Q 21.96875 47.46875 24.109375 47.828125 
Q 26.265625 48.1875 28.421875 48.1875 
Q 40.625 48.1875 47.75 41.5 
Q 54.890625 34.8125 54.890625 23.390625 
Q 54.890625 11.625 47.5625 5.09375 
Q 40.234375 -1.421875 26.90625 -1.421875 
Q 22.3125 -1.421875 17.546875 -0.640625 
Q 12.796875 0.140625 7.71875 1.703125 
L 7.71875 11.625 
Q 12.109375 9.234375 16.796875 8.0625 
Q 21.484375 6.890625 26.703125 6.890625 
Q 35.15625 6.890625 40.078125 11.328125 
Q 45.015625 15.765625 45.015625 23.390625 
Q 45.015625 31 40.078125 35.4375 
Q 35.15625 39.890625 26.703125 39.890625 
Q 22.75 39.890625 18.8125 39.015625 
Q 14.890625 38.140625 10.796875 36.28125 
z
" id="DejaVuSans-53"/>
       </defs>
       <use xlink:href="#DejaVuSans-53"/>
      </g>
     </g>
    </g>
    <g id="ytick_3">
     <g id="line2d_3">
      <path clip-path="url(#p49103cf86b)" d="M 38.058125 213.723039 
L 993.118125 213.723039 
" style="fill:none;stroke:#dedede;stroke-linecap:square;"/>
     </g>
     <g id="text_12">
      <!-- 10 -->
      <g transform="translate(20.878125 216.762414)scale(0.08 -0.08)">
       <use xlink:href="#DejaVuSans-49"/>
       <use x="63.623047" xlink:href="#DejaVuSans-48"/>
      </g>
     </g>
    </g>
    <g id="ytick_4">
     <g id="line2d_4">
      <path clip-path="url(#p49103cf86b)" d="M 38.058125 183.589528 
L 993.118125 183.589528 
" style="fill:none;stroke:#dedede;stroke-linecap:square;"/>
     </g>
     <g id="text_13">
      <!-- 15 -->
      <g transform="translate(20.878125 186.628903)scale(0.08 -0.08)">
       <use xlink:href="#DejaVuSans-49"/>
       <use x="63.623047" xlink:href="#DejaVuSans-53"/>
      </g>
     </g>
    </g>
    <g id="ytick_5">
     <g id="line2d_5">
      <path clip-path="url(#p49103cf86b)" d="M 38.058125 153.456017 
L 993.118125 153.456017 
" style="fill:none;stroke:#dedede;stroke-linecap:square;"/>
     </g>
     <g id="text_14">
      <!-- 20 -->
      <g transform="translate(20.878125 156.495392)scale(0.08 -0.08)">
       <use xlink:href="#DejaVuSans-50"/>
       <use x="63.623047" xlink:href="#DejaVuSans-48"/>
      </g>
     </g>
    </g>
    <g id="ytick_6">
     <g id="line2d_6">
      <path clip-path="url(#p49103cf86b)" d="M 38.058125 123.322507 
L 993.118125 123.322507 
" style="fill:none;stroke:#dedede;stroke-linecap:square;"/>
     </g>
     <g id="text_15">
      <!-- 25 -->
      <g transform="translate(20.878125 126.361882)scale(0.08 -0.08)">
       <use xlink:href="#DejaVuSans-50"/>
       <use x="63.623047" xlink:href="#DejaVuSans-53"/>
      </g>
     </g>
    </g>
    <g id="ytick_7">
     <g id="line2d_7">
      <path clip-path="url(#p49103cf86b)" d="M 38.058125 93.188996 
L 993.118125 93.188996 
" style="fill:none;stroke:#dedede;stroke-linecap:square;"/>
     </g>
     <g id="text_16">
      <!-- 30 -->
      <g transform="translate(20.878125 96.228371)scale(0.08 -0.08)">
       <defs>
        <path d="M 40.578125 39.3125 
Q 47.65625 37.796875 51.625 33 
Q 55.609375 28.21875 55.609375 21.1875 
Q 55.609375 10.40625 48.1875 4.484375 
Q 40.765625 -1.421875 27.09375 -1.421875 
Q 22.515625 -1.421875 17.65625 -0.515625 
Q 12.796875 0.390625 7.625 2.203125 
L 7.625 11.71875 
Q 11.71875 9.328125 16.59375 8.109375 
Q 21.484375 6.890625 26.8125 6.890625 
Q 36.078125 6.890625 40.9375 10.546875 
Q 45.796875 14.203125 45.796875 21.1875 
Q 45.796875 27.640625 41.28125 31.265625 
Q 36.765625 34.90625 28.71875 34.90625 
L 20.21875 34.90625 
L 20.21875 43.015625 
L 29.109375 43.015625 
Q 36.375 43.015625 40.234375 45.921875 
Q 44.09375 48.828125 44.09375 54.296875 
Q 44.09375 59.90625 40.109375 62.90625 
Q 36.140625 65.921875 28.71875 65.921875 
Q 24.65625 65.921875 20.015625 65.03125 
Q 15.375 64.15625 9.8125 62.3125 
L 9.8125 71.09375 
Q 15.4375 72.65625 20.34375 73.4375 
Q 25.25 74.21875 29.59375 74.21875 
Q 40.828125 74.21875 47.359375 69.109375 
Q 53.90625 64.015625 53.90625 55.328125 
Q 53.90625 49.265625 50.4375 45.09375 
Q 46.96875 40.921875 40.578125 39.3125 
z
" id="DejaVuSans-51"/>
       </defs>
       <use xlink:href="#DejaVuSans-51"/>
       <use x="63.623047" xlink:href="#DejaVuSans-48"/>
      </g>
     </g>
    </g>
    <g id="ytick_8">
     <g id="line2d_8">
      <path clip-path="url(#p49103cf86b)" d="M 38.058125 63.055485 
L 993.118125 63.055485 
" style="fill:none;stroke:#dedede;stroke-linecap:square;"/>
     </g>
     <g id="text_17">
      <!-- 35 -->
      <g transform="translate(20.878125 66.09486)scale(0.08 -0.08)">
       <use xlink:href="#DejaVuSans-51"/>
       <use x="63.623047" xlink:href="#DejaVuSans-53"/>
      </g>
     </g>
    </g>
    <g id="ytick_9">
     <g id="line2d_9">
      <path clip-path="url(#p49103cf86b)" d="M 38.058125 32.921975 
L 993.118125 32.921975 
" style="fill:none;stroke:#dedede;stroke-linecap:square;"/>
     </g>
     <g id="text_18">
      <!-- 40 -->
      <g transform="translate(20.878125 35.96135)scale(0.08 -0.08)">
       <use xlink:href="#DejaVuSans-52"/>
       <use x="63.623047" xlink:href="#DejaVuSans-48"/>
      </g>
     </g>
    </g>
    <g id="text_19">
     <!-- Mean Base Quality -->
     <g transform="translate(14.798438 199.58021)rotate(-90)scale(0.1 -0.1)">
      <defs>
       <path d="M 9.8125 72.90625 
L 24.515625 72.90625 
L 43.109375 23.296875 
L 61.8125 72.90625 
L 76.515625 72.90625 
L 76.515625 0 
L 66.890625 0 
L 66.890625 64.015625 
L 48.09375 14.015625 
L 38.1875 14.015625 
L 19.390625 64.015625 
L 19.390625 0 
L 9.8125 0 
z
" id="DejaVuSans-77"/>
       <path d="M 34.28125 27.484375 
Q 23.390625 27.484375 19.1875 25 
Q 14.984375 22.515625 14.984375 16.5 
Q 14.984375 11.71875 18.140625 8.90625 
Q 21.296875 6.109375 26.703125 6.109375 
Q 34.1875 6.109375 38.703125 11.40625 
Q 43.21875 16.703125 43.21875 25.484375 
L 43.21875 27.484375 
z
M 52.203125 31.203125 
L 52.203125 0 
L 43.21875 0 
L 43.21875 8.296875 
Q 40.140625 3.328125 35.546875 0.953125 
Q 30.953125 -1.421875 24.3125 -1.421875 
Q 15.921875 -1.421875 10.953125 3.296875 
Q 6 8.015625 6 15.921875 
Q 6 25.140625 12.171875 29.828125 
Q 18.359375 34.515625 30.609375 34.515625 
L 43.21875 34.515625 
L 43.21875 35.40625 
Q 43.21875 41.609375 39.140625 45 
Q 35.0625 48.390625 27.6875 48.390625 
Q 23 48.390625 18.546875 47.265625 
Q 14.109375 46.140625 10.015625 43.890625 
L 10.015625 52.203125 
Q 14.9375 54.109375 19.578125 55.046875 
Q 24.21875 56 28.609375 56 
Q 40.484375 56 46.34375 49.84375 
Q 52.203125 43.703125 52.203125 31.203125 
z
" id="DejaVuSans-97"/>
       <path d="M 54.890625 33.015625 
L 54.890625 0 
L 45.90625 0 
L 45.90625 32.71875 
Q 45.90625 40.484375 42.875 44.328125 
Q 39.84375 48.1875 33.796875 48.1875 
Q 26.515625 48.1875 22.3125 43.546875 
Q 18.109375 38.921875 18.109375 30.90625 
L 18.109375 0 
L 9.078125 0 
L 9.078125 54.6875 
L 18.109375 54.6875 
L 18.109375 46.1875 
Q 21.34375 51.125 25.703125 53.5625 
Q 30.078125 56 35.796875 56 
Q 45.21875 56 50.046875 50.171875 
Q 54.890625 44.34375 54.890625 33.015625 
z
" id="DejaVuSans-110"/>
       <path d="M 19.671875 34.8125 
L 19.671875 8.109375 
L 35.5 8.109375 
Q 43.453125 8.109375 47.28125 11.40625 
Q 51.125 14.703125 51.125 21.484375 
Q 51.125 28.328125 47.28125 31.5625 
Q 43.453125 34.8125 35.5 34.8125 
z
M 19.671875 64.796875 
L 19.671875 42.828125 
L 34.28125 42.828125 
Q 41.5 42.828125 45.03125 45.53125 
Q 48.578125 48.25 48.578125 53.8125 
Q 48.578125 59.328125 45.03125 62.0625 
Q 41.5 64.796875 34.28125 64.796875 
z
M 9.8125 72.90625 
L 35.015625 72.90625 
Q 46.296875 72.90625 52.390625 68.21875 
Q 58.5 63.53125 58.5 54.890625 
Q 58.5 48.1875 55.375 44.234375 
Q 52.25 40.28125 46.1875 39.3125 
Q 53.46875 37.75 57.5 32.78125 
Q 61.53125 27.828125 61.53125 20.40625 
Q 61.53125 10.640625 54.890625 5.3125 
Q 48.25 0 35.984375 0 
L 9.8125 0 
z
" id="DejaVuSans-66"/>
       <path d="M 44.28125 53.078125 
L 44.28125 44.578125 
Q 40.484375 46.53125 36.375 47.5 
Q 32.28125 48.484375 27.875 48.484375 
Q 21.1875 48.484375 17.84375 46.4375 
Q 14.5 44.390625 14.5 40.28125 
Q 14.5 37.15625 16.890625 35.375 
Q 19.28125 33.59375 26.515625 31.984375 
L 29.59375 31.296875 
Q 39.15625 29.25 43.1875 25.515625 
Q 47.21875 21.78125 47.21875 15.09375 
Q 47.21875 7.46875 41.1875 3.015625 
Q 35.15625 -1.421875 24.609375 -1.421875 
Q 20.21875 -1.421875 15.453125 -0.5625 
Q 10.6875 0.296875 5.421875 2 
L 5.421875 11.28125 
Q 10.40625 8.6875 15.234375 7.390625 
Q 20.0625 6.109375 24.8125 6.109375 
Q 31.15625 6.109375 34.5625 8.28125 
Q 37.984375 10.453125 37.984375 14.40625 
Q 37.984375 18.0625 35.515625 20.015625 
Q 33.0625 21.96875 24.703125 23.78125 
L 21.578125 24.515625 
Q 13.234375 26.265625 9.515625 29.90625 
Q 5.8125 33.546875 5.8125 39.890625 
Q 5.8125 47.609375 11.28125 51.796875 
Q 16.75 56 26.8125 56 
Q 31.78125 56 36.171875 55.265625 
Q 40.578125 54.546875 44.28125 53.078125 
z
" id="DejaVuSans-115"/>
       <path d="M 39.40625 66.21875 
Q 28.65625 66.21875 22.328125 58.203125 
Q 16.015625 50.203125 16.015625 36.375 
Q 16.015625 22.609375 22.328125 14.59375 
Q 28.65625 6.59375 39.40625 6.59375 
Q 50.140625 6.59375 56.421875 14.59375 
Q 62.703125 22.609375 62.703125 36.375 
Q 62.703125 50.203125 56.421875 58.203125 
Q 50.140625 66.21875 39.40625 66.21875 
z
M 53.21875 1.3125 
L 66.21875 -12.890625 
L 54.296875 -12.890625 
L 43.5 -1.21875 
Q 41.890625 -1.3125 41.03125 -1.359375 
Q 40.1875 -1.421875 39.40625 -1.421875 
Q 24.03125 -1.421875 14.8125 8.859375 
Q 5.609375 19.140625 5.609375 36.375 
Q 5.609375 53.65625 14.8125 63.9375 
Q 24.03125 74.21875 39.40625 74.21875 
Q 54.734375 74.21875 63.90625 63.9375 
Q 73.09375 53.65625 73.09375 36.375 
Q 73.09375 23.6875 67.984375 14.640625 
Q 62.890625 5.609375 53.21875 1.3125 
z
" id="DejaVuSans-81"/>
       <path d="M 9.421875 54.6875 
L 18.40625 54.6875 
L 18.40625 0 
L 9.421875 0 
z
M 9.421875 75.984375 
L 18.40625 75.984375 
L 18.40625 64.59375 
L 9.421875 64.59375 
z
" id="DejaVuSans-105"/>
       <path d="M 18.3125 70.21875 
L 18.3125 54.6875 
L 36.8125 54.6875 
L 36.8125 47.703125 
L 18.3125 47.703125 
L 18.3125 18.015625 
Q 18.3125 11.328125 20.140625 9.421875 
Q 21.96875 7.515625 27.59375 7.515625 
L 36.8125 7.515625 
L 36.8125 0 
L 27.59375 0 
Q 17.1875 0 13.234375 3.875 
Q 9.28125 7.765625 9.28125 18.015625 
L 9.28125 47.703125 
L 2.6875 47.703125 
L 2.6875 54.6875 
L 9.28125 54.6875 
L 9.28125 70.21875 
z
" id="DejaVuSans-116"/>
      </defs>
      <use xlink:href="#DejaVuSans-77"/>
      <use x="86.279297" xlink:href="#DejaVuSans-101"/>
      <use x="147.802734" xlink:href="#DejaVuSans-97"/>
      <use x="209.082031" xlink:href="#DejaVuSans-110"/>
      <use x="272.460938" xlink:href="#DejaVuSans-32"/>
      <use x="304.248047" xlink:href="#DejaVuSans-66"/>
      <use x="372.851562" xlink:href="#DejaVuSans-97"/>
      <use x="434.130859" xlink:href="#DejaVuSans-115"/>
      <use x="486.230469" xlink:href="#DejaVuSans-101"/>
      <use x="547.753906" xlink:href="#DejaVuSans-32"/>
      <use x="579.541016" xlink:href="#DejaVuSans-81"/>
      <use x="658.251953" xlink:href="#DejaVuSans-117"/>
      <use x="721.630859" xlink:href="#DejaVuSans-97"/>
      <use x="782.910156" xlink:href="#DejaVuSans-108"/>
      <use x="810.693359" xlink:href="#DejaVuSans-105"/>
      <use x="838.476562" xlink:href="#DejaVuSans-116"/>
      <use x="877.685547" xlink:href="#DejaVuSans-121"/>
     </g>
    </g>
   </g>
   <g id="line2d_10">
    <path clip-path="url(#p49103cf86b)" d="M 81.469943 75.413298 
L 87.219853 74.355751 
L 92.969763 74.130045 
L 98.719672 54.182209 
L 104.469582 54.562482 
L 110.219492 54.504855 
L 115.969401 54.56103 
L 121.719311 54.664146 
L 127.469221 43.71581 
L 133.21913 43.633335 
L 138.96904 43.654844 
L 144.71895 43.723078 
L 150.468859 43.810646 
L 156.218769 34.293013 
L 161.968679 34.339594 
L 167.718589 34.468728 
L 173.468498 34.529043 
L 179.218408 34.56712 
L 184.968318 34.19978 
L 190.718227 34.298901 
L 196.468137 34.49316 
L 202.218047 34.614562 
L 207.967956 34.755514 
L 213.717866 34.679168 
L 219.467776 34.672268 
L 225.217686 35.189202 
L 230.967595 35.412624 
L 236.717505 35.36623 
L 242.467415 35.68385 
L 248.217324 35.681559 
L 253.967234 35.783356 
L 259.717144 36.185814 
L 265.467053 36.192931 
L 271.216963 36.451561 
L 276.966873 36.401997 
L 282.716782 36.737227 
L 288.466692 37.130957 
L 294.216602 37.220068 
L 299.966512 37.262472 
L 305.716421 36.430094 
L 311.466331 36.224083 
L 317.216241 36.07676 
L 322.96615 36.146899 
L 328.71606 36.3024 
L 334.46597 36.450555 
L 340.215879 36.62193 
L 345.965789 36.599034 
L 351.715699 36.652883 
L 357.465608 36.545897 
L 363.215518 36.65982 
L 368.965428 76.701934 
L 374.715338 75.941816 
L 380.465247 75.866603 
L 386.215157 55.499616 
L 391.965067 55.505359 
L 397.714976 55.422155 
L 403.464886 55.472002 
L 409.214796 55.45362 
L 414.964705 44.612107 
L 420.714615 44.617851 
L 426.464525 44.657018 
L 432.214434 44.658832 
L 437.964344 44.846172 
L 443.714254 35.450918 
L 449.464164 35.426793 
L 455.214073 35.550256 
L 460.963983 35.611149 
L 466.713893 35.536521 
L 472.463802 35.437834 
L 478.213712 35.372799 
L 483.963622 35.56874 
L 489.713531 35.694414 
L 495.463441 35.698597 
L 501.213351 35.786786 
L 506.96326 36.038581 
L 512.71317 36.248552 
L 518.46308 36.331449 
L 524.21299 36.409603 
L 529.962899 36.546741 
L 535.712809 36.752179 
L 541.462719 36.914128 
L 547.212628 37.034843 
L 552.962538 37.204501 
L 558.712448 37.416364 
L 564.462357 37.802079 
L 570.212267 37.89122 
L 575.962177 38.034607 
L 581.712086 38.228438 
L 587.461996 37.275779 
L 593.211906 37.040328 
L 598.961816 36.90777 
L 604.711725 36.977355 
L 610.461635 37.071612 
L 616.211545 37.30628 
L 621.961454 37.35289 
L 627.711364 37.368807 
L 633.461274 37.398597 
L 639.211183 37.471978 
L 644.961093 37.483236 
L 650.711003 37.399826 
" style="fill:none;stroke:#7cb5ec;stroke-linecap:square;"/>
   </g>
   <g id="line2d_11">
    <path clip-path="url(#p49103cf86b)" d="M 81.469943 75.523804 
L 87.219853 74.348452 
L 92.969763 74.100713 
L 98.719672 54.182956 
L 104.469582 54.535446 
L 110.219492 54.492632 
L 115.969401 54.57973 
L 121.719311 54.654323 
L 127.469221 43.674756 
L 133.21913 43.632292 
L 138.96904 43.650077 
L 144.71895 43.736831 
L 150.468859 43.762487 
L 156.218769 34.195959 
L 161.968679 34.401373 
L 167.718589 34.474977 
L 173.468498 34.447423 
L 179.218408 34.485874 
L 184.968318 34.135988 
L 190.718227 34.263868 
L 196.468137 34.415313 
L 202.218047 34.450232 
L 207.967956 34.559701 
L 213.717866 34.594228 
L 219.467776 34.695338 
L 225.217686 35.140386 
L 230.967595 35.271828 
L 236.717505 35.311472 
L 242.467415 35.558699 
L 248.217324 35.463797 
L 253.967234 35.792445 
L 259.717144 35.999034 
L 265.467053 36.221697 
L 271.216963 36.323476 
L 276.966873 36.452037 
L 282.716782 36.625124 
L 288.466692 36.992572 
L 294.216602 37.004408 
L 299.966512 37.041069 
L 305.716421 36.29195 
L 311.466331 36.14118 
L 317.216241 36.033537 
L 322.96615 36.025112 
L 328.71606 36.21027 
L 334.46597 36.296813 
L 340.215879 36.579231 
L 345.965789 36.542552 
L 351.715699 36.588223 
L 357.465608 36.542727 
L 363.215518 36.5799 
L 368.965428 76.626745 
L 374.715338 75.793264 
L 380.465247 75.739132 
L 386.215157 55.484989 
L 391.965067 55.556134 
L 397.714976 55.45996 
L 403.464886 55.432195 
L 409.214796 55.461792 
L 414.964705 44.657482 
L 420.714615 44.582119 
L 426.464525 44.582679 
L 432.214434 44.557867 
L 437.964344 44.796886 
L 443.714254 35.382062 
L 449.464164 35.275209 
L 455.214073 35.476338 
L 460.963983 35.553245 
L 466.713893 35.514716 
L 472.463802 35.358582 
L 478.213712 35.263113 
L 483.963622 35.354804 
L 489.713531 35.581106 
L 495.463441 35.629603 
L 501.213351 35.614976 
L 506.96326 35.893723 
L 512.71317 36.062658 
L 518.46308 36.363149 
L 524.21299 36.375625 
L 529.962899 36.38461 
L 535.712809 36.656336 
L 541.462719 36.760243 
L 547.212628 36.873587 
L 552.962538 37.064049 
L 558.712448 37.273236 
L 564.462357 37.559667 
L 570.212267 37.570521 
L 575.962177 37.73881 
L 581.712086 37.975057 
L 587.461996 37.160964 
L 593.211906 36.960323 
L 598.961816 36.914159 
L 604.711725 36.882229 
L 610.461635 36.989836 
L 616.211545 37.209636 
L 621.961454 37.23907 
L 627.711364 37.182998 
L 633.461274 37.280269 
L 639.211183 37.459943 
L 644.961093 37.32791 
L 650.711003 37.320467 
" style="fill:none;stroke:#434348;stroke-linecap:square;"/>
   </g>
   <g id="line2d_12">
    <path clip-path="url(#p49103cf86b)" d="M 81.469943 84.571867 
L 87.219853 83.863789 
L 92.969763 83.913841 
L 98.719672 84.169898 
L 104.469582 83.221228 
L 110.219492 55.491619 
L 115.969401 55.460099 
L 121.719311 56.037023 
L 127.469221 54.791925 
L 133.21913 56.455517 
L 138.96904 55.1534 
L 144.71895 56.271594 
L 150.468859 55.509446 
L 156.218769 56.501206 
L 161.968679 56.633426 
L 167.718589 56.628586 
L 173.468498 56.157792 
L 184.968318 56.351514 
L 190.718227 56.882991 
L 196.468137 56.888301 
L 202.218047 56.723965 
L 207.967956 56.904947 
L 213.717866 56.802342 
L 219.467776 57.086043 
L 225.217686 56.414198 
L 230.967595 55.951595 
L 265.467053 56.918458 
L 271.216963 56.970812 
L 288.466692 57.447494 
L 322.96615 57.8193 
L 340.215879 58.323705 
L 345.965789 58.322114 
L 351.715699 58.716435 
L 357.465608 58.485907 
L 368.965428 58.993693 
L 374.715338 58.86304 
L 380.465247 59.379022 
L 391.965067 59.433654 
L 403.464886 59.973255 
L 409.214796 59.752853 
L 414.964705 59.761127 
L 420.714615 60.169515 
L 426.464525 60.295593 
L 432.214434 60.294617 
L 437.964344 60.670918 
L 443.714254 60.724761 
L 449.464164 60.588521 
L 466.713893 61.333946 
L 472.463802 61.273564 
L 478.213712 61.696994 
L 489.713531 62.127265 
L 495.463441 62.045229 
L 501.213351 62.522665 
L 506.96326 62.528788 
L 512.71317 60.331838 
L 518.46308 86.512296 
L 524.21299 83.72614 
L 529.962899 84.460541 
L 535.712809 84.674218 
L 541.462719 85.137575 
L 547.212628 56.056736 
L 552.962538 56.226852 
L 558.712448 57.02489 
L 564.462357 55.755938 
L 570.212267 57.014024 
L 575.962177 55.791712 
L 581.712086 56.898691 
L 587.461996 56.094518 
L 593.211906 56.632365 
L 610.461635 56.228859 
L 616.211545 56.448201 
L 621.961454 56.481607 
L 627.711364 56.638856 
L 639.211183 56.776379 
L 644.961093 56.895376 
L 650.711003 56.7387 
L 656.460912 56.957234 
L 667.960732 57.084416 
L 679.460551 57.180409 
L 685.210461 57.339279 
L 690.960371 57.200231 
L 696.71028 57.441817 
L 702.46019 57.489061 
L 708.2101 57.683175 
L 713.960009 57.422417 
L 719.709919 57.752566 
L 725.459829 57.733196 
L 736.959648 58.239445 
L 754.209377 58.145332 
L 765.709197 58.4635 
L 771.459106 58.854223 
L 777.209016 58.747779 
L 782.958926 59.206809 
L 788.708835 59.436306 
L 794.458745 59.530377 
L 800.208655 59.443948 
L 811.708474 59.875641 
L 823.208294 60.018648 
L 834.708113 60.629503 
L 840.458023 60.549113 
L 857.707752 61.204342 
L 863.457661 60.764923 
L 869.207571 61.160775 
L 874.957481 61.309092 
L 880.707391 61.310387 
L 886.4573 61.734414 
L 897.95712 61.902005 
L 903.707029 62.282151 
L 909.456939 62.392187 
L 915.206849 62.339893 
L 920.956758 62.714109 
L 932.456578 62.550906 
L 938.206487 62.590423 
L 943.956397 61.995617 
L 949.706307 60.805687 
L 949.706307 60.805687 
" style="fill:none;stroke:#90ed7d;stroke-linecap:square;"/>
   </g>
   <g id="line2d_13">
    <path clip-path="url(#p49103cf86b)" d="M 81.469943 85.340759 
L 87.219853 84.433325 
L 92.969763 84.025546 
L 98.719672 84.336904 
L 104.469582 83.357113 
L 110.219492 55.137731 
L 115.969401 55.314855 
L 121.719311 56.068109 
L 127.469221 54.697251 
L 133.21913 56.26109 
L 138.96904 55.107428 
L 144.71895 55.896505 
L 150.468859 55.426572 
L 156.218769 56.518641 
L 161.968679 56.868364 
L 167.718589 56.535064 
L 173.468498 56.411601 
L 179.218408 56.401687 
L 190.718227 56.879972 
L 196.468137 56.872752 
L 202.218047 57.06234 
L 213.717866 56.908701 
L 219.467776 57.241918 
L 230.967595 56.214425 
L 236.717505 56.5103 
L 259.717144 57.119443 
L 265.467053 57.428034 
L 271.216963 57.309664 
L 276.966873 57.444831 
L 282.716782 57.753157 
L 294.216602 57.783326 
L 299.966512 58.095895 
L 305.716421 57.893886 
L 317.216241 58.2975 
L 322.96615 58.506525 
L 328.71606 58.374745 
L 334.46597 58.500679 
L 340.215879 58.987395 
L 345.965789 58.943316 
L 351.715699 59.284457 
L 363.215518 59.607947 
L 368.965428 59.866082 
L 374.715338 59.627377 
L 386.215157 60.230216 
L 391.965067 60.047106 
L 397.714976 60.393135 
L 403.464886 60.565933 
L 409.214796 60.472079 
L 414.964705 60.889862 
L 426.464525 60.881136 
L 437.964344 61.780675 
L 443.714254 61.538462 
L 449.464164 61.569867 
L 455.214073 61.767133 
L 460.963983 62.163491 
L 472.463802 62.496708 
L 478.213712 62.431999 
L 483.963622 63.197957 
L 489.713531 62.945673 
L 495.463441 63.21867 
L 501.213351 63.207039 
L 506.96326 63.026449 
L 512.71317 60.795581 
L 518.46308 87.198538 
L 524.21299 84.313683 
L 529.962899 85.286109 
L 535.712809 85.478385 
L 541.462719 86.157582 
L 547.212628 57.317908 
L 552.962538 57.398184 
L 558.712448 58.619103 
L 564.462357 56.759625 
L 570.212267 58.394121 
L 575.962177 56.682314 
L 581.712086 58.070167 
L 587.461996 57.282224 
L 593.211906 57.773961 
L 604.711725 58.030234 
L 616.211545 57.687875 
L 621.961454 58.034345 
L 627.711364 57.965104 
L 633.461274 58.182782 
L 639.211183 58.19181 
L 644.961093 58.341706 
L 650.711003 58.165817 
L 656.460912 58.523665 
L 662.210822 58.410971 
L 673.710642 58.714066 
L 679.460551 58.589856 
L 685.210461 58.732478 
L 690.960371 59.042612 
L 708.2101 59.188904 
L 713.960009 59.237979 
L 719.709919 59.103976 
L 725.459829 59.518613 
L 748.459468 60.02934 
L 754.209377 60.358301 
L 759.959287 60.227208 
L 765.709197 60.289976 
L 771.459106 60.658642 
L 777.209016 60.67988 
L 794.458745 61.318288 
L 800.208655 61.235011 
L 805.958564 61.621311 
L 811.708474 61.823145 
L 817.458384 61.818101 
L 823.208294 62.027673 
L 828.958203 61.982317 
L 834.708113 62.669716 
L 840.458023 62.498564 
L 846.207932 62.727337 
L 851.957842 63.171144 
L 857.707752 63.240993 
L 863.457661 63.43988 
L 869.207571 63.388165 
L 874.957481 63.993927 
L 880.707391 63.586613 
L 886.4573 64.205573 
L 892.20721 64.125104 
L 903.707029 65.107487 
L 915.206849 64.868534 
L 920.956758 65.492678 
L 926.706668 65.133697 
L 932.456578 65.026585 
L 938.206487 64.766912 
L 943.956397 64.026646 
L 949.706307 61.115303 
L 949.706307 61.115303 
" style="fill:none;stroke:#f7a35c;stroke-linecap:square;"/>
   </g>
   <g id="line2d_14">
    <path clip-path="url(#p49103cf86b)" d="M 81.469943 84.538177 
L 87.219853 83.89948 
L 92.969763 83.660702 
L 98.719672 84.019266 
L 104.469582 83.140899 
L 110.219492 54.947251 
L 115.969401 55.192417 
L 121.719311 55.956494 
L 127.469221 54.429141 
L 133.21913 56.171792 
L 138.96904 54.923976 
L 144.71895 55.856493 
L 150.468859 55.238877 
L 156.218769 56.17589 
L 161.968679 56.52656 
L 167.718589 56.131733 
L 173.468498 56.004949 
L 184.968318 56.302969 
L 190.718227 56.500784 
L 219.467776 56.733529 
L 230.967595 55.800957 
L 236.717505 55.780581 
L 242.467415 55.889369 
L 248.217324 56.199057 
L 253.967234 56.234247 
L 259.717144 56.669435 
L 271.216963 56.587261 
L 276.966873 56.741539 
L 294.216602 56.927016 
L 299.966512 57.319035 
L 305.716421 57.137161 
L 311.466331 57.377163 
L 317.216241 57.357136 
L 322.96615 57.587031 
L 328.71606 57.410406 
L 334.46597 58.008261 
L 340.215879 57.845877 
L 345.965789 57.888589 
L 351.715699 58.189164 
L 357.465608 58.170994 
L 363.215518 58.526166 
L 368.965428 58.538671 
L 374.715338 58.383098 
L 380.465247 58.690942 
L 397.714976 58.829062 
L 403.464886 59.398428 
L 409.214796 59.089252 
L 420.714615 59.422969 
L 432.214434 59.569629 
L 437.964344 59.90883 
L 449.464164 60.077318 
L 460.963983 60.387187 
L 466.713893 60.71545 
L 472.463802 60.613683 
L 478.213712 60.940794 
L 483.963622 61.126905 
L 495.463441 61.231317 
L 501.213351 61.781362 
L 506.96326 61.74076 
L 512.71317 60.170744 
L 518.46308 86.713618 
L 524.21299 83.732534 
L 529.962899 84.401805 
L 535.712809 84.727693 
L 541.462719 84.909024 
L 547.212628 55.788054 
L 552.962538 56.271197 
L 558.712448 57.236186 
L 564.462357 55.597936 
L 570.212267 57.088429 
L 575.962177 55.372248 
L 581.712086 56.597693 
L 587.461996 55.825522 
L 593.211906 56.36851 
L 598.961816 56.436642 
L 610.461635 56.265803 
L 627.711364 56.706885 
L 633.461274 56.601671 
L 639.211183 56.630539 
L 644.961093 56.948954 
L 650.711003 56.767405 
L 656.460912 56.979027 
L 662.210822 56.766399 
L 667.960732 56.914764 
L 673.710642 57.1874 
L 679.460551 57.03698 
L 690.960371 57.145303 
L 696.71028 57.421489 
L 702.46019 57.306813 
L 719.709919 57.54808 
L 725.459829 57.951092 
L 731.209738 57.615133 
L 736.959648 57.663582 
L 742.709558 57.97283 
L 748.459468 57.919729 
L 754.209377 58.148153 
L 759.959287 58.138058 
L 765.709197 58.425857 
L 771.459106 58.261093 
L 782.958926 58.821136 
L 794.458745 58.836022 
L 800.208655 58.984484 
L 805.958564 59.446979 
L 811.708474 59.383368 
L 817.458384 59.57856 
L 823.208294 59.47375 
L 828.958203 59.532113 
L 834.708113 59.821039 
L 840.458023 59.86108 
L 846.207932 60.015285 
L 851.957842 59.995903 
L 857.707752 60.410143 
L 863.457661 60.556248 
L 869.207571 60.516285 
L 874.957481 60.826962 
L 880.707391 60.574618 
L 892.20721 61.129092 
L 897.95712 61.203564 
L 903.707029 61.753917 
L 909.456939 61.764186 
L 915.206849 61.653777 
L 920.956758 62.062942 
L 926.706668 61.760498 
L 932.456578 61.794946 
L 938.206487 61.60927 
L 943.956397 61.567318 
L 949.706307 60.274632 
L 949.706307 60.274632 
" style="fill:none;stroke:#8085e9;stroke-linecap:square;"/>
   </g>
   <g id="line2d_15">
    <path clip-path="url(#p49103cf86b)" d="M 81.469943 84.751022 
L 87.219853 83.814865 
L 92.969763 83.818203 
L 98.719672 84.127705 
L 104.469582 83.223627 
L 110.219492 55.293412 
L 115.969401 55.348936 
L 121.719311 56.035239 
L 127.469221 54.414942 
L 133.21913 56.163945 
L 138.96904 54.762406 
L 144.71895 55.894371 
L 150.468859 55.283505 
L 156.218769 56.310406 
L 161.968679 56.398692 
L 167.718589 56.083308 
L 173.468498 55.988249 
L 179.218408 56.115876 
L 184.968318 56.079089 
L 190.718227 56.735566 
L 196.468137 56.531616 
L 202.218047 56.453914 
L 213.717866 56.765374 
L 225.217686 56.39971 
L 230.967595 55.82768 
L 236.717505 55.818374 
L 242.467415 56.190644 
L 248.217324 56.3003 
L 253.967234 56.284516 
L 259.717144 56.574539 
L 282.716782 56.898046 
L 288.466692 57.166451 
L 294.216602 57.026891 
L 305.716421 57.257093 
L 311.466331 57.328105 
L 317.216241 57.578304 
L 334.46597 57.74904 
L 340.215879 58.06851 
L 351.715699 58.431287 
L 357.465608 58.348631 
L 368.965428 58.69199 
L 374.715338 58.662851 
L 380.465247 58.91032 
L 386.215157 58.760562 
L 391.965067 58.916859 
L 397.714976 59.338143 
L 409.214796 59.451469 
L 414.964705 59.64213 
L 420.714615 59.455935 
L 426.464525 59.686029 
L 432.214434 60.043816 
L 437.964344 60.099894 
L 443.714254 60.031979 
L 449.464164 60.332657 
L 455.214073 60.455138 
L 460.963983 60.794478 
L 478.213712 60.844071 
L 483.963622 61.386915 
L 489.713531 61.478111 
L 501.213351 61.921857 
L 506.96326 61.447941 
L 512.71317 60.115805 
L 518.46308 86.985718 
L 524.21299 84.40101 
L 529.962899 85.043848 
L 535.712809 85.207871 
L 541.462719 85.63244 
L 547.212628 56.525927 
L 552.962538 56.94236 
L 558.712448 57.845263 
L 564.462357 56.334634 
L 570.212267 57.811905 
L 575.962177 56.149427 
L 581.712086 57.495931 
L 587.461996 56.587436 
L 593.211906 57.273341 
L 610.461635 57.098826 
L 616.211545 57.286979 
L 621.961454 57.235379 
L 633.461274 57.445029 
L 639.211183 57.413938 
L 644.961093 57.730641 
L 656.460912 57.687044 
L 662.210822 57.751728 
L 667.960732 58.013275 
L 685.210461 57.901805 
L 690.960371 58.164654 
L 702.46019 58.211951 
L 708.2101 58.333835 
L 713.960009 58.240988 
L 719.709919 58.502667 
L 731.209738 58.554533 
L 736.959648 58.619995 
L 748.459468 59.047777 
L 754.209377 59.224383 
L 759.959287 59.070172 
L 777.209016 59.834297 
L 782.958926 59.814843 
L 788.708835 60.249694 
L 794.458745 60.284824 
L 800.208655 60.184208 
L 811.708474 60.71645 
L 817.458384 61.13897 
L 823.208294 60.987615 
L 834.708113 61.362989 
L 840.458023 61.195964 
L 851.957842 61.768109 
L 857.707752 61.574363 
L 869.207571 62.339495 
L 880.707391 62.236993 
L 886.4573 62.393042 
L 892.20721 63.076018 
L 897.95712 63.13775 
L 903.707029 63.488209 
L 909.456939 63.489751 
L 915.206849 63.368356 
L 920.956758 63.59059 
L 926.706668 63.680665 
L 932.456578 63.533065 
L 943.956397 62.855465 
L 949.706307 60.697918 
L 949.706307 60.697918 
" style="fill:none;stroke:#f15c80;stroke-linecap:square;"/>
   </g>
   <g id="line2d_16">
    <path clip-path="url(#p49103cf86b)" d="M 38.058125 273.99006 
L 993.118125 273.99006 
" style="fill:none;stroke:#dedede;stroke-linecap:square;stroke-width:2;"/>
   </g>
   <g id="text_20">
    <!-- Picard: Mean Base Quality by Cycle -->
    <g transform="translate(374.241875 19.3575)scale(0.16 -0.16)">
     <defs>
      <path d="M 19.671875 64.796875 
L 19.671875 37.40625 
L 32.078125 37.40625 
Q 38.96875 37.40625 42.71875 40.96875 
Q 46.484375 44.53125 46.484375 51.125 
Q 46.484375 57.671875 42.71875 61.234375 
Q 38.96875 64.796875 32.078125 64.796875 
z
M 9.8125 72.90625 
L 32.078125 72.90625 
Q 44.34375 72.90625 50.609375 67.359375 
Q 56.890625 61.8125 56.890625 51.125 
Q 56.890625 40.328125 50.609375 34.8125 
Q 44.34375 29.296875 32.078125 29.296875 
L 19.671875 29.296875 
L 19.671875 0 
L 9.8125 0 
z
" id="DejaVuSans-80"/>
      <path d="M 45.40625 46.390625 
L 45.40625 75.984375 
L 54.390625 75.984375 
L 54.390625 0 
L 45.40625 0 
L 45.40625 8.203125 
Q 42.578125 3.328125 38.25 0.953125 
Q 33.9375 -1.421875 27.875 -1.421875 
Q 17.96875 -1.421875 11.734375 6.484375 
Q 5.515625 14.40625 5.515625 27.296875 
Q 5.515625 40.1875 11.734375 48.09375 
Q 17.96875 56 27.875 56 
Q 33.9375 56 38.25 53.625 
Q 42.578125 51.265625 45.40625 46.390625 
z
M 14.796875 27.296875 
Q 14.796875 17.390625 18.875 11.75 
Q 22.953125 6.109375 30.078125 6.109375 
Q 37.203125 6.109375 41.296875 11.75 
Q 45.40625 17.390625 45.40625 27.296875 
Q 45.40625 37.203125 41.296875 42.84375 
Q 37.203125 48.484375 30.078125 48.484375 
Q 22.953125 48.484375 18.875 42.84375 
Q 14.796875 37.203125 14.796875 27.296875 
z
" id="DejaVuSans-100"/>
      <path d="M 11.71875 12.40625 
L 22.015625 12.40625 
L 22.015625 0 
L 11.71875 0 
z
M 11.71875 51.703125 
L 22.015625 51.703125 
L 22.015625 39.3125 
L 11.71875 39.3125 
z
" id="DejaVuSans-58"/>
     </defs>
     <use xlink:href="#DejaVuSans-80"/>
     <use x="58.052734" xlink:href="#DejaVuSans-105"/>
     <use x="85.835938" xlink:href="#DejaVuSans-99"/>
     <use x="140.816406" xlink:href="#DejaVuSans-97"/>
     <use x="202.095703" xlink:href="#DejaVuSans-114"/>
     <use x="241.458984" xlink:href="#DejaVuSans-100"/>
     <use x="304.935547" xlink:href="#DejaVuSans-58"/>
     <use x="338.626953" xlink:href="#DejaVuSans-32"/>
     <use x="370.414062" xlink:href="#DejaVuSans-77"/>
     <use x="456.693359" xlink:href="#DejaVuSans-101"/>
     <use x="518.216797" xlink:href="#DejaVuSans-97"/>
     <use x="579.496094" xlink:href="#DejaVuSans-110"/>
     <use x="642.875" xlink:href="#DejaVuSans-32"/>
     <use x="674.662109" xlink:href="#DejaVuSans-66"/>
     <use x="743.265625" xlink:href="#DejaVuSans-97"/>
     <use x="804.544922" xlink:href="#DejaVuSans-115"/>
     <use x="856.644531" xlink:href="#DejaVuSans-101"/>
     <use x="918.167969" xlink:href="#DejaVuSans-32"/>
     <use x="949.955078" xlink:href="#DejaVuSans-81"/>
     <use x="1028.666016" xlink:href="#DejaVuSans-117"/>
     <use x="1092.044922" xlink:href="#DejaVuSans-97"/>
     <use x="1153.324219" xlink:href="#DejaVuSans-108"/>
     <use x="1181.107422" xlink:href="#DejaVuSans-105"/>
     <use x="1208.890625" xlink:href="#DejaVuSans-116"/>
     <use x="1248.099609" xlink:href="#DejaVuSans-121"/>
     <use x="1307.279297" xlink:href="#DejaVuSans-32"/>
     <use x="1339.066406" xlink:href="#DejaVuSans-98"/>
     <use x="1402.542969" xlink:href="#DejaVuSans-121"/>
     <use x="1461.722656" xlink:href="#DejaVuSans-32"/>
     <use x="1493.509766" xlink:href="#DejaVuSans-67"/>
     <use x="1563.333984" xlink:href="#DejaVuSans-121"/>
     <use x="1622.513672" xlink:href="#DejaVuSans-99"/>
     <use x="1677.494141" xlink:href="#DejaVuSans-108"/>
     <use x="1705.277344" xlink:href="#DejaVuSans-101"/>
    </g>
   </g>
   <g id="legend_1">
    <g id="line2d_17">
     <path d="M 45.258125 303.490394 
L 61.258125 303.490394 
" style="fill:none;stroke:#7cb5ec;stroke-linecap:square;"/>
    </g>
    <g id="line2d_18"/>
    <g id="text_21">
     <!-- SPT5_INPUT_R1 -->
     <g transform="translate(67.658125 306.290394)scale(0.08 -0.08)">
      <defs>
       <path d="M 53.515625 70.515625 
L 53.515625 60.890625 
Q 47.90625 63.578125 42.921875 64.890625 
Q 37.9375 66.21875 33.296875 66.21875 
Q 25.25 66.21875 20.875 63.09375 
Q 16.5 59.96875 16.5 54.203125 
Q 16.5 49.359375 19.40625 46.890625 
Q 22.3125 44.4375 30.421875 42.921875 
L 36.375 41.703125 
Q 47.40625 39.59375 52.65625 34.296875 
Q 57.90625 29 57.90625 20.125 
Q 57.90625 9.515625 50.796875 4.046875 
Q 43.703125 -1.421875 29.984375 -1.421875 
Q 24.8125 -1.421875 18.96875 -0.25 
Q 13.140625 0.921875 6.890625 3.21875 
L 6.890625 13.375 
Q 12.890625 10.015625 18.65625 8.296875 
Q 24.421875 6.59375 29.984375 6.59375 
Q 38.421875 6.59375 43.015625 9.90625 
Q 47.609375 13.234375 47.609375 19.390625 
Q 47.609375 24.75 44.3125 27.78125 
Q 41.015625 30.8125 33.5 32.328125 
L 27.484375 33.5 
Q 16.453125 35.6875 11.515625 40.375 
Q 6.59375 45.0625 6.59375 53.421875 
Q 6.59375 63.09375 13.40625 68.65625 
Q 20.21875 74.21875 32.171875 74.21875 
Q 37.3125 74.21875 42.625 73.28125 
Q 47.953125 72.359375 53.515625 70.515625 
z
" id="DejaVuSans-83"/>
       <path d="M -0.296875 72.90625 
L 61.375 72.90625 
L 61.375 64.59375 
L 35.5 64.59375 
L 35.5 0 
L 25.59375 0 
L 25.59375 64.59375 
L -0.296875 64.59375 
z
" id="DejaVuSans-84"/>
       <path d="M 50.984375 -16.609375 
L 50.984375 -23.578125 
L -0.984375 -23.578125 
L -0.984375 -16.609375 
z
" id="DejaVuSans-95"/>
       <path d="M 9.8125 72.90625 
L 19.671875 72.90625 
L 19.671875 0 
L 9.8125 0 
z
" id="DejaVuSans-73"/>
       <path d="M 8.6875 72.90625 
L 18.609375 72.90625 
L 18.609375 28.609375 
Q 18.609375 16.890625 22.84375 11.734375 
Q 27.09375 6.59375 36.625 6.59375 
Q 46.09375 6.59375 50.34375 11.734375 
Q 54.59375 16.890625 54.59375 28.609375 
L 54.59375 72.90625 
L 64.5 72.90625 
L 64.5 27.390625 
Q 64.5 13.140625 57.4375 5.859375 
Q 50.390625 -1.421875 36.625 -1.421875 
Q 22.796875 -1.421875 15.734375 5.859375 
Q 8.6875 13.140625 8.6875 27.390625 
z
" id="DejaVuSans-85"/>
       <path d="M 44.390625 34.1875 
Q 47.5625 33.109375 50.5625 29.59375 
Q 53.5625 26.078125 56.59375 19.921875 
L 66.609375 0 
L 56 0 
L 46.6875 18.703125 
Q 43.0625 26.03125 39.671875 28.421875 
Q 36.28125 30.8125 30.421875 30.8125 
L 19.671875 30.8125 
L 19.671875 0 
L 9.8125 0 
L 9.8125 72.90625 
L 32.078125 72.90625 
Q 44.578125 72.90625 50.734375 67.671875 
Q 56.890625 62.453125 56.890625 51.90625 
Q 56.890625 45.015625 53.6875 40.46875 
Q 50.484375 35.9375 44.390625 34.1875 
z
M 19.671875 64.796875 
L 19.671875 38.921875 
L 32.078125 38.921875 
Q 39.203125 38.921875 42.84375 42.21875 
Q 46.484375 45.515625 46.484375 51.90625 
Q 46.484375 58.296875 42.84375 61.546875 
Q 39.203125 64.796875 32.078125 64.796875 
z
" id="DejaVuSans-82"/>
      </defs>
      <use xlink:href="#DejaVuSans-83"/>
      <use x="63.476562" xlink:href="#DejaVuSans-80"/>
      <use x="123.779297" xlink:href="#DejaVuSans-84"/>
      <use x="184.863281" xlink:href="#DejaVuSans-53"/>
      <use x="248.486328" xlink:href="#DejaVuSans-95"/>
      <use x="298.486328" xlink:href="#DejaVuSans-73"/>
      <use x="327.978516" xlink:href="#DejaVuSans-78"/>
      <use x="402.783203" xlink:href="#DejaVuSans-80"/>
      <use x="463.085938" xlink:href="#DejaVuSans-85"/>
      <use x="536.279297" xlink:href="#DejaVuSans-84"/>
      <use x="597.363281" xlink:href="#DejaVuSans-95"/>
      <use x="647.363281" xlink:href="#DejaVuSans-82"/>
      <use x="716.845703" xlink:href="#DejaVuSans-49"/>
     </g>
    </g>
    <g id="line2d_19">
     <path d="M 45.258125 315.455394 
L 61.258125 315.455394 
" style="fill:none;stroke:#434348;stroke-linecap:square;"/>
    </g>
    <g id="line2d_20"/>
    <g id="text_22">
     <!-- SPT5_INPUT_R2 -->
     <g transform="translate(67.658125 318.255394)scale(0.08 -0.08)">
      <use xlink:href="#DejaVuSans-83"/>
      <use x="63.476562" xlink:href="#DejaVuSans-80"/>
      <use x="123.779297" xlink:href="#DejaVuSans-84"/>
      <use x="184.863281" xlink:href="#DejaVuSans-53"/>
      <use x="248.486328" xlink:href="#DejaVuSans-95"/>
      <use x="298.486328" xlink:href="#DejaVuSans-73"/>
      <use x="327.978516" xlink:href="#DejaVuSans-78"/>
      <use x="402.783203" xlink:href="#DejaVuSans-80"/>
      <use x="463.085938" xlink:href="#DejaVuSans-85"/>
      <use x="536.279297" xlink:href="#DejaVuSans-84"/>
      <use x="597.363281" xlink:href="#DejaVuSans-95"/>
      <use x="647.363281" xlink:href="#DejaVuSans-82"/>
      <use x="716.845703" xlink:href="#DejaVuSans-50"/>
     </g>
    </g>
    <g id="line2d_21">
     <path d="M 270.6025 303.490394 
L 286.6025 303.490394 
" style="fill:none;stroke:#90ed7d;stroke-linecap:square;"/>
    </g>
    <g id="line2d_22"/>
    <g id="text_23">
     <!-- SPT5_T0_R1 -->
     <g transform="translate(293.0025 306.290394)scale(0.08 -0.08)">
      <use xlink:href="#DejaVuSans-83"/>
      <use x="63.476562" xlink:href="#DejaVuSans-80"/>
      <use x="123.779297" xlink:href="#DejaVuSans-84"/>
      <use x="184.863281" xlink:href="#DejaVuSans-53"/>
      <use x="248.486328" xlink:href="#DejaVuSans-95"/>
      <use x="298.486328" xlink:href="#DejaVuSans-84"/>
      <use x="359.570312" xlink:href="#DejaVuSans-48"/>
      <use x="423.193359" xlink:href="#DejaVuSans-95"/>
      <use x="473.193359" xlink:href="#DejaVuSans-82"/>
      <use x="542.675781" xlink:href="#DejaVuSans-49"/>
     </g>
    </g>
    <g id="line2d_23">
     <path d="M 482.013125 303.490394 
L 498.013125 303.490394 
" style="fill:none;stroke:#f7a35c;stroke-linecap:square;"/>
    </g>
    <g id="line2d_24"/>
    <g id="text_24">
     <!-- SPT5_T0_R2 -->
     <g transform="translate(504.413125 306.290394)scale(0.08 -0.08)">
      <use xlink:href="#DejaVuSans-83"/>
      <use x="63.476562" xlink:href="#DejaVuSans-80"/>
      <use x="123.779297" xlink:href="#DejaVuSans-84"/>
      <use x="184.863281" xlink:href="#DejaVuSans-53"/>
      <use x="248.486328" xlink:href="#DejaVuSans-95"/>
      <use x="298.486328" xlink:href="#DejaVuSans-84"/>
      <use x="359.570312" xlink:href="#DejaVuSans-48"/>
      <use x="423.193359" xlink:href="#DejaVuSans-95"/>
      <use x="473.193359" xlink:href="#DejaVuSans-82"/>
      <use x="542.675781" xlink:href="#DejaVuSans-50"/>
     </g>
    </g>
    <g id="line2d_25">
     <path d="M 693.42375 303.490394 
L 709.42375 303.490394 
" style="fill:none;stroke:#8085e9;stroke-linecap:square;"/>
    </g>
    <g id="line2d_26"/>
    <g id="text_25">
     <!-- SPT5_T15_R1 -->
     <g transform="translate(715.82375 306.290394)scale(0.08 -0.08)">
      <use xlink:href="#DejaVuSans-83"/>
      <use x="63.476562" xlink:href="#DejaVuSans-80"/>
      <use x="123.779297" xlink:href="#DejaVuSans-84"/>
      <use x="184.863281" xlink:href="#DejaVuSans-53"/>
      <use x="248.486328" xlink:href="#DejaVuSans-95"/>
      <use x="298.486328" xlink:href="#DejaVuSans-84"/>
      <use x="359.570312" xlink:href="#DejaVuSans-49"/>
      <use x="423.193359" xlink:href="#DejaVuSans-53"/>
      <use x="486.816406" xlink:href="#DejaVuSans-95"/>
      <use x="536.816406" xlink:href="#DejaVuSans-82"/>
      <use x="606.298828" xlink:href="#DejaVuSans-49"/>
     </g>
    </g>
    <g id="line2d_27">
     <path d="M 909.924375 303.490394 
L 925.924375 303.490394 
" style="fill:none;stroke:#f15c80;stroke-linecap:square;"/>
    </g>
    <g id="line2d_28"/>
    <g id="text_26">
     <!-- SPT5_T15_R2 -->
     <g transform="translate(932.324375 306.290394)scale(0.08 -0.08)">
      <use xlink:href="#DejaVuSans-83"/>
      <use x="63.476562" xlink:href="#DejaVuSans-80"/>
      <use x="123.779297" xlink:href="#DejaVuSans-84"/>
      <use x="184.863281" xlink:href="#DejaVuSans-53"/>
      <use x="248.486328" xlink:href="#DejaVuSans-95"/>
      <use x="298.486328" xlink:href="#DejaVuSans-84"/>
      <use x="359.570312" xlink:href="#DejaVuSans-49"/>
      <use x="423.193359" xlink:href="#DejaVuSans-53"/>
      <use x="486.816406" xlink:href="#DejaVuSans-95"/>
      <use x="536.816406" xlink:href="#DejaVuSans-82"/>
      <use x="606.298828" xlink:href="#DejaVuSans-50"/>
     </g>
    </g>
   </g>
  </g>
 </g>
 <defs>
  <clipPath id="p49103cf86b">
   <rect height="242.5072" width="955.06" x="38.058125" y="31.48286"/>
  </clipPath>
 </defs>
</svg>
