<?xml version="1.0" encoding="utf-8" standalone="no"?>
<!DOCTYPE svg PUBLIC "-//W3C//DTD SVG 1.1//EN"
  "http://www.w3.org/Graphics/SVG/1.1/DTD/svg11.dtd">
<!-- Created with matplotlib (https://matplotlib.org/) -->
<svg height="330.541644pt" version="1.1" viewBox="0 0 1000.238125 330.541644" width="1000.238125pt" xmlns="http://www.w3.org/2000/svg" xmlns:xlink="http://www.w3.org/1999/xlink">
 <metadata>
  <rdf:RDF xmlns:cc="http://creativecommons.org/ns#" xmlns:dc="http://purl.org/dc/elements/1.1/" xmlns:rdf="http://www.w3.org/1999/02/22-rdf-syntax-ns#">
   <cc:Work>
    <dc:type rdf:resource="http://purl.org/dc/dcmitype/StillImage"/>
    <dc:date>2021-01-29T19:53:41.437655</dc:date>
    <dc:format>image/svg+xml</dc:format>
    <dc:creator>
     <cc:Agent>
      <dc:title>Matplotlib v3.3.0, https://matplotlib.org/</dc:title>
     </cc:Agent>
    </dc:creator>
   </cc:Work>
  </rdf:RDF>
 </metadata>
 <defs>
  <style type="text/css">*{stroke-linecap:butt;stroke-linejoin:round;}</style>
 </defs>
 <g id="figure_1">
  <g id="axes_1">
   <g id="patch_1">
    <path d="M 48.238125 273.99006 
L 993.038125 273.99006 
L 993.038125 31.48286 
L 48.238125 31.48286 
z
" style="fill:#ffffff;"/>
   </g>
   <g id="matplotlib.axis_1">
    <g id="xtick_1">
     <g id="text_1">
      <!-- 0 -->
      <g transform="translate(77.186458 287.06881)scale(0.08 -0.08)">
       <defs>
        <path d="M 31.78125 66.40625 
Q 24.171875 66.40625 20.328125 58.90625 
Q 16.5 51.421875 16.5 36.375 
Q 16.5 21.390625 20.328125 13.890625 
Q 24.171875 6.390625 31.78125 6.390625 
Q 39.453125 6.390625 43.28125 13.890625 
Q 47.125 21.390625 47.125 36.375 
Q 47.125 51.421875 43.28125 58.90625 
Q 39.453125 66.40625 31.78125 66.40625 
z
M 31.78125 74.21875 
Q 44.046875 74.21875 50.515625 64.515625 
Q 56.984375 54.828125 56.984375 36.375 
Q 56.984375 17.96875 50.515625 8.265625 
Q 44.046875 -1.421875 31.78125 -1.421875 
Q 19.53125 -1.421875 13.0625 8.265625 
Q 6.59375 17.96875 6.59375 36.375 
Q 6.59375 54.828125 13.0625 64.515625 
Q 19.53125 74.21875 31.78125 74.21875 
z
" id="DejaVuSans-48"/>
       </defs>
       <use xlink:href="#DejaVuSans-48"/>
      </g>
     </g>
    </g>
    <g id="xtick_2">
     <g id="text_2">
      <!-- 10 -->
      <g transform="translate(189.16267 287.06881)scale(0.08 -0.08)">
       <defs>
        <path d="M 12.40625 8.296875 
L 28.515625 8.296875 
L 28.515625 63.921875 
L 10.984375 60.40625 
L 10.984375 69.390625 
L 28.421875 72.90625 
L 38.28125 72.90625 
L 38.28125 8.296875 
L 54.390625 8.296875 
L 54.390625 0 
L 12.40625 0 
z
" id="DejaVuSans-49"/>
       </defs>
       <use xlink:href="#DejaVuSans-49"/>
       <use x="63.623047" xlink:href="#DejaVuSans-48"/>
      </g>
     </g>
    </g>
    <g id="xtick_3">
     <g id="text_3">
      <!-- 20 -->
      <g transform="translate(303.683883 287.06881)scale(0.08 -0.08)">
       <defs>
        <path d="M 19.1875 8.296875 
L 53.609375 8.296875 
L 53.609375 0 
L 7.328125 0 
L 7.328125 8.296875 
Q 12.9375 14.109375 22.625 23.890625 
Q 32.328125 33.6875 34.8125 36.53125 
Q 39.546875 41.84375 41.421875 45.53125 
Q 43.3125 49.21875 43.3125 52.78125 
Q 43.3125 58.59375 39.234375 62.25 
Q 35.15625 65.921875 28.609375 65.921875 
Q 23.96875 65.921875 18.8125 64.3125 
Q 13.671875 62.703125 7.8125 59.421875 
L 7.8125 69.390625 
Q 13.765625 71.78125 18.9375 73 
Q 24.125 74.21875 28.421875 74.21875 
Q 39.75 74.21875 46.484375 68.546875 
Q 53.21875 62.890625 53.21875 53.421875 
Q 53.21875 48.921875 51.53125 44.890625 
Q 49.859375 40.875 45.40625 35.40625 
Q 44.1875 33.984375 37.640625 27.21875 
Q 31.109375 20.453125 19.1875 8.296875 
z
" id="DejaVuSans-50"/>
       </defs>
       <use xlink:href="#DejaVuSans-50"/>
       <use x="63.623047" xlink:href="#DejaVuSans-48"/>
      </g>
     </g>
    </g>
    <g id="xtick_4">
     <g id="text_4">
      <!-- 30 -->
      <g transform="translate(418.205095 287.06881)scale(0.08 -0.08)">
       <defs>
        <path d="M 40.578125 39.3125 
Q 47.65625 37.796875 51.625 33 
Q 55.609375 28.21875 55.609375 21.1875 
Q 55.609375 10.40625 48.1875 4.484375 
Q 40.765625 -1.421875 27.09375 -1.421875 
Q 22.515625 -1.421875 17.65625 -0.515625 
Q 12.796875 0.390625 7.625 2.203125 
L 7.625 11.71875 
Q 11.71875 9.328125 16.59375 8.109375 
Q 21.484375 6.890625 26.8125 6.890625 
Q 36.078125 6.890625 40.9375 10.546875 
Q 45.796875 14.203125 45.796875 21.1875 
Q 45.796875 27.640625 41.28125 31.265625 
Q 36.765625 34.90625 28.71875 34.90625 
L 20.21875 34.90625 
L 20.21875 43.015625 
L 29.109375 43.015625 
Q 36.375 43.015625 40.234375 45.921875 
Q 44.09375 48.828125 44.09375 54.296875 
Q 44.09375 59.90625 40.109375 62.90625 
Q 36.140625 65.921875 28.71875 65.921875 
Q 24.65625 65.921875 20.015625 65.03125 
Q 15.375 64.15625 9.8125 62.3125 
L 9.8125 71.09375 
Q 15.4375 72.65625 20.34375 73.4375 
Q 25.25 74.21875 29.59375 74.21875 
Q 40.828125 74.21875 47.359375 69.109375 
Q 53.90625 64.015625 53.90625 55.328125 
Q 53.90625 49.265625 50.4375 45.09375 
Q 46.96875 40.921875 40.578125 39.3125 
z
" id="DejaVuSans-51"/>
       </defs>
       <use xlink:href="#DejaVuSans-51"/>
       <use x="63.623047" xlink:href="#DejaVuSans-48"/>
      </g>
     </g>
    </g>
    <g id="xtick_5">
     <g id="text_5">
      <!-- 40 -->
      <g transform="translate(532.726307 287.06881)scale(0.08 -0.08)">
       <defs>
        <path d="M 37.796875 64.3125 
L 12.890625 25.390625 
L 37.796875 25.390625 
z
M 35.203125 72.90625 
L 47.609375 72.90625 
L 47.609375 25.390625 
L 58.015625 25.390625 
L 58.015625 17.1875 
L 47.609375 17.1875 
L 47.609375 0 
L 37.796875 0 
L 37.796875 17.1875 
L 4.890625 17.1875 
L 4.890625 26.703125 
z
" id="DejaVuSans-52"/>
       </defs>
       <use xlink:href="#DejaVuSans-52"/>
       <use x="63.623047" xlink:href="#DejaVuSans-48"/>
      </g>
     </g>
    </g>
    <g id="xtick_6">
     <g id="text_6">
      <!-- 50 -->
      <g transform="translate(647.247519 287.06881)scale(0.08 -0.08)">
       <defs>
        <path d="M 10.796875 72.90625 
L 49.515625 72.90625 
L 49.515625 64.59375 
L 19.828125 64.59375 
L 19.828125 46.734375 
Q 21.96875 47.46875 24.109375 47.828125 
Q 26.265625 48.1875 28.421875 48.1875 
Q 40.625 48.1875 47.75 41.5 
Q 54.890625 34.8125 54.890625 23.390625 
Q 54.890625 11.625 47.5625 5.09375 
Q 40.234375 -1.421875 26.90625 -1.421875 
Q 22.3125 -1.421875 17.546875 -0.640625 
Q 12.796875 0.140625 7.71875 1.703125 
L 7.71875 11.625 
Q 12.109375 9.234375 16.796875 8.0625 
Q 21.484375 6.890625 26.703125 6.890625 
Q 35.15625 6.890625 40.078125 11.328125 
Q 45.015625 15.765625 45.015625 23.390625 
Q 45.015625 31 40.078125 35.4375 
Q 35.15625 39.890625 26.703125 39.890625 
Q 22.75 39.890625 18.8125 39.015625 
Q 14.890625 38.140625 10.796875 36.28125 
z
" id="DejaVuSans-53"/>
       </defs>
       <use xlink:href="#DejaVuSans-53"/>
       <use x="63.623047" xlink:href="#DejaVuSans-48"/>
      </g>
     </g>
    </g>
    <g id="xtick_7">
     <g id="text_7">
      <!-- 60 -->
      <g transform="translate(761.768731 287.06881)scale(0.08 -0.08)">
       <defs>
        <path d="M 33.015625 40.375 
Q 26.375 40.375 22.484375 35.828125 
Q 18.609375 31.296875 18.609375 23.390625 
Q 18.609375 15.53125 22.484375 10.953125 
Q 26.375 6.390625 33.015625 6.390625 
Q 39.65625 6.390625 43.53125 10.953125 
Q 47.40625 15.53125 47.40625 23.390625 
Q 47.40625 31.296875 43.53125 35.828125 
Q 39.65625 40.375 33.015625 40.375 
z
M 52.59375 71.296875 
L 52.59375 62.3125 
Q 48.875 64.0625 45.09375 64.984375 
Q 41.3125 65.921875 37.59375 65.921875 
Q 27.828125 65.921875 22.671875 59.328125 
Q 17.53125 52.734375 16.796875 39.40625 
Q 19.671875 43.65625 24.015625 45.921875 
Q 28.375 48.1875 33.59375 48.1875 
Q 44.578125 48.1875 50.953125 41.515625 
Q 57.328125 34.859375 57.328125 23.390625 
Q 57.328125 12.15625 50.6875 5.359375 
Q 44.046875 -1.421875 33.015625 -1.421875 
Q 20.359375 -1.421875 13.671875 8.265625 
Q 6.984375 17.96875 6.984375 36.375 
Q 6.984375 53.65625 15.1875 63.9375 
Q 23.390625 74.21875 37.203125 74.21875 
Q 40.921875 74.21875 44.703125 73.484375 
Q 48.484375 72.75 52.59375 71.296875 
z
" id="DejaVuSans-54"/>
       </defs>
       <use xlink:href="#DejaVuSans-54"/>
       <use x="63.623047" xlink:href="#DejaVuSans-48"/>
      </g>
     </g>
    </g>
    <g id="xtick_8">
     <g id="text_8">
      <!-- 70 -->
      <g transform="translate(876.289943 287.06881)scale(0.08 -0.08)">
       <defs>
        <path d="M 8.203125 72.90625 
L 55.078125 72.90625 
L 55.078125 68.703125 
L 28.609375 0 
L 18.3125 0 
L 43.21875 64.59375 
L 8.203125 64.59375 
z
" id="DejaVuSans-55"/>
       </defs>
       <use xlink:href="#DejaVuSans-55"/>
       <use x="63.623047" xlink:href="#DejaVuSans-48"/>
      </g>
     </g>
    </g>
    <g id="text_9">
     <!-- Length Trimmed (bp) -->
     <g transform="translate(468.210781 300.330997)scale(0.1 -0.1)">
      <defs>
       <path d="M 9.8125 72.90625 
L 19.671875 72.90625 
L 19.671875 8.296875 
L 55.171875 8.296875 
L 55.171875 0 
L 9.8125 0 
z
" id="DejaVuSans-76"/>
       <path d="M 56.203125 29.59375 
L 56.203125 25.203125 
L 14.890625 25.203125 
Q 15.484375 15.921875 20.484375 11.0625 
Q 25.484375 6.203125 34.421875 6.203125 
Q 39.59375 6.203125 44.453125 7.46875 
Q 49.3125 8.734375 54.109375 11.28125 
L 54.109375 2.78125 
Q 49.265625 0.734375 44.1875 -0.34375 
Q 39.109375 -1.421875 33.890625 -1.421875 
Q 20.796875 -1.421875 13.15625 6.1875 
Q 5.515625 13.8125 5.515625 26.8125 
Q 5.515625 40.234375 12.765625 48.109375 
Q 20.015625 56 32.328125 56 
Q 43.359375 56 49.78125 48.890625 
Q 56.203125 41.796875 56.203125 29.59375 
z
M 47.21875 32.234375 
Q 47.125 39.59375 43.09375 43.984375 
Q 39.0625 48.390625 32.421875 48.390625 
Q 24.90625 48.390625 20.390625 44.140625 
Q 15.875 39.890625 15.1875 32.171875 
z
" id="DejaVuSans-101"/>
       <path d="M 54.890625 33.015625 
L 54.890625 0 
L 45.90625 0 
L 45.90625 32.71875 
Q 45.90625 40.484375 42.875 44.328125 
Q 39.84375 48.1875 33.796875 48.1875 
Q 26.515625 48.1875 22.3125 43.546875 
Q 18.109375 38.921875 18.109375 30.90625 
L 18.109375 0 
L 9.078125 0 
L 9.078125 54.6875 
L 18.109375 54.6875 
L 18.109375 46.1875 
Q 21.34375 51.125 25.703125 53.5625 
Q 30.078125 56 35.796875 56 
Q 45.21875 56 50.046875 50.171875 
Q 54.890625 44.34375 54.890625 33.015625 
z
" id="DejaVuSans-110"/>
       <path d="M 45.40625 27.984375 
Q 45.40625 37.75 41.375 43.109375 
Q 37.359375 48.484375 30.078125 48.484375 
Q 22.859375 48.484375 18.828125 43.109375 
Q 14.796875 37.75 14.796875 27.984375 
Q 14.796875 18.265625 18.828125 12.890625 
Q 22.859375 7.515625 30.078125 7.515625 
Q 37.359375 7.515625 41.375 12.890625 
Q 45.40625 18.265625 45.40625 27.984375 
z
M 54.390625 6.78125 
Q 54.390625 -7.171875 48.1875 -13.984375 
Q 42 -20.796875 29.203125 -20.796875 
Q 24.46875 -20.796875 20.265625 -20.09375 
Q 16.0625 -19.390625 12.109375 -17.921875 
L 12.109375 -9.1875 
Q 16.0625 -11.328125 19.921875 -12.34375 
Q 23.78125 -13.375 27.78125 -13.375 
Q 36.625 -13.375 41.015625 -8.765625 
Q 45.40625 -4.15625 45.40625 5.171875 
L 45.40625 9.625 
Q 42.625 4.78125 38.28125 2.390625 
Q 33.9375 0 27.875 0 
Q 17.828125 0 11.671875 7.65625 
Q 5.515625 15.328125 5.515625 27.984375 
Q 5.515625 40.671875 11.671875 48.328125 
Q 17.828125 56 27.875 56 
Q 33.9375 56 38.28125 53.609375 
Q 42.625 51.21875 45.40625 46.390625 
L 45.40625 54.6875 
L 54.390625 54.6875 
z
" id="DejaVuSans-103"/>
       <path d="M 18.3125 70.21875 
L 18.3125 54.6875 
L 36.8125 54.6875 
L 36.8125 47.703125 
L 18.3125 47.703125 
L 18.3125 18.015625 
Q 18.3125 11.328125 20.140625 9.421875 
Q 21.96875 7.515625 27.59375 7.515625 
L 36.8125 7.515625 
L 36.8125 0 
L 27.59375 0 
Q 17.1875 0 13.234375 3.875 
Q 9.28125 7.765625 9.28125 18.015625 
L 9.28125 47.703125 
L 2.6875 47.703125 
L 2.6875 54.6875 
L 9.28125 54.6875 
L 9.28125 70.21875 
z
" id="DejaVuSans-116"/>
       <path d="M 54.890625 33.015625 
L 54.890625 0 
L 45.90625 0 
L 45.90625 32.71875 
Q 45.90625 40.484375 42.875 44.328125 
Q 39.84375 48.1875 33.796875 48.1875 
Q 26.515625 48.1875 22.3125 43.546875 
Q 18.109375 38.921875 18.109375 30.90625 
L 18.109375 0 
L 9.078125 0 
L 9.078125 75.984375 
L 18.109375 75.984375 
L 18.109375 46.1875 
Q 21.34375 51.125 25.703125 53.5625 
Q 30.078125 56 35.796875 56 
Q 45.21875 56 50.046875 50.171875 
Q 54.890625 44.34375 54.890625 33.015625 
z
" id="DejaVuSans-104"/>
       <path id="DejaVuSans-32"/>
       <path d="M -0.296875 72.90625 
L 61.375 72.90625 
L 61.375 64.59375 
L 35.5 64.59375 
L 35.5 0 
L 25.59375 0 
L 25.59375 64.59375 
L -0.296875 64.59375 
z
" id="DejaVuSans-84"/>
       <path d="M 41.109375 46.296875 
Q 39.59375 47.171875 37.8125 47.578125 
Q 36.03125 48 33.890625 48 
Q 26.265625 48 22.1875 43.046875 
Q 18.109375 38.09375 18.109375 28.8125 
L 18.109375 0 
L 9.078125 0 
L 9.078125 54.6875 
L 18.109375 54.6875 
L 18.109375 46.1875 
Q 20.953125 51.171875 25.484375 53.578125 
Q 30.03125 56 36.53125 56 
Q 37.453125 56 38.578125 55.875 
Q 39.703125 55.765625 41.0625 55.515625 
z
" id="DejaVuSans-114"/>
       <path d="M 9.421875 54.6875 
L 18.40625 54.6875 
L 18.40625 0 
L 9.421875 0 
z
M 9.421875 75.984375 
L 18.40625 75.984375 
L 18.40625 64.59375 
L 9.421875 64.59375 
z
" id="DejaVuSans-105"/>
       <path d="M 52 44.1875 
Q 55.375 50.25 60.0625 53.125 
Q 64.75 56 71.09375 56 
Q 79.640625 56 84.28125 50.015625 
Q 88.921875 44.046875 88.921875 33.015625 
L 88.921875 0 
L 79.890625 0 
L 79.890625 32.71875 
Q 79.890625 40.578125 77.09375 44.375 
Q 74.3125 48.1875 68.609375 48.1875 
Q 61.625 48.1875 57.5625 43.546875 
Q 53.515625 38.921875 53.515625 30.90625 
L 53.515625 0 
L 44.484375 0 
L 44.484375 32.71875 
Q 44.484375 40.625 41.703125 44.40625 
Q 38.921875 48.1875 33.109375 48.1875 
Q 26.21875 48.1875 22.15625 43.53125 
Q 18.109375 38.875 18.109375 30.90625 
L 18.109375 0 
L 9.078125 0 
L 9.078125 54.6875 
L 18.109375 54.6875 
L 18.109375 46.1875 
Q 21.1875 51.21875 25.484375 53.609375 
Q 29.78125 56 35.6875 56 
Q 41.65625 56 45.828125 52.96875 
Q 50 49.953125 52 44.1875 
z
" id="DejaVuSans-109"/>
       <path d="M 45.40625 46.390625 
L 45.40625 75.984375 
L 54.390625 75.984375 
L 54.390625 0 
L 45.40625 0 
L 45.40625 8.203125 
Q 42.578125 3.328125 38.25 0.953125 
Q 33.9375 -1.421875 27.875 -1.421875 
Q 17.96875 -1.421875 11.734375 6.484375 
Q 5.515625 14.40625 5.515625 27.296875 
Q 5.515625 40.1875 11.734375 48.09375 
Q 17.96875 56 27.875 56 
Q 33.9375 56 38.25 53.625 
Q 42.578125 51.265625 45.40625 46.390625 
z
M 14.796875 27.296875 
Q 14.796875 17.390625 18.875 11.75 
Q 22.953125 6.109375 30.078125 6.109375 
Q 37.203125 6.109375 41.296875 11.75 
Q 45.40625 17.390625 45.40625 27.296875 
Q 45.40625 37.203125 41.296875 42.84375 
Q 37.203125 48.484375 30.078125 48.484375 
Q 22.953125 48.484375 18.875 42.84375 
Q 14.796875 37.203125 14.796875 27.296875 
z
" id="DejaVuSans-100"/>
       <path d="M 31 75.875 
Q 24.46875 64.65625 21.28125 53.65625 
Q 18.109375 42.671875 18.109375 31.390625 
Q 18.109375 20.125 21.3125 9.0625 
Q 24.515625 -2 31 -13.1875 
L 23.1875 -13.1875 
Q 15.875 -1.703125 12.234375 9.375 
Q 8.59375 20.453125 8.59375 31.390625 
Q 8.59375 42.28125 12.203125 53.3125 
Q 15.828125 64.359375 23.1875 75.875 
z
" id="DejaVuSans-40"/>
       <path d="M 48.6875 27.296875 
Q 48.6875 37.203125 44.609375 42.84375 
Q 40.53125 48.484375 33.40625 48.484375 
Q 26.265625 48.484375 22.1875 42.84375 
Q 18.109375 37.203125 18.109375 27.296875 
Q 18.109375 17.390625 22.1875 11.75 
Q 26.265625 6.109375 33.40625 6.109375 
Q 40.53125 6.109375 44.609375 11.75 
Q 48.6875 17.390625 48.6875 27.296875 
z
M 18.109375 46.390625 
Q 20.953125 51.265625 25.265625 53.625 
Q 29.59375 56 35.59375 56 
Q 45.5625 56 51.78125 48.09375 
Q 58.015625 40.1875 58.015625 27.296875 
Q 58.015625 14.40625 51.78125 6.484375 
Q 45.5625 -1.421875 35.59375 -1.421875 
Q 29.59375 -1.421875 25.265625 0.953125 
Q 20.953125 3.328125 18.109375 8.203125 
L 18.109375 0 
L 9.078125 0 
L 9.078125 75.984375 
L 18.109375 75.984375 
z
" id="DejaVuSans-98"/>
       <path d="M 18.109375 8.203125 
L 18.109375 -20.796875 
L 9.078125 -20.796875 
L 9.078125 54.6875 
L 18.109375 54.6875 
L 18.109375 46.390625 
Q 20.953125 51.265625 25.265625 53.625 
Q 29.59375 56 35.59375 56 
Q 45.5625 56 51.78125 48.09375 
Q 58.015625 40.1875 58.015625 27.296875 
Q 58.015625 14.40625 51.78125 6.484375 
Q 45.5625 -1.421875 35.59375 -1.421875 
Q 29.59375 -1.421875 25.265625 0.953125 
Q 20.953125 3.328125 18.109375 8.203125 
z
M 48.6875 27.296875 
Q 48.6875 37.203125 44.609375 42.84375 
Q 40.53125 48.484375 33.40625 48.484375 
Q 26.265625 48.484375 22.1875 42.84375 
Q 18.109375 37.203125 18.109375 27.296875 
Q 18.109375 17.390625 22.1875 11.75 
Q 26.265625 6.109375 33.40625 6.109375 
Q 40.53125 6.109375 44.609375 11.75 
Q 48.6875 17.390625 48.6875 27.296875 
z
" id="DejaVuSans-112"/>
       <path d="M 8.015625 75.875 
L 15.828125 75.875 
Q 23.140625 64.359375 26.78125 53.3125 
Q 30.421875 42.28125 30.421875 31.390625 
Q 30.421875 20.453125 26.78125 9.375 
Q 23.140625 -1.703125 15.828125 -13.1875 
L 8.015625 -13.1875 
Q 14.5 -2 17.703125 9.0625 
Q 20.90625 20.125 20.90625 31.390625 
Q 20.90625 42.671875 17.703125 53.65625 
Q 14.5 64.65625 8.015625 75.875 
z
" id="DejaVuSans-41"/>
      </defs>
      <use xlink:href="#DejaVuSans-76"/>
      <use x="53.962891" xlink:href="#DejaVuSans-101"/>
      <use x="115.486328" xlink:href="#DejaVuSans-110"/>
      <use x="178.865234" xlink:href="#DejaVuSans-103"/>
      <use x="242.341797" xlink:href="#DejaVuSans-116"/>
      <use x="281.550781" xlink:href="#DejaVuSans-104"/>
      <use x="344.929688" xlink:href="#DejaVuSans-32"/>
      <use x="376.716797" xlink:href="#DejaVuSans-84"/>
      <use x="423.050781" xlink:href="#DejaVuSans-114"/>
      <use x="464.164062" xlink:href="#DejaVuSans-105"/>
      <use x="491.947266" xlink:href="#DejaVuSans-109"/>
      <use x="589.359375" xlink:href="#DejaVuSans-109"/>
      <use x="686.771484" xlink:href="#DejaVuSans-101"/>
      <use x="748.294922" xlink:href="#DejaVuSans-100"/>
      <use x="811.771484" xlink:href="#DejaVuSans-32"/>
      <use x="843.558594" xlink:href="#DejaVuSans-40"/>
      <use x="882.572266" xlink:href="#DejaVuSans-98"/>
      <use x="946.048828" xlink:href="#DejaVuSans-112"/>
      <use x="1009.525391" xlink:href="#DejaVuSans-41"/>
     </g>
    </g>
   </g>
   <g id="matplotlib.axis_2">
    <g id="ytick_1">
     <g id="line2d_1">
      <path clip-path="url(#pc48002cf12)" d="M 48.238125 273.99006 
L 993.038125 273.99006 
" style="fill:none;stroke:#dedede;stroke-linecap:square;"/>
     </g>
     <g id="text_10">
      <!-- 0 -->
      <g transform="translate(36.148125 277.029435)scale(0.08 -0.08)">
       <use xlink:href="#DejaVuSans-48"/>
      </g>
     </g>
    </g>
    <g id="ytick_2">
     <g id="line2d_2">
      <path clip-path="url(#pc48002cf12)" d="M 48.238125 241.229812 
L 993.038125 241.229812 
" style="fill:none;stroke:#dedede;stroke-linecap:square;"/>
     </g>
     <g id="text_11">
      <!-- 1000 -->
      <g transform="translate(20.878125 244.269187)scale(0.08 -0.08)">
       <use xlink:href="#DejaVuSans-49"/>
       <use x="63.623047" xlink:href="#DejaVuSans-48"/>
       <use x="127.246094" xlink:href="#DejaVuSans-48"/>
       <use x="190.869141" xlink:href="#DejaVuSans-48"/>
      </g>
     </g>
    </g>
    <g id="ytick_3">
     <g id="line2d_3">
      <path clip-path="url(#pc48002cf12)" d="M 48.238125 208.469564 
L 993.038125 208.469564 
" style="fill:none;stroke:#dedede;stroke-linecap:square;"/>
     </g>
     <g id="text_12">
      <!-- 2000 -->
      <g transform="translate(20.878125 211.508939)scale(0.08 -0.08)">
       <use xlink:href="#DejaVuSans-50"/>
       <use x="63.623047" xlink:href="#DejaVuSans-48"/>
       <use x="127.246094" xlink:href="#DejaVuSans-48"/>
       <use x="190.869141" xlink:href="#DejaVuSans-48"/>
      </g>
     </g>
    </g>
    <g id="ytick_4">
     <g id="line2d_4">
      <path clip-path="url(#pc48002cf12)" d="M 48.238125 175.709316 
L 993.038125 175.709316 
" style="fill:none;stroke:#dedede;stroke-linecap:square;"/>
     </g>
     <g id="text_13">
      <!-- 3000 -->
      <g transform="translate(20.878125 178.748691)scale(0.08 -0.08)">
       <use xlink:href="#DejaVuSans-51"/>
       <use x="63.623047" xlink:href="#DejaVuSans-48"/>
       <use x="127.246094" xlink:href="#DejaVuSans-48"/>
       <use x="190.869141" xlink:href="#DejaVuSans-48"/>
      </g>
     </g>
    </g>
    <g id="ytick_5">
     <g id="line2d_5">
      <path clip-path="url(#pc48002cf12)" d="M 48.238125 142.949067 
L 993.038125 142.949067 
" style="fill:none;stroke:#dedede;stroke-linecap:square;"/>
     </g>
     <g id="text_14">
      <!-- 4000 -->
      <g transform="translate(20.878125 145.988442)scale(0.08 -0.08)">
       <use xlink:href="#DejaVuSans-52"/>
       <use x="63.623047" xlink:href="#DejaVuSans-48"/>
       <use x="127.246094" xlink:href="#DejaVuSans-48"/>
       <use x="190.869141" xlink:href="#DejaVuSans-48"/>
      </g>
     </g>
    </g>
    <g id="ytick_6">
     <g id="line2d_6">
      <path clip-path="url(#pc48002cf12)" d="M 48.238125 110.188819 
L 993.038125 110.188819 
" style="fill:none;stroke:#dedede;stroke-linecap:square;"/>
     </g>
     <g id="text_15">
      <!-- 5000 -->
      <g transform="translate(20.878125 113.228194)scale(0.08 -0.08)">
       <use xlink:href="#DejaVuSans-53"/>
       <use x="63.623047" xlink:href="#DejaVuSans-48"/>
       <use x="127.246094" xlink:href="#DejaVuSans-48"/>
       <use x="190.869141" xlink:href="#DejaVuSans-48"/>
      </g>
     </g>
    </g>
    <g id="ytick_7">
     <g id="line2d_7">
      <path clip-path="url(#pc48002cf12)" d="M 48.238125 77.428571 
L 993.038125 77.428571 
" style="fill:none;stroke:#dedede;stroke-linecap:square;"/>
     </g>
     <g id="text_16">
      <!-- 6000 -->
      <g transform="translate(20.878125 80.467946)scale(0.08 -0.08)">
       <use xlink:href="#DejaVuSans-54"/>
       <use x="63.623047" xlink:href="#DejaVuSans-48"/>
       <use x="127.246094" xlink:href="#DejaVuSans-48"/>
       <use x="190.869141" xlink:href="#DejaVuSans-48"/>
      </g>
     </g>
    </g>
    <g id="ytick_8">
     <g id="line2d_8">
      <path clip-path="url(#pc48002cf12)" d="M 48.238125 44.668323 
L 993.038125 44.668323 
" style="fill:none;stroke:#dedede;stroke-linecap:square;"/>
     </g>
     <g id="text_17">
      <!-- 7000 -->
      <g transform="translate(20.878125 47.707698)scale(0.08 -0.08)">
       <use xlink:href="#DejaVuSans-55"/>
       <use x="63.623047" xlink:href="#DejaVuSans-48"/>
       <use x="127.246094" xlink:href="#DejaVuSans-48"/>
       <use x="190.869141" xlink:href="#DejaVuSans-48"/>
      </g>
     </g>
    </g>
    <g id="text_18">
     <!-- Observed / Expected -->
     <g transform="translate(14.798438 204.985679)rotate(-90)scale(0.1 -0.1)">
      <defs>
       <path d="M 39.40625 66.21875 
Q 28.65625 66.21875 22.328125 58.203125 
Q 16.015625 50.203125 16.015625 36.375 
Q 16.015625 22.609375 22.328125 14.59375 
Q 28.65625 6.59375 39.40625 6.59375 
Q 50.140625 6.59375 56.421875 14.59375 
Q 62.703125 22.609375 62.703125 36.375 
Q 62.703125 50.203125 56.421875 58.203125 
Q 50.140625 66.21875 39.40625 66.21875 
z
M 39.40625 74.21875 
Q 54.734375 74.21875 63.90625 63.9375 
Q 73.09375 53.65625 73.09375 36.375 
Q 73.09375 19.140625 63.90625 8.859375 
Q 54.734375 -1.421875 39.40625 -1.421875 
Q 24.03125 -1.421875 14.8125 8.828125 
Q 5.609375 19.09375 5.609375 36.375 
Q 5.609375 53.65625 14.8125 63.9375 
Q 24.03125 74.21875 39.40625 74.21875 
z
" id="DejaVuSans-79"/>
       <path d="M 44.28125 53.078125 
L 44.28125 44.578125 
Q 40.484375 46.53125 36.375 47.5 
Q 32.28125 48.484375 27.875 48.484375 
Q 21.1875 48.484375 17.84375 46.4375 
Q 14.5 44.390625 14.5 40.28125 
Q 14.5 37.15625 16.890625 35.375 
Q 19.28125 33.59375 26.515625 31.984375 
L 29.59375 31.296875 
Q 39.15625 29.25 43.1875 25.515625 
Q 47.21875 21.78125 47.21875 15.09375 
Q 47.21875 7.46875 41.1875 3.015625 
Q 35.15625 -1.421875 24.609375 -1.421875 
Q 20.21875 -1.421875 15.453125 -0.5625 
Q 10.6875 0.296875 5.421875 2 
L 5.421875 11.28125 
Q 10.40625 8.6875 15.234375 7.390625 
Q 20.0625 6.109375 24.8125 6.109375 
Q 31.15625 6.109375 34.5625 8.28125 
Q 37.984375 10.453125 37.984375 14.40625 
Q 37.984375 18.0625 35.515625 20.015625 
Q 33.0625 21.96875 24.703125 23.78125 
L 21.578125 24.515625 
Q 13.234375 26.265625 9.515625 29.90625 
Q 5.8125 33.546875 5.8125 39.890625 
Q 5.8125 47.609375 11.28125 51.796875 
Q 16.75 56 26.8125 56 
Q 31.78125 56 36.171875 55.265625 
Q 40.578125 54.546875 44.28125 53.078125 
z
" id="DejaVuSans-115"/>
       <path d="M 2.984375 54.6875 
L 12.5 54.6875 
L 29.59375 8.796875 
L 46.6875 54.6875 
L 56.203125 54.6875 
L 35.6875 0 
L 23.484375 0 
z
" id="DejaVuSans-118"/>
       <path d="M 25.390625 72.90625 
L 33.6875 72.90625 
L 8.296875 -9.28125 
L 0 -9.28125 
z
" id="DejaVuSans-47"/>
       <path d="M 9.8125 72.90625 
L 55.90625 72.90625 
L 55.90625 64.59375 
L 19.671875 64.59375 
L 19.671875 43.015625 
L 54.390625 43.015625 
L 54.390625 34.71875 
L 19.671875 34.71875 
L 19.671875 8.296875 
L 56.78125 8.296875 
L 56.78125 0 
L 9.8125 0 
z
" id="DejaVuSans-69"/>
       <path d="M 54.890625 54.6875 
L 35.109375 28.078125 
L 55.90625 0 
L 45.3125 0 
L 29.390625 21.484375 
L 13.484375 0 
L 2.875 0 
L 24.125 28.609375 
L 4.6875 54.6875 
L 15.28125 54.6875 
L 29.78125 35.203125 
L 44.28125 54.6875 
z
" id="DejaVuSans-120"/>
       <path d="M 48.78125 52.59375 
L 48.78125 44.1875 
Q 44.96875 46.296875 41.140625 47.34375 
Q 37.3125 48.390625 33.40625 48.390625 
Q 24.65625 48.390625 19.8125 42.84375 
Q 14.984375 37.3125 14.984375 27.296875 
Q 14.984375 17.28125 19.8125 11.734375 
Q 24.65625 6.203125 33.40625 6.203125 
Q 37.3125 6.203125 41.140625 7.25 
Q 44.96875 8.296875 48.78125 10.40625 
L 48.78125 2.09375 
Q 45.015625 0.34375 40.984375 -0.53125 
Q 36.96875 -1.421875 32.421875 -1.421875 
Q 20.0625 -1.421875 12.78125 6.34375 
Q 5.515625 14.109375 5.515625 27.296875 
Q 5.515625 40.671875 12.859375 48.328125 
Q 20.21875 56 33.015625 56 
Q 37.15625 56 41.109375 55.140625 
Q 45.0625 54.296875 48.78125 52.59375 
z
" id="DejaVuSans-99"/>
      </defs>
      <use xlink:href="#DejaVuSans-79"/>
      <use x="78.710938" xlink:href="#DejaVuSans-98"/>
      <use x="142.1875" xlink:href="#DejaVuSans-115"/>
      <use x="194.287109" xlink:href="#DejaVuSans-101"/>
      <use x="255.810547" xlink:href="#DejaVuSans-114"/>
      <use x="296.923828" xlink:href="#DejaVuSans-118"/>
      <use x="356.103516" xlink:href="#DejaVuSans-101"/>
      <use x="417.626953" xlink:href="#DejaVuSans-100"/>
      <use x="481.103516" xlink:href="#DejaVuSans-32"/>
      <use x="512.890625" xlink:href="#DejaVuSans-47"/>
      <use x="546.582031" xlink:href="#DejaVuSans-32"/>
      <use x="578.369141" xlink:href="#DejaVuSans-69"/>
      <use x="641.552734" xlink:href="#DejaVuSans-120"/>
      <use x="700.732422" xlink:href="#DejaVuSans-112"/>
      <use x="764.208984" xlink:href="#DejaVuSans-101"/>
      <use x="825.732422" xlink:href="#DejaVuSans-99"/>
      <use x="880.712891" xlink:href="#DejaVuSans-116"/>
      <use x="919.921875" xlink:href="#DejaVuSans-101"/>
      <use x="981.445312" xlink:href="#DejaVuSans-100"/>
     </g>
    </g>
   </g>
   <g id="line2d_9">
    <path clip-path="url(#pc48002cf12)" d="M 91.18358 273.953496 
L 102.635701 273.958484 
L 114.087822 273.950307 
L 125.539943 273.946279 
L 136.992064 273.960217 
L 148.444186 273.967235 
L 159.896307 273.968578 
L 171.348428 273.94638 
L 182.800549 273.498656 
L 194.25267 272.67965 
L 285.86964 273.9573 
L 320.226004 273.9573 
L 366.034489 273.9573 
L 514.912064 273.9573 
L 652.337519 273.891779 
" style="fill:none;stroke:#7cb5ec;stroke-linecap:square;"/>
   </g>
   <g id="line2d_10">
    <path clip-path="url(#pc48002cf12)" d="M 91.18358 273.953818 
L 102.635701 273.958359 
L 114.087822 273.950853 
L 125.539943 273.943679 
L 136.992064 273.961223 
L 148.444186 273.963207 
L 159.896307 273.979319 
L 182.800549 273.744358 
L 194.25267 272.352048 
L 205.704792 273.9573 
L 217.156913 273.9573 
L 228.609034 273.9573 
L 274.417519 273.9573 
L 320.226004 273.9573 
L 366.034489 273.9573 
L 492.007822 273.9573 
L 652.337519 273.9573 
" style="fill:none;stroke:#434348;stroke-linecap:square;"/>
   </g>
   <g id="line2d_11">
    <path clip-path="url(#pc48002cf12)" d="M 91.18358 273.953248 
L 102.635701 273.958893 
L 114.087822 273.94819 
L 125.539943 273.944685 
L 136.992064 273.953846 
L 148.444186 273.969921 
L 159.896307 273.973948 
L 171.348428 273.94638 
L 182.800549 273.662458 
L 194.25267 273.334855 
L 205.704792 273.92454 
L 217.156913 273.891779 
L 240.061155 273.9573 
L 514.912064 273.9573 
L 606.529034 273.9573 
L 617.981155 273.9573 
L 652.337519 273.9573 
" style="fill:none;stroke:#90ed7d;stroke-linecap:square;"/>
   </g>
   <g id="line2d_12">
    <path clip-path="url(#pc48002cf12)" d="M 91.18358 273.95332 
L 102.635701 273.958663 
L 114.087822 273.948127 
L 125.539943 273.945944 
L 136.992064 273.958205 
L 148.444186 273.973948 
L 159.896307 273.973948 
L 171.348428 273.96822 
L 182.800549 273.580557 
L 194.25267 273.334855 
L 205.704792 273.9573 
L 217.156913 273.9573 
L 228.609034 273.9573 
L 240.061155 273.9573 
L 492.007822 273.9573 
L 606.529034 273.9573 
L 652.337519 273.9573 
" style="fill:none;stroke:#f7a35c;stroke-linecap:square;"/>
   </g>
   <g id="line2d_13">
    <path clip-path="url(#pc48002cf12)" d="M 91.18358 273.970712 
L 102.635701 273.965907 
L 114.087822 273.958988 
L 125.539943 273.916924 
L 136.992064 273.753328 
L 148.444186 273.012623 
L 159.896307 270.402544 
L 171.348428 258.832985 
L 182.800549 217.724334 
L 194.25267 45.323528 
L 205.704792 250.042319 
L 217.156913 250.730284 
L 228.609034 250.075079 
L 240.061155 248.174984 
L 251.513277 243.883392 
L 262.965398 248.469827 
L 274.417519 247.847382 
L 285.86964 250.23888 
L 297.321761 248.142224 
L 308.773883 244.866199 
L 320.226004 245.292083 
L 331.678125 244.833439 
L 343.130246 252.433817 
L 354.582367 242.671263 
L 366.034489 231.303457 
L 377.48661 232.941469 
L 388.938731 244.538597 
L 400.390852 251.057886 
L 411.842973 247.093896 
L 423.295095 244.342035 
L 434.747216 244.047193 
L 446.199337 242.34366 
L 457.651458 249.812997 
L 469.10358 245.881767 
L 480.555701 226.946344 
L 492.007822 218.002796 
L 503.459943 245.554165 
L 514.912064 257.184053 
L 526.364186 261.901528 
L 537.816307 263.834383 
L 549.268428 267.863894 
L 560.720549 269.763988 
L 572.17267 272.745171 
L 583.624792 273.105533 
L 595.076913 270.386433 
L 606.529034 268.781181 
L 617.981155 268.813941 
L 629.433277 272.745171 
L 640.885398 272.810691 
L 652.337519 273.269335 
L 663.78964 273.891779 
L 675.241761 273.9573 
L 686.693883 273.92454 
L 698.146004 273.9573 
L 709.598125 273.92454 
L 721.050246 273.9573 
L 743.954489 273.9573 
L 755.40661 273.92454 
L 812.667216 273.92454 
L 824.119337 273.92454 
L 847.02358 273.9573 
L 869.927822 273.9573 
L 915.736307 273.9573 
L 950.09267 273.9573 
" style="fill:none;stroke:#8085e9;stroke-linecap:square;"/>
   </g>
   <g id="line2d_14">
    <path clip-path="url(#pc48002cf12)" d="M 91.18358 273.970391 
L 102.635701 273.965833 
L 114.087822 273.9597 
L 125.539943 273.918853 
L 136.992064 273.752322 
L 148.444186 273.024707 
L 159.896307 270.424026 
L 171.348428 258.527223 
L 182.800549 218.54334 
L 194.25267 43.03031 
L 205.704792 250.566483 
L 217.156913 250.369921 
L 228.609034 250.894085 
L 240.061155 248.043943 
L 251.513277 245.554165 
L 262.965398 246.30765 
L 274.417519 248.437066 
L 285.86964 250.107839 
L 297.321761 246.602493 
L 308.773883 231.991422 
L 320.226004 261.279084 
L 331.678125 248.109464 
L 343.130246 248.666388 
L 354.582367 242.34366 
L 366.034489 230.124088 
L 377.48661 237.0365 
L 388.938731 245.881767 
L 400.390852 247.159417 
L 411.842973 240.017683 
L 423.295095 253.351104 
L 434.747216 243.097146 
L 446.199337 244.702398 
L 457.651458 247.847382 
L 469.10358 246.176609 
L 480.555701 227.896391 
L 492.007822 220.394294 
L 503.459943 243.58855 
L 514.912064 257.380614 
L 526.364186 261.803248 
L 537.816307 264.194746 
L 549.268428 268.224256 
L 560.720549 271.041638 
L 572.17267 272.777931 
L 583.624792 272.908972 
L 595.076913 271.958925 
L 606.529034 266.09484 
L 617.981155 268.74842 
L 629.433277 272.71241 
L 640.885398 272.777931 
L 652.337519 273.302095 
L 663.78964 273.826259 
L 698.146004 273.9573 
L 709.598125 273.9573 
L 721.050246 273.92454 
L 732.502367 273.9573 
L 743.954489 273.9573 
L 755.40661 273.9573 
L 812.667216 273.9573 
L 835.571458 273.9573 
L 858.475701 273.859019 
L 927.188428 273.9573 
" style="fill:none;stroke:#f15c80;stroke-linecap:square;"/>
   </g>
   <g id="line2d_15">
    <path clip-path="url(#pc48002cf12)" d="M 91.18358 273.969421 
L 102.635701 273.964056 
L 114.087822 273.959113 
L 125.539943 273.920363 
L 136.992064 273.771435 
L 148.444186 273.192536 
L 159.896307 271.073861 
L 171.348428 260.230756 
L 182.800549 223.78498 
L 194.25267 69.566111 
L 205.704792 252.92522 
L 217.156913 252.794179 
L 228.609034 251.057886 
L 240.061155 253.908028 
L 251.513277 250.533722 
L 262.965398 252.073454 
L 274.417519 250.959606 
L 285.86964 251.647571 
L 297.321761 249.485394 
L 308.773883 248.437066 
L 320.226004 247.192177 
L 331.678125 244.89896 
L 343.130246 252.794179 
L 354.582367 248.109464 
L 366.034489 248.764669 
L 377.48661 244.374796 
L 388.938731 247.159417 
L 400.390852 252.89246 
L 411.842973 247.487019 
L 423.295095 246.864575 
L 434.747216 248.174984 
L 446.199337 242.867824 
L 457.651458 249.976798 
L 469.10358 250.468202 
L 480.555701 249.681956 
L 492.007822 245.783486 
L 503.459943 253.973548 
L 514.912064 252.92522 
L 526.364186 256.79093 
L 537.816307 259.673832 
L 549.268428 265.996559 
L 560.720549 268.617379 
L 572.17267 270.943357 
L 583.624792 273.236574 
L 595.076913 272.548609 
L 606.529034 272.64689 
L 617.981155 271.36924 
L 629.433277 271.664082 
L 640.885398 272.057205 
L 652.337519 272.67965 
L 663.78964 273.760738 
L 675.241761 273.826259 
L 686.693883 273.891779 
L 698.146004 273.9573 
L 721.050246 273.891779 
L 732.502367 273.891779 
L 743.954489 273.92454 
L 755.40661 273.9573 
L 801.215095 273.9573 
L 824.119337 273.9573 
L 847.02358 273.9573 
L 858.475701 273.92454 
L 904.284186 273.9573 
L 950.09267 273.9573 
" style="fill:none;stroke:#e4d354;stroke-linecap:square;"/>
   </g>
   <g id="line2d_16">
    <path clip-path="url(#pc48002cf12)" d="M 91.18358 273.969053 
L 102.635701 273.964512 
L 114.087822 273.957771 
L 125.539943 273.922376 
L 136.992064 273.774788 
L 148.444186 273.181795 
L 159.896307 271.116825 
L 171.348428 260.492838 
L 182.800549 224.194483 
L 194.25267 71.531726 
L 205.704792 253.711466 
L 217.156913 252.695899 
L 228.609034 251.942413 
L 240.061155 253.220063 
L 251.513277 251.713091 
L 262.965398 250.664763 
L 274.417519 251.48377 
L 285.86964 251.942413 
L 297.321761 248.240505 
L 308.773883 236.479576 
L 320.226004 261.311844 
L 331.678125 248.043943 
L 343.130246 249.518155 
L 354.582367 248.535347 
L 366.034489 248.568107 
L 377.48661 245.554165 
L 388.938731 249.845757 
L 400.390852 248.699148 
L 411.842973 242.474701 
L 423.295095 254.759794 
L 434.747216 246.766294 
L 446.199337 247.028376 
L 457.651458 246.045568 
L 469.10358 250.533722 
L 480.555701 250.566483 
L 492.007822 248.764669 
L 503.459943 251.909653 
L 514.912064 252.761419 
L 526.364186 256.135725 
L 537.816307 260.75492 
L 549.268428 265.668957 
L 560.720549 269.763988 
L 572.17267 270.648515 
L 583.624792 272.253767 
L 595.076913 272.67965 
L 606.529034 272.319287 
L 617.981155 271.30372 
L 629.433277 271.696843 
L 640.885398 272.057205 
L 652.337519 272.450328 
L 663.78964 273.727978 
L 675.241761 273.760738 
L 686.693883 273.826259 
L 698.146004 273.9573 
L 709.598125 273.92454 
L 721.050246 273.859019 
L 732.502367 273.826259 
L 743.954489 273.92454 
L 755.40661 273.891779 
L 801.215095 273.9573 
L 824.119337 273.9573 
L 835.571458 273.9573 
L 847.02358 273.9573 
L 858.475701 273.9573 
L 915.736307 273.9573 
" style="fill:none;stroke:#2b908f;stroke-linecap:square;"/>
   </g>
   <g id="line2d_17">
    <path clip-path="url(#pc48002cf12)" d="M 91.18358 273.966437 
L 102.635701 273.962473 
L 114.087822 273.9584 
L 125.539943 273.925479 
L 136.992064 273.789542 
L 148.444186 273.227444 
L 159.896307 271.052379 
L 171.348428 262.021649 
L 182.800549 229.518023 
L 194.25267 106.912794 
L 205.704792 257.970299 
L 217.156913 257.446135 
L 228.609034 257.839258 
L 240.061155 258.592743 
L 251.513277 256.397807 
L 262.965398 257.184053 
L 274.417519 254.530473 
L 285.86964 256.266766 
L 297.321761 257.053012 
L 308.773883 256.234005 
L 320.226004 257.675456 
L 331.678125 254.858075 
L 343.130246 260.361797 
L 354.582367 258.625504 
L 366.034489 259.215188 
L 377.48661 256.397807 
L 388.938731 255.611561 
L 400.390852 261.180803 
L 411.842973 257.937538 
L 423.295095 258.985866 
L 434.747216 260.558358 
L 446.199337 255.873643 
L 457.651458 263.211938 
L 469.10358 260.329037 
L 480.555701 263.670582 
L 492.007822 264.948232 
L 503.459943 263.080897 
L 514.912064 263.736102 
L 526.364186 264.71891 
L 537.816307 268.125976 
L 549.268428 271.565802 
L 560.720549 271.926164 
L 572.17267 273.433136 
L 583.624792 273.695218 
L 595.076913 273.302095 
L 606.529034 273.662458 
L 617.981155 273.367615 
L 629.433277 273.302095 
L 640.885398 273.498656 
L 652.337519 273.826259 
L 686.693883 273.9573 
L 709.598125 273.9573 
L 755.40661 273.9573 
L 824.119337 273.891779 
L 847.02358 273.9573 
L 858.475701 273.793499 
L 869.927822 273.9573 
L 927.188428 273.9573 
" style="fill:none;stroke:#f45b5b;stroke-linecap:square;"/>
   </g>
   <g id="line2d_18">
    <path clip-path="url(#pc48002cf12)" d="M 91.18358 273.966404 
L 102.635701 273.961855 
L 114.087822 273.95708 
L 125.539943 273.925395 
L 136.992064 273.793901 
L 148.444186 273.262353 
L 159.896307 271.052379 
L 171.348428 262.458453 
L 182.800549 229.10852 
L 194.25267 109.206012 
L 205.704792 258.297901 
L 217.156913 257.315094 
L 228.609034 258.297901 
L 240.061155 258.297901 
L 251.513277 257.380614 
L 262.965398 255.087397 
L 274.417519 255.382239 
L 285.86964 256.594368 
L 297.321761 256.037444 
L 308.773883 248.502587 
L 320.226004 267.143168 
L 331.678125 256.79093 
L 343.130246 258.232381 
L 354.582367 258.625504 
L 366.034489 258.953106 
L 377.48661 258.265141 
L 388.938731 257.544415 
L 400.390852 257.184053 
L 411.842973 254.464952 
L 423.295095 263.703342 
L 434.747216 260.034194 
L 446.199337 259.739352 
L 457.651458 259.706592 
L 469.10358 261.770487 
L 480.555701 262.556733 
L 492.007822 264.653389 
L 503.459943 263.703342 
L 514.912064 263.048137 
L 526.364186 265.112033 
L 537.816307 268.191496 
L 549.268428 271.33648 
L 560.720549 272.483089 
L 572.17267 273.400376 
L 583.624792 273.400376 
L 595.076913 273.531417 
L 606.529034 273.334855 
L 617.981155 273.302095 
L 629.433277 273.302095 
L 640.885398 273.465896 
L 652.337519 273.859019 
L 675.241761 273.9573 
L 721.050246 273.9573 
L 755.40661 273.92454 
L 835.571458 273.9573 
L 847.02358 273.9573 
L 858.475701 273.9573 
L 881.379943 273.891779 
L 915.736307 273.9573 
" style="fill:none;stroke:#91e8e1;stroke-linecap:square;"/>
   </g>
   <g id="line2d_19">
    <path clip-path="url(#pc48002cf12)" d="M 91.18358 273.969435 
L 102.635701 273.96457 
L 114.087822 273.959973 
L 125.539943 273.921872 
L 136.992064 273.76674 
L 148.444186 273.089153 
L 159.896307 270.397174 
L 171.348428 258.985866 
L 182.800549 218.789042 
L 194.25267 57.44482 
L 205.704792 252.368296 
L 217.156913 252.401056 
L 228.609034 250.894085 
L 240.061155 252.695899 
L 251.513277 250.009558 
L 262.965398 251.811372 
L 274.417519 249.223312 
L 285.86964 249.649196 
L 297.321761 246.668013 
L 308.773883 247.716341 
L 320.226004 246.700773 
L 331.678125 244.96448 
L 343.130246 253.154542 
L 354.582367 249.256073 
L 366.034489 248.371546 
L 377.48661 244.93172 
L 388.938731 243.195427 
L 400.390852 248.437066 
L 411.842973 243.555789 
L 423.295095 243.883392 
L 434.747216 245.488644 
L 446.199337 240.410806 
L 457.651458 252.597618 
L 469.10358 248.076704 
L 480.555701 253.023501 
L 492.007822 251.942413 
L 503.459943 252.564858 
L 514.912064 255.185678 
L 526.364186 258.625504 
L 537.816307 262.818815 
L 549.268428 268.355297 
L 560.720549 270.419193 
L 572.17267 272.352048 
L 583.624792 273.367615 
L 595.076913 272.352048 
L 606.529034 273.269335 
L 617.981155 272.286527 
L 629.433277 272.221007 
L 640.885398 272.515849 
L 652.337519 273.465896 
L 663.78964 273.891779 
L 675.241761 273.9573 
L 801.215095 273.9573 
L 812.667216 273.9573 
L 824.119337 273.891779 
L 858.475701 273.891779 
" style="fill:none;stroke:#7cb5ec;stroke-linecap:square;"/>
   </g>
   <g id="line2d_20">
    <path clip-path="url(#pc48002cf12)" d="M 91.18358 273.969885 
L 102.635701 273.965597 
L 114.087822 273.958925 
L 125.539943 273.920363 
L 136.992064 273.764393 
L 148.444186 273.090496 
L 159.896307 270.488473 
L 171.348428 258.811145 
L 182.800549 219.444247 
L 194.25267 61.048447 
L 205.704792 252.532097 
L 217.156913 251.942413 
L 228.609034 252.040694 
L 240.061155 252.335536 
L 251.513277 251.156167 
L 262.965398 250.27164 
L 274.417519 250.369921 
L 285.86964 249.550915 
L 297.321761 245.455884 
L 308.773883 236.512336 
L 320.226004 261.148043 
L 331.678125 248.043943 
L 343.130246 249.649196 
L 354.582367 249.092271 
L 366.034489 247.683581 
L 377.48661 246.799054 
L 388.938731 245.226562 
L 400.390852 244.89896 
L 411.842973 238.543471 
L 423.295095 251.745851 
L 434.747216 244.243755 
L 446.199337 246.143849 
L 457.651458 248.207745 
L 469.10358 249.321593 
L 480.555701 252.89246 
L 492.007822 251.451009 
L 503.459943 253.875268 
L 514.912064 254.956356 
L 526.364186 259.378989 
L 537.816307 262.196371 
L 549.268428 268.617379 
L 560.720549 271.533041 
L 572.17267 272.417568 
L 583.624792 272.876212 
L 595.076913 272.810691 
L 606.529034 272.450328 
L 617.981155 272.057205 
L 629.433277 272.122726 
L 640.885398 272.581369 
L 652.337519 273.367615 
L 663.78964 273.92454 
L 686.693883 273.9573 
L 755.40661 273.9573 
L 766.858731 273.9573 
L 801.215095 273.9573 
L 824.119337 273.9573 
L 858.475701 273.826259 
" style="fill:none;stroke:#434348;stroke-linecap:square;"/>
   </g>
   <g id="line2d_21">
    <path clip-path="url(#pc48002cf12)" d="M 48.238125 273.99006 
L 993.038125 273.99006 
" style="fill:none;stroke:#dedede;stroke-linecap:square;stroke-width:2;"/>
   </g>
   <g id="text_19">
    <!-- Cutadapt: Lengths of Trimmed Sequences -->
    <g transform="translate(352.973125 19.3575)scale(0.16 -0.16)">
     <defs>
      <path d="M 64.40625 67.28125 
L 64.40625 56.890625 
Q 59.421875 61.53125 53.78125 63.8125 
Q 48.140625 66.109375 41.796875 66.109375 
Q 29.296875 66.109375 22.65625 58.46875 
Q 16.015625 50.828125 16.015625 36.375 
Q 16.015625 21.96875 22.65625 14.328125 
Q 29.296875 6.6875 41.796875 6.6875 
Q 48.140625 6.6875 53.78125 8.984375 
Q 59.421875 11.28125 64.40625 15.921875 
L 64.40625 5.609375 
Q 59.234375 2.09375 53.4375 0.328125 
Q 47.65625 -1.421875 41.21875 -1.421875 
Q 24.65625 -1.421875 15.125 8.703125 
Q 5.609375 18.84375 5.609375 36.375 
Q 5.609375 53.953125 15.125 64.078125 
Q 24.65625 74.21875 41.21875 74.21875 
Q 47.75 74.21875 53.53125 72.484375 
Q 59.328125 70.75 64.40625 67.28125 
z
" id="DejaVuSans-67"/>
      <path d="M 8.5 21.578125 
L 8.5 54.6875 
L 17.484375 54.6875 
L 17.484375 21.921875 
Q 17.484375 14.15625 20.5 10.265625 
Q 23.53125 6.390625 29.59375 6.390625 
Q 36.859375 6.390625 41.078125 11.03125 
Q 45.3125 15.671875 45.3125 23.6875 
L 45.3125 54.6875 
L 54.296875 54.6875 
L 54.296875 0 
L 45.3125 0 
L 45.3125 8.40625 
Q 42.046875 3.421875 37.71875 1 
Q 33.40625 -1.421875 27.6875 -1.421875 
Q 18.265625 -1.421875 13.375 4.4375 
Q 8.5 10.296875 8.5 21.578125 
z
M 31.109375 56 
z
" id="DejaVuSans-117"/>
      <path d="M 34.28125 27.484375 
Q 23.390625 27.484375 19.1875 25 
Q 14.984375 22.515625 14.984375 16.5 
Q 14.984375 11.71875 18.140625 8.90625 
Q 21.296875 6.109375 26.703125 6.109375 
Q 34.1875 6.109375 38.703125 11.40625 
Q 43.21875 16.703125 43.21875 25.484375 
L 43.21875 27.484375 
z
M 52.203125 31.203125 
L 52.203125 0 
L 43.21875 0 
L 43.21875 8.296875 
Q 40.140625 3.328125 35.546875 0.953125 
Q 30.953125 -1.421875 24.3125 -1.421875 
Q 15.921875 -1.421875 10.953125 3.296875 
Q 6 8.015625 6 15.921875 
Q 6 25.140625 12.171875 29.828125 
Q 18.359375 34.515625 30.609375 34.515625 
L 43.21875 34.515625 
L 43.21875 35.40625 
Q 43.21875 41.609375 39.140625 45 
Q 35.0625 48.390625 27.6875 48.390625 
Q 23 48.390625 18.546875 47.265625 
Q 14.109375 46.140625 10.015625 43.890625 
L 10.015625 52.203125 
Q 14.9375 54.109375 19.578125 55.046875 
Q 24.21875 56 28.609375 56 
Q 40.484375 56 46.34375 49.84375 
Q 52.203125 43.703125 52.203125 31.203125 
z
" id="DejaVuSans-97"/>
      <path d="M 11.71875 12.40625 
L 22.015625 12.40625 
L 22.015625 0 
L 11.71875 0 
z
M 11.71875 51.703125 
L 22.015625 51.703125 
L 22.015625 39.3125 
L 11.71875 39.3125 
z
" id="DejaVuSans-58"/>
      <path d="M 30.609375 48.390625 
Q 23.390625 48.390625 19.1875 42.75 
Q 14.984375 37.109375 14.984375 27.296875 
Q 14.984375 17.484375 19.15625 11.84375 
Q 23.34375 6.203125 30.609375 6.203125 
Q 37.796875 6.203125 41.984375 11.859375 
Q 46.1875 17.53125 46.1875 27.296875 
Q 46.1875 37.015625 41.984375 42.703125 
Q 37.796875 48.390625 30.609375 48.390625 
z
M 30.609375 56 
Q 42.328125 56 49.015625 48.375 
Q 55.71875 40.765625 55.71875 27.296875 
Q 55.71875 13.875 49.015625 6.21875 
Q 42.328125 -1.421875 30.609375 -1.421875 
Q 18.84375 -1.421875 12.171875 6.21875 
Q 5.515625 13.875 5.515625 27.296875 
Q 5.515625 40.765625 12.171875 48.375 
Q 18.84375 56 30.609375 56 
z
" id="DejaVuSans-111"/>
      <path d="M 37.109375 75.984375 
L 37.109375 68.5 
L 28.515625 68.5 
Q 23.6875 68.5 21.796875 66.546875 
Q 19.921875 64.59375 19.921875 59.515625 
L 19.921875 54.6875 
L 34.71875 54.6875 
L 34.71875 47.703125 
L 19.921875 47.703125 
L 19.921875 0 
L 10.890625 0 
L 10.890625 47.703125 
L 2.296875 47.703125 
L 2.296875 54.6875 
L 10.890625 54.6875 
L 10.890625 58.5 
Q 10.890625 67.625 15.140625 71.796875 
Q 19.390625 75.984375 28.609375 75.984375 
z
" id="DejaVuSans-102"/>
      <path d="M 53.515625 70.515625 
L 53.515625 60.890625 
Q 47.90625 63.578125 42.921875 64.890625 
Q 37.9375 66.21875 33.296875 66.21875 
Q 25.25 66.21875 20.875 63.09375 
Q 16.5 59.96875 16.5 54.203125 
Q 16.5 49.359375 19.40625 46.890625 
Q 22.3125 44.4375 30.421875 42.921875 
L 36.375 41.703125 
Q 47.40625 39.59375 52.65625 34.296875 
Q 57.90625 29 57.90625 20.125 
Q 57.90625 9.515625 50.796875 4.046875 
Q 43.703125 -1.421875 29.984375 -1.421875 
Q 24.8125 -1.421875 18.96875 -0.25 
Q 13.140625 0.921875 6.890625 3.21875 
L 6.890625 13.375 
Q 12.890625 10.015625 18.65625 8.296875 
Q 24.421875 6.59375 29.984375 6.59375 
Q 38.421875 6.59375 43.015625 9.90625 
Q 47.609375 13.234375 47.609375 19.390625 
Q 47.609375 24.75 44.3125 27.78125 
Q 41.015625 30.8125 33.5 32.328125 
L 27.484375 33.5 
Q 16.453125 35.6875 11.515625 40.375 
Q 6.59375 45.0625 6.59375 53.421875 
Q 6.59375 63.09375 13.40625 68.65625 
Q 20.21875 74.21875 32.171875 74.21875 
Q 37.3125 74.21875 42.625 73.28125 
Q 47.953125 72.359375 53.515625 70.515625 
z
" id="DejaVuSans-83"/>
      <path d="M 14.796875 27.296875 
Q 14.796875 17.390625 18.875 11.75 
Q 22.953125 6.109375 30.078125 6.109375 
Q 37.203125 6.109375 41.296875 11.75 
Q 45.40625 17.390625 45.40625 27.296875 
Q 45.40625 37.203125 41.296875 42.84375 
Q 37.203125 48.484375 30.078125 48.484375 
Q 22.953125 48.484375 18.875 42.84375 
Q 14.796875 37.203125 14.796875 27.296875 
z
M 45.40625 8.203125 
Q 42.578125 3.328125 38.25 0.953125 
Q 33.9375 -1.421875 27.875 -1.421875 
Q 17.96875 -1.421875 11.734375 6.484375 
Q 5.515625 14.40625 5.515625 27.296875 
Q 5.515625 40.1875 11.734375 48.09375 
Q 17.96875 56 27.875 56 
Q 33.9375 56 38.25 53.625 
Q 42.578125 51.265625 45.40625 46.390625 
L 45.40625 54.6875 
L 54.390625 54.6875 
L 54.390625 -20.796875 
L 45.40625 -20.796875 
z
" id="DejaVuSans-113"/>
     </defs>
     <use xlink:href="#DejaVuSans-67"/>
     <use x="69.824219" xlink:href="#DejaVuSans-117"/>
     <use x="133.203125" xlink:href="#DejaVuSans-116"/>
     <use x="172.412109" xlink:href="#DejaVuSans-97"/>
     <use x="233.691406" xlink:href="#DejaVuSans-100"/>
     <use x="297.167969" xlink:href="#DejaVuSans-97"/>
     <use x="358.447266" xlink:href="#DejaVuSans-112"/>
     <use x="421.923828" xlink:href="#DejaVuSans-116"/>
     <use x="461.132812" xlink:href="#DejaVuSans-58"/>
     <use x="494.824219" xlink:href="#DejaVuSans-32"/>
     <use x="526.611328" xlink:href="#DejaVuSans-76"/>
     <use x="580.574219" xlink:href="#DejaVuSans-101"/>
     <use x="642.097656" xlink:href="#DejaVuSans-110"/>
     <use x="705.476562" xlink:href="#DejaVuSans-103"/>
     <use x="768.953125" xlink:href="#DejaVuSans-116"/>
     <use x="808.162109" xlink:href="#DejaVuSans-104"/>
     <use x="871.541016" xlink:href="#DejaVuSans-115"/>
     <use x="923.640625" xlink:href="#DejaVuSans-32"/>
     <use x="955.427734" xlink:href="#DejaVuSans-111"/>
     <use x="1016.609375" xlink:href="#DejaVuSans-102"/>
     <use x="1051.814453" xlink:href="#DejaVuSans-32"/>
     <use x="1083.601562" xlink:href="#DejaVuSans-84"/>
     <use x="1129.935547" xlink:href="#DejaVuSans-114"/>
     <use x="1171.048828" xlink:href="#DejaVuSans-105"/>
     <use x="1198.832031" xlink:href="#DejaVuSans-109"/>
     <use x="1296.244141" xlink:href="#DejaVuSans-109"/>
     <use x="1393.65625" xlink:href="#DejaVuSans-101"/>
     <use x="1455.179688" xlink:href="#DejaVuSans-100"/>
     <use x="1518.65625" xlink:href="#DejaVuSans-32"/>
     <use x="1550.443359" xlink:href="#DejaVuSans-83"/>
     <use x="1613.919922" xlink:href="#DejaVuSans-101"/>
     <use x="1675.443359" xlink:href="#DejaVuSans-113"/>
     <use x="1738.919922" xlink:href="#DejaVuSans-117"/>
     <use x="1802.298828" xlink:href="#DejaVuSans-101"/>
     <use x="1863.822266" xlink:href="#DejaVuSans-110"/>
     <use x="1927.201172" xlink:href="#DejaVuSans-99"/>
     <use x="1982.181641" xlink:href="#DejaVuSans-101"/>
     <use x="2043.705078" xlink:href="#DejaVuSans-115"/>
    </g>
   </g>
   <g id="legend_1">
    <g id="line2d_22">
     <path d="M 55.438125 291.525394 
L 71.438125 291.525394 
" style="fill:none;stroke:#7cb5ec;stroke-linecap:square;"/>
    </g>
    <g id="line2d_23"/>
    <g id="text_20">
     <!-- SPT5_INPUT_R1_T1_1 - Adapter 1 -->
     <g transform="translate(77.838125 294.325394)scale(0.08 -0.08)">
      <defs>
       <path d="M 19.671875 64.796875 
L 19.671875 37.40625 
L 32.078125 37.40625 
Q 38.96875 37.40625 42.71875 40.96875 
Q 46.484375 44.53125 46.484375 51.125 
Q 46.484375 57.671875 42.71875 61.234375 
Q 38.96875 64.796875 32.078125 64.796875 
z
M 9.8125 72.90625 
L 32.078125 72.90625 
Q 44.34375 72.90625 50.609375 67.359375 
Q 56.890625 61.8125 56.890625 51.125 
Q 56.890625 40.328125 50.609375 34.8125 
Q 44.34375 29.296875 32.078125 29.296875 
L 19.671875 29.296875 
L 19.671875 0 
L 9.8125 0 
z
" id="DejaVuSans-80"/>
       <path d="M 50.984375 -16.609375 
L 50.984375 -23.578125 
L -0.984375 -23.578125 
L -0.984375 -16.609375 
z
" id="DejaVuSans-95"/>
       <path d="M 9.8125 72.90625 
L 19.671875 72.90625 
L 19.671875 0 
L 9.8125 0 
z
" id="DejaVuSans-73"/>
       <path d="M 9.8125 72.90625 
L 23.09375 72.90625 
L 55.421875 11.921875 
L 55.421875 72.90625 
L 64.984375 72.90625 
L 64.984375 0 
L 51.703125 0 
L 19.390625 60.984375 
L 19.390625 0 
L 9.8125 0 
z
" id="DejaVuSans-78"/>
       <path d="M 8.6875 72.90625 
L 18.609375 72.90625 
L 18.609375 28.609375 
Q 18.609375 16.890625 22.84375 11.734375 
Q 27.09375 6.59375 36.625 6.59375 
Q 46.09375 6.59375 50.34375 11.734375 
Q 54.59375 16.890625 54.59375 28.609375 
L 54.59375 72.90625 
L 64.5 72.90625 
L 64.5 27.390625 
Q 64.5 13.140625 57.4375 5.859375 
Q 50.390625 -1.421875 36.625 -1.421875 
Q 22.796875 -1.421875 15.734375 5.859375 
Q 8.6875 13.140625 8.6875 27.390625 
z
" id="DejaVuSans-85"/>
       <path d="M 44.390625 34.1875 
Q 47.5625 33.109375 50.5625 29.59375 
Q 53.5625 26.078125 56.59375 19.921875 
L 66.609375 0 
L 56 0 
L 46.6875 18.703125 
Q 43.0625 26.03125 39.671875 28.421875 
Q 36.28125 30.8125 30.421875 30.8125 
L 19.671875 30.8125 
L 19.671875 0 
L 9.8125 0 
L 9.8125 72.90625 
L 32.078125 72.90625 
Q 44.578125 72.90625 50.734375 67.671875 
Q 56.890625 62.453125 56.890625 51.90625 
Q 56.890625 45.015625 53.6875 40.46875 
Q 50.484375 35.9375 44.390625 34.1875 
z
M 19.671875 64.796875 
L 19.671875 38.921875 
L 32.078125 38.921875 
Q 39.203125 38.921875 42.84375 42.21875 
Q 46.484375 45.515625 46.484375 51.90625 
Q 46.484375 58.296875 42.84375 61.546875 
Q 39.203125 64.796875 32.078125 64.796875 
z
" id="DejaVuSans-82"/>
       <path d="M 4.890625 31.390625 
L 31.203125 31.390625 
L 31.203125 23.390625 
L 4.890625 23.390625 
z
" id="DejaVuSans-45"/>
       <path d="M 34.1875 63.1875 
L 20.796875 26.90625 
L 47.609375 26.90625 
z
M 28.609375 72.90625 
L 39.796875 72.90625 
L 67.578125 0 
L 57.328125 0 
L 50.6875 18.703125 
L 17.828125 18.703125 
L 11.1875 0 
L 0.78125 0 
z
" id="DejaVuSans-65"/>
      </defs>
      <use xlink:href="#DejaVuSans-83"/>
      <use x="63.476562" xlink:href="#DejaVuSans-80"/>
      <use x="123.779297" xlink:href="#DejaVuSans-84"/>
      <use x="184.863281" xlink:href="#DejaVuSans-53"/>
      <use x="248.486328" xlink:href="#DejaVuSans-95"/>
      <use x="298.486328" xlink:href="#DejaVuSans-73"/>
      <use x="327.978516" xlink:href="#DejaVuSans-78"/>
      <use x="402.783203" xlink:href="#DejaVuSans-80"/>
      <use x="463.085938" xlink:href="#DejaVuSans-85"/>
      <use x="536.279297" xlink:href="#DejaVuSans-84"/>
      <use x="597.363281" xlink:href="#DejaVuSans-95"/>
      <use x="647.363281" xlink:href="#DejaVuSans-82"/>
      <use x="716.845703" xlink:href="#DejaVuSans-49"/>
      <use x="780.46875" xlink:href="#DejaVuSans-95"/>
      <use x="830.46875" xlink:href="#DejaVuSans-84"/>
      <use x="891.552734" xlink:href="#DejaVuSans-49"/>
      <use x="955.175781" xlink:href="#DejaVuSans-95"/>
      <use x="1005.175781" xlink:href="#DejaVuSans-49"/>
      <use x="1068.798828" xlink:href="#DejaVuSans-32"/>
      <use x="1100.585938" xlink:href="#DejaVuSans-45"/>
      <use x="1136.669922" xlink:href="#DejaVuSans-32"/>
      <use x="1168.457031" xlink:href="#DejaVuSans-65"/>
      <use x="1235.115234" xlink:href="#DejaVuSans-100"/>
      <use x="1298.591797" xlink:href="#DejaVuSans-97"/>
      <use x="1359.871094" xlink:href="#DejaVuSans-112"/>
      <use x="1423.347656" xlink:href="#DejaVuSans-116"/>
      <use x="1462.556641" xlink:href="#DejaVuSans-101"/>
      <use x="1524.080078" xlink:href="#DejaVuSans-114"/>
      <use x="1565.193359" xlink:href="#DejaVuSans-32"/>
      <use x="1596.980469" xlink:href="#DejaVuSans-49"/>
     </g>
    </g>
    <g id="line2d_24">
     <path d="M 55.438125 303.490394 
L 71.438125 303.490394 
" style="fill:none;stroke:#434348;stroke-linecap:square;"/>
    </g>
    <g id="line2d_25"/>
    <g id="text_21">
     <!-- SPT5_INPUT_R1_T1_2 - Adapter 1 -->
     <g transform="translate(77.838125 306.290394)scale(0.08 -0.08)">
      <use xlink:href="#DejaVuSans-83"/>
      <use x="63.476562" xlink:href="#DejaVuSans-80"/>
      <use x="123.779297" xlink:href="#DejaVuSans-84"/>
      <use x="184.863281" xlink:href="#DejaVuSans-53"/>
      <use x="248.486328" xlink:href="#DejaVuSans-95"/>
      <use x="298.486328" xlink:href="#DejaVuSans-73"/>
      <use x="327.978516" xlink:href="#DejaVuSans-78"/>
      <use x="402.783203" xlink:href="#DejaVuSans-80"/>
      <use x="463.085938" xlink:href="#DejaVuSans-85"/>
      <use x="536.279297" xlink:href="#DejaVuSans-84"/>
      <use x="597.363281" xlink:href="#DejaVuSans-95"/>
      <use x="647.363281" xlink:href="#DejaVuSans-82"/>
      <use x="716.845703" xlink:href="#DejaVuSans-49"/>
      <use x="780.46875" xlink:href="#DejaVuSans-95"/>
      <use x="830.46875" xlink:href="#DejaVuSans-84"/>
      <use x="891.552734" xlink:href="#DejaVuSans-49"/>
      <use x="955.175781" xlink:href="#DejaVuSans-95"/>
      <use x="1005.175781" xlink:href="#DejaVuSans-50"/>
      <use x="1068.798828" xlink:href="#DejaVuSans-32"/>
      <use x="1100.585938" xlink:href="#DejaVuSans-45"/>
      <use x="1136.669922" xlink:href="#DejaVuSans-32"/>
      <use x="1168.457031" xlink:href="#DejaVuSans-65"/>
      <use x="1235.115234" xlink:href="#DejaVuSans-100"/>
      <use x="1298.591797" xlink:href="#DejaVuSans-97"/>
      <use x="1359.871094" xlink:href="#DejaVuSans-112"/>
      <use x="1423.347656" xlink:href="#DejaVuSans-116"/>
      <use x="1462.556641" xlink:href="#DejaVuSans-101"/>
      <use x="1524.080078" xlink:href="#DejaVuSans-114"/>
      <use x="1565.193359" xlink:href="#DejaVuSans-32"/>
      <use x="1596.980469" xlink:href="#DejaVuSans-49"/>
     </g>
    </g>
    <g id="line2d_26">
     <path d="M 55.438125 315.455394 
L 71.438125 315.455394 
" style="fill:none;stroke:#90ed7d;stroke-linecap:square;"/>
    </g>
    <g id="line2d_27"/>
    <g id="text_22">
     <!-- SPT5_INPUT_R2_T1_1 - Adapter 1 -->
     <g transform="translate(77.838125 318.255394)scale(0.08 -0.08)">
      <use xlink:href="#DejaVuSans-83"/>
      <use x="63.476562" xlink:href="#DejaVuSans-80"/>
      <use x="123.779297" xlink:href="#DejaVuSans-84"/>
      <use x="184.863281" xlink:href="#DejaVuSans-53"/>
      <use x="248.486328" xlink:href="#DejaVuSans-95"/>
      <use x="298.486328" xlink:href="#DejaVuSans-73"/>
      <use x="327.978516" xlink:href="#DejaVuSans-78"/>
      <use x="402.783203" xlink:href="#DejaVuSans-80"/>
      <use x="463.085938" xlink:href="#DejaVuSans-85"/>
      <use x="536.279297" xlink:href="#DejaVuSans-84"/>
      <use x="597.363281" xlink:href="#DejaVuSans-95"/>
      <use x="647.363281" xlink:href="#DejaVuSans-82"/>
      <use x="716.845703" xlink:href="#DejaVuSans-50"/>
      <use x="780.46875" xlink:href="#DejaVuSans-95"/>
      <use x="830.46875" xlink:href="#DejaVuSans-84"/>
      <use x="891.552734" xlink:href="#DejaVuSans-49"/>
      <use x="955.175781" xlink:href="#DejaVuSans-95"/>
      <use x="1005.175781" xlink:href="#DejaVuSans-49"/>
      <use x="1068.798828" xlink:href="#DejaVuSans-32"/>
      <use x="1100.585938" xlink:href="#DejaVuSans-45"/>
      <use x="1136.669922" xlink:href="#DejaVuSans-32"/>
      <use x="1168.457031" xlink:href="#DejaVuSans-65"/>
      <use x="1235.115234" xlink:href="#DejaVuSans-100"/>
      <use x="1298.591797" xlink:href="#DejaVuSans-97"/>
      <use x="1359.871094" xlink:href="#DejaVuSans-112"/>
      <use x="1423.347656" xlink:href="#DejaVuSans-116"/>
      <use x="1462.556641" xlink:href="#DejaVuSans-101"/>
      <use x="1524.080078" xlink:href="#DejaVuSans-114"/>
      <use x="1565.193359" xlink:href="#DejaVuSans-32"/>
      <use x="1596.980469" xlink:href="#DejaVuSans-49"/>
     </g>
    </g>
    <g id="line2d_28">
     <path d="M 257.131563 291.525394 
L 273.131563 291.525394 
" style="fill:none;stroke:#f7a35c;stroke-linecap:square;"/>
    </g>
    <g id="line2d_29"/>
    <g id="text_23">
     <!-- SPT5_INPUT_R2_T1_2 - Adapter 1 -->
     <g transform="translate(279.531563 294.325394)scale(0.08 -0.08)">
      <use xlink:href="#DejaVuSans-83"/>
      <use x="63.476562" xlink:href="#DejaVuSans-80"/>
      <use x="123.779297" xlink:href="#DejaVuSans-84"/>
      <use x="184.863281" xlink:href="#DejaVuSans-53"/>
      <use x="248.486328" xlink:href="#DejaVuSans-95"/>
      <use x="298.486328" xlink:href="#DejaVuSans-73"/>
      <use x="327.978516" xlink:href="#DejaVuSans-78"/>
      <use x="402.783203" xlink:href="#DejaVuSans-80"/>
      <use x="463.085938" xlink:href="#DejaVuSans-85"/>
      <use x="536.279297" xlink:href="#DejaVuSans-84"/>
      <use x="597.363281" xlink:href="#DejaVuSans-95"/>
      <use x="647.363281" xlink:href="#DejaVuSans-82"/>
      <use x="716.845703" xlink:href="#DejaVuSans-50"/>
      <use x="780.46875" xlink:href="#DejaVuSans-95"/>
      <use x="830.46875" xlink:href="#DejaVuSans-84"/>
      <use x="891.552734" xlink:href="#DejaVuSans-49"/>
      <use x="955.175781" xlink:href="#DejaVuSans-95"/>
      <use x="1005.175781" xlink:href="#DejaVuSans-50"/>
      <use x="1068.798828" xlink:href="#DejaVuSans-32"/>
      <use x="1100.585938" xlink:href="#DejaVuSans-45"/>
      <use x="1136.669922" xlink:href="#DejaVuSans-32"/>
      <use x="1168.457031" xlink:href="#DejaVuSans-65"/>
      <use x="1235.115234" xlink:href="#DejaVuSans-100"/>
      <use x="1298.591797" xlink:href="#DejaVuSans-97"/>
      <use x="1359.871094" xlink:href="#DejaVuSans-112"/>
      <use x="1423.347656" xlink:href="#DejaVuSans-116"/>
      <use x="1462.556641" xlink:href="#DejaVuSans-101"/>
      <use x="1524.080078" xlink:href="#DejaVuSans-114"/>
      <use x="1565.193359" xlink:href="#DejaVuSans-32"/>
      <use x="1596.980469" xlink:href="#DejaVuSans-49"/>
     </g>
    </g>
    <g id="line2d_30">
     <path d="M 257.131563 303.490394 
L 273.131563 303.490394 
" style="fill:none;stroke:#8085e9;stroke-linecap:square;"/>
    </g>
    <g id="line2d_31"/>
    <g id="text_24">
     <!-- SPT5_T0_R1_T1_1 - Adapter 1 -->
     <g transform="translate(279.531563 306.290394)scale(0.08 -0.08)">
      <use xlink:href="#DejaVuSans-83"/>
      <use x="63.476562" xlink:href="#DejaVuSans-80"/>
      <use x="123.779297" xlink:href="#DejaVuSans-84"/>
      <use x="184.863281" xlink:href="#DejaVuSans-53"/>
      <use x="248.486328" xlink:href="#DejaVuSans-95"/>
      <use x="298.486328" xlink:href="#DejaVuSans-84"/>
      <use x="359.570312" xlink:href="#DejaVuSans-48"/>
      <use x="423.193359" xlink:href="#DejaVuSans-95"/>
      <use x="473.193359" xlink:href="#DejaVuSans-82"/>
      <use x="542.675781" xlink:href="#DejaVuSans-49"/>
      <use x="606.298828" xlink:href="#DejaVuSans-95"/>
      <use x="656.298828" xlink:href="#DejaVuSans-84"/>
      <use x="717.382812" xlink:href="#DejaVuSans-49"/>
      <use x="781.005859" xlink:href="#DejaVuSans-95"/>
      <use x="831.005859" xlink:href="#DejaVuSans-49"/>
      <use x="894.628906" xlink:href="#DejaVuSans-32"/>
      <use x="926.416016" xlink:href="#DejaVuSans-45"/>
      <use x="962.5" xlink:href="#DejaVuSans-32"/>
      <use x="994.287109" xlink:href="#DejaVuSans-65"/>
      <use x="1060.945312" xlink:href="#DejaVuSans-100"/>
      <use x="1124.421875" xlink:href="#DejaVuSans-97"/>
      <use x="1185.701172" xlink:href="#DejaVuSans-112"/>
      <use x="1249.177734" xlink:href="#DejaVuSans-116"/>
      <use x="1288.386719" xlink:href="#DejaVuSans-101"/>
      <use x="1349.910156" xlink:href="#DejaVuSans-114"/>
      <use x="1391.023438" xlink:href="#DejaVuSans-32"/>
      <use x="1422.810547" xlink:href="#DejaVuSans-49"/>
     </g>
    </g>
    <g id="line2d_32">
     <path d="M 257.131563 315.455394 
L 273.131563 315.455394 
" style="fill:none;stroke:#f15c80;stroke-linecap:square;"/>
    </g>
    <g id="line2d_33"/>
    <g id="text_25">
     <!-- SPT5_T0_R1_T1_2 - Adapter 1 -->
     <g transform="translate(279.531563 318.255394)scale(0.08 -0.08)">
      <use xlink:href="#DejaVuSans-83"/>
      <use x="63.476562" xlink:href="#DejaVuSans-80"/>
      <use x="123.779297" xlink:href="#DejaVuSans-84"/>
      <use x="184.863281" xlink:href="#DejaVuSans-53"/>
      <use x="248.486328" xlink:href="#DejaVuSans-95"/>
      <use x="298.486328" xlink:href="#DejaVuSans-84"/>
      <use x="359.570312" xlink:href="#DejaVuSans-48"/>
      <use x="423.193359" xlink:href="#DejaVuSans-95"/>
      <use x="473.193359" xlink:href="#DejaVuSans-82"/>
      <use x="542.675781" xlink:href="#DejaVuSans-49"/>
      <use x="606.298828" xlink:href="#DejaVuSans-95"/>
      <use x="656.298828" xlink:href="#DejaVuSans-84"/>
      <use x="717.382812" xlink:href="#DejaVuSans-49"/>
      <use x="781.005859" xlink:href="#DejaVuSans-95"/>
      <use x="831.005859" xlink:href="#DejaVuSans-50"/>
      <use x="894.628906" xlink:href="#DejaVuSans-32"/>
      <use x="926.416016" xlink:href="#DejaVuSans-45"/>
      <use x="962.5" xlink:href="#DejaVuSans-32"/>
      <use x="994.287109" xlink:href="#DejaVuSans-65"/>
      <use x="1060.945312" xlink:href="#DejaVuSans-100"/>
      <use x="1124.421875" xlink:href="#DejaVuSans-97"/>
      <use x="1185.701172" xlink:href="#DejaVuSans-112"/>
      <use x="1249.177734" xlink:href="#DejaVuSans-116"/>
      <use x="1288.386719" xlink:href="#DejaVuSans-101"/>
      <use x="1349.910156" xlink:href="#DejaVuSans-114"/>
      <use x="1391.023438" xlink:href="#DejaVuSans-32"/>
      <use x="1422.810547" xlink:href="#DejaVuSans-49"/>
     </g>
    </g>
    <g id="line2d_34">
     <path d="M 458.825 291.525394 
L 474.825 291.525394 
" style="fill:none;stroke:#e4d354;stroke-linecap:square;"/>
    </g>
    <g id="line2d_35"/>
    <g id="text_26">
     <!-- SPT5_T0_R2_T1_1 - Adapter 1 -->
     <g transform="translate(481.225 294.325394)scale(0.08 -0.08)">
      <use xlink:href="#DejaVuSans-83"/>
      <use x="63.476562" xlink:href="#DejaVuSans-80"/>
      <use x="123.779297" xlink:href="#DejaVuSans-84"/>
      <use x="184.863281" xlink:href="#DejaVuSans-53"/>
      <use x="248.486328" xlink:href="#DejaVuSans-95"/>
      <use x="298.486328" xlink:href="#DejaVuSans-84"/>
      <use x="359.570312" xlink:href="#DejaVuSans-48"/>
      <use x="423.193359" xlink:href="#DejaVuSans-95"/>
      <use x="473.193359" xlink:href="#DejaVuSans-82"/>
      <use x="542.675781" xlink:href="#DejaVuSans-50"/>
      <use x="606.298828" xlink:href="#DejaVuSans-95"/>
      <use x="656.298828" xlink:href="#DejaVuSans-84"/>
      <use x="717.382812" xlink:href="#DejaVuSans-49"/>
      <use x="781.005859" xlink:href="#DejaVuSans-95"/>
      <use x="831.005859" xlink:href="#DejaVuSans-49"/>
      <use x="894.628906" xlink:href="#DejaVuSans-32"/>
      <use x="926.416016" xlink:href="#DejaVuSans-45"/>
      <use x="962.5" xlink:href="#DejaVuSans-32"/>
      <use x="994.287109" xlink:href="#DejaVuSans-65"/>
      <use x="1060.945312" xlink:href="#DejaVuSans-100"/>
      <use x="1124.421875" xlink:href="#DejaVuSans-97"/>
      <use x="1185.701172" xlink:href="#DejaVuSans-112"/>
      <use x="1249.177734" xlink:href="#DejaVuSans-116"/>
      <use x="1288.386719" xlink:href="#DejaVuSans-101"/>
      <use x="1349.910156" xlink:href="#DejaVuSans-114"/>
      <use x="1391.023438" xlink:href="#DejaVuSans-32"/>
      <use x="1422.810547" xlink:href="#DejaVuSans-49"/>
     </g>
    </g>
    <g id="line2d_36">
     <path d="M 458.825 303.490394 
L 474.825 303.490394 
" style="fill:none;stroke:#2b908f;stroke-linecap:square;"/>
    </g>
    <g id="line2d_37"/>
    <g id="text_27">
     <!-- SPT5_T0_R2_T1_2 - Adapter 1 -->
     <g transform="translate(481.225 306.290394)scale(0.08 -0.08)">
      <use xlink:href="#DejaVuSans-83"/>
      <use x="63.476562" xlink:href="#DejaVuSans-80"/>
      <use x="123.779297" xlink:href="#DejaVuSans-84"/>
      <use x="184.863281" xlink:href="#DejaVuSans-53"/>
      <use x="248.486328" xlink:href="#DejaVuSans-95"/>
      <use x="298.486328" xlink:href="#DejaVuSans-84"/>
      <use x="359.570312" xlink:href="#DejaVuSans-48"/>
      <use x="423.193359" xlink:href="#DejaVuSans-95"/>
      <use x="473.193359" xlink:href="#DejaVuSans-82"/>
      <use x="542.675781" xlink:href="#DejaVuSans-50"/>
      <use x="606.298828" xlink:href="#DejaVuSans-95"/>
      <use x="656.298828" xlink:href="#DejaVuSans-84"/>
      <use x="717.382812" xlink:href="#DejaVuSans-49"/>
      <use x="781.005859" xlink:href="#DejaVuSans-95"/>
      <use x="831.005859" xlink:href="#DejaVuSans-50"/>
      <use x="894.628906" xlink:href="#DejaVuSans-32"/>
      <use x="926.416016" xlink:href="#DejaVuSans-45"/>
      <use x="962.5" xlink:href="#DejaVuSans-32"/>
      <use x="994.287109" xlink:href="#DejaVuSans-65"/>
      <use x="1060.945312" xlink:href="#DejaVuSans-100"/>
      <use x="1124.421875" xlink:href="#DejaVuSans-97"/>
      <use x="1185.701172" xlink:href="#DejaVuSans-112"/>
      <use x="1249.177734" xlink:href="#DejaVuSans-116"/>
      <use x="1288.386719" xlink:href="#DejaVuSans-101"/>
      <use x="1349.910156" xlink:href="#DejaVuSans-114"/>
      <use x="1391.023438" xlink:href="#DejaVuSans-32"/>
      <use x="1422.810547" xlink:href="#DejaVuSans-49"/>
     </g>
    </g>
    <g id="line2d_38">
     <path d="M 646.584688 291.525394 
L 662.584688 291.525394 
" style="fill:none;stroke:#f45b5b;stroke-linecap:square;"/>
    </g>
    <g id="line2d_39"/>
    <g id="text_28">
     <!-- SPT5_T15_R1_T1_1 - Adapter 1 -->
     <g transform="translate(668.984688 294.325394)scale(0.08 -0.08)">
      <use xlink:href="#DejaVuSans-83"/>
      <use x="63.476562" xlink:href="#DejaVuSans-80"/>
      <use x="123.779297" xlink:href="#DejaVuSans-84"/>
      <use x="184.863281" xlink:href="#DejaVuSans-53"/>
      <use x="248.486328" xlink:href="#DejaVuSans-95"/>
      <use x="298.486328" xlink:href="#DejaVuSans-84"/>
      <use x="359.570312" xlink:href="#DejaVuSans-49"/>
      <use x="423.193359" xlink:href="#DejaVuSans-53"/>
      <use x="486.816406" xlink:href="#DejaVuSans-95"/>
      <use x="536.816406" xlink:href="#DejaVuSans-82"/>
      <use x="606.298828" xlink:href="#DejaVuSans-49"/>
      <use x="669.921875" xlink:href="#DejaVuSans-95"/>
      <use x="719.921875" xlink:href="#DejaVuSans-84"/>
      <use x="781.005859" xlink:href="#DejaVuSans-49"/>
      <use x="844.628906" xlink:href="#DejaVuSans-95"/>
      <use x="894.628906" xlink:href="#DejaVuSans-49"/>
      <use x="958.251953" xlink:href="#DejaVuSans-32"/>
      <use x="990.039062" xlink:href="#DejaVuSans-45"/>
      <use x="1026.123047" xlink:href="#DejaVuSans-32"/>
      <use x="1057.910156" xlink:href="#DejaVuSans-65"/>
      <use x="1124.568359" xlink:href="#DejaVuSans-100"/>
      <use x="1188.044922" xlink:href="#DejaVuSans-97"/>
      <use x="1249.324219" xlink:href="#DejaVuSans-112"/>
      <use x="1312.800781" xlink:href="#DejaVuSans-116"/>
      <use x="1352.009766" xlink:href="#DejaVuSans-101"/>
      <use x="1413.533203" xlink:href="#DejaVuSans-114"/>
      <use x="1454.646484" xlink:href="#DejaVuSans-32"/>
      <use x="1486.433594" xlink:href="#DejaVuSans-49"/>
     </g>
    </g>
    <g id="line2d_40">
     <path d="M 646.584688 303.490394 
L 662.584688 303.490394 
" style="fill:none;stroke:#91e8e1;stroke-linecap:square;"/>
    </g>
    <g id="line2d_41"/>
    <g id="text_29">
     <!-- SPT5_T15_R1_T1_2 - Adapter 1 -->
     <g transform="translate(668.984688 306.290394)scale(0.08 -0.08)">
      <use xlink:href="#DejaVuSans-83"/>
      <use x="63.476562" xlink:href="#DejaVuSans-80"/>
      <use x="123.779297" xlink:href="#DejaVuSans-84"/>
      <use x="184.863281" xlink:href="#DejaVuSans-53"/>
      <use x="248.486328" xlink:href="#DejaVuSans-95"/>
      <use x="298.486328" xlink:href="#DejaVuSans-84"/>
      <use x="359.570312" xlink:href="#DejaVuSans-49"/>
      <use x="423.193359" xlink:href="#DejaVuSans-53"/>
      <use x="486.816406" xlink:href="#DejaVuSans-95"/>
      <use x="536.816406" xlink:href="#DejaVuSans-82"/>
      <use x="606.298828" xlink:href="#DejaVuSans-49"/>
      <use x="669.921875" xlink:href="#DejaVuSans-95"/>
      <use x="719.921875" xlink:href="#DejaVuSans-84"/>
      <use x="781.005859" xlink:href="#DejaVuSans-49"/>
      <use x="844.628906" xlink:href="#DejaVuSans-95"/>
      <use x="894.628906" xlink:href="#DejaVuSans-50"/>
      <use x="958.251953" xlink:href="#DejaVuSans-32"/>
      <use x="990.039062" xlink:href="#DejaVuSans-45"/>
      <use x="1026.123047" xlink:href="#DejaVuSans-32"/>
      <use x="1057.910156" xlink:href="#DejaVuSans-65"/>
      <use x="1124.568359" xlink:href="#DejaVuSans-100"/>
      <use x="1188.044922" xlink:href="#DejaVuSans-97"/>
      <use x="1249.324219" xlink:href="#DejaVuSans-112"/>
      <use x="1312.800781" xlink:href="#DejaVuSans-116"/>
      <use x="1352.009766" xlink:href="#DejaVuSans-101"/>
      <use x="1413.533203" xlink:href="#DejaVuSans-114"/>
      <use x="1454.646484" xlink:href="#DejaVuSans-32"/>
      <use x="1486.433594" xlink:href="#DejaVuSans-49"/>
     </g>
    </g>
    <g id="line2d_42">
     <path d="M 839.434375 291.525394 
L 855.434375 291.525394 
" style="fill:none;stroke:#7cb5ec;stroke-linecap:square;"/>
    </g>
    <g id="line2d_43"/>
    <g id="text_30">
     <!-- SPT5_T15_R2_T1_1 - Adapter 1 -->
     <g transform="translate(861.834375 294.325394)scale(0.08 -0.08)">
      <use xlink:href="#DejaVuSans-83"/>
      <use x="63.476562" xlink:href="#DejaVuSans-80"/>
      <use x="123.779297" xlink:href="#DejaVuSans-84"/>
      <use x="184.863281" xlink:href="#DejaVuSans-53"/>
      <use x="248.486328" xlink:href="#DejaVuSans-95"/>
      <use x="298.486328" xlink:href="#DejaVuSans-84"/>
      <use x="359.570312" xlink:href="#DejaVuSans-49"/>
      <use x="423.193359" xlink:href="#DejaVuSans-53"/>
      <use x="486.816406" xlink:href="#DejaVuSans-95"/>
      <use x="536.816406" xlink:href="#DejaVuSans-82"/>
      <use x="606.298828" xlink:href="#DejaVuSans-50"/>
      <use x="669.921875" xlink:href="#DejaVuSans-95"/>
      <use x="719.921875" xlink:href="#DejaVuSans-84"/>
      <use x="781.005859" xlink:href="#DejaVuSans-49"/>
      <use x="844.628906" xlink:href="#DejaVuSans-95"/>
      <use x="894.628906" xlink:href="#DejaVuSans-49"/>
      <use x="958.251953" xlink:href="#DejaVuSans-32"/>
      <use x="990.039062" xlink:href="#DejaVuSans-45"/>
      <use x="1026.123047" xlink:href="#DejaVuSans-32"/>
      <use x="1057.910156" xlink:href="#DejaVuSans-65"/>
      <use x="1124.568359" xlink:href="#DejaVuSans-100"/>
      <use x="1188.044922" xlink:href="#DejaVuSans-97"/>
      <use x="1249.324219" xlink:href="#DejaVuSans-112"/>
      <use x="1312.800781" xlink:href="#DejaVuSans-116"/>
      <use x="1352.009766" xlink:href="#DejaVuSans-101"/>
      <use x="1413.533203" xlink:href="#DejaVuSans-114"/>
      <use x="1454.646484" xlink:href="#DejaVuSans-32"/>
      <use x="1486.433594" xlink:href="#DejaVuSans-49"/>
     </g>
    </g>
    <g id="line2d_44">
     <path d="M 839.434375 303.490394 
L 855.434375 303.490394 
" style="fill:none;stroke:#434348;stroke-linecap:square;"/>
    </g>
    <g id="line2d_45"/>
    <g id="text_31">
     <!-- SPT5_T15_R2_T1_2 - Adapter 1 -->
     <g transform="translate(861.834375 306.290394)scale(0.08 -0.08)">
      <use xlink:href="#DejaVuSans-83"/>
      <use x="63.476562" xlink:href="#DejaVuSans-80"/>
      <use x="123.779297" xlink:href="#DejaVuSans-84"/>
      <use x="184.863281" xlink:href="#DejaVuSans-53"/>
      <use x="248.486328" xlink:href="#DejaVuSans-95"/>
      <use x="298.486328" xlink:href="#DejaVuSans-84"/>
      <use x="359.570312" xlink:href="#DejaVuSans-49"/>
      <use x="423.193359" xlink:href="#DejaVuSans-53"/>
      <use x="486.816406" xlink:href="#DejaVuSans-95"/>
      <use x="536.816406" xlink:href="#DejaVuSans-82"/>
      <use x="606.298828" xlink:href="#DejaVuSans-50"/>
      <use x="669.921875" xlink:href="#DejaVuSans-95"/>
      <use x="719.921875" xlink:href="#DejaVuSans-84"/>
      <use x="781.005859" xlink:href="#DejaVuSans-49"/>
      <use x="844.628906" xlink:href="#DejaVuSans-95"/>
      <use x="894.628906" xlink:href="#DejaVuSans-50"/>
      <use x="958.251953" xlink:href="#DejaVuSans-32"/>
      <use x="990.039062" xlink:href="#DejaVuSans-45"/>
      <use x="1026.123047" xlink:href="#DejaVuSans-32"/>
      <use x="1057.910156" xlink:href="#DejaVuSans-65"/>
      <use x="1124.568359" xlink:href="#DejaVuSans-100"/>
      <use x="1188.044922" xlink:href="#DejaVuSans-97"/>
      <use x="1249.324219" xlink:href="#DejaVuSans-112"/>
      <use x="1312.800781" xlink:href="#DejaVuSans-116"/>
      <use x="1352.009766" xlink:href="#DejaVuSans-101"/>
      <use x="1413.533203" xlink:href="#DejaVuSans-114"/>
      <use x="1454.646484" xlink:href="#DejaVuSans-32"/>
      <use x="1486.433594" xlink:href="#DejaVuSans-49"/>
     </g>
    </g>
   </g>
  </g>
 </g>
 <defs>
  <clipPath id="pc48002cf12">
   <rect height="242.5072" width="944.8" x="48.238125" y="31.48286"/>
  </clipPath>
 </defs>
</svg>
