<?xml version="1.0" encoding="utf-8" standalone="no"?>
<!DOCTYPE svg PUBLIC "-//W3C//DTD SVG 1.1//EN"
  "http://www.w3.org/Graphics/SVG/1.1/DTD/svg11.dtd">
<!-- Created with matplotlib (https://matplotlib.org/) -->
<svg height="330.541644pt" version="1.1" viewBox="0 0 1000.198125 330.541644" width="1000.198125pt" xmlns="http://www.w3.org/2000/svg" xmlns:xlink="http://www.w3.org/1999/xlink">
 <metadata>
  <rdf:RDF xmlns:cc="http://creativecommons.org/ns#" xmlns:dc="http://purl.org/dc/elements/1.1/" xmlns:rdf="http://www.w3.org/1999/02/22-rdf-syntax-ns#">
   <cc:Work>
    <dc:type rdf:resource="http://purl.org/dc/dcmitype/StillImage"/>
    <dc:date>2021-01-29T22:05:37.449041</dc:date>
    <dc:format>image/svg+xml</dc:format>
    <dc:creator>
     <cc:Agent>
      <dc:title>Matplotlib v3.3.0, https://matplotlib.org/</dc:title>
     </cc:Agent>
    </dc:creator>
   </cc:Work>
  </rdf:RDF>
 </metadata>
 <defs>
  <style type="text/css">*{stroke-linecap:butt;stroke-linejoin:round;}</style>
 </defs>
 <g id="figure_1">
  <g id="axes_1">
   <g id="patch_1">
    <path d="M 53.328125 273.99006 
L 992.998125 273.99006 
L 992.998125 31.48286 
L 53.328125 31.48286 
z
" style="fill:#ffffff;"/>
   </g>
   <g id="matplotlib.axis_1">
    <g id="xtick_1">
     <g id="text_1">
      <!-- 0 -->
      <g transform="translate(82.105458 287.06881)scale(0.08 -0.08)">
       <defs>
        <path d="M 31.78125 66.40625 
Q 24.171875 66.40625 20.328125 58.90625 
Q 16.5 51.421875 16.5 36.375 
Q 16.5 21.390625 20.328125 13.890625 
Q 24.171875 6.390625 31.78125 6.390625 
Q 39.453125 6.390625 43.28125 13.890625 
Q 47.125 21.390625 47.125 36.375 
Q 47.125 51.421875 43.28125 58.90625 
Q 39.453125 66.40625 31.78125 66.40625 
z
M 31.78125 74.21875 
Q 44.046875 74.21875 50.515625 64.515625 
Q 56.984375 54.828125 56.984375 36.375 
Q 56.984375 17.96875 50.515625 8.265625 
Q 44.046875 -1.421875 31.78125 -1.421875 
Q 19.53125 -1.421875 13.0625 8.265625 
Q 6.59375 17.96875 6.59375 36.375 
Q 6.59375 54.828125 13.0625 64.515625 
Q 19.53125 74.21875 31.78125 74.21875 
z
" id="DejaVuSans-48"/>
       </defs>
       <use xlink:href="#DejaVuSans-48"/>
      </g>
     </g>
    </g>
    <g id="xtick_2">
     <g id="text_2">
      <!-- 10 -->
      <g transform="translate(193.459852 287.06881)scale(0.08 -0.08)">
       <defs>
        <path d="M 12.40625 8.296875 
L 28.515625 8.296875 
L 28.515625 63.921875 
L 10.984375 60.40625 
L 10.984375 69.390625 
L 28.421875 72.90625 
L 38.28125 72.90625 
L 38.28125 8.296875 
L 54.390625 8.296875 
L 54.390625 0 
L 12.40625 0 
z
" id="DejaVuSans-49"/>
       </defs>
       <use xlink:href="#DejaVuSans-49"/>
       <use x="63.623047" xlink:href="#DejaVuSans-48"/>
      </g>
     </g>
    </g>
    <g id="xtick_3">
     <g id="text_3">
      <!-- 20 -->
      <g transform="translate(307.359246 287.06881)scale(0.08 -0.08)">
       <defs>
        <path d="M 19.1875 8.296875 
L 53.609375 8.296875 
L 53.609375 0 
L 7.328125 0 
L 7.328125 8.296875 
Q 12.9375 14.109375 22.625 23.890625 
Q 32.328125 33.6875 34.8125 36.53125 
Q 39.546875 41.84375 41.421875 45.53125 
Q 43.3125 49.21875 43.3125 52.78125 
Q 43.3125 58.59375 39.234375 62.25 
Q 35.15625 65.921875 28.609375 65.921875 
Q 23.96875 65.921875 18.8125 64.3125 
Q 13.671875 62.703125 7.8125 59.421875 
L 7.8125 69.390625 
Q 13.765625 71.78125 18.9375 73 
Q 24.125 74.21875 28.421875 74.21875 
Q 39.75 74.21875 46.484375 68.546875 
Q 53.21875 62.890625 53.21875 53.421875 
Q 53.21875 48.921875 51.53125 44.890625 
Q 49.859375 40.875 45.40625 35.40625 
Q 44.1875 33.984375 37.640625 27.21875 
Q 31.109375 20.453125 19.1875 8.296875 
z
" id="DejaVuSans-50"/>
       </defs>
       <use xlink:href="#DejaVuSans-50"/>
       <use x="63.623047" xlink:href="#DejaVuSans-48"/>
      </g>
     </g>
    </g>
    <g id="xtick_4">
     <g id="text_4">
      <!-- 30 -->
      <g transform="translate(421.25864 287.06881)scale(0.08 -0.08)">
       <defs>
        <path d="M 40.578125 39.3125 
Q 47.65625 37.796875 51.625 33 
Q 55.609375 28.21875 55.609375 21.1875 
Q 55.609375 10.40625 48.1875 4.484375 
Q 40.765625 -1.421875 27.09375 -1.421875 
Q 22.515625 -1.421875 17.65625 -0.515625 
Q 12.796875 0.390625 7.625 2.203125 
L 7.625 11.71875 
Q 11.71875 9.328125 16.59375 8.109375 
Q 21.484375 6.890625 26.8125 6.890625 
Q 36.078125 6.890625 40.9375 10.546875 
Q 45.796875 14.203125 45.796875 21.1875 
Q 45.796875 27.640625 41.28125 31.265625 
Q 36.765625 34.90625 28.71875 34.90625 
L 20.21875 34.90625 
L 20.21875 43.015625 
L 29.109375 43.015625 
Q 36.375 43.015625 40.234375 45.921875 
Q 44.09375 48.828125 44.09375 54.296875 
Q 44.09375 59.90625 40.109375 62.90625 
Q 36.140625 65.921875 28.71875 65.921875 
Q 24.65625 65.921875 20.015625 65.03125 
Q 15.375 64.15625 9.8125 62.3125 
L 9.8125 71.09375 
Q 15.4375 72.65625 20.34375 73.4375 
Q 25.25 74.21875 29.59375 74.21875 
Q 40.828125 74.21875 47.359375 69.109375 
Q 53.90625 64.015625 53.90625 55.328125 
Q 53.90625 49.265625 50.4375 45.09375 
Q 46.96875 40.921875 40.578125 39.3125 
z
" id="DejaVuSans-51"/>
       </defs>
       <use xlink:href="#DejaVuSans-51"/>
       <use x="63.623047" xlink:href="#DejaVuSans-48"/>
      </g>
     </g>
    </g>
    <g id="xtick_5">
     <g id="text_5">
      <!-- 40 -->
      <g transform="translate(535.158034 287.06881)scale(0.08 -0.08)">
       <defs>
        <path d="M 37.796875 64.3125 
L 12.890625 25.390625 
L 37.796875 25.390625 
z
M 35.203125 72.90625 
L 47.609375 72.90625 
L 47.609375 25.390625 
L 58.015625 25.390625 
L 58.015625 17.1875 
L 47.609375 17.1875 
L 47.609375 0 
L 37.796875 0 
L 37.796875 17.1875 
L 4.890625 17.1875 
L 4.890625 26.703125 
z
" id="DejaVuSans-52"/>
       </defs>
       <use xlink:href="#DejaVuSans-52"/>
       <use x="63.623047" xlink:href="#DejaVuSans-48"/>
      </g>
     </g>
    </g>
    <g id="xtick_6">
     <g id="text_6">
      <!-- 50 -->
      <g transform="translate(649.057428 287.06881)scale(0.08 -0.08)">
       <defs>
        <path d="M 10.796875 72.90625 
L 49.515625 72.90625 
L 49.515625 64.59375 
L 19.828125 64.59375 
L 19.828125 46.734375 
Q 21.96875 47.46875 24.109375 47.828125 
Q 26.265625 48.1875 28.421875 48.1875 
Q 40.625 48.1875 47.75 41.5 
Q 54.890625 34.8125 54.890625 23.390625 
Q 54.890625 11.625 47.5625 5.09375 
Q 40.234375 -1.421875 26.90625 -1.421875 
Q 22.3125 -1.421875 17.546875 -0.640625 
Q 12.796875 0.140625 7.71875 1.703125 
L 7.71875 11.625 
Q 12.109375 9.234375 16.796875 8.0625 
Q 21.484375 6.890625 26.703125 6.890625 
Q 35.15625 6.890625 40.078125 11.328125 
Q 45.015625 15.765625 45.015625 23.390625 
Q 45.015625 31 40.078125 35.4375 
Q 35.15625 39.890625 26.703125 39.890625 
Q 22.75 39.890625 18.8125 39.015625 
Q 14.890625 38.140625 10.796875 36.28125 
z
" id="DejaVuSans-53"/>
       </defs>
       <use xlink:href="#DejaVuSans-53"/>
       <use x="63.623047" xlink:href="#DejaVuSans-48"/>
      </g>
     </g>
    </g>
    <g id="xtick_7">
     <g id="text_7">
      <!-- 60 -->
      <g transform="translate(762.956822 287.06881)scale(0.08 -0.08)">
       <defs>
        <path d="M 33.015625 40.375 
Q 26.375 40.375 22.484375 35.828125 
Q 18.609375 31.296875 18.609375 23.390625 
Q 18.609375 15.53125 22.484375 10.953125 
Q 26.375 6.390625 33.015625 6.390625 
Q 39.65625 6.390625 43.53125 10.953125 
Q 47.40625 15.53125 47.40625 23.390625 
Q 47.40625 31.296875 43.53125 35.828125 
Q 39.65625 40.375 33.015625 40.375 
z
M 52.59375 71.296875 
L 52.59375 62.3125 
Q 48.875 64.0625 45.09375 64.984375 
Q 41.3125 65.921875 37.59375 65.921875 
Q 27.828125 65.921875 22.671875 59.328125 
Q 17.53125 52.734375 16.796875 39.40625 
Q 19.671875 43.65625 24.015625 45.921875 
Q 28.375 48.1875 33.59375 48.1875 
Q 44.578125 48.1875 50.953125 41.515625 
Q 57.328125 34.859375 57.328125 23.390625 
Q 57.328125 12.15625 50.6875 5.359375 
Q 44.046875 -1.421875 33.015625 -1.421875 
Q 20.359375 -1.421875 13.671875 8.265625 
Q 6.984375 17.96875 6.984375 36.375 
Q 6.984375 53.65625 15.1875 63.9375 
Q 23.390625 74.21875 37.203125 74.21875 
Q 40.921875 74.21875 44.703125 73.484375 
Q 48.484375 72.75 52.59375 71.296875 
z
" id="DejaVuSans-54"/>
       </defs>
       <use xlink:href="#DejaVuSans-54"/>
       <use x="63.623047" xlink:href="#DejaVuSans-48"/>
      </g>
     </g>
    </g>
    <g id="xtick_8">
     <g id="text_8">
      <!-- 70 -->
      <g transform="translate(876.856216 287.06881)scale(0.08 -0.08)">
       <defs>
        <path d="M 8.203125 72.90625 
L 55.078125 72.90625 
L 55.078125 68.703125 
L 28.609375 0 
L 18.3125 0 
L 43.21875 64.59375 
L 8.203125 64.59375 
z
" id="DejaVuSans-55"/>
       </defs>
       <use xlink:href="#DejaVuSans-55"/>
       <use x="63.623047" xlink:href="#DejaVuSans-48"/>
      </g>
     </g>
    </g>
    <g id="text_9">
     <!-- Length Trimmed (bp) -->
     <g transform="translate(470.735781 300.330997)scale(0.1 -0.1)">
      <defs>
       <path d="M 9.8125 72.90625 
L 19.671875 72.90625 
L 19.671875 8.296875 
L 55.171875 8.296875 
L 55.171875 0 
L 9.8125 0 
z
" id="DejaVuSans-76"/>
       <path d="M 56.203125 29.59375 
L 56.203125 25.203125 
L 14.890625 25.203125 
Q 15.484375 15.921875 20.484375 11.0625 
Q 25.484375 6.203125 34.421875 6.203125 
Q 39.59375 6.203125 44.453125 7.46875 
Q 49.3125 8.734375 54.109375 11.28125 
L 54.109375 2.78125 
Q 49.265625 0.734375 44.1875 -0.34375 
Q 39.109375 -1.421875 33.890625 -1.421875 
Q 20.796875 -1.421875 13.15625 6.1875 
Q 5.515625 13.8125 5.515625 26.8125 
Q 5.515625 40.234375 12.765625 48.109375 
Q 20.015625 56 32.328125 56 
Q 43.359375 56 49.78125 48.890625 
Q 56.203125 41.796875 56.203125 29.59375 
z
M 47.21875 32.234375 
Q 47.125 39.59375 43.09375 43.984375 
Q 39.0625 48.390625 32.421875 48.390625 
Q 24.90625 48.390625 20.390625 44.140625 
Q 15.875 39.890625 15.1875 32.171875 
z
" id="DejaVuSans-101"/>
       <path d="M 54.890625 33.015625 
L 54.890625 0 
L 45.90625 0 
L 45.90625 32.71875 
Q 45.90625 40.484375 42.875 44.328125 
Q 39.84375 48.1875 33.796875 48.1875 
Q 26.515625 48.1875 22.3125 43.546875 
Q 18.109375 38.921875 18.109375 30.90625 
L 18.109375 0 
L 9.078125 0 
L 9.078125 54.6875 
L 18.109375 54.6875 
L 18.109375 46.1875 
Q 21.34375 51.125 25.703125 53.5625 
Q 30.078125 56 35.796875 56 
Q 45.21875 56 50.046875 50.171875 
Q 54.890625 44.34375 54.890625 33.015625 
z
" id="DejaVuSans-110"/>
       <path d="M 45.40625 27.984375 
Q 45.40625 37.75 41.375 43.109375 
Q 37.359375 48.484375 30.078125 48.484375 
Q 22.859375 48.484375 18.828125 43.109375 
Q 14.796875 37.75 14.796875 27.984375 
Q 14.796875 18.265625 18.828125 12.890625 
Q 22.859375 7.515625 30.078125 7.515625 
Q 37.359375 7.515625 41.375 12.890625 
Q 45.40625 18.265625 45.40625 27.984375 
z
M 54.390625 6.78125 
Q 54.390625 -7.171875 48.1875 -13.984375 
Q 42 -20.796875 29.203125 -20.796875 
Q 24.46875 -20.796875 20.265625 -20.09375 
Q 16.0625 -19.390625 12.109375 -17.921875 
L 12.109375 -9.1875 
Q 16.0625 -11.328125 19.921875 -12.34375 
Q 23.78125 -13.375 27.78125 -13.375 
Q 36.625 -13.375 41.015625 -8.765625 
Q 45.40625 -4.15625 45.40625 5.171875 
L 45.40625 9.625 
Q 42.625 4.78125 38.28125 2.390625 
Q 33.9375 0 27.875 0 
Q 17.828125 0 11.671875 7.65625 
Q 5.515625 15.328125 5.515625 27.984375 
Q 5.515625 40.671875 11.671875 48.328125 
Q 17.828125 56 27.875 56 
Q 33.9375 56 38.28125 53.609375 
Q 42.625 51.21875 45.40625 46.390625 
L 45.40625 54.6875 
L 54.390625 54.6875 
z
" id="DejaVuSans-103"/>
       <path d="M 18.3125 70.21875 
L 18.3125 54.6875 
L 36.8125 54.6875 
L 36.8125 47.703125 
L 18.3125 47.703125 
L 18.3125 18.015625 
Q 18.3125 11.328125 20.140625 9.421875 
Q 21.96875 7.515625 27.59375 7.515625 
L 36.8125 7.515625 
L 36.8125 0 
L 27.59375 0 
Q 17.1875 0 13.234375 3.875 
Q 9.28125 7.765625 9.28125 18.015625 
L 9.28125 47.703125 
L 2.6875 47.703125 
L 2.6875 54.6875 
L 9.28125 54.6875 
L 9.28125 70.21875 
z
" id="DejaVuSans-116"/>
       <path d="M 54.890625 33.015625 
L 54.890625 0 
L 45.90625 0 
L 45.90625 32.71875 
Q 45.90625 40.484375 42.875 44.328125 
Q 39.84375 48.1875 33.796875 48.1875 
Q 26.515625 48.1875 22.3125 43.546875 
Q 18.109375 38.921875 18.109375 30.90625 
L 18.109375 0 
L 9.078125 0 
L 9.078125 75.984375 
L 18.109375 75.984375 
L 18.109375 46.1875 
Q 21.34375 51.125 25.703125 53.5625 
Q 30.078125 56 35.796875 56 
Q 45.21875 56 50.046875 50.171875 
Q 54.890625 44.34375 54.890625 33.015625 
z
" id="DejaVuSans-104"/>
       <path id="DejaVuSans-32"/>
       <path d="M -0.296875 72.90625 
L 61.375 72.90625 
L 61.375 64.59375 
L 35.5 64.59375 
L 35.5 0 
L 25.59375 0 
L 25.59375 64.59375 
L -0.296875 64.59375 
z
" id="DejaVuSans-84"/>
       <path d="M 41.109375 46.296875 
Q 39.59375 47.171875 37.8125 47.578125 
Q 36.03125 48 33.890625 48 
Q 26.265625 48 22.1875 43.046875 
Q 18.109375 38.09375 18.109375 28.8125 
L 18.109375 0 
L 9.078125 0 
L 9.078125 54.6875 
L 18.109375 54.6875 
L 18.109375 46.1875 
Q 20.953125 51.171875 25.484375 53.578125 
Q 30.03125 56 36.53125 56 
Q 37.453125 56 38.578125 55.875 
Q 39.703125 55.765625 41.0625 55.515625 
z
" id="DejaVuSans-114"/>
       <path d="M 9.421875 54.6875 
L 18.40625 54.6875 
L 18.40625 0 
L 9.421875 0 
z
M 9.421875 75.984375 
L 18.40625 75.984375 
L 18.40625 64.59375 
L 9.421875 64.59375 
z
" id="DejaVuSans-105"/>
       <path d="M 52 44.1875 
Q 55.375 50.25 60.0625 53.125 
Q 64.75 56 71.09375 56 
Q 79.640625 56 84.28125 50.015625 
Q 88.921875 44.046875 88.921875 33.015625 
L 88.921875 0 
L 79.890625 0 
L 79.890625 32.71875 
Q 79.890625 40.578125 77.09375 44.375 
Q 74.3125 48.1875 68.609375 48.1875 
Q 61.625 48.1875 57.5625 43.546875 
Q 53.515625 38.921875 53.515625 30.90625 
L 53.515625 0 
L 44.484375 0 
L 44.484375 32.71875 
Q 44.484375 40.625 41.703125 44.40625 
Q 38.921875 48.1875 33.109375 48.1875 
Q 26.21875 48.1875 22.15625 43.53125 
Q 18.109375 38.875 18.109375 30.90625 
L 18.109375 0 
L 9.078125 0 
L 9.078125 54.6875 
L 18.109375 54.6875 
L 18.109375 46.1875 
Q 21.1875 51.21875 25.484375 53.609375 
Q 29.78125 56 35.6875 56 
Q 41.65625 56 45.828125 52.96875 
Q 50 49.953125 52 44.1875 
z
" id="DejaVuSans-109"/>
       <path d="M 45.40625 46.390625 
L 45.40625 75.984375 
L 54.390625 75.984375 
L 54.390625 0 
L 45.40625 0 
L 45.40625 8.203125 
Q 42.578125 3.328125 38.25 0.953125 
Q 33.9375 -1.421875 27.875 -1.421875 
Q 17.96875 -1.421875 11.734375 6.484375 
Q 5.515625 14.40625 5.515625 27.296875 
Q 5.515625 40.1875 11.734375 48.09375 
Q 17.96875 56 27.875 56 
Q 33.9375 56 38.25 53.625 
Q 42.578125 51.265625 45.40625 46.390625 
z
M 14.796875 27.296875 
Q 14.796875 17.390625 18.875 11.75 
Q 22.953125 6.109375 30.078125 6.109375 
Q 37.203125 6.109375 41.296875 11.75 
Q 45.40625 17.390625 45.40625 27.296875 
Q 45.40625 37.203125 41.296875 42.84375 
Q 37.203125 48.484375 30.078125 48.484375 
Q 22.953125 48.484375 18.875 42.84375 
Q 14.796875 37.203125 14.796875 27.296875 
z
" id="DejaVuSans-100"/>
       <path d="M 31 75.875 
Q 24.46875 64.65625 21.28125 53.65625 
Q 18.109375 42.671875 18.109375 31.390625 
Q 18.109375 20.125 21.3125 9.0625 
Q 24.515625 -2 31 -13.1875 
L 23.1875 -13.1875 
Q 15.875 -1.703125 12.234375 9.375 
Q 8.59375 20.453125 8.59375 31.390625 
Q 8.59375 42.28125 12.203125 53.3125 
Q 15.828125 64.359375 23.1875 75.875 
z
" id="DejaVuSans-40"/>
       <path d="M 48.6875 27.296875 
Q 48.6875 37.203125 44.609375 42.84375 
Q 40.53125 48.484375 33.40625 48.484375 
Q 26.265625 48.484375 22.1875 42.84375 
Q 18.109375 37.203125 18.109375 27.296875 
Q 18.109375 17.390625 22.1875 11.75 
Q 26.265625 6.109375 33.40625 6.109375 
Q 40.53125 6.109375 44.609375 11.75 
Q 48.6875 17.390625 48.6875 27.296875 
z
M 18.109375 46.390625 
Q 20.953125 51.265625 25.265625 53.625 
Q 29.59375 56 35.59375 56 
Q 45.5625 56 51.78125 48.09375 
Q 58.015625 40.1875 58.015625 27.296875 
Q 58.015625 14.40625 51.78125 6.484375 
Q 45.5625 -1.421875 35.59375 -1.421875 
Q 29.59375 -1.421875 25.265625 0.953125 
Q 20.953125 3.328125 18.109375 8.203125 
L 18.109375 0 
L 9.078125 0 
L 9.078125 75.984375 
L 18.109375 75.984375 
z
" id="DejaVuSans-98"/>
       <path d="M 18.109375 8.203125 
L 18.109375 -20.796875 
L 9.078125 -20.796875 
L 9.078125 54.6875 
L 18.109375 54.6875 
L 18.109375 46.390625 
Q 20.953125 51.265625 25.265625 53.625 
Q 29.59375 56 35.59375 56 
Q 45.5625 56 51.78125 48.09375 
Q 58.015625 40.1875 58.015625 27.296875 
Q 58.015625 14.40625 51.78125 6.484375 
Q 45.5625 -1.421875 35.59375 -1.421875 
Q 29.59375 -1.421875 25.265625 0.953125 
Q 20.953125 3.328125 18.109375 8.203125 
z
M 48.6875 27.296875 
Q 48.6875 37.203125 44.609375 42.84375 
Q 40.53125 48.484375 33.40625 48.484375 
Q 26.265625 48.484375 22.1875 42.84375 
Q 18.109375 37.203125 18.109375 27.296875 
Q 18.109375 17.390625 22.1875 11.75 
Q 26.265625 6.109375 33.40625 6.109375 
Q 40.53125 6.109375 44.609375 11.75 
Q 48.6875 17.390625 48.6875 27.296875 
z
" id="DejaVuSans-112"/>
       <path d="M 8.015625 75.875 
L 15.828125 75.875 
Q 23.140625 64.359375 26.78125 53.3125 
Q 30.421875 42.28125 30.421875 31.390625 
Q 30.421875 20.453125 26.78125 9.375 
Q 23.140625 -1.703125 15.828125 -13.1875 
L 8.015625 -13.1875 
Q 14.5 -2 17.703125 9.0625 
Q 20.90625 20.125 20.90625 31.390625 
Q 20.90625 42.671875 17.703125 53.65625 
Q 14.5 64.65625 8.015625 75.875 
z
" id="DejaVuSans-41"/>
      </defs>
      <use xlink:href="#DejaVuSans-76"/>
      <use x="53.962891" xlink:href="#DejaVuSans-101"/>
      <use x="115.486328" xlink:href="#DejaVuSans-110"/>
      <use x="178.865234" xlink:href="#DejaVuSans-103"/>
      <use x="242.341797" xlink:href="#DejaVuSans-116"/>
      <use x="281.550781" xlink:href="#DejaVuSans-104"/>
      <use x="344.929688" xlink:href="#DejaVuSans-32"/>
      <use x="376.716797" xlink:href="#DejaVuSans-84"/>
      <use x="423.050781" xlink:href="#DejaVuSans-114"/>
      <use x="464.164062" xlink:href="#DejaVuSans-105"/>
      <use x="491.947266" xlink:href="#DejaVuSans-109"/>
      <use x="589.359375" xlink:href="#DejaVuSans-109"/>
      <use x="686.771484" xlink:href="#DejaVuSans-101"/>
      <use x="748.294922" xlink:href="#DejaVuSans-100"/>
      <use x="811.771484" xlink:href="#DejaVuSans-32"/>
      <use x="843.558594" xlink:href="#DejaVuSans-40"/>
      <use x="882.572266" xlink:href="#DejaVuSans-98"/>
      <use x="946.048828" xlink:href="#DejaVuSans-112"/>
      <use x="1009.525391" xlink:href="#DejaVuSans-41"/>
     </g>
    </g>
   </g>
   <g id="matplotlib.axis_2">
    <g id="ytick_1">
     <g id="line2d_1">
      <path clip-path="url(#p421089a6cc)" d="M 53.328125 273.99006 
L 992.998125 273.99006 
" style="fill:none;stroke:#dedede;stroke-linecap:square;"/>
     </g>
     <g id="text_10">
      <!-- 0 -->
      <g transform="translate(41.238125 277.029435)scale(0.08 -0.08)">
       <use xlink:href="#DejaVuSans-48"/>
      </g>
     </g>
    </g>
    <g id="ytick_2">
     <g id="line2d_2">
      <path clip-path="url(#p421089a6cc)" d="M 53.328125 232.882337 
L 992.998125 232.882337 
" style="fill:none;stroke:#dedede;stroke-linecap:square;"/>
     </g>
     <g id="text_11">
      <!-- 5000 -->
      <g transform="translate(25.968125 235.921712)scale(0.08 -0.08)">
       <use xlink:href="#DejaVuSans-53"/>
       <use x="63.623047" xlink:href="#DejaVuSans-48"/>
       <use x="127.246094" xlink:href="#DejaVuSans-48"/>
       <use x="190.869141" xlink:href="#DejaVuSans-48"/>
      </g>
     </g>
    </g>
    <g id="ytick_3">
     <g id="line2d_3">
      <path clip-path="url(#p421089a6cc)" d="M 53.328125 191.774614 
L 992.998125 191.774614 
" style="fill:none;stroke:#dedede;stroke-linecap:square;"/>
     </g>
     <g id="text_12">
      <!-- 10000 -->
      <g transform="translate(20.878125 194.813989)scale(0.08 -0.08)">
       <use xlink:href="#DejaVuSans-49"/>
       <use x="63.623047" xlink:href="#DejaVuSans-48"/>
       <use x="127.246094" xlink:href="#DejaVuSans-48"/>
       <use x="190.869141" xlink:href="#DejaVuSans-48"/>
       <use x="254.492188" xlink:href="#DejaVuSans-48"/>
      </g>
     </g>
    </g>
    <g id="ytick_4">
     <g id="line2d_4">
      <path clip-path="url(#p421089a6cc)" d="M 53.328125 150.666892 
L 992.998125 150.666892 
" style="fill:none;stroke:#dedede;stroke-linecap:square;"/>
     </g>
     <g id="text_13">
      <!-- 15000 -->
      <g transform="translate(20.878125 153.706267)scale(0.08 -0.08)">
       <use xlink:href="#DejaVuSans-49"/>
       <use x="63.623047" xlink:href="#DejaVuSans-53"/>
       <use x="127.246094" xlink:href="#DejaVuSans-48"/>
       <use x="190.869141" xlink:href="#DejaVuSans-48"/>
       <use x="254.492188" xlink:href="#DejaVuSans-48"/>
      </g>
     </g>
    </g>
    <g id="ytick_5">
     <g id="line2d_5">
      <path clip-path="url(#p421089a6cc)" d="M 53.328125 109.559169 
L 992.998125 109.559169 
" style="fill:none;stroke:#dedede;stroke-linecap:square;"/>
     </g>
     <g id="text_14">
      <!-- 20000 -->
      <g transform="translate(20.878125 112.598544)scale(0.08 -0.08)">
       <use xlink:href="#DejaVuSans-50"/>
       <use x="63.623047" xlink:href="#DejaVuSans-48"/>
       <use x="127.246094" xlink:href="#DejaVuSans-48"/>
       <use x="190.869141" xlink:href="#DejaVuSans-48"/>
       <use x="254.492188" xlink:href="#DejaVuSans-48"/>
      </g>
     </g>
    </g>
    <g id="ytick_6">
     <g id="line2d_6">
      <path clip-path="url(#p421089a6cc)" d="M 53.328125 68.451446 
L 992.998125 68.451446 
" style="fill:none;stroke:#dedede;stroke-linecap:square;"/>
     </g>
     <g id="text_15">
      <!-- 25000 -->
      <g transform="translate(20.878125 71.490821)scale(0.08 -0.08)">
       <use xlink:href="#DejaVuSans-50"/>
       <use x="63.623047" xlink:href="#DejaVuSans-53"/>
       <use x="127.246094" xlink:href="#DejaVuSans-48"/>
       <use x="190.869141" xlink:href="#DejaVuSans-48"/>
       <use x="254.492188" xlink:href="#DejaVuSans-48"/>
      </g>
     </g>
    </g>
    <g id="text_16">
     <!-- Count -->
     <g transform="translate(14.798437 167.584897)rotate(-90)scale(0.1 -0.1)">
      <defs>
       <path d="M 64.40625 67.28125 
L 64.40625 56.890625 
Q 59.421875 61.53125 53.78125 63.8125 
Q 48.140625 66.109375 41.796875 66.109375 
Q 29.296875 66.109375 22.65625 58.46875 
Q 16.015625 50.828125 16.015625 36.375 
Q 16.015625 21.96875 22.65625 14.328125 
Q 29.296875 6.6875 41.796875 6.6875 
Q 48.140625 6.6875 53.78125 8.984375 
Q 59.421875 11.28125 64.40625 15.921875 
L 64.40625 5.609375 
Q 59.234375 2.09375 53.4375 0.328125 
Q 47.65625 -1.421875 41.21875 -1.421875 
Q 24.65625 -1.421875 15.125 8.703125 
Q 5.609375 18.84375 5.609375 36.375 
Q 5.609375 53.953125 15.125 64.078125 
Q 24.65625 74.21875 41.21875 74.21875 
Q 47.75 74.21875 53.53125 72.484375 
Q 59.328125 70.75 64.40625 67.28125 
z
" id="DejaVuSans-67"/>
       <path d="M 30.609375 48.390625 
Q 23.390625 48.390625 19.1875 42.75 
Q 14.984375 37.109375 14.984375 27.296875 
Q 14.984375 17.484375 19.15625 11.84375 
Q 23.34375 6.203125 30.609375 6.203125 
Q 37.796875 6.203125 41.984375 11.859375 
Q 46.1875 17.53125 46.1875 27.296875 
Q 46.1875 37.015625 41.984375 42.703125 
Q 37.796875 48.390625 30.609375 48.390625 
z
M 30.609375 56 
Q 42.328125 56 49.015625 48.375 
Q 55.71875 40.765625 55.71875 27.296875 
Q 55.71875 13.875 49.015625 6.21875 
Q 42.328125 -1.421875 30.609375 -1.421875 
Q 18.84375 -1.421875 12.171875 6.21875 
Q 5.515625 13.875 5.515625 27.296875 
Q 5.515625 40.765625 12.171875 48.375 
Q 18.84375 56 30.609375 56 
z
" id="DejaVuSans-111"/>
       <path d="M 8.5 21.578125 
L 8.5 54.6875 
L 17.484375 54.6875 
L 17.484375 21.921875 
Q 17.484375 14.15625 20.5 10.265625 
Q 23.53125 6.390625 29.59375 6.390625 
Q 36.859375 6.390625 41.078125 11.03125 
Q 45.3125 15.671875 45.3125 23.6875 
L 45.3125 54.6875 
L 54.296875 54.6875 
L 54.296875 0 
L 45.3125 0 
L 45.3125 8.40625 
Q 42.046875 3.421875 37.71875 1 
Q 33.40625 -1.421875 27.6875 -1.421875 
Q 18.265625 -1.421875 13.375 4.4375 
Q 8.5 10.296875 8.5 21.578125 
z
M 31.109375 56 
z
" id="DejaVuSans-117"/>
      </defs>
      <use xlink:href="#DejaVuSans-67"/>
      <use x="69.824219" xlink:href="#DejaVuSans-111"/>
      <use x="131.005859" xlink:href="#DejaVuSans-117"/>
      <use x="194.384766" xlink:href="#DejaVuSans-110"/>
      <use x="257.763672" xlink:href="#DejaVuSans-116"/>
     </g>
    </g>
   </g>
   <g id="line2d_7">
    <path clip-path="url(#p421089a6cc)" d="M 96.040398 44.584302 
L 107.430337 224.463476 
L 118.820277 258.402012 
L 130.210216 269.698414 
L 141.600155 273.258343 
L 152.990095 273.850294 
L 164.380034 273.957174 
L 175.769973 273.973617 
L 187.159913 273.940731 
L 198.549852 273.957174 
L 289.669367 273.981838 
L 323.839186 273.981838 
L 369.398943 273.981838 
L 517.468155 273.981838 
L 654.147428 273.965395 
" style="fill:none;stroke:#7cb5ec;stroke-linecap:square;"/>
   </g>
   <g id="line2d_8">
    <path clip-path="url(#p421089a6cc)" d="M 96.040398 46.606802 
L 107.430337 224.266159 
L 118.820277 258.615772 
L 130.210216 269.443546 
L 141.600155 273.283007 
L 152.990095 273.825629 
L 164.380034 273.973617 
L 187.159913 273.965395 
L 198.549852 273.948952 
L 209.939792 273.981838 
L 221.329731 273.981838 
L 232.71967 273.981838 
L 278.279428 273.981838 
L 323.839186 273.981838 
L 369.398943 273.981838 
L 494.688277 273.981838 
L 654.147428 273.981838 
" style="fill:none;stroke:#434348;stroke-linecap:square;"/>
   </g>
   <g id="line2d_9">
    <path clip-path="url(#p421089a6cc)" d="M 96.040398 43.03043 
L 107.430337 225.104756 
L 118.820277 257.571636 
L 130.210216 269.542204 
L 141.600155 273.102133 
L 152.990095 273.866737 
L 164.380034 273.965395 
L 175.769973 273.973617 
L 187.159913 273.957174 
L 198.549852 273.973617 
L 209.939792 273.973617 
L 221.329731 273.965395 
L 244.10961 273.981838 
L 517.468155 273.981838 
L 608.58767 273.981838 
L 619.97761 273.981838 
L 654.147428 273.981838 
" style="fill:none;stroke:#90ed7d;stroke-linecap:square;"/>
   </g>
   <g id="line2d_10">
    <path clip-path="url(#p421089a6cc)" d="M 96.040398 43.482615 
L 107.430337 224.743008 
L 118.820277 257.546971 
L 130.210216 269.665528 
L 141.600155 273.209013 
L 152.990095 273.891401 
L 164.380034 273.965395 
L 175.769973 273.981838 
L 187.159913 273.948952 
L 198.549852 273.973617 
L 209.939792 273.981838 
L 221.329731 273.981838 
L 232.71967 273.981838 
L 244.10961 273.981838 
L 494.688277 273.981838 
L 608.58767 273.981838 
L 654.147428 273.981838 
" style="fill:none;stroke:#f7a35c;stroke-linecap:square;"/>
   </g>
   <g id="line2d_11">
    <path clip-path="url(#p421089a6cc)" d="M 96.040398 152.598955 
L 107.430337 236.105183 
L 118.820277 261.805731 
L 130.210216 266.820873 
L 141.600155 268.18565 
L 152.990095 268.004776 
L 164.380034 268.498068 
L 175.769973 268.284308 
L 187.159913 268.341859 
L 198.549852 268.251422 
L 209.939792 267.980111 
L 221.329731 268.152763 
L 232.71967 267.988332 
L 244.10961 267.511483 
L 255.499549 266.434461 
L 266.889489 267.585477 
L 278.279428 267.429267 
L 289.669367 268.02944 
L 301.059307 267.503261 
L 312.449246 266.681107 
L 323.839186 266.787987 
L 335.229125 266.672885 
L 346.619064 268.580284 
L 358.009004 266.130263 
L 369.398943 263.277387 
L 380.788883 263.688465 
L 392.178822 266.598891 
L 403.568761 268.234979 
L 414.958701 267.240172 
L 426.34864 266.549562 
L 437.73858 266.475568 
L 449.128519 266.048048 
L 460.518458 267.92256 
L 471.908398 266.935975 
L 483.298337 262.183922 
L 494.688277 259.93944 
L 506.078216 266.853759 
L 517.468155 269.772408 
L 528.858095 270.95631 
L 540.248034 271.441381 
L 551.637973 272.452631 
L 563.027913 272.929481 
L 574.417852 273.677641 
L 585.807792 273.768078 
L 597.197731 273.08569 
L 608.58767 272.682834 
L 619.97761 272.691056 
L 631.367549 273.677641 
L 642.757489 273.694084 
L 654.147428 273.809186 
L 665.537367 273.965395 
L 676.927307 273.981838 
L 688.317246 273.973617 
L 699.707186 273.981838 
L 711.097125 273.973617 
L 722.487064 273.981838 
L 745.266943 273.981838 
L 756.656883 273.973617 
L 813.60658 273.973617 
L 824.996519 273.973617 
L 847.776398 273.981838 
L 870.556277 273.981838 
L 916.116034 273.981838 
L 950.285852 273.981838 
" style="fill:none;stroke:#8085e9;stroke-linecap:square;"/>
   </g>
   <g id="line2d_12">
    <path clip-path="url(#p421089a6cc)" d="M 96.040398 150.584676 
L 107.430337 235.990081 
L 118.820277 262.085263 
L 130.210216 267.009969 
L 141.600155 268.160985 
L 152.990095 268.078769 
L 164.380034 268.530954 
L 175.769973 268.169206 
L 187.159913 268.424074 
L 198.549852 268.193871 
L 209.939792 268.111656 
L 221.329731 268.062326 
L 232.71967 268.193871 
L 244.10961 267.478597 
L 255.499549 266.853759 
L 266.889489 267.042855 
L 278.279428 267.577255 
L 289.669367 267.996554 
L 301.059307 267.116849 
L 312.449246 263.45004 
L 323.839186 270.800101 
L 335.229125 267.49504 
L 346.619064 267.634806 
L 358.009004 266.048048 
L 369.398943 262.981412 
L 380.788883 264.716158 
L 392.178822 266.935975 
L 403.568761 267.256615 
L 414.958701 265.464318 
L 426.34864 268.810487 
L 437.73858 266.237143 
L 449.128519 266.639999 
L 460.518458 267.429267 
L 471.908398 267.009969 
L 483.298337 262.422347 
L 494.688277 260.539613 
L 506.078216 266.360467 
L 517.468155 269.821737 
L 528.858095 270.931645 
L 540.248034 271.531818 
L 551.637973 272.543068 
L 563.027913 273.250121 
L 574.417852 273.685863 
L 585.807792 273.718749 
L 597.197731 273.480324 
L 608.58767 272.008668 
L 619.97761 272.674613 
L 631.367549 273.66942 
L 642.757489 273.685863 
L 654.147428 273.817408 
L 665.537367 273.948952 
L 699.707186 273.981838 
L 711.097125 273.981838 
L 722.487064 273.973617 
L 733.877004 273.981838 
L 745.266943 273.981838 
L 756.656883 273.981838 
L 813.60658 273.981838 
L 836.386458 273.981838 
L 859.166337 273.957174 
L 927.505973 273.981838 
" style="fill:none;stroke:#f15c80;stroke-linecap:square;"/>
   </g>
   <g id="line2d_13">
    <path clip-path="url(#p421089a6cc)" d="M 96.040398 144.500733 
L 107.430337 233.202977 
L 118.820277 261.85506 
L 130.210216 267.157956 
L 141.600155 268.629613 
L 152.990095 269.106463 
L 164.380034 269.525761 
L 175.769973 268.810487 
L 187.159913 268.950253 
L 198.549852 268.859816 
L 209.939792 268.703607 
L 221.329731 268.670721 
L 232.71967 268.234979 
L 244.10961 268.950253 
L 255.499549 268.103434 
L 266.889489 268.489847 
L 278.279428 268.210314 
L 289.669367 268.382967 
L 301.059307 267.840345 
L 312.449246 267.577255 
L 323.839186 267.264837 
L 335.229125 266.689328 
L 346.619064 268.670721 
L 358.009004 267.49504 
L 369.398943 267.659471 
L 380.788883 266.557784 
L 392.178822 267.256615 
L 403.568761 268.695385 
L 414.958701 267.33883 
L 426.34864 267.182621 
L 437.73858 267.511483 
L 449.128519 266.179593 
L 460.518458 267.963668 
L 471.908398 268.086991 
L 483.298337 267.889674 
L 494.688277 266.91131 
L 506.078216 268.966696 
L 517.468155 268.703607 
L 528.858095 269.673749 
L 540.248034 270.397245 
L 551.637973 271.984003 
L 563.027913 272.641727 
L 574.417852 273.225456 
L 585.807792 273.800964 
L 597.197731 273.628312 
L 608.58767 273.652977 
L 619.97761 273.332336 
L 631.367549 273.40633 
L 642.757489 273.504989 
L 654.147428 273.661198 
L 665.537367 273.932509 
L 676.927307 273.948952 
L 688.317246 273.965395 
L 699.707186 273.981838 
L 722.487064 273.965395 
L 733.877004 273.965395 
L 745.266943 273.973617 
L 756.656883 273.981838 
L 802.21664 273.981838 
L 824.996519 273.981838 
L 847.776398 273.981838 
L 859.166337 273.973617 
L 904.726095 273.981838 
L 950.285852 273.981838 
" style="fill:none;stroke:#e4d354;stroke-linecap:square;"/>
   </g>
   <g id="line2d_14">
    <path clip-path="url(#p421089a6cc)" d="M 96.040398 142.190479 
L 107.430337 233.918252 
L 118.820277 261.328881 
L 130.210216 267.355274 
L 141.600155 268.711828 
L 152.990095 269.04069 
L 164.380034 269.591534 
L 175.769973 268.909145 
L 187.159913 268.991361 
L 198.549852 268.909145 
L 209.939792 268.900924 
L 221.329731 268.646056 
L 232.71967 268.456961 
L 244.10961 268.777601 
L 255.499549 268.39941 
L 266.889489 268.13632 
L 278.279428 268.341859 
L 289.669367 268.456961 
L 301.059307 267.527926 
L 312.449246 264.576391 
L 323.839186 270.808322 
L 335.229125 267.478597 
L 346.619064 267.848566 
L 358.009004 267.60192 
L 369.398943 267.610141 
L 380.788883 266.853759 
L 392.178822 267.930782 
L 403.568761 267.643028 
L 414.958701 266.080934 
L 426.34864 269.164013 
L 437.73858 267.157956 
L 449.128519 267.223729 
L 460.518458 266.977082 
L 471.908398 268.103434 
L 483.298337 268.111656 
L 494.688277 267.659471 
L 506.078216 268.448739 
L 517.468155 268.662499 
L 528.858095 269.509318 
L 540.248034 270.668556 
L 551.637973 271.901788 
L 563.027913 272.929481 
L 574.417852 273.151462 
L 585.807792 273.554318 
L 597.197731 273.661198 
L 608.58767 273.570761 
L 619.97761 273.315893 
L 631.367549 273.414552 
L 642.757489 273.504989 
L 654.147428 273.603647 
L 665.537367 273.924288 
L 676.927307 273.932509 
L 688.317246 273.948952 
L 699.707186 273.981838 
L 711.097125 273.973617 
L 722.487064 273.957174 
L 733.877004 273.948952 
L 745.266943 273.973617 
L 756.656883 273.965395 
L 802.21664 273.981838 
L 824.996519 273.981838 
L 836.386458 273.981838 
L 847.776398 273.981838 
L 859.166337 273.981838 
L 916.116034 273.981838 
" style="fill:none;stroke:#2b908f;stroke-linecap:square;"/>
   </g>
   <g id="line2d_15">
    <path clip-path="url(#p421089a6cc)" d="M 96.040398 125.780276 
L 107.430337 230.720071 
L 118.820277 261.575528 
L 130.210216 267.659471 
L 141.600155 269.073576 
L 152.990095 269.320223 
L 164.380034 269.492875 
L 175.769973 269.484654 
L 187.159913 269.525761 
L 198.549852 269.797072 
L 209.939792 269.969725 
L 221.329731 269.83818 
L 232.71967 269.936839 
L 244.10961 270.125934 
L 255.499549 269.575091 
L 266.889489 269.772408 
L 278.279428 269.106463 
L 289.669367 269.542204 
L 301.059307 269.739521 
L 312.449246 269.533983 
L 323.839186 269.895731 
L 335.229125 269.188678 
L 346.619064 270.569897 
L 358.009004 270.134156 
L 369.398943 270.282143 
L 380.788883 269.575091 
L 392.178822 269.377774 
L 403.568761 270.775436 
L 414.958701 269.961503 
L 426.34864 270.224593 
L 437.73858 270.619227 
L 449.128519 269.443546 
L 460.518458 271.285172 
L 471.908398 270.561676 
L 483.298337 271.400273 
L 494.688277 271.720914 
L 506.078216 271.252286 
L 517.468155 271.416717 
L 528.858095 271.663363 
L 540.248034 272.518404 
L 551.637973 273.381666 
L 563.027913 273.472103 
L 574.417852 273.850294 
L 585.807792 273.916066 
L 597.197731 273.817408 
L 608.58767 273.907845 
L 619.97761 273.833851 
L 631.367549 273.817408 
L 642.757489 273.866737 
L 654.147428 273.948952 
L 688.317246 273.981838 
L 711.097125 273.981838 
L 756.656883 273.981838 
L 824.996519 273.965395 
L 847.776398 273.981838 
L 859.166337 273.940731 
L 870.556277 273.981838 
L 927.505973 273.981838 
" style="fill:none;stroke:#f45b5b;stroke-linecap:square;"/>
   </g>
   <g id="line2d_16">
    <path clip-path="url(#p421089a6cc)" d="M 96.040398 125.574738 
L 107.430337 229.749929 
L 118.820277 261.05757 
L 130.210216 267.651249 
L 141.600155 269.180456 
L 152.990095 269.533983 
L 164.380034 269.492875 
L 175.769973 269.649084 
L 187.159913 269.484654 
L 198.549852 269.854623 
L 209.939792 270.05194 
L 221.329731 269.805294 
L 232.71967 270.05194 
L 244.10961 270.05194 
L 255.499549 269.821737 
L 266.889489 269.246229 
L 278.279428 269.320223 
L 289.669367 269.62442 
L 301.059307 269.484654 
L 312.449246 267.593698 
L 323.839186 272.271757 
L 335.229125 269.673749 
L 346.619064 270.035497 
L 358.009004 270.134156 
L 369.398943 270.216371 
L 380.788883 270.043719 
L 392.178822 269.862845 
L 403.568761 269.772408 
L 414.958701 269.090019 
L 426.34864 271.408495 
L 437.73858 270.487682 
L 449.128519 270.413688 
L 460.518458 270.405467 
L 471.908398 270.923424 
L 483.298337 271.120741 
L 494.688277 271.64692 
L 506.078216 271.408495 
L 517.468155 271.244064 
L 528.858095 271.762021 
L 540.248034 272.534847 
L 551.637973 273.324115 
L 563.027913 273.611869 
L 574.417852 273.842072 
L 585.807792 273.842072 
L 597.197731 273.874958 
L 608.58767 273.825629 
L 619.97761 273.817408 
L 631.367549 273.817408 
L 642.757489 273.858515 
L 654.147428 273.957174 
L 676.927307 273.981838 
L 722.487064 273.981838 
L 756.656883 273.973617 
L 836.386458 273.981838 
L 847.776398 273.981838 
L 859.166337 273.981838 
L 881.946216 273.965395 
L 916.116034 273.981838 
" style="fill:none;stroke:#91e8e1;stroke-linecap:square;"/>
   </g>
   <g id="line2d_17">
    <path clip-path="url(#p421089a6cc)" d="M 96.040398 144.59117 
L 107.430337 234.008689 
L 118.820277 262.192144 
L 130.210216 267.305944 
L 141.600155 268.514511 
L 152.990095 268.473404 
L 164.380034 268.489847 
L 175.769973 268.341859 
L 187.159913 268.448739 
L 198.549852 268.555619 
L 209.939792 268.563841 
L 221.329731 268.572062 
L 232.71967 268.193871 
L 244.10961 268.646056 
L 255.499549 267.971889 
L 266.889489 268.424074 
L 278.279428 267.774572 
L 289.669367 267.881452 
L 301.059307 267.133292 
L 312.449246 267.396381 
L 323.839186 267.141513 
L 335.229125 266.705772 
L 346.619064 268.761158 
L 358.009004 267.782794 
L 369.398943 267.560812 
L 380.788883 266.69755 
L 392.178822 266.261808 
L 403.568761 267.577255 
L 414.958701 266.352245 
L 426.34864 266.434461 
L 437.73858 266.837316 
L 449.128519 265.562977 
L 460.518458 268.621391 
L 471.908398 267.486818 
L 483.298337 268.728271 
L 494.688277 268.456961 
L 506.078216 268.61317 
L 517.468155 269.270893 
L 528.858095 270.134156 
L 540.248034 271.186513 
L 551.637973 272.575954 
L 563.027913 273.093912 
L 574.417852 273.578983 
L 585.807792 273.833851 
L 597.197731 273.578983 
L 608.58767 273.809186 
L 619.97761 273.56254 
L 631.367549 273.546097 
L 642.757489 273.62009 
L 654.147428 273.858515 
L 665.537367 273.965395 
L 676.927307 273.981838 
L 802.21664 273.981838 
L 813.60658 273.981838 
L 824.996519 273.965395 
L 859.166337 273.965395 
" style="fill:none;stroke:#7cb5ec;stroke-linecap:square;"/>
   </g>
   <g id="line2d_18">
    <path clip-path="url(#p421089a6cc)" d="M 96.040398 147.41116 
L 107.430337 235.620112 
L 118.820277 261.781066 
L 130.210216 267.157956 
L 141.600155 268.456961 
L 152.990095 268.481625 
L 164.380034 268.629613 
L 175.769973 268.276087 
L 187.159913 268.514511 
L 198.549852 268.646056 
L 209.939792 268.604948 
L 221.329731 268.456961 
L 232.71967 268.481625 
L 244.10961 268.555619 
L 255.499549 268.259643 
L 266.889489 268.037662 
L 278.279428 268.062326 
L 289.669367 267.856788 
L 301.059307 266.829095 
L 312.449246 264.584613 
L 323.839186 270.767215 
L 335.229125 267.478597 
L 346.619064 267.881452 
L 358.009004 267.741686 
L 369.398943 267.38816 
L 380.788883 267.166178 
L 392.178822 266.771544 
L 403.568761 266.689328 
L 414.958701 265.094349 
L 426.34864 268.407631 
L 437.73858 266.524898 
L 449.128519 267.001747 
L 460.518458 267.519704 
L 471.908398 267.799237 
L 483.298337 268.695385 
L 494.688277 268.333637 
L 506.078216 268.942032 
L 517.468155 269.213343 
L 528.858095 270.323251 
L 540.248034 271.030304 
L 551.637973 272.641727 
L 563.027913 273.373444 
L 574.417852 273.595426 
L 585.807792 273.710527 
L 597.197731 273.694084 
L 608.58767 273.603647 
L 619.97761 273.504989 
L 631.367549 273.521432 
L 642.757489 273.636534 
L 654.147428 273.833851 
L 665.537367 273.973617 
L 688.317246 273.981838 
L 756.656883 273.981838 
L 768.046822 273.981838 
L 802.21664 273.981838 
L 824.996519 273.981838 
L 859.166337 273.948952 
" style="fill:none;stroke:#434348;stroke-linecap:square;"/>
   </g>
   <g id="line2d_19">
    <path clip-path="url(#p421089a6cc)" d="M 53.328125 273.99006 
L 992.998125 273.99006 
" style="fill:none;stroke:#dedede;stroke-linecap:square;stroke-width:2;"/>
   </g>
   <g id="text_17">
    <!-- Cutadapt: Lengths of Trimmed Sequences -->
    <g transform="translate(355.498125 19.3575)scale(0.16 -0.16)">
     <defs>
      <path d="M 34.28125 27.484375 
Q 23.390625 27.484375 19.1875 25 
Q 14.984375 22.515625 14.984375 16.5 
Q 14.984375 11.71875 18.140625 8.90625 
Q 21.296875 6.109375 26.703125 6.109375 
Q 34.1875 6.109375 38.703125 11.40625 
Q 43.21875 16.703125 43.21875 25.484375 
L 43.21875 27.484375 
z
M 52.203125 31.203125 
L 52.203125 0 
L 43.21875 0 
L 43.21875 8.296875 
Q 40.140625 3.328125 35.546875 0.953125 
Q 30.953125 -1.421875 24.3125 -1.421875 
Q 15.921875 -1.421875 10.953125 3.296875 
Q 6 8.015625 6 15.921875 
Q 6 25.140625 12.171875 29.828125 
Q 18.359375 34.515625 30.609375 34.515625 
L 43.21875 34.515625 
L 43.21875 35.40625 
Q 43.21875 41.609375 39.140625 45 
Q 35.0625 48.390625 27.6875 48.390625 
Q 23 48.390625 18.546875 47.265625 
Q 14.109375 46.140625 10.015625 43.890625 
L 10.015625 52.203125 
Q 14.9375 54.109375 19.578125 55.046875 
Q 24.21875 56 28.609375 56 
Q 40.484375 56 46.34375 49.84375 
Q 52.203125 43.703125 52.203125 31.203125 
z
" id="DejaVuSans-97"/>
      <path d="M 11.71875 12.40625 
L 22.015625 12.40625 
L 22.015625 0 
L 11.71875 0 
z
M 11.71875 51.703125 
L 22.015625 51.703125 
L 22.015625 39.3125 
L 11.71875 39.3125 
z
" id="DejaVuSans-58"/>
      <path d="M 44.28125 53.078125 
L 44.28125 44.578125 
Q 40.484375 46.53125 36.375 47.5 
Q 32.28125 48.484375 27.875 48.484375 
Q 21.1875 48.484375 17.84375 46.4375 
Q 14.5 44.390625 14.5 40.28125 
Q 14.5 37.15625 16.890625 35.375 
Q 19.28125 33.59375 26.515625 31.984375 
L 29.59375 31.296875 
Q 39.15625 29.25 43.1875 25.515625 
Q 47.21875 21.78125 47.21875 15.09375 
Q 47.21875 7.46875 41.1875 3.015625 
Q 35.15625 -1.421875 24.609375 -1.421875 
Q 20.21875 -1.421875 15.453125 -0.5625 
Q 10.6875 0.296875 5.421875 2 
L 5.421875 11.28125 
Q 10.40625 8.6875 15.234375 7.390625 
Q 20.0625 6.109375 24.8125 6.109375 
Q 31.15625 6.109375 34.5625 8.28125 
Q 37.984375 10.453125 37.984375 14.40625 
Q 37.984375 18.0625 35.515625 20.015625 
Q 33.0625 21.96875 24.703125 23.78125 
L 21.578125 24.515625 
Q 13.234375 26.265625 9.515625 29.90625 
Q 5.8125 33.546875 5.8125 39.890625 
Q 5.8125 47.609375 11.28125 51.796875 
Q 16.75 56 26.8125 56 
Q 31.78125 56 36.171875 55.265625 
Q 40.578125 54.546875 44.28125 53.078125 
z
" id="DejaVuSans-115"/>
      <path d="M 37.109375 75.984375 
L 37.109375 68.5 
L 28.515625 68.5 
Q 23.6875 68.5 21.796875 66.546875 
Q 19.921875 64.59375 19.921875 59.515625 
L 19.921875 54.6875 
L 34.71875 54.6875 
L 34.71875 47.703125 
L 19.921875 47.703125 
L 19.921875 0 
L 10.890625 0 
L 10.890625 47.703125 
L 2.296875 47.703125 
L 2.296875 54.6875 
L 10.890625 54.6875 
L 10.890625 58.5 
Q 10.890625 67.625 15.140625 71.796875 
Q 19.390625 75.984375 28.609375 75.984375 
z
" id="DejaVuSans-102"/>
      <path d="M 53.515625 70.515625 
L 53.515625 60.890625 
Q 47.90625 63.578125 42.921875 64.890625 
Q 37.9375 66.21875 33.296875 66.21875 
Q 25.25 66.21875 20.875 63.09375 
Q 16.5 59.96875 16.5 54.203125 
Q 16.5 49.359375 19.40625 46.890625 
Q 22.3125 44.4375 30.421875 42.921875 
L 36.375 41.703125 
Q 47.40625 39.59375 52.65625 34.296875 
Q 57.90625 29 57.90625 20.125 
Q 57.90625 9.515625 50.796875 4.046875 
Q 43.703125 -1.421875 29.984375 -1.421875 
Q 24.8125 -1.421875 18.96875 -0.25 
Q 13.140625 0.921875 6.890625 3.21875 
L 6.890625 13.375 
Q 12.890625 10.015625 18.65625 8.296875 
Q 24.421875 6.59375 29.984375 6.59375 
Q 38.421875 6.59375 43.015625 9.90625 
Q 47.609375 13.234375 47.609375 19.390625 
Q 47.609375 24.75 44.3125 27.78125 
Q 41.015625 30.8125 33.5 32.328125 
L 27.484375 33.5 
Q 16.453125 35.6875 11.515625 40.375 
Q 6.59375 45.0625 6.59375 53.421875 
Q 6.59375 63.09375 13.40625 68.65625 
Q 20.21875 74.21875 32.171875 74.21875 
Q 37.3125 74.21875 42.625 73.28125 
Q 47.953125 72.359375 53.515625 70.515625 
z
" id="DejaVuSans-83"/>
      <path d="M 14.796875 27.296875 
Q 14.796875 17.390625 18.875 11.75 
Q 22.953125 6.109375 30.078125 6.109375 
Q 37.203125 6.109375 41.296875 11.75 
Q 45.40625 17.390625 45.40625 27.296875 
Q 45.40625 37.203125 41.296875 42.84375 
Q 37.203125 48.484375 30.078125 48.484375 
Q 22.953125 48.484375 18.875 42.84375 
Q 14.796875 37.203125 14.796875 27.296875 
z
M 45.40625 8.203125 
Q 42.578125 3.328125 38.25 0.953125 
Q 33.9375 -1.421875 27.875 -1.421875 
Q 17.96875 -1.421875 11.734375 6.484375 
Q 5.515625 14.40625 5.515625 27.296875 
Q 5.515625 40.1875 11.734375 48.09375 
Q 17.96875 56 27.875 56 
Q 33.9375 56 38.25 53.625 
Q 42.578125 51.265625 45.40625 46.390625 
L 45.40625 54.6875 
L 54.390625 54.6875 
L 54.390625 -20.796875 
L 45.40625 -20.796875 
z
" id="DejaVuSans-113"/>
      <path d="M 48.78125 52.59375 
L 48.78125 44.1875 
Q 44.96875 46.296875 41.140625 47.34375 
Q 37.3125 48.390625 33.40625 48.390625 
Q 24.65625 48.390625 19.8125 42.84375 
Q 14.984375 37.3125 14.984375 27.296875 
Q 14.984375 17.28125 19.8125 11.734375 
Q 24.65625 6.203125 33.40625 6.203125 
Q 37.3125 6.203125 41.140625 7.25 
Q 44.96875 8.296875 48.78125 10.40625 
L 48.78125 2.09375 
Q 45.015625 0.34375 40.984375 -0.53125 
Q 36.96875 -1.421875 32.421875 -1.421875 
Q 20.0625 -1.421875 12.78125 6.34375 
Q 5.515625 14.109375 5.515625 27.296875 
Q 5.515625 40.671875 12.859375 48.328125 
Q 20.21875 56 33.015625 56 
Q 37.15625 56 41.109375 55.140625 
Q 45.0625 54.296875 48.78125 52.59375 
z
" id="DejaVuSans-99"/>
     </defs>
     <use xlink:href="#DejaVuSans-67"/>
     <use x="69.824219" xlink:href="#DejaVuSans-117"/>
     <use x="133.203125" xlink:href="#DejaVuSans-116"/>
     <use x="172.412109" xlink:href="#DejaVuSans-97"/>
     <use x="233.691406" xlink:href="#DejaVuSans-100"/>
     <use x="297.167969" xlink:href="#DejaVuSans-97"/>
     <use x="358.447266" xlink:href="#DejaVuSans-112"/>
     <use x="421.923828" xlink:href="#DejaVuSans-116"/>
     <use x="461.132812" xlink:href="#DejaVuSans-58"/>
     <use x="494.824219" xlink:href="#DejaVuSans-32"/>
     <use x="526.611328" xlink:href="#DejaVuSans-76"/>
     <use x="580.574219" xlink:href="#DejaVuSans-101"/>
     <use x="642.097656" xlink:href="#DejaVuSans-110"/>
     <use x="705.476562" xlink:href="#DejaVuSans-103"/>
     <use x="768.953125" xlink:href="#DejaVuSans-116"/>
     <use x="808.162109" xlink:href="#DejaVuSans-104"/>
     <use x="871.541016" xlink:href="#DejaVuSans-115"/>
     <use x="923.640625" xlink:href="#DejaVuSans-32"/>
     <use x="955.427734" xlink:href="#DejaVuSans-111"/>
     <use x="1016.609375" xlink:href="#DejaVuSans-102"/>
     <use x="1051.814453" xlink:href="#DejaVuSans-32"/>
     <use x="1083.601562" xlink:href="#DejaVuSans-84"/>
     <use x="1129.935547" xlink:href="#DejaVuSans-114"/>
     <use x="1171.048828" xlink:href="#DejaVuSans-105"/>
     <use x="1198.832031" xlink:href="#DejaVuSans-109"/>
     <use x="1296.244141" xlink:href="#DejaVuSans-109"/>
     <use x="1393.65625" xlink:href="#DejaVuSans-101"/>
     <use x="1455.179688" xlink:href="#DejaVuSans-100"/>
     <use x="1518.65625" xlink:href="#DejaVuSans-32"/>
     <use x="1550.443359" xlink:href="#DejaVuSans-83"/>
     <use x="1613.919922" xlink:href="#DejaVuSans-101"/>
     <use x="1675.443359" xlink:href="#DejaVuSans-113"/>
     <use x="1738.919922" xlink:href="#DejaVuSans-117"/>
     <use x="1802.298828" xlink:href="#DejaVuSans-101"/>
     <use x="1863.822266" xlink:href="#DejaVuSans-110"/>
     <use x="1927.201172" xlink:href="#DejaVuSans-99"/>
     <use x="1982.181641" xlink:href="#DejaVuSans-101"/>
     <use x="2043.705078" xlink:href="#DejaVuSans-115"/>
    </g>
   </g>
   <g id="legend_1">
    <g id="line2d_20">
     <path d="M 60.528125 291.525394 
L 76.528125 291.525394 
" style="fill:none;stroke:#7cb5ec;stroke-linecap:square;"/>
    </g>
    <g id="line2d_21"/>
    <g id="text_18">
     <!-- SPT5_INPUT_R1_T1_1 - Adapter 1 -->
     <g transform="translate(82.928125 294.325394)scale(0.08 -0.08)">
      <defs>
       <path d="M 19.671875 64.796875 
L 19.671875 37.40625 
L 32.078125 37.40625 
Q 38.96875 37.40625 42.71875 40.96875 
Q 46.484375 44.53125 46.484375 51.125 
Q 46.484375 57.671875 42.71875 61.234375 
Q 38.96875 64.796875 32.078125 64.796875 
z
M 9.8125 72.90625 
L 32.078125 72.90625 
Q 44.34375 72.90625 50.609375 67.359375 
Q 56.890625 61.8125 56.890625 51.125 
Q 56.890625 40.328125 50.609375 34.8125 
Q 44.34375 29.296875 32.078125 29.296875 
L 19.671875 29.296875 
L 19.671875 0 
L 9.8125 0 
z
" id="DejaVuSans-80"/>
       <path d="M 50.984375 -16.609375 
L 50.984375 -23.578125 
L -0.984375 -23.578125 
L -0.984375 -16.609375 
z
" id="DejaVuSans-95"/>
       <path d="M 9.8125 72.90625 
L 19.671875 72.90625 
L 19.671875 0 
L 9.8125 0 
z
" id="DejaVuSans-73"/>
       <path d="M 9.8125 72.90625 
L 23.09375 72.90625 
L 55.421875 11.921875 
L 55.421875 72.90625 
L 64.984375 72.90625 
L 64.984375 0 
L 51.703125 0 
L 19.390625 60.984375 
L 19.390625 0 
L 9.8125 0 
z
" id="DejaVuSans-78"/>
       <path d="M 8.6875 72.90625 
L 18.609375 72.90625 
L 18.609375 28.609375 
Q 18.609375 16.890625 22.84375 11.734375 
Q 27.09375 6.59375 36.625 6.59375 
Q 46.09375 6.59375 50.34375 11.734375 
Q 54.59375 16.890625 54.59375 28.609375 
L 54.59375 72.90625 
L 64.5 72.90625 
L 64.5 27.390625 
Q 64.5 13.140625 57.4375 5.859375 
Q 50.390625 -1.421875 36.625 -1.421875 
Q 22.796875 -1.421875 15.734375 5.859375 
Q 8.6875 13.140625 8.6875 27.390625 
z
" id="DejaVuSans-85"/>
       <path d="M 44.390625 34.1875 
Q 47.5625 33.109375 50.5625 29.59375 
Q 53.5625 26.078125 56.59375 19.921875 
L 66.609375 0 
L 56 0 
L 46.6875 18.703125 
Q 43.0625 26.03125 39.671875 28.421875 
Q 36.28125 30.8125 30.421875 30.8125 
L 19.671875 30.8125 
L 19.671875 0 
L 9.8125 0 
L 9.8125 72.90625 
L 32.078125 72.90625 
Q 44.578125 72.90625 50.734375 67.671875 
Q 56.890625 62.453125 56.890625 51.90625 
Q 56.890625 45.015625 53.6875 40.46875 
Q 50.484375 35.9375 44.390625 34.1875 
z
M 19.671875 64.796875 
L 19.671875 38.921875 
L 32.078125 38.921875 
Q 39.203125 38.921875 42.84375 42.21875 
Q 46.484375 45.515625 46.484375 51.90625 
Q 46.484375 58.296875 42.84375 61.546875 
Q 39.203125 64.796875 32.078125 64.796875 
z
" id="DejaVuSans-82"/>
       <path d="M 4.890625 31.390625 
L 31.203125 31.390625 
L 31.203125 23.390625 
L 4.890625 23.390625 
z
" id="DejaVuSans-45"/>
       <path d="M 34.1875 63.1875 
L 20.796875 26.90625 
L 47.609375 26.90625 
z
M 28.609375 72.90625 
L 39.796875 72.90625 
L 67.578125 0 
L 57.328125 0 
L 50.6875 18.703125 
L 17.828125 18.703125 
L 11.1875 0 
L 0.78125 0 
z
" id="DejaVuSans-65"/>
      </defs>
      <use xlink:href="#DejaVuSans-83"/>
      <use x="63.476562" xlink:href="#DejaVuSans-80"/>
      <use x="123.779297" xlink:href="#DejaVuSans-84"/>
      <use x="184.863281" xlink:href="#DejaVuSans-53"/>
      <use x="248.486328" xlink:href="#DejaVuSans-95"/>
      <use x="298.486328" xlink:href="#DejaVuSans-73"/>
      <use x="327.978516" xlink:href="#DejaVuSans-78"/>
      <use x="402.783203" xlink:href="#DejaVuSans-80"/>
      <use x="463.085938" xlink:href="#DejaVuSans-85"/>
      <use x="536.279297" xlink:href="#DejaVuSans-84"/>
      <use x="597.363281" xlink:href="#DejaVuSans-95"/>
      <use x="647.363281" xlink:href="#DejaVuSans-82"/>
      <use x="716.845703" xlink:href="#DejaVuSans-49"/>
      <use x="780.46875" xlink:href="#DejaVuSans-95"/>
      <use x="830.46875" xlink:href="#DejaVuSans-84"/>
      <use x="891.552734" xlink:href="#DejaVuSans-49"/>
      <use x="955.175781" xlink:href="#DejaVuSans-95"/>
      <use x="1005.175781" xlink:href="#DejaVuSans-49"/>
      <use x="1068.798828" xlink:href="#DejaVuSans-32"/>
      <use x="1100.585938" xlink:href="#DejaVuSans-45"/>
      <use x="1136.669922" xlink:href="#DejaVuSans-32"/>
      <use x="1168.457031" xlink:href="#DejaVuSans-65"/>
      <use x="1235.115234" xlink:href="#DejaVuSans-100"/>
      <use x="1298.591797" xlink:href="#DejaVuSans-97"/>
      <use x="1359.871094" xlink:href="#DejaVuSans-112"/>
      <use x="1423.347656" xlink:href="#DejaVuSans-116"/>
      <use x="1462.556641" xlink:href="#DejaVuSans-101"/>
      <use x="1524.080078" xlink:href="#DejaVuSans-114"/>
      <use x="1565.193359" xlink:href="#DejaVuSans-32"/>
      <use x="1596.980469" xlink:href="#DejaVuSans-49"/>
     </g>
    </g>
    <g id="line2d_22">
     <path d="M 60.528125 303.490394 
L 76.528125 303.490394 
" style="fill:none;stroke:#434348;stroke-linecap:square;"/>
    </g>
    <g id="line2d_23"/>
    <g id="text_19">
     <!-- SPT5_INPUT_R1_T1_2 - Adapter 1 -->
     <g transform="translate(82.928125 306.290394)scale(0.08 -0.08)">
      <use xlink:href="#DejaVuSans-83"/>
      <use x="63.476562" xlink:href="#DejaVuSans-80"/>
      <use x="123.779297" xlink:href="#DejaVuSans-84"/>
      <use x="184.863281" xlink:href="#DejaVuSans-53"/>
      <use x="248.486328" xlink:href="#DejaVuSans-95"/>
      <use x="298.486328" xlink:href="#DejaVuSans-73"/>
      <use x="327.978516" xlink:href="#DejaVuSans-78"/>
      <use x="402.783203" xlink:href="#DejaVuSans-80"/>
      <use x="463.085938" xlink:href="#DejaVuSans-85"/>
      <use x="536.279297" xlink:href="#DejaVuSans-84"/>
      <use x="597.363281" xlink:href="#DejaVuSans-95"/>
      <use x="647.363281" xlink:href="#DejaVuSans-82"/>
      <use x="716.845703" xlink:href="#DejaVuSans-49"/>
      <use x="780.46875" xlink:href="#DejaVuSans-95"/>
      <use x="830.46875" xlink:href="#DejaVuSans-84"/>
      <use x="891.552734" xlink:href="#DejaVuSans-49"/>
      <use x="955.175781" xlink:href="#DejaVuSans-95"/>
      <use x="1005.175781" xlink:href="#DejaVuSans-50"/>
      <use x="1068.798828" xlink:href="#DejaVuSans-32"/>
      <use x="1100.585938" xlink:href="#DejaVuSans-45"/>
      <use x="1136.669922" xlink:href="#DejaVuSans-32"/>
      <use x="1168.457031" xlink:href="#DejaVuSans-65"/>
      <use x="1235.115234" xlink:href="#DejaVuSans-100"/>
      <use x="1298.591797" xlink:href="#DejaVuSans-97"/>
      <use x="1359.871094" xlink:href="#DejaVuSans-112"/>
      <use x="1423.347656" xlink:href="#DejaVuSans-116"/>
      <use x="1462.556641" xlink:href="#DejaVuSans-101"/>
      <use x="1524.080078" xlink:href="#DejaVuSans-114"/>
      <use x="1565.193359" xlink:href="#DejaVuSans-32"/>
      <use x="1596.980469" xlink:href="#DejaVuSans-49"/>
     </g>
    </g>
    <g id="line2d_24">
     <path d="M 60.528125 315.455394 
L 76.528125 315.455394 
" style="fill:none;stroke:#90ed7d;stroke-linecap:square;"/>
    </g>
    <g id="line2d_25"/>
    <g id="text_20">
     <!-- SPT5_INPUT_R2_T1_1 - Adapter 1 -->
     <g transform="translate(82.928125 318.255394)scale(0.08 -0.08)">
      <use xlink:href="#DejaVuSans-83"/>
      <use x="63.476562" xlink:href="#DejaVuSans-80"/>
      <use x="123.779297" xlink:href="#DejaVuSans-84"/>
      <use x="184.863281" xlink:href="#DejaVuSans-53"/>
      <use x="248.486328" xlink:href="#DejaVuSans-95"/>
      <use x="298.486328" xlink:href="#DejaVuSans-73"/>
      <use x="327.978516" xlink:href="#DejaVuSans-78"/>
      <use x="402.783203" xlink:href="#DejaVuSans-80"/>
      <use x="463.085938" xlink:href="#DejaVuSans-85"/>
      <use x="536.279297" xlink:href="#DejaVuSans-84"/>
      <use x="597.363281" xlink:href="#DejaVuSans-95"/>
      <use x="647.363281" xlink:href="#DejaVuSans-82"/>
      <use x="716.845703" xlink:href="#DejaVuSans-50"/>
      <use x="780.46875" xlink:href="#DejaVuSans-95"/>
      <use x="830.46875" xlink:href="#DejaVuSans-84"/>
      <use x="891.552734" xlink:href="#DejaVuSans-49"/>
      <use x="955.175781" xlink:href="#DejaVuSans-95"/>
      <use x="1005.175781" xlink:href="#DejaVuSans-49"/>
      <use x="1068.798828" xlink:href="#DejaVuSans-32"/>
      <use x="1100.585938" xlink:href="#DejaVuSans-45"/>
      <use x="1136.669922" xlink:href="#DejaVuSans-32"/>
      <use x="1168.457031" xlink:href="#DejaVuSans-65"/>
      <use x="1235.115234" xlink:href="#DejaVuSans-100"/>
      <use x="1298.591797" xlink:href="#DejaVuSans-97"/>
      <use x="1359.871094" xlink:href="#DejaVuSans-112"/>
      <use x="1423.347656" xlink:href="#DejaVuSans-116"/>
      <use x="1462.556641" xlink:href="#DejaVuSans-101"/>
      <use x="1524.080078" xlink:href="#DejaVuSans-114"/>
      <use x="1565.193359" xlink:href="#DejaVuSans-32"/>
      <use x="1596.980469" xlink:href="#DejaVuSans-49"/>
     </g>
    </g>
    <g id="line2d_26">
     <path d="M 260.939063 291.525394 
L 276.939063 291.525394 
" style="fill:none;stroke:#f7a35c;stroke-linecap:square;"/>
    </g>
    <g id="line2d_27"/>
    <g id="text_21">
     <!-- SPT5_INPUT_R2_T1_2 - Adapter 1 -->
     <g transform="translate(283.339063 294.325394)scale(0.08 -0.08)">
      <use xlink:href="#DejaVuSans-83"/>
      <use x="63.476562" xlink:href="#DejaVuSans-80"/>
      <use x="123.779297" xlink:href="#DejaVuSans-84"/>
      <use x="184.863281" xlink:href="#DejaVuSans-53"/>
      <use x="248.486328" xlink:href="#DejaVuSans-95"/>
      <use x="298.486328" xlink:href="#DejaVuSans-73"/>
      <use x="327.978516" xlink:href="#DejaVuSans-78"/>
      <use x="402.783203" xlink:href="#DejaVuSans-80"/>
      <use x="463.085938" xlink:href="#DejaVuSans-85"/>
      <use x="536.279297" xlink:href="#DejaVuSans-84"/>
      <use x="597.363281" xlink:href="#DejaVuSans-95"/>
      <use x="647.363281" xlink:href="#DejaVuSans-82"/>
      <use x="716.845703" xlink:href="#DejaVuSans-50"/>
      <use x="780.46875" xlink:href="#DejaVuSans-95"/>
      <use x="830.46875" xlink:href="#DejaVuSans-84"/>
      <use x="891.552734" xlink:href="#DejaVuSans-49"/>
      <use x="955.175781" xlink:href="#DejaVuSans-95"/>
      <use x="1005.175781" xlink:href="#DejaVuSans-50"/>
      <use x="1068.798828" xlink:href="#DejaVuSans-32"/>
      <use x="1100.585938" xlink:href="#DejaVuSans-45"/>
      <use x="1136.669922" xlink:href="#DejaVuSans-32"/>
      <use x="1168.457031" xlink:href="#DejaVuSans-65"/>
      <use x="1235.115234" xlink:href="#DejaVuSans-100"/>
      <use x="1298.591797" xlink:href="#DejaVuSans-97"/>
      <use x="1359.871094" xlink:href="#DejaVuSans-112"/>
      <use x="1423.347656" xlink:href="#DejaVuSans-116"/>
      <use x="1462.556641" xlink:href="#DejaVuSans-101"/>
      <use x="1524.080078" xlink:href="#DejaVuSans-114"/>
      <use x="1565.193359" xlink:href="#DejaVuSans-32"/>
      <use x="1596.980469" xlink:href="#DejaVuSans-49"/>
     </g>
    </g>
    <g id="line2d_28">
     <path d="M 260.939063 303.490394 
L 276.939063 303.490394 
" style="fill:none;stroke:#8085e9;stroke-linecap:square;"/>
    </g>
    <g id="line2d_29"/>
    <g id="text_22">
     <!-- SPT5_T0_R1_T1_1 - Adapter 1 -->
     <g transform="translate(283.339063 306.290394)scale(0.08 -0.08)">
      <use xlink:href="#DejaVuSans-83"/>
      <use x="63.476562" xlink:href="#DejaVuSans-80"/>
      <use x="123.779297" xlink:href="#DejaVuSans-84"/>
      <use x="184.863281" xlink:href="#DejaVuSans-53"/>
      <use x="248.486328" xlink:href="#DejaVuSans-95"/>
      <use x="298.486328" xlink:href="#DejaVuSans-84"/>
      <use x="359.570312" xlink:href="#DejaVuSans-48"/>
      <use x="423.193359" xlink:href="#DejaVuSans-95"/>
      <use x="473.193359" xlink:href="#DejaVuSans-82"/>
      <use x="542.675781" xlink:href="#DejaVuSans-49"/>
      <use x="606.298828" xlink:href="#DejaVuSans-95"/>
      <use x="656.298828" xlink:href="#DejaVuSans-84"/>
      <use x="717.382812" xlink:href="#DejaVuSans-49"/>
      <use x="781.005859" xlink:href="#DejaVuSans-95"/>
      <use x="831.005859" xlink:href="#DejaVuSans-49"/>
      <use x="894.628906" xlink:href="#DejaVuSans-32"/>
      <use x="926.416016" xlink:href="#DejaVuSans-45"/>
      <use x="962.5" xlink:href="#DejaVuSans-32"/>
      <use x="994.287109" xlink:href="#DejaVuSans-65"/>
      <use x="1060.945312" xlink:href="#DejaVuSans-100"/>
      <use x="1124.421875" xlink:href="#DejaVuSans-97"/>
      <use x="1185.701172" xlink:href="#DejaVuSans-112"/>
      <use x="1249.177734" xlink:href="#DejaVuSans-116"/>
      <use x="1288.386719" xlink:href="#DejaVuSans-101"/>
      <use x="1349.910156" xlink:href="#DejaVuSans-114"/>
      <use x="1391.023438" xlink:href="#DejaVuSans-32"/>
      <use x="1422.810547" xlink:href="#DejaVuSans-49"/>
     </g>
    </g>
    <g id="line2d_30">
     <path d="M 260.939063 315.455394 
L 276.939063 315.455394 
" style="fill:none;stroke:#f15c80;stroke-linecap:square;"/>
    </g>
    <g id="line2d_31"/>
    <g id="text_23">
     <!-- SPT5_T0_R1_T1_2 - Adapter 1 -->
     <g transform="translate(283.339063 318.255394)scale(0.08 -0.08)">
      <use xlink:href="#DejaVuSans-83"/>
      <use x="63.476562" xlink:href="#DejaVuSans-80"/>
      <use x="123.779297" xlink:href="#DejaVuSans-84"/>
      <use x="184.863281" xlink:href="#DejaVuSans-53"/>
      <use x="248.486328" xlink:href="#DejaVuSans-95"/>
      <use x="298.486328" xlink:href="#DejaVuSans-84"/>
      <use x="359.570312" xlink:href="#DejaVuSans-48"/>
      <use x="423.193359" xlink:href="#DejaVuSans-95"/>
      <use x="473.193359" xlink:href="#DejaVuSans-82"/>
      <use x="542.675781" xlink:href="#DejaVuSans-49"/>
      <use x="606.298828" xlink:href="#DejaVuSans-95"/>
      <use x="656.298828" xlink:href="#DejaVuSans-84"/>
      <use x="717.382812" xlink:href="#DejaVuSans-49"/>
      <use x="781.005859" xlink:href="#DejaVuSans-95"/>
      <use x="831.005859" xlink:href="#DejaVuSans-50"/>
      <use x="894.628906" xlink:href="#DejaVuSans-32"/>
      <use x="926.416016" xlink:href="#DejaVuSans-45"/>
      <use x="962.5" xlink:href="#DejaVuSans-32"/>
      <use x="994.287109" xlink:href="#DejaVuSans-65"/>
      <use x="1060.945312" xlink:href="#DejaVuSans-100"/>
      <use x="1124.421875" xlink:href="#DejaVuSans-97"/>
      <use x="1185.701172" xlink:href="#DejaVuSans-112"/>
      <use x="1249.177734" xlink:href="#DejaVuSans-116"/>
      <use x="1288.386719" xlink:href="#DejaVuSans-101"/>
      <use x="1349.910156" xlink:href="#DejaVuSans-114"/>
      <use x="1391.023438" xlink:href="#DejaVuSans-32"/>
      <use x="1422.810547" xlink:href="#DejaVuSans-49"/>
     </g>
    </g>
    <g id="line2d_32">
     <path d="M 461.35 291.525394 
L 477.35 291.525394 
" style="fill:none;stroke:#e4d354;stroke-linecap:square;"/>
    </g>
    <g id="line2d_33"/>
    <g id="text_24">
     <!-- SPT5_T0_R2_T1_1 - Adapter 1 -->
     <g transform="translate(483.75 294.325394)scale(0.08 -0.08)">
      <use xlink:href="#DejaVuSans-83"/>
      <use x="63.476562" xlink:href="#DejaVuSans-80"/>
      <use x="123.779297" xlink:href="#DejaVuSans-84"/>
      <use x="184.863281" xlink:href="#DejaVuSans-53"/>
      <use x="248.486328" xlink:href="#DejaVuSans-95"/>
      <use x="298.486328" xlink:href="#DejaVuSans-84"/>
      <use x="359.570312" xlink:href="#DejaVuSans-48"/>
      <use x="423.193359" xlink:href="#DejaVuSans-95"/>
      <use x="473.193359" xlink:href="#DejaVuSans-82"/>
      <use x="542.675781" xlink:href="#DejaVuSans-50"/>
      <use x="606.298828" xlink:href="#DejaVuSans-95"/>
      <use x="656.298828" xlink:href="#DejaVuSans-84"/>
      <use x="717.382812" xlink:href="#DejaVuSans-49"/>
      <use x="781.005859" xlink:href="#DejaVuSans-95"/>
      <use x="831.005859" xlink:href="#DejaVuSans-49"/>
      <use x="894.628906" xlink:href="#DejaVuSans-32"/>
      <use x="926.416016" xlink:href="#DejaVuSans-45"/>
      <use x="962.5" xlink:href="#DejaVuSans-32"/>
      <use x="994.287109" xlink:href="#DejaVuSans-65"/>
      <use x="1060.945312" xlink:href="#DejaVuSans-100"/>
      <use x="1124.421875" xlink:href="#DejaVuSans-97"/>
      <use x="1185.701172" xlink:href="#DejaVuSans-112"/>
      <use x="1249.177734" xlink:href="#DejaVuSans-116"/>
      <use x="1288.386719" xlink:href="#DejaVuSans-101"/>
      <use x="1349.910156" xlink:href="#DejaVuSans-114"/>
      <use x="1391.023438" xlink:href="#DejaVuSans-32"/>
      <use x="1422.810547" xlink:href="#DejaVuSans-49"/>
     </g>
    </g>
    <g id="line2d_34">
     <path d="M 461.35 303.490394 
L 477.35 303.490394 
" style="fill:none;stroke:#2b908f;stroke-linecap:square;"/>
    </g>
    <g id="line2d_35"/>
    <g id="text_25">
     <!-- SPT5_T0_R2_T1_2 - Adapter 1 -->
     <g transform="translate(483.75 306.290394)scale(0.08 -0.08)">
      <use xlink:href="#DejaVuSans-83"/>
      <use x="63.476562" xlink:href="#DejaVuSans-80"/>
      <use x="123.779297" xlink:href="#DejaVuSans-84"/>
      <use x="184.863281" xlink:href="#DejaVuSans-53"/>
      <use x="248.486328" xlink:href="#DejaVuSans-95"/>
      <use x="298.486328" xlink:href="#DejaVuSans-84"/>
      <use x="359.570312" xlink:href="#DejaVuSans-48"/>
      <use x="423.193359" xlink:href="#DejaVuSans-95"/>
      <use x="473.193359" xlink:href="#DejaVuSans-82"/>
      <use x="542.675781" xlink:href="#DejaVuSans-50"/>
      <use x="606.298828" xlink:href="#DejaVuSans-95"/>
      <use x="656.298828" xlink:href="#DejaVuSans-84"/>
      <use x="717.382812" xlink:href="#DejaVuSans-49"/>
      <use x="781.005859" xlink:href="#DejaVuSans-95"/>
      <use x="831.005859" xlink:href="#DejaVuSans-50"/>
      <use x="894.628906" xlink:href="#DejaVuSans-32"/>
      <use x="926.416016" xlink:href="#DejaVuSans-45"/>
      <use x="962.5" xlink:href="#DejaVuSans-32"/>
      <use x="994.287109" xlink:href="#DejaVuSans-65"/>
      <use x="1060.945312" xlink:href="#DejaVuSans-100"/>
      <use x="1124.421875" xlink:href="#DejaVuSans-97"/>
      <use x="1185.701172" xlink:href="#DejaVuSans-112"/>
      <use x="1249.177734" xlink:href="#DejaVuSans-116"/>
      <use x="1288.386719" xlink:href="#DejaVuSans-101"/>
      <use x="1349.910156" xlink:href="#DejaVuSans-114"/>
      <use x="1391.023438" xlink:href="#DejaVuSans-32"/>
      <use x="1422.810547" xlink:href="#DejaVuSans-49"/>
     </g>
    </g>
    <g id="line2d_36">
     <path d="M 647.827188 291.525394 
L 663.827188 291.525394 
" style="fill:none;stroke:#f45b5b;stroke-linecap:square;"/>
    </g>
    <g id="line2d_37"/>
    <g id="text_26">
     <!-- SPT5_T15_R1_T1_1 - Adapter 1 -->
     <g transform="translate(670.227188 294.325394)scale(0.08 -0.08)">
      <use xlink:href="#DejaVuSans-83"/>
      <use x="63.476562" xlink:href="#DejaVuSans-80"/>
      <use x="123.779297" xlink:href="#DejaVuSans-84"/>
      <use x="184.863281" xlink:href="#DejaVuSans-53"/>
      <use x="248.486328" xlink:href="#DejaVuSans-95"/>
      <use x="298.486328" xlink:href="#DejaVuSans-84"/>
      <use x="359.570312" xlink:href="#DejaVuSans-49"/>
      <use x="423.193359" xlink:href="#DejaVuSans-53"/>
      <use x="486.816406" xlink:href="#DejaVuSans-95"/>
      <use x="536.816406" xlink:href="#DejaVuSans-82"/>
      <use x="606.298828" xlink:href="#DejaVuSans-49"/>
      <use x="669.921875" xlink:href="#DejaVuSans-95"/>
      <use x="719.921875" xlink:href="#DejaVuSans-84"/>
      <use x="781.005859" xlink:href="#DejaVuSans-49"/>
      <use x="844.628906" xlink:href="#DejaVuSans-95"/>
      <use x="894.628906" xlink:href="#DejaVuSans-49"/>
      <use x="958.251953" xlink:href="#DejaVuSans-32"/>
      <use x="990.039062" xlink:href="#DejaVuSans-45"/>
      <use x="1026.123047" xlink:href="#DejaVuSans-32"/>
      <use x="1057.910156" xlink:href="#DejaVuSans-65"/>
      <use x="1124.568359" xlink:href="#DejaVuSans-100"/>
      <use x="1188.044922" xlink:href="#DejaVuSans-97"/>
      <use x="1249.324219" xlink:href="#DejaVuSans-112"/>
      <use x="1312.800781" xlink:href="#DejaVuSans-116"/>
      <use x="1352.009766" xlink:href="#DejaVuSans-101"/>
      <use x="1413.533203" xlink:href="#DejaVuSans-114"/>
      <use x="1454.646484" xlink:href="#DejaVuSans-32"/>
      <use x="1486.433594" xlink:href="#DejaVuSans-49"/>
     </g>
    </g>
    <g id="line2d_38">
     <path d="M 647.827188 303.490394 
L 663.827188 303.490394 
" style="fill:none;stroke:#91e8e1;stroke-linecap:square;"/>
    </g>
    <g id="line2d_39"/>
    <g id="text_27">
     <!-- SPT5_T15_R1_T1_2 - Adapter 1 -->
     <g transform="translate(670.227188 306.290394)scale(0.08 -0.08)">
      <use xlink:href="#DejaVuSans-83"/>
      <use x="63.476562" xlink:href="#DejaVuSans-80"/>
      <use x="123.779297" xlink:href="#DejaVuSans-84"/>
      <use x="184.863281" xlink:href="#DejaVuSans-53"/>
      <use x="248.486328" xlink:href="#DejaVuSans-95"/>
      <use x="298.486328" xlink:href="#DejaVuSans-84"/>
      <use x="359.570312" xlink:href="#DejaVuSans-49"/>
      <use x="423.193359" xlink:href="#DejaVuSans-53"/>
      <use x="486.816406" xlink:href="#DejaVuSans-95"/>
      <use x="536.816406" xlink:href="#DejaVuSans-82"/>
      <use x="606.298828" xlink:href="#DejaVuSans-49"/>
      <use x="669.921875" xlink:href="#DejaVuSans-95"/>
      <use x="719.921875" xlink:href="#DejaVuSans-84"/>
      <use x="781.005859" xlink:href="#DejaVuSans-49"/>
      <use x="844.628906" xlink:href="#DejaVuSans-95"/>
      <use x="894.628906" xlink:href="#DejaVuSans-50"/>
      <use x="958.251953" xlink:href="#DejaVuSans-32"/>
      <use x="990.039062" xlink:href="#DejaVuSans-45"/>
      <use x="1026.123047" xlink:href="#DejaVuSans-32"/>
      <use x="1057.910156" xlink:href="#DejaVuSans-65"/>
      <use x="1124.568359" xlink:href="#DejaVuSans-100"/>
      <use x="1188.044922" xlink:href="#DejaVuSans-97"/>
      <use x="1249.324219" xlink:href="#DejaVuSans-112"/>
      <use x="1312.800781" xlink:href="#DejaVuSans-116"/>
      <use x="1352.009766" xlink:href="#DejaVuSans-101"/>
      <use x="1413.533203" xlink:href="#DejaVuSans-114"/>
      <use x="1454.646484" xlink:href="#DejaVuSans-32"/>
      <use x="1486.433594" xlink:href="#DejaVuSans-49"/>
     </g>
    </g>
    <g id="line2d_40">
     <path d="M 839.394375 291.525394 
L 855.394375 291.525394 
" style="fill:none;stroke:#7cb5ec;stroke-linecap:square;"/>
    </g>
    <g id="line2d_41"/>
    <g id="text_28">
     <!-- SPT5_T15_R2_T1_1 - Adapter 1 -->
     <g transform="translate(861.794375 294.325394)scale(0.08 -0.08)">
      <use xlink:href="#DejaVuSans-83"/>
      <use x="63.476562" xlink:href="#DejaVuSans-80"/>
      <use x="123.779297" xlink:href="#DejaVuSans-84"/>
      <use x="184.863281" xlink:href="#DejaVuSans-53"/>
      <use x="248.486328" xlink:href="#DejaVuSans-95"/>
      <use x="298.486328" xlink:href="#DejaVuSans-84"/>
      <use x="359.570312" xlink:href="#DejaVuSans-49"/>
      <use x="423.193359" xlink:href="#DejaVuSans-53"/>
      <use x="486.816406" xlink:href="#DejaVuSans-95"/>
      <use x="536.816406" xlink:href="#DejaVuSans-82"/>
      <use x="606.298828" xlink:href="#DejaVuSans-50"/>
      <use x="669.921875" xlink:href="#DejaVuSans-95"/>
      <use x="719.921875" xlink:href="#DejaVuSans-84"/>
      <use x="781.005859" xlink:href="#DejaVuSans-49"/>
      <use x="844.628906" xlink:href="#DejaVuSans-95"/>
      <use x="894.628906" xlink:href="#DejaVuSans-49"/>
      <use x="958.251953" xlink:href="#DejaVuSans-32"/>
      <use x="990.039062" xlink:href="#DejaVuSans-45"/>
      <use x="1026.123047" xlink:href="#DejaVuSans-32"/>
      <use x="1057.910156" xlink:href="#DejaVuSans-65"/>
      <use x="1124.568359" xlink:href="#DejaVuSans-100"/>
      <use x="1188.044922" xlink:href="#DejaVuSans-97"/>
      <use x="1249.324219" xlink:href="#DejaVuSans-112"/>
      <use x="1312.800781" xlink:href="#DejaVuSans-116"/>
      <use x="1352.009766" xlink:href="#DejaVuSans-101"/>
      <use x="1413.533203" xlink:href="#DejaVuSans-114"/>
      <use x="1454.646484" xlink:href="#DejaVuSans-32"/>
      <use x="1486.433594" xlink:href="#DejaVuSans-49"/>
     </g>
    </g>
    <g id="line2d_42">
     <path d="M 839.394375 303.490394 
L 855.394375 303.490394 
" style="fill:none;stroke:#434348;stroke-linecap:square;"/>
    </g>
    <g id="line2d_43"/>
    <g id="text_29">
     <!-- SPT5_T15_R2_T1_2 - Adapter 1 -->
     <g transform="translate(861.794375 306.290394)scale(0.08 -0.08)">
      <use xlink:href="#DejaVuSans-83"/>
      <use x="63.476562" xlink:href="#DejaVuSans-80"/>
      <use x="123.779297" xlink:href="#DejaVuSans-84"/>
      <use x="184.863281" xlink:href="#DejaVuSans-53"/>
      <use x="248.486328" xlink:href="#DejaVuSans-95"/>
      <use x="298.486328" xlink:href="#DejaVuSans-84"/>
      <use x="359.570312" xlink:href="#DejaVuSans-49"/>
      <use x="423.193359" xlink:href="#DejaVuSans-53"/>
      <use x="486.816406" xlink:href="#DejaVuSans-95"/>
      <use x="536.816406" xlink:href="#DejaVuSans-82"/>
      <use x="606.298828" xlink:href="#DejaVuSans-50"/>
      <use x="669.921875" xlink:href="#DejaVuSans-95"/>
      <use x="719.921875" xlink:href="#DejaVuSans-84"/>
      <use x="781.005859" xlink:href="#DejaVuSans-49"/>
      <use x="844.628906" xlink:href="#DejaVuSans-95"/>
      <use x="894.628906" xlink:href="#DejaVuSans-50"/>
      <use x="958.251953" xlink:href="#DejaVuSans-32"/>
      <use x="990.039062" xlink:href="#DejaVuSans-45"/>
      <use x="1026.123047" xlink:href="#DejaVuSans-32"/>
      <use x="1057.910156" xlink:href="#DejaVuSans-65"/>
      <use x="1124.568359" xlink:href="#DejaVuSans-100"/>
      <use x="1188.044922" xlink:href="#DejaVuSans-97"/>
      <use x="1249.324219" xlink:href="#DejaVuSans-112"/>
      <use x="1312.800781" xlink:href="#DejaVuSans-116"/>
      <use x="1352.009766" xlink:href="#DejaVuSans-101"/>
      <use x="1413.533203" xlink:href="#DejaVuSans-114"/>
      <use x="1454.646484" xlink:href="#DejaVuSans-32"/>
      <use x="1486.433594" xlink:href="#DejaVuSans-49"/>
     </g>
    </g>
   </g>
  </g>
 </g>
 <defs>
  <clipPath id="p421089a6cc">
   <rect height="242.5072" width="939.67" x="53.328125" y="31.48286"/>
  </clipPath>
 </defs>
</svg>
