<?xml version="1.0" encoding="utf-8" standalone="no"?>
<!DOCTYPE svg PUBLIC "-//W3C//DTD SVG 1.1//EN"
  "http://www.w3.org/Graphics/SVG/1.1/DTD/svg11.dtd">
<!-- Created with matplotlib (https://matplotlib.org/) -->
<svg height="330.541644pt" version="1.1" viewBox="0 0 1000.311875 330.541644" width="1000.311875pt" xmlns="http://www.w3.org/2000/svg" xmlns:xlink="http://www.w3.org/1999/xlink">
 <metadata>
  <rdf:RDF xmlns:cc="http://creativecommons.org/ns#" xmlns:dc="http://purl.org/dc/elements/1.1/" xmlns:rdf="http://www.w3.org/1999/02/22-rdf-syntax-ns#">
   <cc:Work>
    <dc:type rdf:resource="http://purl.org/dc/dcmitype/StillImage"/>
    <dc:date>2021-02-15T10:54:19.391885</dc:date>
    <dc:format>image/svg+xml</dc:format>
    <dc:creator>
     <cc:Agent>
      <dc:title>Matplotlib v3.3.0, https://matplotlib.org/</dc:title>
     </cc:Agent>
    </dc:creator>
   </cc:Work>
  </rdf:RDF>
 </metadata>
 <defs>
  <style type="text/css">*{stroke-linecap:butt;stroke-linejoin:round;}</style>
 </defs>
 <g id="figure_1">
  <g id="axes_1">
   <g id="patch_1">
    <path d="M 40.600625 273.99006 
L 986.750625 273.99006 
L 986.750625 31.48286 
L 40.600625 31.48286 
z
" style="fill:#ffffff;"/>
   </g>
   <g id="matplotlib.axis_1">
    <g id="xtick_1">
     <g id="text_1">
      <!-- 0.0 -->
      <g transform="translate(34.239375 287.06881)scale(0.08 -0.08)">
       <defs>
        <path d="M 31.78125 66.40625 
Q 24.171875 66.40625 20.328125 58.90625 
Q 16.5 51.421875 16.5 36.375 
Q 16.5 21.390625 20.328125 13.890625 
Q 24.171875 6.390625 31.78125 6.390625 
Q 39.453125 6.390625 43.28125 13.890625 
Q 47.125 21.390625 47.125 36.375 
Q 47.125 51.421875 43.28125 58.90625 
Q 39.453125 66.40625 31.78125 66.40625 
z
M 31.78125 74.21875 
Q 44.046875 74.21875 50.515625 64.515625 
Q 56.984375 54.828125 56.984375 36.375 
Q 56.984375 17.96875 50.515625 8.265625 
Q 44.046875 -1.421875 31.78125 -1.421875 
Q 19.53125 -1.421875 13.0625 8.265625 
Q 6.59375 17.96875 6.59375 36.375 
Q 6.59375 54.828125 13.0625 64.515625 
Q 19.53125 74.21875 31.78125 74.21875 
z
" id="DejaVuSans-48"/>
        <path d="M 10.6875 12.40625 
L 21 12.40625 
L 21 0 
L 10.6875 0 
z
" id="DejaVuSans-46"/>
       </defs>
       <use xlink:href="#DejaVuSans-48"/>
       <use x="63.623047" xlink:href="#DejaVuSans-46"/>
       <use x="95.410156" xlink:href="#DejaVuSans-48"/>
      </g>
     </g>
    </g>
    <g id="xtick_2">
     <g id="text_2">
      <!-- 0.2 -->
      <g transform="translate(223.469375 287.06881)scale(0.08 -0.08)">
       <defs>
        <path d="M 19.1875 8.296875 
L 53.609375 8.296875 
L 53.609375 0 
L 7.328125 0 
L 7.328125 8.296875 
Q 12.9375 14.109375 22.625 23.890625 
Q 32.328125 33.6875 34.8125 36.53125 
Q 39.546875 41.84375 41.421875 45.53125 
Q 43.3125 49.21875 43.3125 52.78125 
Q 43.3125 58.59375 39.234375 62.25 
Q 35.15625 65.921875 28.609375 65.921875 
Q 23.96875 65.921875 18.8125 64.3125 
Q 13.671875 62.703125 7.8125 59.421875 
L 7.8125 69.390625 
Q 13.765625 71.78125 18.9375 73 
Q 24.125 74.21875 28.421875 74.21875 
Q 39.75 74.21875 46.484375 68.546875 
Q 53.21875 62.890625 53.21875 53.421875 
Q 53.21875 48.921875 51.53125 44.890625 
Q 49.859375 40.875 45.40625 35.40625 
Q 44.1875 33.984375 37.640625 27.21875 
Q 31.109375 20.453125 19.1875 8.296875 
z
" id="DejaVuSans-50"/>
       </defs>
       <use xlink:href="#DejaVuSans-48"/>
       <use x="63.623047" xlink:href="#DejaVuSans-46"/>
       <use x="95.410156" xlink:href="#DejaVuSans-50"/>
      </g>
     </g>
    </g>
    <g id="xtick_3">
     <g id="text_3">
      <!-- 0.4 -->
      <g transform="translate(412.699375 287.06881)scale(0.08 -0.08)">
       <defs>
        <path d="M 37.796875 64.3125 
L 12.890625 25.390625 
L 37.796875 25.390625 
z
M 35.203125 72.90625 
L 47.609375 72.90625 
L 47.609375 25.390625 
L 58.015625 25.390625 
L 58.015625 17.1875 
L 47.609375 17.1875 
L 47.609375 0 
L 37.796875 0 
L 37.796875 17.1875 
L 4.890625 17.1875 
L 4.890625 26.703125 
z
" id="DejaVuSans-52"/>
       </defs>
       <use xlink:href="#DejaVuSans-48"/>
       <use x="63.623047" xlink:href="#DejaVuSans-46"/>
       <use x="95.410156" xlink:href="#DejaVuSans-52"/>
      </g>
     </g>
    </g>
    <g id="xtick_4">
     <g id="text_4">
      <!-- 0.6 -->
      <g transform="translate(601.929375 287.06881)scale(0.08 -0.08)">
       <defs>
        <path d="M 33.015625 40.375 
Q 26.375 40.375 22.484375 35.828125 
Q 18.609375 31.296875 18.609375 23.390625 
Q 18.609375 15.53125 22.484375 10.953125 
Q 26.375 6.390625 33.015625 6.390625 
Q 39.65625 6.390625 43.53125 10.953125 
Q 47.40625 15.53125 47.40625 23.390625 
Q 47.40625 31.296875 43.53125 35.828125 
Q 39.65625 40.375 33.015625 40.375 
z
M 52.59375 71.296875 
L 52.59375 62.3125 
Q 48.875 64.0625 45.09375 64.984375 
Q 41.3125 65.921875 37.59375 65.921875 
Q 27.828125 65.921875 22.671875 59.328125 
Q 17.53125 52.734375 16.796875 39.40625 
Q 19.671875 43.65625 24.015625 45.921875 
Q 28.375 48.1875 33.59375 48.1875 
Q 44.578125 48.1875 50.953125 41.515625 
Q 57.328125 34.859375 57.328125 23.390625 
Q 57.328125 12.15625 50.6875 5.359375 
Q 44.046875 -1.421875 33.015625 -1.421875 
Q 20.359375 -1.421875 13.671875 8.265625 
Q 6.984375 17.96875 6.984375 36.375 
Q 6.984375 53.65625 15.1875 63.9375 
Q 23.390625 74.21875 37.203125 74.21875 
Q 40.921875 74.21875 44.703125 73.484375 
Q 48.484375 72.75 52.59375 71.296875 
z
" id="DejaVuSans-54"/>
       </defs>
       <use xlink:href="#DejaVuSans-48"/>
       <use x="63.623047" xlink:href="#DejaVuSans-46"/>
       <use x="95.410156" xlink:href="#DejaVuSans-54"/>
      </g>
     </g>
    </g>
    <g id="xtick_5">
     <g id="text_5">
      <!-- 0.8 -->
      <g transform="translate(791.159375 287.06881)scale(0.08 -0.08)">
       <defs>
        <path d="M 31.78125 34.625 
Q 24.75 34.625 20.71875 30.859375 
Q 16.703125 27.09375 16.703125 20.515625 
Q 16.703125 13.921875 20.71875 10.15625 
Q 24.75 6.390625 31.78125 6.390625 
Q 38.8125 6.390625 42.859375 10.171875 
Q 46.921875 13.96875 46.921875 20.515625 
Q 46.921875 27.09375 42.890625 30.859375 
Q 38.875 34.625 31.78125 34.625 
z
M 21.921875 38.8125 
Q 15.578125 40.375 12.03125 44.71875 
Q 8.5 49.078125 8.5 55.328125 
Q 8.5 64.0625 14.71875 69.140625 
Q 20.953125 74.21875 31.78125 74.21875 
Q 42.671875 74.21875 48.875 69.140625 
Q 55.078125 64.0625 55.078125 55.328125 
Q 55.078125 49.078125 51.53125 44.71875 
Q 48 40.375 41.703125 38.8125 
Q 48.828125 37.15625 52.796875 32.3125 
Q 56.78125 27.484375 56.78125 20.515625 
Q 56.78125 9.90625 50.3125 4.234375 
Q 43.84375 -1.421875 31.78125 -1.421875 
Q 19.734375 -1.421875 13.25 4.234375 
Q 6.78125 9.90625 6.78125 20.515625 
Q 6.78125 27.484375 10.78125 32.3125 
Q 14.796875 37.15625 21.921875 38.8125 
z
M 18.3125 54.390625 
Q 18.3125 48.734375 21.84375 45.5625 
Q 25.390625 42.390625 31.78125 42.390625 
Q 38.140625 42.390625 41.71875 45.5625 
Q 45.3125 48.734375 45.3125 54.390625 
Q 45.3125 60.0625 41.71875 63.234375 
Q 38.140625 66.40625 31.78125 66.40625 
Q 25.390625 66.40625 21.84375 63.234375 
Q 18.3125 60.0625 18.3125 54.390625 
z
" id="DejaVuSans-56"/>
       </defs>
       <use xlink:href="#DejaVuSans-48"/>
       <use x="63.623047" xlink:href="#DejaVuSans-46"/>
       <use x="95.410156" xlink:href="#DejaVuSans-56"/>
      </g>
     </g>
    </g>
    <g id="xtick_6">
     <g id="text_6">
      <!-- 1.0 -->
      <g transform="translate(980.389375 287.06881)scale(0.08 -0.08)">
       <defs>
        <path d="M 12.40625 8.296875 
L 28.515625 8.296875 
L 28.515625 63.921875 
L 10.984375 60.40625 
L 10.984375 69.390625 
L 28.421875 72.90625 
L 38.28125 72.90625 
L 38.28125 8.296875 
L 54.390625 8.296875 
L 54.390625 0 
L 12.40625 0 
z
" id="DejaVuSans-49"/>
       </defs>
       <use xlink:href="#DejaVuSans-49"/>
       <use x="63.623047" xlink:href="#DejaVuSans-46"/>
       <use x="95.410156" xlink:href="#DejaVuSans-48"/>
      </g>
     </g>
    </g>
    <g id="text_7">
     <!-- rank -->
     <g transform="translate(502.492031 300.330997)scale(0.1 -0.1)">
      <defs>
       <path d="M 41.109375 46.296875 
Q 39.59375 47.171875 37.8125 47.578125 
Q 36.03125 48 33.890625 48 
Q 26.265625 48 22.1875 43.046875 
Q 18.109375 38.09375 18.109375 28.8125 
L 18.109375 0 
L 9.078125 0 
L 9.078125 54.6875 
L 18.109375 54.6875 
L 18.109375 46.1875 
Q 20.953125 51.171875 25.484375 53.578125 
Q 30.03125 56 36.53125 56 
Q 37.453125 56 38.578125 55.875 
Q 39.703125 55.765625 41.0625 55.515625 
z
" id="DejaVuSans-114"/>
       <path d="M 34.28125 27.484375 
Q 23.390625 27.484375 19.1875 25 
Q 14.984375 22.515625 14.984375 16.5 
Q 14.984375 11.71875 18.140625 8.90625 
Q 21.296875 6.109375 26.703125 6.109375 
Q 34.1875 6.109375 38.703125 11.40625 
Q 43.21875 16.703125 43.21875 25.484375 
L 43.21875 27.484375 
z
M 52.203125 31.203125 
L 52.203125 0 
L 43.21875 0 
L 43.21875 8.296875 
Q 40.140625 3.328125 35.546875 0.953125 
Q 30.953125 -1.421875 24.3125 -1.421875 
Q 15.921875 -1.421875 10.953125 3.296875 
Q 6 8.015625 6 15.921875 
Q 6 25.140625 12.171875 29.828125 
Q 18.359375 34.515625 30.609375 34.515625 
L 43.21875 34.515625 
L 43.21875 35.40625 
Q 43.21875 41.609375 39.140625 45 
Q 35.0625 48.390625 27.6875 48.390625 
Q 23 48.390625 18.546875 47.265625 
Q 14.109375 46.140625 10.015625 43.890625 
L 10.015625 52.203125 
Q 14.9375 54.109375 19.578125 55.046875 
Q 24.21875 56 28.609375 56 
Q 40.484375 56 46.34375 49.84375 
Q 52.203125 43.703125 52.203125 31.203125 
z
" id="DejaVuSans-97"/>
       <path d="M 54.890625 33.015625 
L 54.890625 0 
L 45.90625 0 
L 45.90625 32.71875 
Q 45.90625 40.484375 42.875 44.328125 
Q 39.84375 48.1875 33.796875 48.1875 
Q 26.515625 48.1875 22.3125 43.546875 
Q 18.109375 38.921875 18.109375 30.90625 
L 18.109375 0 
L 9.078125 0 
L 9.078125 54.6875 
L 18.109375 54.6875 
L 18.109375 46.1875 
Q 21.34375 51.125 25.703125 53.5625 
Q 30.078125 56 35.796875 56 
Q 45.21875 56 50.046875 50.171875 
Q 54.890625 44.34375 54.890625 33.015625 
z
" id="DejaVuSans-110"/>
       <path d="M 9.078125 75.984375 
L 18.109375 75.984375 
L 18.109375 31.109375 
L 44.921875 54.6875 
L 56.390625 54.6875 
L 27.390625 29.109375 
L 57.625 0 
L 45.90625 0 
L 18.109375 26.703125 
L 18.109375 0 
L 9.078125 0 
z
" id="DejaVuSans-107"/>
      </defs>
      <use xlink:href="#DejaVuSans-114"/>
      <use x="41.113281" xlink:href="#DejaVuSans-97"/>
      <use x="102.392578" xlink:href="#DejaVuSans-110"/>
      <use x="165.771484" xlink:href="#DejaVuSans-107"/>
     </g>
    </g>
   </g>
   <g id="matplotlib.axis_2">
    <g id="ytick_1">
     <g id="line2d_1">
      <path clip-path="url(#pb20abd5e4b)" d="M 40.600625 273.99006 
L 986.750625 273.99006 
" style="fill:none;stroke:#dedede;stroke-linecap:square;"/>
     </g>
     <g id="text_8">
      <!-- 0.0 -->
      <g transform="translate(20.878125 277.029435)scale(0.08 -0.08)">
       <use xlink:href="#DejaVuSans-48"/>
       <use x="63.623047" xlink:href="#DejaVuSans-46"/>
       <use x="95.410156" xlink:href="#DejaVuSans-48"/>
      </g>
     </g>
    </g>
    <g id="ytick_2">
     <g id="line2d_2">
      <path clip-path="url(#pb20abd5e4b)" d="M 40.600625 225.48862 
L 986.750625 225.48862 
" style="fill:none;stroke:#dedede;stroke-linecap:square;"/>
     </g>
     <g id="text_9">
      <!-- 0.2 -->
      <g transform="translate(20.878125 228.527995)scale(0.08 -0.08)">
       <use xlink:href="#DejaVuSans-48"/>
       <use x="63.623047" xlink:href="#DejaVuSans-46"/>
       <use x="95.410156" xlink:href="#DejaVuSans-50"/>
      </g>
     </g>
    </g>
    <g id="ytick_3">
     <g id="line2d_3">
      <path clip-path="url(#pb20abd5e4b)" d="M 40.600625 176.98718 
L 986.750625 176.98718 
" style="fill:none;stroke:#dedede;stroke-linecap:square;"/>
     </g>
     <g id="text_10">
      <!-- 0.4 -->
      <g transform="translate(20.878125 180.026555)scale(0.08 -0.08)">
       <use xlink:href="#DejaVuSans-48"/>
       <use x="63.623047" xlink:href="#DejaVuSans-46"/>
       <use x="95.410156" xlink:href="#DejaVuSans-52"/>
      </g>
     </g>
    </g>
    <g id="ytick_4">
     <g id="line2d_4">
      <path clip-path="url(#pb20abd5e4b)" d="M 40.600625 128.48574 
L 986.750625 128.48574 
" style="fill:none;stroke:#dedede;stroke-linecap:square;"/>
     </g>
     <g id="text_11">
      <!-- 0.6 -->
      <g transform="translate(20.878125 131.525115)scale(0.08 -0.08)">
       <use xlink:href="#DejaVuSans-48"/>
       <use x="63.623047" xlink:href="#DejaVuSans-46"/>
       <use x="95.410156" xlink:href="#DejaVuSans-54"/>
      </g>
     </g>
    </g>
    <g id="ytick_5">
     <g id="line2d_5">
      <path clip-path="url(#pb20abd5e4b)" d="M 40.600625 79.9843 
L 986.750625 79.9843 
" style="fill:none;stroke:#dedede;stroke-linecap:square;"/>
     </g>
     <g id="text_12">
      <!-- 0.8 -->
      <g transform="translate(20.878125 83.023675)scale(0.08 -0.08)">
       <use xlink:href="#DejaVuSans-48"/>
       <use x="63.623047" xlink:href="#DejaVuSans-46"/>
       <use x="95.410156" xlink:href="#DejaVuSans-56"/>
      </g>
     </g>
    </g>
    <g id="ytick_6">
     <g id="line2d_6">
      <path clip-path="url(#pb20abd5e4b)" d="M 40.600625 31.48286 
L 986.750625 31.48286 
" style="fill:none;stroke:#dedede;stroke-linecap:square;"/>
     </g>
     <g id="text_13">
      <!-- 1.0 -->
      <g transform="translate(20.878125 34.522235)scale(0.08 -0.08)">
       <use xlink:href="#DejaVuSans-49"/>
       <use x="63.623047" xlink:href="#DejaVuSans-46"/>
       <use x="95.410156" xlink:href="#DejaVuSans-48"/>
      </g>
     </g>
    </g>
    <g id="text_14">
     <!-- Fraction w.r.t. bin with highest coverage -->
     <g transform="translate(14.798438 252.696616)rotate(-90)scale(0.1 -0.1)">
      <defs>
       <path d="M 9.8125 72.90625 
L 51.703125 72.90625 
L 51.703125 64.59375 
L 19.671875 64.59375 
L 19.671875 43.109375 
L 48.578125 43.109375 
L 48.578125 34.8125 
L 19.671875 34.8125 
L 19.671875 0 
L 9.8125 0 
z
" id="DejaVuSans-70"/>
       <path d="M 48.78125 52.59375 
L 48.78125 44.1875 
Q 44.96875 46.296875 41.140625 47.34375 
Q 37.3125 48.390625 33.40625 48.390625 
Q 24.65625 48.390625 19.8125 42.84375 
Q 14.984375 37.3125 14.984375 27.296875 
Q 14.984375 17.28125 19.8125 11.734375 
Q 24.65625 6.203125 33.40625 6.203125 
Q 37.3125 6.203125 41.140625 7.25 
Q 44.96875 8.296875 48.78125 10.40625 
L 48.78125 2.09375 
Q 45.015625 0.34375 40.984375 -0.53125 
Q 36.96875 -1.421875 32.421875 -1.421875 
Q 20.0625 -1.421875 12.78125 6.34375 
Q 5.515625 14.109375 5.515625 27.296875 
Q 5.515625 40.671875 12.859375 48.328125 
Q 20.21875 56 33.015625 56 
Q 37.15625 56 41.109375 55.140625 
Q 45.0625 54.296875 48.78125 52.59375 
z
" id="DejaVuSans-99"/>
       <path d="M 18.3125 70.21875 
L 18.3125 54.6875 
L 36.8125 54.6875 
L 36.8125 47.703125 
L 18.3125 47.703125 
L 18.3125 18.015625 
Q 18.3125 11.328125 20.140625 9.421875 
Q 21.96875 7.515625 27.59375 7.515625 
L 36.8125 7.515625 
L 36.8125 0 
L 27.59375 0 
Q 17.1875 0 13.234375 3.875 
Q 9.28125 7.765625 9.28125 18.015625 
L 9.28125 47.703125 
L 2.6875 47.703125 
L 2.6875 54.6875 
L 9.28125 54.6875 
L 9.28125 70.21875 
z
" id="DejaVuSans-116"/>
       <path d="M 9.421875 54.6875 
L 18.40625 54.6875 
L 18.40625 0 
L 9.421875 0 
z
M 9.421875 75.984375 
L 18.40625 75.984375 
L 18.40625 64.59375 
L 9.421875 64.59375 
z
" id="DejaVuSans-105"/>
       <path d="M 30.609375 48.390625 
Q 23.390625 48.390625 19.1875 42.75 
Q 14.984375 37.109375 14.984375 27.296875 
Q 14.984375 17.484375 19.15625 11.84375 
Q 23.34375 6.203125 30.609375 6.203125 
Q 37.796875 6.203125 41.984375 11.859375 
Q 46.1875 17.53125 46.1875 27.296875 
Q 46.1875 37.015625 41.984375 42.703125 
Q 37.796875 48.390625 30.609375 48.390625 
z
M 30.609375 56 
Q 42.328125 56 49.015625 48.375 
Q 55.71875 40.765625 55.71875 27.296875 
Q 55.71875 13.875 49.015625 6.21875 
Q 42.328125 -1.421875 30.609375 -1.421875 
Q 18.84375 -1.421875 12.171875 6.21875 
Q 5.515625 13.875 5.515625 27.296875 
Q 5.515625 40.765625 12.171875 48.375 
Q 18.84375 56 30.609375 56 
z
" id="DejaVuSans-111"/>
       <path id="DejaVuSans-32"/>
       <path d="M 4.203125 54.6875 
L 13.1875 54.6875 
L 24.421875 12.015625 
L 35.59375 54.6875 
L 46.1875 54.6875 
L 57.421875 12.015625 
L 68.609375 54.6875 
L 77.59375 54.6875 
L 63.28125 0 
L 52.6875 0 
L 40.921875 44.828125 
L 29.109375 0 
L 18.5 0 
z
" id="DejaVuSans-119"/>
       <path d="M 48.6875 27.296875 
Q 48.6875 37.203125 44.609375 42.84375 
Q 40.53125 48.484375 33.40625 48.484375 
Q 26.265625 48.484375 22.1875 42.84375 
Q 18.109375 37.203125 18.109375 27.296875 
Q 18.109375 17.390625 22.1875 11.75 
Q 26.265625 6.109375 33.40625 6.109375 
Q 40.53125 6.109375 44.609375 11.75 
Q 48.6875 17.390625 48.6875 27.296875 
z
M 18.109375 46.390625 
Q 20.953125 51.265625 25.265625 53.625 
Q 29.59375 56 35.59375 56 
Q 45.5625 56 51.78125 48.09375 
Q 58.015625 40.1875 58.015625 27.296875 
Q 58.015625 14.40625 51.78125 6.484375 
Q 45.5625 -1.421875 35.59375 -1.421875 
Q 29.59375 -1.421875 25.265625 0.953125 
Q 20.953125 3.328125 18.109375 8.203125 
L 18.109375 0 
L 9.078125 0 
L 9.078125 75.984375 
L 18.109375 75.984375 
z
" id="DejaVuSans-98"/>
       <path d="M 54.890625 33.015625 
L 54.890625 0 
L 45.90625 0 
L 45.90625 32.71875 
Q 45.90625 40.484375 42.875 44.328125 
Q 39.84375 48.1875 33.796875 48.1875 
Q 26.515625 48.1875 22.3125 43.546875 
Q 18.109375 38.921875 18.109375 30.90625 
L 18.109375 0 
L 9.078125 0 
L 9.078125 75.984375 
L 18.109375 75.984375 
L 18.109375 46.1875 
Q 21.34375 51.125 25.703125 53.5625 
Q 30.078125 56 35.796875 56 
Q 45.21875 56 50.046875 50.171875 
Q 54.890625 44.34375 54.890625 33.015625 
z
" id="DejaVuSans-104"/>
       <path d="M 45.40625 27.984375 
Q 45.40625 37.75 41.375 43.109375 
Q 37.359375 48.484375 30.078125 48.484375 
Q 22.859375 48.484375 18.828125 43.109375 
Q 14.796875 37.75 14.796875 27.984375 
Q 14.796875 18.265625 18.828125 12.890625 
Q 22.859375 7.515625 30.078125 7.515625 
Q 37.359375 7.515625 41.375 12.890625 
Q 45.40625 18.265625 45.40625 27.984375 
z
M 54.390625 6.78125 
Q 54.390625 -7.171875 48.1875 -13.984375 
Q 42 -20.796875 29.203125 -20.796875 
Q 24.46875 -20.796875 20.265625 -20.09375 
Q 16.0625 -19.390625 12.109375 -17.921875 
L 12.109375 -9.1875 
Q 16.0625 -11.328125 19.921875 -12.34375 
Q 23.78125 -13.375 27.78125 -13.375 
Q 36.625 -13.375 41.015625 -8.765625 
Q 45.40625 -4.15625 45.40625 5.171875 
L 45.40625 9.625 
Q 42.625 4.78125 38.28125 2.390625 
Q 33.9375 0 27.875 0 
Q 17.828125 0 11.671875 7.65625 
Q 5.515625 15.328125 5.515625 27.984375 
Q 5.515625 40.671875 11.671875 48.328125 
Q 17.828125 56 27.875 56 
Q 33.9375 56 38.28125 53.609375 
Q 42.625 51.21875 45.40625 46.390625 
L 45.40625 54.6875 
L 54.390625 54.6875 
z
" id="DejaVuSans-103"/>
       <path d="M 56.203125 29.59375 
L 56.203125 25.203125 
L 14.890625 25.203125 
Q 15.484375 15.921875 20.484375 11.0625 
Q 25.484375 6.203125 34.421875 6.203125 
Q 39.59375 6.203125 44.453125 7.46875 
Q 49.3125 8.734375 54.109375 11.28125 
L 54.109375 2.78125 
Q 49.265625 0.734375 44.1875 -0.34375 
Q 39.109375 -1.421875 33.890625 -1.421875 
Q 20.796875 -1.421875 13.15625 6.1875 
Q 5.515625 13.8125 5.515625 26.8125 
Q 5.515625 40.234375 12.765625 48.109375 
Q 20.015625 56 32.328125 56 
Q 43.359375 56 49.78125 48.890625 
Q 56.203125 41.796875 56.203125 29.59375 
z
M 47.21875 32.234375 
Q 47.125 39.59375 43.09375 43.984375 
Q 39.0625 48.390625 32.421875 48.390625 
Q 24.90625 48.390625 20.390625 44.140625 
Q 15.875 39.890625 15.1875 32.171875 
z
" id="DejaVuSans-101"/>
       <path d="M 44.28125 53.078125 
L 44.28125 44.578125 
Q 40.484375 46.53125 36.375 47.5 
Q 32.28125 48.484375 27.875 48.484375 
Q 21.1875 48.484375 17.84375 46.4375 
Q 14.5 44.390625 14.5 40.28125 
Q 14.5 37.15625 16.890625 35.375 
Q 19.28125 33.59375 26.515625 31.984375 
L 29.59375 31.296875 
Q 39.15625 29.25 43.1875 25.515625 
Q 47.21875 21.78125 47.21875 15.09375 
Q 47.21875 7.46875 41.1875 3.015625 
Q 35.15625 -1.421875 24.609375 -1.421875 
Q 20.21875 -1.421875 15.453125 -0.5625 
Q 10.6875 0.296875 5.421875 2 
L 5.421875 11.28125 
Q 10.40625 8.6875 15.234375 7.390625 
Q 20.0625 6.109375 24.8125 6.109375 
Q 31.15625 6.109375 34.5625 8.28125 
Q 37.984375 10.453125 37.984375 14.40625 
Q 37.984375 18.0625 35.515625 20.015625 
Q 33.0625 21.96875 24.703125 23.78125 
L 21.578125 24.515625 
Q 13.234375 26.265625 9.515625 29.90625 
Q 5.8125 33.546875 5.8125 39.890625 
Q 5.8125 47.609375 11.28125 51.796875 
Q 16.75 56 26.8125 56 
Q 31.78125 56 36.171875 55.265625 
Q 40.578125 54.546875 44.28125 53.078125 
z
" id="DejaVuSans-115"/>
       <path d="M 2.984375 54.6875 
L 12.5 54.6875 
L 29.59375 8.796875 
L 46.6875 54.6875 
L 56.203125 54.6875 
L 35.6875 0 
L 23.484375 0 
z
" id="DejaVuSans-118"/>
      </defs>
      <use xlink:href="#DejaVuSans-70"/>
      <use x="50.269531" xlink:href="#DejaVuSans-114"/>
      <use x="91.382812" xlink:href="#DejaVuSans-97"/>
      <use x="152.662109" xlink:href="#DejaVuSans-99"/>
      <use x="207.642578" xlink:href="#DejaVuSans-116"/>
      <use x="246.851562" xlink:href="#DejaVuSans-105"/>
      <use x="274.634766" xlink:href="#DejaVuSans-111"/>
      <use x="335.816406" xlink:href="#DejaVuSans-110"/>
      <use x="399.195312" xlink:href="#DejaVuSans-32"/>
      <use x="430.982422" xlink:href="#DejaVuSans-119"/>
      <use x="503.644531" xlink:href="#DejaVuSans-46"/>
      <use x="535.431641" xlink:href="#DejaVuSans-114"/>
      <use x="567.419922" xlink:href="#DejaVuSans-46"/>
      <use x="599.207031" xlink:href="#DejaVuSans-116"/>
      <use x="638.416016" xlink:href="#DejaVuSans-46"/>
      <use x="670.203125" xlink:href="#DejaVuSans-32"/>
      <use x="701.990234" xlink:href="#DejaVuSans-98"/>
      <use x="765.466797" xlink:href="#DejaVuSans-105"/>
      <use x="793.25" xlink:href="#DejaVuSans-110"/>
      <use x="856.628906" xlink:href="#DejaVuSans-32"/>
      <use x="888.416016" xlink:href="#DejaVuSans-119"/>
      <use x="970.203125" xlink:href="#DejaVuSans-105"/>
      <use x="997.986328" xlink:href="#DejaVuSans-116"/>
      <use x="1037.195312" xlink:href="#DejaVuSans-104"/>
      <use x="1100.574219" xlink:href="#DejaVuSans-32"/>
      <use x="1132.361328" xlink:href="#DejaVuSans-104"/>
      <use x="1195.740234" xlink:href="#DejaVuSans-105"/>
      <use x="1223.523438" xlink:href="#DejaVuSans-103"/>
      <use x="1287" xlink:href="#DejaVuSans-104"/>
      <use x="1350.378906" xlink:href="#DejaVuSans-101"/>
      <use x="1411.902344" xlink:href="#DejaVuSans-115"/>
      <use x="1464.001953" xlink:href="#DejaVuSans-116"/>
      <use x="1503.210938" xlink:href="#DejaVuSans-32"/>
      <use x="1534.998047" xlink:href="#DejaVuSans-99"/>
      <use x="1589.978516" xlink:href="#DejaVuSans-111"/>
      <use x="1651.160156" xlink:href="#DejaVuSans-118"/>
      <use x="1710.339844" xlink:href="#DejaVuSans-101"/>
      <use x="1771.863281" xlink:href="#DejaVuSans-114"/>
      <use x="1812.976562" xlink:href="#DejaVuSans-97"/>
      <use x="1874.255859" xlink:href="#DejaVuSans-103"/>
      <use x="1937.732422" xlink:href="#DejaVuSans-101"/>
     </g>
    </g>
   </g>
   <g id="line2d_7">
    <path clip-path="url(#pb20abd5e4b)" d="M 40.600625 273.99006 
L 49.968447 273.99006 
L 59.336269 273.99006 
L 68.70409 273.99006 
L 78.071912 273.658821 
L 87.439734 273.327583 
L 96.807556 272.989584 
L 106.175377 272.651586 
L 115.543199 272.191908 
L 124.911021 271.68491 
L 134.278843 271.137352 
L 143.646665 270.589795 
L 153.014486 269.934077 
L 162.382308 269.26484 
L 171.75013 268.588843 
L 181.117952 267.912846 
L 190.485774 267.209809 
L 199.853595 266.229613 
L 209.221417 265.242658 
L 218.589239 264.248942 
L 227.957061 263.241706 
L 237.324882 262.23447 
L 246.692704 261.173155 
L 256.060526 260.11184 
L 265.428348 259.009964 
L 274.79617 257.820209 
L 284.163991 256.488495 
L 293.531813 255.150021 
L 302.899635 253.804787 
L 312.267457 252.452792 
L 321.635278 251.100798 
L 331.0031 249.721764 
L 340.370922 248.32921 
L 349.738744 246.916376 
L 359.106566 245.422423 
L 368.474387 243.928469 
L 377.842209 242.306076 
L 387.210031 240.683683 
L 396.577853 239.03425 
L 405.945675 237.378057 
L 415.313496 235.627225 
L 424.681318 233.876392 
L 434.04914 232.07148 
L 443.416962 230.212488 
L 452.784783 228.353496 
L 462.152605 226.366064 
L 471.520427 224.351593 
L 480.888249 222.168122 
L 490.256071 219.971132 
L 499.623892 217.740341 
L 508.991714 215.502791 
L 518.359536 213.26524 
L 527.727358 210.94657 
L 537.095179 208.62114 
L 546.463001 206.234871 
L 555.830823 203.848601 
L 565.198645 201.455571 
L 574.566467 198.994942 
L 583.934288 196.459952 
L 593.30211 193.850604 
L 602.669932 191.193935 
L 612.037754 188.530506 
L 621.405575 185.846798 
L 630.773397 183.16309 
L 640.141219 180.472621 
L 649.509041 177.775393 
L 658.876863 174.970005 
L 668.244684 172.110537 
L 677.612506 169.224029 
L 686.980328 166.303722 
L 696.34815 163.363134 
L 705.715972 160.381987 
L 715.083793 157.28592 
L 724.451615 154.129014 
L 733.819437 150.938308 
L 743.187259 147.612402 
L 752.55508 144.259456 
L 761.922902 140.899751 
L 771.290724 137.519765 
L 780.658546 134.07894 
L 790.026368 130.570515 
L 799.394189 126.98773 
L 808.762011 123.357626 
L 818.129833 119.680202 
L 827.497655 115.982498 
L 836.865476 112.183394 
L 846.233298 108.188251 
L 855.60112 104.172828 
L 864.968942 100.143886 
L 874.336764 96.027063 
L 883.704585 91.592522 
L 893.072407 87.157981 
L 902.440229 82.486841 
L 911.808051 77.545302 
L 921.175873 72.461804 
L 930.543694 66.763149 
L 939.911516 60.557495 
L 949.279338 52.50637 
L 958.64716 44.205125 
L 968.014981 31.48286 
" style="fill:none;stroke:#7cb5ec;stroke-linecap:square;"/>
   </g>
   <g id="line2d_8">
    <path clip-path="url(#pb20abd5e4b)" d="M 40.600625 273.99006 
L 50.157696 273.99006 
L 59.714766 273.99006 
L 69.271837 273.799554 
L 78.828908 273.391327 
L 88.385979 272.738164 
L 97.943049 272.06459 
L 107.50012 271.384212 
L 117.057191 270.703833 
L 126.614261 269.962221 
L 136.171332 269.207001 
L 145.728403 268.220453 
L 155.285473 267.206689 
L 164.842544 266.192926 
L 174.399615 265.131536 
L 183.956686 264.036127 
L 193.513756 262.831858 
L 203.070827 261.579962 
L 212.627898 260.24642 
L 222.184968 258.912879 
L 231.742039 257.572534 
L 241.29911 256.232189 
L 250.856181 254.88504 
L 260.413251 253.503873 
L 269.970322 252.034256 
L 279.527393 250.435367 
L 289.084463 248.822871 
L 298.641534 247.14914 
L 308.198605 245.47541 
L 317.755676 243.794876 
L 327.312746 242.107538 
L 336.869817 240.413396 
L 346.426888 238.705647 
L 355.983958 236.977486 
L 365.541029 235.22211 
L 375.0981 233.391893 
L 384.65517 231.561676 
L 394.212241 229.683832 
L 403.769312 227.799184 
L 413.326383 225.785265 
L 422.883453 223.764542 
L 432.440524 221.737015 
L 441.997595 219.702684 
L 451.554665 217.620727 
L 461.111736 215.443516 
L 470.668807 213.245895 
L 480.225878 211.007451 
L 489.782948 208.673753 
L 499.340019 206.333252 
L 508.89709 203.97234 
L 518.45416 201.604624 
L 528.011231 199.236908 
L 537.568302 196.84878 
L 547.125372 194.453849 
L 556.682443 192.004488 
L 566.239514 189.500696 
L 575.796585 186.976493 
L 585.353655 184.45229 
L 594.910726 181.928086 
L 604.467797 179.329042 
L 614.024867 176.723193 
L 623.581938 174.069718 
L 633.139009 171.382224 
L 642.69608 168.681123 
L 652.25315 165.973218 
L 661.810221 163.197275 
L 671.367292 160.271649 
L 680.924362 157.298396 
L 690.481433 154.311536 
L 700.038504 151.29746 
L 709.595574 148.228954 
L 719.152645 145.044785 
L 728.709716 141.833399 
L 738.266787 138.533565 
L 747.823857 135.21332 
L 757.380928 131.893074 
L 766.937999 128.559221 
L 776.495069 125.164134 
L 786.05214 121.66699 
L 795.609211 118.101808 
L 805.166282 114.529822 
L 814.723352 110.951033 
L 824.280423 107.331421 
L 833.837494 103.609752 
L 843.394564 99.82685 
L 852.951635 95.83303 
L 862.508706 91.743957 
L 872.065777 87.552827 
L 881.622847 83.327678 
L 891.179918 79.027688 
L 900.736989 74.693679 
L 910.294059 70.312044 
L 919.85113 65.569808 
L 929.408201 60.548616 
L 938.965271 54.125846 
L 948.522342 47.471748 
L 958.079413 40.123663 
L 967.636484 31.48286 
" style="fill:none;stroke:#434348;stroke-linecap:square;"/>
   </g>
   <g id="line2d_9">
    <path clip-path="url(#pb20abd5e4b)" d="M 40.600625 273.99006 
L 49.968447 273.99006 
L 59.336269 273.99006 
L 68.70409 273.99006 
L 78.071912 273.99006 
L 87.439734 273.99006 
L 96.807556 273.99006 
L 106.175377 273.99006 
L 115.543199 273.99006 
L 124.911021 273.99006 
L 134.278843 273.99006 
L 143.646665 273.99006 
L 153.014486 273.99006 
L 162.382308 273.99006 
L 171.75013 273.99006 
L 181.117952 273.99006 
L 190.485774 273.99006 
L 199.853595 273.99006 
L 209.221417 273.99006 
L 218.589239 273.99006 
L 227.957061 273.99006 
L 237.324882 273.99006 
L 246.692704 273.982505 
L 256.060526 273.959842 
L 265.428348 273.895629 
L 274.79617 273.820084 
L 284.163991 273.706766 
L 293.531813 273.578339 
L 302.899635 273.434804 
L 312.267457 273.227055 
L 321.635278 272.981533 
L 331.0031 272.702017 
L 340.370922 272.418723 
L 349.738744 272.135429 
L 359.106566 271.848358 
L 368.474387 271.561286 
L 377.842209 271.274215 
L 387.210031 270.987144 
L 396.577853 270.700073 
L 405.945675 270.413001 
L 415.313496 270.095712 
L 424.681318 269.717987 
L 434.04914 269.340262 
L 443.416962 268.932318 
L 452.784783 268.463939 
L 462.152605 267.98045 
L 471.520427 267.470521 
L 480.888249 266.941706 
L 490.256071 266.41289 
L 499.623892 265.846302 
L 508.991714 265.279714 
L 518.359536 264.709349 
L 527.727358 264.135207 
L 537.095179 263.561064 
L 546.463001 262.986922 
L 555.830823 262.412779 
L 565.198645 261.679992 
L 574.566467 260.901878 
L 583.934288 260.07466 
L 593.30211 259.23611 
L 602.669932 258.390005 
L 612.037754 257.528791 
L 621.405575 256.603364 
L 630.773397 255.655274 
L 640.141219 254.68452 
L 649.509041 253.713766 
L 658.876863 252.735457 
L 668.244684 251.745817 
L 677.612506 250.733513 
L 686.980328 249.721209 
L 696.34815 248.693796 
L 705.715972 247.613502 
L 715.083793 246.518099 
L 724.451615 245.377368 
L 733.819437 244.229083 
L 743.187259 243.065689 
L 752.55508 241.656774 
L 761.922902 240.153427 
L 771.290724 238.604753 
L 780.658546 237.052302 
L 790.026368 235.367648 
L 799.394189 233.547012 
L 808.762011 231.688603 
L 818.129833 229.78109 
L 827.497655 227.850914 
L 836.865476 225.644998 
L 846.233298 222.898935 
L 855.60112 220.130209 
L 864.968942 217.267051 
L 874.336764 214.082827 
L 883.704585 209.587896 
L 893.072407 204.224196 
L 902.440229 196.121988 
L 911.808051 186.433334 
L 921.175873 165.250499 
L 930.543694 142.522768 
L 939.911516 117.770429 
L 949.279338 92.103994 
L 958.64716 62.932269 
L 968.014981 31.48286 
" style="fill:none;stroke:#90ed7d;stroke-linecap:square;"/>
   </g>
   <g id="line2d_10">
    <path clip-path="url(#pb20abd5e4b)" d="M 40.600625 273.99006 
L 50.157696 273.99006 
L 59.714766 273.99006 
L 69.271837 273.99006 
L 78.828908 273.99006 
L 88.385979 273.99006 
L 97.943049 273.99006 
L 107.50012 273.99006 
L 117.057191 273.99006 
L 126.614261 273.99006 
L 136.171332 273.99006 
L 145.728403 273.99006 
L 155.285473 273.99006 
L 164.842544 273.99006 
L 174.399615 273.99006 
L 183.956686 273.99006 
L 193.513756 273.99006 
L 203.070827 273.99006 
L 212.627898 273.99006 
L 222.184968 273.99006 
L 231.742039 273.99006 
L 241.29911 273.99006 
L 250.856181 273.99006 
L 260.413251 273.99006 
L 269.970322 273.99006 
L 279.527393 273.99006 
L 289.084463 273.99006 
L 298.641534 273.99006 
L 308.198605 273.99006 
L 317.755676 273.99006 
L 327.312746 273.981993 
L 336.869817 273.893251 
L 346.426888 273.764172 
L 355.983958 273.61089 
L 365.541029 273.413238 
L 375.0981 273.191384 
L 384.65517 272.892888 
L 394.212241 272.590359 
L 403.769312 272.283797 
L 413.326383 271.977234 
L 422.883453 271.670671 
L 432.440524 271.364109 
L 441.997595 271.057546 
L 451.554665 270.750983 
L 461.111736 270.444421 
L 470.668807 270.137858 
L 480.225878 269.831295 
L 489.782948 269.50053 
L 499.340019 269.153631 
L 508.89709 268.802697 
L 518.45416 268.443696 
L 528.011231 268.080661 
L 537.568302 267.717627 
L 547.125372 267.33039 
L 556.682443 266.846343 
L 566.239514 266.362297 
L 575.796585 265.821779 
L 585.353655 265.265125 
L 594.910726 264.664101 
L 604.467797 264.059043 
L 614.024867 263.453985 
L 623.581938 262.844894 
L 633.139009 262.231768 
L 642.69608 261.618643 
L 652.25315 261.005518 
L 661.810221 260.392392 
L 671.367292 259.7712 
L 680.924362 259.0774 
L 690.481433 258.222252 
L 700.038504 257.363069 
L 709.595574 256.447415 
L 719.152645 255.51966 
L 728.709716 254.527365 
L 738.266787 253.454395 
L 747.823857 252.324954 
L 757.380928 251.167277 
L 766.937999 250.001532 
L 776.495069 248.779315 
L 786.05214 247.557098 
L 795.609211 246.137229 
L 805.166282 244.697191 
L 814.723352 243.257153 
L 824.280423 241.772745 
L 833.837494 239.485626 
L 843.394564 237.133967 
L 852.951635 234.633061 
L 862.508706 231.914335 
L 872.065777 226.944793 
L 881.622847 220.22865 
L 891.179918 207.195703 
L 900.736989 193.747283 
L 910.294059 177.346181 
L 919.85113 159.408232 
L 929.408201 139.719648 
L 938.965271 118.276397 
L 948.522342 94.72351 
L 958.079413 65.059539 
L 967.636484 31.48286 
" style="fill:none;stroke:#f7a35c;stroke-linecap:square;"/>
   </g>
   <g id="line2d_11">
    <path clip-path="url(#pb20abd5e4b)" d="M 40.600625 273.99006 
L 50.157696 273.99006 
L 59.714766 273.99006 
L 69.271837 273.99006 
L 78.828908 273.99006 
L 88.385979 273.99006 
L 97.943049 273.99006 
L 107.50012 273.99006 
L 117.057191 273.99006 
L 126.614261 273.99006 
L 136.171332 273.99006 
L 145.728403 273.99006 
L 155.285473 273.99006 
L 164.842544 273.99006 
L 174.399615 273.99006 
L 183.956686 273.99006 
L 193.513756 273.99006 
L 203.070827 273.99006 
L 212.627898 273.99006 
L 222.184968 273.99006 
L 231.742039 273.99006 
L 241.29911 273.99006 
L 250.856181 273.99006 
L 260.413251 273.99006 
L 269.970322 273.970889 
L 279.527393 273.708885 
L 289.084463 273.370197 
L 298.641534 273.012337 
L 308.198605 272.616136 
L 317.755676 272.194373 
L 327.312746 271.715097 
L 336.869817 271.229431 
L 346.426888 270.743765 
L 355.983958 270.258099 
L 365.541029 269.72131 
L 375.0981 269.184521 
L 384.65517 268.634951 
L 394.212241 267.925623 
L 403.769312 267.082097 
L 413.326383 266.21301 
L 422.883453 265.331143 
L 432.440524 264.372591 
L 441.997595 263.407649 
L 451.554665 262.436316 
L 461.111736 261.464984 
L 470.668807 260.493651 
L 480.225878 259.522319 
L 489.782948 258.531816 
L 499.340019 257.522141 
L 508.89709 256.269633 
L 518.45416 254.870148 
L 528.011231 253.470662 
L 537.568302 252.058396 
L 547.125372 250.614178 
L 556.682443 249.16357 
L 566.239514 247.636277 
L 575.796585 246.077033 
L 585.353655 244.479447 
L 594.910726 242.805177 
L 604.467797 241.067003 
L 614.024867 239.303268 
L 623.581938 237.48841 
L 633.139009 235.628819 
L 642.69608 233.724497 
L 652.25315 231.801003 
L 661.810221 229.871119 
L 671.367292 227.934844 
L 680.924362 225.99857 
L 690.481433 224.062295 
L 700.038504 222.11324 
L 709.595574 220.138623 
L 719.152645 218.04898 
L 728.709716 215.607869 
L 738.266787 212.904753 
L 747.823857 210.118562 
L 757.380928 207.28764 
L 766.937999 204.360862 
L 776.495069 201.382961 
L 786.05214 198.353937 
L 795.609211 195.011787 
L 805.166282 191.599343 
L 814.723352 187.924894 
L 824.280423 184.148201 
L 833.837494 180.339555 
L 843.394564 176.288076 
L 852.951635 171.476147 
L 862.508706 166.236064 
L 872.065777 160.759538 
L 881.622847 153.864356 
L 891.179918 146.368481 
L 900.736989 138.00352 
L 910.294059 129.127331 
L 919.85113 118.231793 
L 929.408201 103.776832 
L 938.965271 89.09821 
L 948.522342 71.377783 
L 958.079413 52.206749 
L 967.636484 31.48286 
" style="fill:none;stroke:#8085e9;stroke-linecap:square;"/>
   </g>
   <g id="line2d_12">
    <path clip-path="url(#pb20abd5e4b)" d="M 40.600625 273.99006 
L 50.062125 273.99006 
L 59.523625 273.99006 
L 68.985125 273.99006 
L 78.446625 273.99006 
L 87.908125 273.99006 
L 97.369625 273.99006 
L 106.831125 273.99006 
L 116.292625 273.99006 
L 125.754125 273.99006 
L 135.215625 273.99006 
L 144.677125 273.99006 
L 154.138625 273.972267 
L 163.600125 273.758745 
L 173.061625 273.4266 
L 182.523125 272.999557 
L 191.984625 272.560651 
L 201.446125 272.121746 
L 210.907625 271.68284 
L 220.369125 271.238003 
L 229.830625 270.787235 
L 239.292125 270.336468 
L 248.753625 269.8857 
L 258.215125 269.417138 
L 267.676625 268.895196 
L 277.138125 268.337668 
L 286.599625 267.780139 
L 296.061125 267.198886 
L 305.522625 266.570183 
L 314.984125 265.923687 
L 324.445625 265.217879 
L 333.907125 264.494278 
L 343.368625 263.746953 
L 352.830125 262.952178 
L 362.291625 262.109953 
L 371.753125 261.244004 
L 381.214625 260.378056 
L 390.676125 259.512107 
L 400.137625 258.634296 
L 409.599125 257.738691 
L 419.060625 256.843086 
L 428.522125 255.94155 
L 437.983625 255.040015 
L 447.445125 254.138479 
L 456.906625 253.236943 
L 466.368125 252.335407 
L 475.829625 251.398285 
L 485.291125 250.271365 
L 494.752625 249.096996 
L 504.214125 247.916696 
L 513.675625 246.665222 
L 523.137125 245.372229 
L 532.598625 244.04365 
L 542.060125 242.70914 
L 551.521625 241.356836 
L 560.983125 239.974877 
L 570.444625 238.563262 
L 579.906125 237.086404 
L 589.367625 235.603614 
L 598.829125 234.067445 
L 608.290625 232.430446 
L 617.752125 230.751928 
L 627.213625 229.055618 
L 636.675125 227.311858 
L 646.136625 225.514717 
L 655.598125 223.687921 
L 665.059625 221.849262 
L 674.521125 219.654734 
L 683.982625 217.442413 
L 693.444125 215.111468 
L 702.905625 212.460241 
L 712.367125 209.791221 
L 721.828625 207.110338 
L 731.290125 204.370144 
L 740.751625 201.535051 
L 750.213125 198.699958 
L 759.674625 195.645412 
L 769.136125 192.495968 
L 778.597625 189.257557 
L 788.059125 185.983558 
L 797.520625 182.430796 
L 806.982125 178.860239 
L 816.443625 175.117679 
L 825.905125 171.339533 
L 835.366625 167.086893 
L 844.828125 162.7097 
L 854.289625 158.231677 
L 863.751125 153.415577 
L 873.212625 146.867581 
L 882.674125 139.655294 
L 892.135625 132.389627 
L 901.597125 124.66133 
L 911.058625 116.749167 
L 920.520125 107.057657 
L 929.981625 95.877427 
L 939.443125 82.010383 
L 948.904625 67.390082 
L 958.366125 52.50881 
L 967.827625 31.48286 
" style="fill:none;stroke:#f15c80;stroke-linecap:square;"/>
   </g>
   <g id="line2d_13">
    <path clip-path="url(#pb20abd5e4b)" d="M 40.600625 273.99006 
L 986.750625 273.99006 
" style="fill:none;stroke:#dedede;stroke-linecap:square;stroke-width:2;"/>
   </g>
   <g id="text_15">
    <!-- deepTools: Fingerprint plot -->
    <g transform="translate(407.454375 19.3575)scale(0.16 -0.16)">
     <defs>
      <path d="M 45.40625 46.390625 
L 45.40625 75.984375 
L 54.390625 75.984375 
L 54.390625 0 
L 45.40625 0 
L 45.40625 8.203125 
Q 42.578125 3.328125 38.25 0.953125 
Q 33.9375 -1.421875 27.875 -1.421875 
Q 17.96875 -1.421875 11.734375 6.484375 
Q 5.515625 14.40625 5.515625 27.296875 
Q 5.515625 40.1875 11.734375 48.09375 
Q 17.96875 56 27.875 56 
Q 33.9375 56 38.25 53.625 
Q 42.578125 51.265625 45.40625 46.390625 
z
M 14.796875 27.296875 
Q 14.796875 17.390625 18.875 11.75 
Q 22.953125 6.109375 30.078125 6.109375 
Q 37.203125 6.109375 41.296875 11.75 
Q 45.40625 17.390625 45.40625 27.296875 
Q 45.40625 37.203125 41.296875 42.84375 
Q 37.203125 48.484375 30.078125 48.484375 
Q 22.953125 48.484375 18.875 42.84375 
Q 14.796875 37.203125 14.796875 27.296875 
z
" id="DejaVuSans-100"/>
      <path d="M 18.109375 8.203125 
L 18.109375 -20.796875 
L 9.078125 -20.796875 
L 9.078125 54.6875 
L 18.109375 54.6875 
L 18.109375 46.390625 
Q 20.953125 51.265625 25.265625 53.625 
Q 29.59375 56 35.59375 56 
Q 45.5625 56 51.78125 48.09375 
Q 58.015625 40.1875 58.015625 27.296875 
Q 58.015625 14.40625 51.78125 6.484375 
Q 45.5625 -1.421875 35.59375 -1.421875 
Q 29.59375 -1.421875 25.265625 0.953125 
Q 20.953125 3.328125 18.109375 8.203125 
z
M 48.6875 27.296875 
Q 48.6875 37.203125 44.609375 42.84375 
Q 40.53125 48.484375 33.40625 48.484375 
Q 26.265625 48.484375 22.1875 42.84375 
Q 18.109375 37.203125 18.109375 27.296875 
Q 18.109375 17.390625 22.1875 11.75 
Q 26.265625 6.109375 33.40625 6.109375 
Q 40.53125 6.109375 44.609375 11.75 
Q 48.6875 17.390625 48.6875 27.296875 
z
" id="DejaVuSans-112"/>
      <path d="M -0.296875 72.90625 
L 61.375 72.90625 
L 61.375 64.59375 
L 35.5 64.59375 
L 35.5 0 
L 25.59375 0 
L 25.59375 64.59375 
L -0.296875 64.59375 
z
" id="DejaVuSans-84"/>
      <path d="M 9.421875 75.984375 
L 18.40625 75.984375 
L 18.40625 0 
L 9.421875 0 
z
" id="DejaVuSans-108"/>
      <path d="M 11.71875 12.40625 
L 22.015625 12.40625 
L 22.015625 0 
L 11.71875 0 
z
M 11.71875 51.703125 
L 22.015625 51.703125 
L 22.015625 39.3125 
L 11.71875 39.3125 
z
" id="DejaVuSans-58"/>
     </defs>
     <use xlink:href="#DejaVuSans-100"/>
     <use x="63.476562" xlink:href="#DejaVuSans-101"/>
     <use x="125" xlink:href="#DejaVuSans-101"/>
     <use x="186.523438" xlink:href="#DejaVuSans-112"/>
     <use x="250" xlink:href="#DejaVuSans-84"/>
     <use x="294.083984" xlink:href="#DejaVuSans-111"/>
     <use x="355.265625" xlink:href="#DejaVuSans-111"/>
     <use x="416.447266" xlink:href="#DejaVuSans-108"/>
     <use x="444.230469" xlink:href="#DejaVuSans-115"/>
     <use x="496.330078" xlink:href="#DejaVuSans-58"/>
     <use x="530.021484" xlink:href="#DejaVuSans-32"/>
     <use x="561.808594" xlink:href="#DejaVuSans-70"/>
     <use x="612.078125" xlink:href="#DejaVuSans-105"/>
     <use x="639.861328" xlink:href="#DejaVuSans-110"/>
     <use x="703.240234" xlink:href="#DejaVuSans-103"/>
     <use x="766.716797" xlink:href="#DejaVuSans-101"/>
     <use x="828.240234" xlink:href="#DejaVuSans-114"/>
     <use x="869.353516" xlink:href="#DejaVuSans-112"/>
     <use x="932.830078" xlink:href="#DejaVuSans-114"/>
     <use x="973.943359" xlink:href="#DejaVuSans-105"/>
     <use x="1001.726562" xlink:href="#DejaVuSans-110"/>
     <use x="1065.105469" xlink:href="#DejaVuSans-116"/>
     <use x="1104.314453" xlink:href="#DejaVuSans-32"/>
     <use x="1136.101562" xlink:href="#DejaVuSans-112"/>
     <use x="1199.578125" xlink:href="#DejaVuSans-108"/>
     <use x="1227.361328" xlink:href="#DejaVuSans-111"/>
     <use x="1288.542969" xlink:href="#DejaVuSans-116"/>
    </g>
   </g>
   <g id="legend_1">
    <g id="line2d_14">
     <path d="M 47.800625 303.490394 
L 63.800625 303.490394 
" style="fill:none;stroke:#7cb5ec;stroke-linecap:square;"/>
    </g>
    <g id="line2d_15"/>
    <g id="text_16">
     <!-- SPT5_INPUT_R1 -->
     <g transform="translate(70.200625 306.290394)scale(0.08 -0.08)">
      <defs>
       <path d="M 53.515625 70.515625 
L 53.515625 60.890625 
Q 47.90625 63.578125 42.921875 64.890625 
Q 37.9375 66.21875 33.296875 66.21875 
Q 25.25 66.21875 20.875 63.09375 
Q 16.5 59.96875 16.5 54.203125 
Q 16.5 49.359375 19.40625 46.890625 
Q 22.3125 44.4375 30.421875 42.921875 
L 36.375 41.703125 
Q 47.40625 39.59375 52.65625 34.296875 
Q 57.90625 29 57.90625 20.125 
Q 57.90625 9.515625 50.796875 4.046875 
Q 43.703125 -1.421875 29.984375 -1.421875 
Q 24.8125 -1.421875 18.96875 -0.25 
Q 13.140625 0.921875 6.890625 3.21875 
L 6.890625 13.375 
Q 12.890625 10.015625 18.65625 8.296875 
Q 24.421875 6.59375 29.984375 6.59375 
Q 38.421875 6.59375 43.015625 9.90625 
Q 47.609375 13.234375 47.609375 19.390625 
Q 47.609375 24.75 44.3125 27.78125 
Q 41.015625 30.8125 33.5 32.328125 
L 27.484375 33.5 
Q 16.453125 35.6875 11.515625 40.375 
Q 6.59375 45.0625 6.59375 53.421875 
Q 6.59375 63.09375 13.40625 68.65625 
Q 20.21875 74.21875 32.171875 74.21875 
Q 37.3125 74.21875 42.625 73.28125 
Q 47.953125 72.359375 53.515625 70.515625 
z
" id="DejaVuSans-83"/>
       <path d="M 19.671875 64.796875 
L 19.671875 37.40625 
L 32.078125 37.40625 
Q 38.96875 37.40625 42.71875 40.96875 
Q 46.484375 44.53125 46.484375 51.125 
Q 46.484375 57.671875 42.71875 61.234375 
Q 38.96875 64.796875 32.078125 64.796875 
z
M 9.8125 72.90625 
L 32.078125 72.90625 
Q 44.34375 72.90625 50.609375 67.359375 
Q 56.890625 61.8125 56.890625 51.125 
Q 56.890625 40.328125 50.609375 34.8125 
Q 44.34375 29.296875 32.078125 29.296875 
L 19.671875 29.296875 
L 19.671875 0 
L 9.8125 0 
z
" id="DejaVuSans-80"/>
       <path d="M 10.796875 72.90625 
L 49.515625 72.90625 
L 49.515625 64.59375 
L 19.828125 64.59375 
L 19.828125 46.734375 
Q 21.96875 47.46875 24.109375 47.828125 
Q 26.265625 48.1875 28.421875 48.1875 
Q 40.625 48.1875 47.75 41.5 
Q 54.890625 34.8125 54.890625 23.390625 
Q 54.890625 11.625 47.5625 5.09375 
Q 40.234375 -1.421875 26.90625 -1.421875 
Q 22.3125 -1.421875 17.546875 -0.640625 
Q 12.796875 0.140625 7.71875 1.703125 
L 7.71875 11.625 
Q 12.109375 9.234375 16.796875 8.0625 
Q 21.484375 6.890625 26.703125 6.890625 
Q 35.15625 6.890625 40.078125 11.328125 
Q 45.015625 15.765625 45.015625 23.390625 
Q 45.015625 31 40.078125 35.4375 
Q 35.15625 39.890625 26.703125 39.890625 
Q 22.75 39.890625 18.8125 39.015625 
Q 14.890625 38.140625 10.796875 36.28125 
z
" id="DejaVuSans-53"/>
       <path d="M 50.984375 -16.609375 
L 50.984375 -23.578125 
L -0.984375 -23.578125 
L -0.984375 -16.609375 
z
" id="DejaVuSans-95"/>
       <path d="M 9.8125 72.90625 
L 19.671875 72.90625 
L 19.671875 0 
L 9.8125 0 
z
" id="DejaVuSans-73"/>
       <path d="M 9.8125 72.90625 
L 23.09375 72.90625 
L 55.421875 11.921875 
L 55.421875 72.90625 
L 64.984375 72.90625 
L 64.984375 0 
L 51.703125 0 
L 19.390625 60.984375 
L 19.390625 0 
L 9.8125 0 
z
" id="DejaVuSans-78"/>
       <path d="M 8.6875 72.90625 
L 18.609375 72.90625 
L 18.609375 28.609375 
Q 18.609375 16.890625 22.84375 11.734375 
Q 27.09375 6.59375 36.625 6.59375 
Q 46.09375 6.59375 50.34375 11.734375 
Q 54.59375 16.890625 54.59375 28.609375 
L 54.59375 72.90625 
L 64.5 72.90625 
L 64.5 27.390625 
Q 64.5 13.140625 57.4375 5.859375 
Q 50.390625 -1.421875 36.625 -1.421875 
Q 22.796875 -1.421875 15.734375 5.859375 
Q 8.6875 13.140625 8.6875 27.390625 
z
" id="DejaVuSans-85"/>
       <path d="M 44.390625 34.1875 
Q 47.5625 33.109375 50.5625 29.59375 
Q 53.5625 26.078125 56.59375 19.921875 
L 66.609375 0 
L 56 0 
L 46.6875 18.703125 
Q 43.0625 26.03125 39.671875 28.421875 
Q 36.28125 30.8125 30.421875 30.8125 
L 19.671875 30.8125 
L 19.671875 0 
L 9.8125 0 
L 9.8125 72.90625 
L 32.078125 72.90625 
Q 44.578125 72.90625 50.734375 67.671875 
Q 56.890625 62.453125 56.890625 51.90625 
Q 56.890625 45.015625 53.6875 40.46875 
Q 50.484375 35.9375 44.390625 34.1875 
z
M 19.671875 64.796875 
L 19.671875 38.921875 
L 32.078125 38.921875 
Q 39.203125 38.921875 42.84375 42.21875 
Q 46.484375 45.515625 46.484375 51.90625 
Q 46.484375 58.296875 42.84375 61.546875 
Q 39.203125 64.796875 32.078125 64.796875 
z
" id="DejaVuSans-82"/>
      </defs>
      <use xlink:href="#DejaVuSans-83"/>
      <use x="63.476562" xlink:href="#DejaVuSans-80"/>
      <use x="123.779297" xlink:href="#DejaVuSans-84"/>
      <use x="184.863281" xlink:href="#DejaVuSans-53"/>
      <use x="248.486328" xlink:href="#DejaVuSans-95"/>
      <use x="298.486328" xlink:href="#DejaVuSans-73"/>
      <use x="327.978516" xlink:href="#DejaVuSans-78"/>
      <use x="402.783203" xlink:href="#DejaVuSans-80"/>
      <use x="463.085938" xlink:href="#DejaVuSans-85"/>
      <use x="536.279297" xlink:href="#DejaVuSans-84"/>
      <use x="597.363281" xlink:href="#DejaVuSans-95"/>
      <use x="647.363281" xlink:href="#DejaVuSans-82"/>
      <use x="716.845703" xlink:href="#DejaVuSans-49"/>
     </g>
    </g>
    <g id="line2d_16">
     <path d="M 47.800625 315.455394 
L 63.800625 315.455394 
" style="fill:none;stroke:#434348;stroke-linecap:square;"/>
    </g>
    <g id="line2d_17"/>
    <g id="text_17">
     <!-- SPT5_INPUT_R2 -->
     <g transform="translate(70.200625 318.255394)scale(0.08 -0.08)">
      <use xlink:href="#DejaVuSans-83"/>
      <use x="63.476562" xlink:href="#DejaVuSans-80"/>
      <use x="123.779297" xlink:href="#DejaVuSans-84"/>
      <use x="184.863281" xlink:href="#DejaVuSans-53"/>
      <use x="248.486328" xlink:href="#DejaVuSans-95"/>
      <use x="298.486328" xlink:href="#DejaVuSans-73"/>
      <use x="327.978516" xlink:href="#DejaVuSans-78"/>
      <use x="402.783203" xlink:href="#DejaVuSans-80"/>
      <use x="463.085938" xlink:href="#DejaVuSans-85"/>
      <use x="536.279297" xlink:href="#DejaVuSans-84"/>
      <use x="597.363281" xlink:href="#DejaVuSans-95"/>
      <use x="647.363281" xlink:href="#DejaVuSans-82"/>
      <use x="716.845703" xlink:href="#DejaVuSans-50"/>
     </g>
    </g>
    <g id="line2d_18">
     <path d="M 270.9175 303.490394 
L 286.9175 303.490394 
" style="fill:none;stroke:#90ed7d;stroke-linecap:square;"/>
    </g>
    <g id="line2d_19"/>
    <g id="text_18">
     <!-- SPT5_T0_R1 -->
     <g transform="translate(293.3175 306.290394)scale(0.08 -0.08)">
      <use xlink:href="#DejaVuSans-83"/>
      <use x="63.476562" xlink:href="#DejaVuSans-80"/>
      <use x="123.779297" xlink:href="#DejaVuSans-84"/>
      <use x="184.863281" xlink:href="#DejaVuSans-53"/>
      <use x="248.486328" xlink:href="#DejaVuSans-95"/>
      <use x="298.486328" xlink:href="#DejaVuSans-84"/>
      <use x="359.570312" xlink:href="#DejaVuSans-48"/>
      <use x="423.193359" xlink:href="#DejaVuSans-95"/>
      <use x="473.193359" xlink:href="#DejaVuSans-82"/>
      <use x="542.675781" xlink:href="#DejaVuSans-49"/>
     </g>
    </g>
    <g id="line2d_20">
     <path d="M 480.100625 303.490394 
L 496.100625 303.490394 
" style="fill:none;stroke:#f7a35c;stroke-linecap:square;"/>
    </g>
    <g id="line2d_21"/>
    <g id="text_19">
     <!-- SPT5_T0_R2 -->
     <g transform="translate(502.500625 306.290394)scale(0.08 -0.08)">
      <use xlink:href="#DejaVuSans-83"/>
      <use x="63.476562" xlink:href="#DejaVuSans-80"/>
      <use x="123.779297" xlink:href="#DejaVuSans-84"/>
      <use x="184.863281" xlink:href="#DejaVuSans-53"/>
      <use x="248.486328" xlink:href="#DejaVuSans-95"/>
      <use x="298.486328" xlink:href="#DejaVuSans-84"/>
      <use x="359.570312" xlink:href="#DejaVuSans-48"/>
      <use x="423.193359" xlink:href="#DejaVuSans-95"/>
      <use x="473.193359" xlink:href="#DejaVuSans-82"/>
      <use x="542.675781" xlink:href="#DejaVuSans-50"/>
     </g>
    </g>
    <g id="line2d_22">
     <path d="M 689.28375 303.490394 
L 705.28375 303.490394 
" style="fill:none;stroke:#8085e9;stroke-linecap:square;"/>
    </g>
    <g id="line2d_23"/>
    <g id="text_20">
     <!-- SPT5_T15_R1 -->
     <g transform="translate(711.68375 306.290394)scale(0.08 -0.08)">
      <use xlink:href="#DejaVuSans-83"/>
      <use x="63.476562" xlink:href="#DejaVuSans-80"/>
      <use x="123.779297" xlink:href="#DejaVuSans-84"/>
      <use x="184.863281" xlink:href="#DejaVuSans-53"/>
      <use x="248.486328" xlink:href="#DejaVuSans-95"/>
      <use x="298.486328" xlink:href="#DejaVuSans-84"/>
      <use x="359.570312" xlink:href="#DejaVuSans-49"/>
      <use x="423.193359" xlink:href="#DejaVuSans-53"/>
      <use x="486.816406" xlink:href="#DejaVuSans-95"/>
      <use x="536.816406" xlink:href="#DejaVuSans-82"/>
      <use x="606.298828" xlink:href="#DejaVuSans-49"/>
     </g>
    </g>
    <g id="line2d_24">
     <path d="M 903.556875 303.490394 
L 919.556875 303.490394 
" style="fill:none;stroke:#f15c80;stroke-linecap:square;"/>
    </g>
    <g id="line2d_25"/>
    <g id="text_21">
     <!-- SPT5_T15_R2 -->
     <g transform="translate(925.956875 306.290394)scale(0.08 -0.08)">
      <use xlink:href="#DejaVuSans-83"/>
      <use x="63.476562" xlink:href="#DejaVuSans-80"/>
      <use x="123.779297" xlink:href="#DejaVuSans-84"/>
      <use x="184.863281" xlink:href="#DejaVuSans-53"/>
      <use x="248.486328" xlink:href="#DejaVuSans-95"/>
      <use x="298.486328" xlink:href="#DejaVuSans-84"/>
      <use x="359.570312" xlink:href="#DejaVuSans-49"/>
      <use x="423.193359" xlink:href="#DejaVuSans-53"/>
      <use x="486.816406" xlink:href="#DejaVuSans-95"/>
      <use x="536.816406" xlink:href="#DejaVuSans-82"/>
      <use x="606.298828" xlink:href="#DejaVuSans-50"/>
     </g>
    </g>
   </g>
  </g>
 </g>
 <defs>
  <clipPath id="pb20abd5e4b">
   <rect height="242.5072" width="946.15" x="40.600625" y="31.48286"/>
  </clipPath>
 </defs>
</svg>
