<?xml version="1.0" encoding="utf-8" standalone="no"?>
<!DOCTYPE svg PUBLIC "-//W3C//DTD SVG 1.1//EN"
  "http://www.w3.org/Graphics/SVG/1.1/DTD/svg11.dtd">
<!-- Created with matplotlib (https://matplotlib.org/) -->
<svg height="330.541644pt" version="1.1" viewBox="0 0 1000.138125 330.541644" width="1000.138125pt" xmlns="http://www.w3.org/2000/svg" xmlns:xlink="http://www.w3.org/1999/xlink">
 <metadata>
  <rdf:RDF xmlns:cc="http://creativecommons.org/ns#" xmlns:dc="http://purl.org/dc/elements/1.1/" xmlns:rdf="http://www.w3.org/1999/02/22-rdf-syntax-ns#">
   <cc:Work>
    <dc:type rdf:resource="http://purl.org/dc/dcmitype/StillImage"/>
    <dc:date>2021-02-17T12:35:54.312715</dc:date>
    <dc:format>image/svg+xml</dc:format>
    <dc:creator>
     <cc:Agent>
      <dc:title>Matplotlib v3.3.0, https://matplotlib.org/</dc:title>
     </cc:Agent>
    </dc:creator>
   </cc:Work>
  </rdf:RDF>
 </metadata>
 <defs>
  <style type="text/css">*{stroke-linecap:butt;stroke-linejoin:round;}</style>
 </defs>
 <g id="figure_1">
  <g id="axes_1">
   <g id="patch_1">
    <path d="M 53.328125 273.99006 
L 985.303125 273.99006 
L 985.303125 31.48286 
L 53.328125 31.48286 
z
" style="fill:#ffffff;"/>
   </g>
   <g id="matplotlib.axis_1">
    <g id="xtick_1">
     <g id="text_1">
      <!-- 0 -->
      <g transform="translate(50.783125 287.06881)scale(0.08 -0.08)">
       <defs>
        <path d="M 31.78125 66.40625 
Q 24.171875 66.40625 20.328125 58.90625 
Q 16.5 51.421875 16.5 36.375 
Q 16.5 21.390625 20.328125 13.890625 
Q 24.171875 6.390625 31.78125 6.390625 
Q 39.453125 6.390625 43.28125 13.890625 
Q 47.125 21.390625 47.125 36.375 
Q 47.125 51.421875 43.28125 58.90625 
Q 39.453125 66.40625 31.78125 66.40625 
z
M 31.78125 74.21875 
Q 44.046875 74.21875 50.515625 64.515625 
Q 56.984375 54.828125 56.984375 36.375 
Q 56.984375 17.96875 50.515625 8.265625 
Q 44.046875 -1.421875 31.78125 -1.421875 
Q 19.53125 -1.421875 13.0625 8.265625 
Q 6.59375 17.96875 6.59375 36.375 
Q 6.59375 54.828125 13.0625 64.515625 
Q 19.53125 74.21875 31.78125 74.21875 
z
" id="DejaVuSans-48"/>
       </defs>
       <use xlink:href="#DejaVuSans-48"/>
      </g>
     </g>
    </g>
    <g id="xtick_2">
     <g id="text_2">
      <!-- 20 -->
      <g transform="translate(234.633125 287.06881)scale(0.08 -0.08)">
       <defs>
        <path d="M 19.1875 8.296875 
L 53.609375 8.296875 
L 53.609375 0 
L 7.328125 0 
L 7.328125 8.296875 
Q 12.9375 14.109375 22.625 23.890625 
Q 32.328125 33.6875 34.8125 36.53125 
Q 39.546875 41.84375 41.421875 45.53125 
Q 43.3125 49.21875 43.3125 52.78125 
Q 43.3125 58.59375 39.234375 62.25 
Q 35.15625 65.921875 28.609375 65.921875 
Q 23.96875 65.921875 18.8125 64.3125 
Q 13.671875 62.703125 7.8125 59.421875 
L 7.8125 69.390625 
Q 13.765625 71.78125 18.9375 73 
Q 24.125 74.21875 28.421875 74.21875 
Q 39.75 74.21875 46.484375 68.546875 
Q 53.21875 62.890625 53.21875 53.421875 
Q 53.21875 48.921875 51.53125 44.890625 
Q 49.859375 40.875 45.40625 35.40625 
Q 44.1875 33.984375 37.640625 27.21875 
Q 31.109375 20.453125 19.1875 8.296875 
z
" id="DejaVuSans-50"/>
       </defs>
       <use xlink:href="#DejaVuSans-50"/>
       <use x="63.623047" xlink:href="#DejaVuSans-48"/>
      </g>
     </g>
    </g>
    <g id="xtick_3">
     <g id="text_3">
      <!-- 40 -->
      <g transform="translate(421.028125 287.06881)scale(0.08 -0.08)">
       <defs>
        <path d="M 37.796875 64.3125 
L 12.890625 25.390625 
L 37.796875 25.390625 
z
M 35.203125 72.90625 
L 47.609375 72.90625 
L 47.609375 25.390625 
L 58.015625 25.390625 
L 58.015625 17.1875 
L 47.609375 17.1875 
L 47.609375 0 
L 37.796875 0 
L 37.796875 17.1875 
L 4.890625 17.1875 
L 4.890625 26.703125 
z
" id="DejaVuSans-52"/>
       </defs>
       <use xlink:href="#DejaVuSans-52"/>
       <use x="63.623047" xlink:href="#DejaVuSans-48"/>
      </g>
     </g>
    </g>
    <g id="xtick_4">
     <g id="text_4">
      <!-- 60 -->
      <g transform="translate(607.423125 287.06881)scale(0.08 -0.08)">
       <defs>
        <path d="M 33.015625 40.375 
Q 26.375 40.375 22.484375 35.828125 
Q 18.609375 31.296875 18.609375 23.390625 
Q 18.609375 15.53125 22.484375 10.953125 
Q 26.375 6.390625 33.015625 6.390625 
Q 39.65625 6.390625 43.53125 10.953125 
Q 47.40625 15.53125 47.40625 23.390625 
Q 47.40625 31.296875 43.53125 35.828125 
Q 39.65625 40.375 33.015625 40.375 
z
M 52.59375 71.296875 
L 52.59375 62.3125 
Q 48.875 64.0625 45.09375 64.984375 
Q 41.3125 65.921875 37.59375 65.921875 
Q 27.828125 65.921875 22.671875 59.328125 
Q 17.53125 52.734375 16.796875 39.40625 
Q 19.671875 43.65625 24.015625 45.921875 
Q 28.375 48.1875 33.59375 48.1875 
Q 44.578125 48.1875 50.953125 41.515625 
Q 57.328125 34.859375 57.328125 23.390625 
Q 57.328125 12.15625 50.6875 5.359375 
Q 44.046875 -1.421875 33.015625 -1.421875 
Q 20.359375 -1.421875 13.671875 8.265625 
Q 6.984375 17.96875 6.984375 36.375 
Q 6.984375 53.65625 15.1875 63.9375 
Q 23.390625 74.21875 37.203125 74.21875 
Q 40.921875 74.21875 44.703125 73.484375 
Q 48.484375 72.75 52.59375 71.296875 
z
" id="DejaVuSans-54"/>
       </defs>
       <use xlink:href="#DejaVuSans-54"/>
       <use x="63.623047" xlink:href="#DejaVuSans-48"/>
      </g>
     </g>
    </g>
    <g id="xtick_5">
     <g id="text_5">
      <!-- 80 -->
      <g transform="translate(793.818125 287.06881)scale(0.08 -0.08)">
       <defs>
        <path d="M 31.78125 34.625 
Q 24.75 34.625 20.71875 30.859375 
Q 16.703125 27.09375 16.703125 20.515625 
Q 16.703125 13.921875 20.71875 10.15625 
Q 24.75 6.390625 31.78125 6.390625 
Q 38.8125 6.390625 42.859375 10.171875 
Q 46.921875 13.96875 46.921875 20.515625 
Q 46.921875 27.09375 42.890625 30.859375 
Q 38.875 34.625 31.78125 34.625 
z
M 21.921875 38.8125 
Q 15.578125 40.375 12.03125 44.71875 
Q 8.5 49.078125 8.5 55.328125 
Q 8.5 64.0625 14.71875 69.140625 
Q 20.953125 74.21875 31.78125 74.21875 
Q 42.671875 74.21875 48.875 69.140625 
Q 55.078125 64.0625 55.078125 55.328125 
Q 55.078125 49.078125 51.53125 44.71875 
Q 48 40.375 41.703125 38.8125 
Q 48.828125 37.15625 52.796875 32.3125 
Q 56.78125 27.484375 56.78125 20.515625 
Q 56.78125 9.90625 50.3125 4.234375 
Q 43.84375 -1.421875 31.78125 -1.421875 
Q 19.734375 -1.421875 13.25 4.234375 
Q 6.78125 9.90625 6.78125 20.515625 
Q 6.78125 27.484375 10.78125 32.3125 
Q 14.796875 37.15625 21.921875 38.8125 
z
M 18.3125 54.390625 
Q 18.3125 48.734375 21.84375 45.5625 
Q 25.390625 42.390625 31.78125 42.390625 
Q 38.140625 42.390625 41.71875 45.5625 
Q 45.3125 48.734375 45.3125 54.390625 
Q 45.3125 60.0625 41.71875 63.234375 
Q 38.140625 66.40625 31.78125 66.40625 
Q 25.390625 66.40625 21.84375 63.234375 
Q 18.3125 60.0625 18.3125 54.390625 
z
" id="DejaVuSans-56"/>
       </defs>
       <use xlink:href="#DejaVuSans-56"/>
       <use x="63.623047" xlink:href="#DejaVuSans-48"/>
      </g>
     </g>
    </g>
    <g id="xtick_6">
     <g id="text_6">
      <!-- 100 -->
      <g transform="translate(977.668125 287.06881)scale(0.08 -0.08)">
       <defs>
        <path d="M 12.40625 8.296875 
L 28.515625 8.296875 
L 28.515625 63.921875 
L 10.984375 60.40625 
L 10.984375 69.390625 
L 28.421875 72.90625 
L 38.28125 72.90625 
L 38.28125 8.296875 
L 54.390625 8.296875 
L 54.390625 0 
L 12.40625 0 
z
" id="DejaVuSans-49"/>
       </defs>
       <use xlink:href="#DejaVuSans-49"/>
       <use x="63.623047" xlink:href="#DejaVuSans-48"/>
       <use x="127.246094" xlink:href="#DejaVuSans-48"/>
      </g>
     </g>
    </g>
    <g id="text_7">
     <!-- % GC -->
     <g transform="translate(505.610156 300.330997)scale(0.1 -0.1)">
      <defs>
       <path d="M 72.703125 32.078125 
Q 68.453125 32.078125 66.03125 28.46875 
Q 63.625 24.859375 63.625 18.40625 
Q 63.625 12.0625 66.03125 8.421875 
Q 68.453125 4.78125 72.703125 4.78125 
Q 76.859375 4.78125 79.265625 8.421875 
Q 81.6875 12.0625 81.6875 18.40625 
Q 81.6875 24.8125 79.265625 28.4375 
Q 76.859375 32.078125 72.703125 32.078125 
z
M 72.703125 38.28125 
Q 80.421875 38.28125 84.953125 32.90625 
Q 89.5 27.546875 89.5 18.40625 
Q 89.5 9.28125 84.9375 3.921875 
Q 80.375 -1.421875 72.703125 -1.421875 
Q 64.890625 -1.421875 60.34375 3.921875 
Q 55.8125 9.28125 55.8125 18.40625 
Q 55.8125 27.59375 60.375 32.9375 
Q 64.9375 38.28125 72.703125 38.28125 
z
M 22.3125 68.015625 
Q 18.109375 68.015625 15.6875 64.375 
Q 13.28125 60.75 13.28125 54.390625 
Q 13.28125 47.953125 15.671875 44.328125 
Q 18.0625 40.71875 22.3125 40.71875 
Q 26.5625 40.71875 28.96875 44.328125 
Q 31.390625 47.953125 31.390625 54.390625 
Q 31.390625 60.6875 28.953125 64.34375 
Q 26.515625 68.015625 22.3125 68.015625 
z
M 66.40625 74.21875 
L 74.21875 74.21875 
L 28.609375 -1.421875 
L 20.796875 -1.421875 
z
M 22.3125 74.21875 
Q 30.03125 74.21875 34.609375 68.875 
Q 39.203125 63.53125 39.203125 54.390625 
Q 39.203125 45.171875 34.640625 39.84375 
Q 30.078125 34.515625 22.3125 34.515625 
Q 14.546875 34.515625 10.03125 39.859375 
Q 5.515625 45.21875 5.515625 54.390625 
Q 5.515625 63.484375 10.046875 68.84375 
Q 14.59375 74.21875 22.3125 74.21875 
z
" id="DejaVuSans-37"/>
       <path id="DejaVuSans-32"/>
       <path d="M 59.515625 10.40625 
L 59.515625 29.984375 
L 43.40625 29.984375 
L 43.40625 38.09375 
L 69.28125 38.09375 
L 69.28125 6.78125 
Q 63.578125 2.734375 56.6875 0.65625 
Q 49.8125 -1.421875 42 -1.421875 
Q 24.90625 -1.421875 15.25 8.5625 
Q 5.609375 18.5625 5.609375 36.375 
Q 5.609375 54.25 15.25 64.234375 
Q 24.90625 74.21875 42 74.21875 
Q 49.125 74.21875 55.546875 72.453125 
Q 61.96875 70.703125 67.390625 67.28125 
L 67.390625 56.78125 
Q 61.921875 61.421875 55.765625 63.765625 
Q 49.609375 66.109375 42.828125 66.109375 
Q 29.4375 66.109375 22.71875 58.640625 
Q 16.015625 51.171875 16.015625 36.375 
Q 16.015625 21.625 22.71875 14.15625 
Q 29.4375 6.6875 42.828125 6.6875 
Q 48.046875 6.6875 52.140625 7.59375 
Q 56.25 8.5 59.515625 10.40625 
z
" id="DejaVuSans-71"/>
       <path d="M 64.40625 67.28125 
L 64.40625 56.890625 
Q 59.421875 61.53125 53.78125 63.8125 
Q 48.140625 66.109375 41.796875 66.109375 
Q 29.296875 66.109375 22.65625 58.46875 
Q 16.015625 50.828125 16.015625 36.375 
Q 16.015625 21.96875 22.65625 14.328125 
Q 29.296875 6.6875 41.796875 6.6875 
Q 48.140625 6.6875 53.78125 8.984375 
Q 59.421875 11.28125 64.40625 15.921875 
L 64.40625 5.609375 
Q 59.234375 2.09375 53.4375 0.328125 
Q 47.65625 -1.421875 41.21875 -1.421875 
Q 24.65625 -1.421875 15.125 8.703125 
Q 5.609375 18.84375 5.609375 36.375 
Q 5.609375 53.953125 15.125 64.078125 
Q 24.65625 74.21875 41.21875 74.21875 
Q 47.75 74.21875 53.53125 72.484375 
Q 59.328125 70.75 64.40625 67.28125 
z
" id="DejaVuSans-67"/>
      </defs>
      <use xlink:href="#DejaVuSans-37"/>
      <use x="95.019531" xlink:href="#DejaVuSans-32"/>
      <use x="126.806641" xlink:href="#DejaVuSans-71"/>
      <use x="204.296875" xlink:href="#DejaVuSans-67"/>
     </g>
    </g>
   </g>
   <g id="matplotlib.axis_2">
    <g id="ytick_1">
     <g id="line2d_1">
      <path clip-path="url(#p770df93846)" d="M 53.328125 273.99006 
L 985.303125 273.99006 
" style="fill:none;stroke:#dedede;stroke-linecap:square;"/>
     </g>
     <g id="text_8">
      <!-- 0 -->
      <g transform="translate(41.238125 277.029435)scale(0.08 -0.08)">
       <use xlink:href="#DejaVuSans-48"/>
      </g>
     </g>
    </g>
    <g id="ytick_2">
     <g id="line2d_2">
      <path clip-path="url(#p770df93846)" d="M 53.328125 230.260203 
L 985.303125 230.260203 
" style="fill:none;stroke:#dedede;stroke-linecap:square;"/>
     </g>
     <g id="text_9">
      <!-- 2000 -->
      <g transform="translate(25.968125 233.299578)scale(0.08 -0.08)">
       <use xlink:href="#DejaVuSans-50"/>
       <use x="63.623047" xlink:href="#DejaVuSans-48"/>
       <use x="127.246094" xlink:href="#DejaVuSans-48"/>
       <use x="190.869141" xlink:href="#DejaVuSans-48"/>
      </g>
     </g>
    </g>
    <g id="ytick_3">
     <g id="line2d_3">
      <path clip-path="url(#p770df93846)" d="M 53.328125 186.530347 
L 985.303125 186.530347 
" style="fill:none;stroke:#dedede;stroke-linecap:square;"/>
     </g>
     <g id="text_10">
      <!-- 4000 -->
      <g transform="translate(25.968125 189.569722)scale(0.08 -0.08)">
       <use xlink:href="#DejaVuSans-52"/>
       <use x="63.623047" xlink:href="#DejaVuSans-48"/>
       <use x="127.246094" xlink:href="#DejaVuSans-48"/>
       <use x="190.869141" xlink:href="#DejaVuSans-48"/>
      </g>
     </g>
    </g>
    <g id="ytick_4">
     <g id="line2d_4">
      <path clip-path="url(#p770df93846)" d="M 53.328125 142.80049 
L 985.303125 142.80049 
" style="fill:none;stroke:#dedede;stroke-linecap:square;"/>
     </g>
     <g id="text_11">
      <!-- 6000 -->
      <g transform="translate(25.968125 145.839865)scale(0.08 -0.08)">
       <use xlink:href="#DejaVuSans-54"/>
       <use x="63.623047" xlink:href="#DejaVuSans-48"/>
       <use x="127.246094" xlink:href="#DejaVuSans-48"/>
       <use x="190.869141" xlink:href="#DejaVuSans-48"/>
      </g>
     </g>
    </g>
    <g id="ytick_5">
     <g id="line2d_5">
      <path clip-path="url(#p770df93846)" d="M 53.328125 99.070633 
L 985.303125 99.070633 
" style="fill:none;stroke:#dedede;stroke-linecap:square;"/>
     </g>
     <g id="text_12">
      <!-- 8000 -->
      <g transform="translate(25.968125 102.110008)scale(0.08 -0.08)">
       <use xlink:href="#DejaVuSans-56"/>
       <use x="63.623047" xlink:href="#DejaVuSans-48"/>
       <use x="127.246094" xlink:href="#DejaVuSans-48"/>
       <use x="190.869141" xlink:href="#DejaVuSans-48"/>
      </g>
     </g>
    </g>
    <g id="ytick_6">
     <g id="line2d_6">
      <path clip-path="url(#p770df93846)" d="M 53.328125 55.340777 
L 985.303125 55.340777 
" style="fill:none;stroke:#dedede;stroke-linecap:square;"/>
     </g>
     <g id="text_13">
      <!-- 10000 -->
      <g transform="translate(20.878125 58.380152)scale(0.08 -0.08)">
       <use xlink:href="#DejaVuSans-49"/>
       <use x="63.623047" xlink:href="#DejaVuSans-48"/>
       <use x="127.246094" xlink:href="#DejaVuSans-48"/>
       <use x="190.869141" xlink:href="#DejaVuSans-48"/>
       <use x="254.492188" xlink:href="#DejaVuSans-48"/>
      </g>
     </g>
    </g>
    <g id="text_14">
     <!-- Count -->
     <g transform="translate(14.798437 167.584897)rotate(-90)scale(0.1 -0.1)">
      <defs>
       <path d="M 30.609375 48.390625 
Q 23.390625 48.390625 19.1875 42.75 
Q 14.984375 37.109375 14.984375 27.296875 
Q 14.984375 17.484375 19.15625 11.84375 
Q 23.34375 6.203125 30.609375 6.203125 
Q 37.796875 6.203125 41.984375 11.859375 
Q 46.1875 17.53125 46.1875 27.296875 
Q 46.1875 37.015625 41.984375 42.703125 
Q 37.796875 48.390625 30.609375 48.390625 
z
M 30.609375 56 
Q 42.328125 56 49.015625 48.375 
Q 55.71875 40.765625 55.71875 27.296875 
Q 55.71875 13.875 49.015625 6.21875 
Q 42.328125 -1.421875 30.609375 -1.421875 
Q 18.84375 -1.421875 12.171875 6.21875 
Q 5.515625 13.875 5.515625 27.296875 
Q 5.515625 40.765625 12.171875 48.375 
Q 18.84375 56 30.609375 56 
z
" id="DejaVuSans-111"/>
       <path d="M 8.5 21.578125 
L 8.5 54.6875 
L 17.484375 54.6875 
L 17.484375 21.921875 
Q 17.484375 14.15625 20.5 10.265625 
Q 23.53125 6.390625 29.59375 6.390625 
Q 36.859375 6.390625 41.078125 11.03125 
Q 45.3125 15.671875 45.3125 23.6875 
L 45.3125 54.6875 
L 54.296875 54.6875 
L 54.296875 0 
L 45.3125 0 
L 45.3125 8.40625 
Q 42.046875 3.421875 37.71875 1 
Q 33.40625 -1.421875 27.6875 -1.421875 
Q 18.265625 -1.421875 13.375 4.4375 
Q 8.5 10.296875 8.5 21.578125 
z
M 31.109375 56 
z
" id="DejaVuSans-117"/>
       <path d="M 54.890625 33.015625 
L 54.890625 0 
L 45.90625 0 
L 45.90625 32.71875 
Q 45.90625 40.484375 42.875 44.328125 
Q 39.84375 48.1875 33.796875 48.1875 
Q 26.515625 48.1875 22.3125 43.546875 
Q 18.109375 38.921875 18.109375 30.90625 
L 18.109375 0 
L 9.078125 0 
L 9.078125 54.6875 
L 18.109375 54.6875 
L 18.109375 46.1875 
Q 21.34375 51.125 25.703125 53.5625 
Q 30.078125 56 35.796875 56 
Q 45.21875 56 50.046875 50.171875 
Q 54.890625 44.34375 54.890625 33.015625 
z
" id="DejaVuSans-110"/>
       <path d="M 18.3125 70.21875 
L 18.3125 54.6875 
L 36.8125 54.6875 
L 36.8125 47.703125 
L 18.3125 47.703125 
L 18.3125 18.015625 
Q 18.3125 11.328125 20.140625 9.421875 
Q 21.96875 7.515625 27.59375 7.515625 
L 36.8125 7.515625 
L 36.8125 0 
L 27.59375 0 
Q 17.1875 0 13.234375 3.875 
Q 9.28125 7.765625 9.28125 18.015625 
L 9.28125 47.703125 
L 2.6875 47.703125 
L 2.6875 54.6875 
L 9.28125 54.6875 
L 9.28125 70.21875 
z
" id="DejaVuSans-116"/>
      </defs>
      <use xlink:href="#DejaVuSans-67"/>
      <use x="69.824219" xlink:href="#DejaVuSans-111"/>
      <use x="131.005859" xlink:href="#DejaVuSans-117"/>
      <use x="194.384766" xlink:href="#DejaVuSans-110"/>
      <use x="257.763672" xlink:href="#DejaVuSans-116"/>
     </g>
    </g>
   </g>
   <g id="line2d_7">
    <path clip-path="url(#p770df93846)" d="M 53.328125 273.837006 
L 62.647875 273.85887 
L 71.967625 273.9026 
L 81.287375 273.913533 
L 90.607125 273.891668 
L 99.926875 273.85887 
L 109.246625 273.869803 
L 118.566375 273.913533 
L 127.886125 273.9026 
L 137.205875 273.837006 
L 146.525625 273.782343 
L 155.845375 273.705816 
L 165.165125 273.651154 
L 174.484875 273.541829 
L 183.804625 273.388774 
L 193.124375 272.907746 
L 202.444125 272.415785 
L 211.763875 271.628648 
L 221.083625 270.754051 
L 230.403375 269.387493 
L 239.723125 268.010002 
L 249.042875 264.970777 
L 258.362625 261.70197 
L 267.682375 257.635094 
L 277.002125 253.458892 
L 286.321875 248.134782 
L 295.641625 239.968231 
L 304.961375 229.462133 
L 314.281125 217.217774 
L 323.600875 201.737404 
L 332.920625 185.196586 
L 342.240375 167.28921 
L 351.560125 148.802413 
L 360.879875 130.173494 
L 370.199625 111.019817 
L 379.519375 94.107295 
L 388.839125 80.736891 
L 398.158875 66.896391 
L 407.478625 54.039813 
L 416.798375 48.781298 
L 426.118125 46.102844 
L 435.437875 48.16908 
L 444.757625 52.421809 
L 454.077375 60.938198 
L 463.397125 72.111177 
L 472.716875 87.613411 
L 482.036625 103.738795 
L 491.356375 120.378006 
L 500.676125 137.268663 
L 509.995875 154.95739 
L 519.315625 171.837115 
L 528.635375 187.044172 
L 537.955125 201.136119 
L 547.274875 213.03064 
L 556.594625 225.012621 
L 565.914375 234.163093 
L 575.234125 241.127073 
L 584.553875 247.478834 
L 593.873625 253.469825 
L 603.193375 257.777216 
L 612.513125 261.516118 
L 621.832875 263.462097 
L 631.152625 265.287819 
L 640.472375 266.862093 
L 649.792125 268.381706 
L 659.111875 269.693602 
L 668.431625 270.874308 
L 677.751375 271.705175 
L 687.071125 272.339258 
L 696.390875 272.798421 
L 705.710625 273.268517 
L 715.030375 273.530897 
L 724.350125 273.640221 
L 733.669875 273.716748 
L 742.989625 273.815141 
L 752.309375 273.847938 
L 761.629125 273.891668 
L 770.948875 273.935398 
L 780.268625 273.957263 
L 789.588375 273.957263 
L 798.908125 273.94633 
L 808.227875 273.968195 
L 817.547625 273.99006 
L 826.867375 273.99006 
L 836.187125 273.99006 
L 845.506875 273.99006 
L 854.826625 273.99006 
L 864.146375 273.99006 
L 873.466125 273.99006 
L 882.785875 273.99006 
L 892.105625 273.99006 
L 901.425375 273.99006 
L 910.745125 273.99006 
L 920.064875 273.99006 
L 929.384625 273.99006 
L 938.704375 273.99006 
L 948.024125 273.99006 
L 957.343875 273.99006 
L 966.663625 273.99006 
L 975.983375 273.99006 
L 985.303125 273.99006 
" style="fill:none;stroke:#5cb85c;stroke-linecap:square;"/>
   </g>
   <g id="line2d_8">
    <path clip-path="url(#p770df93846)" d="M 53.328125 273.9026 
L 62.647875 273.891668 
L 71.967625 273.880735 
L 81.287375 273.880735 
L 90.607125 273.880735 
L 99.926875 273.9026 
L 109.246625 273.9026 
L 118.566375 273.880735 
L 127.886125 273.869803 
L 137.205875 273.804208 
L 146.525625 273.738613 
L 155.845375 273.683951 
L 165.165125 273.662086 
L 174.484875 273.519964 
L 183.804625 273.36691 
L 193.124375 273.071733 
L 202.444125 272.721894 
L 211.763875 272.109676 
L 221.083625 271.475593 
L 230.403375 269.715467 
L 239.723125 267.73669 
L 249.042875 265.244089 
L 258.362625 262.707757 
L 267.682375 257.810013 
L 277.002125 252.726417 
L 286.321875 247.94893 
L 295.641625 240.558585 
L 304.961375 230.391393 
L 314.281125 218.562467 
L 323.600875 204.47052 
L 332.920625 189.460247 
L 342.240375 170.372165 
L 351.560125 149.381833 
L 360.879875 129.298897 
L 370.199625 111.260331 
L 379.519375 95.266136 
L 388.839125 77.05265 
L 398.158875 61.375497 
L 407.478625 51.973578 
L 416.798375 46.474548 
L 426.118125 43.030822 
L 435.437875 48.016026 
L 444.757625 54.848816 
L 454.077375 64.873885 
L 463.397125 76.145256 
L 472.716875 88.67386 
L 482.036625 103.629471 
L 491.356375 120.017235 
L 500.676125 133.879599 
L 509.995875 150.398553 
L 519.315625 168.699498 
L 528.635375 184.234529 
L 537.955125 198.39207 
L 547.274875 211.412635 
L 556.594625 223.656995 
L 565.914375 232.763738 
L 575.234125 241.476912 
L 584.553875 248.189445 
L 593.873625 253.294905 
L 603.193375 257.361782 
L 612.513125 261.07882 
L 621.832875 263.647949 
L 631.152625 265.856307 
L 640.472375 267.222865 
L 649.792125 268.337976 
L 659.111875 269.496817 
L 668.431625 270.939902 
L 677.751375 271.694243 
L 687.071125 272.065946 
L 696.390875 272.546975 
L 705.710625 273.060801 
L 715.030375 273.355977 
L 724.350125 273.498099 
L 733.669875 273.618356 
L 742.989625 273.815141 
L 752.309375 273.9026 
L 761.629125 273.924465 
L 770.948875 273.935398 
L 780.268625 273.94633 
L 789.588375 273.924465 
L 798.908125 273.913533 
L 808.227875 273.94633 
L 817.547625 273.957263 
L 826.867375 273.94633 
L 836.187125 273.94633 
L 845.506875 273.968195 
L 854.826625 273.99006 
L 864.146375 273.979128 
L 873.466125 273.957263 
L 882.785875 273.957263 
L 892.105625 273.968195 
L 901.425375 273.979128 
L 910.745125 273.99006 
L 920.064875 273.99006 
L 929.384625 273.99006 
L 938.704375 273.99006 
L 948.024125 273.99006 
L 957.343875 273.99006 
L 966.663625 273.99006 
L 975.983375 273.99006 
L 985.303125 273.99006 
" style="fill:none;stroke:#5cb85c;stroke-linecap:square;"/>
   </g>
   <g id="line2d_9">
    <path clip-path="url(#p770df93846)" d="M 53.328125 273.771411 
L 62.647875 273.705816 
L 71.967625 273.705816 
L 81.287375 273.760478 
L 90.607125 273.804208 
L 99.926875 273.847938 
L 109.246625 273.815141 
L 118.566375 273.815141 
L 127.886125 273.815141 
L 137.205875 273.673019 
L 146.525625 273.530897 
L 155.845375 273.388774 
L 165.165125 273.257585 
L 174.484875 272.951476 
L 183.804625 272.601637 
L 193.124375 272.240866 
L 202.444125 271.836365 
L 211.763875 270.535401 
L 221.083625 269.267235 
L 230.403375 267.966272 
L 239.723125 266.501322 
L 249.042875 262.346986 
L 258.362625 257.908405 
L 267.682375 251.775293 
L 277.002125 245.489126 
L 286.321875 239.771447 
L 295.641625 230.784962 
L 304.961375 217.55668 
L 314.281125 203.508463 
L 323.600875 188.235811 
L 332.920625 171.246762 
L 342.240375 151.699516 
L 351.560125 131.878958 
L 360.879875 112.922065 
L 370.199625 94.511796 
L 379.519375 78.102167 
L 388.839125 62.927907 
L 398.158875 53.810232 
L 407.478625 47.54593 
L 416.798375 45.031463 
L 426.118125 47.261686 
L 435.437875 54.925343 
L 444.757625 63.682247 
L 454.077375 76.363905 
L 463.397125 89.176753 
L 472.716875 102.437832 
L 482.036625 118.071256 
L 491.356375 136.05516 
L 500.676125 152.257071 
L 509.995875 168.131009 
L 519.315625 184.803017 
L 528.635375 199.441587 
L 537.955125 211.609419 
L 547.274875 222.279504 
L 556.594625 233.135441 
L 565.914375 240.984951 
L 575.234125 247.916133 
L 584.553875 253.415162 
L 593.873625 257.908405 
L 603.193375 261.199077 
L 612.513125 264.05245 
L 621.832875 266.031226 
L 631.152625 267.703893 
L 640.472375 268.961126 
L 649.792125 270.17463 
L 659.111875 271.071092 
L 668.431625 271.825432 
L 677.751375 272.240866 
L 687.071125 272.787489 
L 696.390875 273.224788 
L 705.710625 273.432504 
L 715.030375 273.541829 
L 724.350125 273.651154 
L 733.669875 273.738613 
L 742.989625 273.837006 
L 752.309375 273.85887 
L 761.629125 273.869803 
L 770.948875 273.913533 
L 780.268625 273.94633 
L 789.588375 273.957263 
L 798.908125 273.968195 
L 808.227875 273.957263 
L 817.547625 273.957263 
L 826.867375 273.979128 
L 836.187125 273.99006 
L 845.506875 273.99006 
L 854.826625 273.99006 
L 864.146375 273.99006 
L 873.466125 273.99006 
L 882.785875 273.99006 
L 892.105625 273.99006 
L 901.425375 273.99006 
L 910.745125 273.99006 
L 920.064875 273.99006 
L 929.384625 273.99006 
L 938.704375 273.99006 
L 948.024125 273.99006 
L 957.343875 273.99006 
L 966.663625 273.99006 
L 975.983375 273.99006 
L 985.303125 273.99006 
" style="fill:none;stroke:#5cb85c;stroke-linecap:square;"/>
   </g>
   <g id="line2d_10">
    <path clip-path="url(#p770df93846)" d="M 53.328125 273.793276 
L 62.647875 273.771411 
L 71.967625 273.760478 
L 81.287375 273.760478 
L 90.607125 273.771411 
L 99.926875 273.749546 
L 109.246625 273.738613 
L 118.566375 273.694883 
L 127.886125 273.651154 
L 137.205875 273.716748 
L 146.525625 273.760478 
L 155.845375 273.629289 
L 165.165125 273.443437 
L 174.484875 273.006138 
L 183.804625 272.56884 
L 193.124375 271.858229 
L 202.444125 271.136687 
L 211.763875 270.415144 
L 221.083625 269.693602 
L 230.403375 267.703893 
L 239.723125 265.320616 
L 249.042875 261.581713 
L 258.362625 257.93027 
L 267.682375 252.092334 
L 277.002125 245.981087 
L 286.321875 240.383665 
L 295.641625 231.375315 
L 304.961375 217.622275 
L 314.281125 202.502677 
L 323.600875 187.011375 
L 332.920625 170.098853 
L 342.240375 151.262217 
L 351.560125 132.228797 
L 360.879875 114.091839 
L 370.199625 97.551021 
L 379.519375 80.758756 
L 388.839125 66.163916 
L 398.158875 56.587077 
L 407.478625 48.650108 
L 416.798375 46.857184 
L 426.118125 47.513132 
L 435.437875 52.65139 
L 444.757625 60.970996 
L 454.077375 72.767124 
L 463.397125 84.672578 
L 472.716875 101.093139 
L 482.036625 118.770934 
L 491.356375 135.421077 
L 500.676125 152.803695 
L 509.995875 169.738082 
L 519.315625 184.693693 
L 528.635375 197.561203 
L 537.955125 209.729036 
L 547.274875 221.536097 
L 556.594625 232.249912 
L 565.914375 240.711639 
L 575.234125 248.801663 
L 584.553875 253.469825 
L 593.873625 257.405512 
L 603.193375 261.384929 
L 612.513125 264.555343 
L 621.832875 266.304538 
L 631.152625 268.163057 
L 640.472375 269.540547 
L 649.792125 270.415144 
L 659.111875 270.939902 
L 668.431625 271.672378 
L 677.751375 272.317393 
L 687.071125 272.721894 
L 696.390875 272.820286 
L 705.710625 273.071733 
L 715.030375 273.377842 
L 724.350125 273.541829 
L 733.669875 273.651154 
L 742.989625 273.793276 
L 752.309375 273.880735 
L 761.629125 273.891668 
L 770.948875 273.9026 
L 780.268625 273.935398 
L 789.588375 273.94633 
L 798.908125 273.94633 
L 808.227875 273.968195 
L 817.547625 273.99006 
L 826.867375 273.968195 
L 836.187125 273.935398 
L 845.506875 273.924465 
L 854.826625 273.935398 
L 864.146375 273.957263 
L 873.466125 273.968195 
L 882.785875 273.979128 
L 892.105625 273.99006 
L 901.425375 273.99006 
L 910.745125 273.99006 
L 920.064875 273.99006 
L 929.384625 273.99006 
L 938.704375 273.99006 
L 948.024125 273.99006 
L 957.343875 273.99006 
L 966.663625 273.99006 
L 975.983375 273.99006 
L 985.303125 273.99006 
" style="fill:none;stroke:#5cb85c;stroke-linecap:square;"/>
   </g>
   <g id="line2d_11">
    <path clip-path="url(#p770df93846)" d="M 53.328125 273.99006 
L 62.647875 273.99006 
L 71.967625 273.99006 
L 81.287375 273.99006 
L 90.607125 273.968195 
L 99.926875 273.94633 
L 109.246625 273.935398 
L 118.566375 273.935398 
L 127.886125 273.913533 
L 137.205875 273.847938 
L 146.525625 273.771411 
L 155.845375 273.683951 
L 165.165125 273.563694 
L 174.484875 273.345045 
L 183.804625 273.14826 
L 193.124375 273.071733 
L 202.444125 272.61257 
L 211.763875 272.065946 
L 221.083625 271.63958 
L 230.403375 270.918038 
L 239.723125 269.682669 
L 249.042875 268.862734 
L 258.362625 268.119327 
L 267.682375 266.064023 
L 277.002125 263.92126 
L 286.321875 261.756633 
L 295.641625 256.760496 
L 304.961375 250.550857 
L 314.281125 244.286555 
L 323.600875 238.951512 
L 332.920625 230.784962 
L 342.240375 219.874362 
L 351.560125 210.876944 
L 360.879875 204.656372 
L 370.199625 197.85638 
L 379.519375 185.732277 
L 388.839125 173.039686 
L 398.158875 166.031976 
L 407.478625 158.718158 
L 416.798375 144.713671 
L 426.118125 137.323325 
L 435.437875 134.994711 
L 444.757625 130.840374 
L 454.077375 125.778643 
L 463.397125 124.105976 
L 472.716875 125.10083 
L 482.036625 122.225592 
L 491.356375 125.199223 
L 500.676125 136.01143 
L 509.995875 144.210778 
L 519.315625 147.042286 
L 528.635375 155.985042 
L 537.955125 166.141301 
L 547.274875 178.680837 
L 556.594625 194.893682 
L 565.914375 206.438364 
L 575.234125 219.130955 
L 584.553875 229.833837 
L 593.873625 236.218396 
L 603.193375 242.012602 
L 612.513125 247.577227 
L 621.832875 252.267254 
L 631.152625 255.75471 
L 640.472375 257.897473 
L 649.792125 260.313547 
L 659.111875 263.134123 
L 668.431625 266.140551 
L 677.751375 268.414503 
L 687.071125 269.868521 
L 696.390875 271.092957 
L 705.710625 271.901959 
L 715.030375 272.120609 
L 724.350125 272.503245 
L 733.669875 272.929611 
L 742.989625 273.14826 
L 752.309375 273.334112 
L 761.629125 273.388774 
L 770.948875 273.377842 
L 780.268625 273.421572 
L 789.588375 273.563694 
L 798.908125 273.694883 
L 808.227875 273.782343 
L 817.547625 273.793276 
L 826.867375 273.782343 
L 836.187125 273.85887 
L 845.506875 273.94633 
L 854.826625 273.94633 
L 864.146375 273.94633 
L 873.466125 273.979128 
L 882.785875 273.99006 
L 892.105625 273.99006 
L 901.425375 273.99006 
L 910.745125 273.99006 
L 920.064875 273.968195 
L 929.384625 273.968195 
L 938.704375 273.99006 
L 948.024125 273.99006 
L 957.343875 273.99006 
L 966.663625 273.99006 
L 975.983375 273.94633 
L 985.303125 273.9026 
" style="fill:none;stroke:#5cb85c;stroke-linecap:square;"/>
   </g>
   <g id="line2d_12">
    <path clip-path="url(#p770df93846)" d="M 53.328125 273.727681 
L 62.647875 273.749546 
L 71.967625 273.804208 
L 81.287375 273.815141 
L 90.607125 273.793276 
L 99.926875 273.826073 
L 109.246625 273.85887 
L 118.566375 273.749546 
L 127.886125 273.629289 
L 137.205875 273.629289 
L 146.525625 273.596491 
L 155.845375 273.399707 
L 165.165125 273.23572 
L 174.484875 273.224788 
L 183.804625 273.060801 
L 193.124375 272.776556 
L 202.444125 272.426718 
L 211.763875 272.164338 
L 221.083625 271.891027 
L 230.403375 271.071092 
L 239.723125 269.955981 
L 249.042875 269.321898 
L 258.362625 268.414503 
L 267.682375 266.129618 
L 277.002125 262.685892 
L 286.321875 259.996506 
L 295.641625 257.066605 
L 304.961375 251.76436 
L 314.281125 245.183017 
L 323.600875 239.73865 
L 332.920625 231.102003 
L 342.240375 220.103944 
L 351.560125 210.997201 
L 360.879875 204.219074 
L 370.199625 196.817795 
L 379.519375 185.032599 
L 388.839125 173.509782 
L 398.158875 166.130368 
L 407.478625 158.138737 
L 416.798375 145.052578 
L 426.118125 138.001138 
L 435.437875 135.79278 
L 444.757625 131.627512 
L 454.077375 126.773497 
L 463.397125 124.34649 
L 472.716875 124.149706 
L 482.036625 121.37286 
L 491.356375 124.707262 
L 500.676125 135.727186 
L 509.995875 144.866726 
L 519.315625 149.403698 
L 528.635375 156.947099 
L 537.955125 165.846124 
L 547.274875 178.866689 
L 556.594625 195.210723 
L 565.914375 206.853798 
L 575.234125 218.081438 
L 584.553875 228.926443 
L 593.873625 236.251194 
L 603.193375 242.012602 
L 612.513125 248.03639 
L 621.832875 252.748282 
L 631.152625 256.038954 
L 640.472375 258.039595 
L 649.792125 260.575926 
L 659.111875 263.079461 
L 668.431625 265.900037 
L 677.751375 268.337976 
L 687.071125 269.813859 
L 696.390875 271.082025 
L 705.710625 271.836365 
L 715.030375 272.131541 
L 724.350125 272.52511 
L 733.669875 272.907746 
L 742.989625 273.126395 
L 752.309375 273.334112 
L 761.629125 273.410639 
L 770.948875 273.410639 
L 780.268625 273.476234 
L 789.588375 273.607424 
L 798.908125 273.705816 
L 808.227875 273.738613 
L 817.547625 273.727681 
L 826.867375 273.749546 
L 836.187125 273.847938 
L 845.506875 273.924465 
L 854.826625 273.913533 
L 864.146375 273.913533 
L 873.466125 273.935398 
L 882.785875 273.94633 
L 892.105625 273.957263 
L 901.425375 273.968195 
L 910.745125 273.968195 
L 920.064875 273.979128 
L 929.384625 273.968195 
L 938.704375 273.94633 
L 948.024125 273.935398 
L 957.343875 273.913533 
L 966.663625 273.815141 
L 975.983375 272.896814 
L 985.303125 272.065946 
" style="fill:none;stroke:#5cb85c;stroke-linecap:square;"/>
   </g>
   <g id="line2d_13">
    <path clip-path="url(#p770df93846)" d="M 53.328125 273.99006 
L 62.647875 273.968195 
L 71.967625 273.957263 
L 81.287375 273.957263 
L 90.607125 273.94633 
L 99.926875 273.935398 
L 109.246625 273.891668 
L 118.566375 273.869803 
L 127.886125 273.891668 
L 137.205875 273.782343 
L 146.525625 273.705816 
L 155.845375 273.618356 
L 165.165125 273.476234 
L 174.484875 273.246652 
L 183.804625 272.798421 
L 193.124375 272.39392 
L 202.444125 271.956622 
L 211.763875 271.519323 
L 221.083625 270.907105 
L 230.403375 270.251157 
L 239.723125 268.961126 
L 249.042875 267.572704 
L 258.362625 266.413862 
L 267.682375 265.101967 
L 277.002125 263.571422 
L 286.321875 261.570781 
L 295.641625 256.37786 
L 304.961375 249.730922 
L 314.281125 243.269836 
L 323.600875 237.705211 
L 332.920625 231.287855 
L 342.240375 222.520019 
L 351.560125 214.244143 
L 360.879875 208.220356 
L 370.199625 202.480812 
L 379.519375 191.132914 
L 388.839125 179.019744 
L 398.158875 172.514928 
L 407.478625 164.785675 
L 416.798375 150.048714 
L 426.118125 141.838433 
L 435.437875 138.372842 
L 444.757625 133.70468 
L 454.077375 128.774138 
L 463.397125 125.089898 
L 472.716875 124.237166 
L 482.036625 122.433309 
L 491.356375 127.221728 
L 500.676125 139.597278 
L 509.995875 146.954826 
L 519.315625 149.862862 
L 528.635375 157.635844 
L 537.955125 164.129728 
L 547.274875 177.489199 
L 556.594625 194.806222 
L 565.914375 206.602351 
L 575.234125 219.415199 
L 584.553875 230.38046 
L 593.873625 237.989455 
L 603.193375 243.663404 
L 612.513125 248.145715 
L 621.832875 251.85182 
L 631.152625 254.016448 
L 640.472375 255.601655 
L 649.792125 258.717408 
L 659.111875 261.439591 
L 668.431625 264.271099 
L 677.751375 267.441514 
L 687.071125 269.628007 
L 696.390875 271.06016 
L 705.710625 271.945689 
L 715.030375 272.546975 
L 724.350125 273.060801 
L 733.669875 273.432504 
L 742.989625 273.629289 
L 752.309375 273.749546 
L 761.629125 273.782343 
L 770.948875 273.782343 
L 780.268625 273.826073 
L 789.588375 273.869803 
L 798.908125 273.891668 
L 808.227875 273.9026 
L 817.547625 273.9026 
L 826.867375 273.935398 
L 836.187125 273.979128 
L 845.506875 273.968195 
L 854.826625 273.935398 
L 864.146375 273.924465 
L 873.466125 273.957263 
L 882.785875 273.99006 
L 892.105625 273.99006 
L 901.425375 273.99006 
L 910.745125 273.99006 
L 920.064875 273.99006 
L 929.384625 273.99006 
L 938.704375 273.99006 
L 948.024125 273.99006 
L 957.343875 273.99006 
L 966.663625 273.99006 
L 975.983375 273.935398 
L 985.303125 273.880735 
" style="fill:none;stroke:#5cb85c;stroke-linecap:square;"/>
   </g>
   <g id="line2d_14">
    <path clip-path="url(#p770df93846)" d="M 53.328125 273.837006 
L 62.647875 273.716748 
L 71.967625 273.673019 
L 81.287375 273.782343 
L 90.607125 273.815141 
L 99.926875 273.85887 
L 109.246625 273.9026 
L 118.566375 273.793276 
L 127.886125 273.673019 
L 137.205875 273.673019 
L 146.525625 273.552761 
L 155.845375 273.32318 
L 165.165125 273.19199 
L 174.484875 272.962408 
L 183.804625 272.514177 
L 193.124375 272.044081 
L 202.444125 271.628648 
L 211.763875 271.55212 
L 221.083625 270.994565 
L 230.403375 270.065305 
L 239.723125 268.950194 
L 249.042875 267.550839 
L 258.362625 266.326403 
L 267.682375 264.631871 
L 277.002125 262.696825 
L 286.321875 261.12255 
L 295.641625 257.110335 
L 304.961375 250.813236 
L 314.281125 244.505204 
L 323.600875 239.530933 
L 332.920625 232.413899 
L 342.240375 221.918733 
L 351.560125 214.440928 
L 360.879875 209.783698 
L 370.199625 200.578563 
L 379.519375 187.240957 
L 388.839125 177.084698 
L 398.158875 171.093707 
L 407.478625 161.593396 
L 416.798375 148.244857 
L 426.118125 140.49374 
L 435.437875 136.776702 
L 444.757625 134.120113 
L 454.077375 127.877676 
L 463.397125 123.59215 
L 472.716875 125.428804 
L 482.036625 124.554207 
L 491.356375 128.052596 
L 500.676125 139.772197 
L 509.995875 146.539393 
L 519.315625 148.419777 
L 528.635375 158.06221 
L 537.955125 167.365737 
L 547.274875 181.567008 
L 556.594625 199.32133 
L 565.914375 209.193345 
L 575.234125 220.191404 
L 584.553875 230.577245 
L 593.873625 237.453765 
L 603.193375 243.499417 
L 612.513125 248.801663 
L 621.832875 252.420308 
L 631.152625 254.650531 
L 640.472375 256.50905 
L 649.792125 259.48268 
L 659.111875 261.975282 
L 668.431625 264.631871 
L 677.751375 267.583636 
L 687.071125 269.529615 
L 696.390875 271.158552 
L 705.710625 272.175271 
L 715.030375 272.590705 
L 724.350125 273.126395 
L 733.669875 273.530897 
L 742.989625 273.651154 
L 752.309375 273.683951 
L 761.629125 273.673019 
L 770.948875 273.705816 
L 780.268625 273.749546 
L 789.588375 273.793276 
L 798.908125 273.869803 
L 808.227875 273.913533 
L 817.547625 273.891668 
L 826.867375 273.913533 
L 836.187125 273.968195 
L 845.506875 273.968195 
L 854.826625 273.935398 
L 864.146375 273.913533 
L 873.466125 273.891668 
L 882.785875 273.913533 
L 892.105625 273.968195 
L 901.425375 273.968195 
L 910.745125 273.94633 
L 920.064875 273.957263 
L 929.384625 273.968195 
L 938.704375 273.94633 
L 948.024125 273.924465 
L 957.343875 273.94633 
L 966.663625 273.815141 
L 975.983375 273.23572 
L 985.303125 272.809354 
" style="fill:none;stroke:#5cb85c;stroke-linecap:square;"/>
   </g>
   <g id="line2d_15">
    <path clip-path="url(#p770df93846)" d="M 53.328125 273.99006 
L 62.647875 273.979128 
L 71.967625 273.979128 
L 81.287375 273.979128 
L 90.607125 273.968195 
L 99.926875 273.968195 
L 109.246625 273.94633 
L 118.566375 273.924465 
L 127.886125 273.924465 
L 137.205875 273.935398 
L 146.525625 273.924465 
L 155.845375 273.837006 
L 165.165125 273.771411 
L 174.484875 273.705816 
L 183.804625 273.530897 
L 193.124375 273.27945 
L 202.444125 273.14826 
L 211.763875 273.006138 
L 221.083625 272.809354 
L 230.403375 272.35019 
L 239.723125 271.628648 
L 249.042875 271.125754 
L 258.362625 270.437009 
L 267.682375 268.862734 
L 277.002125 266.118686 
L 286.321875 263.473029 
L 295.641625 259.110976 
L 304.961375 253.644744 
L 314.281125 248.101985 
L 323.600875 243.433823 
L 332.920625 235.96695 
L 342.240375 224.116158 
L 351.560125 213.303951 
L 360.879875 205.738686 
L 370.199625 197.757987 
L 379.519375 184.956072 
L 388.839125 172.383738 
L 398.158875 164.523296 
L 407.478625 155.722663 
L 416.798375 141.051296 
L 426.118125 132.786353 
L 435.437875 132.622366 
L 444.757625 131.26674 
L 454.077375 127.702757 
L 463.397125 127.385715 
L 472.716875 130.370278 
L 482.036625 132.163202 
L 491.356375 137.192136 
L 500.676125 147.599842 
L 509.995875 156.444205 
L 519.315625 160.904651 
L 528.635375 170.3503 
L 537.955125 180.298842 
L 547.274875 194.150274 
L 556.594625 209.291737 
L 565.914375 218.168898 
L 575.234125 228.478212 
L 584.553875 237.289778 
L 593.873625 243.160511 
L 603.193375 248.353432 
L 612.513125 253.907123 
L 621.832875 258.159852 
L 631.152625 260.182358 
L 640.472375 261.297469 
L 649.792125 263.571422 
L 659.111875 266.020294 
L 668.431625 268.272381 
L 677.751375 270.098103 
L 687.071125 271.103889 
L 696.390875 272.044081 
L 705.710625 272.721894 
L 715.030375 272.918679 
L 724.350125 273.060801 
L 733.669875 273.36691 
L 742.989625 273.574626 
L 752.309375 273.596491 
L 761.629125 273.552761 
L 770.948875 273.716748 
L 780.268625 273.9026 
L 789.588375 273.935398 
L 798.908125 273.957263 
L 808.227875 273.94633 
L 817.547625 273.924465 
L 826.867375 273.924465 
L 836.187125 273.935398 
L 845.506875 273.94633 
L 854.826625 273.94633 
L 864.146375 273.957263 
L 873.466125 273.968195 
L 882.785875 273.979128 
L 892.105625 273.99006 
L 901.425375 273.99006 
L 910.745125 273.99006 
L 920.064875 273.99006 
L 929.384625 273.99006 
L 938.704375 273.99006 
L 948.024125 273.99006 
L 957.343875 273.99006 
L 966.663625 273.99006 
L 975.983375 273.979128 
L 985.303125 273.968195 
" style="fill:none;stroke:#5cb85c;stroke-linecap:square;"/>
   </g>
   <g id="line2d_16">
    <path clip-path="url(#p770df93846)" d="M 53.328125 273.705816 
L 62.647875 273.727681 
L 71.967625 273.793276 
L 81.287375 273.826073 
L 90.607125 273.815141 
L 99.926875 273.815141 
L 109.246625 273.880735 
L 118.566375 273.869803 
L 127.886125 273.804208 
L 137.205875 273.804208 
L 146.525625 273.815141 
L 155.845375 273.629289 
L 165.165125 273.377842 
L 174.484875 273.454369 
L 183.804625 273.519964 
L 193.124375 273.290382 
L 202.444125 272.973341 
L 211.763875 272.853084 
L 221.083625 272.634434 
L 230.403375 272.208068 
L 239.723125 271.246011 
L 249.042875 270.119968 
L 258.362625 269.442155 
L 267.682375 268.316111 
L 277.002125 266.162416 
L 286.321875 263.975923 
L 295.641625 260.411939 
L 304.961375 254.803585 
L 314.281125 248.473689 
L 323.600875 243.42289 
L 332.920625 235.540584 
L 342.240375 223.514873 
L 351.560125 212.166975 
L 360.879875 204.787562 
L 370.199625 197.255094 
L 379.519375 183.13035 
L 388.839125 171.924574 
L 398.158875 167.179885 
L 407.478625 156.149029 
L 416.798375 141.455797 
L 426.118125 135.432009 
L 435.437875 133.857734 
L 444.757625 132.884745 
L 454.077375 127.713689 
L 463.397125 127.090539 
L 472.716875 131.671241 
L 482.036625 131.725904 
L 491.356375 138.023003 
L 500.676125 150.704662 
L 509.995875 158.882145 
L 519.315625 162.992751 
L 528.635375 172.821037 
L 537.955125 181.162507 
L 547.274875 193.658313 
L 556.594625 209.25894 
L 565.914375 217.993979 
L 575.234125 227.046059 
L 584.553875 236.994601 
L 593.873625 244.417744 
L 603.193375 249.009379 
L 612.513125 253.469825 
L 621.832875 257.361782 
L 631.152625 259.985573 
L 640.472375 261.428659 
L 649.792125 263.735409 
L 659.111875 266.107753 
L 668.431625 268.348908 
L 677.751375 270.098103 
L 687.071125 271.169484 
L 696.390875 272.098744 
L 705.710625 272.52511 
L 715.030375 272.721894 
L 724.350125 272.973341 
L 733.669875 273.224788 
L 742.989625 273.465302 
L 752.309375 273.607424 
L 761.629125 273.673019 
L 770.948875 273.771411 
L 780.268625 273.9026 
L 789.588375 273.957263 
L 798.908125 273.94633 
L 808.227875 273.935398 
L 817.547625 273.9026 
L 826.867375 273.869803 
L 836.187125 273.869803 
L 845.506875 273.880735 
L 854.826625 273.935398 
L 864.146375 273.94633 
L 873.466125 273.9026 
L 882.785875 273.9026 
L 892.105625 273.891668 
L 901.425375 273.880735 
L 910.745125 273.913533 
L 920.064875 273.94633 
L 929.384625 273.94633 
L 938.704375 273.924465 
L 948.024125 273.924465 
L 957.343875 273.935398 
L 966.663625 273.815141 
L 975.983375 272.787489 
L 985.303125 271.891027 
" style="fill:none;stroke:#5cb85c;stroke-linecap:square;"/>
   </g>
   <g id="line2d_17">
    <path clip-path="url(#p770df93846)" d="M 53.328125 273.99006 
L 62.647875 273.99006 
L 71.967625 273.99006 
L 81.287375 273.99006 
L 90.607125 273.968195 
L 99.926875 273.924465 
L 109.246625 273.9026 
L 118.566375 273.913533 
L 127.886125 273.9026 
L 137.205875 273.869803 
L 146.525625 273.85887 
L 155.845375 273.793276 
L 165.165125 273.662086 
L 174.484875 273.552761 
L 183.804625 273.399707 
L 193.124375 273.006138 
L 202.444125 272.536042 
L 211.763875 272.306461 
L 221.083625 271.8145 
L 230.403375 271.071092 
L 239.723125 269.835724 
L 249.042875 268.261449 
L 258.362625 266.938621 
L 267.682375 264.500681 
L 277.002125 261.297469 
L 286.321875 258.804867 
L 295.641625 253.754069 
L 304.961375 246.626102 
L 314.281125 240.055691 
L 323.600875 234.41454 
L 332.920625 224.509727 
L 342.240375 211.095594 
L 351.560125 200.61136 
L 360.879875 192.936771 
L 370.199625 182.496267 
L 379.519375 168.240334 
L 388.839125 157.329735 
L 398.158875 151.950962 
L 407.478625 146.244216 
L 416.798375 136.328471 
L 426.118125 130.250021 
L 435.437875 128.500827 
L 444.757625 127.899541 
L 454.077375 124.794721 
L 463.397125 125.713048 
L 472.716875 131.846161 
L 482.036625 134.174776 
L 491.356375 139.794062 
L 500.676125 151.22942 
L 509.995875 161.735518 
L 519.315625 167.934225 
L 528.635375 175.477625 
L 537.955125 183.797231 
L 547.274875 195.833874 
L 556.594625 209.92582 
L 565.914375 219.524523 
L 575.234125 228.849915 
L 584.553875 238.01132 
L 593.873625 244.680124 
L 603.193375 249.424813 
L 612.513125 253.808731 
L 621.832875 257.875608 
L 631.152625 260.564994 
L 640.472375 261.865957 
L 649.792125 264.260167 
L 659.111875 266.752769 
L 668.431625 268.66595 
L 677.751375 270.163698 
L 687.071125 271.114822 
L 696.390875 272.142474 
L 705.710625 272.732827 
L 715.030375 272.940543 
L 724.350125 273.301315 
L 733.669875 273.476234 
L 742.989625 273.530897 
L 752.309375 273.618356 
L 761.629125 273.683951 
L 770.948875 273.760478 
L 780.268625 273.826073 
L 789.588375 273.880735 
L 798.908125 273.935398 
L 808.227875 273.968195 
L 817.547625 273.968195 
L 826.867375 273.957263 
L 836.187125 273.94633 
L 845.506875 273.968195 
L 854.826625 273.99006 
L 864.146375 273.99006 
L 873.466125 273.99006 
L 882.785875 273.99006 
L 892.105625 273.99006 
L 901.425375 273.99006 
L 910.745125 273.99006 
L 920.064875 273.99006 
L 929.384625 273.99006 
L 938.704375 273.99006 
L 948.024125 273.99006 
L 957.343875 273.99006 
L 966.663625 273.99006 
L 975.983375 273.979128 
L 985.303125 273.968195 
" style="fill:none;stroke:#5cb85c;stroke-linecap:square;"/>
   </g>
   <g id="line2d_18">
    <path clip-path="url(#p770df93846)" d="M 53.328125 273.749546 
L 62.647875 273.771411 
L 71.967625 273.815141 
L 81.287375 273.815141 
L 90.607125 273.793276 
L 99.926875 273.804208 
L 109.246625 273.760478 
L 118.566375 273.738613 
L 127.886125 273.738613 
L 137.205875 273.716748 
L 146.525625 273.574626 
L 155.845375 273.36691 
L 165.165125 273.312247 
L 174.484875 273.224788 
L 183.804625 273.093598 
L 193.124375 272.809354 
L 202.444125 272.262731 
L 211.763875 271.901959 
L 221.083625 271.431863 
L 230.403375 270.88524 
L 239.723125 269.55148 
L 249.042875 267.944407 
L 258.362625 266.698106 
L 267.682375 264.522546 
L 277.002125 260.827373 
L 286.321875 257.635094 
L 295.641625 253.49169 
L 304.961375 247.249253 
L 314.281125 240.646044 
L 323.600875 234.655054 
L 332.920625 224.411335 
L 342.240375 211.34704 
L 351.560125 200.753483 
L 360.879875 192.838378 
L 370.199625 183.042891 
L 379.519375 169.475703 
L 388.839125 157.30787 
L 398.158875 149.50209 
L 407.478625 143.576695 
L 416.798375 134.37156 
L 426.118125 128.763206 
L 435.437875 129.233302 
L 444.757625 130.228156 
L 454.077375 126.543916 
L 463.397125 127.014012 
L 472.716875 132.174135 
L 482.036625 134.338763 
L 491.356375 141.20435 
L 500.676125 154.082793 
L 509.995875 163.38632 
L 519.315625 167.387602 
L 528.635375 175.291773 
L 537.955125 182.474402 
L 547.274875 194.653168 
L 556.594625 210.527105 
L 565.914375 220.355391 
L 575.234125 229.735445 
L 584.553875 238.065983 
L 593.873625 244.319352 
L 603.193375 249.577868 
L 612.513125 254.28976 
L 621.832875 258.094257 
L 631.152625 260.630589 
L 640.472375 262.029944 
L 649.792125 264.489749 
L 659.111875 266.873026 
L 668.431625 268.600355 
L 677.751375 269.945048 
L 687.071125 271.01643 
L 696.390875 272.175271 
L 705.710625 272.798421 
L 715.030375 273.115463 
L 724.350125 273.377842 
L 733.669875 273.552761 
L 742.989625 273.552761 
L 752.309375 273.509032 
L 761.629125 273.552761 
L 770.948875 273.694883 
L 780.268625 273.837006 
L 789.588375 273.847938 
L 798.908125 273.837006 
L 808.227875 273.9026 
L 817.547625 273.924465 
L 826.867375 273.869803 
L 836.187125 273.869803 
L 845.506875 273.9026 
L 854.826625 273.913533 
L 864.146375 273.9026 
L 873.466125 273.94633 
L 882.785875 273.99006 
L 892.105625 273.99006 
L 901.425375 273.968195 
L 910.745125 273.94633 
L 920.064875 273.957263 
L 929.384625 273.935398 
L 938.704375 273.891668 
L 948.024125 273.880735 
L 957.343875 273.935398 
L 966.663625 273.85887 
L 975.983375 272.798421 
L 985.303125 271.869162 
" style="fill:none;stroke:#5cb85c;stroke-linecap:square;"/>
   </g>
   <g id="line2d_19">
    <path clip-path="url(#p770df93846)" d="M 53.328125 273.99006 
L 985.303125 273.99006 
" style="fill:none;stroke:#dedede;stroke-linecap:square;stroke-width:2;"/>
   </g>
   <g id="text_15">
    <!-- FastQC: Per Sequence GC Content -->
    <g transform="translate(382.679375 19.3575)scale(0.16 -0.16)">
     <defs>
      <path d="M 9.8125 72.90625 
L 51.703125 72.90625 
L 51.703125 64.59375 
L 19.671875 64.59375 
L 19.671875 43.109375 
L 48.578125 43.109375 
L 48.578125 34.8125 
L 19.671875 34.8125 
L 19.671875 0 
L 9.8125 0 
z
" id="DejaVuSans-70"/>
      <path d="M 34.28125 27.484375 
Q 23.390625 27.484375 19.1875 25 
Q 14.984375 22.515625 14.984375 16.5 
Q 14.984375 11.71875 18.140625 8.90625 
Q 21.296875 6.109375 26.703125 6.109375 
Q 34.1875 6.109375 38.703125 11.40625 
Q 43.21875 16.703125 43.21875 25.484375 
L 43.21875 27.484375 
z
M 52.203125 31.203125 
L 52.203125 0 
L 43.21875 0 
L 43.21875 8.296875 
Q 40.140625 3.328125 35.546875 0.953125 
Q 30.953125 -1.421875 24.3125 -1.421875 
Q 15.921875 -1.421875 10.953125 3.296875 
Q 6 8.015625 6 15.921875 
Q 6 25.140625 12.171875 29.828125 
Q 18.359375 34.515625 30.609375 34.515625 
L 43.21875 34.515625 
L 43.21875 35.40625 
Q 43.21875 41.609375 39.140625 45 
Q 35.0625 48.390625 27.6875 48.390625 
Q 23 48.390625 18.546875 47.265625 
Q 14.109375 46.140625 10.015625 43.890625 
L 10.015625 52.203125 
Q 14.9375 54.109375 19.578125 55.046875 
Q 24.21875 56 28.609375 56 
Q 40.484375 56 46.34375 49.84375 
Q 52.203125 43.703125 52.203125 31.203125 
z
" id="DejaVuSans-97"/>
      <path d="M 44.28125 53.078125 
L 44.28125 44.578125 
Q 40.484375 46.53125 36.375 47.5 
Q 32.28125 48.484375 27.875 48.484375 
Q 21.1875 48.484375 17.84375 46.4375 
Q 14.5 44.390625 14.5 40.28125 
Q 14.5 37.15625 16.890625 35.375 
Q 19.28125 33.59375 26.515625 31.984375 
L 29.59375 31.296875 
Q 39.15625 29.25 43.1875 25.515625 
Q 47.21875 21.78125 47.21875 15.09375 
Q 47.21875 7.46875 41.1875 3.015625 
Q 35.15625 -1.421875 24.609375 -1.421875 
Q 20.21875 -1.421875 15.453125 -0.5625 
Q 10.6875 0.296875 5.421875 2 
L 5.421875 11.28125 
Q 10.40625 8.6875 15.234375 7.390625 
Q 20.0625 6.109375 24.8125 6.109375 
Q 31.15625 6.109375 34.5625 8.28125 
Q 37.984375 10.453125 37.984375 14.40625 
Q 37.984375 18.0625 35.515625 20.015625 
Q 33.0625 21.96875 24.703125 23.78125 
L 21.578125 24.515625 
Q 13.234375 26.265625 9.515625 29.90625 
Q 5.8125 33.546875 5.8125 39.890625 
Q 5.8125 47.609375 11.28125 51.796875 
Q 16.75 56 26.8125 56 
Q 31.78125 56 36.171875 55.265625 
Q 40.578125 54.546875 44.28125 53.078125 
z
" id="DejaVuSans-115"/>
      <path d="M 39.40625 66.21875 
Q 28.65625 66.21875 22.328125 58.203125 
Q 16.015625 50.203125 16.015625 36.375 
Q 16.015625 22.609375 22.328125 14.59375 
Q 28.65625 6.59375 39.40625 6.59375 
Q 50.140625 6.59375 56.421875 14.59375 
Q 62.703125 22.609375 62.703125 36.375 
Q 62.703125 50.203125 56.421875 58.203125 
Q 50.140625 66.21875 39.40625 66.21875 
z
M 53.21875 1.3125 
L 66.21875 -12.890625 
L 54.296875 -12.890625 
L 43.5 -1.21875 
Q 41.890625 -1.3125 41.03125 -1.359375 
Q 40.1875 -1.421875 39.40625 -1.421875 
Q 24.03125 -1.421875 14.8125 8.859375 
Q 5.609375 19.140625 5.609375 36.375 
Q 5.609375 53.65625 14.8125 63.9375 
Q 24.03125 74.21875 39.40625 74.21875 
Q 54.734375 74.21875 63.90625 63.9375 
Q 73.09375 53.65625 73.09375 36.375 
Q 73.09375 23.6875 67.984375 14.640625 
Q 62.890625 5.609375 53.21875 1.3125 
z
" id="DejaVuSans-81"/>
      <path d="M 11.71875 12.40625 
L 22.015625 12.40625 
L 22.015625 0 
L 11.71875 0 
z
M 11.71875 51.703125 
L 22.015625 51.703125 
L 22.015625 39.3125 
L 11.71875 39.3125 
z
" id="DejaVuSans-58"/>
      <path d="M 19.671875 64.796875 
L 19.671875 37.40625 
L 32.078125 37.40625 
Q 38.96875 37.40625 42.71875 40.96875 
Q 46.484375 44.53125 46.484375 51.125 
Q 46.484375 57.671875 42.71875 61.234375 
Q 38.96875 64.796875 32.078125 64.796875 
z
M 9.8125 72.90625 
L 32.078125 72.90625 
Q 44.34375 72.90625 50.609375 67.359375 
Q 56.890625 61.8125 56.890625 51.125 
Q 56.890625 40.328125 50.609375 34.8125 
Q 44.34375 29.296875 32.078125 29.296875 
L 19.671875 29.296875 
L 19.671875 0 
L 9.8125 0 
z
" id="DejaVuSans-80"/>
      <path d="M 56.203125 29.59375 
L 56.203125 25.203125 
L 14.890625 25.203125 
Q 15.484375 15.921875 20.484375 11.0625 
Q 25.484375 6.203125 34.421875 6.203125 
Q 39.59375 6.203125 44.453125 7.46875 
Q 49.3125 8.734375 54.109375 11.28125 
L 54.109375 2.78125 
Q 49.265625 0.734375 44.1875 -0.34375 
Q 39.109375 -1.421875 33.890625 -1.421875 
Q 20.796875 -1.421875 13.15625 6.1875 
Q 5.515625 13.8125 5.515625 26.8125 
Q 5.515625 40.234375 12.765625 48.109375 
Q 20.015625 56 32.328125 56 
Q 43.359375 56 49.78125 48.890625 
Q 56.203125 41.796875 56.203125 29.59375 
z
M 47.21875 32.234375 
Q 47.125 39.59375 43.09375 43.984375 
Q 39.0625 48.390625 32.421875 48.390625 
Q 24.90625 48.390625 20.390625 44.140625 
Q 15.875 39.890625 15.1875 32.171875 
z
" id="DejaVuSans-101"/>
      <path d="M 41.109375 46.296875 
Q 39.59375 47.171875 37.8125 47.578125 
Q 36.03125 48 33.890625 48 
Q 26.265625 48 22.1875 43.046875 
Q 18.109375 38.09375 18.109375 28.8125 
L 18.109375 0 
L 9.078125 0 
L 9.078125 54.6875 
L 18.109375 54.6875 
L 18.109375 46.1875 
Q 20.953125 51.171875 25.484375 53.578125 
Q 30.03125 56 36.53125 56 
Q 37.453125 56 38.578125 55.875 
Q 39.703125 55.765625 41.0625 55.515625 
z
" id="DejaVuSans-114"/>
      <path d="M 53.515625 70.515625 
L 53.515625 60.890625 
Q 47.90625 63.578125 42.921875 64.890625 
Q 37.9375 66.21875 33.296875 66.21875 
Q 25.25 66.21875 20.875 63.09375 
Q 16.5 59.96875 16.5 54.203125 
Q 16.5 49.359375 19.40625 46.890625 
Q 22.3125 44.4375 30.421875 42.921875 
L 36.375 41.703125 
Q 47.40625 39.59375 52.65625 34.296875 
Q 57.90625 29 57.90625 20.125 
Q 57.90625 9.515625 50.796875 4.046875 
Q 43.703125 -1.421875 29.984375 -1.421875 
Q 24.8125 -1.421875 18.96875 -0.25 
Q 13.140625 0.921875 6.890625 3.21875 
L 6.890625 13.375 
Q 12.890625 10.015625 18.65625 8.296875 
Q 24.421875 6.59375 29.984375 6.59375 
Q 38.421875 6.59375 43.015625 9.90625 
Q 47.609375 13.234375 47.609375 19.390625 
Q 47.609375 24.75 44.3125 27.78125 
Q 41.015625 30.8125 33.5 32.328125 
L 27.484375 33.5 
Q 16.453125 35.6875 11.515625 40.375 
Q 6.59375 45.0625 6.59375 53.421875 
Q 6.59375 63.09375 13.40625 68.65625 
Q 20.21875 74.21875 32.171875 74.21875 
Q 37.3125 74.21875 42.625 73.28125 
Q 47.953125 72.359375 53.515625 70.515625 
z
" id="DejaVuSans-83"/>
      <path d="M 14.796875 27.296875 
Q 14.796875 17.390625 18.875 11.75 
Q 22.953125 6.109375 30.078125 6.109375 
Q 37.203125 6.109375 41.296875 11.75 
Q 45.40625 17.390625 45.40625 27.296875 
Q 45.40625 37.203125 41.296875 42.84375 
Q 37.203125 48.484375 30.078125 48.484375 
Q 22.953125 48.484375 18.875 42.84375 
Q 14.796875 37.203125 14.796875 27.296875 
z
M 45.40625 8.203125 
Q 42.578125 3.328125 38.25 0.953125 
Q 33.9375 -1.421875 27.875 -1.421875 
Q 17.96875 -1.421875 11.734375 6.484375 
Q 5.515625 14.40625 5.515625 27.296875 
Q 5.515625 40.1875 11.734375 48.09375 
Q 17.96875 56 27.875 56 
Q 33.9375 56 38.25 53.625 
Q 42.578125 51.265625 45.40625 46.390625 
L 45.40625 54.6875 
L 54.390625 54.6875 
L 54.390625 -20.796875 
L 45.40625 -20.796875 
z
" id="DejaVuSans-113"/>
      <path d="M 48.78125 52.59375 
L 48.78125 44.1875 
Q 44.96875 46.296875 41.140625 47.34375 
Q 37.3125 48.390625 33.40625 48.390625 
Q 24.65625 48.390625 19.8125 42.84375 
Q 14.984375 37.3125 14.984375 27.296875 
Q 14.984375 17.28125 19.8125 11.734375 
Q 24.65625 6.203125 33.40625 6.203125 
Q 37.3125 6.203125 41.140625 7.25 
Q 44.96875 8.296875 48.78125 10.40625 
L 48.78125 2.09375 
Q 45.015625 0.34375 40.984375 -0.53125 
Q 36.96875 -1.421875 32.421875 -1.421875 
Q 20.0625 -1.421875 12.78125 6.34375 
Q 5.515625 14.109375 5.515625 27.296875 
Q 5.515625 40.671875 12.859375 48.328125 
Q 20.21875 56 33.015625 56 
Q 37.15625 56 41.109375 55.140625 
Q 45.0625 54.296875 48.78125 52.59375 
z
" id="DejaVuSans-99"/>
     </defs>
     <use xlink:href="#DejaVuSans-70"/>
     <use x="48.394531" xlink:href="#DejaVuSans-97"/>
     <use x="109.673828" xlink:href="#DejaVuSans-115"/>
     <use x="161.773438" xlink:href="#DejaVuSans-116"/>
     <use x="200.982422" xlink:href="#DejaVuSans-81"/>
     <use x="279.693359" xlink:href="#DejaVuSans-67"/>
     <use x="349.517578" xlink:href="#DejaVuSans-58"/>
     <use x="383.208984" xlink:href="#DejaVuSans-32"/>
     <use x="414.996094" xlink:href="#DejaVuSans-80"/>
     <use x="471.673828" xlink:href="#DejaVuSans-101"/>
     <use x="533.197266" xlink:href="#DejaVuSans-114"/>
     <use x="574.310547" xlink:href="#DejaVuSans-32"/>
     <use x="606.097656" xlink:href="#DejaVuSans-83"/>
     <use x="669.574219" xlink:href="#DejaVuSans-101"/>
     <use x="731.097656" xlink:href="#DejaVuSans-113"/>
     <use x="794.574219" xlink:href="#DejaVuSans-117"/>
     <use x="857.953125" xlink:href="#DejaVuSans-101"/>
     <use x="919.476562" xlink:href="#DejaVuSans-110"/>
     <use x="982.855469" xlink:href="#DejaVuSans-99"/>
     <use x="1037.835938" xlink:href="#DejaVuSans-101"/>
     <use x="1099.359375" xlink:href="#DejaVuSans-32"/>
     <use x="1131.146484" xlink:href="#DejaVuSans-71"/>
     <use x="1208.636719" xlink:href="#DejaVuSans-67"/>
     <use x="1278.460938" xlink:href="#DejaVuSans-32"/>
     <use x="1310.248047" xlink:href="#DejaVuSans-67"/>
     <use x="1380.072266" xlink:href="#DejaVuSans-111"/>
     <use x="1441.253906" xlink:href="#DejaVuSans-110"/>
     <use x="1504.632812" xlink:href="#DejaVuSans-116"/>
     <use x="1543.841797" xlink:href="#DejaVuSans-101"/>
     <use x="1605.365234" xlink:href="#DejaVuSans-110"/>
     <use x="1668.744141" xlink:href="#DejaVuSans-116"/>
    </g>
   </g>
   <g id="legend_1">
    <g id="line2d_20">
     <path d="M 60.528125 291.525394 
L 76.528125 291.525394 
" style="fill:none;stroke:#5cb85c;stroke-linecap:square;"/>
    </g>
    <g id="line2d_21"/>
    <g id="text_16">
     <!-- SPT5_INPUT_R1_T1_1 -->
     <g transform="translate(82.928125 294.325394)scale(0.08 -0.08)">
      <defs>
       <path d="M -0.296875 72.90625 
L 61.375 72.90625 
L 61.375 64.59375 
L 35.5 64.59375 
L 35.5 0 
L 25.59375 0 
L 25.59375 64.59375 
L -0.296875 64.59375 
z
" id="DejaVuSans-84"/>
       <path d="M 10.796875 72.90625 
L 49.515625 72.90625 
L 49.515625 64.59375 
L 19.828125 64.59375 
L 19.828125 46.734375 
Q 21.96875 47.46875 24.109375 47.828125 
Q 26.265625 48.1875 28.421875 48.1875 
Q 40.625 48.1875 47.75 41.5 
Q 54.890625 34.8125 54.890625 23.390625 
Q 54.890625 11.625 47.5625 5.09375 
Q 40.234375 -1.421875 26.90625 -1.421875 
Q 22.3125 -1.421875 17.546875 -0.640625 
Q 12.796875 0.140625 7.71875 1.703125 
L 7.71875 11.625 
Q 12.109375 9.234375 16.796875 8.0625 
Q 21.484375 6.890625 26.703125 6.890625 
Q 35.15625 6.890625 40.078125 11.328125 
Q 45.015625 15.765625 45.015625 23.390625 
Q 45.015625 31 40.078125 35.4375 
Q 35.15625 39.890625 26.703125 39.890625 
Q 22.75 39.890625 18.8125 39.015625 
Q 14.890625 38.140625 10.796875 36.28125 
z
" id="DejaVuSans-53"/>
       <path d="M 50.984375 -16.609375 
L 50.984375 -23.578125 
L -0.984375 -23.578125 
L -0.984375 -16.609375 
z
" id="DejaVuSans-95"/>
       <path d="M 9.8125 72.90625 
L 19.671875 72.90625 
L 19.671875 0 
L 9.8125 0 
z
" id="DejaVuSans-73"/>
       <path d="M 9.8125 72.90625 
L 23.09375 72.90625 
L 55.421875 11.921875 
L 55.421875 72.90625 
L 64.984375 72.90625 
L 64.984375 0 
L 51.703125 0 
L 19.390625 60.984375 
L 19.390625 0 
L 9.8125 0 
z
" id="DejaVuSans-78"/>
       <path d="M 8.6875 72.90625 
L 18.609375 72.90625 
L 18.609375 28.609375 
Q 18.609375 16.890625 22.84375 11.734375 
Q 27.09375 6.59375 36.625 6.59375 
Q 46.09375 6.59375 50.34375 11.734375 
Q 54.59375 16.890625 54.59375 28.609375 
L 54.59375 72.90625 
L 64.5 72.90625 
L 64.5 27.390625 
Q 64.5 13.140625 57.4375 5.859375 
Q 50.390625 -1.421875 36.625 -1.421875 
Q 22.796875 -1.421875 15.734375 5.859375 
Q 8.6875 13.140625 8.6875 27.390625 
z
" id="DejaVuSans-85"/>
       <path d="M 44.390625 34.1875 
Q 47.5625 33.109375 50.5625 29.59375 
Q 53.5625 26.078125 56.59375 19.921875 
L 66.609375 0 
L 56 0 
L 46.6875 18.703125 
Q 43.0625 26.03125 39.671875 28.421875 
Q 36.28125 30.8125 30.421875 30.8125 
L 19.671875 30.8125 
L 19.671875 0 
L 9.8125 0 
L 9.8125 72.90625 
L 32.078125 72.90625 
Q 44.578125 72.90625 50.734375 67.671875 
Q 56.890625 62.453125 56.890625 51.90625 
Q 56.890625 45.015625 53.6875 40.46875 
Q 50.484375 35.9375 44.390625 34.1875 
z
M 19.671875 64.796875 
L 19.671875 38.921875 
L 32.078125 38.921875 
Q 39.203125 38.921875 42.84375 42.21875 
Q 46.484375 45.515625 46.484375 51.90625 
Q 46.484375 58.296875 42.84375 61.546875 
Q 39.203125 64.796875 32.078125 64.796875 
z
" id="DejaVuSans-82"/>
      </defs>
      <use xlink:href="#DejaVuSans-83"/>
      <use x="63.476562" xlink:href="#DejaVuSans-80"/>
      <use x="123.779297" xlink:href="#DejaVuSans-84"/>
      <use x="184.863281" xlink:href="#DejaVuSans-53"/>
      <use x="248.486328" xlink:href="#DejaVuSans-95"/>
      <use x="298.486328" xlink:href="#DejaVuSans-73"/>
      <use x="327.978516" xlink:href="#DejaVuSans-78"/>
      <use x="402.783203" xlink:href="#DejaVuSans-80"/>
      <use x="463.085938" xlink:href="#DejaVuSans-85"/>
      <use x="536.279297" xlink:href="#DejaVuSans-84"/>
      <use x="597.363281" xlink:href="#DejaVuSans-95"/>
      <use x="647.363281" xlink:href="#DejaVuSans-82"/>
      <use x="716.845703" xlink:href="#DejaVuSans-49"/>
      <use x="780.46875" xlink:href="#DejaVuSans-95"/>
      <use x="830.46875" xlink:href="#DejaVuSans-84"/>
      <use x="891.552734" xlink:href="#DejaVuSans-49"/>
      <use x="955.175781" xlink:href="#DejaVuSans-95"/>
      <use x="1005.175781" xlink:href="#DejaVuSans-49"/>
     </g>
    </g>
    <g id="line2d_22">
     <path d="M 60.528125 303.490394 
L 76.528125 303.490394 
" style="fill:none;stroke:#5cb85c;stroke-linecap:square;"/>
    </g>
    <g id="line2d_23"/>
    <g id="text_17">
     <!-- SPT5_INPUT_R1_T1_2 -->
     <g transform="translate(82.928125 306.290394)scale(0.08 -0.08)">
      <use xlink:href="#DejaVuSans-83"/>
      <use x="63.476562" xlink:href="#DejaVuSans-80"/>
      <use x="123.779297" xlink:href="#DejaVuSans-84"/>
      <use x="184.863281" xlink:href="#DejaVuSans-53"/>
      <use x="248.486328" xlink:href="#DejaVuSans-95"/>
      <use x="298.486328" xlink:href="#DejaVuSans-73"/>
      <use x="327.978516" xlink:href="#DejaVuSans-78"/>
      <use x="402.783203" xlink:href="#DejaVuSans-80"/>
      <use x="463.085938" xlink:href="#DejaVuSans-85"/>
      <use x="536.279297" xlink:href="#DejaVuSans-84"/>
      <use x="597.363281" xlink:href="#DejaVuSans-95"/>
      <use x="647.363281" xlink:href="#DejaVuSans-82"/>
      <use x="716.845703" xlink:href="#DejaVuSans-49"/>
      <use x="780.46875" xlink:href="#DejaVuSans-95"/>
      <use x="830.46875" xlink:href="#DejaVuSans-84"/>
      <use x="891.552734" xlink:href="#DejaVuSans-49"/>
      <use x="955.175781" xlink:href="#DejaVuSans-95"/>
      <use x="1005.175781" xlink:href="#DejaVuSans-50"/>
     </g>
    </g>
    <g id="line2d_24">
     <path d="M 60.528125 315.455394 
L 76.528125 315.455394 
" style="fill:none;stroke:#5cb85c;stroke-linecap:square;"/>
    </g>
    <g id="line2d_25"/>
    <g id="text_18">
     <!-- SPT5_INPUT_R2_T1_1 -->
     <g transform="translate(82.928125 318.255394)scale(0.08 -0.08)">
      <use xlink:href="#DejaVuSans-83"/>
      <use x="63.476562" xlink:href="#DejaVuSans-80"/>
      <use x="123.779297" xlink:href="#DejaVuSans-84"/>
      <use x="184.863281" xlink:href="#DejaVuSans-53"/>
      <use x="248.486328" xlink:href="#DejaVuSans-95"/>
      <use x="298.486328" xlink:href="#DejaVuSans-73"/>
      <use x="327.978516" xlink:href="#DejaVuSans-78"/>
      <use x="402.783203" xlink:href="#DejaVuSans-80"/>
      <use x="463.085938" xlink:href="#DejaVuSans-85"/>
      <use x="536.279297" xlink:href="#DejaVuSans-84"/>
      <use x="597.363281" xlink:href="#DejaVuSans-95"/>
      <use x="647.363281" xlink:href="#DejaVuSans-82"/>
      <use x="716.845703" xlink:href="#DejaVuSans-50"/>
      <use x="780.46875" xlink:href="#DejaVuSans-95"/>
      <use x="830.46875" xlink:href="#DejaVuSans-84"/>
      <use x="891.552734" xlink:href="#DejaVuSans-49"/>
      <use x="955.175781" xlink:href="#DejaVuSans-95"/>
      <use x="1005.175781" xlink:href="#DejaVuSans-49"/>
     </g>
    </g>
    <g id="line2d_26">
     <path d="M 270.85125 291.525394 
L 286.85125 291.525394 
" style="fill:none;stroke:#5cb85c;stroke-linecap:square;"/>
    </g>
    <g id="line2d_27"/>
    <g id="text_19">
     <!-- SPT5_INPUT_R2_T1_2 -->
     <g transform="translate(293.25125 294.325394)scale(0.08 -0.08)">
      <use xlink:href="#DejaVuSans-83"/>
      <use x="63.476562" xlink:href="#DejaVuSans-80"/>
      <use x="123.779297" xlink:href="#DejaVuSans-84"/>
      <use x="184.863281" xlink:href="#DejaVuSans-53"/>
      <use x="248.486328" xlink:href="#DejaVuSans-95"/>
      <use x="298.486328" xlink:href="#DejaVuSans-73"/>
      <use x="327.978516" xlink:href="#DejaVuSans-78"/>
      <use x="402.783203" xlink:href="#DejaVuSans-80"/>
      <use x="463.085938" xlink:href="#DejaVuSans-85"/>
      <use x="536.279297" xlink:href="#DejaVuSans-84"/>
      <use x="597.363281" xlink:href="#DejaVuSans-95"/>
      <use x="647.363281" xlink:href="#DejaVuSans-82"/>
      <use x="716.845703" xlink:href="#DejaVuSans-50"/>
      <use x="780.46875" xlink:href="#DejaVuSans-95"/>
      <use x="830.46875" xlink:href="#DejaVuSans-84"/>
      <use x="891.552734" xlink:href="#DejaVuSans-49"/>
      <use x="955.175781" xlink:href="#DejaVuSans-95"/>
      <use x="1005.175781" xlink:href="#DejaVuSans-50"/>
     </g>
    </g>
    <g id="line2d_28">
     <path d="M 270.85125 303.490394 
L 286.85125 303.490394 
" style="fill:none;stroke:#5cb85c;stroke-linecap:square;"/>
    </g>
    <g id="line2d_29"/>
    <g id="text_20">
     <!-- SPT5_T0_R1_T1_1 -->
     <g transform="translate(293.25125 306.290394)scale(0.08 -0.08)">
      <use xlink:href="#DejaVuSans-83"/>
      <use x="63.476562" xlink:href="#DejaVuSans-80"/>
      <use x="123.779297" xlink:href="#DejaVuSans-84"/>
      <use x="184.863281" xlink:href="#DejaVuSans-53"/>
      <use x="248.486328" xlink:href="#DejaVuSans-95"/>
      <use x="298.486328" xlink:href="#DejaVuSans-84"/>
      <use x="359.570312" xlink:href="#DejaVuSans-48"/>
      <use x="423.193359" xlink:href="#DejaVuSans-95"/>
      <use x="473.193359" xlink:href="#DejaVuSans-82"/>
      <use x="542.675781" xlink:href="#DejaVuSans-49"/>
      <use x="606.298828" xlink:href="#DejaVuSans-95"/>
      <use x="656.298828" xlink:href="#DejaVuSans-84"/>
      <use x="717.382812" xlink:href="#DejaVuSans-49"/>
      <use x="781.005859" xlink:href="#DejaVuSans-95"/>
      <use x="831.005859" xlink:href="#DejaVuSans-49"/>
     </g>
    </g>
    <g id="line2d_30">
     <path d="M 270.85125 315.455394 
L 286.85125 315.455394 
" style="fill:none;stroke:#5cb85c;stroke-linecap:square;"/>
    </g>
    <g id="line2d_31"/>
    <g id="text_21">
     <!-- SPT5_T0_R1_T1_2 -->
     <g transform="translate(293.25125 318.255394)scale(0.08 -0.08)">
      <use xlink:href="#DejaVuSans-83"/>
      <use x="63.476562" xlink:href="#DejaVuSans-80"/>
      <use x="123.779297" xlink:href="#DejaVuSans-84"/>
      <use x="184.863281" xlink:href="#DejaVuSans-53"/>
      <use x="248.486328" xlink:href="#DejaVuSans-95"/>
      <use x="298.486328" xlink:href="#DejaVuSans-84"/>
      <use x="359.570312" xlink:href="#DejaVuSans-48"/>
      <use x="423.193359" xlink:href="#DejaVuSans-95"/>
      <use x="473.193359" xlink:href="#DejaVuSans-82"/>
      <use x="542.675781" xlink:href="#DejaVuSans-49"/>
      <use x="606.298828" xlink:href="#DejaVuSans-95"/>
      <use x="656.298828" xlink:href="#DejaVuSans-84"/>
      <use x="717.382812" xlink:href="#DejaVuSans-49"/>
      <use x="781.005859" xlink:href="#DejaVuSans-95"/>
      <use x="831.005859" xlink:href="#DejaVuSans-50"/>
     </g>
    </g>
    <g id="line2d_32">
     <path d="M 481.174375 291.525394 
L 497.174375 291.525394 
" style="fill:none;stroke:#5cb85c;stroke-linecap:square;"/>
    </g>
    <g id="line2d_33"/>
    <g id="text_22">
     <!-- SPT5_T0_R2_T1_1 -->
     <g transform="translate(503.574375 294.325394)scale(0.08 -0.08)">
      <use xlink:href="#DejaVuSans-83"/>
      <use x="63.476562" xlink:href="#DejaVuSans-80"/>
      <use x="123.779297" xlink:href="#DejaVuSans-84"/>
      <use x="184.863281" xlink:href="#DejaVuSans-53"/>
      <use x="248.486328" xlink:href="#DejaVuSans-95"/>
      <use x="298.486328" xlink:href="#DejaVuSans-84"/>
      <use x="359.570312" xlink:href="#DejaVuSans-48"/>
      <use x="423.193359" xlink:href="#DejaVuSans-95"/>
      <use x="473.193359" xlink:href="#DejaVuSans-82"/>
      <use x="542.675781" xlink:href="#DejaVuSans-50"/>
      <use x="606.298828" xlink:href="#DejaVuSans-95"/>
      <use x="656.298828" xlink:href="#DejaVuSans-84"/>
      <use x="717.382812" xlink:href="#DejaVuSans-49"/>
      <use x="781.005859" xlink:href="#DejaVuSans-95"/>
      <use x="831.005859" xlink:href="#DejaVuSans-49"/>
     </g>
    </g>
    <g id="line2d_34">
     <path d="M 481.174375 303.490394 
L 497.174375 303.490394 
" style="fill:none;stroke:#5cb85c;stroke-linecap:square;"/>
    </g>
    <g id="line2d_35"/>
    <g id="text_23">
     <!-- SPT5_T0_R2_T1_2 -->
     <g transform="translate(503.574375 306.290394)scale(0.08 -0.08)">
      <use xlink:href="#DejaVuSans-83"/>
      <use x="63.476562" xlink:href="#DejaVuSans-80"/>
      <use x="123.779297" xlink:href="#DejaVuSans-84"/>
      <use x="184.863281" xlink:href="#DejaVuSans-53"/>
      <use x="248.486328" xlink:href="#DejaVuSans-95"/>
      <use x="298.486328" xlink:href="#DejaVuSans-84"/>
      <use x="359.570312" xlink:href="#DejaVuSans-48"/>
      <use x="423.193359" xlink:href="#DejaVuSans-95"/>
      <use x="473.193359" xlink:href="#DejaVuSans-82"/>
      <use x="542.675781" xlink:href="#DejaVuSans-50"/>
      <use x="606.298828" xlink:href="#DejaVuSans-95"/>
      <use x="656.298828" xlink:href="#DejaVuSans-84"/>
      <use x="717.382812" xlink:href="#DejaVuSans-49"/>
      <use x="781.005859" xlink:href="#DejaVuSans-95"/>
      <use x="831.005859" xlink:href="#DejaVuSans-50"/>
     </g>
    </g>
    <g id="line2d_36">
     <path d="M 677.56375 291.525394 
L 693.56375 291.525394 
" style="fill:none;stroke:#5cb85c;stroke-linecap:square;"/>
    </g>
    <g id="line2d_37"/>
    <g id="text_24">
     <!-- SPT5_T15_R1_T1_1 -->
     <g transform="translate(699.96375 294.325394)scale(0.08 -0.08)">
      <use xlink:href="#DejaVuSans-83"/>
      <use x="63.476562" xlink:href="#DejaVuSans-80"/>
      <use x="123.779297" xlink:href="#DejaVuSans-84"/>
      <use x="184.863281" xlink:href="#DejaVuSans-53"/>
      <use x="248.486328" xlink:href="#DejaVuSans-95"/>
      <use x="298.486328" xlink:href="#DejaVuSans-84"/>
      <use x="359.570312" xlink:href="#DejaVuSans-49"/>
      <use x="423.193359" xlink:href="#DejaVuSans-53"/>
      <use x="486.816406" xlink:href="#DejaVuSans-95"/>
      <use x="536.816406" xlink:href="#DejaVuSans-82"/>
      <use x="606.298828" xlink:href="#DejaVuSans-49"/>
      <use x="669.921875" xlink:href="#DejaVuSans-95"/>
      <use x="719.921875" xlink:href="#DejaVuSans-84"/>
      <use x="781.005859" xlink:href="#DejaVuSans-49"/>
      <use x="844.628906" xlink:href="#DejaVuSans-95"/>
      <use x="894.628906" xlink:href="#DejaVuSans-49"/>
     </g>
    </g>
    <g id="line2d_38">
     <path d="M 677.56375 303.490394 
L 693.56375 303.490394 
" style="fill:none;stroke:#5cb85c;stroke-linecap:square;"/>
    </g>
    <g id="line2d_39"/>
    <g id="text_25">
     <!-- SPT5_T15_R1_T1_2 -->
     <g transform="translate(699.96375 306.290394)scale(0.08 -0.08)">
      <use xlink:href="#DejaVuSans-83"/>
      <use x="63.476562" xlink:href="#DejaVuSans-80"/>
      <use x="123.779297" xlink:href="#DejaVuSans-84"/>
      <use x="184.863281" xlink:href="#DejaVuSans-53"/>
      <use x="248.486328" xlink:href="#DejaVuSans-95"/>
      <use x="298.486328" xlink:href="#DejaVuSans-84"/>
      <use x="359.570312" xlink:href="#DejaVuSans-49"/>
      <use x="423.193359" xlink:href="#DejaVuSans-53"/>
      <use x="486.816406" xlink:href="#DejaVuSans-95"/>
      <use x="536.816406" xlink:href="#DejaVuSans-82"/>
      <use x="606.298828" xlink:href="#DejaVuSans-49"/>
      <use x="669.921875" xlink:href="#DejaVuSans-95"/>
      <use x="719.921875" xlink:href="#DejaVuSans-84"/>
      <use x="781.005859" xlink:href="#DejaVuSans-49"/>
      <use x="844.628906" xlink:href="#DejaVuSans-95"/>
      <use x="894.628906" xlink:href="#DejaVuSans-50"/>
     </g>
    </g>
    <g id="line2d_40">
     <path d="M 879.043125 291.525394 
L 895.043125 291.525394 
" style="fill:none;stroke:#5cb85c;stroke-linecap:square;"/>
    </g>
    <g id="line2d_41"/>
    <g id="text_26">
     <!-- SPT5_T15_R2_T1_1 -->
     <g transform="translate(901.443125 294.325394)scale(0.08 -0.08)">
      <use xlink:href="#DejaVuSans-83"/>
      <use x="63.476562" xlink:href="#DejaVuSans-80"/>
      <use x="123.779297" xlink:href="#DejaVuSans-84"/>
      <use x="184.863281" xlink:href="#DejaVuSans-53"/>
      <use x="248.486328" xlink:href="#DejaVuSans-95"/>
      <use x="298.486328" xlink:href="#DejaVuSans-84"/>
      <use x="359.570312" xlink:href="#DejaVuSans-49"/>
      <use x="423.193359" xlink:href="#DejaVuSans-53"/>
      <use x="486.816406" xlink:href="#DejaVuSans-95"/>
      <use x="536.816406" xlink:href="#DejaVuSans-82"/>
      <use x="606.298828" xlink:href="#DejaVuSans-50"/>
      <use x="669.921875" xlink:href="#DejaVuSans-95"/>
      <use x="719.921875" xlink:href="#DejaVuSans-84"/>
      <use x="781.005859" xlink:href="#DejaVuSans-49"/>
      <use x="844.628906" xlink:href="#DejaVuSans-95"/>
      <use x="894.628906" xlink:href="#DejaVuSans-49"/>
     </g>
    </g>
    <g id="line2d_42">
     <path d="M 879.043125 303.490394 
L 895.043125 303.490394 
" style="fill:none;stroke:#5cb85c;stroke-linecap:square;"/>
    </g>
    <g id="line2d_43"/>
    <g id="text_27">
     <!-- SPT5_T15_R2_T1_2 -->
     <g transform="translate(901.443125 306.290394)scale(0.08 -0.08)">
      <use xlink:href="#DejaVuSans-83"/>
      <use x="63.476562" xlink:href="#DejaVuSans-80"/>
      <use x="123.779297" xlink:href="#DejaVuSans-84"/>
      <use x="184.863281" xlink:href="#DejaVuSans-53"/>
      <use x="248.486328" xlink:href="#DejaVuSans-95"/>
      <use x="298.486328" xlink:href="#DejaVuSans-84"/>
      <use x="359.570312" xlink:href="#DejaVuSans-49"/>
      <use x="423.193359" xlink:href="#DejaVuSans-53"/>
      <use x="486.816406" xlink:href="#DejaVuSans-95"/>
      <use x="536.816406" xlink:href="#DejaVuSans-82"/>
      <use x="606.298828" xlink:href="#DejaVuSans-50"/>
      <use x="669.921875" xlink:href="#DejaVuSans-95"/>
      <use x="719.921875" xlink:href="#DejaVuSans-84"/>
      <use x="781.005859" xlink:href="#DejaVuSans-49"/>
      <use x="844.628906" xlink:href="#DejaVuSans-95"/>
      <use x="894.628906" xlink:href="#DejaVuSans-50"/>
     </g>
    </g>
   </g>
  </g>
 </g>
 <defs>
  <clipPath id="p770df93846">
   <rect height="242.5072" width="931.975" x="53.328125" y="31.48286"/>
  </clipPath>
 </defs>
</svg>
