<?xml version="1.0" encoding="utf-8" standalone="no"?>
<!DOCTYPE svg PUBLIC "-//W3C//DTD SVG 1.1//EN"
  "http://www.w3.org/Graphics/SVG/1.1/DTD/svg11.dtd">
<!-- Created with matplotlib (https://matplotlib.org/) -->
<svg height="330.541644pt" version="1.1" viewBox="0 0 1000.298125 330.541644" width="1000.298125pt" xmlns="http://www.w3.org/2000/svg" xmlns:xlink="http://www.w3.org/1999/xlink">
 <metadata>
  <rdf:RDF xmlns:cc="http://creativecommons.org/ns#" xmlns:dc="http://purl.org/dc/elements/1.1/" xmlns:rdf="http://www.w3.org/1999/02/22-rdf-syntax-ns#">
   <cc:Work>
    <dc:type rdf:resource="http://purl.org/dc/dcmitype/StillImage"/>
    <dc:date>2021-02-17T10:26:08.673855</dc:date>
    <dc:format>image/svg+xml</dc:format>
    <dc:creator>
     <cc:Agent>
      <dc:title>Matplotlib v3.3.0, https://matplotlib.org/</dc:title>
     </cc:Agent>
    </dc:creator>
   </cc:Work>
  </rdf:RDF>
 </metadata>
 <defs>
  <style type="text/css">*{stroke-linecap:butt;stroke-linejoin:round;}</style>
 </defs>
 <g id="figure_1">
  <g id="axes_1">
   <g id="patch_1">
    <path d="M 32.968125 273.99006 
L 985.463125 273.99006 
L 985.463125 31.48286 
L 32.968125 31.48286 
z
" style="fill:#ffffff;"/>
   </g>
   <g id="matplotlib.axis_1">
    <g id="xtick_1">
     <g id="text_1">
      <!-- 0 -->
      <g transform="translate(30.423125 287.06881)scale(0.08 -0.08)">
       <defs>
        <path d="M 31.78125 66.40625 
Q 24.171875 66.40625 20.328125 58.90625 
Q 16.5 51.421875 16.5 36.375 
Q 16.5 21.390625 20.328125 13.890625 
Q 24.171875 6.390625 31.78125 6.390625 
Q 39.453125 6.390625 43.28125 13.890625 
Q 47.125 21.390625 47.125 36.375 
Q 47.125 51.421875 43.28125 58.90625 
Q 39.453125 66.40625 31.78125 66.40625 
z
M 31.78125 74.21875 
Q 44.046875 74.21875 50.515625 64.515625 
Q 56.984375 54.828125 56.984375 36.375 
Q 56.984375 17.96875 50.515625 8.265625 
Q 44.046875 -1.421875 31.78125 -1.421875 
Q 19.53125 -1.421875 13.0625 8.265625 
Q 6.59375 17.96875 6.59375 36.375 
Q 6.59375 54.828125 13.0625 64.515625 
Q 19.53125 74.21875 31.78125 74.21875 
z
" id="DejaVuSans-48"/>
       </defs>
       <use xlink:href="#DejaVuSans-48"/>
      </g>
     </g>
    </g>
    <g id="xtick_2">
     <g id="text_2">
      <!-- 20 -->
      <g transform="translate(218.377125 287.06881)scale(0.08 -0.08)">
       <defs>
        <path d="M 19.1875 8.296875 
L 53.609375 8.296875 
L 53.609375 0 
L 7.328125 0 
L 7.328125 8.296875 
Q 12.9375 14.109375 22.625 23.890625 
Q 32.328125 33.6875 34.8125 36.53125 
Q 39.546875 41.84375 41.421875 45.53125 
Q 43.3125 49.21875 43.3125 52.78125 
Q 43.3125 58.59375 39.234375 62.25 
Q 35.15625 65.921875 28.609375 65.921875 
Q 23.96875 65.921875 18.8125 64.3125 
Q 13.671875 62.703125 7.8125 59.421875 
L 7.8125 69.390625 
Q 13.765625 71.78125 18.9375 73 
Q 24.125 74.21875 28.421875 74.21875 
Q 39.75 74.21875 46.484375 68.546875 
Q 53.21875 62.890625 53.21875 53.421875 
Q 53.21875 48.921875 51.53125 44.890625 
Q 49.859375 40.875 45.40625 35.40625 
Q 44.1875 33.984375 37.640625 27.21875 
Q 31.109375 20.453125 19.1875 8.296875 
z
" id="DejaVuSans-50"/>
       </defs>
       <use xlink:href="#DejaVuSans-50"/>
       <use x="63.623047" xlink:href="#DejaVuSans-48"/>
      </g>
     </g>
    </g>
    <g id="xtick_3">
     <g id="text_3">
      <!-- 40 -->
      <g transform="translate(408.876125 287.06881)scale(0.08 -0.08)">
       <defs>
        <path d="M 37.796875 64.3125 
L 12.890625 25.390625 
L 37.796875 25.390625 
z
M 35.203125 72.90625 
L 47.609375 72.90625 
L 47.609375 25.390625 
L 58.015625 25.390625 
L 58.015625 17.1875 
L 47.609375 17.1875 
L 47.609375 0 
L 37.796875 0 
L 37.796875 17.1875 
L 4.890625 17.1875 
L 4.890625 26.703125 
z
" id="DejaVuSans-52"/>
       </defs>
       <use xlink:href="#DejaVuSans-52"/>
       <use x="63.623047" xlink:href="#DejaVuSans-48"/>
      </g>
     </g>
    </g>
    <g id="xtick_4">
     <g id="text_4">
      <!-- 60 -->
      <g transform="translate(599.375125 287.06881)scale(0.08 -0.08)">
       <defs>
        <path d="M 33.015625 40.375 
Q 26.375 40.375 22.484375 35.828125 
Q 18.609375 31.296875 18.609375 23.390625 
Q 18.609375 15.53125 22.484375 10.953125 
Q 26.375 6.390625 33.015625 6.390625 
Q 39.65625 6.390625 43.53125 10.953125 
Q 47.40625 15.53125 47.40625 23.390625 
Q 47.40625 31.296875 43.53125 35.828125 
Q 39.65625 40.375 33.015625 40.375 
z
M 52.59375 71.296875 
L 52.59375 62.3125 
Q 48.875 64.0625 45.09375 64.984375 
Q 41.3125 65.921875 37.59375 65.921875 
Q 27.828125 65.921875 22.671875 59.328125 
Q 17.53125 52.734375 16.796875 39.40625 
Q 19.671875 43.65625 24.015625 45.921875 
Q 28.375 48.1875 33.59375 48.1875 
Q 44.578125 48.1875 50.953125 41.515625 
Q 57.328125 34.859375 57.328125 23.390625 
Q 57.328125 12.15625 50.6875 5.359375 
Q 44.046875 -1.421875 33.015625 -1.421875 
Q 20.359375 -1.421875 13.671875 8.265625 
Q 6.984375 17.96875 6.984375 36.375 
Q 6.984375 53.65625 15.1875 63.9375 
Q 23.390625 74.21875 37.203125 74.21875 
Q 40.921875 74.21875 44.703125 73.484375 
Q 48.484375 72.75 52.59375 71.296875 
z
" id="DejaVuSans-54"/>
       </defs>
       <use xlink:href="#DejaVuSans-54"/>
       <use x="63.623047" xlink:href="#DejaVuSans-48"/>
      </g>
     </g>
    </g>
    <g id="xtick_5">
     <g id="text_5">
      <!-- 80 -->
      <g transform="translate(789.874125 287.06881)scale(0.08 -0.08)">
       <defs>
        <path d="M 31.78125 34.625 
Q 24.75 34.625 20.71875 30.859375 
Q 16.703125 27.09375 16.703125 20.515625 
Q 16.703125 13.921875 20.71875 10.15625 
Q 24.75 6.390625 31.78125 6.390625 
Q 38.8125 6.390625 42.859375 10.171875 
Q 46.921875 13.96875 46.921875 20.515625 
Q 46.921875 27.09375 42.890625 30.859375 
Q 38.875 34.625 31.78125 34.625 
z
M 21.921875 38.8125 
Q 15.578125 40.375 12.03125 44.71875 
Q 8.5 49.078125 8.5 55.328125 
Q 8.5 64.0625 14.71875 69.140625 
Q 20.953125 74.21875 31.78125 74.21875 
Q 42.671875 74.21875 48.875 69.140625 
Q 55.078125 64.0625 55.078125 55.328125 
Q 55.078125 49.078125 51.53125 44.71875 
Q 48 40.375 41.703125 38.8125 
Q 48.828125 37.15625 52.796875 32.3125 
Q 56.78125 27.484375 56.78125 20.515625 
Q 56.78125 9.90625 50.3125 4.234375 
Q 43.84375 -1.421875 31.78125 -1.421875 
Q 19.734375 -1.421875 13.25 4.234375 
Q 6.78125 9.90625 6.78125 20.515625 
Q 6.78125 27.484375 10.78125 32.3125 
Q 14.796875 37.15625 21.921875 38.8125 
z
M 18.3125 54.390625 
Q 18.3125 48.734375 21.84375 45.5625 
Q 25.390625 42.390625 31.78125 42.390625 
Q 38.140625 42.390625 41.71875 45.5625 
Q 45.3125 48.734375 45.3125 54.390625 
Q 45.3125 60.0625 41.71875 63.234375 
Q 38.140625 66.40625 31.78125 66.40625 
Q 25.390625 66.40625 21.84375 63.234375 
Q 18.3125 60.0625 18.3125 54.390625 
z
" id="DejaVuSans-56"/>
       </defs>
       <use xlink:href="#DejaVuSans-56"/>
       <use x="63.623047" xlink:href="#DejaVuSans-48"/>
      </g>
     </g>
    </g>
    <g id="xtick_6">
     <g id="text_6">
      <!-- 100 -->
      <g transform="translate(977.828125 287.06881)scale(0.08 -0.08)">
       <defs>
        <path d="M 12.40625 8.296875 
L 28.515625 8.296875 
L 28.515625 63.921875 
L 10.984375 60.40625 
L 10.984375 69.390625 
L 28.421875 72.90625 
L 38.28125 72.90625 
L 38.28125 8.296875 
L 54.390625 8.296875 
L 54.390625 0 
L 12.40625 0 
z
" id="DejaVuSans-49"/>
       </defs>
       <use xlink:href="#DejaVuSans-49"/>
       <use x="63.623047" xlink:href="#DejaVuSans-48"/>
       <use x="127.246094" xlink:href="#DejaVuSans-48"/>
      </g>
     </g>
    </g>
    <g id="text_7">
     <!-- % GC -->
     <g transform="translate(495.510156 300.330997)scale(0.1 -0.1)">
      <defs>
       <path d="M 72.703125 32.078125 
Q 68.453125 32.078125 66.03125 28.46875 
Q 63.625 24.859375 63.625 18.40625 
Q 63.625 12.0625 66.03125 8.421875 
Q 68.453125 4.78125 72.703125 4.78125 
Q 76.859375 4.78125 79.265625 8.421875 
Q 81.6875 12.0625 81.6875 18.40625 
Q 81.6875 24.8125 79.265625 28.4375 
Q 76.859375 32.078125 72.703125 32.078125 
z
M 72.703125 38.28125 
Q 80.421875 38.28125 84.953125 32.90625 
Q 89.5 27.546875 89.5 18.40625 
Q 89.5 9.28125 84.9375 3.921875 
Q 80.375 -1.421875 72.703125 -1.421875 
Q 64.890625 -1.421875 60.34375 3.921875 
Q 55.8125 9.28125 55.8125 18.40625 
Q 55.8125 27.59375 60.375 32.9375 
Q 64.9375 38.28125 72.703125 38.28125 
z
M 22.3125 68.015625 
Q 18.109375 68.015625 15.6875 64.375 
Q 13.28125 60.75 13.28125 54.390625 
Q 13.28125 47.953125 15.671875 44.328125 
Q 18.0625 40.71875 22.3125 40.71875 
Q 26.5625 40.71875 28.96875 44.328125 
Q 31.390625 47.953125 31.390625 54.390625 
Q 31.390625 60.6875 28.953125 64.34375 
Q 26.515625 68.015625 22.3125 68.015625 
z
M 66.40625 74.21875 
L 74.21875 74.21875 
L 28.609375 -1.421875 
L 20.796875 -1.421875 
z
M 22.3125 74.21875 
Q 30.03125 74.21875 34.609375 68.875 
Q 39.203125 63.53125 39.203125 54.390625 
Q 39.203125 45.171875 34.640625 39.84375 
Q 30.078125 34.515625 22.3125 34.515625 
Q 14.546875 34.515625 10.03125 39.859375 
Q 5.515625 45.21875 5.515625 54.390625 
Q 5.515625 63.484375 10.046875 68.84375 
Q 14.59375 74.21875 22.3125 74.21875 
z
" id="DejaVuSans-37"/>
       <path id="DejaVuSans-32"/>
       <path d="M 59.515625 10.40625 
L 59.515625 29.984375 
L 43.40625 29.984375 
L 43.40625 38.09375 
L 69.28125 38.09375 
L 69.28125 6.78125 
Q 63.578125 2.734375 56.6875 0.65625 
Q 49.8125 -1.421875 42 -1.421875 
Q 24.90625 -1.421875 15.25 8.5625 
Q 5.609375 18.5625 5.609375 36.375 
Q 5.609375 54.25 15.25 64.234375 
Q 24.90625 74.21875 42 74.21875 
Q 49.125 74.21875 55.546875 72.453125 
Q 61.96875 70.703125 67.390625 67.28125 
L 67.390625 56.78125 
Q 61.921875 61.421875 55.765625 63.765625 
Q 49.609375 66.109375 42.828125 66.109375 
Q 29.4375 66.109375 22.71875 58.640625 
Q 16.015625 51.171875 16.015625 36.375 
Q 16.015625 21.625 22.71875 14.15625 
Q 29.4375 6.6875 42.828125 6.6875 
Q 48.046875 6.6875 52.140625 7.59375 
Q 56.25 8.5 59.515625 10.40625 
z
" id="DejaVuSans-71"/>
       <path d="M 64.40625 67.28125 
L 64.40625 56.890625 
Q 59.421875 61.53125 53.78125 63.8125 
Q 48.140625 66.109375 41.796875 66.109375 
Q 29.296875 66.109375 22.65625 58.46875 
Q 16.015625 50.828125 16.015625 36.375 
Q 16.015625 21.96875 22.65625 14.328125 
Q 29.296875 6.6875 41.796875 6.6875 
Q 48.140625 6.6875 53.78125 8.984375 
Q 59.421875 11.28125 64.40625 15.921875 
L 64.40625 5.609375 
Q 59.234375 2.09375 53.4375 0.328125 
Q 47.65625 -1.421875 41.21875 -1.421875 
Q 24.65625 -1.421875 15.125 8.703125 
Q 5.609375 18.84375 5.609375 36.375 
Q 5.609375 53.953125 15.125 64.078125 
Q 24.65625 74.21875 41.21875 74.21875 
Q 47.75 74.21875 53.53125 72.484375 
Q 59.328125 70.75 64.40625 67.28125 
z
" id="DejaVuSans-67"/>
      </defs>
      <use xlink:href="#DejaVuSans-37"/>
      <use x="95.019531" xlink:href="#DejaVuSans-32"/>
      <use x="126.806641" xlink:href="#DejaVuSans-71"/>
      <use x="204.296875" xlink:href="#DejaVuSans-67"/>
     </g>
    </g>
   </g>
   <g id="matplotlib.axis_2">
    <g id="ytick_1">
     <g id="line2d_1">
      <path clip-path="url(#p3f99634151)" d="M 32.968125 273.99006 
L 985.463125 273.99006 
" style="fill:none;stroke:#dedede;stroke-linecap:square;"/>
     </g>
     <g id="text_8">
      <!-- 0 -->
      <g transform="translate(20.878125 277.029435)scale(0.08 -0.08)">
       <use xlink:href="#DejaVuSans-48"/>
      </g>
     </g>
    </g>
    <g id="ytick_2">
     <g id="line2d_2">
      <path clip-path="url(#p3f99634151)" d="M 32.968125 229.9823 
L 985.463125 229.9823 
" style="fill:none;stroke:#dedede;stroke-linecap:square;"/>
     </g>
     <g id="text_9">
      <!-- 1 -->
      <g transform="translate(20.878125 233.021675)scale(0.08 -0.08)">
       <use xlink:href="#DejaVuSans-49"/>
      </g>
     </g>
    </g>
    <g id="ytick_3">
     <g id="line2d_3">
      <path clip-path="url(#p3f99634151)" d="M 32.968125 185.97454 
L 985.463125 185.97454 
" style="fill:none;stroke:#dedede;stroke-linecap:square;"/>
     </g>
     <g id="text_10">
      <!-- 2 -->
      <g transform="translate(20.878125 189.013915)scale(0.08 -0.08)">
       <use xlink:href="#DejaVuSans-50"/>
      </g>
     </g>
    </g>
    <g id="ytick_4">
     <g id="line2d_4">
      <path clip-path="url(#p3f99634151)" d="M 32.968125 141.96678 
L 985.463125 141.96678 
" style="fill:none;stroke:#dedede;stroke-linecap:square;"/>
     </g>
     <g id="text_11">
      <!-- 3 -->
      <g transform="translate(20.878125 145.006155)scale(0.08 -0.08)">
       <defs>
        <path d="M 40.578125 39.3125 
Q 47.65625 37.796875 51.625 33 
Q 55.609375 28.21875 55.609375 21.1875 
Q 55.609375 10.40625 48.1875 4.484375 
Q 40.765625 -1.421875 27.09375 -1.421875 
Q 22.515625 -1.421875 17.65625 -0.515625 
Q 12.796875 0.390625 7.625 2.203125 
L 7.625 11.71875 
Q 11.71875 9.328125 16.59375 8.109375 
Q 21.484375 6.890625 26.8125 6.890625 
Q 36.078125 6.890625 40.9375 10.546875 
Q 45.796875 14.203125 45.796875 21.1875 
Q 45.796875 27.640625 41.28125 31.265625 
Q 36.765625 34.90625 28.71875 34.90625 
L 20.21875 34.90625 
L 20.21875 43.015625 
L 29.109375 43.015625 
Q 36.375 43.015625 40.234375 45.921875 
Q 44.09375 48.828125 44.09375 54.296875 
Q 44.09375 59.90625 40.109375 62.90625 
Q 36.140625 65.921875 28.71875 65.921875 
Q 24.65625 65.921875 20.015625 65.03125 
Q 15.375 64.15625 9.8125 62.3125 
L 9.8125 71.09375 
Q 15.4375 72.65625 20.34375 73.4375 
Q 25.25 74.21875 29.59375 74.21875 
Q 40.828125 74.21875 47.359375 69.109375 
Q 53.90625 64.015625 53.90625 55.328125 
Q 53.90625 49.265625 50.4375 45.09375 
Q 46.96875 40.921875 40.578125 39.3125 
z
" id="DejaVuSans-51"/>
       </defs>
       <use xlink:href="#DejaVuSans-51"/>
      </g>
     </g>
    </g>
    <g id="ytick_5">
     <g id="line2d_5">
      <path clip-path="url(#p3f99634151)" d="M 32.968125 97.95902 
L 985.463125 97.95902 
" style="fill:none;stroke:#dedede;stroke-linecap:square;"/>
     </g>
     <g id="text_12">
      <!-- 4 -->
      <g transform="translate(20.878125 100.998395)scale(0.08 -0.08)">
       <use xlink:href="#DejaVuSans-52"/>
      </g>
     </g>
    </g>
    <g id="ytick_6">
     <g id="line2d_6">
      <path clip-path="url(#p3f99634151)" d="M 32.968125 53.95126 
L 985.463125 53.95126 
" style="fill:none;stroke:#dedede;stroke-linecap:square;"/>
     </g>
     <g id="text_13">
      <!-- 5 -->
      <g transform="translate(20.878125 56.990635)scale(0.08 -0.08)">
       <defs>
        <path d="M 10.796875 72.90625 
L 49.515625 72.90625 
L 49.515625 64.59375 
L 19.828125 64.59375 
L 19.828125 46.734375 
Q 21.96875 47.46875 24.109375 47.828125 
Q 26.265625 48.1875 28.421875 48.1875 
Q 40.625 48.1875 47.75 41.5 
Q 54.890625 34.8125 54.890625 23.390625 
Q 54.890625 11.625 47.5625 5.09375 
Q 40.234375 -1.421875 26.90625 -1.421875 
Q 22.3125 -1.421875 17.546875 -0.640625 
Q 12.796875 0.140625 7.71875 1.703125 
L 7.71875 11.625 
Q 12.109375 9.234375 16.796875 8.0625 
Q 21.484375 6.890625 26.703125 6.890625 
Q 35.15625 6.890625 40.078125 11.328125 
Q 45.015625 15.765625 45.015625 23.390625 
Q 45.015625 31 40.078125 35.4375 
Q 35.15625 39.890625 26.703125 39.890625 
Q 22.75 39.890625 18.8125 39.015625 
Q 14.890625 38.140625 10.796875 36.28125 
z
" id="DejaVuSans-53"/>
       </defs>
       <use xlink:href="#DejaVuSans-53"/>
      </g>
     </g>
    </g>
    <g id="text_14">
     <!-- Percentage -->
     <g transform="translate(14.798437 180.859116)rotate(-90)scale(0.1 -0.1)">
      <defs>
       <path d="M 19.671875 64.796875 
L 19.671875 37.40625 
L 32.078125 37.40625 
Q 38.96875 37.40625 42.71875 40.96875 
Q 46.484375 44.53125 46.484375 51.125 
Q 46.484375 57.671875 42.71875 61.234375 
Q 38.96875 64.796875 32.078125 64.796875 
z
M 9.8125 72.90625 
L 32.078125 72.90625 
Q 44.34375 72.90625 50.609375 67.359375 
Q 56.890625 61.8125 56.890625 51.125 
Q 56.890625 40.328125 50.609375 34.8125 
Q 44.34375 29.296875 32.078125 29.296875 
L 19.671875 29.296875 
L 19.671875 0 
L 9.8125 0 
z
" id="DejaVuSans-80"/>
       <path d="M 56.203125 29.59375 
L 56.203125 25.203125 
L 14.890625 25.203125 
Q 15.484375 15.921875 20.484375 11.0625 
Q 25.484375 6.203125 34.421875 6.203125 
Q 39.59375 6.203125 44.453125 7.46875 
Q 49.3125 8.734375 54.109375 11.28125 
L 54.109375 2.78125 
Q 49.265625 0.734375 44.1875 -0.34375 
Q 39.109375 -1.421875 33.890625 -1.421875 
Q 20.796875 -1.421875 13.15625 6.1875 
Q 5.515625 13.8125 5.515625 26.8125 
Q 5.515625 40.234375 12.765625 48.109375 
Q 20.015625 56 32.328125 56 
Q 43.359375 56 49.78125 48.890625 
Q 56.203125 41.796875 56.203125 29.59375 
z
M 47.21875 32.234375 
Q 47.125 39.59375 43.09375 43.984375 
Q 39.0625 48.390625 32.421875 48.390625 
Q 24.90625 48.390625 20.390625 44.140625 
Q 15.875 39.890625 15.1875 32.171875 
z
" id="DejaVuSans-101"/>
       <path d="M 41.109375 46.296875 
Q 39.59375 47.171875 37.8125 47.578125 
Q 36.03125 48 33.890625 48 
Q 26.265625 48 22.1875 43.046875 
Q 18.109375 38.09375 18.109375 28.8125 
L 18.109375 0 
L 9.078125 0 
L 9.078125 54.6875 
L 18.109375 54.6875 
L 18.109375 46.1875 
Q 20.953125 51.171875 25.484375 53.578125 
Q 30.03125 56 36.53125 56 
Q 37.453125 56 38.578125 55.875 
Q 39.703125 55.765625 41.0625 55.515625 
z
" id="DejaVuSans-114"/>
       <path d="M 48.78125 52.59375 
L 48.78125 44.1875 
Q 44.96875 46.296875 41.140625 47.34375 
Q 37.3125 48.390625 33.40625 48.390625 
Q 24.65625 48.390625 19.8125 42.84375 
Q 14.984375 37.3125 14.984375 27.296875 
Q 14.984375 17.28125 19.8125 11.734375 
Q 24.65625 6.203125 33.40625 6.203125 
Q 37.3125 6.203125 41.140625 7.25 
Q 44.96875 8.296875 48.78125 10.40625 
L 48.78125 2.09375 
Q 45.015625 0.34375 40.984375 -0.53125 
Q 36.96875 -1.421875 32.421875 -1.421875 
Q 20.0625 -1.421875 12.78125 6.34375 
Q 5.515625 14.109375 5.515625 27.296875 
Q 5.515625 40.671875 12.859375 48.328125 
Q 20.21875 56 33.015625 56 
Q 37.15625 56 41.109375 55.140625 
Q 45.0625 54.296875 48.78125 52.59375 
z
" id="DejaVuSans-99"/>
       <path d="M 54.890625 33.015625 
L 54.890625 0 
L 45.90625 0 
L 45.90625 32.71875 
Q 45.90625 40.484375 42.875 44.328125 
Q 39.84375 48.1875 33.796875 48.1875 
Q 26.515625 48.1875 22.3125 43.546875 
Q 18.109375 38.921875 18.109375 30.90625 
L 18.109375 0 
L 9.078125 0 
L 9.078125 54.6875 
L 18.109375 54.6875 
L 18.109375 46.1875 
Q 21.34375 51.125 25.703125 53.5625 
Q 30.078125 56 35.796875 56 
Q 45.21875 56 50.046875 50.171875 
Q 54.890625 44.34375 54.890625 33.015625 
z
" id="DejaVuSans-110"/>
       <path d="M 18.3125 70.21875 
L 18.3125 54.6875 
L 36.8125 54.6875 
L 36.8125 47.703125 
L 18.3125 47.703125 
L 18.3125 18.015625 
Q 18.3125 11.328125 20.140625 9.421875 
Q 21.96875 7.515625 27.59375 7.515625 
L 36.8125 7.515625 
L 36.8125 0 
L 27.59375 0 
Q 17.1875 0 13.234375 3.875 
Q 9.28125 7.765625 9.28125 18.015625 
L 9.28125 47.703125 
L 2.6875 47.703125 
L 2.6875 54.6875 
L 9.28125 54.6875 
L 9.28125 70.21875 
z
" id="DejaVuSans-116"/>
       <path d="M 34.28125 27.484375 
Q 23.390625 27.484375 19.1875 25 
Q 14.984375 22.515625 14.984375 16.5 
Q 14.984375 11.71875 18.140625 8.90625 
Q 21.296875 6.109375 26.703125 6.109375 
Q 34.1875 6.109375 38.703125 11.40625 
Q 43.21875 16.703125 43.21875 25.484375 
L 43.21875 27.484375 
z
M 52.203125 31.203125 
L 52.203125 0 
L 43.21875 0 
L 43.21875 8.296875 
Q 40.140625 3.328125 35.546875 0.953125 
Q 30.953125 -1.421875 24.3125 -1.421875 
Q 15.921875 -1.421875 10.953125 3.296875 
Q 6 8.015625 6 15.921875 
Q 6 25.140625 12.171875 29.828125 
Q 18.359375 34.515625 30.609375 34.515625 
L 43.21875 34.515625 
L 43.21875 35.40625 
Q 43.21875 41.609375 39.140625 45 
Q 35.0625 48.390625 27.6875 48.390625 
Q 23 48.390625 18.546875 47.265625 
Q 14.109375 46.140625 10.015625 43.890625 
L 10.015625 52.203125 
Q 14.9375 54.109375 19.578125 55.046875 
Q 24.21875 56 28.609375 56 
Q 40.484375 56 46.34375 49.84375 
Q 52.203125 43.703125 52.203125 31.203125 
z
" id="DejaVuSans-97"/>
       <path d="M 45.40625 27.984375 
Q 45.40625 37.75 41.375 43.109375 
Q 37.359375 48.484375 30.078125 48.484375 
Q 22.859375 48.484375 18.828125 43.109375 
Q 14.796875 37.75 14.796875 27.984375 
Q 14.796875 18.265625 18.828125 12.890625 
Q 22.859375 7.515625 30.078125 7.515625 
Q 37.359375 7.515625 41.375 12.890625 
Q 45.40625 18.265625 45.40625 27.984375 
z
M 54.390625 6.78125 
Q 54.390625 -7.171875 48.1875 -13.984375 
Q 42 -20.796875 29.203125 -20.796875 
Q 24.46875 -20.796875 20.265625 -20.09375 
Q 16.0625 -19.390625 12.109375 -17.921875 
L 12.109375 -9.1875 
Q 16.0625 -11.328125 19.921875 -12.34375 
Q 23.78125 -13.375 27.78125 -13.375 
Q 36.625 -13.375 41.015625 -8.765625 
Q 45.40625 -4.15625 45.40625 5.171875 
L 45.40625 9.625 
Q 42.625 4.78125 38.28125 2.390625 
Q 33.9375 0 27.875 0 
Q 17.828125 0 11.671875 7.65625 
Q 5.515625 15.328125 5.515625 27.984375 
Q 5.515625 40.671875 11.671875 48.328125 
Q 17.828125 56 27.875 56 
Q 33.9375 56 38.28125 53.609375 
Q 42.625 51.21875 45.40625 46.390625 
L 45.40625 54.6875 
L 54.390625 54.6875 
z
" id="DejaVuSans-103"/>
      </defs>
      <use xlink:href="#DejaVuSans-80"/>
      <use x="56.677734" xlink:href="#DejaVuSans-101"/>
      <use x="118.201172" xlink:href="#DejaVuSans-114"/>
      <use x="157.064453" xlink:href="#DejaVuSans-99"/>
      <use x="212.044922" xlink:href="#DejaVuSans-101"/>
      <use x="273.568359" xlink:href="#DejaVuSans-110"/>
      <use x="336.947266" xlink:href="#DejaVuSans-116"/>
      <use x="376.15625" xlink:href="#DejaVuSans-97"/>
      <use x="437.435547" xlink:href="#DejaVuSans-103"/>
      <use x="500.912109" xlink:href="#DejaVuSans-101"/>
     </g>
    </g>
   </g>
   <g id="line2d_7">
    <path clip-path="url(#p3f99634151)" d="M 32.968125 273.83662 
L 42.493075 273.85854 
L 52.018025 273.90238 
L 61.542975 273.91334 
L 71.067925 273.89142 
L 80.592875 273.85854 
L 90.117825 273.8695 
L 99.642775 273.91334 
L 109.167725 273.90238 
L 118.692675 273.83662 
L 128.217625 273.78182 
L 137.742575 273.7051 
L 147.267525 273.6503 
L 156.792475 273.5407 
L 166.317425 273.387261 
L 175.842375 272.905021 
L 185.367325 272.411821 
L 194.892275 271.622702 
L 204.417225 270.745903 
L 213.942175 269.375904 
L 223.467125 267.994945 
L 232.992075 264.948068 
L 242.517025 261.671031 
L 252.041975 257.593914 
L 261.566925 253.407198 
L 271.091875 248.069682 
L 280.616825 239.882569 
L 290.141775 229.350018 
L 299.666725 217.074829 
L 309.191675 201.555482 
L 318.716625 184.973016 
L 328.241575 167.020552 
L 337.766525 148.487207 
L 347.291475 129.811383 
L 356.816425 110.60948 
L 366.341375 93.654374 
L 375.866325 80.250306 
L 385.391275 66.374958 
L 394.916225 53.486009 
L 404.441175 48.214253 
L 413.966125 45.529056 
L 423.491075 47.600494 
L 433.016025 51.86393 
L 442.540975 60.401763 
L 452.065925 71.602873 
L 461.590875 87.14414 
L 471.115825 103.310126 
L 480.640775 119.991232 
L 490.165725 136.924417 
L 499.690675 154.657682 
L 509.215625 171.579908 
L 518.740575 186.825255 
L 528.265525 200.952683 
L 537.790475 212.877152 
L 547.315425 224.889302 
L 556.840375 234.062814 
L 566.365325 241.044328 
L 575.890275 247.412083 
L 585.415225 253.418158 
L 594.940175 257.736394 
L 604.465125 261.484711 
L 613.990075 263.435589 
L 623.515025 265.265907 
L 633.039975 266.844146 
L 642.564925 268.367585 
L 652.089875 269.682784 
L 661.614825 270.866463 
L 671.139775 271.699422 
L 680.664725 272.335101 
L 690.189675 272.795421 
L 699.714625 273.266701 
L 709.239575 273.52974 
L 718.764525 273.63934 
L 728.289475 273.71606 
L 737.814425 273.8147 
L 747.339375 273.84758 
L 756.864325 273.89142 
L 766.389275 273.93526 
L 775.914225 273.95718 
L 785.439175 273.95718 
L 794.964125 273.94622 
L 804.489075 273.96814 
L 814.014025 273.99006 
L 823.538975 273.99006 
L 833.063925 273.99006 
L 842.588875 273.99006 
L 852.113825 273.99006 
L 861.638775 273.99006 
L 871.163725 273.99006 
L 880.688675 273.99006 
L 890.213625 273.99006 
L 899.738575 273.99006 
L 909.263525 273.99006 
L 918.788475 273.99006 
L 928.313425 273.99006 
L 937.838375 273.99006 
L 947.363325 273.99006 
L 956.888275 273.99006 
L 966.413225 273.99006 
L 975.938175 273.99006 
L 985.463125 273.99006 
" style="fill:none;stroke:#5cb85c;stroke-linecap:square;"/>
   </g>
   <g id="line2d_8">
    <path clip-path="url(#p3f99634151)" d="M 32.968125 273.9026 
L 42.493075 273.891668 
L 52.018025 273.880735 
L 61.542975 273.880735 
L 71.067925 273.880735 
L 80.592875 273.9026 
L 90.117825 273.9026 
L 99.642775 273.880735 
L 109.167725 273.869803 
L 118.692675 273.804208 
L 128.217625 273.738613 
L 137.742575 273.683951 
L 147.267525 273.662086 
L 156.792475 273.519964 
L 166.317425 273.36691 
L 175.842375 273.071733 
L 185.367325 272.721894 
L 194.892275 272.109676 
L 204.417225 271.475593 
L 213.942175 269.715467 
L 223.467125 267.73669 
L 232.992075 265.244089 
L 242.517025 262.707757 
L 252.041975 257.810013 
L 261.566925 252.726417 
L 271.091875 247.94893 
L 280.616825 240.558585 
L 290.141775 230.391393 
L 299.666725 218.562467 
L 309.191675 204.47052 
L 318.716625 189.460247 
L 328.241575 170.372165 
L 337.766525 149.381833 
L 347.291475 129.298897 
L 356.816425 111.260331 
L 366.341375 95.266136 
L 375.866325 77.05265 
L 385.391275 61.375497 
L 394.916225 51.973578 
L 404.441175 46.474548 
L 413.966125 43.030822 
L 423.491075 48.016026 
L 433.016025 54.848816 
L 442.540975 64.873885 
L 452.065925 76.145256 
L 461.590875 88.67386 
L 471.115825 103.629471 
L 480.640775 120.017235 
L 490.165725 133.879599 
L 499.690675 150.398553 
L 509.215625 168.699498 
L 518.740575 184.234529 
L 528.265525 198.39207 
L 537.790475 211.412635 
L 547.315425 223.656995 
L 556.840375 232.763738 
L 566.365325 241.476912 
L 575.890275 248.189445 
L 585.415225 253.294905 
L 594.940175 257.361782 
L 604.465125 261.07882 
L 613.990075 263.647949 
L 623.515025 265.856307 
L 633.039975 267.222865 
L 642.564925 268.337976 
L 652.089875 269.496817 
L 661.614825 270.939902 
L 671.139775 271.694243 
L 680.664725 272.065946 
L 690.189675 272.546975 
L 699.714625 273.060801 
L 709.239575 273.355977 
L 718.764525 273.498099 
L 728.289475 273.618356 
L 737.814425 273.815141 
L 747.339375 273.9026 
L 756.864325 273.924465 
L 766.389275 273.935398 
L 775.914225 273.94633 
L 785.439175 273.924465 
L 794.964125 273.913533 
L 804.489075 273.94633 
L 814.014025 273.957263 
L 823.538975 273.94633 
L 833.063925 273.94633 
L 842.588875 273.968195 
L 852.113825 273.99006 
L 861.638775 273.979128 
L 871.163725 273.957263 
L 880.688675 273.957263 
L 890.213625 273.968195 
L 899.738575 273.979128 
L 909.263525 273.99006 
L 918.788475 273.99006 
L 928.313425 273.99006 
L 937.838375 273.99006 
L 947.363325 273.99006 
L 956.888275 273.99006 
L 966.413225 273.99006 
L 975.938175 273.99006 
L 985.463125 273.99006 
" style="fill:none;stroke:#5cb85c;stroke-linecap:square;"/>
   </g>
   <g id="line2d_9">
    <path clip-path="url(#p3f99634151)" d="M 32.968125 273.771053 
L 42.493075 273.705351 
L 52.018025 273.705351 
L 61.542975 273.760102 
L 71.067925 273.803904 
L 80.592875 273.847705 
L 90.117825 273.814854 
L 99.642775 273.814854 
L 109.167725 273.814854 
L 118.692675 273.672499 
L 128.217625 273.530145 
L 137.742575 273.38779 
L 147.267525 273.256386 
L 156.792475 272.949775 
L 166.317425 272.599364 
L 175.842375 272.238002 
L 185.367325 271.832838 
L 194.892275 270.529745 
L 204.417225 269.259503 
L 213.942175 267.95641 
L 223.467125 266.489061 
L 232.992075 262.327923 
L 242.517025 257.882075 
L 252.041975 251.738921 
L 261.566925 245.442462 
L 271.091875 239.715421 
L 280.616825 230.714222 
L 290.141775 217.464282 
L 299.666725 203.393065 
L 309.191675 188.095407 
L 318.716625 171.078541 
L 328.241575 151.499291 
L 337.766525 131.646281 
L 347.291475 112.658351 
L 356.816425 94.217938 
L 366.341375 77.781442 
L 375.866325 62.582337 
L 385.391275 53.449734 
L 394.916225 47.175175 
L 404.441175 44.656592 
L 413.966125 46.890466 
L 423.491075 54.566671 
L 433.016025 63.337912 
L 442.540975 76.040334 
L 452.065925 88.87416 
L 461.590875 102.156952 
L 471.115825 117.815972 
L 480.640775 135.82932 
L 490.165725 152.057759 
L 499.690675 167.957688 
L 509.215625 184.656992 
L 518.740575 199.319529 
L 528.265525 211.507284 
L 537.790475 222.194839 
L 547.315425 233.068551 
L 556.840375 240.930912 
L 566.365325 247.873442 
L 575.890275 253.381475 
L 585.415225 257.882075 
L 594.940175 261.178134 
L 604.465125 264.036179 
L 613.990075 266.018195 
L 623.515025 267.693601 
L 633.039975 268.952893 
L 642.564925 270.168383 
L 652.089875 271.066313 
L 661.614825 271.821888 
L 671.139775 272.238002 
L 680.664725 272.78552 
L 690.189675 273.223535 
L 699.714625 273.431591 
L 709.239575 273.541095 
L 718.764525 273.650599 
L 728.289475 273.738202 
L 737.814425 273.836755 
L 747.339375 273.858656 
L 756.864325 273.869606 
L 766.389275 273.913407 
L 775.914225 273.946259 
L 785.439175 273.957209 
L 794.964125 273.968159 
L 804.489075 273.957209 
L 814.014025 273.957209 
L 823.538975 273.97911 
L 833.063925 273.99006 
L 842.588875 273.99006 
L 852.113825 273.99006 
L 861.638775 273.99006 
L 871.163725 273.99006 
L 880.688675 273.99006 
L 890.213625 273.99006 
L 899.738575 273.99006 
L 909.263525 273.99006 
L 918.788475 273.99006 
L 928.313425 273.99006 
L 937.838375 273.99006 
L 947.363325 273.99006 
L 956.888275 273.99006 
L 966.413225 273.99006 
L 975.938175 273.99006 
L 985.463125 273.99006 
" style="fill:none;stroke:#5cb85c;stroke-linecap:square;"/>
   </g>
   <g id="line2d_10">
    <path clip-path="url(#p3f99634151)" d="M 32.968125 273.793172 
L 42.493075 273.771296 
L 52.018025 273.760358 
L 61.542975 273.760358 
L 71.067925 273.771296 
L 80.592875 273.74942 
L 90.117825 273.738481 
L 99.642775 273.694729 
L 109.167725 273.650976 
L 118.692675 273.716605 
L 128.217625 273.760358 
L 137.742575 273.629099 
L 147.267525 273.44315 
L 156.792475 273.005622 
L 166.317425 272.568094 
L 175.842375 271.857111 
L 185.367325 271.13519 
L 194.892275 270.413269 
L 204.417225 269.691348 
L 213.942175 267.700596 
L 223.467125 265.316069 
L 232.992075 261.575206 
L 242.517025 257.921848 
L 252.041975 252.08085 
L 261.566925 245.966398 
L 271.091875 240.36604 
L 280.616825 231.352966 
L 290.141775 217.592713 
L 299.666725 202.465186 
L 309.191675 186.96576 
L 318.716625 170.044368 
L 328.241575 151.197853 
L 337.766525 132.154451 
L 347.291475 114.007981 
L 356.816425 97.458488 
L 366.341375 80.657417 
L 375.866325 66.054923 
L 385.391275 56.473062 
L 394.916225 48.53193 
L 404.441175 46.738066 
L 413.966125 47.394358 
L 423.491075 52.535311 
L 433.016025 60.859279 
L 442.540975 72.661594 
L 452.065925 84.573292 
L 461.590875 101.002464 
L 471.115825 118.68953 
L 480.640775 135.348405 
L 490.165725 152.740139 
L 499.690675 169.683407 
L 509.215625 184.646862 
L 518.740575 197.52112 
L 528.265525 209.695334 
L 537.790475 221.508588 
L 547.315425 232.228021 
L 556.840375 240.694186 
L 566.365325 248.788453 
L 575.890275 253.459063 
L 585.415225 257.396814 
L 594.940175 261.378318 
L 604.465125 264.550395 
L 613.990075 266.300507 
L 623.515025 268.160001 
L 633.039975 269.538214 
L 642.564925 270.413269 
L 652.089875 270.938303 
L 661.614825 271.671162 
L 671.139775 272.316516 
L 680.664725 272.721229 
L 690.189675 272.819673 
L 699.714625 273.071251 
L 709.239575 273.377521 
L 718.764525 273.541594 
L 728.289475 273.650976 
L 737.814425 273.793172 
L 747.339375 273.880678 
L 756.864325 273.891616 
L 766.389275 273.902554 
L 775.914225 273.935369 
L 785.439175 273.946307 
L 794.964125 273.946307 
L 804.489075 273.968184 
L 814.014025 273.99006 
L 823.538975 273.968184 
L 833.063925 273.935369 
L 842.588875 273.924431 
L 852.113825 273.935369 
L 861.638775 273.957245 
L 871.163725 273.968184 
L 880.688675 273.979122 
L 890.213625 273.99006 
L 899.738575 273.99006 
L 909.263525 273.99006 
L 918.788475 273.99006 
L 928.313425 273.99006 
L 937.838375 273.99006 
L 947.363325 273.99006 
L 956.888275 273.99006 
L 966.413225 273.99006 
L 975.938175 273.99006 
L 985.463125 273.99006 
" style="fill:none;stroke:#5cb85c;stroke-linecap:square;"/>
   </g>
   <g id="line2d_11">
    <path clip-path="url(#p3f99634151)" d="M 32.968125 273.99006 
L 42.493075 273.99006 
L 52.018025 273.99006 
L 61.542975 273.99006 
L 71.067925 273.961317 
L 80.592875 273.932574 
L 90.117825 273.918202 
L 99.642775 273.918202 
L 109.167725 273.889459 
L 118.692675 273.80323 
L 128.217625 273.702629 
L 137.742575 273.587656 
L 147.267525 273.429569 
L 156.792475 273.142137 
L 166.317425 272.883449 
L 175.842375 272.782848 
L 185.367325 272.179242 
L 194.892275 271.460664 
L 204.417225 270.900172 
L 213.942175 269.951649 
L 223.467125 268.327661 
L 232.992075 267.249794 
L 242.517025 266.272527 
L 252.041975 263.570672 
L 261.566925 260.753844 
L 271.091875 257.908273 
L 280.616825 251.340465 
L 290.141775 243.177414 
L 299.666725 234.942504 
L 309.191675 227.929178 
L 318.716625 217.193615 
L 328.241575 202.850788 
L 337.766525 191.022985 
L 347.291475 182.845562 
L 356.816425 173.906445 
L 366.341375 157.968374 
L 375.866325 141.282981 
L 385.391275 132.070804 
L 394.916225 122.456224 
L 404.441175 104.046243 
L 413.966125 94.331061 
L 423.491075 91.269917 
L 433.016025 85.80872 
L 442.540975 79.154683 
L 452.065925 76.955833 
L 461.590875 78.263646 
L 471.115825 74.483923 
L 480.640775 78.39299 
L 490.165725 92.606473 
L 499.690675 103.38515 
L 509.215625 107.107387 
L 518.740575 118.863331 
L 528.265525 132.21452 
L 537.790475 148.698711 
L 547.315425 170.01175 
L 556.840375 185.188128 
L 566.365325 201.873521 
L 575.890275 215.943288 
L 585.415225 224.336285 
L 594.940175 231.953217 
L 604.465125 239.268346 
L 613.990075 245.43375 
L 623.515025 250.018281 
L 633.039975 252.835109 
L 642.564925 256.011226 
L 652.089875 259.719091 
L 661.614825 263.671273 
L 671.139775 266.660559 
L 680.664725 268.571978 
L 690.189675 270.181594 
L 699.714625 271.24509 
L 709.239575 271.532521 
L 718.764525 272.035526 
L 728.289475 272.596018 
L 737.814425 272.883449 
L 747.339375 273.127766 
L 756.864325 273.199624 
L 766.389275 273.185252 
L 775.914225 273.242738 
L 785.439175 273.429569 
L 794.964125 273.602028 
L 804.489075 273.717 
L 814.014025 273.731372 
L 823.538975 273.717 
L 833.063925 273.817601 
L 842.588875 273.932574 
L 852.113825 273.932574 
L 861.638775 273.932574 
L 871.163725 273.975688 
L 880.688675 273.99006 
L 890.213625 273.99006 
L 899.738575 273.99006 
L 909.263525 273.99006 
L 918.788475 273.961317 
L 928.313425 273.961317 
L 937.838375 273.99006 
L 947.363325 273.99006 
L 956.888275 273.99006 
L 966.413225 273.99006 
L 975.938175 273.932574 
L 985.463125 273.875087 
" style="fill:none;stroke:#5cb85c;stroke-linecap:square;"/>
   </g>
   <g id="line2d_12">
    <path clip-path="url(#p3f99634151)" d="M 32.968125 273.6453 
L 42.493075 273.67403 
L 52.018025 273.745855 
L 61.542975 273.76022 
L 71.067925 273.73149 
L 80.592875 273.774585 
L 90.117825 273.81768 
L 99.642775 273.67403 
L 109.167725 273.516015 
L 118.692675 273.516015 
L 128.217625 273.47292 
L 137.742575 273.21435 
L 147.267525 272.998875 
L 156.792475 272.98451 
L 166.317425 272.769035 
L 175.842375 272.395545 
L 185.367325 271.935865 
L 194.892275 271.591105 
L 204.417225 271.23198 
L 213.942175 270.154604 
L 223.467125 268.689374 
L 232.992075 267.856204 
L 242.517025 266.663909 
L 252.041975 263.661623 
L 261.566925 259.136647 
L 271.091875 255.602857 
L 280.616825 251.753036 
L 290.141775 244.78601 
L 299.666725 236.138278 
L 309.191675 228.984507 
L 318.716625 217.636155 
L 328.241575 203.184962 
L 337.766525 191.218915 
L 347.291475 182.312614 
L 356.816425 172.587507 
L 366.341375 157.102034 
L 375.866325 141.961322 
L 385.391275 132.264945 
L 394.916225 121.764128 
L 404.441175 104.56922 
L 413.966125 95.303793 
L 423.491075 92.402063 
L 433.016025 86.928997 
L 442.540975 80.550936 
L 452.065925 77.361905 
L 461.590875 77.103335 
L 471.115825 73.454624 
L 480.640775 77.83595 
L 490.165725 92.315873 
L 499.690675 104.325015 
L 509.215625 110.286491 
L 518.740575 120.198343 
L 528.265525 131.891455 
L 537.790475 149.000173 
L 547.315425 170.475852 
L 556.840375 185.774579 
L 566.365325 200.527437 
L 575.890275 214.777519 
L 585.415225 224.402071 
L 594.940175 231.972428 
L 604.465125 239.887544 
L 613.990075 246.07886 
L 623.515025 250.402726 
L 633.039975 253.031521 
L 642.564925 256.364202 
L 652.089875 259.653787 
L 661.614825 263.359958 
L 671.139775 266.563354 
L 680.664725 268.502629 
L 690.189675 270.168969 
L 699.714625 271.160154 
L 709.239575 271.54801 
L 718.764525 272.06515 
L 728.289475 272.567925 
L 737.814425 272.855225 
L 747.339375 273.12816 
L 756.864325 273.228715 
L 766.389275 273.228715 
L 775.914225 273.314905 
L 785.439175 273.487285 
L 794.964125 273.61657 
L 804.489075 273.659665 
L 814.014025 273.6453 
L 823.538975 273.67403 
L 833.063925 273.803315 
L 842.588875 273.90387 
L 852.113825 273.889505 
L 861.638775 273.889505 
L 871.163725 273.918235 
L 880.688675 273.9326 
L 890.213625 273.946965 
L 899.738575 273.96133 
L 909.263525 273.96133 
L 918.788475 273.975695 
L 928.313425 273.96133 
L 937.838375 273.9326 
L 947.363325 273.918235 
L 956.888275 273.889505 
L 966.413225 273.76022 
L 975.938175 272.55356 
L 985.463125 271.46182 
" style="fill:none;stroke:#5cb85c;stroke-linecap:square;"/>
   </g>
   <g id="line2d_13">
    <path clip-path="url(#p3f99634151)" d="M 32.968125 273.99006 
L 42.493075 273.960851 
L 52.018025 273.946247 
L 61.542975 273.946247 
L 71.067925 273.931642 
L 80.592875 273.917038 
L 90.117825 273.85862 
L 99.642775 273.829411 
L 109.167725 273.85862 
L 118.692675 273.712575 
L 128.217625 273.610344 
L 137.742575 273.493508 
L 147.267525 273.30365 
L 156.792475 272.996957 
L 166.317425 272.398174 
L 175.842375 271.857809 
L 185.367325 271.273631 
L 194.892275 270.689452 
L 204.417225 269.871603 
L 213.942175 268.995335 
L 223.467125 267.272009 
L 232.992075 265.417243 
L 242.517025 263.86917 
L 252.041975 262.116635 
L 261.566925 260.072011 
L 271.091875 257.399395 
L 280.616825 250.462278 
L 290.141775 241.582767 
L 299.666725 232.951532 
L 309.191675 225.517863 
L 318.716625 216.945046 
L 328.241575 205.232271 
L 337.766525 194.176696 
L 347.291475 186.129639 
L 356.816425 178.462299 
L 366.341375 163.302871 
L 375.866325 147.121132 
L 385.391275 138.431479 
L 394.916225 128.106127 
L 404.441175 108.419317 
L 413.966125 97.451369 
L 423.491075 92.821756 
L 433.016025 86.585652 
L 442.540975 79.999042 
L 452.065925 75.077339 
L 461.590875 73.938192 
L 471.115825 71.528456 
L 480.640775 77.925209 
L 490.165725 94.457455 
L 499.690675 104.286256 
L 509.215625 108.171042 
L 518.740575 118.554811 
L 528.265525 127.22986 
L 537.790475 145.076508 
L 547.315425 168.209969 
L 556.840375 183.96818 
L 566.365325 201.084605 
L 575.890275 215.732876 
L 585.415225 225.897579 
L 594.940175 233.477293 
L 604.465125 239.465121 
L 613.990075 244.416032 
L 623.515025 247.307715 
L 633.039975 249.425361 
L 642.564925 253.587632 
L 652.089875 257.224142 
L 661.614825 261.006697 
L 671.139775 265.24199 
L 680.664725 268.162881 
L 690.189675 270.076065 
L 699.714625 271.259026 
L 709.239575 272.062272 
L 718.764525 272.748681 
L 728.289475 273.245233 
L 737.814425 273.508113 
L 747.339375 273.668762 
L 756.864325 273.712575 
L 766.389275 273.712575 
L 775.914225 273.770993 
L 785.439175 273.829411 
L 794.964125 273.85862 
L 804.489075 273.873224 
L 814.014025 273.873224 
L 823.538975 273.917038 
L 833.063925 273.975456 
L 842.588875 273.960851 
L 852.113825 273.917038 
L 861.638775 273.902433 
L 871.163725 273.946247 
L 880.688675 273.99006 
L 890.213625 273.99006 
L 899.738575 273.99006 
L 909.263525 273.99006 
L 918.788475 273.99006 
L 928.313425 273.99006 
L 937.838375 273.99006 
L 947.363325 273.99006 
L 956.888275 273.99006 
L 966.413225 273.99006 
L 975.938175 273.917038 
L 985.463125 273.844015 
" style="fill:none;stroke:#5cb85c;stroke-linecap:square;"/>
   </g>
   <g id="line2d_14">
    <path clip-path="url(#p3f99634151)" d="M 32.968125 273.785447 
L 42.493075 273.624679 
L 52.018025 273.566218 
L 61.542975 273.712371 
L 71.067925 273.756216 
L 80.592875 273.814677 
L 90.117825 273.873138 
L 99.642775 273.726986 
L 109.167725 273.566218 
L 118.692675 273.566218 
L 128.217625 273.405451 
L 137.742575 273.098531 
L 147.267525 272.923149 
L 156.792475 272.616229 
L 166.317425 272.017005 
L 175.842375 271.38855 
L 185.367325 270.833171 
L 194.892275 270.730865 
L 204.417225 269.985488 
L 213.942175 268.743194 
L 223.467125 267.252441 
L 232.992075 265.381692 
L 242.517025 263.744787 
L 252.041975 261.479427 
L 261.566925 258.892532 
L 271.091875 256.787939 
L 280.616825 251.424152 
L 290.141775 243.005782 
L 299.666725 234.572796 
L 309.191675 227.922869 
L 318.716625 218.408357 
L 328.241575 204.37774 
L 337.766525 194.380926 
L 347.291475 188.15484 
L 356.816425 175.848819 
L 366.341375 158.018244 
L 375.866325 144.440699 
L 385.391275 136.431556 
L 394.916225 123.730925 
L 404.441175 105.885734 
L 413.966125 95.523539 
L 423.491075 90.554362 
L 433.016025 87.002863 
L 442.540975 78.657569 
L 452.065925 72.9284 
L 461.590875 75.383758 
L 471.115825 74.21454 
L 480.640775 78.891412 
L 490.165725 94.558934 
L 499.690675 103.605759 
L 509.215625 106.119578 
L 518.740575 119.010207 
L 528.265525 131.447764 
L 537.790475 150.432942 
L 547.315425 174.168069 
L 556.840375 187.365617 
L 566.365325 202.068534 
L 575.890275 215.952999 
L 585.415225 225.145976 
L 594.940175 233.228196 
L 604.465125 240.31658 
L 613.990075 245.15422 
L 623.515025 248.135726 
L 633.039975 250.620314 
L 642.564925 254.595656 
L 652.089875 257.927927 
L 661.614825 261.479427 
L 671.139775 265.425538 
L 680.664725 268.027048 
L 690.189675 270.204717 
L 699.714625 271.563933 
L 709.239575 272.119311 
L 718.764525 272.835457 
L 728.289475 273.376221 
L 737.814425 273.536988 
L 747.339375 273.580834 
L 756.864325 273.566218 
L 766.389275 273.610064 
L 775.914225 273.668525 
L 785.439175 273.726986 
L 794.964125 273.829293 
L 804.489075 273.887753 
L 814.014025 273.858523 
L 823.538975 273.887753 
L 833.063925 273.96083 
L 842.588875 273.96083 
L 852.113825 273.916984 
L 861.638775 273.887753 
L 871.163725 273.858523 
L 880.688675 273.887753 
L 890.213625 273.96083 
L 899.738575 273.96083 
L 909.263525 273.931599 
L 918.788475 273.946214 
L 928.313425 273.96083 
L 937.838375 273.931599 
L 947.363325 273.902369 
L 956.888275 273.931599 
L 966.413225 273.756216 
L 975.938175 272.981609 
L 985.463125 272.411616 
" style="fill:none;stroke:#5cb85c;stroke-linecap:square;"/>
   </g>
   <g id="line2d_15">
    <path clip-path="url(#p3f99634151)" d="M 32.968125 273.99006 
L 42.493075 273.974591 
L 52.018025 273.974591 
L 61.542975 273.974591 
L 71.067925 273.959123 
L 80.592875 273.959123 
L 90.117825 273.928186 
L 99.642775 273.897248 
L 109.167725 273.897248 
L 118.692675 273.912717 
L 128.217625 273.897248 
L 137.742575 273.773499 
L 147.267525 273.680688 
L 156.792475 273.587876 
L 166.317425 273.340378 
L 175.842375 272.9846 
L 185.367325 272.798976 
L 194.892275 272.597884 
L 204.417225 272.319449 
L 213.942175 271.669767 
L 223.467125 270.648838 
L 232.992075 269.937282 
L 242.517025 268.962758 
L 252.041975 266.735277 
L 261.566925 262.852654 
L 271.091875 259.109248 
L 280.616825 252.937268 
L 290.141775 245.202958 
L 299.666725 237.360368 
L 309.191675 230.755267 
L 318.716625 220.1902 
L 328.241575 203.422215 
L 337.766525 188.12375 
L 347.291475 177.419465 
L 356.816425 166.127373 
L 366.341375 148.013618 
L 375.866325 130.224705 
L 385.391275 119.102768 
L 394.916225 106.650529 
L 404.441175 85.89164 
L 413.966125 74.197364 
L 423.491075 73.965334 
L 433.016025 72.047226 
L 442.540975 67.004455 
L 452.065925 66.555865 
L 461.590875 70.778799 
L 471.115825 73.315652 
L 480.640775 80.431218 
L 490.165725 95.157344 
L 499.690675 107.671457 
L 509.215625 113.982654 
L 518.740575 127.347542 
L 528.265525 141.423986 
L 537.790475 161.022728 
L 547.315425 182.446767 
L 556.840375 195.007286 
L 566.365325 209.594195 
L 575.890275 222.061903 
L 585.415225 230.368552 
L 594.940175 237.716146 
L 604.465125 245.574205 
L 613.990075 251.591498 
L 623.515025 254.453193 
L 633.039975 256.030992 
L 642.564925 259.248465 
L 652.089875 262.713436 
L 661.614825 265.899972 
L 671.139775 268.483231 
L 680.664725 269.906344 
L 690.189675 271.236646 
L 699.714625 272.1957 
L 709.239575 272.474135 
L 718.764525 272.675227 
L 728.289475 273.108349 
L 737.814425 273.402252 
L 747.339375 273.43319 
L 756.864325 273.371315 
L 766.389275 273.603344 
L 775.914225 273.866311 
L 785.439175 273.912717 
L 794.964125 273.943654 
L 804.489075 273.928186 
L 814.014025 273.897248 
L 823.538975 273.897248 
L 833.063925 273.912717 
L 842.588875 273.928186 
L 852.113825 273.928186 
L 861.638775 273.943654 
L 871.163725 273.959123 
L 880.688675 273.974591 
L 890.213625 273.99006 
L 899.738575 273.99006 
L 909.263525 273.99006 
L 918.788475 273.99006 
L 928.313425 273.99006 
L 937.838375 273.99006 
L 947.363325 273.99006 
L 956.888275 273.99006 
L 966.413225 273.99006 
L 975.938175 273.974591 
L 985.463125 273.959123 
" style="fill:none;stroke:#5cb85c;stroke-linecap:square;"/>
   </g>
   <g id="line2d_16">
    <path clip-path="url(#p3f99634151)" d="M 32.968125 273.58704 
L 42.493075 273.618042 
L 52.018025 273.711046 
L 61.542975 273.757549 
L 71.067925 273.742048 
L 80.592875 273.742048 
L 90.117825 273.835052 
L 99.642775 273.819552 
L 109.167725 273.726547 
L 118.692675 273.726547 
L 128.217625 273.742048 
L 137.742575 273.478535 
L 147.267525 273.122017 
L 156.792475 273.230522 
L 166.317425 273.323527 
L 175.842375 272.998011 
L 185.367325 272.548489 
L 194.892275 272.37798 
L 204.417225 272.067965 
L 213.942175 271.463435 
L 223.467125 270.099368 
L 232.992075 268.502789 
L 242.517025 267.541741 
L 252.041975 265.945162 
L 261.566925 262.891511 
L 271.091875 259.791358 
L 280.616825 254.738109 
L 290.141775 246.786216 
L 299.666725 237.811272 
L 309.191675 230.649918 
L 318.716625 219.473866 
L 328.241575 202.423023 
L 337.766525 186.333228 
L 347.291475 175.870211 
L 356.816425 165.190183 
L 366.341375 145.163193 
L 375.866325 129.274908 
L 385.391275 122.547575 
L 394.916225 106.907303 
L 404.441175 86.074273 
L 413.966125 77.533351 
L 423.491075 75.301241 
L 433.016025 73.921672 
L 442.540975 66.58981 
L 452.065925 65.706266 
L 461.590875 72.201087 
L 471.115825 72.278591 
L 480.640775 81.207032 
L 490.165725 99.187921 
L 499.690675 110.782494 
L 509.215625 116.610782 
L 518.740575 130.545971 
L 528.265525 142.373055 
L 537.790475 160.090431 
L 547.315425 182.210024 
L 556.840375 194.595136 
L 566.365325 207.42977 
L 575.890275 221.535468 
L 585.415225 232.060488 
L 594.940175 238.57081 
L 604.465125 244.895122 
L 613.990075 250.413395 
L 623.515025 254.133579 
L 633.039975 256.17968 
L 642.564925 259.450341 
L 652.089875 262.814008 
L 661.614825 265.991665 
L 671.139775 268.471787 
L 680.664725 269.990862 
L 690.189675 271.308427 
L 699.714625 271.912957 
L 709.239575 272.191971 
L 718.764525 272.548489 
L 728.289475 272.905006 
L 737.814425 273.246023 
L 747.339375 273.447533 
L 756.864325 273.540538 
L 766.389275 273.680045 
L 775.914225 273.866054 
L 785.439175 273.943558 
L 794.964125 273.928057 
L 804.489075 273.912556 
L 814.014025 273.866054 
L 823.538975 273.819552 
L 833.063925 273.819552 
L 842.588875 273.835052 
L 852.113825 273.912556 
L 861.638775 273.928057 
L 871.163725 273.866054 
L 880.688675 273.866054 
L 890.213625 273.850553 
L 899.738575 273.835052 
L 909.263525 273.881555 
L 918.788475 273.928057 
L 928.313425 273.928057 
L 937.838375 273.897055 
L 947.363325 273.897055 
L 956.888275 273.912556 
L 966.413225 273.742048 
L 975.938175 272.284976 
L 985.463125 271.013913 
" style="fill:none;stroke:#5cb85c;stroke-linecap:square;"/>
   </g>
   <g id="line2d_17">
    <path clip-path="url(#p3f99634151)" d="M 32.968125 273.99006 
L 42.493075 273.99006 
L 52.018025 273.99006 
L 61.542975 273.99006 
L 71.067925 273.960575 
L 80.592875 273.901604 
L 90.117825 273.872118 
L 99.642775 273.886861 
L 109.167725 273.872118 
L 118.692675 273.82789 
L 128.217625 273.813147 
L 137.742575 273.724691 
L 147.267525 273.547778 
L 156.792475 273.400351 
L 166.317425 273.193953 
L 175.842375 272.663215 
L 185.367325 272.029278 
L 194.892275 271.719681 
L 204.417225 271.056258 
L 213.942175 270.053753 
L 223.467125 268.387826 
L 232.992075 266.264874 
L 242.517025 264.481005 
L 252.041975 261.193378 
L 261.566925 256.873761 
L 271.091875 253.51242 
L 280.616825 246.701283 
L 290.141775 237.089029 
L 299.666725 228.228653 
L 309.191675 220.621409 
L 318.716625 207.264504 
L 328.241575 189.175185 
L 337.766525 175.036915 
L 347.291475 164.687525 
L 356.816425 150.608226 
L 366.341375 131.383718 
L 375.866325 116.670482 
L 385.391275 109.417063 
L 394.916225 101.721363 
L 404.441175 88.349715 
L 413.966125 80.152762 
L 423.491075 77.793926 
L 433.016025 76.983077 
L 442.540975 72.796144 
L 452.065925 74.034532 
L 461.590875 82.305199 
L 471.115825 85.445399 
L 480.640775 93.023157 
L 490.165725 108.444044 
L 499.690675 122.611799 
L 509.215625 130.970922 
L 518.740575 141.143399 
L 528.265525 152.36261 
L 537.790475 168.594346 
L 547.315425 187.597714 
L 556.840375 200.541823 
L 566.365325 213.117364 
L 575.890275 225.471765 
L 585.415225 234.464824 
L 594.940175 240.863165 
L 604.465125 246.774997 
L 613.990075 252.259289 
L 623.515025 255.885998 
L 633.039975 257.640382 
L 642.564925 260.869038 
L 652.089875 264.230379 
L 661.614825 266.810355 
L 671.139775 268.830108 
L 680.664725 270.112724 
L 690.189675 271.49854 
L 699.714625 272.294647 
L 709.239575 272.574759 
L 718.764525 273.061269 
L 728.289475 273.297152 
L 737.814425 273.370866 
L 747.339375 273.488807 
L 756.864325 273.577264 
L 766.389275 273.680463 
L 775.914225 273.768919 
L 785.439175 273.842633 
L 794.964125 273.916346 
L 804.489075 273.960575 
L 814.014025 273.960575 
L 823.538975 273.945832 
L 833.063925 273.931089 
L 842.588875 273.960575 
L 852.113825 273.99006 
L 861.638775 273.99006 
L 871.163725 273.99006 
L 880.688675 273.99006 
L 890.213625 273.99006 
L 899.738575 273.99006 
L 909.263525 273.99006 
L 918.788475 273.99006 
L 928.313425 273.99006 
L 937.838375 273.99006 
L 947.363325 273.99006 
L 956.888275 273.99006 
L 966.413225 273.99006 
L 975.938175 273.975317 
L 985.463125 273.960575 
" style="fill:none;stroke:#5cb85c;stroke-linecap:square;"/>
   </g>
   <g id="line2d_18">
    <path clip-path="url(#p3f99634151)" d="M 32.968125 273.666192 
L 42.493075 273.695635 
L 52.018025 273.75452 
L 61.542975 273.75452 
L 71.067925 273.725077 
L 80.592875 273.739798 
L 90.117825 273.680913 
L 99.642775 273.651471 
L 109.167725 273.651471 
L 118.692675 273.622028 
L 128.217625 273.430652 
L 137.742575 273.150948 
L 147.267525 273.077341 
L 156.792475 272.959571 
L 166.317425 272.782916 
L 175.842375 272.400163 
L 185.367325 271.6641 
L 194.892275 271.178298 
L 204.417225 270.545283 
L 213.942175 269.80922 
L 223.467125 268.013225 
L 232.992075 265.849199 
L 242.517025 264.170974 
L 252.041975 261.241442 
L 261.566925 256.265653 
L 271.091875 251.967042 
L 280.616825 246.387682 
L 290.141775 237.981837 
L 299.666725 229.090191 
L 309.191675 221.022936 
L 318.716625 207.229108 
L 328.241575 189.637192 
L 337.766525 175.372283 
L 347.291475 164.714084 
L 356.816425 151.523828 
L 366.341375 133.254734 
L 375.866325 116.869962 
L 385.391275 106.358976 
L 394.916225 98.380049 
L 404.441175 85.984741 
L 413.966125 78.43273 
L 423.491075 79.065744 
L 433.016025 80.40538 
L 442.540975 75.444312 
L 452.065925 76.077327 
L 461.590875 83.025766 
L 471.115825 85.940577 
L 480.640775 95.185533 
L 490.165725 112.527188 
L 499.690675 125.054987 
L 509.215625 130.442971 
L 518.740575 141.086448 
L 528.265525 150.758322 
L 537.790475 167.157815 
L 547.315425 188.533097 
L 556.840375 201.767517 
L 566.365325 214.398365 
L 575.890275 225.615972 
L 585.415225 234.036537 
L 594.940175 241.117468 
L 604.465125 247.462334 
L 613.990075 252.585336 
L 623.515025 256.00067 
L 633.039975 257.884992 
L 642.564925 261.197278 
L 652.089875 264.406514 
L 661.614825 266.732475 
L 671.139775 268.543191 
L 680.664725 269.985875 
L 690.189675 271.546329 
L 699.714625 272.385442 
L 709.239575 272.812359 
L 718.764525 273.165669 
L 728.289475 273.401209 
L 737.814425 273.401209 
L 747.339375 273.342324 
L 756.864325 273.401209 
L 766.389275 273.592586 
L 775.914225 273.783962 
L 785.439175 273.798684 
L 794.964125 273.783962 
L 804.489075 273.87229 
L 814.014025 273.901732 
L 823.538975 273.828126 
L 833.063925 273.828126 
L 842.588875 273.87229 
L 852.113825 273.887011 
L 861.638775 273.87229 
L 871.163725 273.931175 
L 880.688675 273.99006 
L 890.213625 273.99006 
L 899.738575 273.960617 
L 909.263525 273.931175 
L 918.788475 273.945896 
L 928.313425 273.916454 
L 937.838375 273.857569 
L 947.363325 273.842847 
L 956.888275 273.916454 
L 966.413225 273.813405 
L 975.938175 272.385442 
L 985.463125 271.134134 
" style="fill:none;stroke:#5cb85c;stroke-linecap:square;"/>
   </g>
   <g id="line2d_19">
    <path clip-path="url(#p3f99634151)" d="M 32.968125 273.99006 
L 985.463125 273.99006 
" style="fill:none;stroke:#dedede;stroke-linecap:square;stroke-width:2;"/>
   </g>
   <g id="text_15">
    <!-- FastQC: Per Sequence GC Content -->
    <g transform="translate(372.579375 19.3575)scale(0.16 -0.16)">
     <defs>
      <path d="M 9.8125 72.90625 
L 51.703125 72.90625 
L 51.703125 64.59375 
L 19.671875 64.59375 
L 19.671875 43.109375 
L 48.578125 43.109375 
L 48.578125 34.8125 
L 19.671875 34.8125 
L 19.671875 0 
L 9.8125 0 
z
" id="DejaVuSans-70"/>
      <path d="M 44.28125 53.078125 
L 44.28125 44.578125 
Q 40.484375 46.53125 36.375 47.5 
Q 32.28125 48.484375 27.875 48.484375 
Q 21.1875 48.484375 17.84375 46.4375 
Q 14.5 44.390625 14.5 40.28125 
Q 14.5 37.15625 16.890625 35.375 
Q 19.28125 33.59375 26.515625 31.984375 
L 29.59375 31.296875 
Q 39.15625 29.25 43.1875 25.515625 
Q 47.21875 21.78125 47.21875 15.09375 
Q 47.21875 7.46875 41.1875 3.015625 
Q 35.15625 -1.421875 24.609375 -1.421875 
Q 20.21875 -1.421875 15.453125 -0.5625 
Q 10.6875 0.296875 5.421875 2 
L 5.421875 11.28125 
Q 10.40625 8.6875 15.234375 7.390625 
Q 20.0625 6.109375 24.8125 6.109375 
Q 31.15625 6.109375 34.5625 8.28125 
Q 37.984375 10.453125 37.984375 14.40625 
Q 37.984375 18.0625 35.515625 20.015625 
Q 33.0625 21.96875 24.703125 23.78125 
L 21.578125 24.515625 
Q 13.234375 26.265625 9.515625 29.90625 
Q 5.8125 33.546875 5.8125 39.890625 
Q 5.8125 47.609375 11.28125 51.796875 
Q 16.75 56 26.8125 56 
Q 31.78125 56 36.171875 55.265625 
Q 40.578125 54.546875 44.28125 53.078125 
z
" id="DejaVuSans-115"/>
      <path d="M 39.40625 66.21875 
Q 28.65625 66.21875 22.328125 58.203125 
Q 16.015625 50.203125 16.015625 36.375 
Q 16.015625 22.609375 22.328125 14.59375 
Q 28.65625 6.59375 39.40625 6.59375 
Q 50.140625 6.59375 56.421875 14.59375 
Q 62.703125 22.609375 62.703125 36.375 
Q 62.703125 50.203125 56.421875 58.203125 
Q 50.140625 66.21875 39.40625 66.21875 
z
M 53.21875 1.3125 
L 66.21875 -12.890625 
L 54.296875 -12.890625 
L 43.5 -1.21875 
Q 41.890625 -1.3125 41.03125 -1.359375 
Q 40.1875 -1.421875 39.40625 -1.421875 
Q 24.03125 -1.421875 14.8125 8.859375 
Q 5.609375 19.140625 5.609375 36.375 
Q 5.609375 53.65625 14.8125 63.9375 
Q 24.03125 74.21875 39.40625 74.21875 
Q 54.734375 74.21875 63.90625 63.9375 
Q 73.09375 53.65625 73.09375 36.375 
Q 73.09375 23.6875 67.984375 14.640625 
Q 62.890625 5.609375 53.21875 1.3125 
z
" id="DejaVuSans-81"/>
      <path d="M 11.71875 12.40625 
L 22.015625 12.40625 
L 22.015625 0 
L 11.71875 0 
z
M 11.71875 51.703125 
L 22.015625 51.703125 
L 22.015625 39.3125 
L 11.71875 39.3125 
z
" id="DejaVuSans-58"/>
      <path d="M 53.515625 70.515625 
L 53.515625 60.890625 
Q 47.90625 63.578125 42.921875 64.890625 
Q 37.9375 66.21875 33.296875 66.21875 
Q 25.25 66.21875 20.875 63.09375 
Q 16.5 59.96875 16.5 54.203125 
Q 16.5 49.359375 19.40625 46.890625 
Q 22.3125 44.4375 30.421875 42.921875 
L 36.375 41.703125 
Q 47.40625 39.59375 52.65625 34.296875 
Q 57.90625 29 57.90625 20.125 
Q 57.90625 9.515625 50.796875 4.046875 
Q 43.703125 -1.421875 29.984375 -1.421875 
Q 24.8125 -1.421875 18.96875 -0.25 
Q 13.140625 0.921875 6.890625 3.21875 
L 6.890625 13.375 
Q 12.890625 10.015625 18.65625 8.296875 
Q 24.421875 6.59375 29.984375 6.59375 
Q 38.421875 6.59375 43.015625 9.90625 
Q 47.609375 13.234375 47.609375 19.390625 
Q 47.609375 24.75 44.3125 27.78125 
Q 41.015625 30.8125 33.5 32.328125 
L 27.484375 33.5 
Q 16.453125 35.6875 11.515625 40.375 
Q 6.59375 45.0625 6.59375 53.421875 
Q 6.59375 63.09375 13.40625 68.65625 
Q 20.21875 74.21875 32.171875 74.21875 
Q 37.3125 74.21875 42.625 73.28125 
Q 47.953125 72.359375 53.515625 70.515625 
z
" id="DejaVuSans-83"/>
      <path d="M 14.796875 27.296875 
Q 14.796875 17.390625 18.875 11.75 
Q 22.953125 6.109375 30.078125 6.109375 
Q 37.203125 6.109375 41.296875 11.75 
Q 45.40625 17.390625 45.40625 27.296875 
Q 45.40625 37.203125 41.296875 42.84375 
Q 37.203125 48.484375 30.078125 48.484375 
Q 22.953125 48.484375 18.875 42.84375 
Q 14.796875 37.203125 14.796875 27.296875 
z
M 45.40625 8.203125 
Q 42.578125 3.328125 38.25 0.953125 
Q 33.9375 -1.421875 27.875 -1.421875 
Q 17.96875 -1.421875 11.734375 6.484375 
Q 5.515625 14.40625 5.515625 27.296875 
Q 5.515625 40.1875 11.734375 48.09375 
Q 17.96875 56 27.875 56 
Q 33.9375 56 38.25 53.625 
Q 42.578125 51.265625 45.40625 46.390625 
L 45.40625 54.6875 
L 54.390625 54.6875 
L 54.390625 -20.796875 
L 45.40625 -20.796875 
z
" id="DejaVuSans-113"/>
      <path d="M 8.5 21.578125 
L 8.5 54.6875 
L 17.484375 54.6875 
L 17.484375 21.921875 
Q 17.484375 14.15625 20.5 10.265625 
Q 23.53125 6.390625 29.59375 6.390625 
Q 36.859375 6.390625 41.078125 11.03125 
Q 45.3125 15.671875 45.3125 23.6875 
L 45.3125 54.6875 
L 54.296875 54.6875 
L 54.296875 0 
L 45.3125 0 
L 45.3125 8.40625 
Q 42.046875 3.421875 37.71875 1 
Q 33.40625 -1.421875 27.6875 -1.421875 
Q 18.265625 -1.421875 13.375 4.4375 
Q 8.5 10.296875 8.5 21.578125 
z
M 31.109375 56 
z
" id="DejaVuSans-117"/>
      <path d="M 30.609375 48.390625 
Q 23.390625 48.390625 19.1875 42.75 
Q 14.984375 37.109375 14.984375 27.296875 
Q 14.984375 17.484375 19.15625 11.84375 
Q 23.34375 6.203125 30.609375 6.203125 
Q 37.796875 6.203125 41.984375 11.859375 
Q 46.1875 17.53125 46.1875 27.296875 
Q 46.1875 37.015625 41.984375 42.703125 
Q 37.796875 48.390625 30.609375 48.390625 
z
M 30.609375 56 
Q 42.328125 56 49.015625 48.375 
Q 55.71875 40.765625 55.71875 27.296875 
Q 55.71875 13.875 49.015625 6.21875 
Q 42.328125 -1.421875 30.609375 -1.421875 
Q 18.84375 -1.421875 12.171875 6.21875 
Q 5.515625 13.875 5.515625 27.296875 
Q 5.515625 40.765625 12.171875 48.375 
Q 18.84375 56 30.609375 56 
z
" id="DejaVuSans-111"/>
     </defs>
     <use xlink:href="#DejaVuSans-70"/>
     <use x="48.394531" xlink:href="#DejaVuSans-97"/>
     <use x="109.673828" xlink:href="#DejaVuSans-115"/>
     <use x="161.773438" xlink:href="#DejaVuSans-116"/>
     <use x="200.982422" xlink:href="#DejaVuSans-81"/>
     <use x="279.693359" xlink:href="#DejaVuSans-67"/>
     <use x="349.517578" xlink:href="#DejaVuSans-58"/>
     <use x="383.208984" xlink:href="#DejaVuSans-32"/>
     <use x="414.996094" xlink:href="#DejaVuSans-80"/>
     <use x="471.673828" xlink:href="#DejaVuSans-101"/>
     <use x="533.197266" xlink:href="#DejaVuSans-114"/>
     <use x="574.310547" xlink:href="#DejaVuSans-32"/>
     <use x="606.097656" xlink:href="#DejaVuSans-83"/>
     <use x="669.574219" xlink:href="#DejaVuSans-101"/>
     <use x="731.097656" xlink:href="#DejaVuSans-113"/>
     <use x="794.574219" xlink:href="#DejaVuSans-117"/>
     <use x="857.953125" xlink:href="#DejaVuSans-101"/>
     <use x="919.476562" xlink:href="#DejaVuSans-110"/>
     <use x="982.855469" xlink:href="#DejaVuSans-99"/>
     <use x="1037.835938" xlink:href="#DejaVuSans-101"/>
     <use x="1099.359375" xlink:href="#DejaVuSans-32"/>
     <use x="1131.146484" xlink:href="#DejaVuSans-71"/>
     <use x="1208.636719" xlink:href="#DejaVuSans-67"/>
     <use x="1278.460938" xlink:href="#DejaVuSans-32"/>
     <use x="1310.248047" xlink:href="#DejaVuSans-67"/>
     <use x="1380.072266" xlink:href="#DejaVuSans-111"/>
     <use x="1441.253906" xlink:href="#DejaVuSans-110"/>
     <use x="1504.632812" xlink:href="#DejaVuSans-116"/>
     <use x="1543.841797" xlink:href="#DejaVuSans-101"/>
     <use x="1605.365234" xlink:href="#DejaVuSans-110"/>
     <use x="1668.744141" xlink:href="#DejaVuSans-116"/>
    </g>
   </g>
   <g id="legend_1">
    <g id="line2d_20">
     <path d="M 40.168125 291.525394 
L 56.168125 291.525394 
" style="fill:none;stroke:#5cb85c;stroke-linecap:square;"/>
    </g>
    <g id="line2d_21"/>
    <g id="text_16">
     <!-- SPT5_INPUT_R1_T1_1 -->
     <g transform="translate(62.568125 294.325394)scale(0.08 -0.08)">
      <defs>
       <path d="M -0.296875 72.90625 
L 61.375 72.90625 
L 61.375 64.59375 
L 35.5 64.59375 
L 35.5 0 
L 25.59375 0 
L 25.59375 64.59375 
L -0.296875 64.59375 
z
" id="DejaVuSans-84"/>
       <path d="M 50.984375 -16.609375 
L 50.984375 -23.578125 
L -0.984375 -23.578125 
L -0.984375 -16.609375 
z
" id="DejaVuSans-95"/>
       <path d="M 9.8125 72.90625 
L 19.671875 72.90625 
L 19.671875 0 
L 9.8125 0 
z
" id="DejaVuSans-73"/>
       <path d="M 9.8125 72.90625 
L 23.09375 72.90625 
L 55.421875 11.921875 
L 55.421875 72.90625 
L 64.984375 72.90625 
L 64.984375 0 
L 51.703125 0 
L 19.390625 60.984375 
L 19.390625 0 
L 9.8125 0 
z
" id="DejaVuSans-78"/>
       <path d="M 8.6875 72.90625 
L 18.609375 72.90625 
L 18.609375 28.609375 
Q 18.609375 16.890625 22.84375 11.734375 
Q 27.09375 6.59375 36.625 6.59375 
Q 46.09375 6.59375 50.34375 11.734375 
Q 54.59375 16.890625 54.59375 28.609375 
L 54.59375 72.90625 
L 64.5 72.90625 
L 64.5 27.390625 
Q 64.5 13.140625 57.4375 5.859375 
Q 50.390625 -1.421875 36.625 -1.421875 
Q 22.796875 -1.421875 15.734375 5.859375 
Q 8.6875 13.140625 8.6875 27.390625 
z
" id="DejaVuSans-85"/>
       <path d="M 44.390625 34.1875 
Q 47.5625 33.109375 50.5625 29.59375 
Q 53.5625 26.078125 56.59375 19.921875 
L 66.609375 0 
L 56 0 
L 46.6875 18.703125 
Q 43.0625 26.03125 39.671875 28.421875 
Q 36.28125 30.8125 30.421875 30.8125 
L 19.671875 30.8125 
L 19.671875 0 
L 9.8125 0 
L 9.8125 72.90625 
L 32.078125 72.90625 
Q 44.578125 72.90625 50.734375 67.671875 
Q 56.890625 62.453125 56.890625 51.90625 
Q 56.890625 45.015625 53.6875 40.46875 
Q 50.484375 35.9375 44.390625 34.1875 
z
M 19.671875 64.796875 
L 19.671875 38.921875 
L 32.078125 38.921875 
Q 39.203125 38.921875 42.84375 42.21875 
Q 46.484375 45.515625 46.484375 51.90625 
Q 46.484375 58.296875 42.84375 61.546875 
Q 39.203125 64.796875 32.078125 64.796875 
z
" id="DejaVuSans-82"/>
      </defs>
      <use xlink:href="#DejaVuSans-83"/>
      <use x="63.476562" xlink:href="#DejaVuSans-80"/>
      <use x="123.779297" xlink:href="#DejaVuSans-84"/>
      <use x="184.863281" xlink:href="#DejaVuSans-53"/>
      <use x="248.486328" xlink:href="#DejaVuSans-95"/>
      <use x="298.486328" xlink:href="#DejaVuSans-73"/>
      <use x="327.978516" xlink:href="#DejaVuSans-78"/>
      <use x="402.783203" xlink:href="#DejaVuSans-80"/>
      <use x="463.085938" xlink:href="#DejaVuSans-85"/>
      <use x="536.279297" xlink:href="#DejaVuSans-84"/>
      <use x="597.363281" xlink:href="#DejaVuSans-95"/>
      <use x="647.363281" xlink:href="#DejaVuSans-82"/>
      <use x="716.845703" xlink:href="#DejaVuSans-49"/>
      <use x="780.46875" xlink:href="#DejaVuSans-95"/>
      <use x="830.46875" xlink:href="#DejaVuSans-84"/>
      <use x="891.552734" xlink:href="#DejaVuSans-49"/>
      <use x="955.175781" xlink:href="#DejaVuSans-95"/>
      <use x="1005.175781" xlink:href="#DejaVuSans-49"/>
     </g>
    </g>
    <g id="line2d_22">
     <path d="M 40.168125 303.490394 
L 56.168125 303.490394 
" style="fill:none;stroke:#5cb85c;stroke-linecap:square;"/>
    </g>
    <g id="line2d_23"/>
    <g id="text_17">
     <!-- SPT5_INPUT_R1_T1_2 -->
     <g transform="translate(62.568125 306.290394)scale(0.08 -0.08)">
      <use xlink:href="#DejaVuSans-83"/>
      <use x="63.476562" xlink:href="#DejaVuSans-80"/>
      <use x="123.779297" xlink:href="#DejaVuSans-84"/>
      <use x="184.863281" xlink:href="#DejaVuSans-53"/>
      <use x="248.486328" xlink:href="#DejaVuSans-95"/>
      <use x="298.486328" xlink:href="#DejaVuSans-73"/>
      <use x="327.978516" xlink:href="#DejaVuSans-78"/>
      <use x="402.783203" xlink:href="#DejaVuSans-80"/>
      <use x="463.085938" xlink:href="#DejaVuSans-85"/>
      <use x="536.279297" xlink:href="#DejaVuSans-84"/>
      <use x="597.363281" xlink:href="#DejaVuSans-95"/>
      <use x="647.363281" xlink:href="#DejaVuSans-82"/>
      <use x="716.845703" xlink:href="#DejaVuSans-49"/>
      <use x="780.46875" xlink:href="#DejaVuSans-95"/>
      <use x="830.46875" xlink:href="#DejaVuSans-84"/>
      <use x="891.552734" xlink:href="#DejaVuSans-49"/>
      <use x="955.175781" xlink:href="#DejaVuSans-95"/>
      <use x="1005.175781" xlink:href="#DejaVuSans-50"/>
     </g>
    </g>
    <g id="line2d_24">
     <path d="M 40.168125 315.455394 
L 56.168125 315.455394 
" style="fill:none;stroke:#5cb85c;stroke-linecap:square;"/>
    </g>
    <g id="line2d_25"/>
    <g id="text_18">
     <!-- SPT5_INPUT_R2_T1_1 -->
     <g transform="translate(62.568125 318.255394)scale(0.08 -0.08)">
      <use xlink:href="#DejaVuSans-83"/>
      <use x="63.476562" xlink:href="#DejaVuSans-80"/>
      <use x="123.779297" xlink:href="#DejaVuSans-84"/>
      <use x="184.863281" xlink:href="#DejaVuSans-53"/>
      <use x="248.486328" xlink:href="#DejaVuSans-95"/>
      <use x="298.486328" xlink:href="#DejaVuSans-73"/>
      <use x="327.978516" xlink:href="#DejaVuSans-78"/>
      <use x="402.783203" xlink:href="#DejaVuSans-80"/>
      <use x="463.085938" xlink:href="#DejaVuSans-85"/>
      <use x="536.279297" xlink:href="#DejaVuSans-84"/>
      <use x="597.363281" xlink:href="#DejaVuSans-95"/>
      <use x="647.363281" xlink:href="#DejaVuSans-82"/>
      <use x="716.845703" xlink:href="#DejaVuSans-50"/>
      <use x="780.46875" xlink:href="#DejaVuSans-95"/>
      <use x="830.46875" xlink:href="#DejaVuSans-84"/>
      <use x="891.552734" xlink:href="#DejaVuSans-49"/>
      <use x="955.175781" xlink:href="#DejaVuSans-95"/>
      <use x="1005.175781" xlink:href="#DejaVuSans-49"/>
     </g>
    </g>
    <g id="line2d_26">
     <path d="M 255.62125 291.525394 
L 271.62125 291.525394 
" style="fill:none;stroke:#5cb85c;stroke-linecap:square;"/>
    </g>
    <g id="line2d_27"/>
    <g id="text_19">
     <!-- SPT5_INPUT_R2_T1_2 -->
     <g transform="translate(278.02125 294.325394)scale(0.08 -0.08)">
      <use xlink:href="#DejaVuSans-83"/>
      <use x="63.476562" xlink:href="#DejaVuSans-80"/>
      <use x="123.779297" xlink:href="#DejaVuSans-84"/>
      <use x="184.863281" xlink:href="#DejaVuSans-53"/>
      <use x="248.486328" xlink:href="#DejaVuSans-95"/>
      <use x="298.486328" xlink:href="#DejaVuSans-73"/>
      <use x="327.978516" xlink:href="#DejaVuSans-78"/>
      <use x="402.783203" xlink:href="#DejaVuSans-80"/>
      <use x="463.085938" xlink:href="#DejaVuSans-85"/>
      <use x="536.279297" xlink:href="#DejaVuSans-84"/>
      <use x="597.363281" xlink:href="#DejaVuSans-95"/>
      <use x="647.363281" xlink:href="#DejaVuSans-82"/>
      <use x="716.845703" xlink:href="#DejaVuSans-50"/>
      <use x="780.46875" xlink:href="#DejaVuSans-95"/>
      <use x="830.46875" xlink:href="#DejaVuSans-84"/>
      <use x="891.552734" xlink:href="#DejaVuSans-49"/>
      <use x="955.175781" xlink:href="#DejaVuSans-95"/>
      <use x="1005.175781" xlink:href="#DejaVuSans-50"/>
     </g>
    </g>
    <g id="line2d_28">
     <path d="M 255.62125 303.490394 
L 271.62125 303.490394 
" style="fill:none;stroke:#5cb85c;stroke-linecap:square;"/>
    </g>
    <g id="line2d_29"/>
    <g id="text_20">
     <!-- SPT5_T0_R1_T1_1 -->
     <g transform="translate(278.02125 306.290394)scale(0.08 -0.08)">
      <use xlink:href="#DejaVuSans-83"/>
      <use x="63.476562" xlink:href="#DejaVuSans-80"/>
      <use x="123.779297" xlink:href="#DejaVuSans-84"/>
      <use x="184.863281" xlink:href="#DejaVuSans-53"/>
      <use x="248.486328" xlink:href="#DejaVuSans-95"/>
      <use x="298.486328" xlink:href="#DejaVuSans-84"/>
      <use x="359.570312" xlink:href="#DejaVuSans-48"/>
      <use x="423.193359" xlink:href="#DejaVuSans-95"/>
      <use x="473.193359" xlink:href="#DejaVuSans-82"/>
      <use x="542.675781" xlink:href="#DejaVuSans-49"/>
      <use x="606.298828" xlink:href="#DejaVuSans-95"/>
      <use x="656.298828" xlink:href="#DejaVuSans-84"/>
      <use x="717.382812" xlink:href="#DejaVuSans-49"/>
      <use x="781.005859" xlink:href="#DejaVuSans-95"/>
      <use x="831.005859" xlink:href="#DejaVuSans-49"/>
     </g>
    </g>
    <g id="line2d_30">
     <path d="M 255.62125 315.455394 
L 271.62125 315.455394 
" style="fill:none;stroke:#5cb85c;stroke-linecap:square;"/>
    </g>
    <g id="line2d_31"/>
    <g id="text_21">
     <!-- SPT5_T0_R1_T1_2 -->
     <g transform="translate(278.02125 318.255394)scale(0.08 -0.08)">
      <use xlink:href="#DejaVuSans-83"/>
      <use x="63.476562" xlink:href="#DejaVuSans-80"/>
      <use x="123.779297" xlink:href="#DejaVuSans-84"/>
      <use x="184.863281" xlink:href="#DejaVuSans-53"/>
      <use x="248.486328" xlink:href="#DejaVuSans-95"/>
      <use x="298.486328" xlink:href="#DejaVuSans-84"/>
      <use x="359.570312" xlink:href="#DejaVuSans-48"/>
      <use x="423.193359" xlink:href="#DejaVuSans-95"/>
      <use x="473.193359" xlink:href="#DejaVuSans-82"/>
      <use x="542.675781" xlink:href="#DejaVuSans-49"/>
      <use x="606.298828" xlink:href="#DejaVuSans-95"/>
      <use x="656.298828" xlink:href="#DejaVuSans-84"/>
      <use x="717.382812" xlink:href="#DejaVuSans-49"/>
      <use x="781.005859" xlink:href="#DejaVuSans-95"/>
      <use x="831.005859" xlink:href="#DejaVuSans-50"/>
     </g>
    </g>
    <g id="line2d_32">
     <path d="M 471.074375 291.525394 
L 487.074375 291.525394 
" style="fill:none;stroke:#5cb85c;stroke-linecap:square;"/>
    </g>
    <g id="line2d_33"/>
    <g id="text_22">
     <!-- SPT5_T0_R2_T1_1 -->
     <g transform="translate(493.474375 294.325394)scale(0.08 -0.08)">
      <use xlink:href="#DejaVuSans-83"/>
      <use x="63.476562" xlink:href="#DejaVuSans-80"/>
      <use x="123.779297" xlink:href="#DejaVuSans-84"/>
      <use x="184.863281" xlink:href="#DejaVuSans-53"/>
      <use x="248.486328" xlink:href="#DejaVuSans-95"/>
      <use x="298.486328" xlink:href="#DejaVuSans-84"/>
      <use x="359.570312" xlink:href="#DejaVuSans-48"/>
      <use x="423.193359" xlink:href="#DejaVuSans-95"/>
      <use x="473.193359" xlink:href="#DejaVuSans-82"/>
      <use x="542.675781" xlink:href="#DejaVuSans-50"/>
      <use x="606.298828" xlink:href="#DejaVuSans-95"/>
      <use x="656.298828" xlink:href="#DejaVuSans-84"/>
      <use x="717.382812" xlink:href="#DejaVuSans-49"/>
      <use x="781.005859" xlink:href="#DejaVuSans-95"/>
      <use x="831.005859" xlink:href="#DejaVuSans-49"/>
     </g>
    </g>
    <g id="line2d_34">
     <path d="M 471.074375 303.490394 
L 487.074375 303.490394 
" style="fill:none;stroke:#5cb85c;stroke-linecap:square;"/>
    </g>
    <g id="line2d_35"/>
    <g id="text_23">
     <!-- SPT5_T0_R2_T1_2 -->
     <g transform="translate(493.474375 306.290394)scale(0.08 -0.08)">
      <use xlink:href="#DejaVuSans-83"/>
      <use x="63.476562" xlink:href="#DejaVuSans-80"/>
      <use x="123.779297" xlink:href="#DejaVuSans-84"/>
      <use x="184.863281" xlink:href="#DejaVuSans-53"/>
      <use x="248.486328" xlink:href="#DejaVuSans-95"/>
      <use x="298.486328" xlink:href="#DejaVuSans-84"/>
      <use x="359.570312" xlink:href="#DejaVuSans-48"/>
      <use x="423.193359" xlink:href="#DejaVuSans-95"/>
      <use x="473.193359" xlink:href="#DejaVuSans-82"/>
      <use x="542.675781" xlink:href="#DejaVuSans-50"/>
      <use x="606.298828" xlink:href="#DejaVuSans-95"/>
      <use x="656.298828" xlink:href="#DejaVuSans-84"/>
      <use x="717.382812" xlink:href="#DejaVuSans-49"/>
      <use x="781.005859" xlink:href="#DejaVuSans-95"/>
      <use x="831.005859" xlink:href="#DejaVuSans-50"/>
     </g>
    </g>
    <g id="line2d_36">
     <path d="M 672.59375 291.525394 
L 688.59375 291.525394 
" style="fill:none;stroke:#5cb85c;stroke-linecap:square;"/>
    </g>
    <g id="line2d_37"/>
    <g id="text_24">
     <!-- SPT5_T15_R1_T1_1 -->
     <g transform="translate(694.99375 294.325394)scale(0.08 -0.08)">
      <use xlink:href="#DejaVuSans-83"/>
      <use x="63.476562" xlink:href="#DejaVuSans-80"/>
      <use x="123.779297" xlink:href="#DejaVuSans-84"/>
      <use x="184.863281" xlink:href="#DejaVuSans-53"/>
      <use x="248.486328" xlink:href="#DejaVuSans-95"/>
      <use x="298.486328" xlink:href="#DejaVuSans-84"/>
      <use x="359.570312" xlink:href="#DejaVuSans-49"/>
      <use x="423.193359" xlink:href="#DejaVuSans-53"/>
      <use x="486.816406" xlink:href="#DejaVuSans-95"/>
      <use x="536.816406" xlink:href="#DejaVuSans-82"/>
      <use x="606.298828" xlink:href="#DejaVuSans-49"/>
      <use x="669.921875" xlink:href="#DejaVuSans-95"/>
      <use x="719.921875" xlink:href="#DejaVuSans-84"/>
      <use x="781.005859" xlink:href="#DejaVuSans-49"/>
      <use x="844.628906" xlink:href="#DejaVuSans-95"/>
      <use x="894.628906" xlink:href="#DejaVuSans-49"/>
     </g>
    </g>
    <g id="line2d_38">
     <path d="M 672.59375 303.490394 
L 688.59375 303.490394 
" style="fill:none;stroke:#5cb85c;stroke-linecap:square;"/>
    </g>
    <g id="line2d_39"/>
    <g id="text_25">
     <!-- SPT5_T15_R1_T1_2 -->
     <g transform="translate(694.99375 306.290394)scale(0.08 -0.08)">
      <use xlink:href="#DejaVuSans-83"/>
      <use x="63.476562" xlink:href="#DejaVuSans-80"/>
      <use x="123.779297" xlink:href="#DejaVuSans-84"/>
      <use x="184.863281" xlink:href="#DejaVuSans-53"/>
      <use x="248.486328" xlink:href="#DejaVuSans-95"/>
      <use x="298.486328" xlink:href="#DejaVuSans-84"/>
      <use x="359.570312" xlink:href="#DejaVuSans-49"/>
      <use x="423.193359" xlink:href="#DejaVuSans-53"/>
      <use x="486.816406" xlink:href="#DejaVuSans-95"/>
      <use x="536.816406" xlink:href="#DejaVuSans-82"/>
      <use x="606.298828" xlink:href="#DejaVuSans-49"/>
      <use x="669.921875" xlink:href="#DejaVuSans-95"/>
      <use x="719.921875" xlink:href="#DejaVuSans-84"/>
      <use x="781.005859" xlink:href="#DejaVuSans-49"/>
      <use x="844.628906" xlink:href="#DejaVuSans-95"/>
      <use x="894.628906" xlink:href="#DejaVuSans-50"/>
     </g>
    </g>
    <g id="line2d_40">
     <path d="M 879.203125 291.525394 
L 895.203125 291.525394 
" style="fill:none;stroke:#5cb85c;stroke-linecap:square;"/>
    </g>
    <g id="line2d_41"/>
    <g id="text_26">
     <!-- SPT5_T15_R2_T1_1 -->
     <g transform="translate(901.603125 294.325394)scale(0.08 -0.08)">
      <use xlink:href="#DejaVuSans-83"/>
      <use x="63.476562" xlink:href="#DejaVuSans-80"/>
      <use x="123.779297" xlink:href="#DejaVuSans-84"/>
      <use x="184.863281" xlink:href="#DejaVuSans-53"/>
      <use x="248.486328" xlink:href="#DejaVuSans-95"/>
      <use x="298.486328" xlink:href="#DejaVuSans-84"/>
      <use x="359.570312" xlink:href="#DejaVuSans-49"/>
      <use x="423.193359" xlink:href="#DejaVuSans-53"/>
      <use x="486.816406" xlink:href="#DejaVuSans-95"/>
      <use x="536.816406" xlink:href="#DejaVuSans-82"/>
      <use x="606.298828" xlink:href="#DejaVuSans-50"/>
      <use x="669.921875" xlink:href="#DejaVuSans-95"/>
      <use x="719.921875" xlink:href="#DejaVuSans-84"/>
      <use x="781.005859" xlink:href="#DejaVuSans-49"/>
      <use x="844.628906" xlink:href="#DejaVuSans-95"/>
      <use x="894.628906" xlink:href="#DejaVuSans-49"/>
     </g>
    </g>
    <g id="line2d_42">
     <path d="M 879.203125 303.490394 
L 895.203125 303.490394 
" style="fill:none;stroke:#5cb85c;stroke-linecap:square;"/>
    </g>
    <g id="line2d_43"/>
    <g id="text_27">
     <!-- SPT5_T15_R2_T1_2 -->
     <g transform="translate(901.603125 306.290394)scale(0.08 -0.08)">
      <use xlink:href="#DejaVuSans-83"/>
      <use x="63.476562" xlink:href="#DejaVuSans-80"/>
      <use x="123.779297" xlink:href="#DejaVuSans-84"/>
      <use x="184.863281" xlink:href="#DejaVuSans-53"/>
      <use x="248.486328" xlink:href="#DejaVuSans-95"/>
      <use x="298.486328" xlink:href="#DejaVuSans-84"/>
      <use x="359.570312" xlink:href="#DejaVuSans-49"/>
      <use x="423.193359" xlink:href="#DejaVuSans-53"/>
      <use x="486.816406" xlink:href="#DejaVuSans-95"/>
      <use x="536.816406" xlink:href="#DejaVuSans-82"/>
      <use x="606.298828" xlink:href="#DejaVuSans-50"/>
      <use x="669.921875" xlink:href="#DejaVuSans-95"/>
      <use x="719.921875" xlink:href="#DejaVuSans-84"/>
      <use x="781.005859" xlink:href="#DejaVuSans-49"/>
      <use x="844.628906" xlink:href="#DejaVuSans-95"/>
      <use x="894.628906" xlink:href="#DejaVuSans-50"/>
     </g>
    </g>
   </g>
  </g>
 </g>
 <defs>
  <clipPath id="p3f99634151">
   <rect height="242.5072" width="952.495" x="32.968125" y="31.48286"/>
  </clipPath>
 </defs>
</svg>
