<?xml version="1.0" encoding="utf-8" standalone="no"?>
<!DOCTYPE svg PUBLIC "-//W3C//DTD SVG 1.1//EN"
  "http://www.w3.org/Graphics/SVG/1.1/DTD/svg11.dtd">
<!-- Created with matplotlib (https://matplotlib.org/) -->
<svg height="330.541644pt" version="1.1" viewBox="0 0 1000.278125 330.541644" width="1000.278125pt" xmlns="http://www.w3.org/2000/svg" xmlns:xlink="http://www.w3.org/1999/xlink">
 <metadata>
  <rdf:RDF xmlns:cc="http://creativecommons.org/ns#" xmlns:dc="http://purl.org/dc/elements/1.1/" xmlns:rdf="http://www.w3.org/1999/02/22-rdf-syntax-ns#">
   <cc:Work>
    <dc:type rdf:resource="http://purl.org/dc/dcmitype/StillImage"/>
    <dc:date>2021-01-29T20:16:32.277267</dc:date>
    <dc:format>image/svg+xml</dc:format>
    <dc:creator>
     <cc:Agent>
      <dc:title>Matplotlib v3.3.0, https://matplotlib.org/</dc:title>
     </cc:Agent>
    </dc:creator>
   </cc:Work>
  </rdf:RDF>
 </metadata>
 <defs>
  <style type="text/css">*{stroke-linecap:butt;stroke-linejoin:round;}</style>
 </defs>
 <g id="figure_1">
  <g id="axes_1">
   <g id="patch_1">
    <path d="M 43.148125 273.99006 
L 993.078125 273.99006 
L 993.078125 31.48286 
L 43.148125 31.48286 
z
" style="fill:#ffffff;"/>
   </g>
   <g id="matplotlib.axis_1">
    <g id="xtick_1">
     <g id="text_1">
      <!-- 0 -->
      <g transform="translate(72.267458 287.06881)scale(0.08 -0.08)">
       <defs>
        <path d="M 31.78125 66.40625 
Q 24.171875 66.40625 20.328125 58.90625 
Q 16.5 51.421875 16.5 36.375 
Q 16.5 21.390625 20.328125 13.890625 
Q 24.171875 6.390625 31.78125 6.390625 
Q 39.453125 6.390625 43.28125 13.890625 
Q 47.125 21.390625 47.125 36.375 
Q 47.125 51.421875 43.28125 58.90625 
Q 39.453125 66.40625 31.78125 66.40625 
z
M 31.78125 74.21875 
Q 44.046875 74.21875 50.515625 64.515625 
Q 56.984375 54.828125 56.984375 36.375 
Q 56.984375 17.96875 50.515625 8.265625 
Q 44.046875 -1.421875 31.78125 -1.421875 
Q 19.53125 -1.421875 13.0625 8.265625 
Q 6.59375 17.96875 6.59375 36.375 
Q 6.59375 54.828125 13.0625 64.515625 
Q 19.53125 74.21875 31.78125 74.21875 
z
" id="DejaVuSans-48"/>
       </defs>
       <use xlink:href="#DejaVuSans-48"/>
      </g>
     </g>
    </g>
    <g id="xtick_2">
     <g id="text_2">
      <!-- 10 -->
      <g transform="translate(184.865489 287.06881)scale(0.08 -0.08)">
       <defs>
        <path d="M 12.40625 8.296875 
L 28.515625 8.296875 
L 28.515625 63.921875 
L 10.984375 60.40625 
L 10.984375 69.390625 
L 28.421875 72.90625 
L 38.28125 72.90625 
L 38.28125 8.296875 
L 54.390625 8.296875 
L 54.390625 0 
L 12.40625 0 
z
" id="DejaVuSans-49"/>
       </defs>
       <use xlink:href="#DejaVuSans-49"/>
       <use x="63.623047" xlink:href="#DejaVuSans-48"/>
      </g>
     </g>
    </g>
    <g id="xtick_3">
     <g id="text_3">
      <!-- 20 -->
      <g transform="translate(300.008519 287.06881)scale(0.08 -0.08)">
       <defs>
        <path d="M 19.1875 8.296875 
L 53.609375 8.296875 
L 53.609375 0 
L 7.328125 0 
L 7.328125 8.296875 
Q 12.9375 14.109375 22.625 23.890625 
Q 32.328125 33.6875 34.8125 36.53125 
Q 39.546875 41.84375 41.421875 45.53125 
Q 43.3125 49.21875 43.3125 52.78125 
Q 43.3125 58.59375 39.234375 62.25 
Q 35.15625 65.921875 28.609375 65.921875 
Q 23.96875 65.921875 18.8125 64.3125 
Q 13.671875 62.703125 7.8125 59.421875 
L 7.8125 69.390625 
Q 13.765625 71.78125 18.9375 73 
Q 24.125 74.21875 28.421875 74.21875 
Q 39.75 74.21875 46.484375 68.546875 
Q 53.21875 62.890625 53.21875 53.421875 
Q 53.21875 48.921875 51.53125 44.890625 
Q 49.859375 40.875 45.40625 35.40625 
Q 44.1875 33.984375 37.640625 27.21875 
Q 31.109375 20.453125 19.1875 8.296875 
z
" id="DejaVuSans-50"/>
       </defs>
       <use xlink:href="#DejaVuSans-50"/>
       <use x="63.623047" xlink:href="#DejaVuSans-48"/>
      </g>
     </g>
    </g>
    <g id="xtick_4">
     <g id="text_4">
      <!-- 30 -->
      <g transform="translate(415.151549 287.06881)scale(0.08 -0.08)">
       <defs>
        <path d="M 40.578125 39.3125 
Q 47.65625 37.796875 51.625 33 
Q 55.609375 28.21875 55.609375 21.1875 
Q 55.609375 10.40625 48.1875 4.484375 
Q 40.765625 -1.421875 27.09375 -1.421875 
Q 22.515625 -1.421875 17.65625 -0.515625 
Q 12.796875 0.390625 7.625 2.203125 
L 7.625 11.71875 
Q 11.71875 9.328125 16.59375 8.109375 
Q 21.484375 6.890625 26.8125 6.890625 
Q 36.078125 6.890625 40.9375 10.546875 
Q 45.796875 14.203125 45.796875 21.1875 
Q 45.796875 27.640625 41.28125 31.265625 
Q 36.765625 34.90625 28.71875 34.90625 
L 20.21875 34.90625 
L 20.21875 43.015625 
L 29.109375 43.015625 
Q 36.375 43.015625 40.234375 45.921875 
Q 44.09375 48.828125 44.09375 54.296875 
Q 44.09375 59.90625 40.109375 62.90625 
Q 36.140625 65.921875 28.71875 65.921875 
Q 24.65625 65.921875 20.015625 65.03125 
Q 15.375 64.15625 9.8125 62.3125 
L 9.8125 71.09375 
Q 15.4375 72.65625 20.34375 73.4375 
Q 25.25 74.21875 29.59375 74.21875 
Q 40.828125 74.21875 47.359375 69.109375 
Q 53.90625 64.015625 53.90625 55.328125 
Q 53.90625 49.265625 50.4375 45.09375 
Q 46.96875 40.921875 40.578125 39.3125 
z
" id="DejaVuSans-51"/>
       </defs>
       <use xlink:href="#DejaVuSans-51"/>
       <use x="63.623047" xlink:href="#DejaVuSans-48"/>
      </g>
     </g>
    </g>
    <g id="xtick_5">
     <g id="text_5">
      <!-- 40 -->
      <g transform="translate(530.29458 287.06881)scale(0.08 -0.08)">
       <defs>
        <path d="M 37.796875 64.3125 
L 12.890625 25.390625 
L 37.796875 25.390625 
z
M 35.203125 72.90625 
L 47.609375 72.90625 
L 47.609375 25.390625 
L 58.015625 25.390625 
L 58.015625 17.1875 
L 47.609375 17.1875 
L 47.609375 0 
L 37.796875 0 
L 37.796875 17.1875 
L 4.890625 17.1875 
L 4.890625 26.703125 
z
" id="DejaVuSans-52"/>
       </defs>
       <use xlink:href="#DejaVuSans-52"/>
       <use x="63.623047" xlink:href="#DejaVuSans-48"/>
      </g>
     </g>
    </g>
    <g id="xtick_6">
     <g id="text_6">
      <!-- 50 -->
      <g transform="translate(645.43761 287.06881)scale(0.08 -0.08)">
       <defs>
        <path d="M 10.796875 72.90625 
L 49.515625 72.90625 
L 49.515625 64.59375 
L 19.828125 64.59375 
L 19.828125 46.734375 
Q 21.96875 47.46875 24.109375 47.828125 
Q 26.265625 48.1875 28.421875 48.1875 
Q 40.625 48.1875 47.75 41.5 
Q 54.890625 34.8125 54.890625 23.390625 
Q 54.890625 11.625 47.5625 5.09375 
Q 40.234375 -1.421875 26.90625 -1.421875 
Q 22.3125 -1.421875 17.546875 -0.640625 
Q 12.796875 0.140625 7.71875 1.703125 
L 7.71875 11.625 
Q 12.109375 9.234375 16.796875 8.0625 
Q 21.484375 6.890625 26.703125 6.890625 
Q 35.15625 6.890625 40.078125 11.328125 
Q 45.015625 15.765625 45.015625 23.390625 
Q 45.015625 31 40.078125 35.4375 
Q 35.15625 39.890625 26.703125 39.890625 
Q 22.75 39.890625 18.8125 39.015625 
Q 14.890625 38.140625 10.796875 36.28125 
z
" id="DejaVuSans-53"/>
       </defs>
       <use xlink:href="#DejaVuSans-53"/>
       <use x="63.623047" xlink:href="#DejaVuSans-48"/>
      </g>
     </g>
    </g>
    <g id="xtick_7">
     <g id="text_7">
      <!-- 60 -->
      <g transform="translate(760.58064 287.06881)scale(0.08 -0.08)">
       <defs>
        <path d="M 33.015625 40.375 
Q 26.375 40.375 22.484375 35.828125 
Q 18.609375 31.296875 18.609375 23.390625 
Q 18.609375 15.53125 22.484375 10.953125 
Q 26.375 6.390625 33.015625 6.390625 
Q 39.65625 6.390625 43.53125 10.953125 
Q 47.40625 15.53125 47.40625 23.390625 
Q 47.40625 31.296875 43.53125 35.828125 
Q 39.65625 40.375 33.015625 40.375 
z
M 52.59375 71.296875 
L 52.59375 62.3125 
Q 48.875 64.0625 45.09375 64.984375 
Q 41.3125 65.921875 37.59375 65.921875 
Q 27.828125 65.921875 22.671875 59.328125 
Q 17.53125 52.734375 16.796875 39.40625 
Q 19.671875 43.65625 24.015625 45.921875 
Q 28.375 48.1875 33.59375 48.1875 
Q 44.578125 48.1875 50.953125 41.515625 
Q 57.328125 34.859375 57.328125 23.390625 
Q 57.328125 12.15625 50.6875 5.359375 
Q 44.046875 -1.421875 33.015625 -1.421875 
Q 20.359375 -1.421875 13.671875 8.265625 
Q 6.984375 17.96875 6.984375 36.375 
Q 6.984375 53.65625 15.1875 63.9375 
Q 23.390625 74.21875 37.203125 74.21875 
Q 40.921875 74.21875 44.703125 73.484375 
Q 48.484375 72.75 52.59375 71.296875 
z
" id="DejaVuSans-54"/>
       </defs>
       <use xlink:href="#DejaVuSans-54"/>
       <use x="63.623047" xlink:href="#DejaVuSans-48"/>
      </g>
     </g>
    </g>
    <g id="xtick_8">
     <g id="text_8">
      <!-- 70 -->
      <g transform="translate(875.72367 287.06881)scale(0.08 -0.08)">
       <defs>
        <path d="M 8.203125 72.90625 
L 55.078125 72.90625 
L 55.078125 68.703125 
L 28.609375 0 
L 18.3125 0 
L 43.21875 64.59375 
L 8.203125 64.59375 
z
" id="DejaVuSans-55"/>
       </defs>
       <use xlink:href="#DejaVuSans-55"/>
       <use x="63.623047" xlink:href="#DejaVuSans-48"/>
      </g>
     </g>
    </g>
    <g id="text_9">
     <!-- Cycle # -->
     <g transform="translate(498.668594 300.330997)scale(0.1 -0.1)">
      <defs>
       <path d="M 64.40625 67.28125 
L 64.40625 56.890625 
Q 59.421875 61.53125 53.78125 63.8125 
Q 48.140625 66.109375 41.796875 66.109375 
Q 29.296875 66.109375 22.65625 58.46875 
Q 16.015625 50.828125 16.015625 36.375 
Q 16.015625 21.96875 22.65625 14.328125 
Q 29.296875 6.6875 41.796875 6.6875 
Q 48.140625 6.6875 53.78125 8.984375 
Q 59.421875 11.28125 64.40625 15.921875 
L 64.40625 5.609375 
Q 59.234375 2.09375 53.4375 0.328125 
Q 47.65625 -1.421875 41.21875 -1.421875 
Q 24.65625 -1.421875 15.125 8.703125 
Q 5.609375 18.84375 5.609375 36.375 
Q 5.609375 53.953125 15.125 64.078125 
Q 24.65625 74.21875 41.21875 74.21875 
Q 47.75 74.21875 53.53125 72.484375 
Q 59.328125 70.75 64.40625 67.28125 
z
" id="DejaVuSans-67"/>
       <path d="M 32.171875 -5.078125 
Q 28.375 -14.84375 24.75 -17.8125 
Q 21.140625 -20.796875 15.09375 -20.796875 
L 7.90625 -20.796875 
L 7.90625 -13.28125 
L 13.1875 -13.28125 
Q 16.890625 -13.28125 18.9375 -11.515625 
Q 21 -9.765625 23.484375 -3.21875 
L 25.09375 0.875 
L 2.984375 54.6875 
L 12.5 54.6875 
L 29.59375 11.921875 
L 46.6875 54.6875 
L 56.203125 54.6875 
z
" id="DejaVuSans-121"/>
       <path d="M 48.78125 52.59375 
L 48.78125 44.1875 
Q 44.96875 46.296875 41.140625 47.34375 
Q 37.3125 48.390625 33.40625 48.390625 
Q 24.65625 48.390625 19.8125 42.84375 
Q 14.984375 37.3125 14.984375 27.296875 
Q 14.984375 17.28125 19.8125 11.734375 
Q 24.65625 6.203125 33.40625 6.203125 
Q 37.3125 6.203125 41.140625 7.25 
Q 44.96875 8.296875 48.78125 10.40625 
L 48.78125 2.09375 
Q 45.015625 0.34375 40.984375 -0.53125 
Q 36.96875 -1.421875 32.421875 -1.421875 
Q 20.0625 -1.421875 12.78125 6.34375 
Q 5.515625 14.109375 5.515625 27.296875 
Q 5.515625 40.671875 12.859375 48.328125 
Q 20.21875 56 33.015625 56 
Q 37.15625 56 41.109375 55.140625 
Q 45.0625 54.296875 48.78125 52.59375 
z
" id="DejaVuSans-99"/>
       <path d="M 9.421875 75.984375 
L 18.40625 75.984375 
L 18.40625 0 
L 9.421875 0 
z
" id="DejaVuSans-108"/>
       <path d="M 56.203125 29.59375 
L 56.203125 25.203125 
L 14.890625 25.203125 
Q 15.484375 15.921875 20.484375 11.0625 
Q 25.484375 6.203125 34.421875 6.203125 
Q 39.59375 6.203125 44.453125 7.46875 
Q 49.3125 8.734375 54.109375 11.28125 
L 54.109375 2.78125 
Q 49.265625 0.734375 44.1875 -0.34375 
Q 39.109375 -1.421875 33.890625 -1.421875 
Q 20.796875 -1.421875 13.15625 6.1875 
Q 5.515625 13.8125 5.515625 26.8125 
Q 5.515625 40.234375 12.765625 48.109375 
Q 20.015625 56 32.328125 56 
Q 43.359375 56 49.78125 48.890625 
Q 56.203125 41.796875 56.203125 29.59375 
z
M 47.21875 32.234375 
Q 47.125 39.59375 43.09375 43.984375 
Q 39.0625 48.390625 32.421875 48.390625 
Q 24.90625 48.390625 20.390625 44.140625 
Q 15.875 39.890625 15.1875 32.171875 
z
" id="DejaVuSans-101"/>
       <path id="DejaVuSans-32"/>
       <path d="M 51.125 44 
L 36.921875 44 
L 32.8125 27.6875 
L 47.125 27.6875 
z
M 43.796875 71.78125 
L 38.71875 51.515625 
L 52.984375 51.515625 
L 58.109375 71.78125 
L 65.921875 71.78125 
L 60.890625 51.515625 
L 76.125 51.515625 
L 76.125 44 
L 58.984375 44 
L 54.984375 27.6875 
L 70.515625 27.6875 
L 70.515625 20.21875 
L 53.078125 20.21875 
L 48 0 
L 40.1875 0 
L 45.21875 20.21875 
L 30.90625 20.21875 
L 25.875 0 
L 18.015625 0 
L 23.09375 20.21875 
L 7.71875 20.21875 
L 7.71875 27.6875 
L 24.90625 27.6875 
L 29 44 
L 13.28125 44 
L 13.28125 51.515625 
L 30.90625 51.515625 
L 35.890625 71.78125 
z
" id="DejaVuSans-35"/>
      </defs>
      <use xlink:href="#DejaVuSans-67"/>
      <use x="69.824219" xlink:href="#DejaVuSans-121"/>
      <use x="129.003906" xlink:href="#DejaVuSans-99"/>
      <use x="183.984375" xlink:href="#DejaVuSans-108"/>
      <use x="211.767578" xlink:href="#DejaVuSans-101"/>
      <use x="273.291016" xlink:href="#DejaVuSans-32"/>
      <use x="305.078125" xlink:href="#DejaVuSans-35"/>
     </g>
    </g>
   </g>
   <g id="matplotlib.axis_2">
    <g id="ytick_1">
     <g id="line2d_1">
      <path clip-path="url(#pae57a01012)" d="M 43.148125 273.99006 
L 993.078125 273.99006 
" style="fill:none;stroke:#dedede;stroke-linecap:square;"/>
     </g>
     <g id="text_10">
      <!-- 0 -->
      <g transform="translate(31.058125 277.029435)scale(0.08 -0.08)">
       <use xlink:href="#DejaVuSans-48"/>
      </g>
     </g>
    </g>
    <g id="ytick_2">
     <g id="line2d_2">
      <path clip-path="url(#pae57a01012)" d="M 43.148125 225.48862 
L 993.078125 225.48862 
" style="fill:none;stroke:#dedede;stroke-linecap:square;"/>
     </g>
     <g id="text_11">
      <!-- 20 -->
      <g transform="translate(25.968125 228.527995)scale(0.08 -0.08)">
       <use xlink:href="#DejaVuSans-50"/>
       <use x="63.623047" xlink:href="#DejaVuSans-48"/>
      </g>
     </g>
    </g>
    <g id="ytick_3">
     <g id="line2d_3">
      <path clip-path="url(#pae57a01012)" d="M 43.148125 176.98718 
L 993.078125 176.98718 
" style="fill:none;stroke:#dedede;stroke-linecap:square;"/>
     </g>
     <g id="text_12">
      <!-- 40 -->
      <g transform="translate(25.968125 180.026555)scale(0.08 -0.08)">
       <use xlink:href="#DejaVuSans-52"/>
       <use x="63.623047" xlink:href="#DejaVuSans-48"/>
      </g>
     </g>
    </g>
    <g id="ytick_4">
     <g id="line2d_4">
      <path clip-path="url(#pae57a01012)" d="M 43.148125 128.48574 
L 993.078125 128.48574 
" style="fill:none;stroke:#dedede;stroke-linecap:square;"/>
     </g>
     <g id="text_13">
      <!-- 60 -->
      <g transform="translate(25.968125 131.525115)scale(0.08 -0.08)">
       <use xlink:href="#DejaVuSans-54"/>
       <use x="63.623047" xlink:href="#DejaVuSans-48"/>
      </g>
     </g>
    </g>
    <g id="ytick_5">
     <g id="line2d_5">
      <path clip-path="url(#pae57a01012)" d="M 43.148125 79.9843 
L 993.078125 79.9843 
" style="fill:none;stroke:#dedede;stroke-linecap:square;"/>
     </g>
     <g id="text_14">
      <!-- 80 -->
      <g transform="translate(25.968125 83.023675)scale(0.08 -0.08)">
       <defs>
        <path d="M 31.78125 34.625 
Q 24.75 34.625 20.71875 30.859375 
Q 16.703125 27.09375 16.703125 20.515625 
Q 16.703125 13.921875 20.71875 10.15625 
Q 24.75 6.390625 31.78125 6.390625 
Q 38.8125 6.390625 42.859375 10.171875 
Q 46.921875 13.96875 46.921875 20.515625 
Q 46.921875 27.09375 42.890625 30.859375 
Q 38.875 34.625 31.78125 34.625 
z
M 21.921875 38.8125 
Q 15.578125 40.375 12.03125 44.71875 
Q 8.5 49.078125 8.5 55.328125 
Q 8.5 64.0625 14.71875 69.140625 
Q 20.953125 74.21875 31.78125 74.21875 
Q 42.671875 74.21875 48.875 69.140625 
Q 55.078125 64.0625 55.078125 55.328125 
Q 55.078125 49.078125 51.53125 44.71875 
Q 48 40.375 41.703125 38.8125 
Q 48.828125 37.15625 52.796875 32.3125 
Q 56.78125 27.484375 56.78125 20.515625 
Q 56.78125 9.90625 50.3125 4.234375 
Q 43.84375 -1.421875 31.78125 -1.421875 
Q 19.734375 -1.421875 13.25 4.234375 
Q 6.78125 9.90625 6.78125 20.515625 
Q 6.78125 27.484375 10.78125 32.3125 
Q 14.796875 37.15625 21.921875 38.8125 
z
M 18.3125 54.390625 
Q 18.3125 48.734375 21.84375 45.5625 
Q 25.390625 42.390625 31.78125 42.390625 
Q 38.140625 42.390625 41.71875 45.5625 
Q 45.3125 48.734375 45.3125 54.390625 
Q 45.3125 60.0625 41.71875 63.234375 
Q 38.140625 66.40625 31.78125 66.40625 
Q 25.390625 66.40625 21.84375 63.234375 
Q 18.3125 60.0625 18.3125 54.390625 
z
" id="DejaVuSans-56"/>
       </defs>
       <use xlink:href="#DejaVuSans-56"/>
       <use x="63.623047" xlink:href="#DejaVuSans-48"/>
      </g>
     </g>
    </g>
    <g id="ytick_6">
     <g id="line2d_6">
      <path clip-path="url(#pae57a01012)" d="M 43.148125 31.48286 
L 993.078125 31.48286 
" style="fill:none;stroke:#dedede;stroke-linecap:square;"/>
     </g>
     <g id="text_15">
      <!-- 100 -->
      <g transform="translate(20.878125 34.522235)scale(0.08 -0.08)">
       <use xlink:href="#DejaVuSans-49"/>
       <use x="63.623047" xlink:href="#DejaVuSans-48"/>
       <use x="127.246094" xlink:href="#DejaVuSans-48"/>
      </g>
     </g>
    </g>
    <g id="text_16">
     <!-- % Undetermined -->
     <g transform="translate(14.798437 194.838804)rotate(-90)scale(0.1 -0.1)">
      <defs>
       <path d="M 72.703125 32.078125 
Q 68.453125 32.078125 66.03125 28.46875 
Q 63.625 24.859375 63.625 18.40625 
Q 63.625 12.0625 66.03125 8.421875 
Q 68.453125 4.78125 72.703125 4.78125 
Q 76.859375 4.78125 79.265625 8.421875 
Q 81.6875 12.0625 81.6875 18.40625 
Q 81.6875 24.8125 79.265625 28.4375 
Q 76.859375 32.078125 72.703125 32.078125 
z
M 72.703125 38.28125 
Q 80.421875 38.28125 84.953125 32.90625 
Q 89.5 27.546875 89.5 18.40625 
Q 89.5 9.28125 84.9375 3.921875 
Q 80.375 -1.421875 72.703125 -1.421875 
Q 64.890625 -1.421875 60.34375 3.921875 
Q 55.8125 9.28125 55.8125 18.40625 
Q 55.8125 27.59375 60.375 32.9375 
Q 64.9375 38.28125 72.703125 38.28125 
z
M 22.3125 68.015625 
Q 18.109375 68.015625 15.6875 64.375 
Q 13.28125 60.75 13.28125 54.390625 
Q 13.28125 47.953125 15.671875 44.328125 
Q 18.0625 40.71875 22.3125 40.71875 
Q 26.5625 40.71875 28.96875 44.328125 
Q 31.390625 47.953125 31.390625 54.390625 
Q 31.390625 60.6875 28.953125 64.34375 
Q 26.515625 68.015625 22.3125 68.015625 
z
M 66.40625 74.21875 
L 74.21875 74.21875 
L 28.609375 -1.421875 
L 20.796875 -1.421875 
z
M 22.3125 74.21875 
Q 30.03125 74.21875 34.609375 68.875 
Q 39.203125 63.53125 39.203125 54.390625 
Q 39.203125 45.171875 34.640625 39.84375 
Q 30.078125 34.515625 22.3125 34.515625 
Q 14.546875 34.515625 10.03125 39.859375 
Q 5.515625 45.21875 5.515625 54.390625 
Q 5.515625 63.484375 10.046875 68.84375 
Q 14.59375 74.21875 22.3125 74.21875 
z
" id="DejaVuSans-37"/>
       <path d="M 8.6875 72.90625 
L 18.609375 72.90625 
L 18.609375 28.609375 
Q 18.609375 16.890625 22.84375 11.734375 
Q 27.09375 6.59375 36.625 6.59375 
Q 46.09375 6.59375 50.34375 11.734375 
Q 54.59375 16.890625 54.59375 28.609375 
L 54.59375 72.90625 
L 64.5 72.90625 
L 64.5 27.390625 
Q 64.5 13.140625 57.4375 5.859375 
Q 50.390625 -1.421875 36.625 -1.421875 
Q 22.796875 -1.421875 15.734375 5.859375 
Q 8.6875 13.140625 8.6875 27.390625 
z
" id="DejaVuSans-85"/>
       <path d="M 54.890625 33.015625 
L 54.890625 0 
L 45.90625 0 
L 45.90625 32.71875 
Q 45.90625 40.484375 42.875 44.328125 
Q 39.84375 48.1875 33.796875 48.1875 
Q 26.515625 48.1875 22.3125 43.546875 
Q 18.109375 38.921875 18.109375 30.90625 
L 18.109375 0 
L 9.078125 0 
L 9.078125 54.6875 
L 18.109375 54.6875 
L 18.109375 46.1875 
Q 21.34375 51.125 25.703125 53.5625 
Q 30.078125 56 35.796875 56 
Q 45.21875 56 50.046875 50.171875 
Q 54.890625 44.34375 54.890625 33.015625 
z
" id="DejaVuSans-110"/>
       <path d="M 45.40625 46.390625 
L 45.40625 75.984375 
L 54.390625 75.984375 
L 54.390625 0 
L 45.40625 0 
L 45.40625 8.203125 
Q 42.578125 3.328125 38.25 0.953125 
Q 33.9375 -1.421875 27.875 -1.421875 
Q 17.96875 -1.421875 11.734375 6.484375 
Q 5.515625 14.40625 5.515625 27.296875 
Q 5.515625 40.1875 11.734375 48.09375 
Q 17.96875 56 27.875 56 
Q 33.9375 56 38.25 53.625 
Q 42.578125 51.265625 45.40625 46.390625 
z
M 14.796875 27.296875 
Q 14.796875 17.390625 18.875 11.75 
Q 22.953125 6.109375 30.078125 6.109375 
Q 37.203125 6.109375 41.296875 11.75 
Q 45.40625 17.390625 45.40625 27.296875 
Q 45.40625 37.203125 41.296875 42.84375 
Q 37.203125 48.484375 30.078125 48.484375 
Q 22.953125 48.484375 18.875 42.84375 
Q 14.796875 37.203125 14.796875 27.296875 
z
" id="DejaVuSans-100"/>
       <path d="M 18.3125 70.21875 
L 18.3125 54.6875 
L 36.8125 54.6875 
L 36.8125 47.703125 
L 18.3125 47.703125 
L 18.3125 18.015625 
Q 18.3125 11.328125 20.140625 9.421875 
Q 21.96875 7.515625 27.59375 7.515625 
L 36.8125 7.515625 
L 36.8125 0 
L 27.59375 0 
Q 17.1875 0 13.234375 3.875 
Q 9.28125 7.765625 9.28125 18.015625 
L 9.28125 47.703125 
L 2.6875 47.703125 
L 2.6875 54.6875 
L 9.28125 54.6875 
L 9.28125 70.21875 
z
" id="DejaVuSans-116"/>
       <path d="M 41.109375 46.296875 
Q 39.59375 47.171875 37.8125 47.578125 
Q 36.03125 48 33.890625 48 
Q 26.265625 48 22.1875 43.046875 
Q 18.109375 38.09375 18.109375 28.8125 
L 18.109375 0 
L 9.078125 0 
L 9.078125 54.6875 
L 18.109375 54.6875 
L 18.109375 46.1875 
Q 20.953125 51.171875 25.484375 53.578125 
Q 30.03125 56 36.53125 56 
Q 37.453125 56 38.578125 55.875 
Q 39.703125 55.765625 41.0625 55.515625 
z
" id="DejaVuSans-114"/>
       <path d="M 52 44.1875 
Q 55.375 50.25 60.0625 53.125 
Q 64.75 56 71.09375 56 
Q 79.640625 56 84.28125 50.015625 
Q 88.921875 44.046875 88.921875 33.015625 
L 88.921875 0 
L 79.890625 0 
L 79.890625 32.71875 
Q 79.890625 40.578125 77.09375 44.375 
Q 74.3125 48.1875 68.609375 48.1875 
Q 61.625 48.1875 57.5625 43.546875 
Q 53.515625 38.921875 53.515625 30.90625 
L 53.515625 0 
L 44.484375 0 
L 44.484375 32.71875 
Q 44.484375 40.625 41.703125 44.40625 
Q 38.921875 48.1875 33.109375 48.1875 
Q 26.21875 48.1875 22.15625 43.53125 
Q 18.109375 38.875 18.109375 30.90625 
L 18.109375 0 
L 9.078125 0 
L 9.078125 54.6875 
L 18.109375 54.6875 
L 18.109375 46.1875 
Q 21.1875 51.21875 25.484375 53.609375 
Q 29.78125 56 35.6875 56 
Q 41.65625 56 45.828125 52.96875 
Q 50 49.953125 52 44.1875 
z
" id="DejaVuSans-109"/>
       <path d="M 9.421875 54.6875 
L 18.40625 54.6875 
L 18.40625 0 
L 9.421875 0 
z
M 9.421875 75.984375 
L 18.40625 75.984375 
L 18.40625 64.59375 
L 9.421875 64.59375 
z
" id="DejaVuSans-105"/>
      </defs>
      <use xlink:href="#DejaVuSans-37"/>
      <use x="95.019531" xlink:href="#DejaVuSans-32"/>
      <use x="126.806641" xlink:href="#DejaVuSans-85"/>
      <use x="200" xlink:href="#DejaVuSans-110"/>
      <use x="263.378906" xlink:href="#DejaVuSans-100"/>
      <use x="326.855469" xlink:href="#DejaVuSans-101"/>
      <use x="388.378906" xlink:href="#DejaVuSans-116"/>
      <use x="427.587891" xlink:href="#DejaVuSans-101"/>
      <use x="489.111328" xlink:href="#DejaVuSans-114"/>
      <use x="528.474609" xlink:href="#DejaVuSans-109"/>
      <use x="625.886719" xlink:href="#DejaVuSans-105"/>
      <use x="653.669922" xlink:href="#DejaVuSans-110"/>
      <use x="717.048828" xlink:href="#DejaVuSans-101"/>
      <use x="778.572266" xlink:href="#DejaVuSans-100"/>
     </g>
    </g>
   </g>
   <g id="line2d_7">
    <path clip-path="url(#pae57a01012)" d="M 86.326761 273.735663 
L 97.841064 273.99006 
L 109.355367 273.99006 
L 120.86967 273.99006 
L 132.383973 273.99006 
L 143.898277 273.99006 
L 155.41258 273.99006 
L 166.926883 273.99006 
L 178.441186 273.99006 
L 189.955489 273.99006 
L 201.469792 273.99006 
L 212.984095 273.99006 
L 224.498398 273.99006 
L 236.012701 273.99006 
L 247.527004 273.987135 
L 259.041307 273.99006 
L 270.55561 273.99006 
L 282.069913 273.99006 
L 293.584216 273.99006 
L 305.098519 273.987135 
L 316.612822 273.987135 
L 328.127125 273.952045 
L 339.641428 273.99006 
L 351.155731 273.99006 
L 362.670034 273.99006 
L 374.184337 273.99006 
L 385.69864 273.99006 
L 397.212943 273.987135 
L 408.727246 273.987133 
L 420.241549 273.987133 
L 431.755852 273.99006 
L 443.270155 273.984206 
L 454.784458 273.99006 
L 466.298761 273.987133 
L 477.813064 273.99006 
L 489.327367 273.99006 
L 500.84167 273.99006 
L 512.355973 273.99006 
L 523.870277 273.99006 
L 535.38458 273.99006 
L 546.898883 273.99006 
L 558.413186 273.99006 
L 569.927489 273.99006 
L 581.441792 273.99006 
L 592.956095 273.987123 
L 604.470398 273.99006 
L 615.984701 273.99006 
L 627.499004 273.99006 
L 639.013307 273.99006 
L 650.52761 273.99006 
" style="fill:none;stroke:#7cb5ec;stroke-linecap:square;"/>
   </g>
   <g id="line2d_8">
    <path clip-path="url(#pae57a01012)" d="M 86.326761 273.99006 
L 97.841064 273.99006 
L 109.355367 273.99006 
L 120.86967 273.99006 
L 132.383973 273.99006 
L 143.898277 273.99006 
L 155.41258 273.99006 
L 166.926883 273.99006 
L 178.441186 273.99006 
L 189.955489 273.99006 
L 201.469792 273.99006 
L 212.984095 273.99006 
L 224.498398 273.99006 
L 236.012701 273.99006 
L 247.527004 273.99006 
L 259.041307 273.99006 
L 270.55561 273.99006 
L 282.069913 273.99006 
L 293.584216 273.99006 
L 305.098519 273.99006 
L 316.612822 273.99006 
L 328.127125 273.99006 
L 339.641428 273.99006 
L 351.155731 273.99006 
L 362.670034 273.99006 
L 374.184337 273.99006 
L 385.69864 273.99006 
L 397.212943 273.99006 
L 408.727246 273.99006 
L 420.241549 273.99006 
L 431.755852 273.99006 
L 443.270155 273.99006 
L 454.784458 273.99006 
L 466.298761 273.99006 
L 477.813064 273.99006 
L 489.327367 273.99006 
L 500.84167 273.99006 
L 512.355973 273.99006 
L 523.870277 273.99006 
L 535.38458 273.987123 
L 546.898883 273.99006 
L 558.413186 273.99006 
L 569.927489 273.99006 
L 581.441792 273.99006 
L 592.956095 273.99006 
L 604.470398 273.987109 
L 615.984701 273.987087 
L 627.499004 273.99006 
L 639.013307 273.99006 
L 650.52761 273.99006 
" style="fill:none;stroke:#434348;stroke-linecap:square;"/>
   </g>
   <g id="line2d_9">
    <path clip-path="url(#pae57a01012)" d="M 86.326761 273.698695 
L 97.841064 273.99006 
L 109.355367 273.99006 
L 120.86967 273.99006 
L 132.383973 273.99006 
L 143.898277 273.99006 
L 155.41258 273.99006 
L 166.926883 273.99006 
L 178.441186 273.99006 
L 189.955489 273.99006 
L 201.469792 273.99006 
L 212.984095 273.99006 
L 224.498398 273.99006 
L 236.012701 273.99006 
L 247.527004 273.984402 
L 259.041307 273.99006 
L 270.55561 273.99006 
L 282.069913 273.987232 
L 293.584216 273.99006 
L 305.098519 273.99006 
L 316.612822 273.987232 
L 328.127125 273.978745 
L 339.641428 273.99006 
L 351.155731 273.99006 
L 362.670034 273.99006 
L 374.184337 273.99006 
L 385.69864 273.98723 
L 397.212943 273.99006 
L 408.727246 273.98723 
L 420.241549 273.98723 
L 431.755852 273.99006 
L 443.270155 273.984397 
L 454.784458 273.99006 
L 466.298761 273.987228 
L 477.813064 273.99006 
L 489.327367 273.99006 
L 500.84167 273.99006 
L 512.355973 273.99006 
L 523.870277 273.99006 
L 535.38458 273.99006 
L 546.898883 273.99006 
L 558.413186 273.99006 
L 569.927489 273.99006 
L 581.441792 273.987223 
L 592.956095 273.98722 
L 604.470398 273.99006 
L 615.984701 273.99006 
L 627.499004 273.99006 
L 639.013307 273.99006 
L 650.52761 273.99006 
" style="fill:none;stroke:#90ed7d;stroke-linecap:square;"/>
   </g>
   <g id="line2d_10">
    <path clip-path="url(#pae57a01012)" d="M 86.326761 273.99006 
L 97.841064 273.99006 
L 109.355367 273.99006 
L 120.86967 273.99006 
L 132.383973 273.99006 
L 143.898277 273.99006 
L 155.41258 273.99006 
L 166.926883 273.99006 
L 178.441186 273.99006 
L 189.955489 273.987232 
L 201.469792 273.987232 
L 212.984095 273.987232 
L 224.498398 273.987232 
L 236.012701 273.987232 
L 247.527004 273.987232 
L 259.041307 273.987232 
L 270.55561 273.987232 
L 282.069913 273.987232 
L 293.584216 273.987232 
L 305.098519 273.987232 
L 316.612822 273.99006 
L 328.127125 273.99006 
L 339.641428 273.99006 
L 351.155731 273.99006 
L 362.670034 273.98157 
L 374.184337 273.99006 
L 385.69864 273.99006 
L 397.212943 273.987228 
L 408.727246 273.99006 
L 420.241549 273.99006 
L 431.755852 273.99006 
L 443.270155 273.987225 
L 454.784458 273.99006 
L 466.298761 273.987225 
L 477.813064 273.99006 
L 489.327367 273.99006 
L 500.84167 273.99006 
L 512.355973 273.99006 
L 523.870277 273.99006 
L 535.38458 273.99006 
L 546.898883 273.99006 
L 558.413186 273.99006 
L 569.927489 273.99006 
L 581.441792 273.99006 
L 592.956095 273.99006 
L 604.470398 273.987203 
L 615.984701 273.99006 
L 627.499004 273.99006 
L 639.013307 273.99006 
L 650.52761 273.99006 
" style="fill:none;stroke:#f7a35c;stroke-linecap:square;"/>
   </g>
   <g id="line2d_11">
    <path clip-path="url(#pae57a01012)" d="M 86.326761 273.966309 
L 97.841064 273.980559 
L 109.355367 273.99006 
L 120.86967 273.99006 
L 132.383973 273.99006 
L 143.898277 273.97106 
L 155.41258 273.99006 
L 166.926883 273.99006 
L 178.441186 273.99006 
L 189.955489 273.99006 
L 201.469792 273.99006 
L 212.984095 273.99006 
L 224.498398 273.99006 
L 236.012701 273.99006 
L 247.527004 273.99006 
L 259.041307 273.99006 
L 270.55561 273.99006 
L 282.069913 273.99006 
L 293.584216 273.99006 
L 305.098519 273.99006 
L 316.612822 273.99006 
L 328.127125 273.99006 
L 339.641428 273.99006 
L 351.155731 273.99006 
L 362.670034 273.99006 
L 374.184337 273.99006 
L 385.69864 273.99006 
L 397.212943 273.99006 
L 408.727246 273.99006 
L 420.241549 273.99006 
L 431.755852 273.99006 
L 443.270155 273.99006 
L 454.784458 273.99006 
L 466.298761 273.99006 
L 477.813064 273.99006 
L 489.327367 273.99006 
L 500.84167 273.99006 
L 512.355973 273.99006 
L 523.870277 273.99006 
L 535.38458 273.99006 
L 546.898883 273.99006 
L 558.413186 273.99006 
L 569.927489 273.984965 
L 581.441792 273.979787 
L 592.956095 273.979686 
L 604.470398 273.984824 
L 615.984701 273.974193 
L 627.499004 273.968707 
L 639.013307 273.97929 
L 650.52761 273.946547 
L 662.041913 273.945899 
L 673.556216 273.967626 
L 685.070519 273.961687 
L 696.584822 273.978599 
L 708.099125 273.97849 
L 719.613428 273.978371 
L 731.127731 273.978255 
L 742.642034 273.978136 
L 754.156337 273.99006 
L 765.67064 273.99006 
L 777.184943 273.99006 
L 788.699246 273.99006 
L 800.213549 273.99006 
L 811.727852 273.99006 
L 823.242155 273.99006 
L 834.756458 273.99006 
L 846.270761 273.99006 
L 857.785064 273.99006 
L 869.299367 273.99006 
L 880.81367 273.99006 
L 892.327973 273.99006 
L 903.842277 273.99006 
L 915.35658 273.99006 
L 926.870883 273.99006 
L 938.385186 273.99006 
L 949.899489 273.99006 
" style="fill:none;stroke:#8085e9;stroke-linecap:square;"/>
   </g>
   <g id="line2d_12">
    <path clip-path="url(#pae57a01012)" d="M 86.326761 273.909305 
L 97.841064 273.880803 
L 109.355367 273.890305 
L 120.86967 273.909305 
L 132.383973 273.914056 
L 143.898277 273.914056 
L 155.41258 273.928306 
L 166.926883 273.909305 
L 178.441186 273.914056 
L 189.955489 273.914056 
L 201.469792 273.923555 
L 212.984095 273.923555 
L 224.498398 273.909305 
L 236.012701 273.914056 
L 247.527004 273.923555 
L 259.041307 273.937807 
L 270.55561 273.928306 
L 282.069913 273.942558 
L 293.584216 273.937807 
L 305.098519 273.947308 
L 316.612822 273.97581 
L 328.127125 273.961558 
L 339.641428 273.980559 
L 351.155731 273.985309 
L 362.670034 273.980559 
L 374.184337 273.99006 
L 385.69864 273.99006 
L 397.212943 273.99006 
L 408.727246 273.99006 
L 420.241549 273.99006 
L 431.755852 273.99006 
L 443.270155 273.99006 
L 454.784458 273.99006 
L 466.298761 273.99006 
L 477.813064 273.99006 
L 489.327367 273.99006 
L 500.84167 273.99006 
L 512.355973 273.99006 
L 523.870277 273.99006 
L 535.38458 273.99006 
L 546.898883 273.99006 
L 558.413186 273.99006 
L 569.927489 273.984967 
L 581.441792 273.99006 
L 592.956095 273.984875 
L 604.470398 273.974358 
L 615.984701 273.974195 
L 627.499004 273.947376 
L 639.013307 273.957763 
L 650.52761 273.935687 
L 662.041913 273.934882 
L 673.556216 273.933997 
L 685.070519 273.93334 
L 696.584822 273.932785 
L 708.099125 273.932237 
L 719.613428 273.925803 
L 731.127731 273.925158 
L 742.642034 273.930483 
L 754.156337 273.929974 
L 765.67064 273.929373 
L 777.184943 273.928752 
L 788.699246 273.928051 
L 800.213549 273.927384 
L 811.727852 273.920528 
L 823.242155 273.938983 
L 834.756458 273.932064 
L 846.270761 273.970533 
L 857.785064 273.970356 
L 869.299367 273.99006 
L 880.81367 273.99006 
L 892.327973 273.99006 
L 903.842277 273.99006 
L 915.35658 273.99006 
L 926.870883 273.982947 
L 938.385186 273.99006 
L 949.899489 273.99006 
" style="fill:none;stroke:#f15c80;stroke-linecap:square;"/>
   </g>
   <g id="line2d_13">
    <path clip-path="url(#pae57a01012)" d="M 86.326761 273.967272 
L 97.841064 273.978665 
L 109.355367 273.99006 
L 120.86967 273.99006 
L 132.383973 273.984364 
L 143.898277 273.955876 
L 155.41258 273.99006 
L 166.926883 273.99006 
L 178.441186 273.99006 
L 189.955489 273.99006 
L 201.469792 273.99006 
L 212.984095 273.99006 
L 224.498398 273.99006 
L 236.012701 273.99006 
L 247.527004 273.99006 
L 259.041307 273.99006 
L 270.55561 273.99006 
L 282.069913 273.99006 
L 293.584216 273.99006 
L 305.098519 273.99006 
L 316.612822 273.99006 
L 328.127125 273.99006 
L 339.641428 273.99006 
L 351.155731 273.99006 
L 362.670034 273.99006 
L 374.184337 273.99006 
L 385.69864 273.99006 
L 397.212943 273.99006 
L 408.727246 273.99006 
L 420.241549 273.99006 
L 431.755852 273.99006 
L 443.270155 273.99006 
L 454.784458 273.99006 
L 466.298761 273.99006 
L 477.813064 273.99006 
L 489.327367 273.99006 
L 500.84167 273.99006 
L 512.355973 273.99006 
L 523.870277 273.99006 
L 535.38458 273.99006 
L 546.898883 273.99006 
L 558.413186 273.99006 
L 569.927489 273.99006 
L 581.441792 273.99006 
L 592.956095 273.99006 
L 604.470398 273.99006 
L 615.984701 273.983845 
L 627.499004 273.983796 
L 639.013307 273.99006 
L 650.52761 273.951851 
L 662.041913 273.951455 
L 673.556216 273.983568 
L 685.070519 273.970417 
L 696.584822 273.99006 
L 708.099125 273.99006 
L 719.613428 273.98333 
L 731.127731 273.99006 
L 742.642034 273.99006 
L 754.156337 273.99006 
L 765.67064 273.99006 
L 777.184943 273.99006 
L 788.699246 273.99006 
L 800.213549 273.99006 
L 811.727852 273.99006 
L 823.242155 273.99006 
L 834.756458 273.99006 
L 846.270761 273.99006 
L 857.785064 273.99006 
L 869.299367 273.99006 
L 880.81367 273.99006 
L 892.327973 273.99006 
L 903.842277 273.99006 
L 915.35658 273.99006 
L 926.870883 273.99006 
L 938.385186 273.99006 
L 949.899489 273.99006 
" style="fill:none;stroke:#e4d354;stroke-linecap:square;"/>
   </g>
   <g id="line2d_14">
    <path clip-path="url(#pae57a01012)" d="M 86.326761 273.841929 
L 97.841064 273.824837 
L 109.355367 273.841929 
L 120.86967 273.830534 
L 132.383973 273.841929 
L 143.898277 273.847626 
L 155.41258 273.859021 
L 166.926883 273.841929 
L 178.441186 273.864718 
L 189.955489 273.870417 
L 201.469792 273.898902 
L 212.984095 273.893205 
L 224.498398 273.847626 
L 236.012701 273.870417 
L 247.527004 273.893205 
L 259.041307 273.915993 
L 270.55561 273.887509 
L 282.069913 273.915993 
L 293.584216 273.915993 
L 305.098519 273.938784 
L 316.612822 273.978665 
L 328.127125 273.96157 
L 339.641428 273.978662 
L 351.155731 273.984361 
L 362.670034 273.97866 
L 374.184337 273.99006 
L 385.69864 273.99006 
L 397.212943 273.99006 
L 408.727246 273.99006 
L 420.241549 273.99006 
L 431.755852 273.99006 
L 443.270155 273.99006 
L 454.784458 273.99006 
L 466.298761 273.99006 
L 477.813064 273.99006 
L 489.327367 273.99006 
L 500.84167 273.99006 
L 512.355973 273.99006 
L 523.870277 273.99006 
L 535.38458 273.99006 
L 546.898883 273.99006 
L 558.413186 273.99006 
L 569.927489 273.99006 
L 581.441792 273.99006 
L 592.956095 273.983956 
L 604.470398 273.983898 
L 615.984701 273.971397 
L 627.499004 273.958709 
L 639.013307 273.952127 
L 650.52761 273.945448 
L 662.041913 273.932098 
L 673.556216 273.944578 
L 685.070519 273.937642 
L 696.584822 273.92394 
L 708.099125 273.923346 
L 719.613428 273.922716 
L 731.127731 273.915339 
L 742.642034 273.942044 
L 754.156337 273.927823 
L 765.67064 273.927331 
L 777.184943 273.933789 
L 788.699246 273.933306 
L 800.213549 273.939968 
L 811.727852 273.939553 
L 823.242155 273.931822 
L 834.756458 273.946028 
L 846.270761 273.95308 
L 857.785064 273.982605 
L 869.299367 273.99006 
L 880.81367 273.99006 
L 892.327973 273.99006 
L 903.842277 273.99006 
L 915.35658 273.99006 
L 926.870883 273.99006 
L 938.385186 273.99006 
L 949.899489 273.99006 
" style="fill:none;stroke:#2b908f;stroke-linecap:square;"/>
   </g>
   <g id="line2d_15">
    <path clip-path="url(#pae57a01012)" d="M 86.326761 273.969959 
L 97.841064 273.986039 
L 109.355367 273.99006 
L 120.86967 273.99006 
L 132.383973 273.986039 
L 143.898277 273.978 
L 155.41258 273.99006 
L 166.926883 273.99006 
L 178.441186 273.99006 
L 189.955489 273.99006 
L 201.469792 273.99006 
L 212.984095 273.99006 
L 224.498398 273.99006 
L 236.012701 273.99006 
L 247.527004 273.99006 
L 259.041307 273.99006 
L 270.55561 273.99006 
L 282.069913 273.99006 
L 293.584216 273.99006 
L 305.098519 273.99006 
L 316.612822 273.99006 
L 328.127125 273.99006 
L 339.641428 273.99006 
L 351.155731 273.99006 
L 362.670034 273.99006 
L 374.184337 273.99006 
L 385.69864 273.99006 
L 397.212943 273.99006 
L 408.727246 273.99006 
L 420.241549 273.99006 
L 431.755852 273.986034 
L 443.270155 273.99006 
L 454.784458 273.99006 
L 466.298761 273.99006 
L 477.813064 273.99006 
L 489.327367 273.99006 
L 500.84167 273.99006 
L 512.355973 273.99006 
L 523.870277 273.99006 
L 535.38458 273.99006 
L 546.898883 273.99006 
L 558.413186 273.99006 
L 569.927489 273.99006 
L 581.441792 273.99006 
L 592.956095 273.99006 
L 604.470398 273.99006 
L 615.984701 273.99006 
L 627.499004 273.981587 
L 639.013307 273.985799 
L 650.52761 273.968637 
L 662.041913 273.95989 
L 673.556216 273.981398 
L 685.070519 273.972636 
L 696.584822 273.99006 
L 708.099125 273.985654 
L 719.613428 273.99006 
L 731.127731 273.99006 
L 742.642034 273.985571 
L 754.156337 273.99006 
L 765.67064 273.99006 
L 777.184943 273.99006 
L 788.699246 273.99006 
L 800.213549 273.99006 
L 811.727852 273.99006 
L 823.242155 273.99006 
L 834.756458 273.99006 
L 846.270761 273.99006 
L 857.785064 273.99006 
L 869.299367 273.99006 
L 880.81367 273.99006 
L 892.327973 273.99006 
L 903.842277 273.985137 
L 915.35658 273.99006 
L 926.870883 273.99006 
L 938.385186 273.984558 
L 949.899489 273.99006 
" style="fill:none;stroke:#f45b5b;stroke-linecap:square;"/>
   </g>
   <g id="line2d_16">
    <path clip-path="url(#pae57a01012)" d="M 86.326761 273.845337 
L 97.841064 273.825238 
L 109.355367 273.853378 
L 120.86967 273.849357 
L 132.383973 273.869459 
L 143.898277 273.869459 
L 155.41258 273.869459 
L 166.926883 273.869459 
L 178.441186 273.889558 
L 189.955489 273.889558 
L 201.469792 273.889558 
L 212.984095 273.885537 
L 224.498398 273.885537 
L 236.012701 273.893579 
L 247.527004 273.893579 
L 259.041307 273.909659 
L 270.55561 273.909659 
L 282.069913 273.905638 
L 293.584216 273.909659 
L 305.098519 273.929758 
L 316.612822 273.945839 
L 328.127125 273.953878 
L 339.641428 273.982018 
L 351.155731 273.977998 
L 362.670034 273.982018 
L 374.184337 273.986039 
L 385.69864 273.99006 
L 397.212943 273.986039 
L 408.727246 273.986037 
L 420.241549 273.99006 
L 431.755852 273.99006 
L 443.270155 273.99006 
L 454.784458 273.99006 
L 466.298761 273.99006 
L 477.813064 273.99006 
L 489.327367 273.99006 
L 500.84167 273.99006 
L 512.355973 273.99006 
L 523.870277 273.99006 
L 535.38458 273.99006 
L 546.898883 273.99006 
L 558.413186 273.98595 
L 569.927489 273.98593 
L 581.441792 273.981761 
L 592.956095 273.973376 
L 604.470398 273.973298 
L 615.984701 273.964791 
L 627.499004 273.930777 
L 639.013307 273.951744 
L 650.52761 273.938682 
L 662.041913 273.91255 
L 673.556216 273.920819 
L 685.070519 273.920424 
L 696.584822 273.920031 
L 708.099125 273.902008 
L 719.613428 273.919224 
L 731.127731 273.90988 
L 742.642034 273.918338 
L 754.156337 273.913396 
L 765.67064 273.912863 
L 777.184943 273.898666 
L 788.699246 273.921081 
L 800.213549 273.902163 
L 811.727852 273.92492 
L 823.242155 273.919827 
L 834.756458 273.928839 
L 846.270761 273.947403 
L 857.785064 273.961427 
L 869.299367 273.99006 
L 880.81367 273.985222 
L 892.327973 273.99006 
L 903.842277 273.99006 
L 915.35658 273.99006 
L 926.870883 273.99006 
L 938.385186 273.984543 
L 949.899489 273.99006 
" style="fill:none;stroke:#91e8e1;stroke-linecap:square;"/>
   </g>
   <g id="line2d_17">
    <path clip-path="url(#pae57a01012)" d="M 86.326761 273.970322 
L 97.841064 273.986112 
L 109.355367 273.99006 
L 120.86967 273.99006 
L 132.383973 273.986112 
L 143.898277 273.958481 
L 155.41258 273.99006 
L 166.926883 273.99006 
L 178.441186 273.99006 
L 189.955489 273.99006 
L 201.469792 273.99006 
L 212.984095 273.99006 
L 224.498398 273.99006 
L 236.012701 273.99006 
L 247.527004 273.99006 
L 259.041307 273.99006 
L 270.55561 273.99006 
L 282.069913 273.99006 
L 293.584216 273.99006 
L 305.098519 273.99006 
L 316.612822 273.99006 
L 328.127125 273.99006 
L 339.641428 273.99006 
L 351.155731 273.99006 
L 362.670034 273.99006 
L 374.184337 273.99006 
L 385.69864 273.99006 
L 397.212943 273.99006 
L 408.727246 273.99006 
L 420.241549 273.99006 
L 431.755852 273.99006 
L 443.270155 273.99006 
L 454.784458 273.99006 
L 466.298761 273.99006 
L 477.813064 273.99006 
L 489.327367 273.99006 
L 500.84167 273.99006 
L 512.355973 273.99006 
L 523.870277 273.99006 
L 535.38458 273.99006 
L 546.898883 273.99006 
L 558.413186 273.99006 
L 569.927489 273.99006 
L 581.441792 273.99006 
L 592.956095 273.99006 
L 604.470398 273.985789 
L 615.984701 273.981427 
L 627.499004 273.976974 
L 639.013307 273.976841 
L 650.52761 273.958898 
L 662.041913 273.949561 
L 673.556216 273.971887 
L 685.070519 273.971712 
L 696.584822 273.985431 
L 708.099125 273.976041 
L 719.613428 273.980619 
L 731.127731 273.98529 
L 742.642034 273.99006 
L 754.156337 273.99006 
L 765.67064 273.99006 
L 777.184943 273.99006 
L 788.699246 273.99006 
L 800.213549 273.99006 
L 811.727852 273.99006 
L 823.242155 273.99006 
L 834.756458 273.99006 
L 846.270761 273.99006 
L 857.785064 273.99006 
L 869.299367 273.99006 
L 880.81367 273.99006 
L 892.327973 273.99006 
L 903.842277 273.99006 
L 915.35658 273.99006 
L 926.870883 273.99006 
L 938.385186 273.99006 
L 949.899489 273.99006 
" style="fill:none;stroke:#7cb5ec;stroke-linecap:square;"/>
   </g>
   <g id="line2d_18">
    <path clip-path="url(#pae57a01012)" d="M 86.326761 273.875587 
L 97.841064 273.84006 
L 109.355367 273.855849 
L 120.86967 273.871639 
L 132.383973 273.875587 
L 143.898277 273.883481 
L 155.41258 273.887429 
L 166.926883 273.871639 
L 178.441186 273.879532 
L 189.955489 273.883481 
L 201.469792 273.887429 
L 212.984095 273.887429 
L 224.498398 273.891377 
L 236.012701 273.89927 
L 247.527004 273.903218 
L 259.041307 273.922953 
L 270.55561 273.907166 
L 282.069913 273.938743 
L 293.584216 273.919008 
L 305.098519 273.946639 
L 316.612822 273.99006 
L 328.127125 273.97427 
L 339.641428 273.986112 
L 351.155731 273.99006 
L 362.670034 273.986112 
L 374.184337 273.99006 
L 385.69864 273.99006 
L 397.212943 273.99006 
L 408.727246 273.99006 
L 420.241549 273.99006 
L 431.755852 273.99006 
L 443.270155 273.99006 
L 454.784458 273.99006 
L 466.298761 273.99006 
L 477.813064 273.99006 
L 489.327367 273.99006 
L 500.84167 273.99006 
L 512.355973 273.99006 
L 523.870277 273.99006 
L 535.38458 273.986003 
L 546.898883 273.985974 
L 558.413186 273.99006 
L 569.927489 273.99006 
L 581.441792 273.985874 
L 592.956095 273.97315 
L 604.470398 273.981516 
L 615.984701 273.977113 
L 627.499004 273.950808 
L 639.013307 273.954814 
L 650.52761 273.945555 
L 662.041913 273.954074 
L 673.556216 273.944643 
L 685.070519 273.944202 
L 696.584822 273.934519 
L 708.099125 273.915312 
L 719.613428 273.928713 
L 731.127731 273.928092 
L 742.642034 273.937062 
L 754.156337 273.936534 
L 765.67064 273.926186 
L 777.184943 273.920613 
L 788.699246 273.940007 
L 800.213549 273.929431 
L 811.727852 273.944153 
L 823.242155 273.938581 
L 834.756458 273.938096 
L 846.270761 273.958583 
L 857.785064 273.974173 
L 869.299367 273.99006 
L 880.81367 273.99006 
L 892.327973 273.99006 
L 903.842277 273.99006 
L 915.35658 273.99006 
L 926.870883 273.99006 
L 938.385186 273.98382 
L 949.899489 273.99006 
" style="fill:none;stroke:#434348;stroke-linecap:square;"/>
   </g>
   <g id="line2d_19">
    <path clip-path="url(#pae57a01012)" d="M 43.148125 273.99006 
L 993.078125 273.99006 
" style="fill:none;stroke:#dedede;stroke-linecap:square;stroke-width:2;"/>
   </g>
   <g id="text_17">
    <!-- Picard: Base Distribution -->
    <g transform="translate(419.786875 19.3575)scale(0.16 -0.16)">
     <defs>
      <path d="M 19.671875 64.796875 
L 19.671875 37.40625 
L 32.078125 37.40625 
Q 38.96875 37.40625 42.71875 40.96875 
Q 46.484375 44.53125 46.484375 51.125 
Q 46.484375 57.671875 42.71875 61.234375 
Q 38.96875 64.796875 32.078125 64.796875 
z
M 9.8125 72.90625 
L 32.078125 72.90625 
Q 44.34375 72.90625 50.609375 67.359375 
Q 56.890625 61.8125 56.890625 51.125 
Q 56.890625 40.328125 50.609375 34.8125 
Q 44.34375 29.296875 32.078125 29.296875 
L 19.671875 29.296875 
L 19.671875 0 
L 9.8125 0 
z
" id="DejaVuSans-80"/>
      <path d="M 34.28125 27.484375 
Q 23.390625 27.484375 19.1875 25 
Q 14.984375 22.515625 14.984375 16.5 
Q 14.984375 11.71875 18.140625 8.90625 
Q 21.296875 6.109375 26.703125 6.109375 
Q 34.1875 6.109375 38.703125 11.40625 
Q 43.21875 16.703125 43.21875 25.484375 
L 43.21875 27.484375 
z
M 52.203125 31.203125 
L 52.203125 0 
L 43.21875 0 
L 43.21875 8.296875 
Q 40.140625 3.328125 35.546875 0.953125 
Q 30.953125 -1.421875 24.3125 -1.421875 
Q 15.921875 -1.421875 10.953125 3.296875 
Q 6 8.015625 6 15.921875 
Q 6 25.140625 12.171875 29.828125 
Q 18.359375 34.515625 30.609375 34.515625 
L 43.21875 34.515625 
L 43.21875 35.40625 
Q 43.21875 41.609375 39.140625 45 
Q 35.0625 48.390625 27.6875 48.390625 
Q 23 48.390625 18.546875 47.265625 
Q 14.109375 46.140625 10.015625 43.890625 
L 10.015625 52.203125 
Q 14.9375 54.109375 19.578125 55.046875 
Q 24.21875 56 28.609375 56 
Q 40.484375 56 46.34375 49.84375 
Q 52.203125 43.703125 52.203125 31.203125 
z
" id="DejaVuSans-97"/>
      <path d="M 11.71875 12.40625 
L 22.015625 12.40625 
L 22.015625 0 
L 11.71875 0 
z
M 11.71875 51.703125 
L 22.015625 51.703125 
L 22.015625 39.3125 
L 11.71875 39.3125 
z
" id="DejaVuSans-58"/>
      <path d="M 19.671875 34.8125 
L 19.671875 8.109375 
L 35.5 8.109375 
Q 43.453125 8.109375 47.28125 11.40625 
Q 51.125 14.703125 51.125 21.484375 
Q 51.125 28.328125 47.28125 31.5625 
Q 43.453125 34.8125 35.5 34.8125 
z
M 19.671875 64.796875 
L 19.671875 42.828125 
L 34.28125 42.828125 
Q 41.5 42.828125 45.03125 45.53125 
Q 48.578125 48.25 48.578125 53.8125 
Q 48.578125 59.328125 45.03125 62.0625 
Q 41.5 64.796875 34.28125 64.796875 
z
M 9.8125 72.90625 
L 35.015625 72.90625 
Q 46.296875 72.90625 52.390625 68.21875 
Q 58.5 63.53125 58.5 54.890625 
Q 58.5 48.1875 55.375 44.234375 
Q 52.25 40.28125 46.1875 39.3125 
Q 53.46875 37.75 57.5 32.78125 
Q 61.53125 27.828125 61.53125 20.40625 
Q 61.53125 10.640625 54.890625 5.3125 
Q 48.25 0 35.984375 0 
L 9.8125 0 
z
" id="DejaVuSans-66"/>
      <path d="M 44.28125 53.078125 
L 44.28125 44.578125 
Q 40.484375 46.53125 36.375 47.5 
Q 32.28125 48.484375 27.875 48.484375 
Q 21.1875 48.484375 17.84375 46.4375 
Q 14.5 44.390625 14.5 40.28125 
Q 14.5 37.15625 16.890625 35.375 
Q 19.28125 33.59375 26.515625 31.984375 
L 29.59375 31.296875 
Q 39.15625 29.25 43.1875 25.515625 
Q 47.21875 21.78125 47.21875 15.09375 
Q 47.21875 7.46875 41.1875 3.015625 
Q 35.15625 -1.421875 24.609375 -1.421875 
Q 20.21875 -1.421875 15.453125 -0.5625 
Q 10.6875 0.296875 5.421875 2 
L 5.421875 11.28125 
Q 10.40625 8.6875 15.234375 7.390625 
Q 20.0625 6.109375 24.8125 6.109375 
Q 31.15625 6.109375 34.5625 8.28125 
Q 37.984375 10.453125 37.984375 14.40625 
Q 37.984375 18.0625 35.515625 20.015625 
Q 33.0625 21.96875 24.703125 23.78125 
L 21.578125 24.515625 
Q 13.234375 26.265625 9.515625 29.90625 
Q 5.8125 33.546875 5.8125 39.890625 
Q 5.8125 47.609375 11.28125 51.796875 
Q 16.75 56 26.8125 56 
Q 31.78125 56 36.171875 55.265625 
Q 40.578125 54.546875 44.28125 53.078125 
z
" id="DejaVuSans-115"/>
      <path d="M 19.671875 64.796875 
L 19.671875 8.109375 
L 31.59375 8.109375 
Q 46.6875 8.109375 53.6875 14.9375 
Q 60.6875 21.78125 60.6875 36.53125 
Q 60.6875 51.171875 53.6875 57.984375 
Q 46.6875 64.796875 31.59375 64.796875 
z
M 9.8125 72.90625 
L 30.078125 72.90625 
Q 51.265625 72.90625 61.171875 64.09375 
Q 71.09375 55.28125 71.09375 36.53125 
Q 71.09375 17.671875 61.125 8.828125 
Q 51.171875 0 30.078125 0 
L 9.8125 0 
z
" id="DejaVuSans-68"/>
      <path d="M 48.6875 27.296875 
Q 48.6875 37.203125 44.609375 42.84375 
Q 40.53125 48.484375 33.40625 48.484375 
Q 26.265625 48.484375 22.1875 42.84375 
Q 18.109375 37.203125 18.109375 27.296875 
Q 18.109375 17.390625 22.1875 11.75 
Q 26.265625 6.109375 33.40625 6.109375 
Q 40.53125 6.109375 44.609375 11.75 
Q 48.6875 17.390625 48.6875 27.296875 
z
M 18.109375 46.390625 
Q 20.953125 51.265625 25.265625 53.625 
Q 29.59375 56 35.59375 56 
Q 45.5625 56 51.78125 48.09375 
Q 58.015625 40.1875 58.015625 27.296875 
Q 58.015625 14.40625 51.78125 6.484375 
Q 45.5625 -1.421875 35.59375 -1.421875 
Q 29.59375 -1.421875 25.265625 0.953125 
Q 20.953125 3.328125 18.109375 8.203125 
L 18.109375 0 
L 9.078125 0 
L 9.078125 75.984375 
L 18.109375 75.984375 
z
" id="DejaVuSans-98"/>
      <path d="M 8.5 21.578125 
L 8.5 54.6875 
L 17.484375 54.6875 
L 17.484375 21.921875 
Q 17.484375 14.15625 20.5 10.265625 
Q 23.53125 6.390625 29.59375 6.390625 
Q 36.859375 6.390625 41.078125 11.03125 
Q 45.3125 15.671875 45.3125 23.6875 
L 45.3125 54.6875 
L 54.296875 54.6875 
L 54.296875 0 
L 45.3125 0 
L 45.3125 8.40625 
Q 42.046875 3.421875 37.71875 1 
Q 33.40625 -1.421875 27.6875 -1.421875 
Q 18.265625 -1.421875 13.375 4.4375 
Q 8.5 10.296875 8.5 21.578125 
z
M 31.109375 56 
z
" id="DejaVuSans-117"/>
      <path d="M 30.609375 48.390625 
Q 23.390625 48.390625 19.1875 42.75 
Q 14.984375 37.109375 14.984375 27.296875 
Q 14.984375 17.484375 19.15625 11.84375 
Q 23.34375 6.203125 30.609375 6.203125 
Q 37.796875 6.203125 41.984375 11.859375 
Q 46.1875 17.53125 46.1875 27.296875 
Q 46.1875 37.015625 41.984375 42.703125 
Q 37.796875 48.390625 30.609375 48.390625 
z
M 30.609375 56 
Q 42.328125 56 49.015625 48.375 
Q 55.71875 40.765625 55.71875 27.296875 
Q 55.71875 13.875 49.015625 6.21875 
Q 42.328125 -1.421875 30.609375 -1.421875 
Q 18.84375 -1.421875 12.171875 6.21875 
Q 5.515625 13.875 5.515625 27.296875 
Q 5.515625 40.765625 12.171875 48.375 
Q 18.84375 56 30.609375 56 
z
" id="DejaVuSans-111"/>
     </defs>
     <use xlink:href="#DejaVuSans-80"/>
     <use x="58.052734" xlink:href="#DejaVuSans-105"/>
     <use x="85.835938" xlink:href="#DejaVuSans-99"/>
     <use x="140.816406" xlink:href="#DejaVuSans-97"/>
     <use x="202.095703" xlink:href="#DejaVuSans-114"/>
     <use x="241.458984" xlink:href="#DejaVuSans-100"/>
     <use x="304.935547" xlink:href="#DejaVuSans-58"/>
     <use x="338.626953" xlink:href="#DejaVuSans-32"/>
     <use x="370.414062" xlink:href="#DejaVuSans-66"/>
     <use x="439.017578" xlink:href="#DejaVuSans-97"/>
     <use x="500.296875" xlink:href="#DejaVuSans-115"/>
     <use x="552.396484" xlink:href="#DejaVuSans-101"/>
     <use x="613.919922" xlink:href="#DejaVuSans-32"/>
     <use x="645.707031" xlink:href="#DejaVuSans-68"/>
     <use x="722.708984" xlink:href="#DejaVuSans-105"/>
     <use x="750.492188" xlink:href="#DejaVuSans-115"/>
     <use x="802.591797" xlink:href="#DejaVuSans-116"/>
     <use x="841.800781" xlink:href="#DejaVuSans-114"/>
     <use x="882.914062" xlink:href="#DejaVuSans-105"/>
     <use x="910.697266" xlink:href="#DejaVuSans-98"/>
     <use x="974.173828" xlink:href="#DejaVuSans-117"/>
     <use x="1037.552734" xlink:href="#DejaVuSans-116"/>
     <use x="1076.761719" xlink:href="#DejaVuSans-105"/>
     <use x="1104.544922" xlink:href="#DejaVuSans-111"/>
     <use x="1165.726562" xlink:href="#DejaVuSans-110"/>
    </g>
   </g>
   <g id="legend_1">
    <g id="line2d_20">
     <path d="M 50.348125 291.525394 
L 66.348125 291.525394 
" style="fill:none;stroke:#7cb5ec;stroke-linecap:square;"/>
    </g>
    <g id="line2d_21"/>
    <g id="text_18">
     <!-- SPT5_INPUT_R1_R1 -->
     <g transform="translate(72.748125 294.325394)scale(0.08 -0.08)">
      <defs>
       <path d="M 53.515625 70.515625 
L 53.515625 60.890625 
Q 47.90625 63.578125 42.921875 64.890625 
Q 37.9375 66.21875 33.296875 66.21875 
Q 25.25 66.21875 20.875 63.09375 
Q 16.5 59.96875 16.5 54.203125 
Q 16.5 49.359375 19.40625 46.890625 
Q 22.3125 44.4375 30.421875 42.921875 
L 36.375 41.703125 
Q 47.40625 39.59375 52.65625 34.296875 
Q 57.90625 29 57.90625 20.125 
Q 57.90625 9.515625 50.796875 4.046875 
Q 43.703125 -1.421875 29.984375 -1.421875 
Q 24.8125 -1.421875 18.96875 -0.25 
Q 13.140625 0.921875 6.890625 3.21875 
L 6.890625 13.375 
Q 12.890625 10.015625 18.65625 8.296875 
Q 24.421875 6.59375 29.984375 6.59375 
Q 38.421875 6.59375 43.015625 9.90625 
Q 47.609375 13.234375 47.609375 19.390625 
Q 47.609375 24.75 44.3125 27.78125 
Q 41.015625 30.8125 33.5 32.328125 
L 27.484375 33.5 
Q 16.453125 35.6875 11.515625 40.375 
Q 6.59375 45.0625 6.59375 53.421875 
Q 6.59375 63.09375 13.40625 68.65625 
Q 20.21875 74.21875 32.171875 74.21875 
Q 37.3125 74.21875 42.625 73.28125 
Q 47.953125 72.359375 53.515625 70.515625 
z
" id="DejaVuSans-83"/>
       <path d="M -0.296875 72.90625 
L 61.375 72.90625 
L 61.375 64.59375 
L 35.5 64.59375 
L 35.5 0 
L 25.59375 0 
L 25.59375 64.59375 
L -0.296875 64.59375 
z
" id="DejaVuSans-84"/>
       <path d="M 50.984375 -16.609375 
L 50.984375 -23.578125 
L -0.984375 -23.578125 
L -0.984375 -16.609375 
z
" id="DejaVuSans-95"/>
       <path d="M 9.8125 72.90625 
L 19.671875 72.90625 
L 19.671875 0 
L 9.8125 0 
z
" id="DejaVuSans-73"/>
       <path d="M 9.8125 72.90625 
L 23.09375 72.90625 
L 55.421875 11.921875 
L 55.421875 72.90625 
L 64.984375 72.90625 
L 64.984375 0 
L 51.703125 0 
L 19.390625 60.984375 
L 19.390625 0 
L 9.8125 0 
z
" id="DejaVuSans-78"/>
       <path d="M 44.390625 34.1875 
Q 47.5625 33.109375 50.5625 29.59375 
Q 53.5625 26.078125 56.59375 19.921875 
L 66.609375 0 
L 56 0 
L 46.6875 18.703125 
Q 43.0625 26.03125 39.671875 28.421875 
Q 36.28125 30.8125 30.421875 30.8125 
L 19.671875 30.8125 
L 19.671875 0 
L 9.8125 0 
L 9.8125 72.90625 
L 32.078125 72.90625 
Q 44.578125 72.90625 50.734375 67.671875 
Q 56.890625 62.453125 56.890625 51.90625 
Q 56.890625 45.015625 53.6875 40.46875 
Q 50.484375 35.9375 44.390625 34.1875 
z
M 19.671875 64.796875 
L 19.671875 38.921875 
L 32.078125 38.921875 
Q 39.203125 38.921875 42.84375 42.21875 
Q 46.484375 45.515625 46.484375 51.90625 
Q 46.484375 58.296875 42.84375 61.546875 
Q 39.203125 64.796875 32.078125 64.796875 
z
" id="DejaVuSans-82"/>
      </defs>
      <use xlink:href="#DejaVuSans-83"/>
      <use x="63.476562" xlink:href="#DejaVuSans-80"/>
      <use x="123.779297" xlink:href="#DejaVuSans-84"/>
      <use x="184.863281" xlink:href="#DejaVuSans-53"/>
      <use x="248.486328" xlink:href="#DejaVuSans-95"/>
      <use x="298.486328" xlink:href="#DejaVuSans-73"/>
      <use x="327.978516" xlink:href="#DejaVuSans-78"/>
      <use x="402.783203" xlink:href="#DejaVuSans-80"/>
      <use x="463.085938" xlink:href="#DejaVuSans-85"/>
      <use x="536.279297" xlink:href="#DejaVuSans-84"/>
      <use x="597.363281" xlink:href="#DejaVuSans-95"/>
      <use x="647.363281" xlink:href="#DejaVuSans-82"/>
      <use x="716.845703" xlink:href="#DejaVuSans-49"/>
      <use x="780.46875" xlink:href="#DejaVuSans-95"/>
      <use x="830.46875" xlink:href="#DejaVuSans-82"/>
      <use x="899.951172" xlink:href="#DejaVuSans-49"/>
     </g>
    </g>
    <g id="line2d_22">
     <path d="M 50.348125 303.490394 
L 66.348125 303.490394 
" style="fill:none;stroke:#434348;stroke-linecap:square;"/>
    </g>
    <g id="line2d_23"/>
    <g id="text_19">
     <!-- SPT5_INPUT_R1_R2 -->
     <g transform="translate(72.748125 306.290394)scale(0.08 -0.08)">
      <use xlink:href="#DejaVuSans-83"/>
      <use x="63.476562" xlink:href="#DejaVuSans-80"/>
      <use x="123.779297" xlink:href="#DejaVuSans-84"/>
      <use x="184.863281" xlink:href="#DejaVuSans-53"/>
      <use x="248.486328" xlink:href="#DejaVuSans-95"/>
      <use x="298.486328" xlink:href="#DejaVuSans-73"/>
      <use x="327.978516" xlink:href="#DejaVuSans-78"/>
      <use x="402.783203" xlink:href="#DejaVuSans-80"/>
      <use x="463.085938" xlink:href="#DejaVuSans-85"/>
      <use x="536.279297" xlink:href="#DejaVuSans-84"/>
      <use x="597.363281" xlink:href="#DejaVuSans-95"/>
      <use x="647.363281" xlink:href="#DejaVuSans-82"/>
      <use x="716.845703" xlink:href="#DejaVuSans-49"/>
      <use x="780.46875" xlink:href="#DejaVuSans-95"/>
      <use x="830.46875" xlink:href="#DejaVuSans-82"/>
      <use x="899.951172" xlink:href="#DejaVuSans-50"/>
     </g>
    </g>
    <g id="line2d_24">
     <path d="M 50.348125 315.455394 
L 66.348125 315.455394 
" style="fill:none;stroke:#90ed7d;stroke-linecap:square;"/>
    </g>
    <g id="line2d_25"/>
    <g id="text_20">
     <!-- SPT5_INPUT_R2_R1 -->
     <g transform="translate(72.748125 318.255394)scale(0.08 -0.08)">
      <use xlink:href="#DejaVuSans-83"/>
      <use x="63.476562" xlink:href="#DejaVuSans-80"/>
      <use x="123.779297" xlink:href="#DejaVuSans-84"/>
      <use x="184.863281" xlink:href="#DejaVuSans-53"/>
      <use x="248.486328" xlink:href="#DejaVuSans-95"/>
      <use x="298.486328" xlink:href="#DejaVuSans-73"/>
      <use x="327.978516" xlink:href="#DejaVuSans-78"/>
      <use x="402.783203" xlink:href="#DejaVuSans-80"/>
      <use x="463.085938" xlink:href="#DejaVuSans-85"/>
      <use x="536.279297" xlink:href="#DejaVuSans-84"/>
      <use x="597.363281" xlink:href="#DejaVuSans-95"/>
      <use x="647.363281" xlink:href="#DejaVuSans-82"/>
      <use x="716.845703" xlink:href="#DejaVuSans-50"/>
      <use x="780.46875" xlink:href="#DejaVuSans-95"/>
      <use x="830.46875" xlink:href="#DejaVuSans-82"/>
      <use x="899.951172" xlink:href="#DejaVuSans-49"/>
     </g>
    </g>
    <g id="line2d_26">
     <path d="M 267.264375 291.525394 
L 283.264375 291.525394 
" style="fill:none;stroke:#f7a35c;stroke-linecap:square;"/>
    </g>
    <g id="line2d_27"/>
    <g id="text_21">
     <!-- SPT5_INPUT_R2_R2 -->
     <g transform="translate(289.664375 294.325394)scale(0.08 -0.08)">
      <use xlink:href="#DejaVuSans-83"/>
      <use x="63.476562" xlink:href="#DejaVuSans-80"/>
      <use x="123.779297" xlink:href="#DejaVuSans-84"/>
      <use x="184.863281" xlink:href="#DejaVuSans-53"/>
      <use x="248.486328" xlink:href="#DejaVuSans-95"/>
      <use x="298.486328" xlink:href="#DejaVuSans-73"/>
      <use x="327.978516" xlink:href="#DejaVuSans-78"/>
      <use x="402.783203" xlink:href="#DejaVuSans-80"/>
      <use x="463.085938" xlink:href="#DejaVuSans-85"/>
      <use x="536.279297" xlink:href="#DejaVuSans-84"/>
      <use x="597.363281" xlink:href="#DejaVuSans-95"/>
      <use x="647.363281" xlink:href="#DejaVuSans-82"/>
      <use x="716.845703" xlink:href="#DejaVuSans-50"/>
      <use x="780.46875" xlink:href="#DejaVuSans-95"/>
      <use x="830.46875" xlink:href="#DejaVuSans-82"/>
      <use x="899.951172" xlink:href="#DejaVuSans-50"/>
     </g>
    </g>
    <g id="line2d_28">
     <path d="M 267.264375 303.490394 
L 283.264375 303.490394 
" style="fill:none;stroke:#8085e9;stroke-linecap:square;"/>
    </g>
    <g id="line2d_29"/>
    <g id="text_22">
     <!-- SPT5_T0_R1_R1 -->
     <g transform="translate(289.664375 306.290394)scale(0.08 -0.08)">
      <use xlink:href="#DejaVuSans-83"/>
      <use x="63.476562" xlink:href="#DejaVuSans-80"/>
      <use x="123.779297" xlink:href="#DejaVuSans-84"/>
      <use x="184.863281" xlink:href="#DejaVuSans-53"/>
      <use x="248.486328" xlink:href="#DejaVuSans-95"/>
      <use x="298.486328" xlink:href="#DejaVuSans-84"/>
      <use x="359.570312" xlink:href="#DejaVuSans-48"/>
      <use x="423.193359" xlink:href="#DejaVuSans-95"/>
      <use x="473.193359" xlink:href="#DejaVuSans-82"/>
      <use x="542.675781" xlink:href="#DejaVuSans-49"/>
      <use x="606.298828" xlink:href="#DejaVuSans-95"/>
      <use x="656.298828" xlink:href="#DejaVuSans-82"/>
      <use x="725.78125" xlink:href="#DejaVuSans-49"/>
     </g>
    </g>
    <g id="line2d_30">
     <path d="M 267.264375 315.455394 
L 283.264375 315.455394 
" style="fill:none;stroke:#f15c80;stroke-linecap:square;"/>
    </g>
    <g id="line2d_31"/>
    <g id="text_23">
     <!-- SPT5_T0_R1_R2 -->
     <g transform="translate(289.664375 318.255394)scale(0.08 -0.08)">
      <use xlink:href="#DejaVuSans-83"/>
      <use x="63.476562" xlink:href="#DejaVuSans-80"/>
      <use x="123.779297" xlink:href="#DejaVuSans-84"/>
      <use x="184.863281" xlink:href="#DejaVuSans-53"/>
      <use x="248.486328" xlink:href="#DejaVuSans-95"/>
      <use x="298.486328" xlink:href="#DejaVuSans-84"/>
      <use x="359.570312" xlink:href="#DejaVuSans-48"/>
      <use x="423.193359" xlink:href="#DejaVuSans-95"/>
      <use x="473.193359" xlink:href="#DejaVuSans-82"/>
      <use x="542.675781" xlink:href="#DejaVuSans-49"/>
      <use x="606.298828" xlink:href="#DejaVuSans-95"/>
      <use x="656.298828" xlink:href="#DejaVuSans-82"/>
      <use x="725.78125" xlink:href="#DejaVuSans-50"/>
     </g>
    </g>
    <g id="line2d_32">
     <path d="M 484.180625 291.525394 
L 500.180625 291.525394 
" style="fill:none;stroke:#e4d354;stroke-linecap:square;"/>
    </g>
    <g id="line2d_33"/>
    <g id="text_24">
     <!-- SPT5_T0_R2_R1 -->
     <g transform="translate(506.580625 294.325394)scale(0.08 -0.08)">
      <use xlink:href="#DejaVuSans-83"/>
      <use x="63.476562" xlink:href="#DejaVuSans-80"/>
      <use x="123.779297" xlink:href="#DejaVuSans-84"/>
      <use x="184.863281" xlink:href="#DejaVuSans-53"/>
      <use x="248.486328" xlink:href="#DejaVuSans-95"/>
      <use x="298.486328" xlink:href="#DejaVuSans-84"/>
      <use x="359.570312" xlink:href="#DejaVuSans-48"/>
      <use x="423.193359" xlink:href="#DejaVuSans-95"/>
      <use x="473.193359" xlink:href="#DejaVuSans-82"/>
      <use x="542.675781" xlink:href="#DejaVuSans-50"/>
      <use x="606.298828" xlink:href="#DejaVuSans-95"/>
      <use x="656.298828" xlink:href="#DejaVuSans-82"/>
      <use x="725.78125" xlink:href="#DejaVuSans-49"/>
     </g>
    </g>
    <g id="line2d_34">
     <path d="M 484.180625 303.490394 
L 500.180625 303.490394 
" style="fill:none;stroke:#2b908f;stroke-linecap:square;"/>
    </g>
    <g id="line2d_35"/>
    <g id="text_25">
     <!-- SPT5_T0_R2_R2 -->
     <g transform="translate(506.580625 306.290394)scale(0.08 -0.08)">
      <use xlink:href="#DejaVuSans-83"/>
      <use x="63.476562" xlink:href="#DejaVuSans-80"/>
      <use x="123.779297" xlink:href="#DejaVuSans-84"/>
      <use x="184.863281" xlink:href="#DejaVuSans-53"/>
      <use x="248.486328" xlink:href="#DejaVuSans-95"/>
      <use x="298.486328" xlink:href="#DejaVuSans-84"/>
      <use x="359.570312" xlink:href="#DejaVuSans-48"/>
      <use x="423.193359" xlink:href="#DejaVuSans-95"/>
      <use x="473.193359" xlink:href="#DejaVuSans-82"/>
      <use x="542.675781" xlink:href="#DejaVuSans-50"/>
      <use x="606.298828" xlink:href="#DejaVuSans-95"/>
      <use x="656.298828" xlink:href="#DejaVuSans-82"/>
      <use x="725.78125" xlink:href="#DejaVuSans-50"/>
     </g>
    </g>
    <g id="line2d_36">
     <path d="M 687.163125 291.525394 
L 703.163125 291.525394 
" style="fill:none;stroke:#f45b5b;stroke-linecap:square;"/>
    </g>
    <g id="line2d_37"/>
    <g id="text_26">
     <!-- SPT5_T15_R1_R1 -->
     <g transform="translate(709.563125 294.325394)scale(0.08 -0.08)">
      <use xlink:href="#DejaVuSans-83"/>
      <use x="63.476562" xlink:href="#DejaVuSans-80"/>
      <use x="123.779297" xlink:href="#DejaVuSans-84"/>
      <use x="184.863281" xlink:href="#DejaVuSans-53"/>
      <use x="248.486328" xlink:href="#DejaVuSans-95"/>
      <use x="298.486328" xlink:href="#DejaVuSans-84"/>
      <use x="359.570312" xlink:href="#DejaVuSans-49"/>
      <use x="423.193359" xlink:href="#DejaVuSans-53"/>
      <use x="486.816406" xlink:href="#DejaVuSans-95"/>
      <use x="536.816406" xlink:href="#DejaVuSans-82"/>
      <use x="606.298828" xlink:href="#DejaVuSans-49"/>
      <use x="669.921875" xlink:href="#DejaVuSans-95"/>
      <use x="719.921875" xlink:href="#DejaVuSans-82"/>
      <use x="789.404297" xlink:href="#DejaVuSans-49"/>
     </g>
    </g>
    <g id="line2d_38">
     <path d="M 687.163125 303.490394 
L 703.163125 303.490394 
" style="fill:none;stroke:#91e8e1;stroke-linecap:square;"/>
    </g>
    <g id="line2d_39"/>
    <g id="text_27">
     <!-- SPT5_T15_R1_R2 -->
     <g transform="translate(709.563125 306.290394)scale(0.08 -0.08)">
      <use xlink:href="#DejaVuSans-83"/>
      <use x="63.476562" xlink:href="#DejaVuSans-80"/>
      <use x="123.779297" xlink:href="#DejaVuSans-84"/>
      <use x="184.863281" xlink:href="#DejaVuSans-53"/>
      <use x="248.486328" xlink:href="#DejaVuSans-95"/>
      <use x="298.486328" xlink:href="#DejaVuSans-84"/>
      <use x="359.570312" xlink:href="#DejaVuSans-49"/>
      <use x="423.193359" xlink:href="#DejaVuSans-53"/>
      <use x="486.816406" xlink:href="#DejaVuSans-95"/>
      <use x="536.816406" xlink:href="#DejaVuSans-82"/>
      <use x="606.298828" xlink:href="#DejaVuSans-49"/>
      <use x="669.921875" xlink:href="#DejaVuSans-95"/>
      <use x="719.921875" xlink:href="#DejaVuSans-82"/>
      <use x="789.404297" xlink:href="#DejaVuSans-50"/>
     </g>
    </g>
    <g id="line2d_40">
     <path d="M 895.235625 291.525394 
L 911.235625 291.525394 
" style="fill:none;stroke:#7cb5ec;stroke-linecap:square;"/>
    </g>
    <g id="line2d_41"/>
    <g id="text_28">
     <!-- SPT5_T15_R2_R1 -->
     <g transform="translate(917.635625 294.325394)scale(0.08 -0.08)">
      <use xlink:href="#DejaVuSans-83"/>
      <use x="63.476562" xlink:href="#DejaVuSans-80"/>
      <use x="123.779297" xlink:href="#DejaVuSans-84"/>
      <use x="184.863281" xlink:href="#DejaVuSans-53"/>
      <use x="248.486328" xlink:href="#DejaVuSans-95"/>
      <use x="298.486328" xlink:href="#DejaVuSans-84"/>
      <use x="359.570312" xlink:href="#DejaVuSans-49"/>
      <use x="423.193359" xlink:href="#DejaVuSans-53"/>
      <use x="486.816406" xlink:href="#DejaVuSans-95"/>
      <use x="536.816406" xlink:href="#DejaVuSans-82"/>
      <use x="606.298828" xlink:href="#DejaVuSans-50"/>
      <use x="669.921875" xlink:href="#DejaVuSans-95"/>
      <use x="719.921875" xlink:href="#DejaVuSans-82"/>
      <use x="789.404297" xlink:href="#DejaVuSans-49"/>
     </g>
    </g>
    <g id="line2d_42">
     <path d="M 895.235625 303.490394 
L 911.235625 303.490394 
" style="fill:none;stroke:#434348;stroke-linecap:square;"/>
    </g>
    <g id="line2d_43"/>
    <g id="text_29">
     <!-- SPT5_T15_R2_R2 -->
     <g transform="translate(917.635625 306.290394)scale(0.08 -0.08)">
      <use xlink:href="#DejaVuSans-83"/>
      <use x="63.476562" xlink:href="#DejaVuSans-80"/>
      <use x="123.779297" xlink:href="#DejaVuSans-84"/>
      <use x="184.863281" xlink:href="#DejaVuSans-53"/>
      <use x="248.486328" xlink:href="#DejaVuSans-95"/>
      <use x="298.486328" xlink:href="#DejaVuSans-84"/>
      <use x="359.570312" xlink:href="#DejaVuSans-49"/>
      <use x="423.193359" xlink:href="#DejaVuSans-53"/>
      <use x="486.816406" xlink:href="#DejaVuSans-95"/>
      <use x="536.816406" xlink:href="#DejaVuSans-82"/>
      <use x="606.298828" xlink:href="#DejaVuSans-50"/>
      <use x="669.921875" xlink:href="#DejaVuSans-95"/>
      <use x="719.921875" xlink:href="#DejaVuSans-82"/>
      <use x="789.404297" xlink:href="#DejaVuSans-50"/>
     </g>
    </g>
   </g>
  </g>
 </g>
 <defs>
  <clipPath id="pae57a01012">
   <rect height="242.5072" width="949.93" x="43.148125" y="31.48286"/>
  </clipPath>
 </defs>
</svg>
